G04 ================== begin FILE IDENTIFICATION RECORD ==================*
G04 Layout Name:  E:/Projects/PCB/FSCV Board/PCB Editor/FSCV_V5.brd*
G04 Film Name:    11_SOLDERMASK_BOTTOM*
G04 File Format:  Gerber RS274X*
G04 File Origin:  Cadence Allegro 17.4-S037*
G04 Origin Date:  Fri Sep  8 15:29:54 2023*
G04 *
G04 Layer:  VIA CLASS/SOLDERMASK_BOTTOM*
G04 Layer:  PIN/SOLDERMASK_BOTTOM*
G04 Layer:  PACKAGE GEOMETRY/SOLDERMASK_BOTTOM*
G04 Layer:  DRAWING FORMAT/OUTLINE*
G04 Layer:  DRAWING FORMAT/TITLE_BLOCK*
G04 Layer:  DRAWING FORMAT/TITLE_DATA*
G04 Layer:  DRAWING FORMAT/REVISION_BLOCK*
G04 Layer:  DRAWING FORMAT/REVISION_DATA*
G04 Layer:  BOARD GEOMETRY/SOLDERMASK_TOP*
G04 Layer:  BOARD GEOMETRY/DESIGN_OUTLINE*
G04 *
G04 Offset:    (0.0000 0.0000)*
G04 Mirror:    No*
G04 Mode:      Positive*
G04 Rotation:  0*
G04 FullContactRelief:  No*
G04 UndefLineWidth:     0.1000*
G04 ================== end FILE IDENTIFICATION RECORD ====================*
%FSLAX25Y25*MOIN*%
%IR0*IPPOS*OFA0.00000B0.00000*MIA0B0*SFA1.00000B1.00000*%
%ADD22R,.055906X.03622*%
%ADD27R,.03622X.055906*%
%ADD32R,.016969X.05328*%
%ADD23R,.071071X.024098*%
%ADD26R,.05728X.021969*%
%AMMACRO31*
4,1,40,-.022894,-.010827,
.022894,-.010827,
.023157,-.010803,
.023413,-.010734,
.023653,-.010622,
.023869,-.010469,
.024056,-.010282,
.024208,-.010065,
.024319,-.009824,
.024387,-.009568,
.024409,-.009311,
.024409,.009311,
.024386,.009575,
.024317,.00983,
.024204,.01007,
.024052,.010287,
.023864,.010473,
.023647,.010625,
.023407,.010736,
.023151,.010804,
.022894,.010827,
-.022894,.010827,
-.023157,.010803,
-.023413,.010734,
-.023653,.010622,
-.023869,.010469,
-.024056,.010282,
-.024208,.010065,
-.024319,.009824,
-.024387,.009568,
-.024409,.009311,
-.024409,-.009311,
-.024386,-.009575,
-.024317,-.00983,
-.024204,-.01007,
-.024052,-.010287,
-.023864,-.010473,
-.023647,-.010625,
-.023407,-.010736,
-.023151,-.010804,
-.022894,-.010827,
0.0*
%
%ADD31MACRO31*%
%ADD34R,.086614X.086614*%
%ADD33R,.059055X.086614*%
%ADD28C,.047244*%
%ADD18R,.110236X.094488*%
%ADD14C,.040157*%
%ADD20R,.048031X.065748*%
%ADD10C,.19685*%
%ADD24R,.065748X.048031*%
%ADD11C,.094488*%
%ADD19C,.066933*%
%ADD29R,.047244X.047244*%
%ADD21C,.07087*%
%ADD13C,.08189*%
%ADD12R,.040157X.040157*%
%ADD37C,.04685*%
%ADD17C,.06811*%
%ADD39C,.051496*%
%ADD15C,.064961*%
%ADD36C,.054724*%
%ADD35R,.048819X.048819*%
%ADD38R,.04685X.04685*%
%ADD40R,.051496X.051496*%
%ADD16R,.064961X.064961*%
%ADD25R,.09X.09*%
%ADD30R,.0385X.02*%
%ADD41C,.003937*%
G75*
%LPD*%
G75*
G54D10*
X785433Y528898D03*
Y960630D03*
X1307087Y528898D03*
Y960630D03*
G54D11*
X797500Y595138D03*
Y615138D03*
Y646319D03*
Y666319D03*
Y697500D03*
Y717500D03*
X817500Y595138D03*
Y615138D03*
X807500Y605138D03*
X817500Y646319D03*
X807500Y656319D03*
X817500Y666319D03*
Y697500D03*
Y717500D03*
X807500Y707500D03*
X837500Y697500D03*
Y717500D03*
X857500Y697500D03*
Y717500D03*
X847500Y707500D03*
X1227500Y926909D03*
X1237500Y936909D03*
X1227500Y946909D03*
X1247874Y700630D03*
Y720630D03*
X1257874Y710630D03*
X1247500Y926909D03*
Y946909D03*
X1267874Y700630D03*
Y720630D03*
G54D20*
X833228Y854626D03*
X839528D03*
X833228Y870374D03*
X839528D03*
X910924Y777149D03*
X904625D03*
X920472Y870079D03*
X914173D03*
X936791Y828780D03*
X943091D03*
G54D30*
X904625Y768740D03*
Y761260D03*
X915375D03*
Y765000D03*
Y768740D03*
G54D12*
X818780Y521004D03*
G54D21*
X828012Y921319D03*
G54D40*
X1207500Y637500D03*
G54D13*
X812087Y541949D03*
X1162087Y528485D03*
G54D31*
X912657Y858268D03*
Y854528D03*
X921988D03*
Y858268D03*
X912657Y862008D03*
X921988D03*
G54D22*
X852933Y755866D03*
Y763740D03*
X896216Y760866D03*
Y768740D03*
X956280Y798189D03*
Y806063D03*
G54D41*
G01X584646Y1424803D02*
Y324803D01*
G01D02*
X2284646D01*
Y1424803D01*
X584646D01*
G01X2234646Y1274803D02*
Y354803D01*
X634646D01*
G01Y1394803D02*
Y354803D01*
G01Y1394803D02*
X644646D01*
G01D02*
X2234646D01*
G01X769685Y515748D02*
Y976378D01*
X1322835D01*
Y515748D01*
X769685D01*
G01X1454646Y354803D02*
Y534803D01*
X2234646D01*
G01X1454646Y504803D02*
X1814646D01*
G01X1462842Y412303D02*
Y417303D01*
X1465249D01*
G01X1464362Y414887D02*
X1462842D01*
G01X1467879Y412303D02*
Y417303D01*
X1469462D01*
X1469969Y417053D01*
X1470286Y416720D01*
X1470412Y416053D01*
X1470286Y415387D01*
X1469906Y414970D01*
X1469462Y414720D01*
X1467879D01*
G01X1469462D02*
X1470412Y412303D01*
G01X1472662D02*
X1474246Y417303D01*
X1475829Y412303D01*
G01X1475259Y414053D02*
X1473232D01*
G01X1480739Y416887D02*
X1480359Y417137D01*
X1479916Y417303D01*
X1479409D01*
X1478839Y417053D01*
X1478396Y416637D01*
X1478079Y416137D01*
X1477826Y415303D01*
X1477762Y414553D01*
X1477889Y413803D01*
X1478079Y413303D01*
X1478459Y412803D01*
X1478902Y412470D01*
X1479346Y412303D01*
X1479789D01*
X1480232Y412470D01*
X1480612Y412720D01*
X1480929Y413053D01*
G01X1484446Y417303D02*
Y412303D01*
G01X1482989Y417303D02*
X1485902D01*
G01X1488786D02*
X1490306D01*
G01X1489546D02*
Y412303D01*
G01X1488786D02*
X1490306D01*
G01X1494646D02*
X1494139Y412387D01*
X1493696Y412720D01*
X1493316Y413220D01*
X1493062Y413803D01*
X1492935Y414470D01*
Y415137D01*
X1493062Y415803D01*
X1493316Y416387D01*
X1493696Y416887D01*
X1494139Y417220D01*
X1494646Y417303D01*
X1495152Y417220D01*
X1495596Y416887D01*
X1495976Y416387D01*
X1496229Y415803D01*
X1496356Y415137D01*
Y414470D01*
X1496229Y413803D01*
X1495976Y413220D01*
X1495596Y412720D01*
X1495152Y412387D01*
X1494646Y412303D01*
G01X1498289D02*
Y417303D01*
X1501202Y412303D01*
Y417303D01*
G01X1503516Y412970D02*
X1504022Y412553D01*
X1504593Y412303D01*
X1505099D01*
X1505606Y412553D01*
X1505986Y412970D01*
X1506176Y413553D01*
X1506049Y414136D01*
X1505732Y414637D01*
X1505162Y414970D01*
X1504402Y415137D01*
X1503959Y415470D01*
X1503769Y416053D01*
X1503896Y416637D01*
X1504212Y417053D01*
X1504656Y417303D01*
X1505099D01*
X1505543Y417137D01*
X1505922Y416720D01*
G01X1514349Y413970D02*
X1515869D01*
G01X1515046Y415053D02*
Y412886D01*
G01X1462462Y427303D02*
X1464046Y432303D01*
X1465629Y427303D01*
G01X1465059Y429053D02*
X1463032D01*
G01X1467689Y427303D02*
Y432303D01*
X1470602Y427303D01*
Y432303D01*
G01X1474626Y429803D02*
X1475893D01*
Y428303D01*
X1475512Y427803D01*
X1475069Y427470D01*
X1474436Y427303D01*
X1473802Y427470D01*
X1473359Y427803D01*
X1472979Y428303D01*
X1472726Y428887D01*
X1472599Y429553D01*
Y430137D01*
X1472726Y430636D01*
X1472979Y431220D01*
X1473359Y431720D01*
X1473739Y432053D01*
X1474246Y432303D01*
X1474689D01*
X1475196Y432137D01*
X1475576Y431803D01*
G01X1478079Y432303D02*
Y427303D01*
X1480612D01*
G01X1485712D02*
X1483179D01*
Y432303D01*
X1485712D01*
G01X1484699Y429887D02*
X1483179D01*
G01X1488216Y427970D02*
X1488722Y427553D01*
X1489293Y427303D01*
X1489799D01*
X1490306Y427553D01*
X1490686Y427970D01*
X1490876Y428553D01*
X1490749Y429136D01*
X1490432Y429637D01*
X1489862Y429970D01*
X1489102Y430137D01*
X1488659Y430470D01*
X1488469Y431053D01*
X1488596Y431637D01*
X1488912Y432053D01*
X1489356Y432303D01*
X1489799D01*
X1490243Y432137D01*
X1490622Y431720D01*
G01X1499049Y428970D02*
X1500569D01*
G01X1499746Y430053D02*
Y427886D01*
G01X1462652Y443303D02*
X1463032Y442720D01*
X1463539Y442387D01*
X1464109Y442303D01*
X1464616Y442387D01*
X1465122Y442803D01*
X1465439Y443303D01*
X1465502Y443803D01*
X1465376Y444386D01*
X1464932Y444803D01*
X1464489Y444970D01*
X1463919D01*
G01X1464489D02*
X1464869Y445220D01*
X1465186Y445636D01*
X1465312Y446137D01*
X1465186Y446637D01*
X1464869Y447053D01*
X1464299Y447303D01*
X1463729Y447220D01*
X1463159Y446887D01*
G01X1472979Y442303D02*
Y447303D01*
X1474499D01*
X1475006Y447053D01*
X1475386Y446470D01*
X1475512Y445803D01*
X1475386Y445137D01*
X1475069Y444637D01*
X1474499Y444386D01*
X1472979D01*
G01X1478079Y447303D02*
Y442303D01*
X1480612D01*
G01X1488152D02*
Y447303D01*
X1489419D01*
X1489926Y447053D01*
X1490306Y446720D01*
X1490622Y446220D01*
X1490876Y445636D01*
X1490939Y444803D01*
X1490876Y443970D01*
X1490622Y443386D01*
X1490306Y442886D01*
X1489926Y442553D01*
X1489419Y442303D01*
X1488152D01*
G01X1495912D02*
X1493379D01*
Y447303D01*
X1495912D01*
G01X1494899Y444887D02*
X1493379D01*
G01X1501139Y446887D02*
X1500759Y447137D01*
X1500316Y447303D01*
X1499809D01*
X1499239Y447053D01*
X1498796Y446637D01*
X1498479Y446137D01*
X1498226Y445303D01*
X1498162Y444553D01*
X1498289Y443803D01*
X1498479Y443303D01*
X1498859Y442803D01*
X1499302Y442470D01*
X1499746Y442303D01*
X1500189D01*
X1500632Y442470D01*
X1501012Y442720D01*
X1501329Y443053D01*
G01X1504086Y447303D02*
X1505606D01*
G01X1504846D02*
Y442303D01*
G01X1504086D02*
X1505606D01*
G01X1508299D02*
Y447303D01*
X1509946Y443137D01*
X1511593Y447303D01*
Y442303D01*
G01X1513462D02*
X1515046Y447303D01*
X1516629Y442303D01*
G01X1516059Y444053D02*
X1514032D01*
G01X1518879Y447303D02*
Y442303D01*
X1521412D01*
G01X1523916Y442970D02*
X1524422Y442553D01*
X1524993Y442303D01*
X1525499D01*
X1526006Y442553D01*
X1526386Y442970D01*
X1526576Y443553D01*
X1526449Y444136D01*
X1526132Y444637D01*
X1525562Y444970D01*
X1524802Y445137D01*
X1524359Y445470D01*
X1524169Y446053D01*
X1524296Y446637D01*
X1524612Y447053D01*
X1525056Y447303D01*
X1525499D01*
X1525943Y447137D01*
X1526322Y446720D01*
G01X1534749Y443970D02*
X1536269D01*
G01X1535446Y445053D02*
Y442886D01*
G01X1462842Y461470D02*
X1463222Y461970D01*
X1463666Y462220D01*
X1464172Y462303D01*
X1464806Y462137D01*
X1465249Y461720D01*
X1465376Y461220D01*
X1465312Y460720D01*
X1465059Y460303D01*
X1463793Y459470D01*
X1463222Y458887D01*
X1462842Y458053D01*
X1462716Y457303D01*
X1465376D01*
G01X1472979D02*
Y462303D01*
X1474499D01*
X1475006Y462053D01*
X1475386Y461470D01*
X1475512Y460803D01*
X1475386Y460137D01*
X1475069Y459637D01*
X1474499Y459386D01*
X1472979D01*
G01X1478079Y462303D02*
Y457303D01*
X1480612D01*
G01X1488152D02*
Y462303D01*
X1489419D01*
X1489926Y462053D01*
X1490306Y461720D01*
X1490622Y461220D01*
X1490876Y460636D01*
X1490939Y459803D01*
X1490876Y458970D01*
X1490622Y458386D01*
X1490306Y457886D01*
X1489926Y457553D01*
X1489419Y457303D01*
X1488152D01*
G01X1495912D02*
X1493379D01*
Y462303D01*
X1495912D01*
G01X1494899Y459887D02*
X1493379D01*
G01X1501139Y461887D02*
X1500759Y462137D01*
X1500316Y462303D01*
X1499809D01*
X1499239Y462053D01*
X1498796Y461637D01*
X1498479Y461137D01*
X1498226Y460303D01*
X1498162Y459553D01*
X1498289Y458803D01*
X1498479Y458303D01*
X1498859Y457803D01*
X1499302Y457470D01*
X1499746Y457303D01*
X1500189D01*
X1500632Y457470D01*
X1501012Y457720D01*
X1501329Y458053D01*
G01X1504086Y462303D02*
X1505606D01*
G01X1504846D02*
Y457303D01*
G01X1504086D02*
X1505606D01*
G01X1508299D02*
Y462303D01*
X1509946Y458137D01*
X1511593Y462303D01*
Y457303D01*
G01X1513462D02*
X1515046Y462303D01*
X1516629Y457303D01*
G01X1516059Y459053D02*
X1514032D01*
G01X1518879Y462303D02*
Y457303D01*
X1521412D01*
G01X1523916Y457970D02*
X1524422Y457553D01*
X1524993Y457303D01*
X1525499D01*
X1526006Y457553D01*
X1526386Y457970D01*
X1526576Y458553D01*
X1526449Y459136D01*
X1526132Y459637D01*
X1525562Y459970D01*
X1524802Y460137D01*
X1524359Y460470D01*
X1524169Y461053D01*
X1524296Y461637D01*
X1524612Y462053D01*
X1525056Y462303D01*
X1525499D01*
X1525943Y462137D01*
X1526322Y461720D01*
G01X1534749Y458970D02*
X1536269D01*
G01X1535446Y460053D02*
Y457886D01*
G01X1464046Y477303D02*
Y472303D01*
G01X1462589Y477303D02*
X1465502D01*
G01X1469146Y472303D02*
X1468639Y472387D01*
X1468196Y472720D01*
X1467816Y473220D01*
X1467562Y473803D01*
X1467435Y474470D01*
Y475137D01*
X1467562Y475803D01*
X1467816Y476387D01*
X1468196Y476887D01*
X1468639Y477220D01*
X1469146Y477303D01*
X1469652Y477220D01*
X1470096Y476887D01*
X1470476Y476387D01*
X1470729Y475803D01*
X1470856Y475137D01*
Y474470D01*
X1470729Y473803D01*
X1470476Y473220D01*
X1470096Y472720D01*
X1469652Y472387D01*
X1469146Y472303D01*
G01X1472979Y477303D02*
Y472303D01*
X1475512D01*
G01X1480612D02*
X1478079D01*
Y477303D01*
X1480612D01*
G01X1479599Y474887D02*
X1478079D01*
G01X1483179Y472303D02*
Y477303D01*
X1484762D01*
X1485269Y477053D01*
X1485586Y476720D01*
X1485712Y476053D01*
X1485586Y475387D01*
X1485206Y474970D01*
X1484762Y474720D01*
X1483179D01*
G01X1484762D02*
X1485712Y472303D01*
G01X1487962D02*
X1489546Y477303D01*
X1491129Y472303D01*
G01X1490559Y474053D02*
X1488532D01*
G01X1493189Y472303D02*
Y477303D01*
X1496102Y472303D01*
Y477303D01*
G01X1501139Y476887D02*
X1500759Y477137D01*
X1500316Y477303D01*
X1499809D01*
X1499239Y477053D01*
X1498796Y476637D01*
X1498479Y476137D01*
X1498226Y475303D01*
X1498162Y474553D01*
X1498289Y473803D01*
X1498479Y473303D01*
X1498859Y472803D01*
X1499302Y472470D01*
X1499746Y472303D01*
X1500189D01*
X1500632Y472470D01*
X1501012Y472720D01*
X1501329Y473053D01*
G01X1506112Y472303D02*
X1503579D01*
Y477303D01*
X1506112D01*
G01X1505099Y474887D02*
X1503579D01*
G01X1508616Y472970D02*
X1509122Y472553D01*
X1509693Y472303D01*
X1510199D01*
X1510706Y472553D01*
X1511086Y472970D01*
X1511276Y473553D01*
X1511149Y474136D01*
X1510832Y474637D01*
X1510262Y474970D01*
X1509502Y475137D01*
X1509059Y475470D01*
X1508869Y476053D01*
X1508996Y476637D01*
X1509312Y477053D01*
X1509756Y477303D01*
X1510199D01*
X1510643Y477137D01*
X1511022Y476720D01*
G01X1520146Y472303D02*
X1519639Y472387D01*
X1519196Y472720D01*
X1518816Y473220D01*
X1518562Y473803D01*
X1518435Y474470D01*
Y475137D01*
X1518562Y475803D01*
X1518816Y476387D01*
X1519196Y476887D01*
X1519639Y477220D01*
X1520146Y477303D01*
X1520652Y477220D01*
X1521096Y476887D01*
X1521476Y476387D01*
X1521729Y475803D01*
X1521856Y475137D01*
Y474470D01*
X1521729Y473803D01*
X1521476Y473220D01*
X1521096Y472720D01*
X1520652Y472387D01*
X1520146Y472303D01*
G01X1523789D02*
Y477303D01*
X1526702Y472303D01*
Y477303D01*
G01X1530346Y472137D02*
X1530219Y472220D01*
Y472387D01*
X1530346Y472470D01*
X1530472Y472387D01*
Y472220D01*
X1530346Y472137D01*
G01Y474386D02*
X1530219Y474470D01*
Y474637D01*
X1530346Y474720D01*
X1530472Y474637D01*
Y474470D01*
X1530346Y474386D01*
G01X1462652Y489803D02*
Y494803D01*
X1463919D01*
X1464426Y494553D01*
X1464806Y494220D01*
X1465122Y493720D01*
X1465376Y493136D01*
X1465439Y492303D01*
X1465376Y491470D01*
X1465122Y490886D01*
X1464806Y490386D01*
X1464426Y490053D01*
X1463919Y489803D01*
X1462652D01*
G01X1468386Y494803D02*
X1469906D01*
G01X1469146D02*
Y489803D01*
G01X1468386D02*
X1469906D01*
G01X1472599D02*
Y494803D01*
X1474246Y490637D01*
X1475893Y494803D01*
Y489803D01*
G01X1480612D02*
X1478079D01*
Y494803D01*
X1480612D01*
G01X1479599Y492387D02*
X1478079D01*
G01X1482989Y489803D02*
Y494803D01*
X1485902Y489803D01*
Y494803D01*
G01X1488216Y490470D02*
X1488722Y490053D01*
X1489293Y489803D01*
X1489799D01*
X1490306Y490053D01*
X1490686Y490470D01*
X1490876Y491053D01*
X1490749Y491636D01*
X1490432Y492137D01*
X1489862Y492470D01*
X1489102Y492637D01*
X1488659Y492970D01*
X1488469Y493553D01*
X1488596Y494137D01*
X1488912Y494553D01*
X1489356Y494803D01*
X1489799D01*
X1490243Y494637D01*
X1490622Y494220D01*
G01X1493886Y494803D02*
X1495406D01*
G01X1494646D02*
Y489803D01*
G01X1493886D02*
X1495406D01*
G01X1499746D02*
X1499239Y489887D01*
X1498796Y490220D01*
X1498416Y490720D01*
X1498162Y491303D01*
X1498035Y491970D01*
Y492637D01*
X1498162Y493303D01*
X1498416Y493887D01*
X1498796Y494387D01*
X1499239Y494720D01*
X1499746Y494803D01*
X1500252Y494720D01*
X1500696Y494387D01*
X1501076Y493887D01*
X1501329Y493303D01*
X1501456Y492637D01*
Y491970D01*
X1501329Y491303D01*
X1501076Y490720D01*
X1500696Y490220D01*
X1500252Y489887D01*
X1499746Y489803D01*
G01X1503389D02*
Y494803D01*
X1506302Y489803D01*
Y494803D01*
G01X1508616Y490470D02*
X1509122Y490053D01*
X1509693Y489803D01*
X1510199D01*
X1510706Y490053D01*
X1511086Y490470D01*
X1511276Y491053D01*
X1511149Y491636D01*
X1510832Y492137D01*
X1510262Y492470D01*
X1509502Y492637D01*
X1509059Y492970D01*
X1508869Y493553D01*
X1508996Y494137D01*
X1509312Y494553D01*
X1509756Y494803D01*
X1510199D01*
X1510643Y494637D01*
X1511022Y494220D01*
G01X1518562Y489803D02*
X1520146Y494803D01*
X1521729Y489803D01*
G01X1521159Y491553D02*
X1519132D01*
G01X1523979Y489803D02*
Y494803D01*
X1525562D01*
X1526069Y494553D01*
X1526386Y494220D01*
X1526512Y493553D01*
X1526386Y492887D01*
X1526006Y492470D01*
X1525562Y492220D01*
X1523979D01*
G01X1525562D02*
X1526512Y489803D01*
G01X1531612D02*
X1529079D01*
Y494803D01*
X1531612D01*
G01X1530599Y492387D02*
X1529079D01*
G01X1539786Y494803D02*
X1541306D01*
G01X1540546D02*
Y489803D01*
G01X1539786D02*
X1541306D01*
G01X1544189D02*
Y494803D01*
X1547102Y489803D01*
Y494803D01*
G01X1555086D02*
X1556606D01*
G01X1555846D02*
Y489803D01*
G01X1555086D02*
X1556606D01*
G01X1559489D02*
Y494803D01*
X1562402Y489803D01*
Y494803D01*
G01X1567439Y494387D02*
X1567059Y494637D01*
X1566616Y494803D01*
X1566109D01*
X1565539Y494553D01*
X1565096Y494137D01*
X1564779Y493637D01*
X1564526Y492803D01*
X1564462Y492053D01*
X1564589Y491303D01*
X1564779Y490803D01*
X1565159Y490303D01*
X1565602Y489970D01*
X1566046Y489803D01*
X1566489D01*
X1566932Y489970D01*
X1567312Y490220D01*
X1567629Y490553D01*
G01X1569816Y489803D02*
Y494803D01*
G01X1572476D02*
Y489803D01*
G01Y492303D02*
X1569816D01*
G01X1577512Y489803D02*
X1574979D01*
Y494803D01*
X1577512D01*
G01X1576499Y492387D02*
X1574979D01*
G01X1580016Y490470D02*
X1580522Y490053D01*
X1581093Y489803D01*
X1581599D01*
X1582106Y490053D01*
X1582486Y490470D01*
X1582676Y491053D01*
X1582549Y491636D01*
X1582232Y492137D01*
X1581662Y492470D01*
X1580902Y492637D01*
X1580459Y492970D01*
X1580269Y493553D01*
X1580396Y494137D01*
X1580712Y494553D01*
X1581156Y494803D01*
X1581599D01*
X1582043Y494637D01*
X1582422Y494220D01*
G01X1462652Y522303D02*
Y518720D01*
X1462906Y517970D01*
X1463412Y517470D01*
X1464046Y517303D01*
X1464679Y517470D01*
X1465186Y517970D01*
X1465439Y518720D01*
Y522303D01*
G01X1467689Y517303D02*
Y522303D01*
X1470602Y517303D01*
Y522303D01*
G01X1472979D02*
Y517303D01*
X1475512D01*
G01X1480612D02*
X1478079D01*
Y522303D01*
X1480612D01*
G01X1479599Y519887D02*
X1478079D01*
G01X1483116Y517970D02*
X1483622Y517553D01*
X1484193Y517303D01*
X1484699D01*
X1485206Y517553D01*
X1485586Y517970D01*
X1485776Y518553D01*
X1485649Y519136D01*
X1485332Y519637D01*
X1484762Y519970D01*
X1484002Y520137D01*
X1483559Y520470D01*
X1483369Y521053D01*
X1483496Y521637D01*
X1483812Y522053D01*
X1484256Y522303D01*
X1484699D01*
X1485143Y522137D01*
X1485522Y521720D01*
G01X1488216Y517970D02*
X1488722Y517553D01*
X1489293Y517303D01*
X1489799D01*
X1490306Y517553D01*
X1490686Y517970D01*
X1490876Y518553D01*
X1490749Y519136D01*
X1490432Y519637D01*
X1489862Y519970D01*
X1489102Y520137D01*
X1488659Y520470D01*
X1488469Y521053D01*
X1488596Y521637D01*
X1488912Y522053D01*
X1489356Y522303D01*
X1489799D01*
X1490243Y522137D01*
X1490622Y521720D01*
G01X1499746Y517303D02*
X1499239Y517387D01*
X1498796Y517720D01*
X1498416Y518220D01*
X1498162Y518803D01*
X1498035Y519470D01*
Y520137D01*
X1498162Y520803D01*
X1498416Y521387D01*
X1498796Y521887D01*
X1499239Y522220D01*
X1499746Y522303D01*
X1500252Y522220D01*
X1500696Y521887D01*
X1501076Y521387D01*
X1501329Y520803D01*
X1501456Y520137D01*
Y519470D01*
X1501329Y518803D01*
X1501076Y518220D01*
X1500696Y517720D01*
X1500252Y517387D01*
X1499746Y517303D01*
G01X1504846Y522303D02*
Y517303D01*
G01X1503389Y522303D02*
X1506302D01*
G01X1508616Y517303D02*
Y522303D01*
G01X1511276D02*
Y517303D01*
G01Y519803D02*
X1508616D01*
G01X1516312Y517303D02*
X1513779D01*
Y522303D01*
X1516312D01*
G01X1515299Y519887D02*
X1513779D01*
G01X1518879Y517303D02*
Y522303D01*
X1520462D01*
X1520969Y522053D01*
X1521286Y521720D01*
X1521412Y521053D01*
X1521286Y520387D01*
X1520906Y519970D01*
X1520462Y519720D01*
X1518879D01*
G01X1520462D02*
X1521412Y517303D01*
G01X1523346Y522303D02*
X1524232Y517303D01*
X1525246Y522303D01*
X1526259Y517303D01*
X1527146Y522303D01*
G01X1529586D02*
X1531106D01*
G01X1530346D02*
Y517303D01*
G01X1529586D02*
X1531106D01*
G01X1534116Y517970D02*
X1534622Y517553D01*
X1535193Y517303D01*
X1535699D01*
X1536206Y517553D01*
X1536586Y517970D01*
X1536776Y518553D01*
X1536649Y519136D01*
X1536332Y519637D01*
X1535762Y519970D01*
X1535002Y520137D01*
X1534559Y520470D01*
X1534369Y521053D01*
X1534496Y521637D01*
X1534812Y522053D01*
X1535256Y522303D01*
X1535699D01*
X1536143Y522137D01*
X1536522Y521720D01*
G01X1541812Y517303D02*
X1539279D01*
Y522303D01*
X1541812D01*
G01X1540799Y519887D02*
X1539279D01*
G01X1549416Y517970D02*
X1549922Y517553D01*
X1550493Y517303D01*
X1550999D01*
X1551506Y517553D01*
X1551886Y517970D01*
X1552076Y518553D01*
X1551949Y519136D01*
X1551632Y519637D01*
X1551062Y519970D01*
X1550302Y520137D01*
X1549859Y520470D01*
X1549669Y521053D01*
X1549796Y521637D01*
X1550112Y522053D01*
X1550556Y522303D01*
X1550999D01*
X1551443Y522137D01*
X1551822Y521720D01*
G01X1554579Y517303D02*
Y522303D01*
X1556099D01*
X1556606Y522053D01*
X1556986Y521470D01*
X1557112Y520803D01*
X1556986Y520137D01*
X1556669Y519637D01*
X1556099Y519386D01*
X1554579D01*
G01X1562212Y517303D02*
X1559679D01*
Y522303D01*
X1562212D01*
G01X1561199Y519887D02*
X1559679D01*
G01X1567439Y521887D02*
X1567059Y522137D01*
X1566616Y522303D01*
X1566109D01*
X1565539Y522053D01*
X1565096Y521637D01*
X1564779Y521137D01*
X1564526Y520303D01*
X1564462Y519553D01*
X1564589Y518803D01*
X1564779Y518303D01*
X1565159Y517803D01*
X1565602Y517470D01*
X1566046Y517303D01*
X1566489D01*
X1566932Y517470D01*
X1567312Y517720D01*
X1567629Y518053D01*
G01X1570386Y522303D02*
X1571906D01*
G01X1571146D02*
Y517303D01*
G01X1570386D02*
X1571906D01*
G01X1575042D02*
Y522303D01*
X1577449D01*
G01X1576562Y519887D02*
X1575042D01*
G01X1580586Y522303D02*
X1582106D01*
G01X1581346D02*
Y517303D01*
G01X1580586D02*
X1582106D01*
G01X1587712D02*
X1585179D01*
Y522303D01*
X1587712D01*
G01X1586699Y519887D02*
X1585179D01*
G01X1590152Y517303D02*
Y522303D01*
X1591419D01*
X1591926Y522053D01*
X1592306Y521720D01*
X1592622Y521220D01*
X1592876Y520636D01*
X1592939Y519803D01*
X1592876Y518970D01*
X1592622Y518386D01*
X1592306Y517886D01*
X1591926Y517553D01*
X1591419Y517303D01*
X1590152D01*
G01X1604646Y534803D02*
Y354803D01*
G01Y389803D02*
X1814646D01*
G01X1604646Y414803D02*
X1814646D01*
G01X1604646Y444803D02*
X1814646D01*
G01X1604646Y474803D02*
X1814646D01*
G01X1647851Y518143D02*
X1648477Y517618D01*
X1649182Y517303D01*
X1649809D01*
X1650436Y517618D01*
X1650906Y518143D01*
X1651141Y518878D01*
X1650984Y519613D01*
X1650592Y520243D01*
X1649887Y520663D01*
X1648947Y520873D01*
X1648399Y521293D01*
X1648164Y522028D01*
X1648321Y522763D01*
X1648712Y523288D01*
X1649261Y523603D01*
X1649809D01*
X1650357Y523393D01*
X1650828Y522868D01*
G01X1654856Y523603D02*
X1656735D01*
G01X1655796D02*
Y517303D01*
G01X1654856D02*
X1656735D01*
G01X1662566Y520453D02*
X1664132D01*
Y518563D01*
X1663662Y517933D01*
X1663114Y517513D01*
X1662331Y517303D01*
X1661547Y517513D01*
X1660999Y517933D01*
X1660529Y518563D01*
X1660216Y519298D01*
X1660059Y520138D01*
Y520873D01*
X1660216Y521503D01*
X1660529Y522238D01*
X1660999Y522868D01*
X1661469Y523288D01*
X1662096Y523603D01*
X1662644D01*
X1663270Y523393D01*
X1663741Y522973D01*
G01X1666594Y517303D02*
Y523603D01*
X1670197Y517303D01*
Y523603D01*
G01X1672737Y517303D02*
X1674696Y523603D01*
X1676654Y517303D01*
G01X1675949Y519508D02*
X1673442D01*
G01X1680996Y523603D02*
Y517303D01*
G01X1679194Y523603D02*
X1682797D01*
G01X1685572D02*
Y519088D01*
X1685885Y518143D01*
X1686512Y517513D01*
X1687296Y517303D01*
X1688079Y517513D01*
X1688706Y518143D01*
X1689019Y519088D01*
Y523603D01*
G01X1692029Y517303D02*
Y523603D01*
X1693987D01*
X1694614Y523288D01*
X1695006Y522868D01*
X1695162Y522028D01*
X1695006Y521188D01*
X1694536Y520663D01*
X1693987Y520348D01*
X1692029D01*
G01X1693987D02*
X1695162Y517303D01*
G01X1701462D02*
X1698329D01*
Y523603D01*
X1701462D01*
G01X1700209Y520558D02*
X1698329D01*
G01X1704551Y518143D02*
X1705177Y517618D01*
X1705882Y517303D01*
X1706509D01*
X1707136Y517618D01*
X1707606Y518143D01*
X1707841Y518878D01*
X1707684Y519613D01*
X1707292Y520243D01*
X1706587Y520663D01*
X1705647Y520873D01*
X1705099Y521293D01*
X1704864Y522028D01*
X1705021Y522763D01*
X1705412Y523288D01*
X1705961Y523603D01*
X1706509D01*
X1707057Y523393D01*
X1707528Y522868D01*
G01X1734646Y417303D02*
Y414803D01*
G01Y417303D02*
Y534803D01*
G01Y1304803D02*
Y1274803D01*
G01Y1394803D02*
Y1304803D01*
G01Y1334803D02*
X2234646D01*
G01X1734646Y1364803D02*
X2234646D01*
G01X1740896Y1344803D02*
Y1354803D01*
X1744020D01*
X1745020Y1354303D01*
X1745646Y1353637D01*
X1745896Y1352303D01*
X1745646Y1350970D01*
X1744896Y1350137D01*
X1744020Y1349636D01*
X1740896D01*
G01X1744020D02*
X1745896Y1344803D01*
G01X1755896D02*
X1750896D01*
Y1354803D01*
X1755896D01*
G01X1753896Y1349970D02*
X1750896D01*
G01X1760270Y1354803D02*
X1763396Y1344803D01*
X1766521Y1354803D01*
G01X1760272Y517303D02*
Y523603D01*
X1761839D01*
X1762466Y523288D01*
X1762936Y522868D01*
X1763328Y522238D01*
X1763641Y521503D01*
X1763719Y520453D01*
X1763641Y519403D01*
X1763328Y518668D01*
X1762936Y518038D01*
X1762466Y517618D01*
X1761839Y517303D01*
X1760272D01*
G01X1766337D02*
X1768296Y523603D01*
X1770254Y517303D01*
G01X1769549Y519508D02*
X1767042D01*
G01X1774596Y523603D02*
Y517303D01*
G01X1772794Y523603D02*
X1776397D01*
G01X1782462Y517303D02*
X1779329D01*
Y523603D01*
X1782462D01*
G01X1781209Y520558D02*
X1779329D01*
G01X1774646Y1304803D02*
Y1274803D01*
G01Y1304803D02*
Y1364803D01*
G01X1814646Y534803D02*
Y354803D01*
G01X2064646Y384803D02*
X1814646D01*
G01X2234646Y424803D02*
X1814646D01*
G01X2234646Y484803D02*
X1814646D01*
G01X1820770Y371136D02*
X1821771Y370303D01*
X1822896Y369803D01*
X1823896D01*
X1824896Y370303D01*
X1825646Y371136D01*
X1826021Y372303D01*
X1825771Y373470D01*
X1825146Y374470D01*
X1824020Y375137D01*
X1822521Y375470D01*
X1821646Y376136D01*
X1821270Y377303D01*
X1821521Y378470D01*
X1822146Y379303D01*
X1823020Y379803D01*
X1823896D01*
X1824771Y379470D01*
X1825521Y378637D01*
G01X1836146Y378970D02*
X1835396Y379470D01*
X1834521Y379803D01*
X1833521D01*
X1832396Y379303D01*
X1831521Y378470D01*
X1830896Y377470D01*
X1830396Y375803D01*
X1830270Y374303D01*
X1830521Y372803D01*
X1830896Y371803D01*
X1831646Y370803D01*
X1832521Y370136D01*
X1833396Y369803D01*
X1834270D01*
X1835146Y370136D01*
X1835896Y370636D01*
X1836521Y371303D01*
G01X1840270Y369803D02*
X1843396Y379803D01*
X1846521Y369803D01*
G01X1845396Y373303D02*
X1841396D01*
G01X1850896Y379803D02*
Y369803D01*
X1855896D01*
G01X1865896D02*
X1860896D01*
Y379803D01*
X1865896D01*
G01X1863896Y374970D02*
X1860896D01*
G01X1820770Y411136D02*
X1821771Y410303D01*
X1822896Y409803D01*
X1823896D01*
X1824896Y410303D01*
X1825646Y411136D01*
X1826021Y412303D01*
X1825771Y413470D01*
X1825146Y414470D01*
X1824020Y415137D01*
X1822521Y415470D01*
X1821646Y416136D01*
X1821270Y417303D01*
X1821521Y418470D01*
X1822146Y419303D01*
X1823020Y419803D01*
X1823896D01*
X1824771Y419470D01*
X1825521Y418637D01*
G01X1831896Y419803D02*
X1834895D01*
G01X1833396D02*
Y409803D01*
G01X1831896D02*
X1834895D01*
G01X1841020Y419803D02*
X1845771D01*
X1841020Y409803D01*
X1845771D01*
G01X1855896D02*
X1850896D01*
Y419803D01*
X1855896D01*
G01X1853896Y414970D02*
X1850896D01*
G01X1845646Y1344803D02*
Y1354803D01*
X1848146D01*
X1849146Y1354303D01*
X1849896Y1353637D01*
X1850521Y1352637D01*
X1851021Y1351470D01*
X1851146Y1349803D01*
X1851021Y1348136D01*
X1850521Y1346970D01*
X1849896Y1345970D01*
X1849146Y1345303D01*
X1848146Y1344803D01*
X1845646D01*
G01X1860896D02*
X1855896D01*
Y1354803D01*
X1860896D01*
G01X1858896Y1349970D02*
X1855896D01*
G01X1865770Y1346136D02*
X1866771Y1345303D01*
X1867896Y1344803D01*
X1868896D01*
X1869896Y1345303D01*
X1870646Y1346136D01*
X1871021Y1347303D01*
X1870771Y1348470D01*
X1870146Y1349470D01*
X1869020Y1350137D01*
X1867521Y1350470D01*
X1866646Y1351136D01*
X1866270Y1352303D01*
X1866521Y1353470D01*
X1867146Y1354303D01*
X1868020Y1354803D01*
X1868896D01*
X1869771Y1354470D01*
X1870521Y1353637D01*
G01X1881146Y1353970D02*
X1880396Y1354470D01*
X1879521Y1354803D01*
X1878521D01*
X1877396Y1354303D01*
X1876521Y1353470D01*
X1875896Y1352470D01*
X1875396Y1350803D01*
X1875270Y1349303D01*
X1875521Y1347803D01*
X1875896Y1346803D01*
X1876646Y1345803D01*
X1877521Y1345136D01*
X1878396Y1344803D01*
X1879270D01*
X1880146Y1345136D01*
X1880896Y1345636D01*
X1881521Y1346303D01*
G01X1885896Y1344803D02*
Y1354803D01*
X1889020D01*
X1890020Y1354303D01*
X1890646Y1353637D01*
X1890896Y1352303D01*
X1890646Y1350970D01*
X1889896Y1350137D01*
X1889020Y1349636D01*
X1885896D01*
G01X1889020D02*
X1890896Y1344803D01*
G01X1896896Y1354803D02*
X1899895D01*
G01X1898396D02*
Y1344803D01*
G01X1896896D02*
X1899895D01*
G01X1905896D02*
Y1354803D01*
X1908896D01*
X1909896Y1354303D01*
X1910646Y1353137D01*
X1910896Y1351803D01*
X1910646Y1350470D01*
X1910020Y1349470D01*
X1908896Y1348970D01*
X1905896D01*
G01X1918396Y1354803D02*
Y1344803D01*
G01X1915521Y1354803D02*
X1921270D01*
G01X1926896D02*
X1929895D01*
G01X1928396D02*
Y1344803D01*
G01X1926896D02*
X1929895D01*
G01X1938396D02*
X1937396Y1344970D01*
X1936521Y1345636D01*
X1935770Y1346636D01*
X1935270Y1347803D01*
X1935020Y1349137D01*
Y1350470D01*
X1935270Y1351803D01*
X1935770Y1352970D01*
X1936521Y1353970D01*
X1937396Y1354637D01*
X1938396Y1354803D01*
X1939396Y1354637D01*
X1940270Y1353970D01*
X1941021Y1352970D01*
X1941521Y1351803D01*
X1941771Y1350470D01*
Y1349137D01*
X1941521Y1347803D01*
X1941021Y1346636D01*
X1940270Y1345636D01*
X1939396Y1344970D01*
X1938396Y1344803D01*
G01X1945521D02*
Y1354803D01*
X1951270Y1344803D01*
Y1354803D01*
G01X1864646Y384803D02*
Y424803D01*
G01X1876020Y409803D02*
Y419803D01*
X1880771D01*
G01X1879020Y414970D02*
X1876020D01*
G01X1885770Y411136D02*
X1886771Y410303D01*
X1887896Y409803D01*
X1888896D01*
X1889896Y410303D01*
X1890646Y411136D01*
X1891021Y412303D01*
X1890771Y413470D01*
X1890146Y414470D01*
X1889020Y415137D01*
X1887521Y415470D01*
X1886646Y416136D01*
X1886270Y417303D01*
X1886521Y418470D01*
X1887146Y419303D01*
X1888020Y419803D01*
X1888896D01*
X1889771Y419470D01*
X1890521Y418637D01*
G01X1901146Y418970D02*
X1900396Y419470D01*
X1899521Y419803D01*
X1898521D01*
X1897396Y419303D01*
X1896521Y418470D01*
X1895896Y417470D01*
X1895396Y415803D01*
X1895270Y414303D01*
X1895521Y412803D01*
X1895896Y411803D01*
X1896646Y410803D01*
X1897521Y410136D01*
X1898396Y409803D01*
X1899270D01*
X1900146Y410136D01*
X1900896Y410636D01*
X1901521Y411303D01*
G01X1905146Y409803D02*
Y419803D01*
X1908396Y411470D01*
X1911646Y419803D01*
Y409803D01*
G01X1925521D02*
Y419803D01*
X1931270Y409803D01*
Y419803D01*
G01X1938396Y409803D02*
X1937396Y409970D01*
X1936521Y410636D01*
X1935770Y411636D01*
X1935270Y412803D01*
X1935020Y414137D01*
Y415470D01*
X1935270Y416803D01*
X1935770Y417970D01*
X1936521Y418970D01*
X1937396Y419637D01*
X1938396Y419803D01*
X1939396Y419637D01*
X1940270Y418970D01*
X1941021Y417970D01*
X1941521Y416803D01*
X1941771Y415470D01*
Y414137D01*
X1941521Y412803D01*
X1941021Y411636D01*
X1940270Y410636D01*
X1939396Y409970D01*
X1938396Y409803D01*
G01X1885521Y504803D02*
Y514803D01*
X1891270Y504803D01*
Y514803D01*
G01X1898396Y504803D02*
Y509303D01*
X1895896Y514803D01*
G01X1900896D02*
X1898396Y509303D01*
G01X1905646Y514803D02*
Y507637D01*
X1906146Y506136D01*
X1907146Y505136D01*
X1908396Y504803D01*
X1909646Y505136D01*
X1910646Y506136D01*
X1911146Y507637D01*
Y514803D01*
G01X1925521Y504803D02*
Y514803D01*
X1931270Y504803D01*
Y514803D01*
G01X1935270Y504803D02*
X1938396Y514803D01*
X1941521Y504803D01*
G01X1940396Y508303D02*
X1936396D01*
G01X1945521Y504803D02*
Y514803D01*
X1951270Y504803D01*
Y514803D01*
G01X1958396Y504803D02*
X1957396Y504970D01*
X1956521Y505636D01*
X1955770Y506636D01*
X1955270Y507803D01*
X1955020Y509137D01*
Y510470D01*
X1955270Y511803D01*
X1955770Y512970D01*
X1956521Y513970D01*
X1957396Y514637D01*
X1958396Y514803D01*
X1959396Y514637D01*
X1960270Y513970D01*
X1961021Y512970D01*
X1961521Y511803D01*
X1961771Y510470D01*
Y509137D01*
X1961521Y507803D01*
X1961021Y506636D01*
X1960270Y505636D01*
X1959396Y504970D01*
X1958396Y504803D01*
G01X1970896D02*
X1965896D01*
Y514803D01*
X1970896D01*
G01X1968896Y509970D02*
X1965896D01*
G01X1975896Y514803D02*
Y504803D01*
X1980896D01*
G01X1990896D02*
X1985896D01*
Y514803D01*
X1990896D01*
G01X1988896Y509970D02*
X1985896D01*
G01X2001146Y513970D02*
X2000396Y514470D01*
X1999521Y514803D01*
X1998521D01*
X1997396Y514303D01*
X1996521Y513470D01*
X1995896Y512470D01*
X1995396Y510803D01*
X1995270Y509303D01*
X1995521Y507803D01*
X1995896Y506803D01*
X1996646Y505803D01*
X1997521Y505136D01*
X1998396Y504803D01*
X1999270D01*
X2000146Y505136D01*
X2000896Y505636D01*
X2001521Y506303D01*
G01X2008396Y514803D02*
Y504803D01*
G01X2005521Y514803D02*
X2011270D01*
G01X2015896Y504803D02*
Y514803D01*
X2019020D01*
X2020020Y514303D01*
X2020646Y513637D01*
X2020896Y512303D01*
X2020646Y510970D01*
X2019896Y510137D01*
X2019020Y509636D01*
X2015896D01*
G01X2019020D02*
X2020896Y504803D01*
G01X2028396D02*
X2027396Y504970D01*
X2026521Y505636D01*
X2025770Y506636D01*
X2025270Y507803D01*
X2025020Y509137D01*
Y510470D01*
X2025270Y511803D01*
X2025770Y512970D01*
X2026521Y513970D01*
X2027396Y514637D01*
X2028396Y514803D01*
X2029396Y514637D01*
X2030270Y513970D01*
X2031021Y512970D01*
X2031521Y511803D01*
X2031771Y510470D01*
Y509137D01*
X2031521Y507803D01*
X2031021Y506636D01*
X2030270Y505636D01*
X2029396Y504970D01*
X2028396Y504803D01*
G01X2035521D02*
Y514803D01*
X2041270Y504803D01*
Y514803D01*
G01X2046896D02*
X2049895D01*
G01X2048396D02*
Y504803D01*
G01X2046896D02*
X2049895D01*
G01X2061146Y513970D02*
X2060396Y514470D01*
X2059521Y514803D01*
X2058521D01*
X2057396Y514303D01*
X2056521Y513470D01*
X2055896Y512470D01*
X2055396Y510803D01*
X2055270Y509303D01*
X2055521Y507803D01*
X2055896Y506803D01*
X2056646Y505803D01*
X2057521Y505136D01*
X2058396Y504803D01*
X2059270D01*
X2060146Y505136D01*
X2060896Y505636D01*
X2061521Y506303D01*
G01X2065770Y506136D02*
X2066771Y505303D01*
X2067896Y504803D01*
X2068896D01*
X2069896Y505303D01*
X2070646Y506136D01*
X2071021Y507303D01*
X2070771Y508470D01*
X2070146Y509470D01*
X2069020Y510137D01*
X2067521Y510470D01*
X2066646Y511136D01*
X2066270Y512303D01*
X2066521Y513470D01*
X2067146Y514303D01*
X2068020Y514803D01*
X2068896D01*
X2069771Y514470D01*
X2070521Y513637D01*
G01X2085896Y514803D02*
Y504803D01*
X2090896D01*
G01X2095270D02*
X2098396Y514803D01*
X2101521Y504803D01*
G01X2100396Y508303D02*
X2096396D01*
G01X2109396Y510137D02*
X2109896Y510637D01*
X2110270Y511470D01*
X2110521Y512637D01*
X2110270Y513637D01*
X2109771Y514303D01*
X2108896Y514803D01*
X2105521D01*
Y504803D01*
X2109646D01*
X2110521Y505470D01*
X2111021Y506470D01*
X2111270Y507637D01*
X2111021Y508803D01*
X2110270Y509803D01*
X2109396Y510137D01*
X2105521D01*
G01X2118396Y504803D02*
X2117396Y504970D01*
X2116521Y505636D01*
X2115770Y506636D01*
X2115270Y507803D01*
X2115020Y509137D01*
Y510470D01*
X2115270Y511803D01*
X2115770Y512970D01*
X2116521Y513970D01*
X2117396Y514637D01*
X2118396Y514803D01*
X2119396Y514637D01*
X2120270Y513970D01*
X2121021Y512970D01*
X2121521Y511803D01*
X2121771Y510470D01*
Y509137D01*
X2121521Y507803D01*
X2121021Y506636D01*
X2120270Y505636D01*
X2119396Y504970D01*
X2118396Y504803D01*
G01X2125896D02*
Y514803D01*
X2129020D01*
X2130020Y514303D01*
X2130646Y513637D01*
X2130896Y512303D01*
X2130646Y510970D01*
X2129896Y510137D01*
X2129020Y509636D01*
X2125896D01*
G01X2129020D02*
X2130896Y504803D01*
G01X2135270D02*
X2138396Y514803D01*
X2141521Y504803D01*
G01X2140396Y508303D02*
X2136396D01*
G01X2148396Y514803D02*
Y504803D01*
G01X2145521Y514803D02*
X2151270D01*
G01X2158396Y504803D02*
X2157396Y504970D01*
X2156521Y505636D01*
X2155770Y506636D01*
X2155270Y507803D01*
X2155020Y509137D01*
Y510470D01*
X2155270Y511803D01*
X2155770Y512970D01*
X2156521Y513970D01*
X2157396Y514637D01*
X2158396Y514803D01*
X2159396Y514637D01*
X2160270Y513970D01*
X2161021Y512970D01*
X2161521Y511803D01*
X2161771Y510470D01*
Y509137D01*
X2161521Y507803D01*
X2161021Y506636D01*
X2160270Y505636D01*
X2159396Y504970D01*
X2158396Y504803D01*
G01X2165896D02*
Y514803D01*
X2169020D01*
X2170020Y514303D01*
X2170646Y513637D01*
X2170896Y512303D01*
X2170646Y510970D01*
X2169896Y510137D01*
X2169020Y509636D01*
X2165896D01*
G01X2169020D02*
X2170896Y504803D01*
G01X2178396D02*
Y509303D01*
X2175896Y514803D01*
G01X2180896D02*
X2178396Y509303D01*
G01X1904646Y384803D02*
Y354803D01*
G01X1950896Y1374803D02*
Y1384803D01*
X1954020D01*
X1955020Y1384303D01*
X1955646Y1383637D01*
X1955896Y1382303D01*
X1955646Y1380970D01*
X1954896Y1380137D01*
X1954020Y1379636D01*
X1950896D01*
G01X1954020D02*
X1955896Y1374803D01*
G01X1965896D02*
X1960896D01*
Y1384803D01*
X1965896D01*
G01X1963896Y1379970D02*
X1960896D01*
G01X1970270Y1384803D02*
X1973396Y1374803D01*
X1976521Y1384803D01*
G01X1981896D02*
X1984895D01*
G01X1983396D02*
Y1374803D01*
G01X1981896D02*
X1984895D01*
G01X1990770Y1376136D02*
X1991771Y1375303D01*
X1992896Y1374803D01*
X1993896D01*
X1994896Y1375303D01*
X1995646Y1376136D01*
X1996021Y1377303D01*
X1995771Y1378470D01*
X1995146Y1379470D01*
X1994020Y1380137D01*
X1992521Y1380470D01*
X1991646Y1381136D01*
X1991270Y1382303D01*
X1991521Y1383470D01*
X1992146Y1384303D01*
X1993020Y1384803D01*
X1993896D01*
X1994771Y1384470D01*
X1995521Y1383637D01*
G01X2001896Y1384803D02*
X2004895D01*
G01X2003396D02*
Y1374803D01*
G01X2001896D02*
X2004895D01*
G01X2013396D02*
X2012396Y1374970D01*
X2011521Y1375636D01*
X2010770Y1376636D01*
X2010270Y1377803D01*
X2010020Y1379137D01*
Y1380470D01*
X2010270Y1381803D01*
X2010770Y1382970D01*
X2011521Y1383970D01*
X2012396Y1384637D01*
X2013396Y1384803D01*
X2014396Y1384637D01*
X2015270Y1383970D01*
X2016021Y1382970D01*
X2016521Y1381803D01*
X2016771Y1380470D01*
Y1379137D01*
X2016521Y1377803D01*
X2016021Y1376636D01*
X2015270Y1375636D01*
X2014396Y1374970D01*
X2013396Y1374803D01*
G01X2020521D02*
Y1384803D01*
X2026270Y1374803D01*
Y1384803D01*
G01X2030770Y1376136D02*
X2031771Y1375303D01*
X2032896Y1374803D01*
X2033896D01*
X2034896Y1375303D01*
X2035646Y1376136D01*
X2036021Y1377303D01*
X2035771Y1378470D01*
X2035146Y1379470D01*
X2034020Y1380137D01*
X2032521Y1380470D01*
X2031646Y1381136D01*
X2031270Y1382303D01*
X2031521Y1383470D01*
X2032146Y1384303D01*
X2033020Y1384803D01*
X2033896D01*
X2034771Y1384470D01*
X2035521Y1383637D01*
G01X1967910Y450787D02*
Y460787D01*
X1972661D01*
G01X1970910Y455954D02*
X1967910D01*
G01X1977660Y452120D02*
X1978661Y451287D01*
X1979785Y450787D01*
X1980785D01*
X1981785Y451287D01*
X1982535Y452120D01*
X1982911Y453287D01*
X1982661Y454454D01*
X1982035Y455454D01*
X1980910Y456121D01*
X1979411Y456454D01*
X1978535Y457120D01*
X1978160Y458287D01*
X1978411Y459454D01*
X1979035Y460287D01*
X1979910Y460787D01*
X1980785D01*
X1981661Y460454D01*
X1982411Y459621D01*
G01X1993035Y459954D02*
X1992285Y460454D01*
X1991411Y460787D01*
X1990411D01*
X1989285Y460287D01*
X1988411Y459454D01*
X1987785Y458454D01*
X1987285Y456787D01*
X1987160Y455287D01*
X1987411Y453787D01*
X1987785Y452787D01*
X1988535Y451787D01*
X1989411Y451120D01*
X1990285Y450787D01*
X1991160D01*
X1992035Y451120D01*
X1992785Y451620D01*
X1993411Y452287D01*
G01X1997160Y460787D02*
X2000285Y450787D01*
X2003411Y460787D01*
G01X2021285Y456121D02*
X2021785Y456621D01*
X2022160Y457454D01*
X2022411Y458621D01*
X2022160Y459621D01*
X2021661Y460287D01*
X2020785Y460787D01*
X2017411D01*
Y450787D01*
X2021535D01*
X2022411Y451454D01*
X2022911Y452454D01*
X2023160Y453621D01*
X2022911Y454787D01*
X2022160Y455787D01*
X2021285Y456121D01*
X2017411D01*
G01X2030285Y450787D02*
X2029285Y450954D01*
X2028411Y451620D01*
X2027660Y452620D01*
X2027160Y453787D01*
X2026910Y455121D01*
Y456454D01*
X2027160Y457787D01*
X2027660Y458954D01*
X2028411Y459954D01*
X2029285Y460621D01*
X2030285Y460787D01*
X2031285Y460621D01*
X2032160Y459954D01*
X2032911Y458954D01*
X2033411Y457787D01*
X2033661Y456454D01*
Y455121D01*
X2033411Y453787D01*
X2032911Y452620D01*
X2032160Y451620D01*
X2031285Y450954D01*
X2030285Y450787D01*
G01X2037160D02*
X2040285Y460787D01*
X2043411Y450787D01*
G01X2042285Y454287D02*
X2038285D01*
G01X2047785Y450787D02*
Y460787D01*
X2050910D01*
X2051910Y460287D01*
X2052535Y459621D01*
X2052785Y458287D01*
X2052535Y456954D01*
X2051785Y456121D01*
X2050910Y455620D01*
X2047785D01*
G01X2050910D02*
X2052785Y450787D01*
G01X2057535D02*
Y460787D01*
X2060035D01*
X2061035Y460287D01*
X2061785Y459621D01*
X2062411Y458621D01*
X2062911Y457454D01*
X2063035Y455787D01*
X2062911Y454120D01*
X2062411Y452954D01*
X2061785Y451954D01*
X2061035Y451287D01*
X2060035Y450787D01*
X2057535D01*
G01X1984646Y384803D02*
Y424803D01*
G01X1995646Y409803D02*
Y419803D01*
X1998146D01*
X1999146Y419303D01*
X1999896Y418637D01*
X2000521Y417637D01*
X2001021Y416470D01*
X2001146Y414803D01*
X2001021Y413136D01*
X2000521Y411970D01*
X1999896Y410970D01*
X1999146Y410303D01*
X1998146Y409803D01*
X1995646D01*
G01X2004646Y419803D02*
X2006396Y409803D01*
X2008396Y419803D01*
X2010396Y409803D01*
X2012146Y419803D01*
G01X2019146Y414803D02*
X2021646D01*
Y411803D01*
X2020896Y410803D01*
X2020020Y410136D01*
X2018771Y409803D01*
X2017521Y410136D01*
X2016646Y410803D01*
X2015896Y411803D01*
X2015396Y412970D01*
X2015146Y414303D01*
Y415470D01*
X2015396Y416470D01*
X2015896Y417637D01*
X2016646Y418637D01*
X2017396Y419303D01*
X2018396Y419803D01*
X2019270D01*
X2020270Y419470D01*
X2021021Y418803D01*
G01X2035521Y409803D02*
Y419803D01*
X2041270Y409803D01*
Y419803D01*
G01X2048396Y409803D02*
X2047396Y409970D01*
X2046521Y410636D01*
X2045770Y411636D01*
X2045270Y412803D01*
X2045020Y414137D01*
Y415470D01*
X2045270Y416803D01*
X2045770Y417970D01*
X2046521Y418970D01*
X2047396Y419637D01*
X2048396Y419803D01*
X2049396Y419637D01*
X2050270Y418970D01*
X2051021Y417970D01*
X2051521Y416803D01*
X2051771Y415470D01*
Y414137D01*
X2051521Y412803D01*
X2051021Y411636D01*
X2050270Y410636D01*
X2049396Y409970D01*
X2048396Y409803D01*
G01X2044646Y1304803D02*
Y1274803D01*
G01Y1294803D02*
Y1334803D01*
G01D02*
Y1364803D01*
G01X2064646Y354803D02*
Y384803D01*
X2234646D01*
G01X2075770Y371136D02*
X2076771Y370303D01*
X2077896Y369803D01*
X2078896D01*
X2079896Y370303D01*
X2080646Y371136D01*
X2081021Y372303D01*
X2080771Y373470D01*
X2080146Y374470D01*
X2079020Y375137D01*
X2077521Y375470D01*
X2076646Y376136D01*
X2076270Y377303D01*
X2076521Y378470D01*
X2077146Y379303D01*
X2078020Y379803D01*
X2078896D01*
X2079771Y379470D01*
X2080521Y378637D01*
G01X2085770Y369803D02*
Y379803D01*
G01X2091021D02*
Y369803D01*
G01Y374803D02*
X2085770D01*
G01X2100896Y369803D02*
X2095896D01*
Y379803D01*
X2100896D01*
G01X2098896Y374970D02*
X2095896D01*
G01X2110896Y369803D02*
X2105896D01*
Y379803D01*
X2110896D01*
G01X2108896Y374970D02*
X2105896D01*
G01X2118396Y379803D02*
Y369803D01*
G01X2115521Y379803D02*
X2121270D01*
G01X2070646Y1344803D02*
Y1354803D01*
X2073146D01*
X2074146Y1354303D01*
X2074896Y1353637D01*
X2075521Y1352637D01*
X2076021Y1351470D01*
X2076146Y1349803D01*
X2076021Y1348136D01*
X2075521Y1346970D01*
X2074896Y1345970D01*
X2074146Y1345303D01*
X2073146Y1344803D01*
X2070646D01*
G01X2080270D02*
X2083396Y1354803D01*
X2086521Y1344803D01*
G01X2085396Y1348303D02*
X2081396D01*
G01X2093396Y1354803D02*
Y1344803D01*
G01X2090521Y1354803D02*
X2096270D01*
G01X2105896Y1344803D02*
X2100896D01*
Y1354803D01*
X2105896D01*
G01X2103896Y1349970D02*
X2100896D01*
G01X2134646Y1304803D02*
Y1274803D01*
G01Y1304803D02*
Y1334803D01*
G01D02*
Y1364803D01*
G01X2145270Y1344803D02*
X2148396Y1354803D01*
X2151521Y1344803D01*
G01X2150396Y1348303D02*
X2146396D01*
G01X2155896Y1344803D02*
Y1354803D01*
X2158896D01*
X2159896Y1354303D01*
X2160646Y1353137D01*
X2160896Y1351803D01*
X2160646Y1350470D01*
X2160020Y1349470D01*
X2158896Y1348970D01*
X2155896D01*
G01X2165896Y1344803D02*
Y1354803D01*
X2168896D01*
X2169896Y1354303D01*
X2170646Y1353137D01*
X2170896Y1351803D01*
X2170646Y1350470D01*
X2170020Y1349470D01*
X2168896Y1348970D01*
X2165896D01*
G01X2175896Y1344803D02*
Y1354803D01*
X2179020D01*
X2180020Y1354303D01*
X2180646Y1353637D01*
X2180896Y1352303D01*
X2180646Y1350970D01*
X2179896Y1350137D01*
X2179020Y1349636D01*
X2175896D01*
G01X2179020D02*
X2180896Y1344803D01*
G01X2188396D02*
X2187396Y1344970D01*
X2186521Y1345636D01*
X2185770Y1346636D01*
X2185270Y1347803D01*
X2185020Y1349137D01*
Y1350470D01*
X2185270Y1351803D01*
X2185770Y1352970D01*
X2186521Y1353970D01*
X2187396Y1354637D01*
X2188396Y1354803D01*
X2189396Y1354637D01*
X2190270Y1353970D01*
X2191021Y1352970D01*
X2191521Y1351803D01*
X2191771Y1350470D01*
Y1349137D01*
X2191521Y1347803D01*
X2191021Y1346636D01*
X2190270Y1345636D01*
X2189396Y1344970D01*
X2188396Y1344803D01*
G01X2195270Y1354803D02*
X2198396Y1344803D01*
X2201521Y1354803D01*
G01X2210896Y1344803D02*
X2205896D01*
Y1354803D01*
X2210896D01*
G01X2208896Y1349970D02*
X2205896D01*
G01X2215646Y1344803D02*
Y1354803D01*
X2218146D01*
X2219146Y1354303D01*
X2219896Y1353637D01*
X2220521Y1352637D01*
X2221021Y1351470D01*
X2221146Y1349803D01*
X2221021Y1348136D01*
X2220521Y1346970D01*
X2219896Y1345970D01*
X2219146Y1345303D01*
X2218146Y1344803D01*
X2215646D01*
G01X2234646Y1394803D02*
Y1274803D01*
G54D14*
X818780Y535965D03*
Y550926D03*
X836496Y521004D03*
X827638D03*
X836496Y535965D03*
X827638D03*
X823209Y540296D03*
X832067D03*
X840925D03*
Y531634D03*
Y525335D03*
X832067Y531634D03*
Y525335D03*
X823209Y531634D03*
Y525335D03*
Y546595D03*
X827638Y551595D03*
X832067Y546595D03*
X836496Y550926D03*
X840925Y546595D03*
X854213Y521004D03*
X845354D03*
X854213Y535965D03*
X845354D03*
X849783Y540296D03*
X858642D03*
Y531634D03*
Y525335D03*
X849783Y531634D03*
Y525335D03*
X845354Y550926D03*
X849783Y546595D03*
X854213Y550926D03*
X858642Y546595D03*
X880787Y521004D03*
X871929D03*
X863071D03*
X880787Y535965D03*
X871929D03*
X863071D03*
X867500Y540296D03*
X876358D03*
Y531634D03*
Y525335D03*
X867500Y531634D03*
Y525335D03*
X863071Y550926D03*
X867500Y546595D03*
X871929Y550926D03*
X876358Y546595D03*
X880787Y550926D03*
X898504Y521004D03*
X889646D03*
X898504Y535965D03*
X889646D03*
X885217Y540296D03*
X894075D03*
Y531634D03*
Y525335D03*
X885217Y531634D03*
Y525335D03*
Y546595D03*
X889646Y550926D03*
X894075Y546595D03*
X898504Y550926D03*
X916220Y521004D03*
X907362D03*
X916220Y535965D03*
X907362D03*
X902933Y540296D03*
X911791D03*
X920650D03*
Y531634D03*
Y525335D03*
X911791Y531634D03*
Y525335D03*
X902933Y531634D03*
Y525335D03*
Y546595D03*
X907362Y550926D03*
X911791Y546595D03*
X916220Y550926D03*
X920650Y546595D03*
X933937Y521004D03*
X925079D03*
X933937Y535965D03*
X925079D03*
X929508Y540296D03*
X938366D03*
Y531634D03*
Y525335D03*
X929508Y531634D03*
Y525335D03*
X925079Y550926D03*
X929508Y546595D03*
X933937Y550926D03*
X938366Y546595D03*
X960512Y521004D03*
X951654D03*
X942795D03*
X960512Y535965D03*
X951654D03*
X942795D03*
X947224Y540296D03*
X956083D03*
Y531634D03*
Y525335D03*
X947224Y531634D03*
Y525335D03*
X942795Y550926D03*
X947224Y546595D03*
X951654Y550926D03*
X956083Y546595D03*
X960512Y550926D03*
X978228Y521004D03*
X969370D03*
X978228Y535965D03*
X969370D03*
X964941Y540296D03*
X973799D03*
Y531634D03*
Y525335D03*
X964941Y531634D03*
Y525335D03*
Y546595D03*
X969370Y550926D03*
X973799Y546595D03*
X978228Y550926D03*
X995945Y521004D03*
X987087D03*
X995945Y535965D03*
X987087D03*
X982657Y540296D03*
X991516D03*
Y531634D03*
Y525335D03*
X982657Y531634D03*
Y525335D03*
Y546595D03*
X987087Y550926D03*
X991516Y546595D03*
X995945Y550926D03*
X1013661Y521004D03*
X1004803D03*
X1013661Y535965D03*
X1004803D03*
X1009232Y540296D03*
X1018091D03*
Y531634D03*
Y525335D03*
X1009232Y531634D03*
Y525335D03*
X1004803Y550926D03*
X1009232Y546595D03*
X1013661Y550926D03*
X1018091Y546595D03*
X1040236Y521004D03*
X1031378D03*
X1022520D03*
X1040236Y535965D03*
X1031378D03*
X1022520D03*
X1026949Y540296D03*
X1035807D03*
Y531634D03*
Y525335D03*
X1026949Y531634D03*
Y525335D03*
X1022520Y550926D03*
X1026949Y546595D03*
X1031378Y550926D03*
X1035807Y546595D03*
X1040236Y550926D03*
X1057953Y521004D03*
X1049094D03*
X1057953Y535965D03*
X1049094D03*
X1044665Y540296D03*
X1053524D03*
Y531634D03*
Y525335D03*
X1044665Y531634D03*
Y525335D03*
Y546595D03*
X1049094Y550926D03*
X1053524Y546595D03*
X1057953Y550926D03*
X1075669Y521004D03*
X1066811D03*
X1075669Y535965D03*
X1066811D03*
X1062382Y540296D03*
X1071240D03*
X1080098D03*
Y531634D03*
Y525335D03*
X1071240Y531634D03*
Y525335D03*
X1062382Y531634D03*
Y525335D03*
Y546595D03*
X1066811Y550926D03*
X1071240Y546595D03*
X1075669Y550926D03*
X1080098Y546595D03*
X1093386Y521004D03*
X1084528D03*
X1093386Y535965D03*
X1084528D03*
X1088957Y540296D03*
X1097815D03*
Y531634D03*
Y525335D03*
X1088957Y531634D03*
Y525335D03*
X1084528Y550926D03*
X1088957Y546595D03*
X1093386Y550926D03*
X1097815Y546595D03*
X1119961Y521004D03*
X1111102D03*
X1102244D03*
X1119961Y535965D03*
X1111102D03*
X1102244D03*
X1106673Y540296D03*
X1115531D03*
Y531634D03*
Y525335D03*
X1106673Y531634D03*
Y525335D03*
X1102244Y550926D03*
X1106673Y546595D03*
X1111102Y550926D03*
X1115531Y546595D03*
X1119961Y550926D03*
X1137677Y521004D03*
X1128819D03*
X1137677Y535965D03*
X1128819D03*
X1124390Y540296D03*
X1133248D03*
Y531634D03*
Y525335D03*
X1124390Y531634D03*
Y525335D03*
Y546595D03*
X1128819Y550926D03*
X1133248Y546595D03*
X1137677Y550926D03*
X1155394Y521004D03*
X1146535D03*
X1155394Y535965D03*
X1146535D03*
X1142106Y540296D03*
X1150965D03*
Y531634D03*
Y525335D03*
X1142106Y531634D03*
Y525335D03*
Y546595D03*
X1146535Y550926D03*
X1150965Y546595D03*
X1155394Y550926D03*
G54D23*
X862970Y756260D03*
Y763740D03*
X872030Y756260D03*
Y760000D03*
Y763740D03*
G54D32*
X938661Y801236D03*
Y818764D03*
X941220Y801236D03*
X943780D03*
X946339D03*
Y818764D03*
X943780D03*
X941220D03*
G54D15*
X803228Y780098D03*
X813228D03*
X803228Y790098D03*
X813228D03*
X803228Y800098D03*
X813228D03*
X803228Y810098D03*
X813228D03*
X803228Y820098D03*
X813228D03*
X803228Y830098D03*
X813228D03*
X803228Y840098D03*
G54D24*
X859626Y778898D03*
Y772598D03*
X868957Y778898D03*
Y772598D03*
X879685Y859350D03*
Y865650D03*
X903827Y859055D03*
Y865354D03*
X923784Y768740D03*
Y762441D03*
X930689Y786378D03*
Y792677D03*
X930870Y858268D03*
Y851969D03*
X946437Y786378D03*
Y792677D03*
G54D33*
X957028Y722126D03*
X947972D03*
X1040472Y664626D03*
X1049528D03*
X1082028Y637126D03*
X1072972D03*
G54D25*
X860000Y862500D03*
G54D16*
X813228Y840098D03*
G54D34*
X952500Y737874D03*
X1045000Y680374D03*
X1077500Y652874D03*
G54D35*
X965000Y760000D03*
X1045276Y639764D03*
X1080709Y590551D03*
X1135000Y810000D03*
X1212500Y717500D03*
X1235000Y545000D03*
G54D17*
X820000Y880000D03*
X872500Y732500D03*
X891732Y868110D03*
X917500Y710000D03*
X956693Y836614D03*
G54D26*
X849286Y860000D03*
Y855000D03*
Y870000D03*
Y865000D03*
X870714Y855000D03*
Y860000D03*
Y865000D03*
Y870000D03*
G54D36*
X996457Y942913D03*
X1046850D03*
X1108661D03*
X1159055D03*
X1248799Y629921D03*
Y753937D03*
X1263799Y661417D03*
Y783465D03*
X1299193Y629921D03*
Y661417D03*
X1295886Y688996D03*
Y724390D03*
X1299193Y753937D03*
Y783465D03*
X1292500Y847303D03*
Y897697D03*
G54D18*
X810295Y898878D03*
Y943760D03*
X834311Y898878D03*
Y943760D03*
G54D27*
X863563Y748189D03*
X871437D03*
X906063Y749252D03*
X913937D03*
G54D37*
X1006654Y942913D03*
X1011654D03*
X1016654D03*
X1021654D03*
X1026654D03*
X1031654D03*
X1118858D03*
X1123858D03*
X1128858D03*
X1133858D03*
X1138858D03*
X1143858D03*
X1258996Y629921D03*
X1263996D03*
X1268996D03*
X1273996D03*
X1278996D03*
Y661417D03*
Y753937D03*
X1273996D03*
X1268996D03*
X1263996D03*
X1278996Y783465D03*
X1283996Y629921D03*
X1288996Y661417D03*
X1283996D03*
X1295886Y699193D03*
Y704193D03*
Y709193D03*
X1288996Y753937D03*
X1283996D03*
X1288996Y783465D03*
X1283996D03*
X1292500Y857500D03*
Y862500D03*
Y867500D03*
Y872500D03*
Y877500D03*
Y882500D03*
G54D19*
X810295Y921319D03*
G54D28*
X899823Y942913D03*
X919823D03*
X914823D03*
X909823D03*
X904823D03*
X939823D03*
X934823D03*
X929823D03*
X924823D03*
G54D38*
X1036654D03*
X1148858D03*
X1258996Y753937D03*
X1273996Y661417D03*
Y783465D03*
X1288996Y629921D03*
X1295886Y714193D03*
X1292500Y887500D03*
G54D29*
X894823Y942913D03*
G54D39*
X1197500Y637500D03*
X1217500D03*
M02*
