G04 ================== begin FILE IDENTIFICATION RECORD ==================*
G04 Layout Name:  E:/Projects/PCB/FSCV Board/PCB Editor/FSCV_V5.brd*
G04 Film Name:    13_SILKSCREEN_BOTTOM*
G04 File Format:  Gerber RS274X*
G04 File Origin:  Cadence Allegro 17.4-S037*
G04 Origin Date:  Fri Sep  8 15:29:54 2023*
G04 *
G04 Layer:  BOARD GEOMETRY/SILKSCREEN_BOTTOM*
G04 Layer:  REF DES/SILKSCREEN_BOTTOM*
G04 Layer:  PACKAGE GEOMETRY/SILKSCREEN_BOTTOM*
G04 Layer:  DEVICE TYPE/SILKSCREEN_BOTTOM*
G04 Layer:  COMPONENT VALUE/SILKSCREEN_BOTTOM*
G04 Layer:  DRAWING FORMAT/OUTLINE*
G04 Layer:  DRAWING FORMAT/TITLE_BLOCK*
G04 Layer:  DRAWING FORMAT/TITLE_DATA*
G04 Layer:  DRAWING FORMAT/REVISION_BLOCK*
G04 Layer:  DRAWING FORMAT/REVISION_DATA*
G04 Layer:  BOARD GEOMETRY/DESIGN_OUTLINE*
G04 *
G04 Offset:    (0.0000 0.0000)*
G04 Mirror:    No*
G04 Mode:      Positive*
G04 Rotation:  0*
G04 FullContactRelief:  No*
G04 UndefLineWidth:     0.1000*
G04 ================== end FILE IDENTIFICATION RECORD ====================*
%FSLAX25Y25*MOIN*%
%IR0*IPPOS*OFA0.00000B0.00000*MIA0B0*SFA1.00000B1.00000*%
%ADD10C,.003937*%
%ADD11C,.007874*%
%ADD12C,.015748*%
%ADD13C,.005906*%
%ADD14C,.009843*%
%ADD15C,.005*%
%ADD16C,.006*%
G75*
%LPD*%
G75*
G54D10*
G01X830111Y581109D02*
X830387Y581306D01*
X830709Y581437D01*
X831076D01*
X831489Y581240D01*
X831811Y580912D01*
X832041Y580519D01*
X832224Y579862D01*
X832270Y579272D01*
X832178Y578681D01*
X832041Y578287D01*
X831765Y577894D01*
X831444Y577631D01*
X831122Y577500D01*
X830800D01*
X830479Y577631D01*
X830204Y577828D01*
X829974Y578091D01*
G01X828031Y577500D02*
Y581437D01*
G01X826102D02*
Y577500D01*
G01Y579469D02*
X828031D01*
G01X818954Y577500D02*
X819322Y577566D01*
X819643Y577828D01*
X819919Y578222D01*
X820103Y578681D01*
X820194Y579206D01*
Y579731D01*
X820103Y580256D01*
X819919Y580715D01*
X819643Y581109D01*
X819322Y581371D01*
X818954Y581437D01*
X818587Y581371D01*
X818265Y581109D01*
X817990Y580715D01*
X817806Y580256D01*
X817714Y579731D01*
Y579206D01*
X817806Y578681D01*
X817990Y578222D01*
X818265Y577828D01*
X818587Y577566D01*
X818954Y577500D01*
G01X815909Y581437D02*
Y578615D01*
X815725Y578025D01*
X815358Y577631D01*
X814898Y577500D01*
X814439Y577631D01*
X814072Y578025D01*
X813888Y578615D01*
Y581437D01*
G01X810843D02*
Y577500D01*
G01X811899Y581437D02*
X809786D01*
G01X807705Y577500D02*
Y581437D01*
X806603D01*
X806235Y581240D01*
X805960Y580781D01*
X805868Y580256D01*
X805960Y579731D01*
X806189Y579337D01*
X806603Y579140D01*
X807705D01*
G01X803741Y581437D02*
Y578615D01*
X803557Y578025D01*
X803190Y577631D01*
X802731Y577500D01*
X802271Y577631D01*
X801904Y578025D01*
X801720Y578615D01*
Y581437D01*
G01X798675D02*
Y577500D01*
G01X799731Y581437D02*
X797619D01*
G01X791436Y580781D02*
X791160Y581174D01*
X790839Y581371D01*
X790471Y581437D01*
X790012Y581306D01*
X789690Y580978D01*
X789598Y580584D01*
X789644Y580190D01*
X789828Y579862D01*
X790747Y579206D01*
X791160Y578747D01*
X791436Y578091D01*
X791528Y577500D01*
X789598D01*
G01X830111Y636109D02*
X830387Y636306D01*
X830709Y636437D01*
X831076D01*
X831489Y636240D01*
X831811Y635912D01*
X832041Y635519D01*
X832224Y634862D01*
X832270Y634272D01*
X832178Y633681D01*
X832041Y633287D01*
X831765Y632894D01*
X831444Y632631D01*
X831122Y632500D01*
X830800D01*
X830479Y632631D01*
X830204Y632828D01*
X829974Y633091D01*
G01X828031Y632500D02*
Y636437D01*
G01X826102D02*
Y632500D01*
G01Y634469D02*
X828031D01*
G01X818954Y632500D02*
X819322Y632566D01*
X819643Y632828D01*
X819919Y633222D01*
X820103Y633681D01*
X820194Y634206D01*
Y634731D01*
X820103Y635256D01*
X819919Y635715D01*
X819643Y636109D01*
X819322Y636371D01*
X818954Y636437D01*
X818587Y636371D01*
X818265Y636109D01*
X817990Y635715D01*
X817806Y635256D01*
X817714Y634731D01*
Y634206D01*
X817806Y633681D01*
X817990Y633222D01*
X818265Y632828D01*
X818587Y632566D01*
X818954Y632500D01*
G01X815909Y636437D02*
Y633615D01*
X815725Y633025D01*
X815358Y632631D01*
X814898Y632500D01*
X814439Y632631D01*
X814072Y633025D01*
X813888Y633615D01*
Y636437D01*
G01X810843D02*
Y632500D01*
G01X811899Y636437D02*
X809786D01*
G01X807705Y632500D02*
Y636437D01*
X806603D01*
X806235Y636240D01*
X805960Y635781D01*
X805868Y635256D01*
X805960Y634731D01*
X806189Y634337D01*
X806603Y634140D01*
X807705D01*
G01X803741Y636437D02*
Y633615D01*
X803557Y633025D01*
X803190Y632631D01*
X802731Y632500D01*
X802271Y632631D01*
X801904Y633025D01*
X801720Y633615D01*
Y636437D01*
G01X798675D02*
Y632500D01*
G01X799731Y636437D02*
X797619D01*
G01X791574Y632500D02*
Y636437D01*
X790655D01*
X790287Y636240D01*
X790012Y635978D01*
X789782Y635584D01*
X789598Y635124D01*
X789552Y634469D01*
X789598Y633812D01*
X789782Y633353D01*
X790012Y632959D01*
X790287Y632697D01*
X790655Y632500D01*
X791574D01*
G01X822421Y728871D02*
X822054Y728543D01*
X821641Y728346D01*
X821273D01*
X820906Y728543D01*
X820630Y728871D01*
X820492Y729331D01*
X820584Y729790D01*
X820814Y730184D01*
X821227Y730446D01*
X821778Y730578D01*
X822100Y730840D01*
X822237Y731299D01*
X822146Y731759D01*
X821916Y732087D01*
X821594Y732283D01*
X821273D01*
X820952Y732152D01*
X820676Y731824D01*
G01X816482Y728346D02*
X818319D01*
Y732283D01*
X816482D01*
G01X817217Y730381D02*
X818319D01*
G01X814401Y728346D02*
Y732283D01*
X812289Y728346D01*
Y732283D01*
G01X810254Y728871D02*
X809886Y728543D01*
X809473Y728346D01*
X809105D01*
X808738Y728543D01*
X808462Y728871D01*
X808324Y729331D01*
X808416Y729790D01*
X808646Y730184D01*
X809059Y730446D01*
X809611Y730578D01*
X809932Y730840D01*
X810070Y731299D01*
X809978Y731759D01*
X809748Y732087D01*
X809427Y732283D01*
X809105D01*
X808784Y732152D01*
X808508Y731824D01*
G01X805233Y728346D02*
X805600Y728412D01*
X805922Y728674D01*
X806198Y729068D01*
X806381Y729528D01*
X806473Y730052D01*
Y730578D01*
X806381Y731102D01*
X806198Y731562D01*
X805922Y731956D01*
X805600Y732218D01*
X805233Y732283D01*
X804866Y732218D01*
X804544Y731956D01*
X804269Y731562D01*
X804085Y731102D01*
X803993Y730578D01*
Y730052D01*
X804085Y729528D01*
X804269Y729068D01*
X804544Y728674D01*
X804866Y728412D01*
X805233Y728346D01*
G01X802096D02*
Y732283D01*
X800948D01*
X800580Y732087D01*
X800350Y731824D01*
X800259Y731299D01*
X800350Y730774D01*
X800626Y730446D01*
X800948Y730249D01*
X802096D01*
G01X800948D02*
X800259Y728346D01*
G01X794076Y728937D02*
X793800Y728609D01*
X793479Y728412D01*
X793065Y728346D01*
X792652Y728478D01*
X792330Y728740D01*
X792101Y729200D01*
X792055Y729724D01*
X792147Y730249D01*
X792376Y730578D01*
X792698Y730840D01*
X793019Y730906D01*
X793341Y730840D01*
X793754Y730578D01*
X793617Y732283D01*
X792376D01*
G01X807087Y556162D02*
Y461989D01*
G01D02*
Y556162D01*
G01Y461949D02*
X1167087D01*
G01D02*
X807087D01*
G01X1167087Y556162D02*
X807087D01*
G01D02*
X1167087D01*
G01X824739Y868898D02*
X824463Y868438D01*
X824096Y868176D01*
X823682Y868110D01*
X823315Y868176D01*
X822948Y868504D01*
X822718Y868898D01*
X822672Y869291D01*
X822764Y869750D01*
X823085Y870079D01*
X823407Y870210D01*
X823820D01*
G01X823407D02*
X823131Y870407D01*
X822902Y870735D01*
X822810Y871129D01*
X822902Y871522D01*
X823131Y871850D01*
X823544Y872047D01*
X823958Y871981D01*
X824371Y871719D01*
G01X819672Y867979D02*
X819764Y868044D01*
Y868176D01*
X819672Y868241D01*
X819581Y868176D01*
Y868044D01*
X819672Y867979D01*
G01X816627Y868898D02*
X816352Y868438D01*
X815984Y868176D01*
X815570Y868110D01*
X815203Y868176D01*
X814836Y868504D01*
X814606Y868898D01*
X814560Y869291D01*
X814652Y869750D01*
X814974Y870079D01*
X815295Y870210D01*
X815708D01*
G01X815295D02*
X815019Y870407D01*
X814790Y870735D01*
X814698Y871129D01*
X814790Y871522D01*
X815019Y871850D01*
X815433Y872047D01*
X815846Y871981D01*
X816259Y871719D01*
G01X812709Y872047D02*
X811561Y868110D01*
X810412Y872047D01*
G01X869659Y688648D02*
X869934Y688845D01*
X870256Y688976D01*
X870623D01*
X871037Y688780D01*
X871358Y688452D01*
X871588Y688058D01*
X871772Y687402D01*
X871818Y686811D01*
X871726Y686220D01*
X871588Y685827D01*
X871312Y685433D01*
X870991Y685170D01*
X870669Y685039D01*
X870348D01*
X870026Y685170D01*
X869751Y685367D01*
X869521Y685630D01*
G01X867578Y685039D02*
Y688976D01*
G01X865649D02*
Y685039D01*
G01Y687008D02*
X867578D01*
G01X858502Y685039D02*
X858869Y685105D01*
X859191Y685367D01*
X859466Y685761D01*
X859650Y686220D01*
X859742Y686745D01*
Y687270D01*
X859650Y687795D01*
X859466Y688255D01*
X859191Y688648D01*
X858869Y688911D01*
X858502Y688976D01*
X858134Y688911D01*
X857813Y688648D01*
X857537Y688255D01*
X857353Y687795D01*
X857261Y687270D01*
Y686745D01*
X857353Y686220D01*
X857537Y685761D01*
X857813Y685367D01*
X858134Y685105D01*
X858502Y685039D01*
G01X855456Y688976D02*
Y686155D01*
X855272Y685564D01*
X854905Y685170D01*
X854446Y685039D01*
X853986Y685170D01*
X853619Y685564D01*
X853435Y686155D01*
Y688976D01*
G01X850390D02*
Y685039D01*
G01X851446Y688976D02*
X849333D01*
G01X847252Y685039D02*
Y688976D01*
X846150D01*
X845783Y688780D01*
X845507Y688320D01*
X845415Y687795D01*
X845507Y687270D01*
X845737Y686877D01*
X846150Y686680D01*
X847252D01*
G01X843289Y688976D02*
Y686155D01*
X843105Y685564D01*
X842737Y685170D01*
X842278Y685039D01*
X841819Y685170D01*
X841451Y685564D01*
X841267Y686155D01*
Y688976D01*
G01X838222D02*
Y685039D01*
G01X839278Y688976D02*
X837166D01*
G01X831121Y685630D02*
X830845Y685302D01*
X830524Y685105D01*
X830110Y685039D01*
X829697Y685170D01*
X829375Y685433D01*
X829146Y685893D01*
X829100Y686417D01*
X829192Y686942D01*
X829421Y687270D01*
X829743Y687533D01*
X830064Y687598D01*
X830386Y687533D01*
X830799Y687270D01*
X830661Y688976D01*
X829421D01*
G01X840545Y848609D02*
X840821Y848806D01*
X841143Y848937D01*
X841510D01*
X841923Y848740D01*
X842245Y848412D01*
X842474Y848019D01*
X842658Y847362D01*
X842704Y846772D01*
X842612Y846181D01*
X842474Y845787D01*
X842199Y845394D01*
X841878Y845131D01*
X841556Y845000D01*
X841234D01*
X840913Y845131D01*
X840637Y845328D01*
X840407Y845591D01*
G01X838373Y848281D02*
X838097Y848674D01*
X837776Y848871D01*
X837408Y848937D01*
X836949Y848806D01*
X836627Y848478D01*
X836535Y848084D01*
X836581Y847690D01*
X836765Y847362D01*
X837684Y846706D01*
X838097Y846247D01*
X838373Y845591D01*
X838465Y845000D01*
X836535D01*
G01X834455Y845787D02*
X834179Y845328D01*
X833811Y845066D01*
X833398Y845000D01*
X833031Y845066D01*
X832663Y845394D01*
X832433Y845787D01*
X832388Y846181D01*
X832480Y846640D01*
X832801Y846969D01*
X833122Y847100D01*
X833536D01*
G01X833122D02*
X832847Y847296D01*
X832617Y847624D01*
X832526Y848019D01*
X832617Y848412D01*
X832847Y848740D01*
X833260Y848937D01*
X833674Y848871D01*
X834087Y848609D01*
G01X840545Y878609D02*
X840821Y878806D01*
X841143Y878937D01*
X841510D01*
X841923Y878740D01*
X842245Y878412D01*
X842474Y878019D01*
X842658Y877362D01*
X842704Y876772D01*
X842612Y876181D01*
X842474Y875787D01*
X842199Y875394D01*
X841878Y875131D01*
X841556Y875000D01*
X841234D01*
X840913Y875131D01*
X840637Y875328D01*
X840407Y875591D01*
G01X838373Y878281D02*
X838097Y878674D01*
X837776Y878871D01*
X837408Y878937D01*
X836949Y878806D01*
X836627Y878478D01*
X836535Y878084D01*
X836581Y877690D01*
X836765Y877362D01*
X837684Y876706D01*
X838097Y876247D01*
X838373Y875591D01*
X838465Y875000D01*
X836535D01*
G01X833444D02*
Y878937D01*
X833995Y878150D01*
G01Y875000D02*
X832893D01*
G01X842500Y752959D02*
X846437D01*
Y754107D01*
X846240Y754475D01*
X845978Y754705D01*
X845453Y754796D01*
X844928Y754705D01*
X844600Y754429D01*
X844403Y754107D01*
Y752959D01*
G01Y754107D02*
X842500Y754796D01*
G01Y757934D02*
X846437D01*
X845650Y757383D01*
G01X842500D02*
Y758485D01*
G01X844140Y761117D02*
X844600Y761439D01*
X844862Y761714D01*
X844993Y762081D01*
X844862Y762403D01*
X844600Y762633D01*
X844206Y762817D01*
X843747Y762863D01*
X843353Y762817D01*
X842959Y762633D01*
X842631Y762357D01*
X842500Y762036D01*
X842631Y761668D01*
X843025Y761347D01*
X843615Y761163D01*
X844272Y761117D01*
X845124Y761209D01*
X845584Y761347D01*
X846043Y761576D01*
X846371Y761898D01*
X846437Y762219D01*
X846306Y762541D01*
X845978Y762770D01*
G01X857900Y746063D02*
Y743241D01*
X857717Y742651D01*
X857349Y742257D01*
X856890Y742126D01*
X856430Y742257D01*
X856063Y742651D01*
X855879Y743241D01*
Y746063D01*
G01X853707Y743766D02*
X853385Y744226D01*
X853109Y744488D01*
X852742Y744619D01*
X852420Y744488D01*
X852191Y744226D01*
X852007Y743832D01*
X851961Y743373D01*
X852007Y742979D01*
X852191Y742585D01*
X852467Y742257D01*
X852788Y742126D01*
X853156Y742257D01*
X853477Y742651D01*
X853661Y743241D01*
X853707Y743898D01*
X853615Y744750D01*
X853477Y745210D01*
X853247Y745669D01*
X852926Y745997D01*
X852604Y746063D01*
X852283Y745932D01*
X852053Y745604D01*
G01X853609Y774455D02*
X853806Y774179D01*
X853937Y773857D01*
Y773490D01*
X853740Y773077D01*
X853412Y772755D01*
X853019Y772526D01*
X852362Y772342D01*
X851772Y772296D01*
X851181Y772388D01*
X850787Y772526D01*
X850394Y772801D01*
X850131Y773122D01*
X850000Y773444D01*
Y773766D01*
X850131Y774087D01*
X850328Y774363D01*
X850591Y774593D01*
G01X850459Y776719D02*
X850131Y777041D01*
X850000Y777408D01*
X850131Y777776D01*
X850525Y778097D01*
X851115Y778327D01*
X851706Y778419D01*
X852428D01*
X853019Y778327D01*
X853543Y778097D01*
X853806Y777822D01*
X853937Y777500D01*
X853806Y777133D01*
X853543Y776857D01*
X853150Y776673D01*
X852624Y776581D01*
X852165Y776673D01*
X851706Y776903D01*
X851443Y777178D01*
X851378Y777500D01*
X851509Y777867D01*
X851837Y778143D01*
X852428Y778419D01*
G01X850459Y780775D02*
X850131Y781096D01*
X850000Y781464D01*
X850131Y781831D01*
X850525Y782153D01*
X851115Y782383D01*
X851706Y782474D01*
X852428D01*
X853019Y782383D01*
X853543Y782153D01*
X853806Y781878D01*
X853937Y781556D01*
X853806Y781189D01*
X853543Y780913D01*
X853150Y780729D01*
X852624Y780637D01*
X852165Y780729D01*
X851706Y780959D01*
X851443Y781234D01*
X851378Y781556D01*
X851509Y781923D01*
X851837Y782199D01*
X852428Y782474D01*
G01X857900Y881890D02*
Y879068D01*
X857717Y878478D01*
X857349Y878084D01*
X856890Y877953D01*
X856430Y878084D01*
X856063Y878478D01*
X855879Y879068D01*
Y881890D01*
G01X853844Y878740D02*
X853569Y878281D01*
X853201Y878019D01*
X852788Y877953D01*
X852420Y878019D01*
X852053Y878346D01*
X851823Y878740D01*
X851778Y879134D01*
X851869Y879593D01*
X852191Y879921D01*
X852512Y880052D01*
X852926D01*
G01X852512D02*
X852237Y880249D01*
X852007Y880577D01*
X851915Y880971D01*
X852007Y881365D01*
X852237Y881693D01*
X852650Y881890D01*
X853063Y881824D01*
X853477Y881562D01*
G01X860236Y930643D02*
X856299D01*
Y929541D01*
X856496Y929173D01*
X856956Y928898D01*
X857480Y928806D01*
X858005Y928898D01*
X858399Y929127D01*
X858596Y929541D01*
Y930643D01*
G01X860236Y925669D02*
X860170Y926036D01*
X859908Y926357D01*
X859515Y926633D01*
X859055Y926817D01*
X858530Y926909D01*
X858005D01*
X857480Y926817D01*
X857021Y926633D01*
X856627Y926357D01*
X856365Y926036D01*
X856299Y925669D01*
X856365Y925301D01*
X856627Y924980D01*
X857021Y924704D01*
X857480Y924520D01*
X858005Y924428D01*
X858530D01*
X859055Y924520D01*
X859515Y924704D01*
X859908Y924980D01*
X860170Y925301D01*
X860236Y925669D01*
G01X856299Y922991D02*
X860236Y922348D01*
X856299Y921613D01*
X860236Y920878D01*
X856299Y920235D01*
G01X860236Y916638D02*
Y918475D01*
X856299D01*
Y916638D01*
G01X858202Y917373D02*
Y918475D01*
G01X860236Y914419D02*
X856299D01*
Y913271D01*
X856496Y912904D01*
X856759Y912674D01*
X857283Y912582D01*
X857808Y912674D01*
X858137Y912950D01*
X858333Y913271D01*
Y914419D01*
G01Y913271D02*
X860236Y912582D01*
G01X901719Y731312D02*
X900525D01*
G01X897066Y730000D02*
Y733937D01*
X897617Y733150D01*
G01Y730000D02*
X896515D01*
G01X893010Y729869D02*
X893102Y729934D01*
Y730066D01*
X893010Y730131D01*
X892919Y730066D01*
Y729934D01*
X893010Y729869D01*
G01X889827Y731640D02*
X889506Y732100D01*
X889230Y732362D01*
X888863Y732493D01*
X888541Y732362D01*
X888311Y732100D01*
X888128Y731706D01*
X888081Y731247D01*
X888128Y730853D01*
X888311Y730459D01*
X888587Y730131D01*
X888908Y730000D01*
X889276Y730131D01*
X889597Y730525D01*
X889781Y731115D01*
X889827Y731772D01*
X889735Y732624D01*
X889597Y733084D01*
X889368Y733543D01*
X889046Y733871D01*
X888725Y733937D01*
X888403Y733806D01*
X888174Y733478D01*
G01X885909Y730591D02*
X885633Y730263D01*
X885312Y730066D01*
X884898Y730000D01*
X884485Y730131D01*
X884163Y730394D01*
X883934Y730853D01*
X883888Y731378D01*
X883980Y731903D01*
X884209Y732231D01*
X884531Y732493D01*
X884852Y732559D01*
X885174Y732493D01*
X885587Y732231D01*
X885450Y733937D01*
X884209D01*
G01X881991D02*
X880843Y730000D01*
X879694Y733937D01*
G01X887041Y747500D02*
Y751437D01*
X885893D01*
X885525Y751240D01*
X885295Y750978D01*
X885204Y750453D01*
X885295Y749928D01*
X885571Y749600D01*
X885893Y749403D01*
X887041D01*
G01X885893D02*
X885204Y747500D01*
G01X882066D02*
Y751437D01*
X882617Y750650D01*
G01Y747500D02*
X881515D01*
G01X878102D02*
X878010Y748353D01*
X877872Y749075D01*
X877689Y749731D01*
X877459Y750453D01*
X877092Y751437D01*
X878929D01*
G01X878609Y774455D02*
X878806Y774179D01*
X878937Y773857D01*
Y773490D01*
X878740Y773077D01*
X878412Y772755D01*
X878019Y772526D01*
X877362Y772342D01*
X876772Y772296D01*
X876181Y772388D01*
X875787Y772526D01*
X875394Y772801D01*
X875131Y773122D01*
X875000Y773444D01*
Y773766D01*
X875131Y774087D01*
X875328Y774363D01*
X875591Y774593D01*
G01X875459Y776719D02*
X875131Y777041D01*
X875000Y777408D01*
X875131Y777776D01*
X875525Y778097D01*
X876115Y778327D01*
X876706Y778419D01*
X877428D01*
X878019Y778327D01*
X878543Y778097D01*
X878806Y777822D01*
X878937Y777500D01*
X878806Y777133D01*
X878543Y776857D01*
X878150Y776673D01*
X877624Y776581D01*
X877165Y776673D01*
X876706Y776903D01*
X876443Y777178D01*
X876378Y777500D01*
X876509Y777867D01*
X876837Y778143D01*
X877428Y778419D01*
G01X875000Y781556D02*
X875066Y781878D01*
X875263Y782245D01*
X875591Y782474D01*
X876050Y782567D01*
X876509Y782474D01*
X876903Y782199D01*
X877100Y781785D01*
Y781326D01*
X877231Y781051D01*
X877559Y780821D01*
X878019Y780729D01*
X878478Y780867D01*
X878806Y781189D01*
X878937Y781556D01*
X878806Y781923D01*
X878478Y782245D01*
X878019Y782383D01*
X877559Y782291D01*
X877231Y782061D01*
X877100Y781785D01*
Y781326D01*
X876903Y780913D01*
X876509Y780637D01*
X876050Y780545D01*
X875591Y780637D01*
X875263Y780867D01*
X875066Y781234D01*
X875000Y781556D01*
G01X876955Y873891D02*
X876679Y873694D01*
X876357Y873563D01*
X875990D01*
X875577Y873760D01*
X875255Y874088D01*
X875026Y874481D01*
X874842Y875138D01*
X874796Y875728D01*
X874888Y876319D01*
X875026Y876713D01*
X875301Y877106D01*
X875622Y877369D01*
X875944Y877500D01*
X876266D01*
X876587Y877369D01*
X876863Y877172D01*
X877093Y876909D01*
G01X879127Y874219D02*
X879403Y873826D01*
X879724Y873629D01*
X880092Y873563D01*
X880551Y873694D01*
X880873Y874022D01*
X880965Y874416D01*
X880919Y874810D01*
X880735Y875138D01*
X879816Y875794D01*
X879403Y876253D01*
X879127Y876909D01*
X879035Y877500D01*
X880965D01*
G01X883183Y874219D02*
X883459Y873826D01*
X883780Y873629D01*
X884148Y873563D01*
X884607Y873694D01*
X884929Y874022D01*
X885020Y874416D01*
X884974Y874810D01*
X884791Y875138D01*
X883872Y875794D01*
X883459Y876253D01*
X883183Y876909D01*
X883091Y877500D01*
X885020D01*
G01X909262Y620079D02*
Y622579D01*
X908035Y620079D01*
Y622579D01*
G01X906449Y620079D02*
Y621204D01*
X906982Y622579D01*
G01X905915D02*
X906449Y621204D01*
G01X904835Y622579D02*
Y620787D01*
X904729Y620412D01*
X904515Y620162D01*
X904249Y620079D01*
X903982Y620162D01*
X903769Y620412D01*
X903662Y620787D01*
Y622579D01*
G01X900462Y620079D02*
Y622579D01*
X899235Y620079D01*
Y622579D01*
G01X898315Y620079D02*
X897649Y622579D01*
X896982Y620079D01*
G01X897222Y620954D02*
X898076D01*
G01X896062Y620079D02*
Y622579D01*
X894835Y620079D01*
Y622579D01*
G01X893249Y620079D02*
X893462Y620120D01*
X893649Y620287D01*
X893809Y620537D01*
X893915Y620829D01*
X893969Y621162D01*
Y621495D01*
X893915Y621829D01*
X893809Y622120D01*
X893649Y622370D01*
X893462Y622537D01*
X893249Y622579D01*
X893035Y622537D01*
X892849Y622370D01*
X892689Y622120D01*
X892582Y621829D01*
X892529Y621495D01*
Y621162D01*
X892582Y620829D01*
X892689Y620537D01*
X892849Y620287D01*
X893035Y620120D01*
X893249Y620079D01*
G01X920755Y608268D02*
Y612205D01*
X919009D01*
G01X919652Y610302D02*
X920755D01*
G01X916791Y608793D02*
X916423Y608465D01*
X916010Y608268D01*
X915642D01*
X915275Y608465D01*
X914999Y608793D01*
X914861Y609252D01*
X914953Y609711D01*
X915183Y610105D01*
X915596Y610367D01*
X916148Y610499D01*
X916469Y610761D01*
X916607Y611220D01*
X916515Y611680D01*
X916285Y612008D01*
X915964Y612205D01*
X915642D01*
X915321Y612074D01*
X915045Y611745D01*
G01X910759Y611877D02*
X911035Y612074D01*
X911357Y612205D01*
X911724D01*
X912137Y612008D01*
X912459Y611680D01*
X912689Y611286D01*
X912872Y610630D01*
X912919Y610039D01*
X912826Y609449D01*
X912689Y609055D01*
X912413Y608661D01*
X912092Y608399D01*
X911770Y608268D01*
X911448D01*
X911127Y608399D01*
X910852Y608596D01*
X910622Y608858D01*
G01X908863Y612205D02*
X907714Y608268D01*
X906566Y612205D01*
G01X899235Y610367D02*
X899051Y610564D01*
X898913Y610892D01*
X898822Y611352D01*
X898913Y611745D01*
X899097Y612008D01*
X899419Y612205D01*
X900659D01*
Y608268D01*
X899143D01*
X898822Y608530D01*
X898638Y608924D01*
X898546Y609383D01*
X898638Y609843D01*
X898913Y610236D01*
X899235Y610367D01*
X900659D01*
G01X895546Y608268D02*
X895822Y608333D01*
X896098Y608596D01*
X896281Y609055D01*
X896373Y609580D01*
X896281Y610105D01*
X896098Y610564D01*
X895822Y610827D01*
X895546Y610892D01*
X895271Y610827D01*
X894995Y610564D01*
X894811Y610105D01*
X894766Y609580D01*
X894811Y609055D01*
X894995Y608596D01*
X895271Y608333D01*
X895546Y608268D01*
G01X890664D02*
Y610892D01*
G01Y610433D02*
X890848Y610696D01*
X891123Y610827D01*
X891444Y610892D01*
X891766Y610761D01*
X892042Y610499D01*
X892226Y610105D01*
X892317Y609580D01*
X892226Y609055D01*
X892042Y608661D01*
X891766Y608399D01*
X891444Y608268D01*
X891123Y608333D01*
X890848Y608530D01*
X890664Y608793D01*
G01X888078Y608268D02*
Y610892D01*
G01Y610367D02*
X887848Y610630D01*
X887619Y610827D01*
X887297Y610892D01*
X887067Y610827D01*
X886792Y610630D01*
G01X882552Y612205D02*
Y608268D01*
G01Y608858D02*
X882736Y608530D01*
X883011Y608333D01*
X883333Y608268D01*
X883700Y608399D01*
X883976Y608727D01*
X884159Y609121D01*
X884206Y609580D01*
X884159Y610039D01*
X883976Y610433D01*
X883700Y610761D01*
X883333Y610892D01*
X883011Y610827D01*
X882781Y610696D01*
X882552Y610433D01*
G01X890567Y624512D02*
Y618110D01*
X913118D01*
Y624512D01*
G01Y635701D02*
Y624512D01*
X890567D01*
Y646886D01*
X913118D01*
Y635701D01*
G01X898563Y641516D02*
G03X898346Y640795I5821J-2142D01*
G03X898236Y640106I4532J-1078D01*
G03Y639520I3513J-293D01*
G03X898366Y639157I736J60D01*
G03X898461Y639059I354J245D01*
G03X898677Y638909I3001J4111D01*
G03X898941Y638744I3088J4633D01*
G03X899228Y638583I3537J5961D01*
G02X899831Y638217I-2766J-5229D01*
G02X900409Y637768I-3935J-5672D01*
G02X900898Y637299I-3984J-4640D01*
G02X901217Y636866I-1813J-1669D01*
G02X901311Y636685I-1473J-884D01*
G02X901409Y636441I-4401J-1916D01*
G02X901500Y636177I-4830J-1806D01*
G02X901567Y635937I-3256J-1037D01*
G03X901618Y635717I12022J2675D01*
G03X901669Y635524I7101J1781D01*
G03X901717Y635366I11696J3423D01*
G03X901736Y635331I80J21D01*
G03X901756Y635335I8J9D01*
G03X901823Y635488I-5894J2661D01*
G03X901894Y635685I-4046J1568D01*
G03X901976Y635921I-8584J3137D01*
G03X902075Y636264I-5273J1701D01*
G03X902126Y636547I-2370J574D01*
G03X902146Y636823I-2223J297D01*
G03X902134Y637150I-4223J11D01*
G03X901969Y637937I-2919J-202D01*
G03X901591Y638673I-3078J-1115D01*
G03X900921Y639480I-4827J-3321D01*
G03X899819Y640528I-17505J-17323D01*
G02X899638Y640705I1593J1810D01*
G02X899441Y640937I3675J3314D01*
G02X899260Y641177I3817J3067D01*
G02X899122Y641398I2124J1481D01*
G03X899008Y641587I-4908J-2836D01*
G03X898902Y641748I-2781J-1716D01*
G03X898807Y641878I-3512J-2455D01*
G03X898772Y641898I-38J-26D01*
G03X898736Y641878I0J-43D01*
G03X898681Y641783I1235J-784D01*
G03X898622Y641661I1331J-719D01*
G03X898563Y641516I2415J-1064D01*
G01X896929Y639472D02*
G03X897173Y638142I7593J705D01*
G03X897638Y637031I4637J1288D01*
G03X898311Y636165I3404J1951D01*
G03X899177Y635555I2374J2450D01*
G03X899516Y635406I2041J4160D01*
G03X899799Y635319I710J1816D01*
G03X900122Y635264I586J2457D01*
G03X900598Y635228I1054J10955D01*
G01X901449Y635185D01*
X901390Y635445D01*
G03X901047Y636445I-5620J-1366D01*
G03X900567Y637213I-2907J-1284D01*
G03X899843Y637870I-2922J-2492D01*
G03X898756Y638539I-6234J-8904D01*
G02X898366Y638764I3314J6207D01*
G02X898043Y638988I2188J3492D01*
G02X897752Y639232I2302J3044D01*
G02X897465Y639524I3525J3764D01*
G03X897260Y639748I-21676J-19569D01*
G03X897083Y639933I-11355J-10695D01*
G03X896929Y640094I-36488J-34555D01*
G03X896906Y640106I-30J-31D01*
G03X896890Y640094I-3J-12D01*
G03X896898Y639921I14451J570D01*
G03X896909Y639717I6024J245D01*
G03X896929Y639472I12235J864D01*
G01X908622Y707500D02*
Y711437D01*
X909173Y710650D01*
G01Y707500D02*
X908071D01*
G01X904566Y707369D02*
X904658Y707434D01*
Y707566D01*
X904566Y707631D01*
X904474Y707566D01*
Y707434D01*
X904566Y707369D01*
G01X901383Y709140D02*
X901061Y709600D01*
X900786Y709862D01*
X900419Y709993D01*
X900097Y709862D01*
X899867Y709600D01*
X899683Y709206D01*
X899637Y708747D01*
X899683Y708353D01*
X899867Y707959D01*
X900143Y707631D01*
X900464Y707500D01*
X900832Y707631D01*
X901153Y708025D01*
X901337Y708615D01*
X901383Y709272D01*
X901291Y710124D01*
X901153Y710584D01*
X900924Y711043D01*
X900602Y711371D01*
X900281Y711437D01*
X899959Y711306D01*
X899730Y710978D01*
G01X897465Y708091D02*
X897189Y707763D01*
X896868Y707566D01*
X896454Y707500D01*
X896041Y707631D01*
X895719Y707894D01*
X895490Y708353D01*
X895444Y708878D01*
X895536Y709403D01*
X895765Y709731D01*
X896087Y709993D01*
X896408Y710059D01*
X896730Y709993D01*
X897143Y709731D01*
X897006Y711437D01*
X895765D01*
G01X893547D02*
X892398Y707500D01*
X891250Y711437D01*
G01X885000Y760459D02*
X888937D01*
Y761607D01*
X888740Y761975D01*
X888478Y762205D01*
X887953Y762296D01*
X887428Y762205D01*
X887100Y761929D01*
X886903Y761607D01*
Y760459D01*
G01Y761607D02*
X885000Y762296D01*
G01Y765434D02*
X888937D01*
X888150Y764883D01*
G01X885000D02*
Y765985D01*
G01Y769490D02*
X885066Y769811D01*
X885263Y770179D01*
X885591Y770408D01*
X886050Y770500D01*
X886509Y770408D01*
X886903Y770133D01*
X887100Y769719D01*
Y769260D01*
X887231Y768985D01*
X887559Y768755D01*
X888019Y768663D01*
X888478Y768801D01*
X888806Y769122D01*
X888937Y769490D01*
X888806Y769857D01*
X888478Y770179D01*
X888019Y770317D01*
X887559Y770225D01*
X887231Y769995D01*
X887100Y769719D01*
Y769260D01*
X886903Y768847D01*
X886509Y768571D01*
X886050Y768479D01*
X885591Y768571D01*
X885263Y768801D01*
X885066Y769168D01*
X885000Y769490D01*
G01X903045Y853609D02*
X903321Y853806D01*
X903643Y853937D01*
X904010D01*
X904423Y853740D01*
X904745Y853412D01*
X904974Y853019D01*
X905158Y852362D01*
X905204Y851772D01*
X905112Y851181D01*
X904974Y850787D01*
X904699Y850394D01*
X904378Y850131D01*
X904056Y850000D01*
X903734D01*
X903413Y850131D01*
X903137Y850328D01*
X902907Y850591D01*
G01X900873Y853281D02*
X900597Y853674D01*
X900276Y853871D01*
X899908Y853937D01*
X899449Y853806D01*
X899127Y853478D01*
X899035Y853084D01*
X899081Y852690D01*
X899265Y852362D01*
X900184Y851706D01*
X900597Y851247D01*
X900873Y850591D01*
X900965Y850000D01*
X899035D01*
G01X895944D02*
X895622Y850066D01*
X895255Y850263D01*
X895026Y850591D01*
X894933Y851050D01*
X895026Y851509D01*
X895301Y851903D01*
X895715Y852100D01*
X896174D01*
X896449Y852231D01*
X896679Y852559D01*
X896771Y853019D01*
X896633Y853478D01*
X896311Y853806D01*
X895944Y853937D01*
X895577Y853806D01*
X895255Y853478D01*
X895117Y853019D01*
X895209Y852559D01*
X895439Y852231D01*
X895715Y852100D01*
X896174D01*
X896587Y851903D01*
X896863Y851509D01*
X896955Y851050D01*
X896863Y850591D01*
X896633Y850263D01*
X896266Y850066D01*
X895944Y850000D01*
G01X896719Y858812D02*
X895525D01*
G01X893077Y858091D02*
X892801Y857763D01*
X892480Y857566D01*
X892066Y857500D01*
X891653Y857631D01*
X891331Y857894D01*
X891102Y858353D01*
X891056Y858878D01*
X891148Y859403D01*
X891377Y859731D01*
X891699Y859993D01*
X892020Y860059D01*
X892342Y859993D01*
X892755Y859731D01*
X892617Y861437D01*
X891377D01*
G01X889159D02*
X888010Y857500D01*
X886862Y861437D01*
G01X901575Y917552D02*
X897638Y918701D01*
X901575Y919849D01*
G01X898163Y921792D02*
X897835Y922159D01*
X897638Y922573D01*
Y922941D01*
X897835Y923308D01*
X898163Y923583D01*
X898622Y923721D01*
X899081Y923630D01*
X899475Y923400D01*
X899737Y922986D01*
X899869Y922435D01*
X900131Y922114D01*
X900591Y921976D01*
X901050Y922068D01*
X901378Y922297D01*
X901575Y922619D01*
Y922941D01*
X901444Y923262D01*
X901115Y923537D01*
G01X897638Y925894D02*
X901575D01*
Y926996D01*
X901378Y927364D01*
X900919Y927639D01*
X900394Y927731D01*
X899869Y927639D01*
X899475Y927410D01*
X899278Y926996D01*
Y925894D01*
G01X900854Y643043D02*
G03X900701Y642657I1921J-988D01*
G03X900500Y641921I20646J-6026D01*
G03X900323Y641177I21717J-5564D01*
G03X900283Y640787I1785J-377D01*
G03X900307Y640626I532J-5D01*
G03X900382Y640465I639J198D01*
G03X900528Y640283I1121J753D01*
G03X900780Y640020I5500J5001D01*
G02X901260Y639508I-5373J-5523D01*
G02X901689Y638953I-5815J-4939D01*
G02X902031Y638409I-5387J-3776D01*
G02X902248Y637933I-2566J-1454D01*
G02X902374Y637437I-2564J-915D01*
G02X902413Y636890I-3605J-534D01*
G02X902370Y636339I-3689J13D01*
G02X902248Y635835I-2833J419D01*
G03X902185Y635646I6234J-2183D01*
G03X902138Y635480I3477J-1083D01*
G03X902102Y635343I5736J-1549D01*
G03X902110Y635315I29J-7D01*
G03X902217Y635299I63J60D01*
G03X902697Y635602I-10376J16972D01*
G03X903165Y635929I-4899J7523D01*
G03X903496Y636213I-1823J2461D01*
G03X903843Y636618I-2343J2353D01*
G03X904071Y637028I-1651J1189D01*
G03X904197Y637472I-1821J756D01*
G03X904236Y637984I-2912J481D01*
G03X904157Y638567I-2401J-28D01*
G03X903933Y639193I-3750J-991D01*
G03X903575Y639835I-4305J-1982D01*
G03X903094Y640469I-5368J-3568D01*
G02X902358Y641343I55834J47779D01*
G02X901854Y641976I15057J12488D01*
G02X901500Y642469I8488J6485D01*
G02X901280Y642850I2630J1773D01*
G03X901189Y643031I-11986J-5880D01*
G03X901110Y643185I-6296J-3132D01*
G03X901035Y643315I-19473J-11125D01*
G03X901024Y643323I-13J-6D01*
G03X901012Y643315I1J-15D01*
G03X900965Y643240I4284J-2758D01*
G03X900913Y643150I2254J-1334D01*
G03X900854Y643043I4194J-2399D01*
G01X903886Y640232D02*
G03X903870Y640079I707J-150D01*
G03X903894Y639925I697J29D01*
G03X903953Y639764I900J238D01*
G03X904055Y639563I2280J1036D01*
G02X904492Y638413I-3257J-1896D01*
G02X904461Y637307I-2456J-484D01*
G02X903957Y636303I-2526J640D01*
G02X903012Y635441I-3331J2701D01*
G01X902665Y635209D01*
X903055Y635213D01*
G03X903508Y635248I-13J3082D01*
G03X904000Y635350I-707J4634D01*
G03X904472Y635500I-1146J4439D01*
G03X904862Y635689I-957J2471D01*
G03X905350Y636071I-1176J2006D01*
G03X905705Y636559I-1492J1456D01*
G03X905917Y637150I-2025J1063D01*
G03X905988Y637839I-3271J685D01*
G03X905953Y638366I-3904J3D01*
G03X905843Y638823I-2461J-352D01*
G03X905642Y639291I-2854J-946D01*
G03X905311Y639846I-6723J-3629D01*
G02X905043Y640272I10157J6692D01*
G02X904835Y640650I5685J3385D01*
G02X904665Y641016I5066J2565D01*
G02X904512Y641406I5957J2572D01*
G03X904469Y641457I-86J-29D01*
G03X904413Y641449I-22J-40D01*
G03X904339Y641335I407J-348D01*
G03X904193Y641047I10585J-5545D01*
G03X904091Y640823I5056J-2442D01*
G03X903996Y640587I5724J-2426D01*
G03X903921Y640378I5043J-1926D01*
G03X903886Y640232I1058J-334D01*
G01X900327Y634362D02*
Y633917D01*
X903579Y633870D01*
Y634858D01*
X900327Y634811D01*
Y634362D01*
G01X900996Y633453D02*
G03X901008Y633252I1594J-7D01*
G01X901358Y630484D01*
X901709Y627744D01*
G03X901756Y627476I2883J371D01*
G03X901791Y627386I361J89D01*
G03X901843Y627323I166J82D01*
G03X901917Y627287I120J157D01*
G03X902024Y627276I106J466D01*
G03X902106Y627280I-52J1967D01*
G03X902177Y627283I-21J1021D01*
G03X902236Y627291I-141J1286D01*
G03X902244Y627303I-3J11D01*
G02X902252Y627465I1460J10D01*
G01X902563Y630260D01*
X902870Y633004D01*
G02X902909Y633272I4118J-469D01*
G01X902953Y633516D01*
X901972D01*
G03X901598Y633512I-21J-15747D01*
G03X901283Y633500I142J-7979D01*
G03X901020Y633480I1141J-17068D01*
G03X900996Y633453I3J-27D01*
G01X917041Y740000D02*
Y743937D01*
X915893D01*
X915525Y743740D01*
X915295Y743478D01*
X915204Y742953D01*
X915295Y742428D01*
X915571Y742100D01*
X915893Y741903D01*
X917041D01*
G01X915893D02*
X915204Y740000D01*
G01X912066D02*
Y743937D01*
X912617Y743150D01*
G01Y740000D02*
X911515D01*
G01X908791Y740459D02*
X908470Y740131D01*
X908102Y740000D01*
X907735Y740131D01*
X907413Y740525D01*
X907183Y741115D01*
X907092Y741706D01*
Y742428D01*
X907183Y743019D01*
X907413Y743543D01*
X907689Y743806D01*
X908010Y743937D01*
X908378Y743806D01*
X908653Y743543D01*
X908837Y743150D01*
X908929Y742624D01*
X908837Y742165D01*
X908607Y741706D01*
X908332Y741443D01*
X908010Y741378D01*
X907643Y741509D01*
X907367Y741837D01*
X907092Y742428D01*
G01X902407Y781824D02*
X902131Y781627D01*
X901810Y781496D01*
X901443D01*
X901029Y781693D01*
X900707Y782021D01*
X900478Y782415D01*
X900294Y783071D01*
X900248Y783661D01*
X900340Y784252D01*
X900478Y784646D01*
X900754Y785039D01*
X901075Y785302D01*
X901396Y785433D01*
X901718D01*
X902039Y785302D01*
X902315Y785105D01*
X902545Y784843D01*
G01X905452Y785433D02*
Y781496D01*
X904901Y782283D01*
G01Y785433D02*
X906004D01*
G01X909508Y781496D02*
X909141Y781627D01*
X908865Y781956D01*
X908681Y782349D01*
X908544Y782874D01*
X908498Y783465D01*
X908544Y784055D01*
X908681Y784580D01*
X908865Y784974D01*
X909141Y785302D01*
X909508Y785433D01*
X909876Y785302D01*
X910151Y784974D01*
X910335Y784580D01*
X910473Y784055D01*
X910519Y783465D01*
X910473Y782874D01*
X910335Y782349D01*
X910151Y781956D01*
X909876Y781627D01*
X909508Y781496D01*
G01X913564Y785433D02*
X913886Y785367D01*
X914253Y785170D01*
X914483Y784843D01*
X914575Y784383D01*
X914483Y783924D01*
X914207Y783530D01*
X913794Y783333D01*
X913335D01*
X913059Y783202D01*
X912829Y782874D01*
X912737Y782415D01*
X912875Y781956D01*
X913197Y781627D01*
X913564Y781496D01*
X913931Y781627D01*
X914253Y781956D01*
X914391Y782415D01*
X914299Y782874D01*
X914069Y783202D01*
X913794Y783333D01*
X913335D01*
X912921Y783530D01*
X912646Y783924D01*
X912554Y784383D01*
X912646Y784843D01*
X912875Y785170D01*
X913243Y785367D01*
X913564Y785433D01*
G01X912867Y846063D02*
Y848885D01*
X913051Y849475D01*
X913419Y849869D01*
X913878Y850000D01*
X914337Y849869D01*
X914705Y849475D01*
X914889Y848885D01*
Y846063D01*
G01X916923Y849409D02*
X917199Y849737D01*
X917520Y849934D01*
X917934Y850000D01*
X918347Y849869D01*
X918669Y849606D01*
X918898Y849147D01*
X918944Y848622D01*
X918852Y848097D01*
X918623Y847769D01*
X918301Y847507D01*
X917980Y847441D01*
X917658Y847507D01*
X917245Y847769D01*
X917383Y846063D01*
X918623D01*
G01X914455Y876391D02*
X914179Y876194D01*
X913857Y876063D01*
X913490D01*
X913077Y876260D01*
X912755Y876588D01*
X912526Y876981D01*
X912342Y877638D01*
X912296Y878228D01*
X912388Y878819D01*
X912526Y879213D01*
X912801Y879606D01*
X913122Y879869D01*
X913444Y880000D01*
X913766D01*
X914087Y879869D01*
X914363Y879672D01*
X914593Y879409D01*
G01X916627Y876719D02*
X916903Y876326D01*
X917224Y876129D01*
X917592Y876063D01*
X918051Y876194D01*
X918373Y876522D01*
X918465Y876916D01*
X918419Y877310D01*
X918235Y877638D01*
X917316Y878294D01*
X916903Y878753D01*
X916627Y879409D01*
X916535Y880000D01*
X918465D01*
G01X920775Y879541D02*
X921096Y879869D01*
X921464Y880000D01*
X921831Y879869D01*
X922153Y879475D01*
X922383Y878885D01*
X922474Y878294D01*
Y877572D01*
X922383Y876981D01*
X922153Y876457D01*
X921878Y876194D01*
X921556Y876063D01*
X921189Y876194D01*
X920913Y876457D01*
X920729Y876850D01*
X920637Y877376D01*
X920729Y877835D01*
X920959Y878294D01*
X921234Y878557D01*
X921556Y878622D01*
X921923Y878491D01*
X922199Y878163D01*
X922474Y877572D01*
G01X908005Y894114D02*
X907677Y894481D01*
X907480Y894895D01*
Y895263D01*
X907677Y895630D01*
X908005Y895906D01*
X908465Y896043D01*
X908924Y895952D01*
X909318Y895722D01*
X909580Y895308D01*
X909711Y894757D01*
X909974Y894436D01*
X910433Y894298D01*
X910893Y894390D01*
X911220Y894619D01*
X911417Y894941D01*
Y895263D01*
X911286Y895584D01*
X910958Y895859D01*
G01X907480Y898354D02*
X911417D01*
G01X909515D02*
X909843Y898583D01*
X910039Y898813D01*
X910105Y899181D01*
X910039Y899456D01*
X909777Y899778D01*
X909383Y899915D01*
X907480D01*
G01Y904017D02*
X910105D01*
G01X909646D02*
X909908Y903833D01*
X910039Y903558D01*
X910105Y903237D01*
X909974Y902915D01*
X909711Y902639D01*
X909318Y902456D01*
X908793Y902364D01*
X908268Y902456D01*
X907874Y902639D01*
X907611Y902915D01*
X907480Y903237D01*
X907546Y903558D01*
X907743Y903833D01*
X908005Y904017D01*
G01X907480Y906604D02*
X910105D01*
G01X909580D02*
X909843Y906833D01*
X910039Y907063D01*
X910105Y907384D01*
X910039Y907614D01*
X909843Y907889D01*
G01X909252Y910613D02*
Y912083D01*
X909711Y911945D01*
X909974Y911716D01*
X910105Y911394D01*
X910039Y911073D01*
X909843Y910797D01*
X909383Y910613D01*
X908989Y910522D01*
X908596D01*
X908202Y910613D01*
X907808Y910843D01*
X907546Y911119D01*
X907480Y911440D01*
X907611Y911762D01*
X908005Y912083D01*
G01X911417Y916185D02*
X907480D01*
G01X908071D02*
X907743Y916001D01*
X907546Y915726D01*
X907480Y915404D01*
X907611Y915037D01*
X907939Y914761D01*
X908333Y914578D01*
X908793Y914531D01*
X909252Y914578D01*
X909646Y914761D01*
X909974Y915037D01*
X910105Y915404D01*
X910039Y915726D01*
X909908Y915956D01*
X909646Y916185D01*
G01X911417Y922322D02*
X907480Y923470D01*
X911417Y924619D01*
G01X909580Y927893D02*
X909777Y928077D01*
X910105Y928215D01*
X910564Y928307D01*
X910958Y928215D01*
X911220Y928031D01*
X911417Y927710D01*
Y926470D01*
X907480D01*
Y927985D01*
X907743Y928307D01*
X908137Y928491D01*
X908596Y928582D01*
X909055Y928491D01*
X909449Y928215D01*
X909580Y927893D01*
Y926470D01*
G01X921260Y917552D02*
X917323Y918701D01*
X921260Y919849D01*
G01X917848Y921792D02*
X917520Y922159D01*
X917323Y922573D01*
Y922941D01*
X917520Y923308D01*
X917848Y923583D01*
X918307Y923721D01*
X918766Y923630D01*
X919160Y923400D01*
X919422Y922986D01*
X919554Y922435D01*
X919816Y922114D01*
X920276Y921976D01*
X920735Y922068D01*
X921063Y922297D01*
X921260Y922619D01*
Y922941D01*
X921129Y923262D01*
X920800Y923537D01*
G01X917323Y925756D02*
X921260D01*
X917323Y927869D01*
X921260D01*
G01X976673Y713937D02*
X975571D01*
G01X976122D02*
Y710000D01*
G01X976673D02*
X975571D01*
G01X972985D02*
Y713937D01*
X971837D01*
X971469Y713740D01*
X971239Y713478D01*
X971148Y712953D01*
X971239Y712428D01*
X971515Y712100D01*
X971837Y711903D01*
X972985D01*
G01X971837D02*
X971148Y710000D01*
G01X967092D02*
X968929D01*
Y713937D01*
X967092D01*
G01X967826Y712034D02*
X968929D01*
G01X964827Y710000D02*
Y713937D01*
X963081D01*
G01X963725Y712034D02*
X964827D01*
G01X956761Y710000D02*
Y713937D01*
X955613D01*
X955245Y713740D01*
X955016Y713478D01*
X954924Y712953D01*
X955016Y712428D01*
X955291Y712100D01*
X955613Y711903D01*
X956761D01*
G01X955613D02*
X954924Y710000D01*
G01X950868D02*
X952705D01*
Y713937D01*
X950868D01*
G01X951603Y712034D02*
X952705D01*
G01X948695Y710000D02*
X946766Y713937D01*
G01X948695D02*
X946766Y710000D01*
G01X943675Y713937D02*
Y710000D01*
G01X944731Y713937D02*
X942619D01*
G01X936574Y710591D02*
X936298Y710263D01*
X935976Y710066D01*
X935563Y710000D01*
X935150Y710131D01*
X934828Y710394D01*
X934598Y710853D01*
X934552Y711378D01*
X934644Y711903D01*
X934874Y712231D01*
X935196Y712493D01*
X935517Y712559D01*
X935839Y712493D01*
X936252Y712231D01*
X936114Y713937D01*
X934874D01*
G01X932380Y711640D02*
X932058Y712100D01*
X931783Y712362D01*
X931415Y712493D01*
X931094Y712362D01*
X930864Y712100D01*
X930680Y711706D01*
X930634Y711247D01*
X930680Y710853D01*
X930864Y710459D01*
X931140Y710131D01*
X931461Y710000D01*
X931829Y710131D01*
X932150Y710525D01*
X932334Y711115D01*
X932380Y711772D01*
X932288Y712624D01*
X932150Y713084D01*
X931920Y713543D01*
X931599Y713871D01*
X931278Y713937D01*
X930956Y713806D01*
X930726Y713478D01*
G01X931330Y758943D02*
X931527Y758667D01*
X931658Y758345D01*
Y757978D01*
X931461Y757565D01*
X931133Y757243D01*
X930739Y757013D01*
X930083Y756830D01*
X929493Y756783D01*
X928902Y756876D01*
X928508Y757013D01*
X928115Y757289D01*
X927852Y757610D01*
X927721Y757932D01*
Y758254D01*
X927852Y758575D01*
X928049Y758850D01*
X928311Y759080D01*
G01X927721Y761988D02*
X931658D01*
X930870Y761437D01*
G01X927721D02*
Y762539D01*
G01X931658Y766044D02*
X931527Y765676D01*
X931198Y765401D01*
X930805Y765217D01*
X930280Y765079D01*
X929689Y765033D01*
X929099Y765079D01*
X928574Y765217D01*
X928180Y765401D01*
X927852Y765676D01*
X927721Y766044D01*
X927852Y766411D01*
X928180Y766687D01*
X928574Y766870D01*
X929099Y767008D01*
X929689Y767054D01*
X930280Y767008D01*
X930805Y766870D01*
X931198Y766687D01*
X931527Y766411D01*
X931658Y766044D01*
G01X928180Y769319D02*
X927852Y769640D01*
X927721Y770008D01*
X927852Y770375D01*
X928246Y770697D01*
X928836Y770926D01*
X929427Y771018D01*
X930149D01*
X930739Y770926D01*
X931264Y770697D01*
X931527Y770421D01*
X931658Y770100D01*
X931527Y769732D01*
X931264Y769457D01*
X930870Y769273D01*
X930345Y769181D01*
X929886Y769273D01*
X929427Y769502D01*
X929164Y769778D01*
X929099Y770100D01*
X929230Y770467D01*
X929558Y770743D01*
X930149Y771018D01*
G01X926798Y751969D02*
Y749147D01*
X926614Y748556D01*
X926247Y748163D01*
X925787Y748031D01*
X925328Y748163D01*
X924961Y748556D01*
X924777Y749147D01*
Y751969D01*
G01X921823Y748031D02*
X921731Y748885D01*
X921594Y749606D01*
X921410Y750263D01*
X921180Y750984D01*
X920813Y751969D01*
X922650D01*
G01X923143Y794148D02*
X922946Y794423D01*
X922815Y794745D01*
Y795112D01*
X923012Y795526D01*
X923340Y795847D01*
X923733Y796077D01*
X924390Y796261D01*
X924980Y796307D01*
X925571Y796215D01*
X925965Y796077D01*
X926358Y795801D01*
X926621Y795480D01*
X926752Y795158D01*
Y794837D01*
X926621Y794515D01*
X926424Y794240D01*
X926161Y794010D01*
G01X923471Y791975D02*
X923078Y791700D01*
X922881Y791378D01*
X922815Y791011D01*
X922946Y790551D01*
X923274Y790230D01*
X923668Y790138D01*
X924062Y790184D01*
X924390Y790367D01*
X925046Y791286D01*
X925505Y791700D01*
X926161Y791975D01*
X926752Y792067D01*
Y790138D01*
G01Y786495D02*
X922815D01*
X925637Y788195D01*
Y785898D01*
G01X943045Y838609D02*
X943321Y838806D01*
X943643Y838937D01*
X944010D01*
X944423Y838740D01*
X944745Y838412D01*
X944974Y838019D01*
X945158Y837362D01*
X945204Y836772D01*
X945112Y836181D01*
X944974Y835787D01*
X944699Y835394D01*
X944378Y835131D01*
X944056Y835000D01*
X943734D01*
X943413Y835131D01*
X943137Y835328D01*
X942907Y835591D01*
G01X940873Y838281D02*
X940597Y838674D01*
X940276Y838871D01*
X939908Y838937D01*
X939449Y838806D01*
X939127Y838478D01*
X939035Y838084D01*
X939081Y837690D01*
X939265Y837362D01*
X940184Y836706D01*
X940597Y836247D01*
X940873Y835591D01*
X940965Y835000D01*
X939035D01*
G01X936817Y836640D02*
X936495Y837100D01*
X936220Y837362D01*
X935852Y837493D01*
X935531Y837362D01*
X935301Y837100D01*
X935117Y836706D01*
X935071Y836247D01*
X935117Y835853D01*
X935301Y835459D01*
X935577Y835131D01*
X935898Y835000D01*
X936266Y835131D01*
X936587Y835525D01*
X936771Y836115D01*
X936817Y836772D01*
X936725Y837624D01*
X936587Y838084D01*
X936357Y838543D01*
X936036Y838871D01*
X935715Y838937D01*
X935393Y838806D01*
X935163Y838478D01*
G01X941109Y854455D02*
X941306Y854179D01*
X941437Y853857D01*
Y853490D01*
X941240Y853077D01*
X940912Y852755D01*
X940519Y852526D01*
X939862Y852342D01*
X939272Y852296D01*
X938681Y852388D01*
X938287Y852526D01*
X937894Y852801D01*
X937631Y853122D01*
X937500Y853444D01*
Y853766D01*
X937631Y854087D01*
X937828Y854363D01*
X938091Y854593D01*
G01X940781Y856627D02*
X941174Y856903D01*
X941371Y857224D01*
X941437Y857592D01*
X941306Y858051D01*
X940978Y858373D01*
X940584Y858465D01*
X940190Y858419D01*
X939862Y858235D01*
X939206Y857316D01*
X938747Y856903D01*
X938091Y856627D01*
X937500Y856535D01*
Y858465D01*
G01Y861464D02*
X938353Y861556D01*
X939075Y861694D01*
X939731Y861878D01*
X940453Y862107D01*
X941437Y862474D01*
Y860637D01*
G01X929659Y894114D02*
X929331Y894481D01*
X929134Y894895D01*
Y895263D01*
X929331Y895630D01*
X929659Y895906D01*
X930118Y896043D01*
X930577Y895952D01*
X930971Y895722D01*
X931233Y895308D01*
X931365Y894757D01*
X931627Y894436D01*
X932087Y894298D01*
X932546Y894390D01*
X932874Y894619D01*
X933071Y894941D01*
Y895263D01*
X932940Y895584D01*
X932611Y895859D01*
G01X929134Y898354D02*
X933071D01*
G01X931168D02*
X931496Y898583D01*
X931693Y898813D01*
X931758Y899181D01*
X931693Y899456D01*
X931430Y899778D01*
X931037Y899915D01*
X929134D01*
G01Y904017D02*
X931758D01*
G01X931299D02*
X931562Y903833D01*
X931693Y903558D01*
X931758Y903237D01*
X931627Y902915D01*
X931365Y902639D01*
X930971Y902456D01*
X930446Y902364D01*
X929921Y902456D01*
X929528Y902639D01*
X929265Y902915D01*
X929134Y903237D01*
X929200Y903558D01*
X929396Y903833D01*
X929659Y904017D01*
G01X929134Y906604D02*
X931758D01*
G01X931233D02*
X931496Y906833D01*
X931693Y907063D01*
X931758Y907384D01*
X931693Y907614D01*
X931496Y907889D01*
G01X930906Y910613D02*
Y912083D01*
X931365Y911945D01*
X931627Y911716D01*
X931758Y911394D01*
X931693Y911073D01*
X931496Y910797D01*
X931037Y910613D01*
X930643Y910522D01*
X930249D01*
X929856Y910613D01*
X929462Y910843D01*
X929200Y911119D01*
X929134Y911440D01*
X929265Y911762D01*
X929659Y912083D01*
G01X933071Y916185D02*
X929134D01*
G01X929724D02*
X929396Y916001D01*
X929200Y915726D01*
X929134Y915404D01*
X929265Y915037D01*
X929593Y914761D01*
X929987Y914578D01*
X930446Y914531D01*
X930906Y914578D01*
X931299Y914761D01*
X931627Y915037D01*
X931758Y915404D01*
X931693Y915726D01*
X931562Y915956D01*
X931299Y916185D01*
G01X933071Y922322D02*
X929134Y923470D01*
X933071Y924619D01*
G01X929134Y926515D02*
X933071D01*
Y927434D01*
X932874Y927802D01*
X932611Y928077D01*
X932218Y928307D01*
X931758Y928491D01*
X931102Y928537D01*
X930446Y928491D01*
X929987Y928307D01*
X929593Y928077D01*
X929331Y927802D01*
X929134Y927434D01*
Y926515D01*
G01X959770Y748937D02*
X958622Y745000D01*
X957474Y748937D01*
G01X955485Y745000D02*
Y748937D01*
X954337D01*
X953969Y748740D01*
X953739Y748478D01*
X953648Y747953D01*
X953739Y747428D01*
X954015Y747100D01*
X954337Y746903D01*
X955485D01*
G01X954337D02*
X953648Y745000D01*
G01X949959D02*
Y748937D01*
X951659Y746115D01*
X949362D01*
G01X987859Y773937D02*
X986756D01*
G01X987307D02*
Y770000D01*
G01X987859D02*
X986756D01*
G01X984170D02*
Y773937D01*
X983022D01*
X982654Y773740D01*
X982425Y773478D01*
X982333Y772953D01*
X982425Y772428D01*
X982700Y772100D01*
X983022Y771903D01*
X984170D01*
G01X983022D02*
X982333Y770000D01*
G01X978277D02*
X980114D01*
Y773937D01*
X978277D01*
G01X979012Y772034D02*
X980114D01*
G01X976013Y770000D02*
Y773937D01*
X974267D01*
G01X974910Y772034D02*
X976013D01*
G01X972462Y768688D02*
X969706D01*
G01X967946Y770000D02*
Y773937D01*
X966798D01*
X966431Y773740D01*
X966201Y773478D01*
X966109Y772953D01*
X966201Y772428D01*
X966477Y772100D01*
X966798Y771903D01*
X967946D01*
G01X966798D02*
X966109Y770000D01*
G01X962054D02*
X963891D01*
Y773937D01*
X962054D01*
G01X962788Y772034D02*
X963891D01*
G01X959881Y770000D02*
X957952Y773937D01*
G01X959881D02*
X957952Y770000D01*
G01X954860Y773937D02*
Y770000D01*
G01X955917Y773937D02*
X953804D01*
G01X952182Y768688D02*
X949426D01*
G01X947759Y770591D02*
X947483Y770263D01*
X947162Y770066D01*
X946748Y770000D01*
X946335Y770131D01*
X946013Y770394D01*
X945784Y770853D01*
X945738Y771378D01*
X945830Y771903D01*
X946059Y772231D01*
X946381Y772493D01*
X946702Y772559D01*
X947024Y772493D01*
X947437Y772231D01*
X947300Y773937D01*
X946059D01*
G01X943565Y771640D02*
X943244Y772100D01*
X942968Y772362D01*
X942601Y772493D01*
X942279Y772362D01*
X942050Y772100D01*
X941866Y771706D01*
X941820Y771247D01*
X941866Y770853D01*
X942050Y770459D01*
X942325Y770131D01*
X942646Y770000D01*
X943014Y770131D01*
X943335Y770525D01*
X943519Y771115D01*
X943565Y771772D01*
X943473Y772624D01*
X943335Y773084D01*
X943106Y773543D01*
X942784Y773871D01*
X942463Y773937D01*
X942141Y773806D01*
X941912Y773478D01*
G01X953891Y790545D02*
X953694Y790821D01*
X953563Y791143D01*
Y791510D01*
X953760Y791923D01*
X954088Y792245D01*
X954481Y792474D01*
X955138Y792658D01*
X955728Y792704D01*
X956319Y792612D01*
X956713Y792474D01*
X957106Y792199D01*
X957369Y791878D01*
X957500Y791556D01*
Y791234D01*
X957369Y790913D01*
X957172Y790637D01*
X956909Y790407D01*
G01X954219Y788373D02*
X953826Y788097D01*
X953629Y787776D01*
X953563Y787408D01*
X953694Y786949D01*
X954022Y786627D01*
X954416Y786535D01*
X954810Y786581D01*
X955138Y786765D01*
X955794Y787684D01*
X956253Y788097D01*
X956909Y788373D01*
X957500Y788465D01*
Y786535D01*
G01X956909Y784455D02*
X957237Y784179D01*
X957434Y783857D01*
X957500Y783444D01*
X957369Y783031D01*
X957106Y782709D01*
X956647Y782480D01*
X956122Y782433D01*
X955597Y782526D01*
X955269Y782755D01*
X955007Y783077D01*
X954941Y783398D01*
X955007Y783720D01*
X955269Y784133D01*
X953563Y783995D01*
Y782755D01*
G01X956693Y811391D02*
X953871D01*
X953281Y811575D01*
X952887Y811942D01*
X952756Y812402D01*
X952887Y812861D01*
X953281Y813228D01*
X953871Y813412D01*
X956693D01*
G01X952756Y817009D02*
X956693D01*
X953871Y815309D01*
Y817606D01*
G01X957133Y845591D02*
X956857Y845263D01*
X956535Y845066D01*
X956122Y845000D01*
X955709Y845131D01*
X955387Y845394D01*
X955157Y845853D01*
X955111Y846378D01*
X955204Y846903D01*
X955433Y847231D01*
X955755Y847493D01*
X956076Y847559D01*
X956398Y847493D01*
X956811Y847231D01*
X956673Y848937D01*
X955433D01*
G01X953215D02*
X952066Y845000D01*
X950918Y848937D01*
G01X967500Y809541D02*
X963563D01*
Y808393D01*
X963760Y808025D01*
X964022Y807795D01*
X964547Y807704D01*
X965072Y807795D01*
X965400Y808071D01*
X965597Y808393D01*
Y809541D01*
G01Y808393D02*
X967500Y807704D01*
G01X967041Y805347D02*
X967369Y805026D01*
X967500Y804658D01*
X967369Y804291D01*
X966975Y803969D01*
X966385Y803739D01*
X965794Y803648D01*
X965072D01*
X964481Y803739D01*
X963957Y803969D01*
X963694Y804244D01*
X963563Y804566D01*
X963694Y804933D01*
X963957Y805209D01*
X964350Y805393D01*
X964876Y805485D01*
X965335Y805393D01*
X965794Y805163D01*
X966057Y804888D01*
X966122Y804566D01*
X965991Y804199D01*
X965663Y803923D01*
X965072Y803648D01*
G01X1058228Y893701D02*
X1057126D01*
G01X1057677D02*
Y889764D01*
G01X1058228D02*
X1057126D01*
G01X1054402D02*
Y892388D01*
G01Y891732D02*
X1054219Y892060D01*
X1053943Y892323D01*
X1053575Y892388D01*
X1053254Y892323D01*
X1052978Y892060D01*
X1052841Y891601D01*
Y889764D01*
G01X1048739Y893701D02*
Y889764D01*
G01Y890354D02*
X1048922Y890026D01*
X1049198Y889830D01*
X1049519Y889764D01*
X1049887Y889895D01*
X1050163Y890223D01*
X1050346Y890617D01*
X1050392Y891076D01*
X1050346Y891535D01*
X1050163Y891929D01*
X1049887Y892257D01*
X1049519Y892388D01*
X1049198Y892323D01*
X1048968Y892192D01*
X1048739Y891929D01*
G01X1045509Y892388D02*
Y889764D01*
G01Y893438D02*
X1045601Y893504D01*
Y893635D01*
X1045509Y893701D01*
X1045418Y893635D01*
Y893504D01*
X1045509Y893438D01*
G01X1042280Y892388D02*
X1041454Y889764D01*
X1040627Y892388D01*
G01X1037398D02*
Y889764D01*
G01Y893438D02*
X1037489Y893504D01*
Y893635D01*
X1037398Y893701D01*
X1037306Y893635D01*
Y893504D01*
X1037398Y893438D01*
G01X1032515Y893701D02*
Y889764D01*
G01Y890354D02*
X1032699Y890026D01*
X1032974Y889830D01*
X1033296Y889764D01*
X1033663Y889895D01*
X1033939Y890223D01*
X1034122Y890617D01*
X1034169Y891076D01*
X1034122Y891535D01*
X1033939Y891929D01*
X1033663Y892257D01*
X1033296Y892388D01*
X1032974Y892323D01*
X1032744Y892192D01*
X1032515Y891929D01*
G01X1030067Y892388D02*
Y890551D01*
X1029883Y890092D01*
X1029607Y889830D01*
X1029286Y889764D01*
X1028964Y889830D01*
X1028689Y890092D01*
X1028505Y890551D01*
G01Y889764D02*
Y892388D01*
G01X1024403Y889764D02*
Y892388D01*
G01Y891929D02*
X1024587Y892192D01*
X1024863Y892323D01*
X1025184Y892388D01*
X1025506Y892257D01*
X1025781Y891995D01*
X1025965Y891601D01*
X1026057Y891076D01*
X1025965Y890551D01*
X1025781Y890157D01*
X1025506Y889895D01*
X1025184Y889764D01*
X1024863Y889830D01*
X1024587Y890026D01*
X1024403Y890289D01*
G01X1021174Y889764D02*
Y893701D01*
G01X1013062D02*
Y889764D01*
G01X1014119Y893701D02*
X1012006D01*
G01X1009649Y889764D02*
Y892388D01*
G01Y891863D02*
X1009420Y892126D01*
X1009190Y892323D01*
X1008869Y892388D01*
X1008639Y892323D01*
X1008363Y892126D01*
G01X1004124Y889764D02*
Y892388D01*
G01Y891929D02*
X1004307Y892192D01*
X1004583Y892323D01*
X1004904Y892388D01*
X1005226Y892257D01*
X1005502Y891995D01*
X1005685Y891601D01*
X1005777Y891076D01*
X1005685Y890551D01*
X1005502Y890157D01*
X1005226Y889895D01*
X1004904Y889764D01*
X1004583Y889830D01*
X1004307Y890026D01*
X1004124Y890289D01*
G01X1001675Y889764D02*
Y892388D01*
G01Y891732D02*
X1001492Y892060D01*
X1001216Y892323D01*
X1000848Y892388D01*
X1000527Y892323D01*
X1000252Y892060D01*
X1000114Y891601D01*
Y889764D01*
G01X997528Y890223D02*
X997298Y889961D01*
X996976Y889764D01*
X996701D01*
X996425Y889895D01*
X996241Y890092D01*
X996150Y890354D01*
X996196Y890748D01*
X996379Y890945D01*
X997206Y891339D01*
X997390Y891798D01*
X997298Y892126D01*
X997114Y892323D01*
X996839Y892388D01*
X996563Y892323D01*
X996287Y892126D01*
G01X992783Y892388D02*
Y889764D01*
G01Y893438D02*
X992874Y893504D01*
Y893635D01*
X992783Y893701D01*
X992691Y893635D01*
Y893504D01*
X992783Y893438D01*
G01X989416Y890223D02*
X989186Y889961D01*
X988865Y889764D01*
X988589D01*
X988313Y889895D01*
X988130Y890092D01*
X988038Y890354D01*
X988084Y890748D01*
X988267Y890945D01*
X989094Y891339D01*
X989278Y891798D01*
X989186Y892126D01*
X989002Y892323D01*
X988727Y892388D01*
X988451Y892323D01*
X988176Y892126D01*
G01X984671Y893701D02*
Y889764D01*
G01X985314Y892388D02*
X984028D01*
G01X980615Y889764D02*
X980891Y889830D01*
X981166Y890092D01*
X981350Y890551D01*
X981442Y891076D01*
X981350Y891601D01*
X981166Y892060D01*
X980891Y892323D01*
X980615Y892388D01*
X980339Y892323D01*
X980064Y892060D01*
X979880Y891601D01*
X979834Y891076D01*
X979880Y890551D01*
X980064Y890092D01*
X980339Y889830D01*
X980615Y889764D01*
G01X977202D02*
Y892388D01*
G01Y891863D02*
X976972Y892126D01*
X976743Y892323D01*
X976421Y892388D01*
X976192Y892323D01*
X975916Y892126D01*
G01X973192Y890223D02*
X972963Y889961D01*
X972641Y889764D01*
X972365D01*
X972090Y889895D01*
X971906Y890092D01*
X971814Y890354D01*
X971860Y890748D01*
X972044Y890945D01*
X972870Y891339D01*
X973054Y891798D01*
X972963Y892126D01*
X972779Y892323D01*
X972503Y892388D01*
X972228Y892323D01*
X971952Y892126D01*
G01X1038331Y641437D02*
X1037228D01*
G01X1037780D02*
Y637500D01*
G01X1038331D02*
X1037228D01*
G01X1034642D02*
Y641437D01*
X1033494D01*
X1033126Y641240D01*
X1032897Y640978D01*
X1032805Y640453D01*
X1032897Y639928D01*
X1033172Y639600D01*
X1033494Y639403D01*
X1034642D01*
G01X1033494D02*
X1032805Y637500D01*
G01X1028749D02*
X1030586D01*
Y641437D01*
X1028749D01*
G01X1029484Y639534D02*
X1030586D01*
G01X1026485Y637500D02*
Y641437D01*
X1024739D01*
G01X1025382Y639534D02*
X1026485D01*
G01X1022934Y636188D02*
X1020178D01*
G01X1018419Y637500D02*
Y641437D01*
X1017270D01*
X1016903Y641240D01*
X1016673Y640978D01*
X1016581Y640453D01*
X1016673Y639928D01*
X1016949Y639600D01*
X1017270Y639403D01*
X1018419D01*
G01X1017270D02*
X1016581Y637500D01*
G01X1012526D02*
X1014363D01*
Y641437D01*
X1012526D01*
G01X1013260Y639534D02*
X1014363D01*
G01X1010353Y637500D02*
X1008424Y641437D01*
G01X1010353D02*
X1008424Y637500D01*
G01X1005332Y641437D02*
Y637500D01*
G01X1006389Y641437D02*
X1004276D01*
G01X1002654Y636188D02*
X999898D01*
G01X998231Y637500D02*
Y641437D01*
X997312D01*
X996945Y641240D01*
X996669Y640978D01*
X996440Y640584D01*
X996256Y640124D01*
X996210Y639469D01*
X996256Y638812D01*
X996440Y638353D01*
X996669Y637959D01*
X996945Y637697D01*
X997312Y637500D01*
X998231D01*
G01X1058228Y657480D02*
X1057126D01*
G01X1057677D02*
Y653543D01*
G01X1058228D02*
X1057126D01*
G01X1054540D02*
Y657480D01*
X1053392D01*
X1053024Y657283D01*
X1052794Y657021D01*
X1052703Y656496D01*
X1052794Y655971D01*
X1053070Y655643D01*
X1053392Y655446D01*
X1054540D01*
G01X1053392D02*
X1052703Y653543D01*
G01X1048647D02*
X1050484D01*
Y657480D01*
X1048647D01*
G01X1049381Y655578D02*
X1050484D01*
G01X1046382Y653543D02*
Y657480D01*
X1044637D01*
G01X1045280Y655578D02*
X1046382D01*
G01X1038316Y653543D02*
Y657480D01*
X1037168D01*
X1036800Y657283D01*
X1036571Y657021D01*
X1036479Y656496D01*
X1036571Y655971D01*
X1036846Y655643D01*
X1037168Y655446D01*
X1038316D01*
G01X1037168D02*
X1036479Y653543D01*
G01X1032423D02*
X1034260D01*
Y657480D01*
X1032423D01*
G01X1033158Y655578D02*
X1034260D01*
G01X1030250Y653543D02*
X1028321Y657480D01*
G01X1030250D02*
X1028321Y653543D01*
G01X1025230Y657480D02*
Y653543D01*
G01X1026286Y657480D02*
X1024174D01*
G01X1018129Y653543D02*
Y657480D01*
X1017210D01*
X1016843Y657283D01*
X1016567Y657021D01*
X1016337Y656627D01*
X1016154Y656168D01*
X1016107Y655512D01*
X1016154Y654856D01*
X1016337Y654396D01*
X1016567Y654002D01*
X1016843Y653740D01*
X1017210Y653543D01*
X1018129D01*
G01X1011811Y921489D02*
X1007874Y922638D01*
X1011811Y923786D01*
G01X1009974Y927061D02*
X1010170Y927245D01*
X1010498Y927383D01*
X1010958Y927474D01*
X1011352Y927383D01*
X1011614Y927199D01*
X1011811Y926878D01*
Y925637D01*
X1007874D01*
Y927153D01*
X1008137Y927474D01*
X1008530Y927658D01*
X1008989Y927750D01*
X1009449Y927658D01*
X1009843Y927383D01*
X1009974Y927061D01*
Y925637D01*
G01X1023622Y921489D02*
X1019685Y922638D01*
X1023622Y923786D01*
G01X1020210Y925729D02*
X1019882Y926096D01*
X1019685Y926510D01*
Y926878D01*
X1019882Y927245D01*
X1020210Y927520D01*
X1020669Y927658D01*
X1021128Y927567D01*
X1021522Y927337D01*
X1021785Y926923D01*
X1021916Y926372D01*
X1022178Y926051D01*
X1022638Y925913D01*
X1023097Y926005D01*
X1023425Y926234D01*
X1023622Y926556D01*
Y926878D01*
X1023491Y927199D01*
X1023163Y927474D01*
G01X1035433Y921489D02*
X1031496Y922638D01*
X1035433Y923786D01*
G01X1031496Y925683D02*
X1035433D01*
Y926602D01*
X1035236Y926969D01*
X1034974Y927245D01*
X1034580Y927474D01*
X1034120Y927658D01*
X1033465Y927704D01*
X1032808Y927658D01*
X1032349Y927474D01*
X1031955Y927245D01*
X1031693Y926969D01*
X1031496Y926602D01*
Y925683D01*
G01X1103567Y604488D02*
X1102465D01*
G01X1103016D02*
Y600551D01*
G01X1103567D02*
X1102465D01*
G01X1099879D02*
Y604488D01*
X1098731D01*
X1098363Y604291D01*
X1098133Y604029D01*
X1098042Y603504D01*
X1098133Y602979D01*
X1098409Y602651D01*
X1098731Y602454D01*
X1099879D01*
G01X1098731D02*
X1098042Y600551D01*
G01X1093986D02*
X1095823D01*
Y604488D01*
X1093986D01*
G01X1094720Y602585D02*
X1095823D01*
G01X1091721Y600551D02*
Y604488D01*
X1089976D01*
G01X1090619Y602585D02*
X1091721D01*
G01X1088170Y599239D02*
X1085415D01*
G01X1083655Y600551D02*
Y604488D01*
X1082507D01*
X1082139Y604291D01*
X1081910Y604029D01*
X1081818Y603504D01*
X1081910Y602979D01*
X1082185Y602651D01*
X1082507Y602454D01*
X1083655D01*
G01X1082507D02*
X1081818Y600551D01*
G01X1077762D02*
X1079599D01*
Y604488D01*
X1077762D01*
G01X1078497Y602585D02*
X1079599D01*
G01X1075589Y600551D02*
X1073660Y604488D01*
G01X1075589D02*
X1073660Y600551D01*
G01X1070569Y604488D02*
Y600551D01*
G01X1071625Y604488D02*
X1069513D01*
G01X1067891Y599239D02*
X1065135D01*
G01X1062457Y600551D02*
Y604488D01*
X1063008Y603701D01*
G01Y600551D02*
X1061906D01*
G01X1059274Y603832D02*
X1058998Y604226D01*
X1058677Y604422D01*
X1058309Y604488D01*
X1057850Y604357D01*
X1057528Y604029D01*
X1057437Y603635D01*
X1057483Y603241D01*
X1057666Y602913D01*
X1058585Y602257D01*
X1058998Y601798D01*
X1059274Y601142D01*
X1059366Y600551D01*
X1057437D01*
G01X1093661Y627953D02*
X1092559D01*
G01X1093110D02*
Y624016D01*
G01X1093661D02*
X1092559D01*
G01X1089973D02*
Y627953D01*
X1088825D01*
X1088457Y627756D01*
X1088228Y627493D01*
X1088136Y626969D01*
X1088228Y626444D01*
X1088503Y626115D01*
X1088825Y625919D01*
X1089973D01*
G01X1088825D02*
X1088136Y624016D01*
G01X1084080D02*
X1085917D01*
Y627953D01*
X1084080D01*
G01X1084815Y626050D02*
X1085917D01*
G01X1081815Y624016D02*
Y627953D01*
X1080070D01*
G01X1080713Y626050D02*
X1081815D01*
G01X1073749Y624016D02*
Y627953D01*
X1072601D01*
X1072233Y627756D01*
X1072004Y627493D01*
X1071912Y626969D01*
X1072004Y626444D01*
X1072280Y626115D01*
X1072601Y625919D01*
X1073749D01*
G01X1072601D02*
X1071912Y624016D01*
G01X1067856D02*
X1069693D01*
Y627953D01*
X1067856D01*
G01X1068591Y626050D02*
X1069693D01*
G01X1065683Y624016D02*
X1063754Y627953D01*
G01X1065683D02*
X1063754Y624016D01*
G01X1060663Y627953D02*
Y624016D01*
G01X1061719Y627953D02*
X1059607D01*
G01X1052551Y624016D02*
Y627953D01*
X1053102Y627165D01*
G01Y624016D02*
X1052000D01*
G01X1049368Y627296D02*
X1049093Y627690D01*
X1048771Y627887D01*
X1048404Y627953D01*
X1047944Y627822D01*
X1047622Y627493D01*
X1047531Y627100D01*
X1047577Y626706D01*
X1047760Y626378D01*
X1048679Y625722D01*
X1049093Y625263D01*
X1049368Y624606D01*
X1049460Y624016D01*
X1047531D01*
G01X1054770Y691437D02*
X1053622Y687500D01*
X1052474Y691437D01*
G01X1050485Y687500D02*
Y691437D01*
X1049337D01*
X1048969Y691240D01*
X1048739Y690978D01*
X1048648Y690453D01*
X1048739Y689928D01*
X1049015Y689600D01*
X1049337Y689403D01*
X1050485D01*
G01X1049337D02*
X1048648Y687500D01*
G01X1046521Y688091D02*
X1046245Y687763D01*
X1045924Y687566D01*
X1045510Y687500D01*
X1045097Y687631D01*
X1044775Y687894D01*
X1044546Y688353D01*
X1044500Y688878D01*
X1044592Y689403D01*
X1044821Y689731D01*
X1045143Y689993D01*
X1045464Y690059D01*
X1045786Y689993D01*
X1046199Y689731D01*
X1046061Y691437D01*
X1044821D01*
G01X1087270Y663937D02*
X1086122Y660000D01*
X1084974Y663937D01*
G01X1082985Y660000D02*
Y663937D01*
X1081837D01*
X1081469Y663740D01*
X1081239Y663478D01*
X1081148Y662953D01*
X1081239Y662428D01*
X1081515Y662100D01*
X1081837Y661903D01*
X1082985D01*
G01X1081837D02*
X1081148Y660000D01*
G01X1079021Y660787D02*
X1078745Y660328D01*
X1078378Y660066D01*
X1077964Y660000D01*
X1077597Y660066D01*
X1077230Y660394D01*
X1077000Y660787D01*
X1076954Y661181D01*
X1077046Y661640D01*
X1077367Y661969D01*
X1077689Y662100D01*
X1078102D01*
G01X1077689D02*
X1077413Y662296D01*
X1077183Y662624D01*
X1077092Y663019D01*
X1077183Y663412D01*
X1077413Y663740D01*
X1077826Y663937D01*
X1078240Y663871D01*
X1078653Y663609D01*
G01X1157307Y823937D02*
Y820000D01*
G01X1158364Y823937D02*
X1156251D01*
G01X1154630Y818688D02*
X1151874D01*
G01X1150344Y823937D02*
X1149196Y820000D01*
X1148047Y823937D01*
G01X1146058Y820000D02*
Y823937D01*
X1144910D01*
X1144543Y823740D01*
X1144313Y823478D01*
X1144221Y822953D01*
X1144313Y822428D01*
X1144589Y822100D01*
X1144910Y821903D01*
X1146058D01*
G01X1144910D02*
X1144221Y820000D01*
G01X1142002D02*
Y823937D01*
X1140900D01*
X1140533Y823740D01*
X1140257Y823281D01*
X1140165Y822756D01*
X1140257Y822231D01*
X1140487Y821837D01*
X1140900Y821640D01*
X1142002D01*
G01X1137993Y820525D02*
X1137625Y820197D01*
X1137212Y820000D01*
X1136844D01*
X1136477Y820197D01*
X1136201Y820525D01*
X1136063Y820984D01*
X1136155Y821443D01*
X1136385Y821837D01*
X1136798Y822100D01*
X1137350Y822231D01*
X1137671Y822493D01*
X1137809Y822953D01*
X1137717Y823412D01*
X1137487Y823740D01*
X1137166Y823937D01*
X1136844D01*
X1136523Y823806D01*
X1136247Y823478D01*
G01X1134350Y818688D02*
X1131594D01*
G01X1129927Y820000D02*
Y823937D01*
X1129008D01*
X1128641Y823740D01*
X1128365Y823478D01*
X1128135Y823084D01*
X1127952Y822624D01*
X1127906Y821969D01*
X1127952Y821312D01*
X1128135Y820853D01*
X1128365Y820459D01*
X1128641Y820197D01*
X1129008Y820000D01*
X1129927D01*
G01X1126238Y818688D02*
X1123482D01*
G01X1121356Y823937D02*
X1120253D01*
G01X1120804D02*
Y820000D01*
G01X1121356D02*
X1120253D01*
G01X1117805D02*
Y823937D01*
X1115692Y820000D01*
Y823937D01*
G01X1112693D02*
Y820000D01*
G01X1113749Y823937D02*
X1111636D01*
G01X1163976Y929134D02*
Y925197D01*
G01X1165033Y929134D02*
X1162920D01*
G01X1157013D02*
X1155865Y925197D01*
X1154716Y929134D01*
G01X1152727Y925197D02*
Y929134D01*
X1151579D01*
X1151211Y928937D01*
X1150982Y928674D01*
X1150890Y928150D01*
X1150982Y927625D01*
X1151257Y927296D01*
X1151579Y927100D01*
X1152727D01*
G01X1151579D02*
X1150890Y925197D01*
G01X1148671D02*
Y929134D01*
X1147569D01*
X1147202Y928937D01*
X1146926Y928478D01*
X1146834Y927953D01*
X1146926Y927428D01*
X1147156Y927034D01*
X1147569Y926837D01*
X1148671D01*
G01X1144661Y925722D02*
X1144294Y925394D01*
X1143881Y925197D01*
X1143513D01*
X1143146Y925394D01*
X1142870Y925722D01*
X1142732Y926181D01*
X1142824Y926640D01*
X1143054Y927034D01*
X1143467Y927296D01*
X1144019Y927428D01*
X1144340Y927690D01*
X1144478Y928150D01*
X1144386Y928609D01*
X1144156Y928937D01*
X1143835Y929134D01*
X1143513D01*
X1143192Y929003D01*
X1142916Y928674D01*
G01X1136596Y925197D02*
Y929134D01*
X1135677D01*
X1135309Y928937D01*
X1135034Y928674D01*
X1134804Y928281D01*
X1134620Y927821D01*
X1134574Y927165D01*
X1134620Y926509D01*
X1134804Y926050D01*
X1135034Y925656D01*
X1135309Y925394D01*
X1135677Y925197D01*
X1136596D01*
G01X1128667D02*
Y929134D01*
X1127473Y925853D01*
X1126279Y929134D01*
Y925197D01*
G01X1124244Y925066D02*
X1122591Y929134D01*
G01X1118351Y928806D02*
X1118626Y929003D01*
X1118948Y929134D01*
X1119315D01*
X1119729Y928937D01*
X1120050Y928609D01*
X1120280Y928215D01*
X1120464Y927559D01*
X1120510Y926969D01*
X1120418Y926378D01*
X1120280Y925984D01*
X1120004Y925591D01*
X1119683Y925328D01*
X1119361Y925197D01*
X1119040D01*
X1118719Y925328D01*
X1118443Y925525D01*
X1118213Y925787D01*
G01X1116132Y925066D02*
X1114479Y929134D01*
G01X1110331Y925197D02*
X1112168D01*
Y929134D01*
X1110331D01*
G01X1111066Y927231D02*
X1112168D01*
G01X1108158Y925197D02*
X1106229Y929134D01*
G01X1108158D02*
X1106229Y925197D01*
G01X1103138Y929134D02*
Y925197D01*
G01X1104194Y929134D02*
X1102081D01*
G01X1167087Y461989D02*
Y556162D01*
G01D02*
Y461989D01*
G01X1181430Y647218D02*
X1181233Y647493D01*
X1181102Y647815D01*
Y648182D01*
X1181299Y648596D01*
X1181627Y648917D01*
X1182021Y649147D01*
X1182677Y649331D01*
X1183268Y649377D01*
X1183858Y649285D01*
X1184252Y649147D01*
X1184646Y648871D01*
X1184908Y648550D01*
X1185039Y648228D01*
Y647907D01*
X1184908Y647585D01*
X1184711Y647310D01*
X1184449Y647080D01*
G01X1185039Y645367D02*
X1181102D01*
X1184383Y644172D01*
X1181102Y642978D01*
X1185039D01*
G01Y635142D02*
Y636979D01*
X1181102D01*
Y635142D01*
G01X1183005Y635877D02*
Y636979D01*
G01X1185039Y632969D02*
X1181102Y631040D01*
G01Y632969D02*
X1185039Y631040D01*
G01X1181102Y627949D02*
X1185039D01*
G01X1181102Y629005D02*
Y626893D01*
G01X1236835Y731437D02*
Y727500D01*
G01X1237892Y731437D02*
X1235779D01*
G01X1234157Y726188D02*
X1231402D01*
G01X1229872Y731437D02*
X1228724Y727500D01*
X1227575Y731437D01*
G01X1225586Y727500D02*
Y731437D01*
X1224438D01*
X1224070Y731240D01*
X1223841Y730978D01*
X1223749Y730453D01*
X1223841Y729928D01*
X1224117Y729600D01*
X1224438Y729403D01*
X1225586D01*
G01X1224438D02*
X1223749Y727500D01*
G01X1221530D02*
Y731437D01*
X1220428D01*
X1220061Y731240D01*
X1219785Y730781D01*
X1219693Y730256D01*
X1219785Y729731D01*
X1220015Y729337D01*
X1220428Y729140D01*
X1221530D01*
G01X1217520Y728025D02*
X1217153Y727697D01*
X1216740Y727500D01*
X1216372D01*
X1216005Y727697D01*
X1215729Y728025D01*
X1215591Y728484D01*
X1215683Y728943D01*
X1215913Y729337D01*
X1216326Y729600D01*
X1216878Y729731D01*
X1217199Y729993D01*
X1217337Y730453D01*
X1217245Y730912D01*
X1217015Y731240D01*
X1216694Y731437D01*
X1216372D01*
X1216051Y731306D01*
X1215775Y730978D01*
G01X1213878Y726188D02*
X1211122D01*
G01X1208444Y727500D02*
Y731437D01*
X1208995Y730650D01*
G01Y727500D02*
X1207893D01*
G01X1205261Y730781D02*
X1204985Y731174D01*
X1204664Y731371D01*
X1204296Y731437D01*
X1203837Y731306D01*
X1203515Y730978D01*
X1203424Y730584D01*
X1203470Y730190D01*
X1203653Y729862D01*
X1204572Y729206D01*
X1204985Y728747D01*
X1205261Y728091D01*
X1205353Y727500D01*
X1203424D01*
G01X1201710Y726188D02*
X1198954D01*
G01X1196828Y731437D02*
X1195725D01*
G01X1196276D02*
Y727500D01*
G01X1196828D02*
X1195725D01*
G01X1193277D02*
Y731437D01*
X1191164Y727500D01*
Y731437D01*
G01X1188165D02*
Y727500D01*
G01X1189221Y731437D02*
X1187108D01*
G01X1259335Y558937D02*
Y555000D01*
G01X1260392Y558937D02*
X1258279D01*
G01X1256657Y553688D02*
X1253902D01*
G01X1252372Y558937D02*
X1251224Y555000D01*
X1250075Y558937D01*
G01X1248086Y555000D02*
Y558937D01*
X1246938D01*
X1246570Y558740D01*
X1246341Y558478D01*
X1246249Y557953D01*
X1246341Y557428D01*
X1246617Y557100D01*
X1246938Y556903D01*
X1248086D01*
G01X1246938D02*
X1246249Y555000D01*
G01X1244030D02*
Y558937D01*
X1242928D01*
X1242561Y558740D01*
X1242285Y558281D01*
X1242193Y557756D01*
X1242285Y557231D01*
X1242515Y556837D01*
X1242928Y556640D01*
X1244030D01*
G01X1240020Y555525D02*
X1239653Y555197D01*
X1239240Y555000D01*
X1238872D01*
X1238505Y555197D01*
X1238229Y555525D01*
X1238091Y555984D01*
X1238183Y556443D01*
X1238413Y556837D01*
X1238826Y557100D01*
X1239378Y557231D01*
X1239699Y557493D01*
X1239837Y557953D01*
X1239745Y558412D01*
X1239515Y558740D01*
X1239194Y558937D01*
X1238872D01*
X1238551Y558806D01*
X1238275Y558478D01*
G01X1236378Y553688D02*
X1233622D01*
G01X1231955Y555591D02*
X1231679Y555263D01*
X1231357Y555066D01*
X1230944Y555000D01*
X1230531Y555131D01*
X1230209Y555394D01*
X1229980Y555853D01*
X1229933Y556378D01*
X1230026Y556903D01*
X1230255Y557231D01*
X1230577Y557493D01*
X1230898Y557559D01*
X1231220Y557493D01*
X1231633Y557231D01*
X1231495Y558937D01*
X1230255D01*
G01X1227761Y556640D02*
X1227439Y557100D01*
X1227164Y557362D01*
X1226796Y557493D01*
X1226475Y557362D01*
X1226245Y557100D01*
X1226061Y556706D01*
X1226015Y556247D01*
X1226061Y555853D01*
X1226245Y555459D01*
X1226521Y555131D01*
X1226842Y555000D01*
X1227210Y555131D01*
X1227531Y555525D01*
X1227715Y556115D01*
X1227761Y556772D01*
X1227669Y557624D01*
X1227531Y558084D01*
X1227302Y558543D01*
X1226980Y558871D01*
X1226659Y558937D01*
X1226337Y558806D01*
X1226107Y558478D01*
G01X1224210Y553688D02*
X1221454D01*
G01X1219328Y558937D02*
X1218225D01*
G01X1218776D02*
Y555000D01*
G01X1219328D02*
X1218225D01*
G01X1215777D02*
Y558937D01*
X1213664Y555000D01*
Y558937D01*
G01X1210665D02*
Y555000D01*
G01X1211721Y558937D02*
X1209608D01*
G01X1216949Y629396D02*
X1217316Y629724D01*
X1217730Y629921D01*
X1218097D01*
X1218465Y629724D01*
X1218740Y629396D01*
X1218878Y628937D01*
X1218786Y628478D01*
X1218556Y628084D01*
X1218143Y627822D01*
X1217592Y627690D01*
X1217270Y627428D01*
X1217133Y626969D01*
X1217224Y626509D01*
X1217454Y626181D01*
X1217776Y625984D01*
X1218097D01*
X1218419Y626115D01*
X1218694Y626444D01*
G01X1220591Y625984D02*
X1221234Y629921D01*
X1221969Y625984D01*
X1222704Y629921D01*
X1223347Y625984D01*
G01X1226025Y629921D02*
Y625984D01*
X1225474Y626772D01*
G01Y629921D02*
X1226576D01*
G01X1305709Y616142D02*
Y612205D01*
G01X1306765Y616142D02*
X1304652D01*
G01X1298745D02*
X1297597Y612205D01*
X1296448Y616142D01*
G01X1294459Y612205D02*
Y616142D01*
X1293311D01*
X1292944Y615945D01*
X1292714Y615682D01*
X1292622Y615157D01*
X1292714Y614633D01*
X1292990Y614304D01*
X1293311Y614107D01*
X1294459D01*
G01X1293311D02*
X1292622Y612205D01*
G01X1290404D02*
Y616142D01*
X1289301D01*
X1288934Y615945D01*
X1288658Y615485D01*
X1288567Y614961D01*
X1288658Y614436D01*
X1288888Y614042D01*
X1289301Y613845D01*
X1290404D01*
G01X1286394Y612730D02*
X1286026Y612402D01*
X1285613Y612205D01*
X1285245D01*
X1284878Y612402D01*
X1284602Y612730D01*
X1284465Y613189D01*
X1284556Y613648D01*
X1284786Y614042D01*
X1285200Y614304D01*
X1285751Y614436D01*
X1286072Y614698D01*
X1286210Y615157D01*
X1286118Y615617D01*
X1285889Y615945D01*
X1285567Y616142D01*
X1285245D01*
X1284924Y616011D01*
X1284648Y615682D01*
G01X1278328Y612795D02*
X1278052Y612467D01*
X1277731Y612270D01*
X1277317Y612205D01*
X1276904Y612336D01*
X1276582Y612598D01*
X1276353Y613058D01*
X1276307Y613583D01*
X1276399Y614107D01*
X1276628Y614436D01*
X1276950Y614698D01*
X1277271Y614764D01*
X1277593Y614698D01*
X1278006Y614436D01*
X1277869Y616142D01*
X1276628D01*
G01X1274134Y613845D02*
X1273813Y614304D01*
X1273537Y614567D01*
X1273170Y614698D01*
X1272848Y614567D01*
X1272619Y614304D01*
X1272435Y613911D01*
X1272389Y613452D01*
X1272435Y613058D01*
X1272619Y612664D01*
X1272894Y612336D01*
X1273215Y612205D01*
X1273583Y612336D01*
X1273904Y612730D01*
X1274088Y613320D01*
X1274134Y613976D01*
X1274042Y614829D01*
X1273904Y615289D01*
X1273675Y615748D01*
X1273353Y616076D01*
X1273032Y616142D01*
X1272710Y616011D01*
X1272481Y615682D01*
G01X1266344Y612205D02*
Y616142D01*
X1265150Y612861D01*
X1263956Y616142D01*
Y612205D01*
G01X1261920Y612074D02*
X1260267Y616142D01*
G01X1256027Y615814D02*
X1256303Y616011D01*
X1256624Y616142D01*
X1256992D01*
X1257405Y615945D01*
X1257727Y615617D01*
X1257956Y615223D01*
X1258140Y614567D01*
X1258186Y613976D01*
X1258094Y613386D01*
X1257956Y612992D01*
X1257681Y612598D01*
X1257359Y612336D01*
X1257038Y612205D01*
X1256716D01*
X1256395Y612336D01*
X1256119Y612533D01*
X1255889Y612795D01*
G01X1253809Y612074D02*
X1252155Y616142D01*
G01X1248007Y612205D02*
X1249844D01*
Y616142D01*
X1248007D01*
G01X1248742Y614239D02*
X1249844D01*
G01X1245835Y612205D02*
X1243906Y616142D01*
G01X1245835D02*
X1243906Y612205D01*
G01X1240814Y616142D02*
Y612205D01*
G01X1241870Y616142D02*
X1239758D01*
G01X1232283Y642047D02*
Y641129D01*
X1233465D01*
X1233858Y641404D01*
X1234121Y641726D01*
X1234252Y642185D01*
X1234121Y642644D01*
X1233858Y642966D01*
X1233465Y643241D01*
X1233005Y643425D01*
X1232480Y643517D01*
X1232021D01*
X1231628Y643425D01*
X1231168Y643241D01*
X1230774Y642966D01*
X1230512Y642690D01*
X1230315Y642323D01*
Y642001D01*
X1230446Y641634D01*
X1230709Y641358D01*
G01X1234252Y639323D02*
X1230315D01*
X1234252Y637211D01*
X1230315D01*
G01X1234252Y635222D02*
X1230315D01*
Y634303D01*
X1230512Y633935D01*
X1230774Y633660D01*
X1231168Y633430D01*
X1231628Y633246D01*
X1232283Y633200D01*
X1232940Y633246D01*
X1233399Y633430D01*
X1233793Y633660D01*
X1234055Y633935D01*
X1234252Y634303D01*
Y635222D01*
G01X1301772Y740157D02*
Y736220D01*
G01X1302828Y740157D02*
X1300715D01*
G01X1294808D02*
X1293660Y736220D01*
X1292511Y740157D01*
G01X1290522Y736220D02*
Y740157D01*
X1289374D01*
X1289007Y739961D01*
X1288777Y739698D01*
X1288685Y739173D01*
X1288777Y738648D01*
X1289053Y738320D01*
X1289374Y738123D01*
X1290522D01*
G01X1289374D02*
X1288685Y736220D01*
G01X1286467D02*
Y740157D01*
X1285364D01*
X1284997Y739961D01*
X1284721Y739501D01*
X1284630Y738976D01*
X1284721Y738452D01*
X1284951Y738058D01*
X1285364Y737861D01*
X1286467D01*
G01X1282457Y736745D02*
X1282089Y736417D01*
X1281676Y736220D01*
X1281308D01*
X1280941Y736417D01*
X1280665Y736745D01*
X1280528Y737205D01*
X1280619Y737664D01*
X1280849Y738058D01*
X1281263Y738320D01*
X1281814Y738452D01*
X1282135Y738714D01*
X1282273Y739173D01*
X1282181Y739633D01*
X1281952Y739961D01*
X1281630Y740157D01*
X1281308D01*
X1280987Y740026D01*
X1280711Y739698D01*
G01X1273380Y736220D02*
Y740157D01*
X1273931Y739370D01*
G01Y736220D02*
X1272829D01*
G01X1270197Y739501D02*
X1269922Y739895D01*
X1269600Y740092D01*
X1269233Y740157D01*
X1268773Y740026D01*
X1268452Y739698D01*
X1268360Y739304D01*
X1268406Y738911D01*
X1268589Y738583D01*
X1269508Y737926D01*
X1269922Y737467D01*
X1270197Y736811D01*
X1270289Y736220D01*
X1268360D01*
G01X1262407D02*
Y740157D01*
X1261213Y736877D01*
X1260019Y740157D01*
Y736220D01*
G01X1257983Y736089D02*
X1256330Y740157D01*
G01X1252090Y739830D02*
X1252366Y740026D01*
X1252687Y740157D01*
X1253055D01*
X1253468Y739961D01*
X1253790Y739633D01*
X1254019Y739239D01*
X1254203Y738583D01*
X1254249Y737992D01*
X1254157Y737402D01*
X1254019Y737008D01*
X1253744Y736614D01*
X1253422Y736352D01*
X1253101Y736220D01*
X1252779D01*
X1252458Y736352D01*
X1252182Y736548D01*
X1251952Y736811D01*
G01X1249872Y736089D02*
X1248218Y740157D01*
G01X1244070Y736220D02*
X1245907D01*
Y740157D01*
X1244070D01*
G01X1244805Y738255D02*
X1245907D01*
G01X1241898Y736220D02*
X1239969Y740157D01*
G01X1241898D02*
X1239969Y736220D01*
G01X1236877Y740157D02*
Y736220D01*
G01X1237933Y740157D02*
X1235821D01*
G01X1280118Y864173D02*
Y860236D01*
G01X1281174Y864173D02*
X1279062D01*
G01X1276613D02*
X1275511D01*
G01X1276062D02*
Y860236D01*
G01X1276613D02*
X1275511D01*
G01X1273155D02*
X1272006Y864173D01*
X1270858Y860236D01*
G01X1271271Y861614D02*
X1272741D01*
G01X1265089Y860236D02*
Y864173D01*
X1263894Y860893D01*
X1262700Y864173D01*
Y860236D01*
G01X1255783D02*
X1256150Y860302D01*
X1256472Y860564D01*
X1256747Y860958D01*
X1256931Y861417D01*
X1257023Y861942D01*
Y862467D01*
X1256931Y862992D01*
X1256747Y863452D01*
X1256472Y863845D01*
X1256150Y864107D01*
X1255783Y864173D01*
X1255415Y864107D01*
X1255094Y863845D01*
X1254818Y863452D01*
X1254634Y862992D01*
X1254543Y862467D01*
Y861942D01*
X1254634Y861417D01*
X1254818Y860958D01*
X1255094Y860564D01*
X1255415Y860302D01*
X1255783Y860236D01*
G01X1252737Y864173D02*
Y861352D01*
X1252554Y860761D01*
X1252186Y860367D01*
X1251727Y860236D01*
X1251267Y860367D01*
X1250900Y860761D01*
X1250716Y861352D01*
Y864173D01*
G01X1247671D02*
Y860236D01*
G01X1248727Y864173D02*
X1246615D01*
G01X1239192Y862336D02*
X1239008Y862533D01*
X1238870Y862861D01*
X1238778Y863320D01*
X1238870Y863714D01*
X1239054Y863976D01*
X1239375Y864173D01*
X1240615D01*
Y860236D01*
X1239100D01*
X1238778Y860499D01*
X1238594Y860893D01*
X1238503Y861352D01*
X1238594Y861811D01*
X1238870Y862205D01*
X1239192Y862336D01*
X1240615D01*
G01X1236514Y864173D02*
Y861352D01*
X1236330Y860761D01*
X1235963Y860367D01*
X1235503Y860236D01*
X1235044Y860367D01*
X1234676Y860761D01*
X1234493Y861352D01*
Y864173D01*
G01X1232320Y860236D02*
Y864173D01*
X1230574D01*
G01X1231218Y862270D02*
X1232320D01*
G01X1281083Y879921D02*
Y883858D01*
G01X1279154D02*
Y879921D01*
G01Y881890D02*
X1281083D01*
G01X1276981Y879921D02*
Y883858D01*
X1275878D01*
X1275511Y883661D01*
X1275235Y883202D01*
X1275144Y882677D01*
X1275235Y882152D01*
X1275465Y881759D01*
X1275878Y881561D01*
X1276981D01*
G01X1272879Y879921D02*
Y883858D01*
X1271133D01*
G01X1271777Y881956D02*
X1272879D01*
G01X1263894Y879921D02*
X1264262Y879987D01*
X1264583Y880249D01*
X1264859Y880643D01*
X1265043Y881102D01*
X1265135Y881627D01*
Y882152D01*
X1265043Y882677D01*
X1264859Y883137D01*
X1264583Y883530D01*
X1264262Y883793D01*
X1263894Y883858D01*
X1263527Y883793D01*
X1263206Y883530D01*
X1262930Y883137D01*
X1262746Y882677D01*
X1262654Y882152D01*
Y881627D01*
X1262746Y881102D01*
X1262930Y880643D01*
X1263206Y880249D01*
X1263527Y879987D01*
X1263894Y879921D01*
G01X1260849Y883858D02*
Y881037D01*
X1260665Y880446D01*
X1260298Y880052D01*
X1259839Y879921D01*
X1259379Y880052D01*
X1259012Y880446D01*
X1258828Y881037D01*
Y883858D01*
G01X1255783D02*
Y879921D01*
G01X1256839Y883858D02*
X1254726D01*
G01X1247304Y882021D02*
X1247120Y882218D01*
X1246982Y882546D01*
X1246890Y883005D01*
X1246982Y883399D01*
X1247166Y883661D01*
X1247487Y883858D01*
X1248727D01*
Y879921D01*
X1247211D01*
X1246890Y880184D01*
X1246706Y880578D01*
X1246615Y881037D01*
X1246706Y881496D01*
X1246982Y881890D01*
X1247304Y882021D01*
X1248727D01*
G01X1244626Y883858D02*
Y881037D01*
X1244442Y880446D01*
X1244074Y880052D01*
X1243615Y879921D01*
X1243156Y880052D01*
X1242788Y880446D01*
X1242604Y881037D01*
Y883858D01*
G01X1240432Y879921D02*
Y883858D01*
X1238686D01*
G01X1239330Y881956D02*
X1240432D01*
G01X1280118Y874016D02*
Y870079D01*
G01X1281174Y874016D02*
X1279062D01*
G01X1276613D02*
X1275511D01*
G01X1276062D02*
Y870079D01*
G01X1276613D02*
X1275511D01*
G01X1273155D02*
X1272006Y874016D01*
X1270858Y870079D01*
G01X1271271Y871457D02*
X1272741D01*
G01X1262884Y873688D02*
X1263159Y873885D01*
X1263481Y874016D01*
X1263848D01*
X1264262Y873819D01*
X1264583Y873491D01*
X1264813Y873097D01*
X1264997Y872441D01*
X1265043Y871850D01*
X1264951Y871260D01*
X1264813Y870866D01*
X1264537Y870472D01*
X1264216Y870210D01*
X1263894Y870079D01*
X1263573D01*
X1263252Y870210D01*
X1262976Y870407D01*
X1262746Y870669D01*
G01X1255783Y870079D02*
X1256150Y870144D01*
X1256472Y870407D01*
X1256747Y870800D01*
X1256931Y871260D01*
X1257023Y871785D01*
Y872310D01*
X1256931Y872835D01*
X1256747Y873294D01*
X1256472Y873688D01*
X1256150Y873950D01*
X1255783Y874016D01*
X1255415Y873950D01*
X1255094Y873688D01*
X1254818Y873294D01*
X1254634Y872835D01*
X1254543Y872310D01*
Y871785D01*
X1254634Y871260D01*
X1254818Y870800D01*
X1255094Y870407D01*
X1255415Y870144D01*
X1255783Y870079D01*
G01X1252737Y874016D02*
Y871194D01*
X1252554Y870604D01*
X1252186Y870210D01*
X1251727Y870079D01*
X1251267Y870210D01*
X1250900Y870604D01*
X1250716Y871194D01*
Y874016D01*
G01X1247671D02*
Y870079D01*
G01X1248727Y874016D02*
X1246615D01*
G01X1239192Y872178D02*
X1239008Y872375D01*
X1238870Y872703D01*
X1238778Y873163D01*
X1238870Y873556D01*
X1239054Y873819D01*
X1239375Y874016D01*
X1240615D01*
Y870079D01*
X1239100D01*
X1238778Y870341D01*
X1238594Y870735D01*
X1238503Y871194D01*
X1238594Y871654D01*
X1238870Y872047D01*
X1239192Y872178D01*
X1240615D01*
G01X1236514Y874016D02*
Y871194D01*
X1236330Y870604D01*
X1235963Y870210D01*
X1235503Y870079D01*
X1235044Y870210D01*
X1234676Y870604D01*
X1234493Y871194D01*
Y874016D01*
G01X1232320Y870079D02*
Y874016D01*
X1230574D01*
G01X1231218Y872113D02*
X1232320D01*
G01X1252087Y913025D02*
X1251719Y912697D01*
X1251306Y912500D01*
X1250938D01*
X1250571Y912697D01*
X1250295Y913025D01*
X1250157Y913484D01*
X1250249Y913943D01*
X1250479Y914337D01*
X1250893Y914600D01*
X1251444Y914731D01*
X1251765Y914993D01*
X1251903Y915453D01*
X1251811Y915912D01*
X1251581Y916240D01*
X1251260Y916437D01*
X1250938D01*
X1250617Y916306D01*
X1250341Y915978D01*
G01X1246148Y912500D02*
X1247985D01*
Y916437D01*
X1246148D01*
G01X1246882Y914534D02*
X1247985D01*
G01X1244067Y912500D02*
Y916437D01*
X1241954Y912500D01*
Y916437D01*
G01X1239919Y913025D02*
X1239552Y912697D01*
X1239138Y912500D01*
X1238770D01*
X1238403Y912697D01*
X1238128Y913025D01*
X1237990Y913484D01*
X1238081Y913943D01*
X1238311Y914337D01*
X1238725Y914600D01*
X1239276Y914731D01*
X1239597Y914993D01*
X1239735Y915453D01*
X1239643Y915912D01*
X1239414Y916240D01*
X1239092Y916437D01*
X1238770D01*
X1238449Y916306D01*
X1238174Y915978D01*
G01X1234898Y912500D02*
X1235266Y912566D01*
X1235587Y912828D01*
X1235863Y913222D01*
X1236047Y913681D01*
X1236139Y914206D01*
Y914731D01*
X1236047Y915256D01*
X1235863Y915715D01*
X1235587Y916109D01*
X1235266Y916371D01*
X1234898Y916437D01*
X1234531Y916371D01*
X1234209Y916109D01*
X1233934Y915715D01*
X1233750Y915256D01*
X1233658Y914731D01*
Y914206D01*
X1233750Y913681D01*
X1233934Y913222D01*
X1234209Y912828D01*
X1234531Y912566D01*
X1234898Y912500D01*
G01X1231761D02*
Y916437D01*
X1230613D01*
X1230245Y916240D01*
X1230016Y915978D01*
X1229924Y915453D01*
X1230016Y914928D01*
X1230291Y914600D01*
X1230613Y914403D01*
X1231761D01*
G01X1230613D02*
X1229924Y912500D01*
G01X1223741D02*
Y916437D01*
X1222822D01*
X1222455Y916240D01*
X1222180Y915978D01*
X1221950Y915584D01*
X1221766Y915124D01*
X1221720Y914469D01*
X1221766Y913812D01*
X1221950Y913353D01*
X1222180Y912959D01*
X1222455Y912697D01*
X1222822Y912500D01*
X1223741D01*
G01X1273209Y689501D02*
X1272841Y689173D01*
X1272428Y688976D01*
X1272060D01*
X1271693Y689173D01*
X1271417Y689501D01*
X1271280Y689961D01*
X1271371Y690420D01*
X1271601Y690814D01*
X1272015Y691076D01*
X1272566Y691207D01*
X1272887Y691470D01*
X1273025Y691929D01*
X1272933Y692389D01*
X1272704Y692717D01*
X1272382Y692913D01*
X1272060D01*
X1271739Y692782D01*
X1271463Y692454D01*
G01X1267270Y688976D02*
X1269107D01*
Y692913D01*
X1267270D01*
G01X1268004Y691011D02*
X1269107D01*
G01X1265189Y688976D02*
Y692913D01*
X1263076Y688976D01*
Y692913D01*
G01X1261041Y689501D02*
X1260674Y689173D01*
X1260260Y688976D01*
X1259893D01*
X1259525Y689173D01*
X1259250Y689501D01*
X1259112Y689961D01*
X1259204Y690420D01*
X1259433Y690814D01*
X1259847Y691076D01*
X1260398Y691207D01*
X1260719Y691470D01*
X1260857Y691929D01*
X1260765Y692389D01*
X1260536Y692717D01*
X1260214Y692913D01*
X1259893D01*
X1259571Y692782D01*
X1259296Y692454D01*
G01X1256020Y688976D02*
X1256388Y689042D01*
X1256709Y689304D01*
X1256985Y689698D01*
X1257169Y690157D01*
X1257261Y690682D01*
Y691207D01*
X1257169Y691732D01*
X1256985Y692192D01*
X1256709Y692585D01*
X1256388Y692848D01*
X1256020Y692913D01*
X1255653Y692848D01*
X1255331Y692585D01*
X1255056Y692192D01*
X1254872Y691732D01*
X1254780Y691207D01*
Y690682D01*
X1254872Y690157D01*
X1255056Y689698D01*
X1255331Y689304D01*
X1255653Y689042D01*
X1256020Y688976D01*
G01X1252883D02*
Y692913D01*
X1251735D01*
X1251367Y692717D01*
X1251138Y692454D01*
X1251046Y691929D01*
X1251138Y691404D01*
X1251413Y691076D01*
X1251735Y690879D01*
X1252883D01*
G01X1251735D02*
X1251046Y688976D01*
G01X1244726Y692257D02*
X1244450Y692651D01*
X1244128Y692848D01*
X1243761Y692913D01*
X1243302Y692782D01*
X1242980Y692454D01*
X1242888Y692060D01*
X1242934Y691667D01*
X1243118Y691339D01*
X1244037Y690682D01*
X1244450Y690223D01*
X1244726Y689567D01*
X1244817Y688976D01*
X1242888D01*
G01X1250000Y835236D02*
X1253937D01*
G01X1250000Y836293D02*
Y834180D01*
G01Y828273D02*
X1253937Y827124D01*
X1250000Y825976D01*
G01X1253937Y823987D02*
X1250000D01*
Y822839D01*
X1250197Y822471D01*
X1250459Y822242D01*
X1250984Y822150D01*
X1251509Y822242D01*
X1251837Y822517D01*
X1252034Y822839D01*
Y823987D01*
G01Y822839D02*
X1253937Y822150D01*
G01Y819931D02*
X1250000D01*
Y818829D01*
X1250197Y818461D01*
X1250656Y818186D01*
X1251181Y818094D01*
X1251706Y818186D01*
X1252100Y818415D01*
X1252297Y818829D01*
Y819931D01*
G01X1253412Y815921D02*
X1253740Y815554D01*
X1253937Y815141D01*
Y814773D01*
X1253740Y814406D01*
X1253412Y814130D01*
X1252953Y813992D01*
X1252494Y814084D01*
X1252100Y814314D01*
X1251837Y814727D01*
X1251706Y815278D01*
X1251444Y815600D01*
X1250984Y815737D01*
X1250525Y815646D01*
X1250197Y815416D01*
X1250000Y815094D01*
Y814773D01*
X1250131Y814452D01*
X1250459Y814176D01*
G01X1250328Y805834D02*
X1250131Y806110D01*
X1250000Y806431D01*
Y806799D01*
X1250197Y807212D01*
X1250525Y807534D01*
X1250919Y807763D01*
X1251575Y807947D01*
X1252165Y807993D01*
X1252756Y807901D01*
X1253150Y807763D01*
X1253543Y807488D01*
X1253806Y807167D01*
X1253937Y806845D01*
Y806523D01*
X1253806Y806202D01*
X1253609Y805926D01*
X1253346Y805696D01*
G01X1253412Y799698D02*
X1253740Y799330D01*
X1253937Y798917D01*
Y798549D01*
X1253740Y798182D01*
X1253412Y797906D01*
X1252953Y797769D01*
X1252494Y797860D01*
X1252100Y798090D01*
X1251837Y798504D01*
X1251706Y799055D01*
X1251444Y799376D01*
X1250984Y799514D01*
X1250525Y799422D01*
X1250197Y799193D01*
X1250000Y798871D01*
Y798549D01*
X1250131Y798228D01*
X1250459Y797952D01*
G01X1253937Y795642D02*
X1250000D01*
G01Y793713D02*
X1253937D01*
G01X1251969D02*
Y795642D01*
G01X1253937Y791770D02*
X1250000Y790621D01*
X1253937Y789473D01*
G01X1252559Y789886D02*
Y791356D01*
G01X1253937Y787484D02*
X1250000D01*
Y786336D01*
X1250197Y785968D01*
X1250459Y785739D01*
X1250984Y785647D01*
X1251509Y785739D01*
X1251837Y786014D01*
X1252034Y786336D01*
Y787484D01*
G01Y786336D02*
X1253937Y785647D01*
G01Y781591D02*
Y783428D01*
X1250000D01*
Y781591D01*
G01X1251903Y782326D02*
Y783428D01*
G01X1253937Y779464D02*
X1250000D01*
Y778545D01*
X1250197Y778178D01*
X1250459Y777902D01*
X1250853Y777673D01*
X1251313Y777489D01*
X1251969Y777443D01*
X1252625Y777489D01*
X1253084Y777673D01*
X1253478Y777902D01*
X1253740Y778178D01*
X1253937Y778545D01*
Y779464D01*
G01X1299803Y643701D02*
X1300170Y643767D01*
X1300492Y644029D01*
X1300768Y644422D01*
X1300952Y644882D01*
X1301043Y645407D01*
Y645932D01*
X1300952Y646457D01*
X1300768Y646916D01*
X1300492Y647310D01*
X1300170Y647572D01*
X1299803Y647638D01*
X1299436Y647572D01*
X1299114Y647310D01*
X1298839Y646916D01*
X1298655Y646457D01*
X1298563Y645932D01*
Y645407D01*
X1298655Y644882D01*
X1298839Y644422D01*
X1299114Y644029D01*
X1299436Y643767D01*
X1299803Y643701D01*
G01X1296758Y647638D02*
Y644816D01*
X1296574Y644226D01*
X1296207Y643832D01*
X1295747Y643701D01*
X1295288Y643832D01*
X1294920Y644226D01*
X1294737Y644816D01*
Y647638D01*
G01X1291691D02*
Y643701D01*
G01X1292748Y647638D02*
X1290635D01*
G01X1288554Y643701D02*
Y647638D01*
X1287452D01*
X1287084Y647441D01*
X1286809Y646981D01*
X1286717Y646457D01*
X1286809Y645932D01*
X1287038Y645538D01*
X1287452Y645341D01*
X1288554D01*
G01X1284590Y647638D02*
Y644816D01*
X1284406Y644226D01*
X1284039Y643832D01*
X1283580Y643701D01*
X1283120Y643832D01*
X1282753Y644226D01*
X1282569Y644816D01*
Y647638D01*
G01X1279524D02*
Y643701D01*
G01X1280580Y647638D02*
X1278467D01*
G01X1271412Y643701D02*
Y647638D01*
X1271963Y646850D01*
G01Y643701D02*
X1270861D01*
G01X1306667Y678806D02*
X1306942Y679003D01*
X1307264Y679134D01*
X1307631D01*
X1308044Y678937D01*
X1308366Y678609D01*
X1308596Y678215D01*
X1308780Y677559D01*
X1308826Y676969D01*
X1308733Y676378D01*
X1308596Y675984D01*
X1308320Y675591D01*
X1307999Y675328D01*
X1307677Y675197D01*
X1307356D01*
X1307034Y675328D01*
X1306759Y675525D01*
X1306529Y675787D01*
G01X1304815Y675197D02*
Y679134D01*
X1303621Y675853D01*
X1302427Y679134D01*
Y675197D01*
G01X1294591D02*
X1296428D01*
Y679134D01*
X1294591D01*
G01X1295326Y677231D02*
X1296428D01*
G01X1292418Y675197D02*
X1290489Y679134D01*
G01X1292418D02*
X1290489Y675197D01*
G01X1287398Y679134D02*
Y675197D01*
G01X1288454Y679134D02*
X1286341D01*
G01X1311548Y638209D02*
X1311220Y638576D01*
X1311024Y638989D01*
Y639357D01*
X1311220Y639724D01*
X1311548Y640000D01*
X1312008Y640138D01*
X1312467Y640046D01*
X1312861Y639816D01*
X1313123Y639403D01*
X1313255Y638852D01*
X1313517Y638530D01*
X1313976Y638393D01*
X1314436Y638484D01*
X1314764Y638714D01*
X1314961Y639035D01*
Y639357D01*
X1314830Y639678D01*
X1314501Y639954D01*
G01X1311024Y644148D02*
Y642311D01*
X1314961D01*
Y644148D01*
G01X1313058Y643413D02*
Y642311D01*
G01X1311024Y646229D02*
X1314961D01*
X1311024Y648341D01*
X1314961D01*
G01X1311548Y650376D02*
X1311220Y650744D01*
X1311024Y651157D01*
Y651525D01*
X1311220Y651892D01*
X1311548Y652168D01*
X1312008Y652306D01*
X1312467Y652214D01*
X1312861Y651984D01*
X1313123Y651570D01*
X1313255Y651019D01*
X1313517Y650698D01*
X1313976Y650560D01*
X1314436Y650652D01*
X1314764Y650881D01*
X1314961Y651203D01*
Y651525D01*
X1314830Y651846D01*
X1314501Y652122D01*
G01X1311024Y655397D02*
X1311089Y655030D01*
X1311352Y654708D01*
X1311745Y654432D01*
X1312205Y654248D01*
X1312730Y654157D01*
X1313255D01*
X1313780Y654248D01*
X1314239Y654432D01*
X1314633Y654708D01*
X1314895Y655030D01*
X1314961Y655397D01*
X1314895Y655764D01*
X1314633Y656086D01*
X1314239Y656361D01*
X1313780Y656545D01*
X1313255Y656637D01*
X1312730D01*
X1312205Y656545D01*
X1311745Y656361D01*
X1311352Y656086D01*
X1311089Y655764D01*
X1311024Y655397D01*
G01Y658534D02*
X1314961D01*
Y659682D01*
X1314764Y660050D01*
X1314501Y660280D01*
X1313976Y660371D01*
X1313452Y660280D01*
X1313123Y660004D01*
X1312926Y659682D01*
Y658534D01*
G01Y659682D02*
X1311024Y660371D01*
G01Y667565D02*
X1314961D01*
X1314173Y667013D01*
G01X1311024D02*
Y668116D01*
G01X1312992Y687237D02*
X1309055Y688386D01*
X1312992Y689534D01*
G01X1309055Y691523D02*
X1312992D01*
Y692671D01*
X1312795Y693039D01*
X1312533Y693269D01*
X1312008Y693360D01*
X1311483Y693269D01*
X1311155Y692993D01*
X1310958Y692671D01*
Y691523D01*
G01Y692671D02*
X1309055Y693360D01*
G01Y695579D02*
X1312992D01*
Y696681D01*
X1312795Y697049D01*
X1312336Y697324D01*
X1311811Y697416D01*
X1311286Y697324D01*
X1310893Y697095D01*
X1310695Y696681D01*
Y695579D01*
G01X1309580Y699589D02*
X1309252Y699956D01*
X1309055Y700370D01*
Y700737D01*
X1309252Y701105D01*
X1309580Y701380D01*
X1310039Y701518D01*
X1310498Y701426D01*
X1310893Y701196D01*
X1311155Y700783D01*
X1311286Y700232D01*
X1311548Y699911D01*
X1312008Y699773D01*
X1312467Y699865D01*
X1312795Y700094D01*
X1312992Y700416D01*
Y700737D01*
X1312861Y701059D01*
X1312533Y701334D01*
G01X1309580Y707701D02*
X1309252Y708068D01*
X1309055Y708481D01*
Y708849D01*
X1309252Y709217D01*
X1309580Y709492D01*
X1310039Y709630D01*
X1310498Y709538D01*
X1310893Y709308D01*
X1311155Y708895D01*
X1311286Y708344D01*
X1311548Y708022D01*
X1312008Y707885D01*
X1312467Y707976D01*
X1312795Y708206D01*
X1312992Y708528D01*
Y708849D01*
X1312861Y709170D01*
X1312533Y709446D01*
G01X1309055Y711757D02*
X1312992D01*
G01Y713686D02*
X1309055D01*
G01X1311024D02*
Y711757D01*
G01X1309055Y715629D02*
X1312992Y716777D01*
X1309055Y717926D01*
G01X1310433Y717512D02*
Y716042D01*
G01X1309055Y719915D02*
X1312992D01*
Y721063D01*
X1312795Y721430D01*
X1312533Y721660D01*
X1312008Y721752D01*
X1311483Y721660D01*
X1311155Y721384D01*
X1310958Y721063D01*
Y719915D01*
G01Y721063D02*
X1309055Y721752D01*
G01Y725807D02*
Y723970D01*
X1312992D01*
Y725807D01*
G01X1311089Y725073D02*
Y723970D01*
G01X1309055Y727934D02*
X1312992D01*
Y728853D01*
X1312795Y729220D01*
X1312533Y729496D01*
X1312139Y729726D01*
X1311680Y729909D01*
X1311024Y729956D01*
X1310367Y729909D01*
X1309908Y729726D01*
X1309514Y729496D01*
X1309252Y729220D01*
X1309055Y728853D01*
Y727934D01*
G01X1307087Y833268D02*
X1311024D01*
G01X1307087Y834324D02*
Y832211D01*
G01Y826304D02*
X1311024Y825156D01*
X1307087Y824007D01*
G01X1311024Y822019D02*
X1307087D01*
Y820870D01*
X1307283Y820503D01*
X1307546Y820273D01*
X1308071Y820181D01*
X1308596Y820273D01*
X1308924Y820549D01*
X1309121Y820870D01*
Y822019D01*
G01Y820870D02*
X1311024Y820181D01*
G01Y817963D02*
X1307087D01*
Y816860D01*
X1307283Y816493D01*
X1307743Y816217D01*
X1308268Y816126D01*
X1308793Y816217D01*
X1309186Y816447D01*
X1309383Y816860D01*
Y817963D01*
G01X1310499Y813953D02*
X1310827Y813585D01*
X1311024Y813172D01*
Y812804D01*
X1310827Y812437D01*
X1310499Y812161D01*
X1310039Y812024D01*
X1309580Y812115D01*
X1309186Y812345D01*
X1308924Y812759D01*
X1308793Y813310D01*
X1308530Y813631D01*
X1308071Y813769D01*
X1307611Y813677D01*
X1307283Y813448D01*
X1307087Y813126D01*
Y812804D01*
X1307218Y812483D01*
X1307546Y812207D01*
G01X1311024Y806070D02*
X1307087D01*
X1310367Y804876D01*
X1307087Y803682D01*
X1311024D01*
G01X1310499Y797729D02*
X1310827Y797362D01*
X1311024Y796948D01*
Y796581D01*
X1310827Y796213D01*
X1310499Y795938D01*
X1310039Y795800D01*
X1309580Y795892D01*
X1309186Y796122D01*
X1308924Y796535D01*
X1308793Y797086D01*
X1308530Y797407D01*
X1308071Y797545D01*
X1307611Y797454D01*
X1307283Y797224D01*
X1307087Y796902D01*
Y796581D01*
X1307218Y796259D01*
X1307546Y795984D01*
G01X1311024Y793673D02*
X1307087D01*
G01Y791744D02*
X1311024D01*
G01X1309055D02*
Y793673D01*
G01X1311024Y789801D02*
X1307087Y788653D01*
X1311024Y787504D01*
G01X1309646Y787918D02*
Y789388D01*
G01X1311024Y785515D02*
X1307087D01*
Y784367D01*
X1307283Y784000D01*
X1307546Y783770D01*
X1308071Y783678D01*
X1308596Y783770D01*
X1308924Y784046D01*
X1309121Y784367D01*
Y785515D01*
G01Y784367D02*
X1311024Y783678D01*
G01Y779622D02*
Y781459D01*
X1307087D01*
Y779622D01*
G01X1308989Y780357D02*
Y781459D01*
G01X1311024Y777496D02*
X1307087D01*
Y776577D01*
X1307283Y776209D01*
X1307546Y775934D01*
X1307940Y775704D01*
X1308399Y775520D01*
X1309055Y775474D01*
X1309711Y775520D01*
X1310170Y775704D01*
X1310565Y775934D01*
X1310827Y776209D01*
X1311024Y776577D01*
Y777496D01*
G01X584646Y1424803D02*
Y324803D01*
G01D02*
X2284646D01*
Y1424803D01*
X584646D01*
G01X2234646Y1274803D02*
Y354803D01*
X634646D01*
G01Y1394803D02*
Y354803D01*
G01Y1394803D02*
X644646D01*
G01D02*
X2234646D01*
G01X769685Y515748D02*
Y976378D01*
X1322835D01*
Y515748D01*
X769685D01*
G01X812608Y839715D02*
X812919Y839523D01*
X813125Y839293D01*
X813228Y839025D01*
X813125Y838719D01*
X812919Y838489D01*
X812608Y838258D01*
X812195Y838182D01*
X810128D01*
G01X813228Y835848D02*
X810128D01*
X810748Y836308D01*
G01X813228D02*
Y835389D01*
G01Y832289D02*
X810128D01*
X812350Y833707D01*
Y831790D01*
G01X1454646Y354803D02*
Y534803D01*
X2234646D01*
G01X1454646Y504803D02*
X1814646D01*
G01X1462842Y412303D02*
Y417303D01*
X1465249D01*
G01X1464362Y414887D02*
X1462842D01*
G01X1467879Y412303D02*
Y417303D01*
X1469462D01*
X1469969Y417053D01*
X1470286Y416720D01*
X1470412Y416053D01*
X1470286Y415387D01*
X1469906Y414970D01*
X1469462Y414720D01*
X1467879D01*
G01X1469462D02*
X1470412Y412303D01*
G01X1472662D02*
X1474246Y417303D01*
X1475829Y412303D01*
G01X1475259Y414053D02*
X1473232D01*
G01X1480739Y416887D02*
X1480359Y417137D01*
X1479916Y417303D01*
X1479409D01*
X1478839Y417053D01*
X1478396Y416637D01*
X1478079Y416137D01*
X1477826Y415303D01*
X1477762Y414553D01*
X1477889Y413803D01*
X1478079Y413303D01*
X1478459Y412803D01*
X1478902Y412470D01*
X1479346Y412303D01*
X1479789D01*
X1480232Y412470D01*
X1480612Y412720D01*
X1480929Y413053D01*
G01X1484446Y417303D02*
Y412303D01*
G01X1482989Y417303D02*
X1485902D01*
G01X1488786D02*
X1490306D01*
G01X1489546D02*
Y412303D01*
G01X1488786D02*
X1490306D01*
G01X1494646D02*
X1494139Y412387D01*
X1493696Y412720D01*
X1493316Y413220D01*
X1493062Y413803D01*
X1492935Y414470D01*
Y415137D01*
X1493062Y415803D01*
X1493316Y416387D01*
X1493696Y416887D01*
X1494139Y417220D01*
X1494646Y417303D01*
X1495152Y417220D01*
X1495596Y416887D01*
X1495976Y416387D01*
X1496229Y415803D01*
X1496356Y415137D01*
Y414470D01*
X1496229Y413803D01*
X1495976Y413220D01*
X1495596Y412720D01*
X1495152Y412387D01*
X1494646Y412303D01*
G01X1498289D02*
Y417303D01*
X1501202Y412303D01*
Y417303D01*
G01X1503516Y412970D02*
X1504022Y412553D01*
X1504593Y412303D01*
X1505099D01*
X1505606Y412553D01*
X1505986Y412970D01*
X1506176Y413553D01*
X1506049Y414136D01*
X1505732Y414637D01*
X1505162Y414970D01*
X1504402Y415137D01*
X1503959Y415470D01*
X1503769Y416053D01*
X1503896Y416637D01*
X1504212Y417053D01*
X1504656Y417303D01*
X1505099D01*
X1505543Y417137D01*
X1505922Y416720D01*
G01X1514349Y413970D02*
X1515869D01*
G01X1515046Y415053D02*
Y412886D01*
G01X1462462Y427303D02*
X1464046Y432303D01*
X1465629Y427303D01*
G01X1465059Y429053D02*
X1463032D01*
G01X1467689Y427303D02*
Y432303D01*
X1470602Y427303D01*
Y432303D01*
G01X1474626Y429803D02*
X1475893D01*
Y428303D01*
X1475512Y427803D01*
X1475069Y427470D01*
X1474436Y427303D01*
X1473802Y427470D01*
X1473359Y427803D01*
X1472979Y428303D01*
X1472726Y428887D01*
X1472599Y429553D01*
Y430137D01*
X1472726Y430636D01*
X1472979Y431220D01*
X1473359Y431720D01*
X1473739Y432053D01*
X1474246Y432303D01*
X1474689D01*
X1475196Y432137D01*
X1475576Y431803D01*
G01X1478079Y432303D02*
Y427303D01*
X1480612D01*
G01X1485712D02*
X1483179D01*
Y432303D01*
X1485712D01*
G01X1484699Y429887D02*
X1483179D01*
G01X1488216Y427970D02*
X1488722Y427553D01*
X1489293Y427303D01*
X1489799D01*
X1490306Y427553D01*
X1490686Y427970D01*
X1490876Y428553D01*
X1490749Y429136D01*
X1490432Y429637D01*
X1489862Y429970D01*
X1489102Y430137D01*
X1488659Y430470D01*
X1488469Y431053D01*
X1488596Y431637D01*
X1488912Y432053D01*
X1489356Y432303D01*
X1489799D01*
X1490243Y432137D01*
X1490622Y431720D01*
G01X1499049Y428970D02*
X1500569D01*
G01X1499746Y430053D02*
Y427886D01*
G01X1462652Y443303D02*
X1463032Y442720D01*
X1463539Y442387D01*
X1464109Y442303D01*
X1464616Y442387D01*
X1465122Y442803D01*
X1465439Y443303D01*
X1465502Y443803D01*
X1465376Y444386D01*
X1464932Y444803D01*
X1464489Y444970D01*
X1463919D01*
G01X1464489D02*
X1464869Y445220D01*
X1465186Y445636D01*
X1465312Y446137D01*
X1465186Y446637D01*
X1464869Y447053D01*
X1464299Y447303D01*
X1463729Y447220D01*
X1463159Y446887D01*
G01X1472979Y442303D02*
Y447303D01*
X1474499D01*
X1475006Y447053D01*
X1475386Y446470D01*
X1475512Y445803D01*
X1475386Y445137D01*
X1475069Y444637D01*
X1474499Y444386D01*
X1472979D01*
G01X1478079Y447303D02*
Y442303D01*
X1480612D01*
G01X1488152D02*
Y447303D01*
X1489419D01*
X1489926Y447053D01*
X1490306Y446720D01*
X1490622Y446220D01*
X1490876Y445636D01*
X1490939Y444803D01*
X1490876Y443970D01*
X1490622Y443386D01*
X1490306Y442886D01*
X1489926Y442553D01*
X1489419Y442303D01*
X1488152D01*
G01X1495912D02*
X1493379D01*
Y447303D01*
X1495912D01*
G01X1494899Y444887D02*
X1493379D01*
G01X1501139Y446887D02*
X1500759Y447137D01*
X1500316Y447303D01*
X1499809D01*
X1499239Y447053D01*
X1498796Y446637D01*
X1498479Y446137D01*
X1498226Y445303D01*
X1498162Y444553D01*
X1498289Y443803D01*
X1498479Y443303D01*
X1498859Y442803D01*
X1499302Y442470D01*
X1499746Y442303D01*
X1500189D01*
X1500632Y442470D01*
X1501012Y442720D01*
X1501329Y443053D01*
G01X1504086Y447303D02*
X1505606D01*
G01X1504846D02*
Y442303D01*
G01X1504086D02*
X1505606D01*
G01X1508299D02*
Y447303D01*
X1509946Y443137D01*
X1511593Y447303D01*
Y442303D01*
G01X1513462D02*
X1515046Y447303D01*
X1516629Y442303D01*
G01X1516059Y444053D02*
X1514032D01*
G01X1518879Y447303D02*
Y442303D01*
X1521412D01*
G01X1523916Y442970D02*
X1524422Y442553D01*
X1524993Y442303D01*
X1525499D01*
X1526006Y442553D01*
X1526386Y442970D01*
X1526576Y443553D01*
X1526449Y444136D01*
X1526132Y444637D01*
X1525562Y444970D01*
X1524802Y445137D01*
X1524359Y445470D01*
X1524169Y446053D01*
X1524296Y446637D01*
X1524612Y447053D01*
X1525056Y447303D01*
X1525499D01*
X1525943Y447137D01*
X1526322Y446720D01*
G01X1534749Y443970D02*
X1536269D01*
G01X1535446Y445053D02*
Y442886D01*
G01X1462842Y461470D02*
X1463222Y461970D01*
X1463666Y462220D01*
X1464172Y462303D01*
X1464806Y462137D01*
X1465249Y461720D01*
X1465376Y461220D01*
X1465312Y460720D01*
X1465059Y460303D01*
X1463793Y459470D01*
X1463222Y458887D01*
X1462842Y458053D01*
X1462716Y457303D01*
X1465376D01*
G01X1472979D02*
Y462303D01*
X1474499D01*
X1475006Y462053D01*
X1475386Y461470D01*
X1475512Y460803D01*
X1475386Y460137D01*
X1475069Y459637D01*
X1474499Y459386D01*
X1472979D01*
G01X1478079Y462303D02*
Y457303D01*
X1480612D01*
G01X1488152D02*
Y462303D01*
X1489419D01*
X1489926Y462053D01*
X1490306Y461720D01*
X1490622Y461220D01*
X1490876Y460636D01*
X1490939Y459803D01*
X1490876Y458970D01*
X1490622Y458386D01*
X1490306Y457886D01*
X1489926Y457553D01*
X1489419Y457303D01*
X1488152D01*
G01X1495912D02*
X1493379D01*
Y462303D01*
X1495912D01*
G01X1494899Y459887D02*
X1493379D01*
G01X1501139Y461887D02*
X1500759Y462137D01*
X1500316Y462303D01*
X1499809D01*
X1499239Y462053D01*
X1498796Y461637D01*
X1498479Y461137D01*
X1498226Y460303D01*
X1498162Y459553D01*
X1498289Y458803D01*
X1498479Y458303D01*
X1498859Y457803D01*
X1499302Y457470D01*
X1499746Y457303D01*
X1500189D01*
X1500632Y457470D01*
X1501012Y457720D01*
X1501329Y458053D01*
G01X1504086Y462303D02*
X1505606D01*
G01X1504846D02*
Y457303D01*
G01X1504086D02*
X1505606D01*
G01X1508299D02*
Y462303D01*
X1509946Y458137D01*
X1511593Y462303D01*
Y457303D01*
G01X1513462D02*
X1515046Y462303D01*
X1516629Y457303D01*
G01X1516059Y459053D02*
X1514032D01*
G01X1518879Y462303D02*
Y457303D01*
X1521412D01*
G01X1523916Y457970D02*
X1524422Y457553D01*
X1524993Y457303D01*
X1525499D01*
X1526006Y457553D01*
X1526386Y457970D01*
X1526576Y458553D01*
X1526449Y459136D01*
X1526132Y459637D01*
X1525562Y459970D01*
X1524802Y460137D01*
X1524359Y460470D01*
X1524169Y461053D01*
X1524296Y461637D01*
X1524612Y462053D01*
X1525056Y462303D01*
X1525499D01*
X1525943Y462137D01*
X1526322Y461720D01*
G01X1534749Y458970D02*
X1536269D01*
G01X1535446Y460053D02*
Y457886D01*
G01X1464046Y477303D02*
Y472303D01*
G01X1462589Y477303D02*
X1465502D01*
G01X1469146Y472303D02*
X1468639Y472387D01*
X1468196Y472720D01*
X1467816Y473220D01*
X1467562Y473803D01*
X1467435Y474470D01*
Y475137D01*
X1467562Y475803D01*
X1467816Y476387D01*
X1468196Y476887D01*
X1468639Y477220D01*
X1469146Y477303D01*
X1469652Y477220D01*
X1470096Y476887D01*
X1470476Y476387D01*
X1470729Y475803D01*
X1470856Y475137D01*
Y474470D01*
X1470729Y473803D01*
X1470476Y473220D01*
X1470096Y472720D01*
X1469652Y472387D01*
X1469146Y472303D01*
G01X1472979Y477303D02*
Y472303D01*
X1475512D01*
G01X1480612D02*
X1478079D01*
Y477303D01*
X1480612D01*
G01X1479599Y474887D02*
X1478079D01*
G01X1483179Y472303D02*
Y477303D01*
X1484762D01*
X1485269Y477053D01*
X1485586Y476720D01*
X1485712Y476053D01*
X1485586Y475387D01*
X1485206Y474970D01*
X1484762Y474720D01*
X1483179D01*
G01X1484762D02*
X1485712Y472303D01*
G01X1487962D02*
X1489546Y477303D01*
X1491129Y472303D01*
G01X1490559Y474053D02*
X1488532D01*
G01X1493189Y472303D02*
Y477303D01*
X1496102Y472303D01*
Y477303D01*
G01X1501139Y476887D02*
X1500759Y477137D01*
X1500316Y477303D01*
X1499809D01*
X1499239Y477053D01*
X1498796Y476637D01*
X1498479Y476137D01*
X1498226Y475303D01*
X1498162Y474553D01*
X1498289Y473803D01*
X1498479Y473303D01*
X1498859Y472803D01*
X1499302Y472470D01*
X1499746Y472303D01*
X1500189D01*
X1500632Y472470D01*
X1501012Y472720D01*
X1501329Y473053D01*
G01X1506112Y472303D02*
X1503579D01*
Y477303D01*
X1506112D01*
G01X1505099Y474887D02*
X1503579D01*
G01X1508616Y472970D02*
X1509122Y472553D01*
X1509693Y472303D01*
X1510199D01*
X1510706Y472553D01*
X1511086Y472970D01*
X1511276Y473553D01*
X1511149Y474136D01*
X1510832Y474637D01*
X1510262Y474970D01*
X1509502Y475137D01*
X1509059Y475470D01*
X1508869Y476053D01*
X1508996Y476637D01*
X1509312Y477053D01*
X1509756Y477303D01*
X1510199D01*
X1510643Y477137D01*
X1511022Y476720D01*
G01X1520146Y472303D02*
X1519639Y472387D01*
X1519196Y472720D01*
X1518816Y473220D01*
X1518562Y473803D01*
X1518435Y474470D01*
Y475137D01*
X1518562Y475803D01*
X1518816Y476387D01*
X1519196Y476887D01*
X1519639Y477220D01*
X1520146Y477303D01*
X1520652Y477220D01*
X1521096Y476887D01*
X1521476Y476387D01*
X1521729Y475803D01*
X1521856Y475137D01*
Y474470D01*
X1521729Y473803D01*
X1521476Y473220D01*
X1521096Y472720D01*
X1520652Y472387D01*
X1520146Y472303D01*
G01X1523789D02*
Y477303D01*
X1526702Y472303D01*
Y477303D01*
G01X1530346Y472137D02*
X1530219Y472220D01*
Y472387D01*
X1530346Y472470D01*
X1530472Y472387D01*
Y472220D01*
X1530346Y472137D01*
G01Y474386D02*
X1530219Y474470D01*
Y474637D01*
X1530346Y474720D01*
X1530472Y474637D01*
Y474470D01*
X1530346Y474386D01*
G01X1462652Y489803D02*
Y494803D01*
X1463919D01*
X1464426Y494553D01*
X1464806Y494220D01*
X1465122Y493720D01*
X1465376Y493136D01*
X1465439Y492303D01*
X1465376Y491470D01*
X1465122Y490886D01*
X1464806Y490386D01*
X1464426Y490053D01*
X1463919Y489803D01*
X1462652D01*
G01X1468386Y494803D02*
X1469906D01*
G01X1469146D02*
Y489803D01*
G01X1468386D02*
X1469906D01*
G01X1472599D02*
Y494803D01*
X1474246Y490637D01*
X1475893Y494803D01*
Y489803D01*
G01X1480612D02*
X1478079D01*
Y494803D01*
X1480612D01*
G01X1479599Y492387D02*
X1478079D01*
G01X1482989Y489803D02*
Y494803D01*
X1485902Y489803D01*
Y494803D01*
G01X1488216Y490470D02*
X1488722Y490053D01*
X1489293Y489803D01*
X1489799D01*
X1490306Y490053D01*
X1490686Y490470D01*
X1490876Y491053D01*
X1490749Y491636D01*
X1490432Y492137D01*
X1489862Y492470D01*
X1489102Y492637D01*
X1488659Y492970D01*
X1488469Y493553D01*
X1488596Y494137D01*
X1488912Y494553D01*
X1489356Y494803D01*
X1489799D01*
X1490243Y494637D01*
X1490622Y494220D01*
G01X1493886Y494803D02*
X1495406D01*
G01X1494646D02*
Y489803D01*
G01X1493886D02*
X1495406D01*
G01X1499746D02*
X1499239Y489887D01*
X1498796Y490220D01*
X1498416Y490720D01*
X1498162Y491303D01*
X1498035Y491970D01*
Y492637D01*
X1498162Y493303D01*
X1498416Y493887D01*
X1498796Y494387D01*
X1499239Y494720D01*
X1499746Y494803D01*
X1500252Y494720D01*
X1500696Y494387D01*
X1501076Y493887D01*
X1501329Y493303D01*
X1501456Y492637D01*
Y491970D01*
X1501329Y491303D01*
X1501076Y490720D01*
X1500696Y490220D01*
X1500252Y489887D01*
X1499746Y489803D01*
G01X1503389D02*
Y494803D01*
X1506302Y489803D01*
Y494803D01*
G01X1508616Y490470D02*
X1509122Y490053D01*
X1509693Y489803D01*
X1510199D01*
X1510706Y490053D01*
X1511086Y490470D01*
X1511276Y491053D01*
X1511149Y491636D01*
X1510832Y492137D01*
X1510262Y492470D01*
X1509502Y492637D01*
X1509059Y492970D01*
X1508869Y493553D01*
X1508996Y494137D01*
X1509312Y494553D01*
X1509756Y494803D01*
X1510199D01*
X1510643Y494637D01*
X1511022Y494220D01*
G01X1518562Y489803D02*
X1520146Y494803D01*
X1521729Y489803D01*
G01X1521159Y491553D02*
X1519132D01*
G01X1523979Y489803D02*
Y494803D01*
X1525562D01*
X1526069Y494553D01*
X1526386Y494220D01*
X1526512Y493553D01*
X1526386Y492887D01*
X1526006Y492470D01*
X1525562Y492220D01*
X1523979D01*
G01X1525562D02*
X1526512Y489803D01*
G01X1531612D02*
X1529079D01*
Y494803D01*
X1531612D01*
G01X1530599Y492387D02*
X1529079D01*
G01X1539786Y494803D02*
X1541306D01*
G01X1540546D02*
Y489803D01*
G01X1539786D02*
X1541306D01*
G01X1544189D02*
Y494803D01*
X1547102Y489803D01*
Y494803D01*
G01X1555086D02*
X1556606D01*
G01X1555846D02*
Y489803D01*
G01X1555086D02*
X1556606D01*
G01X1559489D02*
Y494803D01*
X1562402Y489803D01*
Y494803D01*
G01X1567439Y494387D02*
X1567059Y494637D01*
X1566616Y494803D01*
X1566109D01*
X1565539Y494553D01*
X1565096Y494137D01*
X1564779Y493637D01*
X1564526Y492803D01*
X1564462Y492053D01*
X1564589Y491303D01*
X1564779Y490803D01*
X1565159Y490303D01*
X1565602Y489970D01*
X1566046Y489803D01*
X1566489D01*
X1566932Y489970D01*
X1567312Y490220D01*
X1567629Y490553D01*
G01X1569816Y489803D02*
Y494803D01*
G01X1572476D02*
Y489803D01*
G01Y492303D02*
X1569816D01*
G01X1577512Y489803D02*
X1574979D01*
Y494803D01*
X1577512D01*
G01X1576499Y492387D02*
X1574979D01*
G01X1580016Y490470D02*
X1580522Y490053D01*
X1581093Y489803D01*
X1581599D01*
X1582106Y490053D01*
X1582486Y490470D01*
X1582676Y491053D01*
X1582549Y491636D01*
X1582232Y492137D01*
X1581662Y492470D01*
X1580902Y492637D01*
X1580459Y492970D01*
X1580269Y493553D01*
X1580396Y494137D01*
X1580712Y494553D01*
X1581156Y494803D01*
X1581599D01*
X1582043Y494637D01*
X1582422Y494220D01*
G01X1462652Y522303D02*
Y518720D01*
X1462906Y517970D01*
X1463412Y517470D01*
X1464046Y517303D01*
X1464679Y517470D01*
X1465186Y517970D01*
X1465439Y518720D01*
Y522303D01*
G01X1467689Y517303D02*
Y522303D01*
X1470602Y517303D01*
Y522303D01*
G01X1472979D02*
Y517303D01*
X1475512D01*
G01X1480612D02*
X1478079D01*
Y522303D01*
X1480612D01*
G01X1479599Y519887D02*
X1478079D01*
G01X1483116Y517970D02*
X1483622Y517553D01*
X1484193Y517303D01*
X1484699D01*
X1485206Y517553D01*
X1485586Y517970D01*
X1485776Y518553D01*
X1485649Y519136D01*
X1485332Y519637D01*
X1484762Y519970D01*
X1484002Y520137D01*
X1483559Y520470D01*
X1483369Y521053D01*
X1483496Y521637D01*
X1483812Y522053D01*
X1484256Y522303D01*
X1484699D01*
X1485143Y522137D01*
X1485522Y521720D01*
G01X1488216Y517970D02*
X1488722Y517553D01*
X1489293Y517303D01*
X1489799D01*
X1490306Y517553D01*
X1490686Y517970D01*
X1490876Y518553D01*
X1490749Y519136D01*
X1490432Y519637D01*
X1489862Y519970D01*
X1489102Y520137D01*
X1488659Y520470D01*
X1488469Y521053D01*
X1488596Y521637D01*
X1488912Y522053D01*
X1489356Y522303D01*
X1489799D01*
X1490243Y522137D01*
X1490622Y521720D01*
G01X1499746Y517303D02*
X1499239Y517387D01*
X1498796Y517720D01*
X1498416Y518220D01*
X1498162Y518803D01*
X1498035Y519470D01*
Y520137D01*
X1498162Y520803D01*
X1498416Y521387D01*
X1498796Y521887D01*
X1499239Y522220D01*
X1499746Y522303D01*
X1500252Y522220D01*
X1500696Y521887D01*
X1501076Y521387D01*
X1501329Y520803D01*
X1501456Y520137D01*
Y519470D01*
X1501329Y518803D01*
X1501076Y518220D01*
X1500696Y517720D01*
X1500252Y517387D01*
X1499746Y517303D01*
G01X1504846Y522303D02*
Y517303D01*
G01X1503389Y522303D02*
X1506302D01*
G01X1508616Y517303D02*
Y522303D01*
G01X1511276D02*
Y517303D01*
G01Y519803D02*
X1508616D01*
G01X1516312Y517303D02*
X1513779D01*
Y522303D01*
X1516312D01*
G01X1515299Y519887D02*
X1513779D01*
G01X1518879Y517303D02*
Y522303D01*
X1520462D01*
X1520969Y522053D01*
X1521286Y521720D01*
X1521412Y521053D01*
X1521286Y520387D01*
X1520906Y519970D01*
X1520462Y519720D01*
X1518879D01*
G01X1520462D02*
X1521412Y517303D01*
G01X1523346Y522303D02*
X1524232Y517303D01*
X1525246Y522303D01*
X1526259Y517303D01*
X1527146Y522303D01*
G01X1529586D02*
X1531106D01*
G01X1530346D02*
Y517303D01*
G01X1529586D02*
X1531106D01*
G01X1534116Y517970D02*
X1534622Y517553D01*
X1535193Y517303D01*
X1535699D01*
X1536206Y517553D01*
X1536586Y517970D01*
X1536776Y518553D01*
X1536649Y519136D01*
X1536332Y519637D01*
X1535762Y519970D01*
X1535002Y520137D01*
X1534559Y520470D01*
X1534369Y521053D01*
X1534496Y521637D01*
X1534812Y522053D01*
X1535256Y522303D01*
X1535699D01*
X1536143Y522137D01*
X1536522Y521720D01*
G01X1541812Y517303D02*
X1539279D01*
Y522303D01*
X1541812D01*
G01X1540799Y519887D02*
X1539279D01*
G01X1549416Y517970D02*
X1549922Y517553D01*
X1550493Y517303D01*
X1550999D01*
X1551506Y517553D01*
X1551886Y517970D01*
X1552076Y518553D01*
X1551949Y519136D01*
X1551632Y519637D01*
X1551062Y519970D01*
X1550302Y520137D01*
X1549859Y520470D01*
X1549669Y521053D01*
X1549796Y521637D01*
X1550112Y522053D01*
X1550556Y522303D01*
X1550999D01*
X1551443Y522137D01*
X1551822Y521720D01*
G01X1554579Y517303D02*
Y522303D01*
X1556099D01*
X1556606Y522053D01*
X1556986Y521470D01*
X1557112Y520803D01*
X1556986Y520137D01*
X1556669Y519637D01*
X1556099Y519386D01*
X1554579D01*
G01X1562212Y517303D02*
X1559679D01*
Y522303D01*
X1562212D01*
G01X1561199Y519887D02*
X1559679D01*
G01X1567439Y521887D02*
X1567059Y522137D01*
X1566616Y522303D01*
X1566109D01*
X1565539Y522053D01*
X1565096Y521637D01*
X1564779Y521137D01*
X1564526Y520303D01*
X1564462Y519553D01*
X1564589Y518803D01*
X1564779Y518303D01*
X1565159Y517803D01*
X1565602Y517470D01*
X1566046Y517303D01*
X1566489D01*
X1566932Y517470D01*
X1567312Y517720D01*
X1567629Y518053D01*
G01X1570386Y522303D02*
X1571906D01*
G01X1571146D02*
Y517303D01*
G01X1570386D02*
X1571906D01*
G01X1575042D02*
Y522303D01*
X1577449D01*
G01X1576562Y519887D02*
X1575042D01*
G01X1580586Y522303D02*
X1582106D01*
G01X1581346D02*
Y517303D01*
G01X1580586D02*
X1582106D01*
G01X1587712D02*
X1585179D01*
Y522303D01*
X1587712D01*
G01X1586699Y519887D02*
X1585179D01*
G01X1590152Y517303D02*
Y522303D01*
X1591419D01*
X1591926Y522053D01*
X1592306Y521720D01*
X1592622Y521220D01*
X1592876Y520636D01*
X1592939Y519803D01*
X1592876Y518970D01*
X1592622Y518386D01*
X1592306Y517886D01*
X1591926Y517553D01*
X1591419Y517303D01*
X1590152D01*
G01X1604646Y534803D02*
Y354803D01*
G01Y389803D02*
X1814646D01*
G01X1604646Y414803D02*
X1814646D01*
G01X1604646Y444803D02*
X1814646D01*
G01X1604646Y474803D02*
X1814646D01*
G01X1647851Y518143D02*
X1648477Y517618D01*
X1649182Y517303D01*
X1649809D01*
X1650436Y517618D01*
X1650906Y518143D01*
X1651141Y518878D01*
X1650984Y519613D01*
X1650592Y520243D01*
X1649887Y520663D01*
X1648947Y520873D01*
X1648399Y521293D01*
X1648164Y522028D01*
X1648321Y522763D01*
X1648712Y523288D01*
X1649261Y523603D01*
X1649809D01*
X1650357Y523393D01*
X1650828Y522868D01*
G01X1654856Y523603D02*
X1656735D01*
G01X1655796D02*
Y517303D01*
G01X1654856D02*
X1656735D01*
G01X1662566Y520453D02*
X1664132D01*
Y518563D01*
X1663662Y517933D01*
X1663114Y517513D01*
X1662331Y517303D01*
X1661547Y517513D01*
X1660999Y517933D01*
X1660529Y518563D01*
X1660216Y519298D01*
X1660059Y520138D01*
Y520873D01*
X1660216Y521503D01*
X1660529Y522238D01*
X1660999Y522868D01*
X1661469Y523288D01*
X1662096Y523603D01*
X1662644D01*
X1663270Y523393D01*
X1663741Y522973D01*
G01X1666594Y517303D02*
Y523603D01*
X1670197Y517303D01*
Y523603D01*
G01X1672737Y517303D02*
X1674696Y523603D01*
X1676654Y517303D01*
G01X1675949Y519508D02*
X1673442D01*
G01X1680996Y523603D02*
Y517303D01*
G01X1679194Y523603D02*
X1682797D01*
G01X1685572D02*
Y519088D01*
X1685885Y518143D01*
X1686512Y517513D01*
X1687296Y517303D01*
X1688079Y517513D01*
X1688706Y518143D01*
X1689019Y519088D01*
Y523603D01*
G01X1692029Y517303D02*
Y523603D01*
X1693987D01*
X1694614Y523288D01*
X1695006Y522868D01*
X1695162Y522028D01*
X1695006Y521188D01*
X1694536Y520663D01*
X1693987Y520348D01*
X1692029D01*
G01X1693987D02*
X1695162Y517303D01*
G01X1701462D02*
X1698329D01*
Y523603D01*
X1701462D01*
G01X1700209Y520558D02*
X1698329D01*
G01X1704551Y518143D02*
X1705177Y517618D01*
X1705882Y517303D01*
X1706509D01*
X1707136Y517618D01*
X1707606Y518143D01*
X1707841Y518878D01*
X1707684Y519613D01*
X1707292Y520243D01*
X1706587Y520663D01*
X1705647Y520873D01*
X1705099Y521293D01*
X1704864Y522028D01*
X1705021Y522763D01*
X1705412Y523288D01*
X1705961Y523603D01*
X1706509D01*
X1707057Y523393D01*
X1707528Y522868D01*
G01X1734646Y417303D02*
Y414803D01*
G01Y417303D02*
Y534803D01*
G01Y1304803D02*
Y1274803D01*
G01Y1394803D02*
Y1304803D01*
G01Y1334803D02*
X2234646D01*
G01X1734646Y1364803D02*
X2234646D01*
G01X1740896Y1344803D02*
Y1354803D01*
X1744020D01*
X1745020Y1354303D01*
X1745646Y1353637D01*
X1745896Y1352303D01*
X1745646Y1350970D01*
X1744896Y1350137D01*
X1744020Y1349636D01*
X1740896D01*
G01X1744020D02*
X1745896Y1344803D01*
G01X1755896D02*
X1750896D01*
Y1354803D01*
X1755896D01*
G01X1753896Y1349970D02*
X1750896D01*
G01X1760270Y1354803D02*
X1763396Y1344803D01*
X1766521Y1354803D01*
G01X1760272Y517303D02*
Y523603D01*
X1761839D01*
X1762466Y523288D01*
X1762936Y522868D01*
X1763328Y522238D01*
X1763641Y521503D01*
X1763719Y520453D01*
X1763641Y519403D01*
X1763328Y518668D01*
X1762936Y518038D01*
X1762466Y517618D01*
X1761839Y517303D01*
X1760272D01*
G01X1766337D02*
X1768296Y523603D01*
X1770254Y517303D01*
G01X1769549Y519508D02*
X1767042D01*
G01X1774596Y523603D02*
Y517303D01*
G01X1772794Y523603D02*
X1776397D01*
G01X1782462Y517303D02*
X1779329D01*
Y523603D01*
X1782462D01*
G01X1781209Y520558D02*
X1779329D01*
G01X1774646Y1304803D02*
Y1274803D01*
G01Y1304803D02*
Y1364803D01*
G01X1814646Y534803D02*
Y354803D01*
G01X2064646Y384803D02*
X1814646D01*
G01X2234646Y424803D02*
X1814646D01*
G01X2234646Y484803D02*
X1814646D01*
G01X1820770Y371136D02*
X1821771Y370303D01*
X1822896Y369803D01*
X1823896D01*
X1824896Y370303D01*
X1825646Y371136D01*
X1826021Y372303D01*
X1825771Y373470D01*
X1825146Y374470D01*
X1824020Y375137D01*
X1822521Y375470D01*
X1821646Y376136D01*
X1821270Y377303D01*
X1821521Y378470D01*
X1822146Y379303D01*
X1823020Y379803D01*
X1823896D01*
X1824771Y379470D01*
X1825521Y378637D01*
G01X1836146Y378970D02*
X1835396Y379470D01*
X1834521Y379803D01*
X1833521D01*
X1832396Y379303D01*
X1831521Y378470D01*
X1830896Y377470D01*
X1830396Y375803D01*
X1830270Y374303D01*
X1830521Y372803D01*
X1830896Y371803D01*
X1831646Y370803D01*
X1832521Y370136D01*
X1833396Y369803D01*
X1834270D01*
X1835146Y370136D01*
X1835896Y370636D01*
X1836521Y371303D01*
G01X1840270Y369803D02*
X1843396Y379803D01*
X1846521Y369803D01*
G01X1845396Y373303D02*
X1841396D01*
G01X1850896Y379803D02*
Y369803D01*
X1855896D01*
G01X1865896D02*
X1860896D01*
Y379803D01*
X1865896D01*
G01X1863896Y374970D02*
X1860896D01*
G01X1820770Y411136D02*
X1821771Y410303D01*
X1822896Y409803D01*
X1823896D01*
X1824896Y410303D01*
X1825646Y411136D01*
X1826021Y412303D01*
X1825771Y413470D01*
X1825146Y414470D01*
X1824020Y415137D01*
X1822521Y415470D01*
X1821646Y416136D01*
X1821270Y417303D01*
X1821521Y418470D01*
X1822146Y419303D01*
X1823020Y419803D01*
X1823896D01*
X1824771Y419470D01*
X1825521Y418637D01*
G01X1831896Y419803D02*
X1834895D01*
G01X1833396D02*
Y409803D01*
G01X1831896D02*
X1834895D01*
G01X1841020Y419803D02*
X1845771D01*
X1841020Y409803D01*
X1845771D01*
G01X1855896D02*
X1850896D01*
Y419803D01*
X1855896D01*
G01X1853896Y414970D02*
X1850896D01*
G01X1845646Y1344803D02*
Y1354803D01*
X1848146D01*
X1849146Y1354303D01*
X1849896Y1353637D01*
X1850521Y1352637D01*
X1851021Y1351470D01*
X1851146Y1349803D01*
X1851021Y1348136D01*
X1850521Y1346970D01*
X1849896Y1345970D01*
X1849146Y1345303D01*
X1848146Y1344803D01*
X1845646D01*
G01X1860896D02*
X1855896D01*
Y1354803D01*
X1860896D01*
G01X1858896Y1349970D02*
X1855896D01*
G01X1865770Y1346136D02*
X1866771Y1345303D01*
X1867896Y1344803D01*
X1868896D01*
X1869896Y1345303D01*
X1870646Y1346136D01*
X1871021Y1347303D01*
X1870771Y1348470D01*
X1870146Y1349470D01*
X1869020Y1350137D01*
X1867521Y1350470D01*
X1866646Y1351136D01*
X1866270Y1352303D01*
X1866521Y1353470D01*
X1867146Y1354303D01*
X1868020Y1354803D01*
X1868896D01*
X1869771Y1354470D01*
X1870521Y1353637D01*
G01X1881146Y1353970D02*
X1880396Y1354470D01*
X1879521Y1354803D01*
X1878521D01*
X1877396Y1354303D01*
X1876521Y1353470D01*
X1875896Y1352470D01*
X1875396Y1350803D01*
X1875270Y1349303D01*
X1875521Y1347803D01*
X1875896Y1346803D01*
X1876646Y1345803D01*
X1877521Y1345136D01*
X1878396Y1344803D01*
X1879270D01*
X1880146Y1345136D01*
X1880896Y1345636D01*
X1881521Y1346303D01*
G01X1885896Y1344803D02*
Y1354803D01*
X1889020D01*
X1890020Y1354303D01*
X1890646Y1353637D01*
X1890896Y1352303D01*
X1890646Y1350970D01*
X1889896Y1350137D01*
X1889020Y1349636D01*
X1885896D01*
G01X1889020D02*
X1890896Y1344803D01*
G01X1896896Y1354803D02*
X1899895D01*
G01X1898396D02*
Y1344803D01*
G01X1896896D02*
X1899895D01*
G01X1905896D02*
Y1354803D01*
X1908896D01*
X1909896Y1354303D01*
X1910646Y1353137D01*
X1910896Y1351803D01*
X1910646Y1350470D01*
X1910020Y1349470D01*
X1908896Y1348970D01*
X1905896D01*
G01X1918396Y1354803D02*
Y1344803D01*
G01X1915521Y1354803D02*
X1921270D01*
G01X1926896D02*
X1929895D01*
G01X1928396D02*
Y1344803D01*
G01X1926896D02*
X1929895D01*
G01X1938396D02*
X1937396Y1344970D01*
X1936521Y1345636D01*
X1935770Y1346636D01*
X1935270Y1347803D01*
X1935020Y1349137D01*
Y1350470D01*
X1935270Y1351803D01*
X1935770Y1352970D01*
X1936521Y1353970D01*
X1937396Y1354637D01*
X1938396Y1354803D01*
X1939396Y1354637D01*
X1940270Y1353970D01*
X1941021Y1352970D01*
X1941521Y1351803D01*
X1941771Y1350470D01*
Y1349137D01*
X1941521Y1347803D01*
X1941021Y1346636D01*
X1940270Y1345636D01*
X1939396Y1344970D01*
X1938396Y1344803D01*
G01X1945521D02*
Y1354803D01*
X1951270Y1344803D01*
Y1354803D01*
G01X1864646Y384803D02*
Y424803D01*
G01X1876020Y409803D02*
Y419803D01*
X1880771D01*
G01X1879020Y414970D02*
X1876020D01*
G01X1885770Y411136D02*
X1886771Y410303D01*
X1887896Y409803D01*
X1888896D01*
X1889896Y410303D01*
X1890646Y411136D01*
X1891021Y412303D01*
X1890771Y413470D01*
X1890146Y414470D01*
X1889020Y415137D01*
X1887521Y415470D01*
X1886646Y416136D01*
X1886270Y417303D01*
X1886521Y418470D01*
X1887146Y419303D01*
X1888020Y419803D01*
X1888896D01*
X1889771Y419470D01*
X1890521Y418637D01*
G01X1901146Y418970D02*
X1900396Y419470D01*
X1899521Y419803D01*
X1898521D01*
X1897396Y419303D01*
X1896521Y418470D01*
X1895896Y417470D01*
X1895396Y415803D01*
X1895270Y414303D01*
X1895521Y412803D01*
X1895896Y411803D01*
X1896646Y410803D01*
X1897521Y410136D01*
X1898396Y409803D01*
X1899270D01*
X1900146Y410136D01*
X1900896Y410636D01*
X1901521Y411303D01*
G01X1905146Y409803D02*
Y419803D01*
X1908396Y411470D01*
X1911646Y419803D01*
Y409803D01*
G01X1925521D02*
Y419803D01*
X1931270Y409803D01*
Y419803D01*
G01X1938396Y409803D02*
X1937396Y409970D01*
X1936521Y410636D01*
X1935770Y411636D01*
X1935270Y412803D01*
X1935020Y414137D01*
Y415470D01*
X1935270Y416803D01*
X1935770Y417970D01*
X1936521Y418970D01*
X1937396Y419637D01*
X1938396Y419803D01*
X1939396Y419637D01*
X1940270Y418970D01*
X1941021Y417970D01*
X1941521Y416803D01*
X1941771Y415470D01*
Y414137D01*
X1941521Y412803D01*
X1941021Y411636D01*
X1940270Y410636D01*
X1939396Y409970D01*
X1938396Y409803D01*
G01X1885521Y504803D02*
Y514803D01*
X1891270Y504803D01*
Y514803D01*
G01X1898396Y504803D02*
Y509303D01*
X1895896Y514803D01*
G01X1900896D02*
X1898396Y509303D01*
G01X1905646Y514803D02*
Y507637D01*
X1906146Y506136D01*
X1907146Y505136D01*
X1908396Y504803D01*
X1909646Y505136D01*
X1910646Y506136D01*
X1911146Y507637D01*
Y514803D01*
G01X1925521Y504803D02*
Y514803D01*
X1931270Y504803D01*
Y514803D01*
G01X1935270Y504803D02*
X1938396Y514803D01*
X1941521Y504803D01*
G01X1940396Y508303D02*
X1936396D01*
G01X1945521Y504803D02*
Y514803D01*
X1951270Y504803D01*
Y514803D01*
G01X1958396Y504803D02*
X1957396Y504970D01*
X1956521Y505636D01*
X1955770Y506636D01*
X1955270Y507803D01*
X1955020Y509137D01*
Y510470D01*
X1955270Y511803D01*
X1955770Y512970D01*
X1956521Y513970D01*
X1957396Y514637D01*
X1958396Y514803D01*
X1959396Y514637D01*
X1960270Y513970D01*
X1961021Y512970D01*
X1961521Y511803D01*
X1961771Y510470D01*
Y509137D01*
X1961521Y507803D01*
X1961021Y506636D01*
X1960270Y505636D01*
X1959396Y504970D01*
X1958396Y504803D01*
G01X1970896D02*
X1965896D01*
Y514803D01*
X1970896D01*
G01X1968896Y509970D02*
X1965896D01*
G01X1975896Y514803D02*
Y504803D01*
X1980896D01*
G01X1990896D02*
X1985896D01*
Y514803D01*
X1990896D01*
G01X1988896Y509970D02*
X1985896D01*
G01X2001146Y513970D02*
X2000396Y514470D01*
X1999521Y514803D01*
X1998521D01*
X1997396Y514303D01*
X1996521Y513470D01*
X1995896Y512470D01*
X1995396Y510803D01*
X1995270Y509303D01*
X1995521Y507803D01*
X1995896Y506803D01*
X1996646Y505803D01*
X1997521Y505136D01*
X1998396Y504803D01*
X1999270D01*
X2000146Y505136D01*
X2000896Y505636D01*
X2001521Y506303D01*
G01X2008396Y514803D02*
Y504803D01*
G01X2005521Y514803D02*
X2011270D01*
G01X2015896Y504803D02*
Y514803D01*
X2019020D01*
X2020020Y514303D01*
X2020646Y513637D01*
X2020896Y512303D01*
X2020646Y510970D01*
X2019896Y510137D01*
X2019020Y509636D01*
X2015896D01*
G01X2019020D02*
X2020896Y504803D01*
G01X2028396D02*
X2027396Y504970D01*
X2026521Y505636D01*
X2025770Y506636D01*
X2025270Y507803D01*
X2025020Y509137D01*
Y510470D01*
X2025270Y511803D01*
X2025770Y512970D01*
X2026521Y513970D01*
X2027396Y514637D01*
X2028396Y514803D01*
X2029396Y514637D01*
X2030270Y513970D01*
X2031021Y512970D01*
X2031521Y511803D01*
X2031771Y510470D01*
Y509137D01*
X2031521Y507803D01*
X2031021Y506636D01*
X2030270Y505636D01*
X2029396Y504970D01*
X2028396Y504803D01*
G01X2035521D02*
Y514803D01*
X2041270Y504803D01*
Y514803D01*
G01X2046896D02*
X2049895D01*
G01X2048396D02*
Y504803D01*
G01X2046896D02*
X2049895D01*
G01X2061146Y513970D02*
X2060396Y514470D01*
X2059521Y514803D01*
X2058521D01*
X2057396Y514303D01*
X2056521Y513470D01*
X2055896Y512470D01*
X2055396Y510803D01*
X2055270Y509303D01*
X2055521Y507803D01*
X2055896Y506803D01*
X2056646Y505803D01*
X2057521Y505136D01*
X2058396Y504803D01*
X2059270D01*
X2060146Y505136D01*
X2060896Y505636D01*
X2061521Y506303D01*
G01X2065770Y506136D02*
X2066771Y505303D01*
X2067896Y504803D01*
X2068896D01*
X2069896Y505303D01*
X2070646Y506136D01*
X2071021Y507303D01*
X2070771Y508470D01*
X2070146Y509470D01*
X2069020Y510137D01*
X2067521Y510470D01*
X2066646Y511136D01*
X2066270Y512303D01*
X2066521Y513470D01*
X2067146Y514303D01*
X2068020Y514803D01*
X2068896D01*
X2069771Y514470D01*
X2070521Y513637D01*
G01X2085896Y514803D02*
Y504803D01*
X2090896D01*
G01X2095270D02*
X2098396Y514803D01*
X2101521Y504803D01*
G01X2100396Y508303D02*
X2096396D01*
G01X2109396Y510137D02*
X2109896Y510637D01*
X2110270Y511470D01*
X2110521Y512637D01*
X2110270Y513637D01*
X2109771Y514303D01*
X2108896Y514803D01*
X2105521D01*
Y504803D01*
X2109646D01*
X2110521Y505470D01*
X2111021Y506470D01*
X2111270Y507637D01*
X2111021Y508803D01*
X2110270Y509803D01*
X2109396Y510137D01*
X2105521D01*
G01X2118396Y504803D02*
X2117396Y504970D01*
X2116521Y505636D01*
X2115770Y506636D01*
X2115270Y507803D01*
X2115020Y509137D01*
Y510470D01*
X2115270Y511803D01*
X2115770Y512970D01*
X2116521Y513970D01*
X2117396Y514637D01*
X2118396Y514803D01*
X2119396Y514637D01*
X2120270Y513970D01*
X2121021Y512970D01*
X2121521Y511803D01*
X2121771Y510470D01*
Y509137D01*
X2121521Y507803D01*
X2121021Y506636D01*
X2120270Y505636D01*
X2119396Y504970D01*
X2118396Y504803D01*
G01X2125896D02*
Y514803D01*
X2129020D01*
X2130020Y514303D01*
X2130646Y513637D01*
X2130896Y512303D01*
X2130646Y510970D01*
X2129896Y510137D01*
X2129020Y509636D01*
X2125896D01*
G01X2129020D02*
X2130896Y504803D01*
G01X2135270D02*
X2138396Y514803D01*
X2141521Y504803D01*
G01X2140396Y508303D02*
X2136396D01*
G01X2148396Y514803D02*
Y504803D01*
G01X2145521Y514803D02*
X2151270D01*
G01X2158396Y504803D02*
X2157396Y504970D01*
X2156521Y505636D01*
X2155770Y506636D01*
X2155270Y507803D01*
X2155020Y509137D01*
Y510470D01*
X2155270Y511803D01*
X2155770Y512970D01*
X2156521Y513970D01*
X2157396Y514637D01*
X2158396Y514803D01*
X2159396Y514637D01*
X2160270Y513970D01*
X2161021Y512970D01*
X2161521Y511803D01*
X2161771Y510470D01*
Y509137D01*
X2161521Y507803D01*
X2161021Y506636D01*
X2160270Y505636D01*
X2159396Y504970D01*
X2158396Y504803D01*
G01X2165896D02*
Y514803D01*
X2169020D01*
X2170020Y514303D01*
X2170646Y513637D01*
X2170896Y512303D01*
X2170646Y510970D01*
X2169896Y510137D01*
X2169020Y509636D01*
X2165896D01*
G01X2169020D02*
X2170896Y504803D01*
G01X2178396D02*
Y509303D01*
X2175896Y514803D01*
G01X2180896D02*
X2178396Y509303D01*
G01X1904646Y384803D02*
Y354803D01*
G01X1950896Y1374803D02*
Y1384803D01*
X1954020D01*
X1955020Y1384303D01*
X1955646Y1383637D01*
X1955896Y1382303D01*
X1955646Y1380970D01*
X1954896Y1380137D01*
X1954020Y1379636D01*
X1950896D01*
G01X1954020D02*
X1955896Y1374803D01*
G01X1965896D02*
X1960896D01*
Y1384803D01*
X1965896D01*
G01X1963896Y1379970D02*
X1960896D01*
G01X1970270Y1384803D02*
X1973396Y1374803D01*
X1976521Y1384803D01*
G01X1981896D02*
X1984895D01*
G01X1983396D02*
Y1374803D01*
G01X1981896D02*
X1984895D01*
G01X1990770Y1376136D02*
X1991771Y1375303D01*
X1992896Y1374803D01*
X1993896D01*
X1994896Y1375303D01*
X1995646Y1376136D01*
X1996021Y1377303D01*
X1995771Y1378470D01*
X1995146Y1379470D01*
X1994020Y1380137D01*
X1992521Y1380470D01*
X1991646Y1381136D01*
X1991270Y1382303D01*
X1991521Y1383470D01*
X1992146Y1384303D01*
X1993020Y1384803D01*
X1993896D01*
X1994771Y1384470D01*
X1995521Y1383637D01*
G01X2001896Y1384803D02*
X2004895D01*
G01X2003396D02*
Y1374803D01*
G01X2001896D02*
X2004895D01*
G01X2013396D02*
X2012396Y1374970D01*
X2011521Y1375636D01*
X2010770Y1376636D01*
X2010270Y1377803D01*
X2010020Y1379137D01*
Y1380470D01*
X2010270Y1381803D01*
X2010770Y1382970D01*
X2011521Y1383970D01*
X2012396Y1384637D01*
X2013396Y1384803D01*
X2014396Y1384637D01*
X2015270Y1383970D01*
X2016021Y1382970D01*
X2016521Y1381803D01*
X2016771Y1380470D01*
Y1379137D01*
X2016521Y1377803D01*
X2016021Y1376636D01*
X2015270Y1375636D01*
X2014396Y1374970D01*
X2013396Y1374803D01*
G01X2020521D02*
Y1384803D01*
X2026270Y1374803D01*
Y1384803D01*
G01X2030770Y1376136D02*
X2031771Y1375303D01*
X2032896Y1374803D01*
X2033896D01*
X2034896Y1375303D01*
X2035646Y1376136D01*
X2036021Y1377303D01*
X2035771Y1378470D01*
X2035146Y1379470D01*
X2034020Y1380137D01*
X2032521Y1380470D01*
X2031646Y1381136D01*
X2031270Y1382303D01*
X2031521Y1383470D01*
X2032146Y1384303D01*
X2033020Y1384803D01*
X2033896D01*
X2034771Y1384470D01*
X2035521Y1383637D01*
G01X1967910Y450787D02*
Y460787D01*
X1972661D01*
G01X1970910Y455954D02*
X1967910D01*
G01X1977660Y452120D02*
X1978661Y451287D01*
X1979785Y450787D01*
X1980785D01*
X1981785Y451287D01*
X1982535Y452120D01*
X1982911Y453287D01*
X1982661Y454454D01*
X1982035Y455454D01*
X1980910Y456121D01*
X1979411Y456454D01*
X1978535Y457120D01*
X1978160Y458287D01*
X1978411Y459454D01*
X1979035Y460287D01*
X1979910Y460787D01*
X1980785D01*
X1981661Y460454D01*
X1982411Y459621D01*
G01X1993035Y459954D02*
X1992285Y460454D01*
X1991411Y460787D01*
X1990411D01*
X1989285Y460287D01*
X1988411Y459454D01*
X1987785Y458454D01*
X1987285Y456787D01*
X1987160Y455287D01*
X1987411Y453787D01*
X1987785Y452787D01*
X1988535Y451787D01*
X1989411Y451120D01*
X1990285Y450787D01*
X1991160D01*
X1992035Y451120D01*
X1992785Y451620D01*
X1993411Y452287D01*
G01X1997160Y460787D02*
X2000285Y450787D01*
X2003411Y460787D01*
G01X2021285Y456121D02*
X2021785Y456621D01*
X2022160Y457454D01*
X2022411Y458621D01*
X2022160Y459621D01*
X2021661Y460287D01*
X2020785Y460787D01*
X2017411D01*
Y450787D01*
X2021535D01*
X2022411Y451454D01*
X2022911Y452454D01*
X2023160Y453621D01*
X2022911Y454787D01*
X2022160Y455787D01*
X2021285Y456121D01*
X2017411D01*
G01X2030285Y450787D02*
X2029285Y450954D01*
X2028411Y451620D01*
X2027660Y452620D01*
X2027160Y453787D01*
X2026910Y455121D01*
Y456454D01*
X2027160Y457787D01*
X2027660Y458954D01*
X2028411Y459954D01*
X2029285Y460621D01*
X2030285Y460787D01*
X2031285Y460621D01*
X2032160Y459954D01*
X2032911Y458954D01*
X2033411Y457787D01*
X2033661Y456454D01*
Y455121D01*
X2033411Y453787D01*
X2032911Y452620D01*
X2032160Y451620D01*
X2031285Y450954D01*
X2030285Y450787D01*
G01X2037160D02*
X2040285Y460787D01*
X2043411Y450787D01*
G01X2042285Y454287D02*
X2038285D01*
G01X2047785Y450787D02*
Y460787D01*
X2050910D01*
X2051910Y460287D01*
X2052535Y459621D01*
X2052785Y458287D01*
X2052535Y456954D01*
X2051785Y456121D01*
X2050910Y455620D01*
X2047785D01*
G01X2050910D02*
X2052785Y450787D01*
G01X2057535D02*
Y460787D01*
X2060035D01*
X2061035Y460287D01*
X2061785Y459621D01*
X2062411Y458621D01*
X2062911Y457454D01*
X2063035Y455787D01*
X2062911Y454120D01*
X2062411Y452954D01*
X2061785Y451954D01*
X2061035Y451287D01*
X2060035Y450787D01*
X2057535D01*
G01X1984646Y384803D02*
Y424803D01*
G01X1995646Y409803D02*
Y419803D01*
X1998146D01*
X1999146Y419303D01*
X1999896Y418637D01*
X2000521Y417637D01*
X2001021Y416470D01*
X2001146Y414803D01*
X2001021Y413136D01*
X2000521Y411970D01*
X1999896Y410970D01*
X1999146Y410303D01*
X1998146Y409803D01*
X1995646D01*
G01X2004646Y419803D02*
X2006396Y409803D01*
X2008396Y419803D01*
X2010396Y409803D01*
X2012146Y419803D01*
G01X2019146Y414803D02*
X2021646D01*
Y411803D01*
X2020896Y410803D01*
X2020020Y410136D01*
X2018771Y409803D01*
X2017521Y410136D01*
X2016646Y410803D01*
X2015896Y411803D01*
X2015396Y412970D01*
X2015146Y414303D01*
Y415470D01*
X2015396Y416470D01*
X2015896Y417637D01*
X2016646Y418637D01*
X2017396Y419303D01*
X2018396Y419803D01*
X2019270D01*
X2020270Y419470D01*
X2021021Y418803D01*
G01X2035521Y409803D02*
Y419803D01*
X2041270Y409803D01*
Y419803D01*
G01X2048396Y409803D02*
X2047396Y409970D01*
X2046521Y410636D01*
X2045770Y411636D01*
X2045270Y412803D01*
X2045020Y414137D01*
Y415470D01*
X2045270Y416803D01*
X2045770Y417970D01*
X2046521Y418970D01*
X2047396Y419637D01*
X2048396Y419803D01*
X2049396Y419637D01*
X2050270Y418970D01*
X2051021Y417970D01*
X2051521Y416803D01*
X2051771Y415470D01*
Y414137D01*
X2051521Y412803D01*
X2051021Y411636D01*
X2050270Y410636D01*
X2049396Y409970D01*
X2048396Y409803D01*
G01X2044646Y1304803D02*
Y1274803D01*
G01Y1294803D02*
Y1334803D01*
G01D02*
Y1364803D01*
G01X2064646Y354803D02*
Y384803D01*
X2234646D01*
G01X2075770Y371136D02*
X2076771Y370303D01*
X2077896Y369803D01*
X2078896D01*
X2079896Y370303D01*
X2080646Y371136D01*
X2081021Y372303D01*
X2080771Y373470D01*
X2080146Y374470D01*
X2079020Y375137D01*
X2077521Y375470D01*
X2076646Y376136D01*
X2076270Y377303D01*
X2076521Y378470D01*
X2077146Y379303D01*
X2078020Y379803D01*
X2078896D01*
X2079771Y379470D01*
X2080521Y378637D01*
G01X2085770Y369803D02*
Y379803D01*
G01X2091021D02*
Y369803D01*
G01Y374803D02*
X2085770D01*
G01X2100896Y369803D02*
X2095896D01*
Y379803D01*
X2100896D01*
G01X2098896Y374970D02*
X2095896D01*
G01X2110896Y369803D02*
X2105896D01*
Y379803D01*
X2110896D01*
G01X2108896Y374970D02*
X2105896D01*
G01X2118396Y379803D02*
Y369803D01*
G01X2115521Y379803D02*
X2121270D01*
G01X2070646Y1344803D02*
Y1354803D01*
X2073146D01*
X2074146Y1354303D01*
X2074896Y1353637D01*
X2075521Y1352637D01*
X2076021Y1351470D01*
X2076146Y1349803D01*
X2076021Y1348136D01*
X2075521Y1346970D01*
X2074896Y1345970D01*
X2074146Y1345303D01*
X2073146Y1344803D01*
X2070646D01*
G01X2080270D02*
X2083396Y1354803D01*
X2086521Y1344803D01*
G01X2085396Y1348303D02*
X2081396D01*
G01X2093396Y1354803D02*
Y1344803D01*
G01X2090521Y1354803D02*
X2096270D01*
G01X2105896Y1344803D02*
X2100896D01*
Y1354803D01*
X2105896D01*
G01X2103896Y1349970D02*
X2100896D01*
G01X2134646Y1304803D02*
Y1274803D01*
G01Y1304803D02*
Y1334803D01*
G01D02*
Y1364803D01*
G01X2145270Y1344803D02*
X2148396Y1354803D01*
X2151521Y1344803D01*
G01X2150396Y1348303D02*
X2146396D01*
G01X2155896Y1344803D02*
Y1354803D01*
X2158896D01*
X2159896Y1354303D01*
X2160646Y1353137D01*
X2160896Y1351803D01*
X2160646Y1350470D01*
X2160020Y1349470D01*
X2158896Y1348970D01*
X2155896D01*
G01X2165896Y1344803D02*
Y1354803D01*
X2168896D01*
X2169896Y1354303D01*
X2170646Y1353137D01*
X2170896Y1351803D01*
X2170646Y1350470D01*
X2170020Y1349470D01*
X2168896Y1348970D01*
X2165896D01*
G01X2175896Y1344803D02*
Y1354803D01*
X2179020D01*
X2180020Y1354303D01*
X2180646Y1353637D01*
X2180896Y1352303D01*
X2180646Y1350970D01*
X2179896Y1350137D01*
X2179020Y1349636D01*
X2175896D01*
G01X2179020D02*
X2180896Y1344803D01*
G01X2188396D02*
X2187396Y1344970D01*
X2186521Y1345636D01*
X2185770Y1346636D01*
X2185270Y1347803D01*
X2185020Y1349137D01*
Y1350470D01*
X2185270Y1351803D01*
X2185770Y1352970D01*
X2186521Y1353970D01*
X2187396Y1354637D01*
X2188396Y1354803D01*
X2189396Y1354637D01*
X2190270Y1353970D01*
X2191021Y1352970D01*
X2191521Y1351803D01*
X2191771Y1350470D01*
Y1349137D01*
X2191521Y1347803D01*
X2191021Y1346636D01*
X2190270Y1345636D01*
X2189396Y1344970D01*
X2188396Y1344803D01*
G01X2195270Y1354803D02*
X2198396Y1344803D01*
X2201521Y1354803D01*
G01X2210896Y1344803D02*
X2205896D01*
Y1354803D01*
X2210896D01*
G01X2208896Y1349970D02*
X2205896D01*
G01X2215646Y1344803D02*
Y1354803D01*
X2218146D01*
X2219146Y1354303D01*
X2219896Y1353637D01*
X2220521Y1352637D01*
X2221021Y1351470D01*
X2221146Y1349803D01*
X2221021Y1348136D01*
X2220521Y1346970D01*
X2219896Y1345970D01*
X2219146Y1345303D01*
X2218146Y1344803D01*
X2215646D01*
G01X2234646Y1394803D02*
Y1274803D01*
G54D11*
G01X793720Y600413D02*
Y609862D01*
G01Y651594D02*
Y661043D01*
G01Y702776D02*
Y712224D01*
G01X788937Y758720D02*
Y860098D01*
G01X825551Y758720D02*
X788937D01*
G01Y860098D02*
X813228D01*
G01X802776Y591358D02*
X812224D01*
G01Y618917D02*
X802776D01*
G01Y642539D02*
X812224D01*
G01Y670098D02*
X802776D01*
G01Y693720D02*
X812224D01*
G01Y721280D02*
X802776D01*
G01X821280Y600413D02*
Y609862D01*
G01Y651594D02*
Y661043D01*
G01X833720Y702776D02*
Y712224D01*
G01X821280Y702776D02*
Y712224D01*
G01X825551Y840098D02*
Y758720D01*
G01X842776Y693720D02*
X852224D01*
G01Y721280D02*
X842776D01*
G01X861280Y702776D02*
Y712224D01*
G01X871732Y873937D02*
G03I-394J0D01*
G01X875984Y956693D02*
X1061024D01*
Y887795D01*
X874016D01*
Y954724D01*
G01X875984Y956693D02*
X874016D01*
Y954724D01*
G01X948583Y951673D02*
Y934154D01*
X886063D01*
Y951673D01*
X948583D01*
G01X883996Y942913D02*
G03I-394J0D01*
G01X918976Y775512D02*
G03I-394J0D01*
G01D02*
G03I-394J0D01*
G01X907874Y854331D02*
G03I-394J0D01*
G01X947854Y715827D02*
G03I-394J0D01*
G01X950472Y801102D02*
G03I-394J0D01*
G01X991004Y951673D02*
Y934154D01*
X1052303D01*
Y951673D01*
X991004D01*
G01X1040354Y658327D02*
G03I-394J0D01*
G01X1055256Y942913D02*
G03I-394J0D01*
G01X1072854Y630827D02*
G03I-394J0D01*
G01X1103209Y951673D02*
Y934154D01*
X1164508D01*
Y951673D01*
X1103209D01*
G01X1167461Y942913D02*
G03I-394J0D01*
G01X1232776Y923130D02*
X1242224D01*
G01X1223720Y932185D02*
Y941634D01*
G01X1242224Y950689D02*
X1232776D01*
G01X1243346Y638681D02*
Y621161D01*
X1304646D01*
Y638681D01*
X1243346D01*
G01X1304646Y652657D02*
Y670177D01*
X1258346D01*
Y652657D01*
X1304646D01*
G01X1256181Y661417D02*
G03I-394J0D01*
G01X1253150Y696850D02*
X1262598D01*
G01X1244094Y705906D02*
Y715354D01*
G01X1262598Y724409D02*
X1253150D01*
G01X1241181Y753937D02*
G03I-394J0D01*
G01X1304646Y745177D02*
Y762697D01*
X1243346D01*
Y745177D01*
X1304646D01*
G01Y774705D02*
Y792224D01*
X1258346D01*
Y774705D01*
X1304646D01*
G01X1256181Y783465D02*
G03I-394J0D01*
G01X1251280Y932185D02*
Y941634D01*
G01X1271654Y705906D02*
Y715354D01*
G01X1296299Y681102D02*
G03I-394J0D01*
G01D02*
G03I-394J0D01*
G01X1287126Y683543D02*
X1304646D01*
Y729843D01*
X1287126D01*
Y683543D01*
G01X1296280Y732402D02*
G03I-394J0D01*
G01X1283740Y841850D02*
X1301260D01*
Y903150D01*
X1283740D01*
Y841850D01*
G01X1292894Y905709D02*
G03I-394J0D01*
G01X1307598Y629921D02*
G03I-394J0D01*
G01X1308110Y783465D02*
G03I-394J0D01*
G54D12*
G01X835098Y891043D02*
G03I-787J0D01*
G54D13*
G01X873012Y753307D02*
X861988D01*
G01X873012Y766693D02*
X861988D01*
G54D14*
G01X879422Y763839D02*
G02I-492J0D01*
G54D15*
G01X803996Y903602D02*
X790610D01*
Y939035D01*
X803996D01*
G01X825000Y880000D02*
G03I-5000J0D01*
G01X828012Y903602D02*
X816594D01*
G01Y939035D02*
X828012D01*
G01X850177Y758937D02*
Y760669D01*
G01X855689Y758937D02*
Y760669D01*
G01X840610Y939035D02*
X848878D01*
Y926437D01*
X846713D01*
Y912854D01*
X844744D01*
Y903602D01*
X840610D01*
G01X877500Y732500D02*
G03I-5000J0D01*
G01X868366Y745433D02*
X866634D01*
G01X868366Y750945D02*
X866634D01*
G01X893460Y763937D02*
Y765669D01*
G01X898972Y763937D02*
Y765669D01*
G01X896732Y868110D02*
G03I-5000J0D01*
G01X922500Y710000D02*
G03I-5000J0D01*
G01X910866Y746496D02*
X909134D01*
G01X910866Y752008D02*
X909134D01*
G01X913858Y852559D02*
X920787D01*
G01X913858Y863976D02*
X920787D01*
G01X944035Y721142D02*
X943642D01*
Y738858D01*
X947323D01*
G01X957677D02*
X961358D01*
Y721142D01*
X960965D01*
G01X959035Y802992D02*
Y801260D01*
G01X953524Y802992D02*
Y801260D01*
G01X961693Y836614D02*
G03I-5000J0D01*
G01X969213Y755394D02*
Y764606D01*
X960787D01*
Y755394D01*
X969213D01*
G01X1036535Y663642D02*
X1036142D01*
Y681358D01*
X1039823D01*
G01X1049488Y635157D02*
Y644370D01*
X1041063D01*
Y635157D01*
X1049488D01*
G01X1050177Y681358D02*
X1053858D01*
Y663642D01*
X1053465D01*
G01X1084921Y585945D02*
Y595157D01*
X1076496D01*
Y585945D01*
X1084921D01*
G01X1069035Y636142D02*
X1068642D01*
Y653858D01*
X1072323D01*
G01X1082677D02*
X1086358D01*
Y636142D01*
X1085965D01*
G01X1139213Y805394D02*
Y814606D01*
X1130787D01*
Y805394D01*
X1139213D01*
G01X1187815Y642421D02*
X1227185D01*
Y632579D01*
X1187815D01*
Y642421D01*
G01X1216713Y712894D02*
Y722106D01*
X1208287D01*
Y712894D01*
X1216713D01*
G01X1239213Y540394D02*
Y549606D01*
X1230787D01*
Y540394D01*
X1239213D01*
G54D16*
G01X868350Y852150D02*
X851650D01*
G01Y872850D02*
X868350D01*
G01X913950Y758600D02*
X906050D01*
G01Y771400D02*
X913950D01*
G01X906050Y763570D02*
Y766430D01*
G01X935900Y803400D02*
Y816600D01*
G01X949100D02*
Y803400D01*
M02*
