G04 ================== begin FILE IDENTIFICATION RECORD ==================*
G04 Layout Name:  E:/Projects/PCB/FSCV Board/PCB Editor/FSCV_V5.brd*
G04 Film Name:    2_SILKSCREEN_TOP*
G04 File Format:  Gerber RS274X*
G04 File Origin:  Cadence Allegro 17.4-S037*
G04 Origin Date:  Fri Sep  8 15:29:53 2023*
G04 *
G04 Layer:  REF DES/SILKSCREEN_TOP*
G04 Layer:  PACKAGE GEOMETRY/SILKSCREEN_TOP*
G04 Layer:  DRAWING FORMAT/TITLE_DATA*
G04 Layer:  DRAWING FORMAT/TITLE_BLOCK*
G04 Layer:  DRAWING FORMAT/REVISION_DATA*
G04 Layer:  DRAWING FORMAT/REVISION_BLOCK*
G04 Layer:  DRAWING FORMAT/OUTLINE*
G04 Layer:  DRAWING FORMAT/DRAWING_ORIGIN*
G04 Layer:  DEVICE TYPE/SILKSCREEN_TOP*
G04 Layer:  COMPONENT VALUE/SILKSCREEN_TOP*
G04 Layer:  BOARD GEOMETRY/SILKSCREEN_TOP*
G04 Layer:  BOARD GEOMETRY/DESIGN_OUTLINE*
G04 *
G04 Offset:    (0.0000 0.0000)*
G04 Mirror:    No*
G04 Mode:      Positive*
G04 Rotation:  0*
G04 FullContactRelief:  No*
G04 UndefLineWidth:     0.1000*
G04 ================== end FILE IDENTIFICATION RECORD ====================*
%FSLAX25Y25*MOIN*%
%IR0*IPPOS*OFA0.00000B0.00000*MIA0B0*SFA1.00000B1.00000*%
%AMMACRO10*
1,1,.003937,.025,0.0*
20,1,.003937,.025,0.0,-.025,0.0,0.0*
1,1,.003937,-.025,0.0*
1,1,.003937,0.0,.025*
20,1,.003937,0.0,.025,0.0,-.025,0.0*
1,1,.003937,0.0,-.025*
%
%ADD10MACRO10*%
%ADD11C,.003937*%
%ADD12C,.007874*%
%ADD13C,.005*%
%ADD14C,.006*%
G75*
%LPD*%
G75*
G54D10*
X0Y0D03*
G54D11*
G01X857454Y604730D02*
X857257Y604455D01*
X857126Y604133D01*
Y603766D01*
X857323Y603352D01*
X857651Y603031D01*
X858044Y602801D01*
X858701Y602617D01*
X859291Y602571D01*
X859882Y602663D01*
X860276Y602801D01*
X860669Y603077D01*
X860932Y603398D01*
X861063Y603720D01*
Y604041D01*
X860932Y604363D01*
X860735Y604638D01*
X860472Y604868D01*
G01X861063Y607776D02*
X860997Y608097D01*
X860800Y608465D01*
X860472Y608694D01*
X860013Y608786D01*
X859554Y608694D01*
X859160Y608419D01*
X858963Y608005D01*
Y607546D01*
X858832Y607270D01*
X858504Y607041D01*
X858044Y606949D01*
X857585Y607087D01*
X857257Y607408D01*
X857126Y607776D01*
X857257Y608143D01*
X857585Y608465D01*
X858044Y608602D01*
X858504Y608511D01*
X858832Y608281D01*
X858963Y608005D01*
Y607546D01*
X859160Y607133D01*
X859554Y606857D01*
X860013Y606765D01*
X860472Y606857D01*
X860800Y607087D01*
X860997Y607454D01*
X861063Y607776D01*
G01X860472Y610821D02*
X860800Y611096D01*
X860997Y611418D01*
X861063Y611831D01*
X860932Y612245D01*
X860669Y612567D01*
X860210Y612796D01*
X859685Y612842D01*
X859160Y612750D01*
X858832Y612520D01*
X858570Y612199D01*
X858504Y611878D01*
X858570Y611556D01*
X858832Y611143D01*
X857126Y611280D01*
Y612520D01*
G01X861877Y853380D02*
X862074Y853655D01*
X862205Y853977D01*
Y854344D01*
X862008Y854757D01*
X861680Y855079D01*
X861286Y855309D01*
X860630Y855493D01*
X860039Y855539D01*
X859449Y855446D01*
X859055Y855309D01*
X858661Y855033D01*
X858399Y854712D01*
X858268Y854390D01*
Y854069D01*
X858399Y853747D01*
X858596Y853472D01*
X858858Y853242D01*
G01X858268Y849783D02*
X862205D01*
X859383Y851483D01*
Y849186D01*
G01X861877Y916431D02*
X862074Y916707D01*
X862205Y917028D01*
Y917396D01*
X862008Y917809D01*
X861680Y918131D01*
X861286Y918360D01*
X860630Y918544D01*
X860039Y918590D01*
X859449Y918498D01*
X859055Y918360D01*
X858661Y918085D01*
X858399Y917763D01*
X858268Y917442D01*
Y917120D01*
X858399Y916799D01*
X858596Y916523D01*
X858858Y916293D01*
G01X858727Y914167D02*
X858399Y913845D01*
X858268Y913478D01*
X858399Y913110D01*
X858793Y912789D01*
X859383Y912559D01*
X859974Y912467D01*
X860696D01*
X861286Y912559D01*
X861811Y912789D01*
X862074Y913064D01*
X862205Y913386D01*
X862074Y913753D01*
X861811Y914029D01*
X861417Y914213D01*
X860892Y914304D01*
X860433Y914213D01*
X859974Y913983D01*
X859711Y913707D01*
X859646Y913386D01*
X859777Y913019D01*
X860105Y912743D01*
X860696Y912467D01*
G01X858268Y909330D02*
X862205D01*
X861417Y909881D01*
G01X858268D02*
Y908779D01*
G01X878320Y620079D02*
Y617257D01*
X878504Y616667D01*
X878871Y616273D01*
X879331Y616142D01*
X879790Y616273D01*
X880157Y616667D01*
X880341Y617257D01*
Y620079D01*
G01X882606Y616601D02*
X882927Y616273D01*
X883295Y616142D01*
X883662Y616273D01*
X883984Y616667D01*
X884213Y617257D01*
X884305Y617848D01*
Y618570D01*
X884213Y619160D01*
X883984Y619685D01*
X883708Y619948D01*
X883387Y620079D01*
X883019Y619948D01*
X882744Y619685D01*
X882560Y619291D01*
X882468Y618766D01*
X882560Y618307D01*
X882789Y617848D01*
X883065Y617585D01*
X883387Y617520D01*
X883754Y617651D01*
X884030Y617979D01*
X884305Y618570D01*
G01X866142Y855840D02*
X870079D01*
Y854692D01*
X869882Y854324D01*
X869619Y854094D01*
X869094Y854003D01*
X868570Y854094D01*
X868241Y854370D01*
X868044Y854692D01*
Y855840D01*
G01Y854692D02*
X866142Y854003D01*
G01Y850957D02*
X866995Y850865D01*
X867717Y850728D01*
X868373Y850544D01*
X869094Y850314D01*
X870079Y849947D01*
Y851784D01*
G01X892624Y641404D02*
X892348Y641601D01*
X892027Y641732D01*
X891659D01*
X891246Y641535D01*
X890924Y641207D01*
X890695Y640814D01*
X890511Y640157D01*
X890465Y639567D01*
X890557Y638976D01*
X890695Y638583D01*
X890970Y638189D01*
X891292Y637926D01*
X891613Y637795D01*
X891935D01*
X892256Y637926D01*
X892532Y638123D01*
X892762Y638386D01*
G01X894796Y639435D02*
X895118Y639895D01*
X895394Y640157D01*
X895761Y640289D01*
X896083Y640157D01*
X896312Y639895D01*
X896496Y639501D01*
X896542Y639042D01*
X896496Y638648D01*
X896312Y638254D01*
X896037Y637926D01*
X895715Y637795D01*
X895348Y637926D01*
X895026Y638320D01*
X894843Y638911D01*
X894796Y639567D01*
X894889Y640420D01*
X895026Y640879D01*
X895256Y641339D01*
X895578Y641667D01*
X895899Y641732D01*
X896220Y641601D01*
X896450Y641273D01*
G01X898715Y638386D02*
X898990Y638058D01*
X899312Y637861D01*
X899725Y637795D01*
X900139Y637926D01*
X900460Y638189D01*
X900690Y638648D01*
X900736Y639173D01*
X900644Y639698D01*
X900414Y640026D01*
X900093Y640289D01*
X899771Y640354D01*
X899450Y640289D01*
X899036Y640026D01*
X899174Y641732D01*
X900414D01*
G01X892624Y678806D02*
X892348Y679003D01*
X892027Y679134D01*
X891659D01*
X891246Y678937D01*
X890924Y678609D01*
X890695Y678215D01*
X890511Y677559D01*
X890465Y676969D01*
X890557Y676378D01*
X890695Y675984D01*
X890970Y675591D01*
X891292Y675328D01*
X891613Y675197D01*
X891935D01*
X892256Y675328D01*
X892532Y675525D01*
X892762Y675787D01*
G01X894659Y675984D02*
X894934Y675525D01*
X895302Y675263D01*
X895715Y675197D01*
X896083Y675263D01*
X896450Y675591D01*
X896680Y675984D01*
X896726Y676378D01*
X896634Y676837D01*
X896312Y677165D01*
X895991Y677296D01*
X895578D01*
G01X895991D02*
X896267Y677493D01*
X896496Y677821D01*
X896588Y678215D01*
X896496Y678609D01*
X896267Y678937D01*
X895853Y679134D01*
X895440Y679068D01*
X895026Y678806D01*
G01X898715Y675787D02*
X898990Y675459D01*
X899312Y675263D01*
X899725Y675197D01*
X900139Y675328D01*
X900460Y675591D01*
X900690Y676050D01*
X900736Y676575D01*
X900644Y677100D01*
X900414Y677428D01*
X900093Y677690D01*
X899771Y677756D01*
X899450Y677690D01*
X899036Y677428D01*
X899174Y679134D01*
X900414D01*
G01X896746Y661745D02*
X897022Y661548D01*
X897343Y661417D01*
X897711D01*
X898124Y661614D01*
X898446Y661942D01*
X898675Y662336D01*
X898859Y662992D01*
X898905Y663583D01*
X898813Y664173D01*
X898675Y664567D01*
X898400Y664961D01*
X898078Y665223D01*
X897757Y665354D01*
X897435D01*
X897114Y665223D01*
X896838Y665026D01*
X896608Y664764D01*
G01X894574Y663714D02*
X894252Y663255D01*
X893976Y662992D01*
X893609Y662861D01*
X893287Y662992D01*
X893058Y663255D01*
X892874Y663648D01*
X892828Y664107D01*
X892874Y664501D01*
X893058Y664895D01*
X893333Y665223D01*
X893655Y665354D01*
X894022Y665223D01*
X894344Y664830D01*
X894528Y664239D01*
X894574Y663583D01*
X894481Y662730D01*
X894344Y662270D01*
X894114Y661811D01*
X893793Y661483D01*
X893471Y661417D01*
X893150Y661548D01*
X892920Y661877D01*
G01X889094Y665354D02*
Y661417D01*
X890793Y664239D01*
X888496D01*
G01X896746Y699147D02*
X897022Y698950D01*
X897343Y698819D01*
X897711D01*
X898124Y699016D01*
X898446Y699344D01*
X898675Y699737D01*
X898859Y700394D01*
X898905Y700984D01*
X898813Y701575D01*
X898675Y701969D01*
X898400Y702362D01*
X898078Y702625D01*
X897757Y702756D01*
X897435D01*
X897114Y702625D01*
X896838Y702428D01*
X896608Y702165D01*
G01X894711Y701969D02*
X894436Y702428D01*
X894068Y702690D01*
X893655Y702756D01*
X893287Y702690D01*
X892920Y702362D01*
X892690Y701969D01*
X892644Y701575D01*
X892736Y701116D01*
X893058Y700787D01*
X893379Y700656D01*
X893793D01*
G01X893379D02*
X893104Y700459D01*
X892874Y700131D01*
X892782Y699737D01*
X892874Y699344D01*
X893104Y699016D01*
X893517Y698819D01*
X893930Y698885D01*
X894344Y699147D01*
G01X889094Y702756D02*
Y698819D01*
X890793Y701641D01*
X888496D01*
G01X892624Y716207D02*
X892348Y716404D01*
X892027Y716535D01*
X891659D01*
X891246Y716339D01*
X890924Y716011D01*
X890695Y715617D01*
X890511Y714961D01*
X890465Y714370D01*
X890557Y713780D01*
X890695Y713386D01*
X890970Y712992D01*
X891292Y712730D01*
X891613Y712598D01*
X891935D01*
X892256Y712730D01*
X892532Y712926D01*
X892762Y713189D01*
G01X894796Y714239D02*
X895118Y714698D01*
X895394Y714961D01*
X895761Y715092D01*
X896083Y714961D01*
X896312Y714698D01*
X896496Y714304D01*
X896542Y713845D01*
X896496Y713452D01*
X896312Y713057D01*
X896037Y712730D01*
X895715Y712598D01*
X895348Y712730D01*
X895026Y713123D01*
X894843Y713714D01*
X894796Y714370D01*
X894889Y715223D01*
X895026Y715682D01*
X895256Y716142D01*
X895578Y716470D01*
X895899Y716535D01*
X896220Y716404D01*
X896450Y716076D01*
G01X898715Y713386D02*
X898990Y712926D01*
X899358Y712664D01*
X899771Y712598D01*
X900139Y712664D01*
X900506Y712992D01*
X900736Y713386D01*
X900781Y713780D01*
X900690Y714239D01*
X900368Y714567D01*
X900047Y714698D01*
X899633D01*
G01X900047D02*
X900322Y714895D01*
X900552Y715223D01*
X900644Y715617D01*
X900552Y716011D01*
X900322Y716339D01*
X899909Y716535D01*
X899496Y716470D01*
X899082Y716207D01*
G01X896746Y736548D02*
X897022Y736352D01*
X897343Y736220D01*
X897711D01*
X898124Y736417D01*
X898446Y736745D01*
X898675Y737139D01*
X898859Y737795D01*
X898905Y738386D01*
X898813Y738976D01*
X898675Y739370D01*
X898400Y739764D01*
X898078Y740026D01*
X897757Y740157D01*
X897435D01*
X897114Y740026D01*
X896838Y739830D01*
X896608Y739567D01*
G01X894574Y738517D02*
X894252Y738058D01*
X893976Y737795D01*
X893609Y737664D01*
X893287Y737795D01*
X893058Y738058D01*
X892874Y738452D01*
X892828Y738911D01*
X892874Y739304D01*
X893058Y739698D01*
X893333Y740026D01*
X893655Y740157D01*
X894022Y740026D01*
X894344Y739633D01*
X894528Y739042D01*
X894574Y738386D01*
X894481Y737533D01*
X894344Y737074D01*
X894114Y736614D01*
X893793Y736286D01*
X893471Y736220D01*
X893150Y736352D01*
X892920Y736680D01*
G01X890518Y736877D02*
X890242Y736483D01*
X889920Y736286D01*
X889553Y736220D01*
X889094Y736352D01*
X888772Y736680D01*
X888680Y737074D01*
X888726Y737467D01*
X888910Y737795D01*
X889829Y738452D01*
X890242Y738911D01*
X890518Y739567D01*
X890609Y740157D01*
X888680D01*
G01X898774Y834816D02*
X899050Y834619D01*
X899371Y834488D01*
X899739D01*
X900152Y834685D01*
X900474Y835013D01*
X900703Y835407D01*
X900887Y836063D01*
X900933Y836654D01*
X900841Y837244D01*
X900703Y837638D01*
X900428Y838031D01*
X900106Y838294D01*
X899785Y838425D01*
X899463D01*
X899142Y838294D01*
X898866Y838097D01*
X898636Y837835D01*
G01X895729Y838425D02*
Y834488D01*
X896280Y835276D01*
G01Y838425D02*
X895178D01*
G01X891673Y834488D02*
X892040Y834619D01*
X892316Y834948D01*
X892500Y835341D01*
X892637Y835866D01*
X892683Y836457D01*
X892637Y837047D01*
X892500Y837572D01*
X892316Y837966D01*
X892040Y838294D01*
X891673Y838425D01*
X891306Y838294D01*
X891030Y837966D01*
X890846Y837572D01*
X890708Y837047D01*
X890662Y836457D01*
X890708Y835866D01*
X890846Y835341D01*
X891030Y834948D01*
X891306Y834619D01*
X891673Y834488D01*
G01X888628Y837835D02*
X888352Y838163D01*
X888030Y838359D01*
X887617Y838425D01*
X887204Y838294D01*
X886882Y838031D01*
X886652Y837572D01*
X886606Y837047D01*
X886698Y836522D01*
X886928Y836194D01*
X887250Y835932D01*
X887571Y835866D01*
X887893Y835932D01*
X888306Y836194D01*
X888168Y834488D01*
X886928D01*
G01X898774Y844974D02*
X899050Y844777D01*
X899371Y844646D01*
X899739D01*
X900152Y844843D01*
X900474Y845170D01*
X900703Y845564D01*
X900887Y846220D01*
X900933Y846811D01*
X900841Y847402D01*
X900703Y847795D01*
X900428Y848189D01*
X900106Y848452D01*
X899785Y848583D01*
X899463D01*
X899142Y848452D01*
X898866Y848255D01*
X898636Y847992D01*
G01X895729Y848583D02*
Y844646D01*
X896280Y845433D01*
G01Y848583D02*
X895178D01*
G01X891673Y844646D02*
X892040Y844777D01*
X892316Y845105D01*
X892500Y845499D01*
X892637Y846024D01*
X892683Y846614D01*
X892637Y847205D01*
X892500Y847730D01*
X892316Y848124D01*
X892040Y848452D01*
X891673Y848583D01*
X891306Y848452D01*
X891030Y848124D01*
X890846Y847730D01*
X890708Y847205D01*
X890662Y846614D01*
X890708Y846024D01*
X890846Y845499D01*
X891030Y845105D01*
X891306Y844777D01*
X891673Y844646D01*
G01X887066Y848583D02*
Y844646D01*
X888765Y847467D01*
X886469D01*
G01X885827Y899239D02*
X883005D01*
X882415Y899055D01*
X882021Y898688D01*
X881890Y898228D01*
X882021Y897769D01*
X882415Y897402D01*
X883005Y897218D01*
X885827D01*
G01X881890Y894172D02*
X885827D01*
X885039Y894724D01*
G01X881890D02*
Y893621D01*
G01Y890117D02*
X885827D01*
X885039Y890668D01*
G01X881890D02*
Y889565D01*
G01X884186Y910341D02*
X883989Y910065D01*
X883858Y909743D01*
Y909376D01*
X884055Y908963D01*
X884383Y908641D01*
X884777Y908411D01*
X885433Y908228D01*
X886024Y908181D01*
X886614Y908274D01*
X887008Y908411D01*
X887402Y908687D01*
X887664Y909008D01*
X887795Y909330D01*
Y909652D01*
X887664Y909973D01*
X887467Y910248D01*
X887205Y910478D01*
G01X887336Y912605D02*
X887664Y912926D01*
X887795Y913294D01*
X887664Y913661D01*
X887270Y913983D01*
X886680Y914213D01*
X886089Y914304D01*
X885367D01*
X884777Y914213D01*
X884252Y913983D01*
X883989Y913707D01*
X883858Y913386D01*
X883989Y913019D01*
X884252Y912743D01*
X884646Y912559D01*
X885171Y912467D01*
X885630Y912559D01*
X886089Y912789D01*
X886352Y913064D01*
X886417Y913386D01*
X886286Y913753D01*
X885958Y914029D01*
X885367Y914304D01*
G01X883858Y917442D02*
X883989Y917074D01*
X884318Y916799D01*
X884711Y916615D01*
X885236Y916477D01*
X885827Y916431D01*
X886417Y916477D01*
X886942Y916615D01*
X887336Y916799D01*
X887664Y917074D01*
X887795Y917442D01*
X887664Y917809D01*
X887336Y918085D01*
X886942Y918269D01*
X886417Y918406D01*
X885827Y918452D01*
X885236Y918406D01*
X884711Y918269D01*
X884318Y918085D01*
X883989Y917809D01*
X883858Y917442D01*
G01X895341Y916431D02*
X895538Y916707D01*
X895669Y917028D01*
Y917396D01*
X895472Y917809D01*
X895144Y918131D01*
X894751Y918360D01*
X894094Y918544D01*
X893504Y918590D01*
X892913Y918498D01*
X892520Y918360D01*
X892126Y918085D01*
X891863Y917763D01*
X891732Y917442D01*
Y917120D01*
X891863Y916799D01*
X892060Y916523D01*
X892323Y916293D01*
G01X892191Y914167D02*
X891863Y913845D01*
X891732Y913478D01*
X891863Y913110D01*
X892257Y912789D01*
X892848Y912559D01*
X893438Y912467D01*
X894160D01*
X894751Y912559D01*
X895276Y912789D01*
X895538Y913064D01*
X895669Y913386D01*
X895538Y913753D01*
X895276Y914029D01*
X894882Y914213D01*
X894357Y914304D01*
X893898Y914213D01*
X893438Y913983D01*
X893176Y913707D01*
X893110Y913386D01*
X893241Y913019D01*
X893570Y912743D01*
X894160Y912467D01*
G01X892520Y910341D02*
X892060Y910065D01*
X891798Y909697D01*
X891732Y909284D01*
X891798Y908917D01*
X892126Y908549D01*
X892520Y908319D01*
X892913Y908274D01*
X893372Y908365D01*
X893701Y908687D01*
X893832Y909008D01*
Y909422D01*
G01Y909008D02*
X894029Y908733D01*
X894357Y908503D01*
X894751Y908411D01*
X895144Y908503D01*
X895472Y908733D01*
X895669Y909146D01*
X895604Y909559D01*
X895341Y909973D01*
G01X912546Y613970D02*
X912743Y614246D01*
X912874Y614568D01*
Y614935D01*
X912677Y615348D01*
X912349Y615670D01*
X911956Y615900D01*
X911299Y616083D01*
X910709Y616130D01*
X910118Y616037D01*
X909724Y615900D01*
X909331Y615624D01*
X909068Y615303D01*
X908937Y614981D01*
Y614659D01*
X909068Y614338D01*
X909265Y614063D01*
X909528Y613833D01*
G01X908937Y610925D02*
X909003Y610604D01*
X909200Y610236D01*
X909528Y610007D01*
X909987Y609915D01*
X910446Y610007D01*
X910840Y610282D01*
X911037Y610696D01*
Y611155D01*
X911168Y611430D01*
X911496Y611660D01*
X911956Y611752D01*
X912415Y611614D01*
X912743Y611293D01*
X912874Y610925D01*
X912743Y610558D01*
X912415Y610236D01*
X911956Y610098D01*
X911496Y610190D01*
X911168Y610420D01*
X911037Y610696D01*
Y611155D01*
X910840Y611568D01*
X910446Y611844D01*
X909987Y611936D01*
X909528Y611844D01*
X909200Y611614D01*
X909003Y611247D01*
X908937Y610925D01*
G01Y606318D02*
X912874D01*
X910052Y608018D01*
Y605721D01*
G01X911785Y665354D02*
Y662533D01*
X911969Y661942D01*
X912336Y661548D01*
X912795Y661417D01*
X913255Y661548D01*
X913622Y661942D01*
X913806Y662533D01*
Y665354D01*
G01X915841Y662205D02*
X916116Y661745D01*
X916484Y661483D01*
X916897Y661417D01*
X917265Y661483D01*
X917632Y661811D01*
X917862Y662205D01*
X917907Y662598D01*
X917816Y663057D01*
X917494Y663386D01*
X917173Y663517D01*
X916759D01*
G01X917173D02*
X917448Y663714D01*
X917678Y664042D01*
X917770Y664436D01*
X917678Y664830D01*
X917448Y665157D01*
X917035Y665354D01*
X916622Y665289D01*
X916208Y665026D01*
G01X919896Y662008D02*
X920172Y661680D01*
X920494Y661483D01*
X920907Y661417D01*
X921320Y661548D01*
X921642Y661811D01*
X921872Y662270D01*
X921918Y662795D01*
X921826Y663320D01*
X921596Y663648D01*
X921274Y663911D01*
X920953Y663976D01*
X920631Y663911D01*
X920218Y663648D01*
X920356Y665354D01*
X921596D01*
G01X911785Y702756D02*
Y699934D01*
X911969Y699344D01*
X912336Y698950D01*
X912795Y698819D01*
X913255Y698950D01*
X913622Y699344D01*
X913806Y699934D01*
Y702756D01*
G01X915978Y702100D02*
X916254Y702493D01*
X916576Y702690D01*
X916943Y702756D01*
X917402Y702625D01*
X917724Y702296D01*
X917816Y701903D01*
X917770Y701509D01*
X917586Y701181D01*
X916667Y700525D01*
X916254Y700066D01*
X915978Y699409D01*
X915887Y698819D01*
X917816D01*
G01X919896Y699409D02*
X920172Y699081D01*
X920494Y698885D01*
X920907Y698819D01*
X921320Y698950D01*
X921642Y699213D01*
X921872Y699672D01*
X921918Y700197D01*
X921826Y700722D01*
X921596Y701050D01*
X921274Y701312D01*
X920953Y701378D01*
X920631Y701312D01*
X920218Y701050D01*
X920356Y702756D01*
X921596D01*
G01X909816Y740157D02*
Y737336D01*
X910000Y736745D01*
X910367Y736352D01*
X910827Y736220D01*
X911286Y736352D01*
X911654Y736745D01*
X911837Y737336D01*
Y740157D01*
G01X913872Y737008D02*
X914148Y736548D01*
X914515Y736286D01*
X914929Y736220D01*
X915296Y736286D01*
X915663Y736614D01*
X915893Y737008D01*
X915939Y737402D01*
X915847Y737861D01*
X915526Y738189D01*
X915204Y738320D01*
X914791D01*
G01X915204D02*
X915480Y738517D01*
X915709Y738845D01*
X915801Y739239D01*
X915709Y739633D01*
X915480Y739961D01*
X915067Y740157D01*
X914653Y740092D01*
X914240Y739830D01*
G01X919490Y736220D02*
Y740157D01*
X917790Y737336D01*
X920087D01*
G01X914337Y791011D02*
X914061Y791207D01*
X913740Y791339D01*
X913372D01*
X912959Y791142D01*
X912637Y790814D01*
X912408Y790420D01*
X912224Y789764D01*
X912178Y789173D01*
X912270Y788583D01*
X912408Y788189D01*
X912683Y787795D01*
X913005Y787533D01*
X913326Y787402D01*
X913648D01*
X913969Y787533D01*
X914245Y787730D01*
X914475Y787992D01*
G01X917382Y787402D02*
X917704Y787467D01*
X918071Y787664D01*
X918301Y787992D01*
X918393Y788452D01*
X918301Y788911D01*
X918025Y789304D01*
X917612Y789501D01*
X917153D01*
X916877Y789633D01*
X916647Y789961D01*
X916556Y790420D01*
X916693Y790879D01*
X917015Y791207D01*
X917382Y791339D01*
X917750Y791207D01*
X918071Y790879D01*
X918209Y790420D01*
X918117Y789961D01*
X917887Y789633D01*
X917612Y789501D01*
X917153D01*
X916739Y789304D01*
X916464Y788911D01*
X916372Y788452D01*
X916464Y787992D01*
X916693Y787664D01*
X917061Y787467D01*
X917382Y787402D01*
G01X921260Y814547D02*
X925197Y812618D01*
G01Y814547D02*
X921260Y812618D01*
G01Y809527D02*
X925197D01*
X924409Y810078D01*
G01X921260D02*
Y808976D01*
G01X913057Y833038D02*
X912782Y833235D01*
X912460Y833366D01*
X912093D01*
X911680Y833169D01*
X911358Y832841D01*
X911128Y832448D01*
X910944Y831791D01*
X910898Y831201D01*
X910991Y830610D01*
X911128Y830217D01*
X911404Y829823D01*
X911725Y829560D01*
X912047Y829429D01*
X912369D01*
X912690Y829560D01*
X912965Y829757D01*
X913195Y830020D01*
G01X916011Y829429D02*
X916103Y830282D01*
X916241Y831004D01*
X916424Y831660D01*
X916654Y832382D01*
X917021Y833366D01*
X915184D01*
G01X919291Y897270D02*
X916470D01*
X915879Y897087D01*
X915485Y896719D01*
X915354Y896260D01*
X915485Y895800D01*
X915879Y895433D01*
X916470Y895249D01*
X919291D01*
G01X915354Y892204D02*
X919291D01*
X918504Y892755D01*
G01X915354D02*
Y891653D01*
G01X918635Y889021D02*
X919029Y888745D01*
X919226Y888424D01*
X919291Y888056D01*
X919160Y887597D01*
X918832Y887275D01*
X918438Y887183D01*
X918044Y887230D01*
X917717Y887413D01*
X917060Y888332D01*
X916601Y888745D01*
X915945Y889021D01*
X915354Y889113D01*
Y887183D01*
G01X915682Y910341D02*
X915485Y910065D01*
X915354Y909743D01*
Y909376D01*
X915551Y908963D01*
X915879Y908641D01*
X916273Y908411D01*
X916929Y908228D01*
X917520Y908181D01*
X918110Y908274D01*
X918504Y908411D01*
X918898Y908687D01*
X919160Y909008D01*
X919291Y909330D01*
Y909652D01*
X919160Y909973D01*
X918963Y910248D01*
X918701Y910478D01*
G01X918832Y912605D02*
X919160Y912926D01*
X919291Y913294D01*
X919160Y913661D01*
X918767Y913983D01*
X918176Y914213D01*
X917585Y914304D01*
X916863D01*
X916273Y914213D01*
X915748Y913983D01*
X915485Y913707D01*
X915354Y913386D01*
X915485Y913019D01*
X915748Y912743D01*
X916142Y912559D01*
X916667Y912467D01*
X917126Y912559D01*
X917585Y912789D01*
X917848Y913064D01*
X917913Y913386D01*
X917782Y913753D01*
X917454Y914029D01*
X916863Y914304D01*
G01X916011Y916569D02*
X915617Y916844D01*
X915420Y917166D01*
X915354Y917533D01*
X915485Y917993D01*
X915814Y918315D01*
X916207Y918406D01*
X916601Y918360D01*
X916929Y918177D01*
X917585Y917258D01*
X918044Y916844D01*
X918701Y916569D01*
X919291Y916477D01*
Y918406D01*
G01X935931Y602034D02*
X935656Y602231D01*
X935334Y602362D01*
X934967D01*
X934553Y602165D01*
X934231Y601837D01*
X934002Y601444D01*
X933818Y600787D01*
X933772Y600197D01*
X933864Y599606D01*
X934002Y599213D01*
X934278Y598819D01*
X934599Y598556D01*
X934920Y598425D01*
X935242D01*
X935563Y598556D01*
X935839Y598753D01*
X936069Y599016D01*
G01X937966D02*
X938241Y598688D01*
X938563Y598491D01*
X938976Y598425D01*
X939390Y598556D01*
X939711Y598819D01*
X939941Y599278D01*
X939987Y599803D01*
X939895Y600328D01*
X939665Y600656D01*
X939344Y600919D01*
X939022Y600984D01*
X938701Y600919D01*
X938287Y600656D01*
X938425Y602362D01*
X939665D01*
G01X942941Y598425D02*
X943032Y599278D01*
X943170Y600000D01*
X943354Y600656D01*
X943583Y601378D01*
X943951Y602362D01*
X942114D01*
G01X935931Y639436D02*
X935656Y639633D01*
X935334Y639764D01*
X934967D01*
X934553Y639567D01*
X934231Y639239D01*
X934002Y638845D01*
X933818Y638189D01*
X933772Y637598D01*
X933864Y637008D01*
X934002Y636614D01*
X934278Y636220D01*
X934599Y635958D01*
X934920Y635827D01*
X935242D01*
X935563Y635958D01*
X935839Y636155D01*
X936069Y636417D01*
G01X938104Y639107D02*
X938379Y639501D01*
X938701Y639698D01*
X939068Y639764D01*
X939528Y639633D01*
X939849Y639304D01*
X939941Y638911D01*
X939895Y638517D01*
X939711Y638189D01*
X938793Y637533D01*
X938379Y637074D01*
X938104Y636417D01*
X938012Y635827D01*
X939941D01*
G01X943032Y639764D02*
X942665Y639633D01*
X942389Y639304D01*
X942206Y638911D01*
X942068Y638386D01*
X942022Y637795D01*
X942068Y637205D01*
X942206Y636680D01*
X942389Y636286D01*
X942665Y635958D01*
X943032Y635827D01*
X943400Y635958D01*
X943675Y636286D01*
X943859Y636680D01*
X943997Y637205D01*
X944043Y637795D01*
X943997Y638386D01*
X943859Y638911D01*
X943675Y639304D01*
X943400Y639633D01*
X943032Y639764D01*
G01X940053Y624344D02*
X940329Y624147D01*
X940650Y624016D01*
X941018D01*
X941431Y624213D01*
X941753Y624541D01*
X941982Y624934D01*
X942166Y625591D01*
X942212Y626181D01*
X942120Y626772D01*
X941982Y627165D01*
X941707Y627559D01*
X941385Y627822D01*
X941064Y627953D01*
X940742D01*
X940421Y627822D01*
X940145Y627625D01*
X939915Y627362D01*
G01X938019D02*
X937743Y627690D01*
X937421Y627887D01*
X937008Y627953D01*
X936594Y627822D01*
X936273Y627559D01*
X936043Y627100D01*
X935997Y626575D01*
X936089Y626050D01*
X936319Y625722D01*
X936641Y625459D01*
X936962Y625394D01*
X937283Y625459D01*
X937697Y625722D01*
X937559Y624016D01*
X936319D01*
G01X933825Y626313D02*
X933503Y625853D01*
X933228Y625591D01*
X932860Y625459D01*
X932539Y625591D01*
X932309Y625853D01*
X932125Y626247D01*
X932079Y626706D01*
X932125Y627100D01*
X932309Y627494D01*
X932585Y627822D01*
X932906Y627953D01*
X933274Y627822D01*
X933595Y627428D01*
X933779Y626837D01*
X933825Y626181D01*
X933733Y625328D01*
X933595Y624869D01*
X933365Y624409D01*
X933044Y624081D01*
X932722Y624016D01*
X932401Y624147D01*
X932171Y624475D01*
G01X935931Y676837D02*
X935656Y677034D01*
X935334Y677165D01*
X934967D01*
X934553Y676969D01*
X934231Y676641D01*
X934002Y676247D01*
X933818Y675591D01*
X933772Y675000D01*
X933864Y674409D01*
X934002Y674016D01*
X934278Y673622D01*
X934599Y673359D01*
X934920Y673228D01*
X935242D01*
X935563Y673359D01*
X935839Y673556D01*
X936069Y673819D01*
G01X939528Y673228D02*
Y677165D01*
X937828Y674344D01*
X940125D01*
G01X942022Y673819D02*
X942297Y673491D01*
X942619Y673294D01*
X943032Y673228D01*
X943446Y673359D01*
X943767Y673622D01*
X943997Y674081D01*
X944043Y674606D01*
X943951Y675131D01*
X943721Y675459D01*
X943400Y675722D01*
X943078Y675787D01*
X942757Y675722D01*
X942343Y675459D01*
X942481Y677165D01*
X943721D01*
G01X940053Y661745D02*
X940329Y661548D01*
X940650Y661417D01*
X941018D01*
X941431Y661614D01*
X941753Y661942D01*
X941982Y662336D01*
X942166Y662992D01*
X942212Y663583D01*
X942120Y664173D01*
X941982Y664567D01*
X941707Y664961D01*
X941385Y665223D01*
X941064Y665354D01*
X940742D01*
X940421Y665223D01*
X940145Y665026D01*
X939915Y664764D01*
G01X937008Y665354D02*
Y661417D01*
X937559Y662205D01*
G01Y665354D02*
X936457D01*
G01X933733Y664895D02*
X933411Y665223D01*
X933044Y665354D01*
X932676Y665223D01*
X932355Y664830D01*
X932125Y664239D01*
X932033Y663648D01*
Y662926D01*
X932125Y662336D01*
X932355Y661811D01*
X932630Y661548D01*
X932952Y661417D01*
X933319Y661548D01*
X933595Y661811D01*
X933779Y662205D01*
X933870Y662730D01*
X933779Y663189D01*
X933549Y663648D01*
X933274Y663911D01*
X932952Y663976D01*
X932585Y663845D01*
X932309Y663517D01*
X932033Y662926D01*
G01X940053Y699147D02*
X940329Y698950D01*
X940650Y698819D01*
X941018D01*
X941431Y699016D01*
X941753Y699344D01*
X941982Y699737D01*
X942166Y700394D01*
X942212Y700984D01*
X942120Y701575D01*
X941982Y701969D01*
X941707Y702362D01*
X941385Y702625D01*
X941064Y702756D01*
X940742D01*
X940421Y702625D01*
X940145Y702428D01*
X939915Y702165D01*
G01X936457Y702756D02*
Y698819D01*
X938156Y701641D01*
X935859D01*
G01X932401Y702756D02*
Y698819D01*
X934100Y701641D01*
X931804D01*
G01X926837Y916431D02*
X927034Y916707D01*
X927165Y917028D01*
Y917396D01*
X926969Y917809D01*
X926641Y918131D01*
X926247Y918360D01*
X925591Y918544D01*
X925000Y918590D01*
X924409Y918498D01*
X924016Y918360D01*
X923622Y918085D01*
X923359Y917763D01*
X923228Y917442D01*
Y917120D01*
X923359Y916799D01*
X923556Y916523D01*
X923819Y916293D01*
G01X923687Y914167D02*
X923359Y913845D01*
X923228Y913478D01*
X923359Y913110D01*
X923753Y912789D01*
X924344Y912559D01*
X924934Y912467D01*
X925656D01*
X926247Y912559D01*
X926772Y912789D01*
X927034Y913064D01*
X927165Y913386D01*
X927034Y913753D01*
X926772Y914029D01*
X926378Y914213D01*
X925853Y914304D01*
X925394Y914213D01*
X924934Y913983D01*
X924672Y913707D01*
X924606Y913386D01*
X924737Y913019D01*
X925066Y912743D01*
X925656Y912467D01*
G01X923819Y910341D02*
X923491Y910065D01*
X923294Y909743D01*
X923228Y909330D01*
X923359Y908917D01*
X923622Y908595D01*
X924081Y908365D01*
X924606Y908319D01*
X925131Y908411D01*
X925459Y908641D01*
X925722Y908963D01*
X925787Y909284D01*
X925722Y909606D01*
X925459Y910019D01*
X927165Y909881D01*
Y908641D01*
G01X957060Y625984D02*
Y623163D01*
X957244Y622572D01*
X957611Y622178D01*
X958071Y622047D01*
X958530Y622178D01*
X958898Y622572D01*
X959081Y623163D01*
Y625984D01*
G01X961116Y622835D02*
X961392Y622375D01*
X961759Y622113D01*
X962173Y622047D01*
X962540Y622113D01*
X962907Y622441D01*
X963137Y622835D01*
X963183Y623228D01*
X963091Y623687D01*
X962770Y624016D01*
X962448Y624147D01*
X962035D01*
G01X962448D02*
X962724Y624344D01*
X962954Y624672D01*
X963045Y625066D01*
X962954Y625459D01*
X962724Y625787D01*
X962311Y625984D01*
X961897Y625919D01*
X961484Y625656D01*
G01X966183Y622047D02*
Y625984D01*
X965631Y625197D01*
G01Y622047D02*
X966734D01*
G01X953123Y665354D02*
Y662533D01*
X953307Y661942D01*
X953674Y661548D01*
X954134Y661417D01*
X954593Y661548D01*
X954961Y661942D01*
X955144Y662533D01*
Y665354D01*
G01X957317Y664698D02*
X957593Y665092D01*
X957914Y665289D01*
X958281Y665354D01*
X958741Y665223D01*
X959063Y664895D01*
X959154Y664501D01*
X959108Y664107D01*
X958925Y663780D01*
X958006Y663123D01*
X957593Y662664D01*
X957317Y662008D01*
X957225Y661417D01*
X959154D01*
G01X961465Y661876D02*
X961786Y661548D01*
X962154Y661417D01*
X962521Y661548D01*
X962843Y661942D01*
X963072Y662533D01*
X963164Y663123D01*
Y663845D01*
X963072Y664436D01*
X962843Y664961D01*
X962567Y665223D01*
X962246Y665354D01*
X961878Y665223D01*
X961603Y664961D01*
X961419Y664567D01*
X961327Y664042D01*
X961419Y663583D01*
X961648Y663123D01*
X961924Y662861D01*
X962246Y662795D01*
X962613Y662926D01*
X962889Y663255D01*
X963164Y663845D01*
G01X955092Y700787D02*
Y697966D01*
X955276Y697375D01*
X955643Y696981D01*
X956102Y696850D01*
X956562Y696981D01*
X956929Y697375D01*
X957113Y697966D01*
Y700787D01*
G01X959285Y700131D02*
X959561Y700525D01*
X959883Y700722D01*
X960250Y700787D01*
X960709Y700656D01*
X961031Y700328D01*
X961123Y699934D01*
X961077Y699541D01*
X960893Y699213D01*
X959974Y698556D01*
X959561Y698097D01*
X959285Y697441D01*
X959194Y696850D01*
X961123D01*
G01X963341Y700131D02*
X963617Y700525D01*
X963939Y700722D01*
X964306Y700787D01*
X964765Y700656D01*
X965087Y700328D01*
X965179Y699934D01*
X965133Y699541D01*
X964949Y699213D01*
X964030Y698556D01*
X963617Y698097D01*
X963341Y697441D01*
X963250Y696850D01*
X965179D01*
G01X950787Y899239D02*
X947966D01*
X947375Y899055D01*
X946981Y898688D01*
X946850Y898228D01*
X946981Y897769D01*
X947375Y897402D01*
X947966Y897218D01*
X950787D01*
G01X946850Y894172D02*
X950787D01*
X950000Y894724D01*
G01X946850D02*
Y893621D01*
G01X947638Y891127D02*
X947178Y890852D01*
X946916Y890484D01*
X946850Y890070D01*
X946916Y889703D01*
X947244Y889336D01*
X947638Y889106D01*
X948031Y889060D01*
X948491Y889152D01*
X948819Y889474D01*
X948950Y889795D01*
Y890208D01*
G01Y889795D02*
X949147Y889519D01*
X949475Y889290D01*
X949869Y889198D01*
X950263Y889290D01*
X950591Y889519D01*
X950787Y889933D01*
X950722Y890346D01*
X950459Y890759D01*
G01X947178Y910341D02*
X946981Y910065D01*
X946850Y909743D01*
Y909376D01*
X947047Y908963D01*
X947375Y908641D01*
X947769Y908411D01*
X948425Y908228D01*
X949016Y908181D01*
X949606Y908274D01*
X950000Y908411D01*
X950394Y908687D01*
X950656Y909008D01*
X950787Y909330D01*
Y909652D01*
X950656Y909973D01*
X950459Y910248D01*
X950197Y910478D01*
G01X950328Y912605D02*
X950656Y912926D01*
X950787Y913294D01*
X950656Y913661D01*
X950263Y913983D01*
X949672Y914213D01*
X949081Y914304D01*
X948359D01*
X947769Y914213D01*
X947244Y913983D01*
X946981Y913707D01*
X946850Y913386D01*
X946981Y913019D01*
X947244Y912743D01*
X947638Y912559D01*
X948163Y912467D01*
X948622Y912559D01*
X949081Y912789D01*
X949344Y913064D01*
X949409Y913386D01*
X949278Y913753D01*
X948950Y914029D01*
X948359Y914304D01*
G01X950787Y917993D02*
X946850D01*
X949672Y916293D01*
Y918590D01*
G01X981207Y604003D02*
X980931Y604200D01*
X980609Y604331D01*
X980242D01*
X979829Y604134D01*
X979507Y603806D01*
X979278Y603412D01*
X979094Y602756D01*
X979048Y602165D01*
X979140Y601575D01*
X979278Y601181D01*
X979553Y600787D01*
X979874Y600525D01*
X980196Y600394D01*
X980518D01*
X980839Y600525D01*
X981115Y600722D01*
X981344Y600984D01*
G01X983241D02*
X983517Y600656D01*
X983839Y600459D01*
X984252Y600394D01*
X984665Y600525D01*
X984987Y600787D01*
X985217Y601247D01*
X985263Y601772D01*
X985170Y602296D01*
X984941Y602625D01*
X984619Y602887D01*
X984298Y602953D01*
X983976Y602887D01*
X983563Y602625D01*
X983701Y604331D01*
X984941D01*
G01X987527Y600853D02*
X987848Y600525D01*
X988216Y600394D01*
X988583Y600525D01*
X988905Y600919D01*
X989135Y601509D01*
X989226Y602100D01*
Y602822D01*
X989135Y603412D01*
X988905Y603937D01*
X988630Y604200D01*
X988308Y604331D01*
X987941Y604200D01*
X987665Y603937D01*
X987481Y603543D01*
X987389Y603018D01*
X987481Y602559D01*
X987711Y602100D01*
X987986Y601837D01*
X988308Y601772D01*
X988675Y601903D01*
X988951Y602231D01*
X989226Y602822D01*
G01X979238Y639436D02*
X978963Y639633D01*
X978641Y639764D01*
X978274D01*
X977860Y639567D01*
X977539Y639239D01*
X977309Y638845D01*
X977125Y638189D01*
X977079Y637598D01*
X977171Y637008D01*
X977309Y636614D01*
X977585Y636220D01*
X977906Y635958D01*
X978228Y635827D01*
X978549D01*
X978870Y635958D01*
X979146Y636155D01*
X979376Y636417D01*
G01X981273Y636614D02*
X981548Y636155D01*
X981916Y635893D01*
X982330Y635827D01*
X982697Y635893D01*
X983064Y636220D01*
X983294Y636614D01*
X983340Y637008D01*
X983248Y637467D01*
X982926Y637795D01*
X982605Y637926D01*
X982192D01*
G01X982605D02*
X982881Y638123D01*
X983110Y638451D01*
X983202Y638845D01*
X983110Y639239D01*
X982881Y639567D01*
X982467Y639764D01*
X982054Y639698D01*
X981641Y639436D01*
G01X986248Y635827D02*
X986339Y636680D01*
X986477Y637402D01*
X986661Y638058D01*
X986891Y638780D01*
X987258Y639764D01*
X985421D01*
G01X985329Y624344D02*
X985604Y624147D01*
X985926Y624016D01*
X986293D01*
X986707Y624213D01*
X987028Y624541D01*
X987258Y624934D01*
X987442Y625591D01*
X987488Y626181D01*
X987396Y626772D01*
X987258Y627165D01*
X986982Y627559D01*
X986661Y627822D01*
X986339Y627953D01*
X986018D01*
X985696Y627822D01*
X985421Y627625D01*
X985191Y627362D01*
G01X983294D02*
X983019Y627690D01*
X982697Y627887D01*
X982283Y627953D01*
X981870Y627822D01*
X981548Y627559D01*
X981319Y627100D01*
X981273Y626575D01*
X981365Y626050D01*
X981594Y625722D01*
X981916Y625459D01*
X982237Y625394D01*
X982559Y625459D01*
X982972Y625722D01*
X982835Y624016D01*
X981594D01*
G01X978228Y627953D02*
X977906Y627887D01*
X977539Y627690D01*
X977309Y627362D01*
X977217Y626903D01*
X977309Y626444D01*
X977585Y626050D01*
X977998Y625853D01*
X978457D01*
X978733Y625722D01*
X978963Y625394D01*
X979054Y624934D01*
X978917Y624475D01*
X978595Y624147D01*
X978228Y624016D01*
X977860Y624147D01*
X977539Y624475D01*
X977401Y624934D01*
X977493Y625394D01*
X977722Y625722D01*
X977998Y625853D01*
X978457D01*
X978870Y626050D01*
X979146Y626444D01*
X979238Y626903D01*
X979146Y627362D01*
X978917Y627690D01*
X978549Y627887D01*
X978228Y627953D01*
G01X985329Y661745D02*
X985604Y661548D01*
X985926Y661417D01*
X986293D01*
X986707Y661614D01*
X987028Y661942D01*
X987258Y662336D01*
X987442Y662992D01*
X987488Y663583D01*
X987396Y664173D01*
X987258Y664567D01*
X986982Y664961D01*
X986661Y665223D01*
X986339Y665354D01*
X986018D01*
X985696Y665223D01*
X985421Y665026D01*
X985191Y664764D01*
G01X983294Y664567D02*
X983019Y665026D01*
X982651Y665289D01*
X982237Y665354D01*
X981870Y665289D01*
X981503Y664961D01*
X981273Y664567D01*
X981227Y664173D01*
X981319Y663714D01*
X981641Y663386D01*
X981962Y663255D01*
X982375D01*
G01X981962D02*
X981686Y663058D01*
X981457Y662730D01*
X981365Y662336D01*
X981457Y661942D01*
X981686Y661614D01*
X982100Y661417D01*
X982513Y661483D01*
X982926Y661745D01*
G01X979100Y663714D02*
X978779Y663255D01*
X978503Y662992D01*
X978136Y662861D01*
X977814Y662992D01*
X977585Y663255D01*
X977401Y663648D01*
X977355Y664107D01*
X977401Y664501D01*
X977585Y664895D01*
X977860Y665223D01*
X978181Y665354D01*
X978549Y665223D01*
X978870Y664830D01*
X979054Y664239D01*
X979100Y663583D01*
X979008Y662730D01*
X978870Y662270D01*
X978641Y661811D01*
X978319Y661483D01*
X977998Y661417D01*
X977676Y661548D01*
X977447Y661877D01*
G01X987297Y673556D02*
X987573Y673359D01*
X987894Y673228D01*
X988262D01*
X988675Y673425D01*
X988997Y673753D01*
X989226Y674147D01*
X989410Y674803D01*
X989456Y675394D01*
X989364Y675984D01*
X989226Y676378D01*
X988951Y676772D01*
X988630Y677034D01*
X988308Y677165D01*
X987986D01*
X987665Y677034D01*
X987389Y676837D01*
X987159Y676575D01*
G01X985263D02*
X984987Y676903D01*
X984665Y677100D01*
X984252Y677165D01*
X983839Y677034D01*
X983517Y676772D01*
X983287Y676312D01*
X983241Y675787D01*
X983333Y675263D01*
X983563Y674934D01*
X983885Y674672D01*
X984206Y674606D01*
X984528Y674672D01*
X984941Y674934D01*
X984803Y673228D01*
X983563D01*
G01X979645Y677165D02*
Y673228D01*
X981344Y676050D01*
X979048D01*
G01X979238Y702428D02*
X978963Y702625D01*
X978641Y702756D01*
X978274D01*
X977860Y702559D01*
X977539Y702231D01*
X977309Y701837D01*
X977125Y701181D01*
X977079Y700591D01*
X977171Y700000D01*
X977309Y699606D01*
X977585Y699213D01*
X977906Y698950D01*
X978228Y698819D01*
X978549D01*
X978870Y698950D01*
X979146Y699147D01*
X979376Y699409D01*
G01X981273D02*
X981548Y699081D01*
X981870Y698885D01*
X982283Y698819D01*
X982697Y698950D01*
X983019Y699213D01*
X983248Y699672D01*
X983294Y700197D01*
X983202Y700722D01*
X982972Y701050D01*
X982651Y701312D01*
X982330Y701378D01*
X982008Y701312D01*
X981594Y701050D01*
X981732Y702756D01*
X982972D01*
G01X985329Y699409D02*
X985604Y699081D01*
X985926Y698885D01*
X986339Y698819D01*
X986753Y698950D01*
X987074Y699213D01*
X987304Y699672D01*
X987350Y700197D01*
X987258Y700722D01*
X987028Y701050D01*
X986707Y701312D01*
X986385Y701378D01*
X986064Y701312D01*
X985650Y701050D01*
X985788Y702756D01*
X987028D01*
G01X981207Y714239D02*
X980931Y714436D01*
X980609Y714567D01*
X980242D01*
X979829Y714370D01*
X979507Y714042D01*
X979278Y713648D01*
X979094Y712992D01*
X979048Y712402D01*
X979140Y711811D01*
X979278Y711417D01*
X979553Y711024D01*
X979874Y710761D01*
X980196Y710630D01*
X980518D01*
X980839Y710761D01*
X981115Y710958D01*
X981344Y711220D01*
G01X983379Y712270D02*
X983701Y712730D01*
X983976Y712992D01*
X984344Y713123D01*
X984665Y712992D01*
X984895Y712730D01*
X985079Y712336D01*
X985125Y711877D01*
X985079Y711483D01*
X984895Y711089D01*
X984619Y710761D01*
X984298Y710630D01*
X983930Y710761D01*
X983609Y711155D01*
X983425Y711745D01*
X983379Y712402D01*
X983471Y713254D01*
X983609Y713714D01*
X983839Y714173D01*
X984160Y714501D01*
X984481Y714567D01*
X984803Y714436D01*
X985033Y714107D01*
G01X988308Y710630D02*
Y714567D01*
X987757Y713780D01*
G01Y710630D02*
X988859D01*
G01X985329Y736548D02*
X985604Y736352D01*
X985926Y736220D01*
X986293D01*
X986707Y736417D01*
X987028Y736745D01*
X987258Y737139D01*
X987442Y737795D01*
X987488Y738386D01*
X987396Y738976D01*
X987258Y739370D01*
X986982Y739764D01*
X986661Y740026D01*
X986339Y740157D01*
X986018D01*
X985696Y740026D01*
X985421Y739830D01*
X985191Y739567D01*
G01X983156Y738517D02*
X982835Y738058D01*
X982559Y737795D01*
X982192Y737664D01*
X981870Y737795D01*
X981641Y738058D01*
X981457Y738452D01*
X981411Y738911D01*
X981457Y739304D01*
X981641Y739698D01*
X981916Y740026D01*
X982237Y740157D01*
X982605Y740026D01*
X982926Y739633D01*
X983110Y739042D01*
X983156Y738386D01*
X983064Y737533D01*
X982926Y737074D01*
X982697Y736614D01*
X982375Y736286D01*
X982054Y736220D01*
X981732Y736352D01*
X981503Y736680D01*
G01X978228Y736220D02*
X978595Y736352D01*
X978870Y736680D01*
X979054Y737074D01*
X979192Y737598D01*
X979238Y738189D01*
X979192Y738780D01*
X979054Y739304D01*
X978870Y739698D01*
X978595Y740026D01*
X978228Y740157D01*
X977860Y740026D01*
X977585Y739698D01*
X977401Y739304D01*
X977263Y738780D01*
X977217Y738189D01*
X977263Y737598D01*
X977401Y737074D01*
X977585Y736680D01*
X977860Y736352D01*
X978228Y736220D01*
G01X981207Y751641D02*
X980931Y751837D01*
X980609Y751969D01*
X980242D01*
X979829Y751772D01*
X979507Y751444D01*
X979278Y751050D01*
X979094Y750394D01*
X979048Y749803D01*
X979140Y749213D01*
X979278Y748819D01*
X979553Y748425D01*
X979874Y748163D01*
X980196Y748031D01*
X980518D01*
X980839Y748163D01*
X981115Y748359D01*
X981344Y748622D01*
G01X984252Y748031D02*
Y751969D01*
X983701Y751181D01*
G01Y748031D02*
X984803D01*
G01X988308D02*
X988630Y748097D01*
X988997Y748294D01*
X989226Y748622D01*
X989319Y749081D01*
X989226Y749541D01*
X988951Y749934D01*
X988537Y750131D01*
X988078D01*
X987803Y750263D01*
X987573Y750591D01*
X987481Y751050D01*
X987619Y751509D01*
X987941Y751837D01*
X988308Y751969D01*
X988675Y751837D01*
X988997Y751509D01*
X989135Y751050D01*
X989043Y750591D01*
X988813Y750263D01*
X988537Y750131D01*
X988078D01*
X987665Y749934D01*
X987389Y749541D01*
X987297Y749081D01*
X987389Y748622D01*
X987619Y748294D01*
X987986Y748097D01*
X988308Y748031D01*
G01X985329Y773950D02*
X985604Y773753D01*
X985926Y773622D01*
X986293D01*
X986707Y773819D01*
X987028Y774147D01*
X987258Y774541D01*
X987442Y775197D01*
X987488Y775787D01*
X987396Y776378D01*
X987258Y776772D01*
X986982Y777165D01*
X986661Y777428D01*
X986339Y777559D01*
X986018D01*
X985696Y777428D01*
X985421Y777231D01*
X985191Y776969D01*
G01X982283Y777559D02*
Y773622D01*
X982835Y774409D01*
G01Y777559D02*
X981732D01*
G01X978319D02*
X978228Y776706D01*
X978090Y775984D01*
X977906Y775328D01*
X977676Y774606D01*
X977309Y773622D01*
X979146D01*
G01X985329Y785761D02*
X985604Y785564D01*
X985926Y785433D01*
X986293D01*
X986707Y785630D01*
X987028Y785958D01*
X987258Y786352D01*
X987442Y787008D01*
X987488Y787598D01*
X987396Y788189D01*
X987258Y788583D01*
X986982Y788976D01*
X986661Y789239D01*
X986339Y789370D01*
X986018D01*
X985696Y789239D01*
X985421Y789042D01*
X985191Y788780D01*
G01X982283Y789370D02*
Y785433D01*
X982835Y786220D01*
G01Y789370D02*
X981732D01*
G01X979238Y788780D02*
X978963Y789107D01*
X978641Y789304D01*
X978228Y789370D01*
X977814Y789239D01*
X977493Y788976D01*
X977263Y788517D01*
X977217Y787992D01*
X977309Y787467D01*
X977539Y787139D01*
X977860Y786877D01*
X978181Y786811D01*
X978503Y786877D01*
X978917Y787139D01*
X978779Y785433D01*
X977539D01*
G01X979238Y814633D02*
X978963Y814830D01*
X978641Y814961D01*
X978274D01*
X977860Y814764D01*
X977539Y814436D01*
X977309Y814042D01*
X977125Y813386D01*
X977079Y812795D01*
X977171Y812205D01*
X977309Y811811D01*
X977585Y811417D01*
X977906Y811155D01*
X978228Y811024D01*
X978549D01*
X978870Y811155D01*
X979146Y811352D01*
X979376Y811614D01*
G01X982283Y811024D02*
Y814961D01*
X981732Y814173D01*
G01Y811024D02*
X982835D01*
G01X985467Y812664D02*
X985788Y813123D01*
X986064Y813386D01*
X986431Y813517D01*
X986753Y813386D01*
X986982Y813123D01*
X987166Y812730D01*
X987212Y812270D01*
X987166Y811877D01*
X986982Y811483D01*
X986707Y811155D01*
X986385Y811024D01*
X986018Y811155D01*
X985696Y811548D01*
X985513Y812139D01*
X985467Y812795D01*
X985559Y813648D01*
X985696Y814107D01*
X985926Y814567D01*
X986248Y814895D01*
X986569Y814961D01*
X986891Y814830D01*
X987120Y814501D01*
G01X967427Y895341D02*
X967152Y895538D01*
X966830Y895669D01*
X966463D01*
X966049Y895472D01*
X965728Y895144D01*
X965498Y894751D01*
X965314Y894094D01*
X965268Y893504D01*
X965360Y892913D01*
X965498Y892520D01*
X965774Y892126D01*
X966095Y891863D01*
X966417Y891732D01*
X966738D01*
X967059Y891863D01*
X967335Y892060D01*
X967565Y892323D01*
G01X969692Y892191D02*
X970013Y891863D01*
X970381Y891732D01*
X970748Y891863D01*
X971070Y892257D01*
X971299Y892848D01*
X971391Y893438D01*
Y894160D01*
X971299Y894751D01*
X971070Y895276D01*
X970794Y895538D01*
X970472Y895669D01*
X970105Y895538D01*
X969830Y895276D01*
X969646Y894882D01*
X969554Y894357D01*
X969646Y893898D01*
X969875Y893438D01*
X970151Y893176D01*
X970472Y893110D01*
X970840Y893241D01*
X971115Y893570D01*
X971391Y894160D01*
G01X974437Y891732D02*
X974528Y892585D01*
X974666Y893307D01*
X974850Y893963D01*
X975080Y894685D01*
X975447Y895669D01*
X973610D01*
G01X971549Y917651D02*
X971825Y917454D01*
X972146Y917323D01*
X972514D01*
X972927Y917520D01*
X973249Y917848D01*
X973478Y918241D01*
X973662Y918898D01*
X973708Y919488D01*
X973616Y920079D01*
X973478Y920472D01*
X973203Y920866D01*
X972881Y921129D01*
X972560Y921260D01*
X972238D01*
X971917Y921129D01*
X971641Y920932D01*
X971411Y920669D01*
G01X969285Y920801D02*
X968963Y921129D01*
X968596Y921260D01*
X968228Y921129D01*
X967907Y920735D01*
X967677Y920144D01*
X967585Y919554D01*
Y918832D01*
X967677Y918241D01*
X967907Y917717D01*
X968182Y917454D01*
X968504Y917323D01*
X968871Y917454D01*
X969147Y917717D01*
X969331Y918110D01*
X969422Y918635D01*
X969331Y919094D01*
X969101Y919554D01*
X968826Y919817D01*
X968504Y919882D01*
X968137Y919751D01*
X967861Y919422D01*
X967585Y918832D01*
G01X965321Y919620D02*
X964999Y919160D01*
X964724Y918898D01*
X964356Y918767D01*
X964035Y918898D01*
X963805Y919160D01*
X963621Y919554D01*
X963575Y920013D01*
X963621Y920407D01*
X963805Y920801D01*
X964081Y921129D01*
X964402Y921260D01*
X964770Y921129D01*
X965091Y920735D01*
X965275Y920144D01*
X965321Y919488D01*
X965229Y918635D01*
X965091Y918176D01*
X964861Y917717D01*
X964540Y917389D01*
X964219Y917323D01*
X963897Y917454D01*
X963667Y917782D01*
G01X996430Y665354D02*
Y662533D01*
X996614Y661942D01*
X996981Y661548D01*
X997441Y661417D01*
X997900Y661548D01*
X998268Y661942D01*
X998452Y662533D01*
Y665354D01*
G01X1000624Y664698D02*
X1000900Y665092D01*
X1001221Y665289D01*
X1001589Y665354D01*
X1002048Y665223D01*
X1002370Y664895D01*
X1002461Y664501D01*
X1002415Y664107D01*
X1002232Y663780D01*
X1001313Y663123D01*
X1000900Y662664D01*
X1000624Y662008D01*
X1000532Y661417D01*
X1002461D01*
G01X1004680Y663057D02*
X1005002Y663517D01*
X1005277Y663780D01*
X1005644Y663911D01*
X1005966Y663780D01*
X1006196Y663517D01*
X1006380Y663123D01*
X1006426Y662664D01*
X1006380Y662270D01*
X1006196Y661876D01*
X1005920Y661548D01*
X1005599Y661417D01*
X1005231Y661548D01*
X1004910Y661942D01*
X1004726Y662533D01*
X1004680Y663189D01*
X1004772Y664042D01*
X1004910Y664501D01*
X1005139Y664961D01*
X1005461Y665289D01*
X1005782Y665354D01*
X1006104Y665223D01*
X1006333Y664895D01*
G01X996430Y702756D02*
Y699934D01*
X996614Y699344D01*
X996981Y698950D01*
X997441Y698819D01*
X997900Y698950D01*
X998268Y699344D01*
X998452Y699934D01*
Y702756D01*
G01X1000486Y699606D02*
X1000762Y699147D01*
X1001130Y698885D01*
X1001543Y698819D01*
X1001910Y698885D01*
X1002278Y699213D01*
X1002507Y699606D01*
X1002553Y700000D01*
X1002461Y700459D01*
X1002140Y700787D01*
X1001819Y700919D01*
X1001405D01*
G01X1001819D02*
X1002094Y701115D01*
X1002324Y701443D01*
X1002415Y701837D01*
X1002324Y702231D01*
X1002094Y702559D01*
X1001681Y702756D01*
X1001267Y702690D01*
X1000854Y702428D01*
G01X1005553Y702756D02*
X1005185Y702625D01*
X1004910Y702296D01*
X1004726Y701903D01*
X1004588Y701378D01*
X1004542Y700787D01*
X1004588Y700197D01*
X1004726Y699672D01*
X1004910Y699278D01*
X1005185Y698950D01*
X1005553Y698819D01*
X1005920Y698950D01*
X1006196Y699278D01*
X1006380Y699672D01*
X1006517Y700197D01*
X1006563Y700787D01*
X1006517Y701378D01*
X1006380Y701903D01*
X1006196Y702296D01*
X1005920Y702625D01*
X1005553Y702756D01*
G01X996430Y738189D02*
Y735367D01*
X996614Y734777D01*
X996981Y734383D01*
X997441Y734252D01*
X997900Y734383D01*
X998268Y734777D01*
X998452Y735367D01*
Y738189D01*
G01X1000486Y735039D02*
X1000762Y734580D01*
X1001130Y734318D01*
X1001543Y734252D01*
X1001910Y734318D01*
X1002278Y734646D01*
X1002507Y735039D01*
X1002553Y735433D01*
X1002461Y735892D01*
X1002140Y736220D01*
X1001819Y736352D01*
X1001405D01*
G01X1001819D02*
X1002094Y736548D01*
X1002324Y736876D01*
X1002415Y737270D01*
X1002324Y737664D01*
X1002094Y737992D01*
X1001681Y738189D01*
X1001267Y738123D01*
X1000854Y737861D01*
G01X1004542Y735039D02*
X1004818Y734580D01*
X1005185Y734318D01*
X1005599Y734252D01*
X1005966Y734318D01*
X1006333Y734646D01*
X1006563Y735039D01*
X1006609Y735433D01*
X1006517Y735892D01*
X1006196Y736220D01*
X1005874Y736352D01*
X1005461D01*
G01X1005874D02*
X1006150Y736548D01*
X1006380Y736876D01*
X1006471Y737270D01*
X1006380Y737664D01*
X1006150Y737992D01*
X1005737Y738189D01*
X1005323Y738123D01*
X1004910Y737861D01*
G01X996430Y775591D02*
Y772769D01*
X996614Y772178D01*
X996981Y771785D01*
X997441Y771654D01*
X997900Y771785D01*
X998268Y772178D01*
X998452Y772769D01*
Y775591D01*
G01X1000624Y774934D02*
X1000900Y775328D01*
X1001221Y775525D01*
X1001589Y775591D01*
X1002048Y775459D01*
X1002370Y775131D01*
X1002461Y774737D01*
X1002415Y774344D01*
X1002232Y774016D01*
X1001313Y773359D01*
X1000900Y772900D01*
X1000624Y772244D01*
X1000532Y771654D01*
X1002461D01*
G01X1005553D02*
X1005874Y771719D01*
X1006242Y771916D01*
X1006471Y772244D01*
X1006563Y772704D01*
X1006471Y773163D01*
X1006196Y773556D01*
X1005782Y773753D01*
X1005323D01*
X1005048Y773885D01*
X1004818Y774213D01*
X1004726Y774672D01*
X1004864Y775131D01*
X1005185Y775459D01*
X1005553Y775591D01*
X1005920Y775459D01*
X1006242Y775131D01*
X1006380Y774672D01*
X1006288Y774213D01*
X1006058Y773885D01*
X1005782Y773753D01*
X1005323D01*
X1004910Y773556D01*
X1004634Y773163D01*
X1004542Y772704D01*
X1004634Y772244D01*
X1004864Y771916D01*
X1005231Y771719D01*
X1005553Y771654D01*
G01X998399Y814961D02*
Y812139D01*
X998583Y811548D01*
X998950Y811155D01*
X999409Y811024D01*
X999869Y811155D01*
X1000236Y811548D01*
X1000420Y812139D01*
Y814961D01*
G01X1002593Y814304D02*
X1002868Y814698D01*
X1003190Y814895D01*
X1003557Y814961D01*
X1004017Y814830D01*
X1004338Y814501D01*
X1004430Y814107D01*
X1004384Y813714D01*
X1004200Y813386D01*
X1003281Y812730D01*
X1002868Y812270D01*
X1002593Y811614D01*
X1002501Y811024D01*
X1004430D01*
G01X1007430D02*
X1007521Y811877D01*
X1007659Y812598D01*
X1007843Y813255D01*
X1008072Y813976D01*
X1008440Y814961D01*
X1006603D01*
G01X984619Y919291D02*
Y916470D01*
X984803Y915879D01*
X985170Y915485D01*
X985630Y915354D01*
X986089Y915485D01*
X986457Y915879D01*
X986641Y916470D01*
Y919291D01*
G01X989686Y915354D02*
Y919291D01*
X989135Y918504D01*
G01Y915354D02*
X990237D01*
G01X994293D02*
Y919291D01*
X992593Y916470D01*
X994890D01*
G01X1000367Y627953D02*
Y625131D01*
X1000551Y624541D01*
X1000919Y624147D01*
X1001378Y624016D01*
X1001837Y624147D01*
X1002205Y624541D01*
X1002389Y625131D01*
Y627953D01*
G01X1004423Y624803D02*
X1004699Y624344D01*
X1005067Y624081D01*
X1005480Y624016D01*
X1005847Y624081D01*
X1006215Y624409D01*
X1006444Y624803D01*
X1006490Y625197D01*
X1006398Y625656D01*
X1006077Y625984D01*
X1005756Y626115D01*
X1005342D01*
G01X1005756D02*
X1006031Y626312D01*
X1006261Y626640D01*
X1006352Y627034D01*
X1006261Y627428D01*
X1006031Y627756D01*
X1005618Y627953D01*
X1005204Y627887D01*
X1004791Y627625D01*
G01X1008617Y627296D02*
X1008893Y627690D01*
X1009214Y627887D01*
X1009581Y627953D01*
X1010041Y627822D01*
X1010363Y627493D01*
X1010454Y627100D01*
X1010408Y626706D01*
X1010225Y626378D01*
X1009306Y625722D01*
X1008893Y625263D01*
X1008617Y624606D01*
X1008525Y624016D01*
X1010454D01*
G01X1023484Y762546D02*
X1019547D01*
Y763694D01*
X1019744Y764061D01*
X1020007Y764291D01*
X1020531Y764383D01*
X1021056Y764291D01*
X1021385Y764015D01*
X1021581Y763694D01*
Y762546D01*
G01Y763694D02*
X1023484Y764383D01*
G01X1022894Y766509D02*
X1023222Y766785D01*
X1023419Y767107D01*
X1023484Y767520D01*
X1023353Y767933D01*
X1023091Y768255D01*
X1022631Y768485D01*
X1022106Y768531D01*
X1021581Y768439D01*
X1021253Y768209D01*
X1020991Y767887D01*
X1020925Y767566D01*
X1020991Y767244D01*
X1021253Y766831D01*
X1019547Y766969D01*
Y768209D01*
G01X1027454Y700202D02*
X1027257Y699927D01*
X1027126Y699605D01*
Y699238D01*
X1027323Y698824D01*
X1027651Y698503D01*
X1028044Y698273D01*
X1028701Y698089D01*
X1029291Y698043D01*
X1029882Y698135D01*
X1030276Y698273D01*
X1030669Y698549D01*
X1030932Y698870D01*
X1031063Y699192D01*
Y699513D01*
X1030932Y699835D01*
X1030735Y700110D01*
X1030472Y700340D01*
G01X1031063Y703248D02*
X1027126D01*
X1027913Y702696D01*
G01X1031063D02*
Y703799D01*
G01X1027126Y707304D02*
X1027257Y706936D01*
X1027585Y706661D01*
X1027979Y706477D01*
X1028504Y706339D01*
X1029094Y706293D01*
X1029685Y706339D01*
X1030210Y706477D01*
X1030604Y706661D01*
X1030932Y706936D01*
X1031063Y707304D01*
X1030932Y707671D01*
X1030604Y707946D01*
X1030210Y708130D01*
X1029685Y708268D01*
X1029094Y708314D01*
X1028504Y708268D01*
X1027979Y708130D01*
X1027585Y707946D01*
X1027257Y707671D01*
X1027126Y707304D01*
G01X1031063Y711359D02*
X1027126D01*
X1027913Y710808D01*
G01X1031063D02*
Y711911D01*
G01X1038563Y762546D02*
X1034626D01*
Y763694D01*
X1034823Y764061D01*
X1035085Y764291D01*
X1035610Y764383D01*
X1036135Y764291D01*
X1036463Y764015D01*
X1036660Y763694D01*
Y762546D01*
G01Y763694D02*
X1038563Y764383D01*
G01X1036923Y766647D02*
X1036463Y766969D01*
X1036201Y767244D01*
X1036070Y767612D01*
X1036201Y767933D01*
X1036463Y768163D01*
X1036857Y768347D01*
X1037316Y768393D01*
X1037710Y768347D01*
X1038104Y768163D01*
X1038432Y767887D01*
X1038563Y767566D01*
X1038432Y767198D01*
X1038038Y766877D01*
X1037448Y766693D01*
X1036791Y766647D01*
X1035939Y766739D01*
X1035479Y766877D01*
X1035020Y767107D01*
X1034692Y767428D01*
X1034626Y767750D01*
X1034757Y768071D01*
X1035085Y768301D01*
G01X1030419Y806759D02*
X1030144Y806956D01*
X1029822Y807087D01*
X1029455D01*
X1029041Y806890D01*
X1028720Y806562D01*
X1028490Y806168D01*
X1028306Y805512D01*
X1028260Y804921D01*
X1028352Y804331D01*
X1028490Y803937D01*
X1028766Y803543D01*
X1029087Y803281D01*
X1029409Y803150D01*
X1029730D01*
X1030052Y803281D01*
X1030327Y803478D01*
X1030557Y803740D01*
G01X1034016Y803150D02*
Y807087D01*
X1032316Y804265D01*
X1034613D01*
G01X1036740Y803609D02*
X1037061Y803281D01*
X1037429Y803150D01*
X1037796Y803281D01*
X1038118Y803674D01*
X1038347Y804265D01*
X1038439Y804856D01*
Y805578D01*
X1038347Y806168D01*
X1038118Y806693D01*
X1037842Y806956D01*
X1037520Y807087D01*
X1037153Y806956D01*
X1036878Y806693D01*
X1036694Y806299D01*
X1036602Y805774D01*
X1036694Y805315D01*
X1036923Y804856D01*
X1037199Y804593D01*
X1037520Y804528D01*
X1037888Y804659D01*
X1038163Y804987D01*
X1038439Y805578D01*
G01X1036510Y829068D02*
X1036785Y828871D01*
X1037107Y828740D01*
X1037474D01*
X1037888Y828937D01*
X1038209Y829265D01*
X1038439Y829659D01*
X1038623Y830315D01*
X1038669Y830906D01*
X1038577Y831496D01*
X1038439Y831890D01*
X1038163Y832283D01*
X1037842Y832546D01*
X1037520Y832677D01*
X1037199D01*
X1036878Y832546D01*
X1036602Y832349D01*
X1036372Y832087D01*
G01X1032913Y832677D02*
Y828740D01*
X1034613Y831562D01*
X1032316D01*
G01X1029409Y832677D02*
X1029087Y832611D01*
X1028720Y832415D01*
X1028490Y832087D01*
X1028398Y831627D01*
X1028490Y831168D01*
X1028766Y830774D01*
X1029179Y830578D01*
X1029638D01*
X1029914Y830446D01*
X1030144Y830118D01*
X1030235Y829659D01*
X1030098Y829200D01*
X1029776Y828871D01*
X1029409Y828740D01*
X1029041Y828871D01*
X1028720Y829200D01*
X1028582Y829659D01*
X1028674Y830118D01*
X1028904Y830446D01*
X1029179Y830578D01*
X1029638D01*
X1030052Y830774D01*
X1030327Y831168D01*
X1030419Y831627D01*
X1030327Y832087D01*
X1030098Y832415D01*
X1029730Y832611D01*
X1029409Y832677D01*
G01X1032573Y862533D02*
X1032848Y862336D01*
X1033170Y862205D01*
X1033537D01*
X1033951Y862402D01*
X1034272Y862730D01*
X1034502Y863123D01*
X1034686Y863780D01*
X1034732Y864370D01*
X1034640Y864961D01*
X1034502Y865354D01*
X1034226Y865748D01*
X1033905Y866011D01*
X1033583Y866142D01*
X1033262D01*
X1032941Y866011D01*
X1032665Y865814D01*
X1032435Y865551D01*
G01X1029528Y866142D02*
X1029206Y866076D01*
X1028839Y865879D01*
X1028609Y865551D01*
X1028517Y865092D01*
X1028609Y864633D01*
X1028885Y864239D01*
X1029298Y864042D01*
X1029757D01*
X1030033Y863911D01*
X1030263Y863583D01*
X1030354Y863123D01*
X1030217Y862664D01*
X1029895Y862336D01*
X1029528Y862205D01*
X1029160Y862336D01*
X1028839Y862664D01*
X1028701Y863123D01*
X1028793Y863583D01*
X1029022Y863911D01*
X1029298Y864042D01*
X1029757D01*
X1030170Y864239D01*
X1030446Y864633D01*
X1030538Y865092D01*
X1030446Y865551D01*
X1030217Y865879D01*
X1029849Y866076D01*
X1029528Y866142D01*
G01X1026344Y864502D02*
X1026023Y864042D01*
X1025747Y863780D01*
X1025380Y863648D01*
X1025058Y863780D01*
X1024829Y864042D01*
X1024645Y864436D01*
X1024599Y864895D01*
X1024645Y865289D01*
X1024829Y865683D01*
X1025104Y866011D01*
X1025426Y866142D01*
X1025793Y866011D01*
X1026115Y865617D01*
X1026298Y865026D01*
X1026344Y864370D01*
X1026252Y863517D01*
X1026115Y863058D01*
X1025885Y862598D01*
X1025563Y862270D01*
X1025242Y862205D01*
X1024920Y862336D01*
X1024691Y862664D01*
G01X1039370Y897270D02*
X1036548D01*
X1035958Y897087D01*
X1035564Y896719D01*
X1035433Y896260D01*
X1035564Y895800D01*
X1035958Y895433D01*
X1036548Y895249D01*
X1039370D01*
G01X1035433Y892204D02*
X1039370D01*
X1038583Y892755D01*
G01X1035433D02*
Y891653D01*
G01X1039370Y888148D02*
X1039239Y888515D01*
X1038911Y888791D01*
X1038517Y888975D01*
X1037992Y889113D01*
X1037402Y889159D01*
X1036811Y889113D01*
X1036286Y888975D01*
X1035892Y888791D01*
X1035564Y888515D01*
X1035433Y888148D01*
X1035564Y887781D01*
X1035892Y887505D01*
X1036286Y887321D01*
X1036811Y887183D01*
X1037402Y887137D01*
X1037992Y887183D01*
X1038517Y887321D01*
X1038911Y887505D01*
X1039239Y887781D01*
X1039370Y888148D01*
G01X1024514Y920932D02*
X1024238Y921129D01*
X1023917Y921260D01*
X1023549D01*
X1023136Y921063D01*
X1022814Y920735D01*
X1022585Y920341D01*
X1022401Y919685D01*
X1022355Y919094D01*
X1022447Y918504D01*
X1022585Y918110D01*
X1022860Y917717D01*
X1023181Y917454D01*
X1023503Y917323D01*
X1023825D01*
X1024146Y917454D01*
X1024422Y917651D01*
X1024652Y917913D01*
G01X1027559Y917323D02*
X1027881Y917389D01*
X1028248Y917585D01*
X1028478Y917913D01*
X1028570Y918373D01*
X1028478Y918832D01*
X1028202Y919226D01*
X1027789Y919422D01*
X1027330D01*
X1027054Y919554D01*
X1026824Y919882D01*
X1026732Y920341D01*
X1026870Y920800D01*
X1027192Y921129D01*
X1027559Y921260D01*
X1027926Y921129D01*
X1028248Y920800D01*
X1028386Y920341D01*
X1028294Y919882D01*
X1028064Y919554D01*
X1027789Y919422D01*
X1027330D01*
X1026916Y919226D01*
X1026641Y918832D01*
X1026548Y918373D01*
X1026641Y917913D01*
X1026870Y917585D01*
X1027237Y917389D01*
X1027559Y917323D01*
G01X1031523D02*
X1031615Y918176D01*
X1031753Y918898D01*
X1031937Y919554D01*
X1032166Y920276D01*
X1032533Y921260D01*
X1030696D01*
G01X1047611Y718504D02*
Y715682D01*
X1047795Y715092D01*
X1048163Y714698D01*
X1048622Y714567D01*
X1049081Y714698D01*
X1049449Y715092D01*
X1049633Y715682D01*
Y718504D01*
G01X1051805Y717848D02*
X1052081Y718241D01*
X1052402Y718438D01*
X1052770Y718504D01*
X1053229Y718373D01*
X1053551Y718044D01*
X1053643Y717651D01*
X1053596Y717257D01*
X1053413Y716929D01*
X1052494Y716273D01*
X1052081Y715814D01*
X1051805Y715157D01*
X1051713Y714567D01*
X1053643D01*
G01X1046167Y726050D02*
X1045892Y726247D01*
X1045570Y726378D01*
X1045203D01*
X1044789Y726181D01*
X1044468Y725853D01*
X1044238Y725459D01*
X1044054Y724803D01*
X1044008Y724213D01*
X1044100Y723622D01*
X1044238Y723228D01*
X1044514Y722835D01*
X1044835Y722572D01*
X1045157Y722441D01*
X1045478D01*
X1045800Y722572D01*
X1046075Y722769D01*
X1046305Y723031D01*
G01X1048202D02*
X1048478Y722704D01*
X1048799Y722507D01*
X1049213Y722441D01*
X1049626Y722572D01*
X1049948Y722835D01*
X1050177Y723294D01*
X1050223Y723819D01*
X1050131Y724344D01*
X1049902Y724672D01*
X1049580Y724934D01*
X1049259Y725000D01*
X1048937Y724934D01*
X1048524Y724672D01*
X1048661Y726378D01*
X1049902D01*
G01X1052258Y723228D02*
X1052533Y722769D01*
X1052901Y722507D01*
X1053315Y722441D01*
X1053682Y722507D01*
X1054049Y722835D01*
X1054279Y723228D01*
X1054325Y723622D01*
X1054233Y724081D01*
X1053911Y724409D01*
X1053590Y724541D01*
X1053177D01*
G01X1053590D02*
X1053866Y724737D01*
X1054095Y725065D01*
X1054187Y725459D01*
X1054095Y725853D01*
X1053866Y726181D01*
X1053452Y726378D01*
X1053039Y726312D01*
X1052626Y726050D01*
G01X1052258Y750328D02*
X1052533Y750131D01*
X1052855Y750000D01*
X1053222D01*
X1053636Y750197D01*
X1053957Y750525D01*
X1054187Y750919D01*
X1054371Y751575D01*
X1054417Y752165D01*
X1054325Y752756D01*
X1054187Y753150D01*
X1053911Y753543D01*
X1053590Y753806D01*
X1053269Y753937D01*
X1052947D01*
X1052626Y753806D01*
X1052350Y753609D01*
X1052120Y753346D01*
G01X1050223D02*
X1049948Y753674D01*
X1049626Y753871D01*
X1049213Y753937D01*
X1048799Y753806D01*
X1048478Y753543D01*
X1048248Y753084D01*
X1048202Y752559D01*
X1048294Y752034D01*
X1048524Y751706D01*
X1048845Y751444D01*
X1049167Y751378D01*
X1049488Y751444D01*
X1049902Y751706D01*
X1049764Y750000D01*
X1048524D01*
G01X1046030Y750656D02*
X1045754Y750263D01*
X1045432Y750066D01*
X1045065Y750000D01*
X1044606Y750131D01*
X1044284Y750459D01*
X1044192Y750853D01*
X1044238Y751247D01*
X1044422Y751575D01*
X1045341Y752231D01*
X1045754Y752690D01*
X1046030Y753346D01*
X1046121Y753937D01*
X1044192D01*
G01X1053642Y762546D02*
X1049705D01*
Y763694D01*
X1049902Y764061D01*
X1050164Y764291D01*
X1050689Y764383D01*
X1051214Y764291D01*
X1051542Y764015D01*
X1051739Y763694D01*
Y762546D01*
G01Y763694D02*
X1053642Y764383D01*
G01Y768071D02*
X1049705D01*
X1052526Y766372D01*
Y768669D01*
G01X1051548Y832677D02*
Y829856D01*
X1051732Y829265D01*
X1052100Y828871D01*
X1052559Y828740D01*
X1053019Y828871D01*
X1053386Y829265D01*
X1053570Y829856D01*
Y832677D01*
G01X1056615Y828740D02*
Y832677D01*
X1056064Y831890D01*
G01Y828740D02*
X1057166D01*
G01X1059798Y830380D02*
X1060120Y830840D01*
X1060395Y831102D01*
X1060763Y831233D01*
X1061084Y831102D01*
X1061314Y830840D01*
X1061498Y830446D01*
X1061544Y829987D01*
X1061498Y829593D01*
X1061314Y829199D01*
X1061038Y828871D01*
X1060717Y828740D01*
X1060349Y828871D01*
X1060028Y829265D01*
X1059844Y829856D01*
X1059798Y830512D01*
X1059890Y831365D01*
X1060028Y831824D01*
X1060257Y832283D01*
X1060579Y832611D01*
X1060900Y832677D01*
X1061222Y832546D01*
X1061452Y832218D01*
G01X1066037Y880249D02*
X1066313Y880052D01*
X1066635Y879921D01*
X1067002D01*
X1067415Y880118D01*
X1067737Y880446D01*
X1067967Y880840D01*
X1068150Y881496D01*
X1068196Y882087D01*
X1068104Y882677D01*
X1067967Y883071D01*
X1067691Y883465D01*
X1067370Y883727D01*
X1067048Y883858D01*
X1066726D01*
X1066405Y883727D01*
X1066130Y883530D01*
X1065900Y883268D01*
G01X1062992Y883858D02*
X1062670Y883793D01*
X1062303Y883596D01*
X1062074Y883268D01*
X1061981Y882808D01*
X1062074Y882349D01*
X1062349Y881956D01*
X1062763Y881759D01*
X1063222D01*
X1063497Y881627D01*
X1063727Y881299D01*
X1063819Y880840D01*
X1063681Y880381D01*
X1063359Y880052D01*
X1062992Y879921D01*
X1062625Y880052D01*
X1062303Y880381D01*
X1062165Y880840D01*
X1062257Y881299D01*
X1062487Y881627D01*
X1062763Y881759D01*
X1063222D01*
X1063635Y881956D01*
X1063911Y882349D01*
X1064003Y882808D01*
X1063911Y883268D01*
X1063681Y883596D01*
X1063314Y883793D01*
X1062992Y883858D01*
G01X1058936D02*
X1058615Y883793D01*
X1058247Y883596D01*
X1058018Y883268D01*
X1057926Y882808D01*
X1058018Y882349D01*
X1058293Y881956D01*
X1058707Y881759D01*
X1059166D01*
X1059441Y881627D01*
X1059671Y881299D01*
X1059763Y880840D01*
X1059625Y880381D01*
X1059304Y880052D01*
X1058936Y879921D01*
X1058569Y880052D01*
X1058247Y880381D01*
X1058109Y880840D01*
X1058201Y881299D01*
X1058431Y881627D01*
X1058707Y881759D01*
X1059166D01*
X1059579Y881956D01*
X1059855Y882349D01*
X1059947Y882808D01*
X1059855Y883268D01*
X1059625Y883596D01*
X1059258Y883793D01*
X1058936Y883858D01*
G01X1082546Y713498D02*
X1082743Y713774D01*
X1082874Y714096D01*
Y714463D01*
X1082677Y714876D01*
X1082349Y715198D01*
X1081956Y715428D01*
X1081299Y715611D01*
X1080709Y715657D01*
X1080118Y715565D01*
X1079724Y715428D01*
X1079331Y715152D01*
X1079068Y714831D01*
X1078937Y714509D01*
Y714187D01*
X1079068Y713866D01*
X1079265Y713591D01*
X1079528Y713361D01*
G01X1078937Y710453D02*
X1082874D01*
X1082087Y711004D01*
G01X1078937D02*
Y709902D01*
G01X1082874Y706397D02*
X1082743Y706765D01*
X1082415Y707040D01*
X1082021Y707224D01*
X1081496Y707362D01*
X1080906Y707408D01*
X1080315Y707362D01*
X1079790Y707224D01*
X1079396Y707040D01*
X1079068Y706765D01*
X1078937Y706397D01*
X1079068Y706030D01*
X1079396Y705754D01*
X1079790Y705570D01*
X1080315Y705433D01*
X1080906Y705387D01*
X1081496Y705433D01*
X1082021Y705570D01*
X1082415Y705754D01*
X1082743Y706030D01*
X1082874Y706397D01*
G01Y702341D02*
X1082743Y702709D01*
X1082415Y702984D01*
X1082021Y703168D01*
X1081496Y703306D01*
X1080906Y703352D01*
X1080315Y703306D01*
X1079790Y703168D01*
X1079396Y702984D01*
X1079068Y702709D01*
X1078937Y702341D01*
X1079068Y701974D01*
X1079396Y701698D01*
X1079790Y701515D01*
X1080315Y701377D01*
X1080906Y701331D01*
X1081496Y701377D01*
X1082021Y701515D01*
X1082415Y701698D01*
X1082743Y701974D01*
X1082874Y702341D01*
G01X1065328Y751969D02*
Y749147D01*
X1065512Y748556D01*
X1065879Y748163D01*
X1066339Y748031D01*
X1066798Y748163D01*
X1067165Y748556D01*
X1067349Y749147D01*
Y751969D01*
G01X1070394Y748031D02*
Y751969D01*
X1069843Y751181D01*
G01Y748031D02*
X1070946D01*
G01X1074450D02*
X1074772Y748097D01*
X1075139Y748294D01*
X1075369Y748622D01*
X1075461Y749081D01*
X1075369Y749541D01*
X1075093Y749934D01*
X1074680Y750131D01*
X1074221D01*
X1073945Y750263D01*
X1073715Y750591D01*
X1073624Y751050D01*
X1073761Y751509D01*
X1074083Y751837D01*
X1074450Y751969D01*
X1074818Y751837D01*
X1075139Y751509D01*
X1075277Y751050D01*
X1075185Y750591D01*
X1074956Y750263D01*
X1074680Y750131D01*
X1074221D01*
X1073807Y749934D01*
X1073532Y749541D01*
X1073440Y749081D01*
X1073532Y748622D01*
X1073761Y748294D01*
X1074129Y748097D01*
X1074450Y748031D01*
G01X1101285Y609908D02*
X1101010Y610105D01*
X1100688Y610236D01*
X1100321D01*
X1099907Y610039D01*
X1099586Y609711D01*
X1099356Y609318D01*
X1099172Y608661D01*
X1099126Y608071D01*
X1099219Y607480D01*
X1099356Y607087D01*
X1099632Y606693D01*
X1099953Y606430D01*
X1100275Y606299D01*
X1100596D01*
X1100918Y606430D01*
X1101193Y606627D01*
X1101423Y606890D01*
G01X1103320Y607087D02*
X1103596Y606627D01*
X1103963Y606365D01*
X1104377Y606299D01*
X1104744Y606365D01*
X1105111Y606693D01*
X1105341Y607087D01*
X1105387Y607480D01*
X1105295Y607939D01*
X1104974Y608268D01*
X1104652Y608399D01*
X1104239D01*
G01X1104652D02*
X1104928Y608596D01*
X1105157Y608924D01*
X1105249Y609318D01*
X1105157Y609711D01*
X1104928Y610039D01*
X1104515Y610236D01*
X1104101Y610170D01*
X1103688Y609908D01*
G01X1108387Y606299D02*
Y610236D01*
X1107835Y609449D01*
G01Y606299D02*
X1108938D01*
G01X1105407Y632218D02*
X1105683Y632021D01*
X1106005Y631890D01*
X1106372D01*
X1106785Y632087D01*
X1107107Y632415D01*
X1107337Y632808D01*
X1107520Y633465D01*
X1107567Y634055D01*
X1107474Y634646D01*
X1107337Y635039D01*
X1107061Y635433D01*
X1106740Y635696D01*
X1106418Y635827D01*
X1106096D01*
X1105775Y635696D01*
X1105500Y635499D01*
X1105270Y635236D01*
G01X1103373Y635039D02*
X1103097Y635499D01*
X1102730Y635761D01*
X1102316Y635827D01*
X1101949Y635761D01*
X1101581Y635433D01*
X1101352Y635039D01*
X1101306Y634646D01*
X1101398Y634187D01*
X1101719Y633858D01*
X1102041Y633727D01*
X1102454D01*
G01X1102041D02*
X1101765Y633530D01*
X1101535Y633202D01*
X1101444Y632808D01*
X1101535Y632415D01*
X1101765Y632087D01*
X1102178Y631890D01*
X1102592Y631956D01*
X1103005Y632218D01*
G01X1098306Y631890D02*
X1098674Y632021D01*
X1098949Y632349D01*
X1099133Y632743D01*
X1099271Y633268D01*
X1099317Y633858D01*
X1099271Y634449D01*
X1099133Y634974D01*
X1098949Y635368D01*
X1098674Y635696D01*
X1098306Y635827D01*
X1097939Y635696D01*
X1097663Y635368D01*
X1097480Y634974D01*
X1097342Y634449D01*
X1097296Y633858D01*
X1097342Y633268D01*
X1097480Y632743D01*
X1097663Y632349D01*
X1097939Y632021D01*
X1098306Y631890D01*
G01X1100814Y672900D02*
X1100538Y673097D01*
X1100217Y673228D01*
X1099849D01*
X1099436Y673031D01*
X1099114Y672704D01*
X1098885Y672310D01*
X1098701Y671654D01*
X1098655Y671063D01*
X1098747Y670472D01*
X1098885Y670079D01*
X1099160Y669685D01*
X1099481Y669422D01*
X1099803Y669291D01*
X1100125D01*
X1100446Y669422D01*
X1100722Y669619D01*
X1100952Y669882D01*
G01X1104410Y669291D02*
Y673228D01*
X1102711Y670407D01*
X1105007D01*
G01X1107042Y670931D02*
X1107364Y671391D01*
X1107639Y671654D01*
X1108007Y671785D01*
X1108328Y671654D01*
X1108558Y671391D01*
X1108742Y670997D01*
X1108788Y670538D01*
X1108742Y670144D01*
X1108558Y669750D01*
X1108282Y669422D01*
X1107961Y669291D01*
X1107593Y669422D01*
X1107272Y669816D01*
X1107088Y670407D01*
X1107042Y671063D01*
X1107134Y671916D01*
X1107272Y672375D01*
X1107502Y672835D01*
X1107823Y673163D01*
X1108144Y673228D01*
X1108466Y673097D01*
X1108696Y672769D01*
G01X1099317Y684711D02*
X1099041Y684908D01*
X1098720Y685039D01*
X1098352D01*
X1097939Y684843D01*
X1097617Y684515D01*
X1097388Y684121D01*
X1097204Y683465D01*
X1097158Y682874D01*
X1097250Y682283D01*
X1097388Y681890D01*
X1097663Y681496D01*
X1097985Y681233D01*
X1098306Y681102D01*
X1098628D01*
X1098949Y681233D01*
X1099225Y681430D01*
X1099455Y681693D01*
G01X1101352Y681890D02*
X1101627Y681430D01*
X1101995Y681168D01*
X1102408Y681102D01*
X1102776Y681168D01*
X1103143Y681496D01*
X1103373Y681890D01*
X1103419Y682283D01*
X1103327Y682743D01*
X1103005Y683071D01*
X1102684Y683202D01*
X1102270D01*
G01X1102684D02*
X1102959Y683399D01*
X1103189Y683727D01*
X1103281Y684121D01*
X1103189Y684515D01*
X1102959Y684843D01*
X1102546Y685039D01*
X1102133Y684974D01*
X1101719Y684711D01*
G01X1105637Y681561D02*
X1105959Y681233D01*
X1106326Y681102D01*
X1106694Y681233D01*
X1107015Y681627D01*
X1107245Y682218D01*
X1107337Y682808D01*
Y683530D01*
X1107245Y684121D01*
X1107015Y684646D01*
X1106740Y684908D01*
X1106418Y685039D01*
X1106051Y684908D01*
X1105775Y684646D01*
X1105591Y684252D01*
X1105500Y683727D01*
X1105591Y683268D01*
X1105821Y682808D01*
X1106096Y682546D01*
X1106418Y682480D01*
X1106785Y682611D01*
X1107061Y682940D01*
X1107337Y683530D01*
G01X1103439Y707021D02*
X1103715Y706824D01*
X1104036Y706693D01*
X1104404D01*
X1104817Y706890D01*
X1105139Y707218D01*
X1105368Y707611D01*
X1105552Y708268D01*
X1105598Y708858D01*
X1105506Y709449D01*
X1105368Y709843D01*
X1105093Y710236D01*
X1104771Y710499D01*
X1104450Y710630D01*
X1104128D01*
X1103807Y710499D01*
X1103531Y710302D01*
X1103301Y710039D01*
G01X1101404Y709843D02*
X1101129Y710302D01*
X1100761Y710564D01*
X1100348Y710630D01*
X1099980Y710564D01*
X1099613Y710236D01*
X1099383Y709843D01*
X1099337Y709449D01*
X1099429Y708990D01*
X1099751Y708661D01*
X1100072Y708530D01*
X1100485D01*
G01X1100072D02*
X1099796Y708333D01*
X1099567Y708006D01*
X1099475Y707611D01*
X1099567Y707218D01*
X1099796Y706890D01*
X1100210Y706693D01*
X1100623Y706759D01*
X1101037Y707021D01*
G01X1096338Y710630D02*
X1096016Y710564D01*
X1095649Y710367D01*
X1095419Y710039D01*
X1095327Y709580D01*
X1095419Y709121D01*
X1095695Y708727D01*
X1096108Y708530D01*
X1096567D01*
X1096843Y708399D01*
X1097073Y708071D01*
X1097165Y707611D01*
X1097027Y707152D01*
X1096705Y706824D01*
X1096338Y706693D01*
X1095970Y706824D01*
X1095649Y707152D01*
X1095511Y707611D01*
X1095603Y708071D01*
X1095833Y708399D01*
X1096108Y708530D01*
X1096567D01*
X1096981Y708727D01*
X1097256Y709121D01*
X1097348Y709580D01*
X1097256Y710039D01*
X1097027Y710367D01*
X1096659Y710564D01*
X1096338Y710630D01*
G01X1101285Y722113D02*
X1101010Y722310D01*
X1100688Y722441D01*
X1100321D01*
X1099907Y722244D01*
X1099586Y721916D01*
X1099356Y721522D01*
X1099172Y720866D01*
X1099126Y720276D01*
X1099219Y719685D01*
X1099356Y719291D01*
X1099632Y718898D01*
X1099953Y718635D01*
X1100275Y718504D01*
X1100596D01*
X1100918Y718635D01*
X1101193Y718832D01*
X1101423Y719094D01*
G01X1104882Y718504D02*
Y722441D01*
X1103182Y719619D01*
X1105479D01*
G01X1108387Y718504D02*
Y722441D01*
X1107835Y721654D01*
G01Y718504D02*
X1108938D01*
G01X1105407Y744422D02*
X1105683Y744226D01*
X1106005Y744094D01*
X1106372D01*
X1106785Y744291D01*
X1107107Y744619D01*
X1107337Y745013D01*
X1107520Y745669D01*
X1107567Y746260D01*
X1107474Y746850D01*
X1107337Y747244D01*
X1107061Y747638D01*
X1106740Y747900D01*
X1106418Y748031D01*
X1106096D01*
X1105775Y747900D01*
X1105500Y747704D01*
X1105270Y747441D01*
G01X1101811Y748031D02*
Y744094D01*
X1103511Y746916D01*
X1101214D01*
G01X1098306Y744094D02*
X1098674Y744226D01*
X1098949Y744554D01*
X1099133Y744948D01*
X1099271Y745472D01*
X1099317Y746063D01*
X1099271Y746654D01*
X1099133Y747178D01*
X1098949Y747572D01*
X1098674Y747900D01*
X1098306Y748031D01*
X1097939Y747900D01*
X1097663Y747572D01*
X1097480Y747178D01*
X1097342Y746654D01*
X1097296Y746063D01*
X1097342Y745472D01*
X1097480Y744948D01*
X1097663Y744554D01*
X1097939Y744226D01*
X1098306Y744094D01*
G01X1099317Y759515D02*
X1099041Y759711D01*
X1098720Y759843D01*
X1098352D01*
X1097939Y759646D01*
X1097617Y759318D01*
X1097388Y758924D01*
X1097204Y758268D01*
X1097158Y757677D01*
X1097250Y757087D01*
X1097388Y756693D01*
X1097663Y756299D01*
X1097985Y756037D01*
X1098306Y755906D01*
X1098628D01*
X1098949Y756037D01*
X1099225Y756233D01*
X1099455Y756496D01*
G01X1101352Y756693D02*
X1101627Y756233D01*
X1101995Y755971D01*
X1102408Y755906D01*
X1102776Y755971D01*
X1103143Y756299D01*
X1103373Y756693D01*
X1103419Y757087D01*
X1103327Y757546D01*
X1103005Y757874D01*
X1102684Y758005D01*
X1102270D01*
G01X1102684D02*
X1102959Y758202D01*
X1103189Y758530D01*
X1103281Y758924D01*
X1103189Y759318D01*
X1102959Y759646D01*
X1102546Y759843D01*
X1102133Y759777D01*
X1101719Y759515D01*
G01X1105407Y756693D02*
X1105683Y756233D01*
X1106051Y755971D01*
X1106464Y755906D01*
X1106831Y755971D01*
X1107199Y756299D01*
X1107429Y756693D01*
X1107474Y757087D01*
X1107383Y757546D01*
X1107061Y757874D01*
X1106740Y758005D01*
X1106326D01*
G01X1106740D02*
X1107015Y758202D01*
X1107245Y758530D01*
X1107337Y758924D01*
X1107245Y759318D01*
X1107015Y759646D01*
X1106602Y759843D01*
X1106189Y759777D01*
X1105775Y759515D01*
G01X1105407Y781824D02*
X1105683Y781627D01*
X1106005Y781496D01*
X1106372D01*
X1106785Y781693D01*
X1107107Y782021D01*
X1107337Y782415D01*
X1107520Y783071D01*
X1107567Y783661D01*
X1107474Y784252D01*
X1107337Y784646D01*
X1107061Y785039D01*
X1106740Y785302D01*
X1106418Y785433D01*
X1106096D01*
X1105775Y785302D01*
X1105500Y785105D01*
X1105270Y784843D01*
G01X1103373Y784646D02*
X1103097Y785105D01*
X1102730Y785367D01*
X1102316Y785433D01*
X1101949Y785367D01*
X1101581Y785039D01*
X1101352Y784646D01*
X1101306Y784252D01*
X1101398Y783793D01*
X1101719Y783465D01*
X1102041Y783333D01*
X1102454D01*
G01X1102041D02*
X1101765Y783137D01*
X1101535Y782809D01*
X1101444Y782415D01*
X1101535Y782021D01*
X1101765Y781693D01*
X1102178Y781496D01*
X1102592Y781562D01*
X1103005Y781824D01*
G01X1099179Y782152D02*
X1098904Y781759D01*
X1098582Y781562D01*
X1098215Y781496D01*
X1097755Y781627D01*
X1097433Y781956D01*
X1097342Y782349D01*
X1097388Y782743D01*
X1097571Y783071D01*
X1098490Y783727D01*
X1098904Y784186D01*
X1099179Y784843D01*
X1099271Y785433D01*
X1097342D01*
G01X1099384Y801804D02*
X1099659Y801607D01*
X1099981Y801476D01*
X1100348D01*
X1100762Y801673D01*
X1101083Y802001D01*
X1101313Y802395D01*
X1101497Y803051D01*
X1101543Y803642D01*
X1101451Y804232D01*
X1101313Y804626D01*
X1101037Y805020D01*
X1100716Y805282D01*
X1100394Y805413D01*
X1100073D01*
X1099752Y805282D01*
X1099476Y805085D01*
X1099246Y804823D01*
G01X1096339Y805413D02*
X1096017Y805348D01*
X1095650Y805151D01*
X1095420Y804823D01*
X1095328Y804363D01*
X1095420Y803904D01*
X1095696Y803511D01*
X1096109Y803314D01*
X1096568D01*
X1096844Y803182D01*
X1097074Y802854D01*
X1097165Y802395D01*
X1097028Y801936D01*
X1096706Y801607D01*
X1096339Y801476D01*
X1095971Y801607D01*
X1095650Y801936D01*
X1095512Y802395D01*
X1095604Y802854D01*
X1095833Y803182D01*
X1096109Y803314D01*
X1096568D01*
X1096981Y803511D01*
X1097257Y803904D01*
X1097349Y804363D01*
X1097257Y804823D01*
X1097028Y805151D01*
X1096660Y805348D01*
X1096339Y805413D01*
G01X1092283D02*
Y801476D01*
X1092834Y802264D01*
G01Y805413D02*
X1091731D01*
G01X1090144Y806365D02*
X1089868Y806562D01*
X1089546Y806693D01*
X1089179D01*
X1088766Y806496D01*
X1088444Y806168D01*
X1088215Y805774D01*
X1088031Y805118D01*
X1087985Y804528D01*
X1088077Y803937D01*
X1088215Y803543D01*
X1088490Y803150D01*
X1088811Y802887D01*
X1089133Y802756D01*
X1089455D01*
X1089776Y802887D01*
X1090052Y803084D01*
X1090281Y803346D01*
G01X1093189Y802756D02*
X1093511Y802822D01*
X1093878Y803019D01*
X1094107Y803346D01*
X1094200Y803806D01*
X1094107Y804265D01*
X1093832Y804659D01*
X1093419Y804856D01*
X1092959D01*
X1092684Y804987D01*
X1092454Y805315D01*
X1092362Y805774D01*
X1092500Y806233D01*
X1092822Y806562D01*
X1093189Y806693D01*
X1093556Y806562D01*
X1093878Y806233D01*
X1094016Y805774D01*
X1093924Y805315D01*
X1093694Y804987D01*
X1093419Y804856D01*
X1092959D01*
X1092546Y804659D01*
X1092270Y804265D01*
X1092178Y803806D01*
X1092270Y803346D01*
X1092500Y803019D01*
X1092867Y802822D01*
X1093189Y802756D01*
G01X1096372Y806037D02*
X1096648Y806430D01*
X1096969Y806627D01*
X1097337Y806693D01*
X1097796Y806562D01*
X1098118Y806233D01*
X1098209Y805840D01*
X1098163Y805446D01*
X1097980Y805118D01*
X1097061Y804462D01*
X1096648Y804003D01*
X1096372Y803346D01*
X1096280Y802756D01*
X1098209D01*
G01X1089567Y821503D02*
X1085630D01*
Y822651D01*
X1085827Y823019D01*
X1086089Y823248D01*
X1086614Y823340D01*
X1087139Y823248D01*
X1087467Y822972D01*
X1087664Y822651D01*
Y821503D01*
G01Y822651D02*
X1089567Y823340D01*
G01Y826477D02*
X1085630D01*
X1086417Y825926D01*
G01X1089567D02*
Y827028D01*
G01X1088976Y829522D02*
X1089304Y829798D01*
X1089501Y830120D01*
X1089567Y830533D01*
X1089436Y830946D01*
X1089173Y831268D01*
X1088714Y831498D01*
X1088189Y831544D01*
X1087664Y831452D01*
X1087336Y831222D01*
X1087074Y830900D01*
X1087008Y830579D01*
X1087074Y830257D01*
X1087336Y829844D01*
X1085630Y829982D01*
Y831222D01*
G01X1098753Y908372D02*
X1098556Y908096D01*
X1098425Y907775D01*
Y907407D01*
X1098622Y906994D01*
X1098950Y906672D01*
X1099344Y906443D01*
X1100000Y906259D01*
X1100591Y906213D01*
X1101181Y906305D01*
X1101575Y906443D01*
X1101969Y906719D01*
X1102231Y907040D01*
X1102362Y907361D01*
Y907683D01*
X1102231Y908004D01*
X1102034Y908280D01*
X1101772Y908510D01*
G01X1102362Y911417D02*
X1102296Y911739D01*
X1102100Y912106D01*
X1101772Y912336D01*
X1101312Y912428D01*
X1100853Y912336D01*
X1100459Y912060D01*
X1100263Y911647D01*
Y911188D01*
X1100131Y910912D01*
X1099803Y910682D01*
X1099344Y910591D01*
X1098885Y910728D01*
X1098556Y911050D01*
X1098425Y911417D01*
X1098556Y911785D01*
X1098885Y912106D01*
X1099344Y912244D01*
X1099803Y912152D01*
X1100131Y911922D01*
X1100263Y911647D01*
Y911188D01*
X1100459Y910774D01*
X1100853Y910499D01*
X1101312Y910407D01*
X1101772Y910499D01*
X1102100Y910728D01*
X1102296Y911096D01*
X1102362Y911417D01*
G01X1101903Y914693D02*
X1102231Y915014D01*
X1102362Y915381D01*
X1102231Y915749D01*
X1101837Y916070D01*
X1101247Y916300D01*
X1100656Y916392D01*
X1099934D01*
X1099344Y916300D01*
X1098819Y916070D01*
X1098556Y915795D01*
X1098425Y915473D01*
X1098556Y915106D01*
X1098819Y914830D01*
X1099213Y914646D01*
X1099738Y914555D01*
X1100197Y914646D01*
X1100656Y914876D01*
X1100919Y915152D01*
X1100984Y915473D01*
X1100853Y915841D01*
X1100525Y916116D01*
X1099934Y916392D01*
G01X1102782Y645341D02*
X1102507Y645538D01*
X1102185Y645669D01*
X1101818D01*
X1101404Y645472D01*
X1101083Y645144D01*
X1100853Y644751D01*
X1100669Y644094D01*
X1100623Y643504D01*
X1100715Y642913D01*
X1100853Y642520D01*
X1101129Y642126D01*
X1101450Y641863D01*
X1101772Y641732D01*
X1102093D01*
X1102415Y641863D01*
X1102690Y642060D01*
X1102920Y642323D01*
G01X1106379Y641732D02*
Y645669D01*
X1104679Y642848D01*
X1106976D01*
G01X1109792Y641732D02*
X1109883Y642585D01*
X1110021Y643307D01*
X1110205Y643963D01*
X1110435Y644685D01*
X1110802Y645669D01*
X1108965D01*
G01X1118478Y710630D02*
Y707808D01*
X1118661Y707218D01*
X1119029Y706824D01*
X1119488Y706693D01*
X1119948Y706824D01*
X1120315Y707218D01*
X1120499Y707808D01*
Y710630D01*
G01X1123544Y706693D02*
Y710630D01*
X1122993Y709843D01*
G01Y706693D02*
X1124095D01*
G01X1126819Y707152D02*
X1127141Y706824D01*
X1127508Y706693D01*
X1127876Y706824D01*
X1128197Y707218D01*
X1128427Y707808D01*
X1128519Y708399D01*
Y709121D01*
X1128427Y709711D01*
X1128197Y710236D01*
X1127922Y710499D01*
X1127600Y710630D01*
X1127233Y710499D01*
X1126957Y710236D01*
X1126773Y709843D01*
X1126681Y709317D01*
X1126773Y708858D01*
X1127003Y708399D01*
X1127278Y708136D01*
X1127600Y708071D01*
X1127967Y708202D01*
X1128243Y708530D01*
X1128519Y709121D01*
G01X1108635Y816929D02*
Y814107D01*
X1108819Y813517D01*
X1109186Y813123D01*
X1109646Y812992D01*
X1110105Y813123D01*
X1110472Y813517D01*
X1110656Y814107D01*
Y816929D01*
G01X1114253Y812992D02*
Y816929D01*
X1112553Y814107D01*
X1114850D01*
G01X1116747Y813583D02*
X1117022Y813255D01*
X1117344Y813058D01*
X1117757Y812992D01*
X1118171Y813123D01*
X1118493Y813386D01*
X1118722Y813845D01*
X1118768Y814370D01*
X1118676Y814895D01*
X1118446Y815223D01*
X1118125Y815485D01*
X1117804Y815551D01*
X1117482Y815485D01*
X1117069Y815223D01*
X1117206Y816929D01*
X1118446D01*
G01X1124383Y635827D02*
Y633005D01*
X1124567Y632415D01*
X1124934Y632021D01*
X1125394Y631890D01*
X1125853Y632021D01*
X1126220Y632415D01*
X1126404Y633005D01*
Y635827D01*
G01X1128577Y635170D02*
X1128852Y635564D01*
X1129174Y635761D01*
X1129541Y635827D01*
X1130001Y635696D01*
X1130322Y635367D01*
X1130414Y634974D01*
X1130368Y634580D01*
X1130185Y634252D01*
X1129266Y633596D01*
X1128852Y633137D01*
X1128577Y632480D01*
X1128485Y631890D01*
X1130414D01*
G01X1132495Y632677D02*
X1132770Y632218D01*
X1133138Y631956D01*
X1133552Y631890D01*
X1133919Y631956D01*
X1134286Y632283D01*
X1134516Y632677D01*
X1134562Y633071D01*
X1134470Y633530D01*
X1134148Y633858D01*
X1133827Y633989D01*
X1133414D01*
G01X1133827D02*
X1134103Y634186D01*
X1134332Y634514D01*
X1134424Y634908D01*
X1134332Y635302D01*
X1134103Y635630D01*
X1133689Y635827D01*
X1133276Y635761D01*
X1132863Y635499D01*
G01X1122415Y673228D02*
Y670407D01*
X1122598Y669816D01*
X1122966Y669422D01*
X1123425Y669291D01*
X1123885Y669422D01*
X1124252Y669816D01*
X1124436Y670407D01*
Y673228D01*
G01X1127481Y669291D02*
Y673228D01*
X1126930Y672441D01*
G01Y669291D02*
X1128032D01*
G01X1130526Y669882D02*
X1130802Y669554D01*
X1131124Y669357D01*
X1131537Y669291D01*
X1131950Y669422D01*
X1132272Y669685D01*
X1132502Y670144D01*
X1132548Y670669D01*
X1132456Y671194D01*
X1132226Y671522D01*
X1131904Y671785D01*
X1131583Y671850D01*
X1131261Y671785D01*
X1130848Y671522D01*
X1130986Y673228D01*
X1132226D01*
G01X1122415Y748031D02*
Y745210D01*
X1122598Y744619D01*
X1122966Y744226D01*
X1123425Y744094D01*
X1123885Y744226D01*
X1124252Y744619D01*
X1124436Y745210D01*
Y748031D01*
G01X1126608Y747375D02*
X1126884Y747769D01*
X1127206Y747966D01*
X1127573Y748031D01*
X1128032Y747900D01*
X1128354Y747572D01*
X1128446Y747178D01*
X1128400Y746785D01*
X1128216Y746457D01*
X1127297Y745800D01*
X1126884Y745341D01*
X1126608Y744685D01*
X1126517Y744094D01*
X1128446D01*
G01X1131537Y748031D02*
X1131170Y747900D01*
X1130894Y747572D01*
X1130710Y747178D01*
X1130572Y746654D01*
X1130526Y746063D01*
X1130572Y745472D01*
X1130710Y744948D01*
X1130894Y744554D01*
X1131170Y744226D01*
X1131537Y744094D01*
X1131904Y744226D01*
X1132180Y744554D01*
X1132364Y744948D01*
X1132502Y745472D01*
X1132548Y746063D01*
X1132502Y746654D01*
X1132364Y747178D01*
X1132180Y747572D01*
X1131904Y747900D01*
X1131537Y748031D01*
G01X1120446Y783465D02*
Y780643D01*
X1120630Y780052D01*
X1120997Y779659D01*
X1121457Y779528D01*
X1121916Y779659D01*
X1122283Y780052D01*
X1122467Y780643D01*
Y783465D01*
G01X1124640Y782808D02*
X1124915Y783202D01*
X1125237Y783399D01*
X1125604Y783465D01*
X1126064Y783333D01*
X1126385Y783005D01*
X1126477Y782611D01*
X1126431Y782218D01*
X1126248Y781890D01*
X1125329Y781233D01*
X1124915Y780774D01*
X1124640Y780118D01*
X1124548Y779528D01*
X1126477D01*
G01X1130120D02*
Y783465D01*
X1128420Y780643D01*
X1130717D01*
G01X1137205Y841922D02*
X1141142D01*
Y840774D01*
X1140945Y840407D01*
X1140682Y840177D01*
X1140157Y840085D01*
X1139633Y840177D01*
X1139304Y840453D01*
X1139107Y840774D01*
Y841922D01*
G01Y840774D02*
X1137205Y840085D01*
G01Y836948D02*
X1141142D01*
X1140354Y837499D01*
G01X1137205D02*
Y836397D01*
G01Y832341D02*
X1141142D01*
X1138320Y834041D01*
Y831744D01*
G01X1166431Y718832D02*
X1166707Y718635D01*
X1167028Y718504D01*
X1167396D01*
X1167809Y718701D01*
X1168131Y719029D01*
X1168360Y719422D01*
X1168544Y720079D01*
X1168590Y720669D01*
X1168498Y721260D01*
X1168360Y721654D01*
X1168085Y722047D01*
X1167763Y722310D01*
X1167442Y722441D01*
X1167120D01*
X1166799Y722310D01*
X1166523Y722113D01*
X1166293Y721850D01*
G01X1164259Y720801D02*
X1163937Y720341D01*
X1163661Y720079D01*
X1163294Y719948D01*
X1162972Y720079D01*
X1162743Y720341D01*
X1162559Y720735D01*
X1162513Y721194D01*
X1162559Y721588D01*
X1162743Y721982D01*
X1163019Y722310D01*
X1163340Y722441D01*
X1163707Y722310D01*
X1164029Y721916D01*
X1164213Y721326D01*
X1164259Y720669D01*
X1164167Y719817D01*
X1164029Y719357D01*
X1163799Y718898D01*
X1163478Y718570D01*
X1163156Y718504D01*
X1162835Y718635D01*
X1162605Y718963D01*
G01X1159330Y722441D02*
X1159008Y722375D01*
X1158641Y722178D01*
X1158411Y721850D01*
X1158319Y721391D01*
X1158411Y720932D01*
X1158687Y720538D01*
X1159100Y720341D01*
X1159559D01*
X1159835Y720210D01*
X1160065Y719882D01*
X1160157Y719422D01*
X1160019Y718963D01*
X1159697Y718635D01*
X1159330Y718504D01*
X1158963Y718635D01*
X1158641Y718963D01*
X1158503Y719422D01*
X1158595Y719882D01*
X1158825Y720210D01*
X1159100Y720341D01*
X1159559D01*
X1159973Y720538D01*
X1160248Y720932D01*
X1160341Y721391D01*
X1160248Y721850D01*
X1160019Y722178D01*
X1159652Y722375D01*
X1159330Y722441D01*
G01X1151575Y740525D02*
X1154396D01*
X1154987Y740709D01*
X1155381Y741076D01*
X1155512Y741535D01*
X1155381Y741995D01*
X1154987Y742362D01*
X1154396Y742546D01*
X1151575D01*
G01X1154724Y744581D02*
X1155184Y744856D01*
X1155446Y745224D01*
X1155512Y745637D01*
X1155446Y746005D01*
X1155118Y746372D01*
X1154724Y746602D01*
X1154331Y746648D01*
X1153872Y746556D01*
X1153543Y746234D01*
X1153412Y745913D01*
Y745500D01*
G01Y745913D02*
X1153215Y746189D01*
X1152887Y746418D01*
X1152493Y746510D01*
X1152100Y746418D01*
X1151772Y746189D01*
X1151575Y745775D01*
X1151641Y745362D01*
X1151903Y744948D01*
G01X1155512Y749647D02*
X1155446Y749969D01*
X1155249Y750336D01*
X1154921Y750566D01*
X1154462Y750658D01*
X1154003Y750566D01*
X1153609Y750290D01*
X1153412Y749877D01*
Y749418D01*
X1153281Y749142D01*
X1152953Y748912D01*
X1152493Y748820D01*
X1152034Y748958D01*
X1151706Y749280D01*
X1151575Y749647D01*
X1151706Y750015D01*
X1152034Y750336D01*
X1152493Y750474D01*
X1152953Y750382D01*
X1153281Y750152D01*
X1153412Y749877D01*
Y749418D01*
X1153609Y749004D01*
X1154003Y748729D01*
X1154462Y748637D01*
X1154921Y748729D01*
X1155249Y748958D01*
X1155446Y749326D01*
X1155512Y749647D01*
G01X1158372Y777231D02*
X1158096Y777428D01*
X1157775Y777559D01*
X1157407D01*
X1156994Y777362D01*
X1156672Y777034D01*
X1156443Y776641D01*
X1156259Y775984D01*
X1156213Y775394D01*
X1156305Y774803D01*
X1156443Y774409D01*
X1156719Y774016D01*
X1157040Y773753D01*
X1157361Y773622D01*
X1157683D01*
X1158004Y773753D01*
X1158280Y773950D01*
X1158510Y774213D01*
G01X1160544Y775262D02*
X1160866Y775722D01*
X1161142Y775984D01*
X1161509Y776115D01*
X1161831Y775984D01*
X1162060Y775722D01*
X1162244Y775328D01*
X1162290Y774869D01*
X1162244Y774475D01*
X1162060Y774081D01*
X1161785Y773753D01*
X1161463Y773622D01*
X1161096Y773753D01*
X1160774Y774147D01*
X1160591Y774737D01*
X1160544Y775394D01*
X1160637Y776246D01*
X1160774Y776706D01*
X1161004Y777165D01*
X1161326Y777493D01*
X1161647Y777559D01*
X1161969Y777428D01*
X1162198Y777100D01*
G01X1164693Y774081D02*
X1165014Y773753D01*
X1165381Y773622D01*
X1165749Y773753D01*
X1166070Y774147D01*
X1166300Y774737D01*
X1166392Y775328D01*
Y776050D01*
X1166300Y776641D01*
X1166070Y777165D01*
X1165795Y777428D01*
X1165473Y777559D01*
X1165106Y777428D01*
X1164830Y777165D01*
X1164646Y776772D01*
X1164555Y776246D01*
X1164646Y775787D01*
X1164876Y775328D01*
X1165152Y775065D01*
X1165473Y775000D01*
X1165841Y775131D01*
X1166116Y775459D01*
X1166392Y776050D01*
G01X1144068Y821679D02*
X1143871Y821404D01*
X1143740Y821082D01*
Y820715D01*
X1143937Y820301D01*
X1144265Y819980D01*
X1144659Y819750D01*
X1145315Y819566D01*
X1145906Y819520D01*
X1146496Y819612D01*
X1146890Y819750D01*
X1147283Y820026D01*
X1147546Y820347D01*
X1147677Y820669D01*
Y820990D01*
X1147546Y821311D01*
X1147349Y821587D01*
X1147087Y821817D01*
G01X1147677Y824724D02*
X1147611Y825046D01*
X1147415Y825413D01*
X1147087Y825643D01*
X1146627Y825735D01*
X1146168Y825643D01*
X1145774Y825367D01*
X1145578Y824954D01*
Y824495D01*
X1145446Y824219D01*
X1145118Y823989D01*
X1144659Y823898D01*
X1144200Y824035D01*
X1143871Y824357D01*
X1143740Y824724D01*
X1143871Y825092D01*
X1144200Y825413D01*
X1144659Y825551D01*
X1145118Y825459D01*
X1145446Y825230D01*
X1145578Y824954D01*
Y824495D01*
X1145774Y824081D01*
X1146168Y823806D01*
X1146627Y823714D01*
X1147087Y823806D01*
X1147415Y824035D01*
X1147611Y824403D01*
X1147677Y824724D01*
G01X1146890Y827770D02*
X1147349Y828045D01*
X1147611Y828413D01*
X1147677Y828826D01*
X1147611Y829194D01*
X1147283Y829561D01*
X1146890Y829791D01*
X1146496Y829837D01*
X1146037Y829745D01*
X1145709Y829423D01*
X1145578Y829102D01*
Y828689D01*
G01Y829102D02*
X1145381Y829378D01*
X1145053Y829607D01*
X1144659Y829699D01*
X1144265Y829607D01*
X1143937Y829378D01*
X1143740Y828964D01*
X1143806Y828551D01*
X1144068Y828137D01*
G01Y851679D02*
X1143871Y851404D01*
X1143740Y851082D01*
Y850715D01*
X1143937Y850301D01*
X1144265Y849980D01*
X1144659Y849750D01*
X1145315Y849566D01*
X1145906Y849520D01*
X1146496Y849612D01*
X1146890Y849750D01*
X1147283Y850026D01*
X1147546Y850347D01*
X1147677Y850669D01*
Y850990D01*
X1147546Y851311D01*
X1147349Y851587D01*
X1147087Y851817D01*
G01X1147677Y854633D02*
X1146824Y854724D01*
X1146102Y854862D01*
X1145446Y855046D01*
X1144724Y855276D01*
X1143740Y855643D01*
Y853806D01*
G01X1147218Y858000D02*
X1147546Y858321D01*
X1147677Y858689D01*
X1147546Y859056D01*
X1147152Y859378D01*
X1146562Y859607D01*
X1145971Y859699D01*
X1145249D01*
X1144659Y859607D01*
X1144134Y859378D01*
X1143871Y859102D01*
X1143740Y858780D01*
X1143871Y858413D01*
X1144134Y858137D01*
X1144528Y857954D01*
X1145053Y857862D01*
X1145512Y857954D01*
X1145971Y858183D01*
X1146234Y858459D01*
X1146299Y858780D01*
X1146168Y859148D01*
X1145840Y859423D01*
X1145249Y859699D01*
G01X1168215Y600066D02*
X1167939Y600263D01*
X1167617Y600394D01*
X1167250D01*
X1166837Y600197D01*
X1166515Y599869D01*
X1166285Y599475D01*
X1166102Y598819D01*
X1166056Y598228D01*
X1166148Y597638D01*
X1166285Y597244D01*
X1166561Y596850D01*
X1166882Y596588D01*
X1167204Y596457D01*
X1167526D01*
X1167847Y596588D01*
X1168122Y596785D01*
X1168352Y597047D01*
G01X1170249D02*
X1170525Y596719D01*
X1170846Y596522D01*
X1171260Y596457D01*
X1171673Y596588D01*
X1171995Y596850D01*
X1172224Y597310D01*
X1172270Y597835D01*
X1172178Y598359D01*
X1171949Y598688D01*
X1171627Y598950D01*
X1171306Y599016D01*
X1170984Y598950D01*
X1170571Y598688D01*
X1170709Y600394D01*
X1171949D01*
G01X1175316Y596457D02*
Y600394D01*
X1174765Y599606D01*
G01Y596457D02*
X1175867D01*
G01X1174305Y622375D02*
X1174581Y622178D01*
X1174902Y622047D01*
X1175270D01*
X1175683Y622244D01*
X1176005Y622572D01*
X1176234Y622966D01*
X1176418Y623622D01*
X1176464Y624213D01*
X1176372Y624803D01*
X1176234Y625197D01*
X1175959Y625591D01*
X1175637Y625853D01*
X1175316Y625984D01*
X1174994D01*
X1174673Y625853D01*
X1174397Y625656D01*
X1174167Y625394D01*
G01X1172270D02*
X1171995Y625722D01*
X1171673Y625919D01*
X1171260Y625984D01*
X1170846Y625853D01*
X1170525Y625591D01*
X1170295Y625131D01*
X1170249Y624606D01*
X1170341Y624081D01*
X1170571Y623753D01*
X1170893Y623491D01*
X1171214Y623425D01*
X1171535Y623491D01*
X1171949Y623753D01*
X1171811Y622047D01*
X1170571D01*
G01X1167204D02*
X1167571Y622178D01*
X1167847Y622507D01*
X1168031Y622900D01*
X1168169Y623425D01*
X1168215Y624016D01*
X1168169Y624606D01*
X1168031Y625131D01*
X1167847Y625525D01*
X1167571Y625853D01*
X1167204Y625984D01*
X1166837Y625853D01*
X1166561Y625525D01*
X1166377Y625131D01*
X1166239Y624606D01*
X1166193Y624016D01*
X1166239Y623425D01*
X1166377Y622900D01*
X1166561Y622507D01*
X1166837Y622178D01*
X1167204Y622047D01*
G01X1167323Y685407D02*
X1170144D01*
X1170735Y685591D01*
X1171129Y685958D01*
X1171260Y686417D01*
X1171129Y686877D01*
X1170735Y687244D01*
X1170144Y687428D01*
X1167323D01*
G01X1170472Y689463D02*
X1170932Y689738D01*
X1171194Y690106D01*
X1171260Y690519D01*
X1171194Y690887D01*
X1170866Y691254D01*
X1170472Y691484D01*
X1170079Y691530D01*
X1169620Y691438D01*
X1169291Y691116D01*
X1169160Y690795D01*
Y690381D01*
G01Y690795D02*
X1168963Y691070D01*
X1168635Y691300D01*
X1168241Y691392D01*
X1167848Y691300D01*
X1167520Y691070D01*
X1167323Y690657D01*
X1167389Y690244D01*
X1167651Y689830D01*
G01X1169620Y693656D02*
X1169160Y693978D01*
X1168898Y694254D01*
X1168767Y694621D01*
X1168898Y694943D01*
X1169160Y695172D01*
X1169554Y695356D01*
X1170013Y695402D01*
X1170407Y695356D01*
X1170801Y695172D01*
X1171129Y694896D01*
X1171260Y694575D01*
X1171129Y694207D01*
X1170735Y693886D01*
X1170144Y693702D01*
X1169488Y693656D01*
X1168635Y693748D01*
X1168176Y693886D01*
X1167717Y694116D01*
X1167389Y694437D01*
X1167323Y694759D01*
X1167454Y695080D01*
X1167782Y695310D01*
G01X1175656Y714567D02*
Y718504D01*
X1176804D01*
X1177172Y718307D01*
X1177402Y718044D01*
X1177493Y717520D01*
X1177402Y716995D01*
X1177126Y716667D01*
X1176804Y716470D01*
X1175656D01*
G01X1176804D02*
X1177493Y714567D01*
G01X1180631D02*
Y718504D01*
X1180080Y717717D01*
G01Y714567D02*
X1181182D01*
G01X1184687D02*
Y718504D01*
X1184135Y717717D01*
G01Y714567D02*
X1185238D01*
G01X1163753Y836614D02*
Y833793D01*
X1163937Y833202D01*
X1164304Y832808D01*
X1164764Y832677D01*
X1165223Y832808D01*
X1165591Y833202D01*
X1165774Y833793D01*
Y836614D01*
G01X1169371Y832677D02*
Y836614D01*
X1167671Y833793D01*
X1169968D01*
G01X1172784Y832677D02*
X1172876Y833530D01*
X1173013Y834252D01*
X1173197Y834908D01*
X1173427Y835630D01*
X1173794Y836614D01*
X1171957D01*
G01X1163753Y866142D02*
Y863320D01*
X1163937Y862730D01*
X1164304Y862336D01*
X1164764Y862205D01*
X1165223Y862336D01*
X1165591Y862730D01*
X1165774Y863320D01*
Y866142D01*
G01X1169371Y862205D02*
Y866142D01*
X1167671Y863320D01*
X1169968D01*
G01X1172003Y863845D02*
X1172324Y864304D01*
X1172600Y864567D01*
X1172967Y864698D01*
X1173289Y864567D01*
X1173519Y864304D01*
X1173702Y863911D01*
X1173748Y863452D01*
X1173702Y863058D01*
X1173519Y862664D01*
X1173243Y862336D01*
X1172922Y862205D01*
X1172554Y862336D01*
X1172233Y862730D01*
X1172049Y863320D01*
X1172003Y863976D01*
X1172095Y864829D01*
X1172233Y865289D01*
X1172462Y865748D01*
X1172784Y866076D01*
X1173105Y866142D01*
X1173427Y866011D01*
X1173656Y865682D01*
G01X1191837Y525263D02*
X1191561Y525459D01*
X1191239Y525591D01*
X1190872D01*
X1190459Y525394D01*
X1190137Y525066D01*
X1189907Y524672D01*
X1189724Y524016D01*
X1189678Y523425D01*
X1189770Y522835D01*
X1189907Y522441D01*
X1190183Y522047D01*
X1190504Y521785D01*
X1190826Y521654D01*
X1191148D01*
X1191469Y521785D01*
X1191744Y521981D01*
X1191974Y522244D01*
G01X1194790Y521654D02*
X1194882Y522507D01*
X1195020Y523228D01*
X1195204Y523885D01*
X1195433Y524606D01*
X1195800Y525591D01*
X1193963D01*
G01X1198065Y523294D02*
X1198387Y523753D01*
X1198662Y524016D01*
X1199030Y524147D01*
X1199351Y524016D01*
X1199581Y523753D01*
X1199765Y523359D01*
X1199811Y522900D01*
X1199765Y522507D01*
X1199581Y522113D01*
X1199305Y521785D01*
X1198984Y521654D01*
X1198616Y521785D01*
X1198295Y522178D01*
X1198111Y522769D01*
X1198065Y523425D01*
X1198157Y524278D01*
X1198295Y524737D01*
X1198524Y525197D01*
X1198846Y525525D01*
X1199167Y525591D01*
X1199489Y525459D01*
X1199719Y525131D01*
G01X1190453Y554554D02*
X1186516D01*
Y555702D01*
X1186713Y556070D01*
X1186975Y556299D01*
X1187500Y556391D01*
X1188025Y556299D01*
X1188353Y556024D01*
X1188550Y555702D01*
Y554554D01*
G01Y555702D02*
X1190453Y556391D01*
G01Y559528D02*
X1186516D01*
X1187303Y558977D01*
G01X1190453D02*
Y560080D01*
G01X1189665Y562574D02*
X1190125Y562849D01*
X1190387Y563217D01*
X1190453Y563630D01*
X1190387Y563998D01*
X1190059Y564365D01*
X1189665Y564595D01*
X1189272Y564641D01*
X1188813Y564549D01*
X1188484Y564227D01*
X1188353Y563906D01*
Y563493D01*
G01Y563906D02*
X1188156Y564181D01*
X1187828Y564411D01*
X1187434Y564503D01*
X1187041Y564411D01*
X1186713Y564181D01*
X1186516Y563768D01*
X1186581Y563355D01*
X1186844Y562941D01*
G01X1189344Y624016D02*
Y621194D01*
X1189528Y620604D01*
X1189895Y620210D01*
X1190354Y620079D01*
X1190814Y620210D01*
X1191181Y620604D01*
X1191365Y621194D01*
Y624016D01*
G01X1194410Y620079D02*
Y624016D01*
X1193859Y623228D01*
G01Y620079D02*
X1194961D01*
G01X1198374D02*
X1198466Y620932D01*
X1198604Y621654D01*
X1198788Y622310D01*
X1199017Y623031D01*
X1199385Y624016D01*
X1197548D01*
G01X1192454Y663386D02*
Y659449D01*
X1191306D01*
X1190938Y659646D01*
X1190709Y659908D01*
X1190617Y660433D01*
X1190709Y660958D01*
X1190984Y661286D01*
X1191306Y661483D01*
X1192454D01*
G01X1191306D02*
X1190617Y663386D01*
G01X1187480D02*
Y659449D01*
X1188031Y660236D01*
G01Y663386D02*
X1186928D01*
G01X1183424Y659449D02*
X1183791Y659580D01*
X1184067Y659908D01*
X1184250Y660302D01*
X1184388Y660827D01*
X1184434Y661417D01*
X1184388Y662008D01*
X1184250Y662533D01*
X1184067Y662927D01*
X1183791Y663255D01*
X1183424Y663386D01*
X1183056Y663255D01*
X1182781Y662927D01*
X1182597Y662533D01*
X1182459Y662008D01*
X1182413Y661417D01*
X1182459Y660827D01*
X1182597Y660302D01*
X1182781Y659908D01*
X1183056Y659580D01*
X1183424Y659449D01*
G01X1202428Y674305D02*
X1202625Y674581D01*
X1202756Y674902D01*
Y675270D01*
X1202559Y675683D01*
X1202231Y676005D01*
X1201837Y676234D01*
X1201181Y676418D01*
X1200591Y676464D01*
X1200000Y676372D01*
X1199606Y676234D01*
X1199213Y675959D01*
X1198950Y675637D01*
X1198819Y675316D01*
Y674994D01*
X1198950Y674673D01*
X1199147Y674397D01*
X1199409Y674167D01*
G01X1200459Y672133D02*
X1200919Y671811D01*
X1201181Y671535D01*
X1201312Y671168D01*
X1201181Y670846D01*
X1200919Y670617D01*
X1200525Y670433D01*
X1200066Y670387D01*
X1199672Y670433D01*
X1199278Y670617D01*
X1198950Y670893D01*
X1198819Y671214D01*
X1198950Y671581D01*
X1199344Y671903D01*
X1199934Y672087D01*
X1200591Y672133D01*
X1201443Y672041D01*
X1201903Y671903D01*
X1202362Y671673D01*
X1202690Y671352D01*
X1202756Y671030D01*
X1202625Y670709D01*
X1202296Y670479D01*
G01X1200459Y668077D02*
X1200919Y667755D01*
X1201181Y667480D01*
X1201312Y667112D01*
X1201181Y666791D01*
X1200919Y666561D01*
X1200525Y666377D01*
X1200066Y666331D01*
X1199672Y666377D01*
X1199278Y666561D01*
X1198950Y666837D01*
X1198819Y667158D01*
X1198950Y667526D01*
X1199344Y667847D01*
X1199934Y668031D01*
X1200591Y668077D01*
X1201443Y667985D01*
X1201903Y667847D01*
X1202362Y667617D01*
X1202690Y667296D01*
X1202756Y666974D01*
X1202625Y666653D01*
X1202296Y666423D01*
G01X1195959Y718832D02*
X1196234Y718635D01*
X1196556Y718504D01*
X1196923D01*
X1197337Y718701D01*
X1197658Y719029D01*
X1197888Y719422D01*
X1198072Y720079D01*
X1198118Y720669D01*
X1198026Y721260D01*
X1197888Y721654D01*
X1197612Y722047D01*
X1197291Y722310D01*
X1196969Y722441D01*
X1196648D01*
X1196326Y722310D01*
X1196051Y722113D01*
X1195821Y721850D01*
G01X1193005Y722441D02*
X1192913Y721588D01*
X1192776Y720866D01*
X1192592Y720210D01*
X1192362Y719488D01*
X1191995Y718504D01*
X1193832D01*
G01X1188857Y722441D02*
Y718504D01*
X1189409Y719291D01*
G01Y722441D02*
X1188306D01*
G01X1181102Y740525D02*
X1183924D01*
X1184515Y740709D01*
X1184908Y741076D01*
X1185039Y741535D01*
X1184908Y741995D01*
X1184515Y742362D01*
X1183924Y742546D01*
X1181102D01*
G01X1184252Y744581D02*
X1184711Y744856D01*
X1184974Y745224D01*
X1185039Y745637D01*
X1184974Y746005D01*
X1184646Y746372D01*
X1184252Y746602D01*
X1183858Y746648D01*
X1183399Y746556D01*
X1183071Y746234D01*
X1182940Y745913D01*
Y745500D01*
G01Y745913D02*
X1182743Y746189D01*
X1182415Y746418D01*
X1182021Y746510D01*
X1181627Y746418D01*
X1181299Y746189D01*
X1181102Y745775D01*
X1181168Y745362D01*
X1181430Y744948D01*
G01X1184580Y748867D02*
X1184908Y749188D01*
X1185039Y749556D01*
X1184908Y749923D01*
X1184515Y750244D01*
X1183924Y750474D01*
X1183333Y750566D01*
X1182611D01*
X1182021Y750474D01*
X1181496Y750244D01*
X1181233Y749969D01*
X1181102Y749647D01*
X1181233Y749280D01*
X1181496Y749004D01*
X1181890Y748820D01*
X1182415Y748729D01*
X1182874Y748820D01*
X1183333Y749050D01*
X1183596Y749326D01*
X1183661Y749647D01*
X1183530Y750015D01*
X1183202Y750290D01*
X1182611Y750566D01*
G01X1187900Y777231D02*
X1187624Y777428D01*
X1187302Y777559D01*
X1186935D01*
X1186522Y777362D01*
X1186200Y777034D01*
X1185970Y776641D01*
X1185787Y775984D01*
X1185741Y775394D01*
X1185833Y774803D01*
X1185970Y774409D01*
X1186246Y774016D01*
X1186567Y773753D01*
X1186889Y773622D01*
X1187211D01*
X1187532Y773753D01*
X1187807Y773950D01*
X1188037Y774213D01*
G01X1190853Y773622D02*
X1190945Y774475D01*
X1191083Y775197D01*
X1191267Y775853D01*
X1191496Y776575D01*
X1191863Y777559D01*
X1190026D01*
G01X1195001D02*
X1194633Y777428D01*
X1194358Y777100D01*
X1194174Y776706D01*
X1194036Y776181D01*
X1193990Y775591D01*
X1194036Y775000D01*
X1194174Y774475D01*
X1194358Y774081D01*
X1194633Y773753D01*
X1195001Y773622D01*
X1195368Y773753D01*
X1195644Y774081D01*
X1195828Y774475D01*
X1195965Y775000D01*
X1196011Y775591D01*
X1195965Y776181D01*
X1195828Y776706D01*
X1195644Y777100D01*
X1195368Y777428D01*
X1195001Y777559D01*
G01X1199160Y830919D02*
X1199357Y831195D01*
X1199488Y831517D01*
Y831884D01*
X1199291Y832297D01*
X1198963Y832619D01*
X1198570Y832848D01*
X1197913Y833032D01*
X1197323Y833078D01*
X1196732Y832986D01*
X1196339Y832848D01*
X1195945Y832573D01*
X1195682Y832252D01*
X1195551Y831930D01*
Y831608D01*
X1195682Y831287D01*
X1195879Y831011D01*
X1196142Y830781D01*
G01X1195551Y827874D02*
X1195617Y827552D01*
X1195814Y827185D01*
X1196142Y826956D01*
X1196601Y826863D01*
X1197060Y826956D01*
X1197454Y827231D01*
X1197651Y827644D01*
Y828104D01*
X1197782Y828379D01*
X1198110Y828609D01*
X1198570Y828701D01*
X1199029Y828563D01*
X1199357Y828241D01*
X1199488Y827874D01*
X1199357Y827507D01*
X1199029Y827185D01*
X1198570Y827047D01*
X1198110Y827139D01*
X1197782Y827369D01*
X1197651Y827644D01*
Y828104D01*
X1197454Y828517D01*
X1197060Y828793D01*
X1196601Y828885D01*
X1196142Y828793D01*
X1195814Y828563D01*
X1195617Y828196D01*
X1195551Y827874D01*
G01X1199488Y823818D02*
X1199357Y824185D01*
X1199029Y824461D01*
X1198635Y824645D01*
X1198110Y824783D01*
X1197520Y824829D01*
X1196929Y824783D01*
X1196404Y824645D01*
X1196010Y824461D01*
X1195682Y824185D01*
X1195551Y823818D01*
X1195682Y823451D01*
X1196010Y823175D01*
X1196404Y822991D01*
X1196929Y822854D01*
X1197520Y822807D01*
X1198110Y822854D01*
X1198635Y822991D01*
X1199029Y823175D01*
X1199357Y823451D01*
X1199488Y823818D01*
G01X1199160Y860919D02*
X1199357Y861195D01*
X1199488Y861517D01*
Y861884D01*
X1199291Y862297D01*
X1198963Y862619D01*
X1198570Y862848D01*
X1197913Y863032D01*
X1197323Y863078D01*
X1196732Y862986D01*
X1196339Y862848D01*
X1195945Y862573D01*
X1195682Y862252D01*
X1195551Y861930D01*
Y861608D01*
X1195682Y861287D01*
X1195879Y861011D01*
X1196142Y860781D01*
G01X1195551Y857966D02*
X1196404Y857874D01*
X1197126Y857736D01*
X1197782Y857552D01*
X1198504Y857323D01*
X1199488Y856956D01*
Y858793D01*
G01X1195551Y853818D02*
X1195617Y853496D01*
X1195814Y853129D01*
X1196142Y852900D01*
X1196601Y852807D01*
X1197060Y852900D01*
X1197454Y853175D01*
X1197651Y853589D01*
Y854048D01*
X1197782Y854323D01*
X1198110Y854553D01*
X1198570Y854645D01*
X1199029Y854507D01*
X1199357Y854185D01*
X1199488Y853818D01*
X1199357Y853451D01*
X1199029Y853129D01*
X1198570Y852991D01*
X1198110Y853083D01*
X1197782Y853313D01*
X1197651Y853589D01*
Y854048D01*
X1197454Y854461D01*
X1197060Y854737D01*
X1196601Y854829D01*
X1196142Y854737D01*
X1195814Y854507D01*
X1195617Y854140D01*
X1195551Y853818D01*
G01X1210997Y551181D02*
Y548359D01*
X1211181Y547769D01*
X1211548Y547375D01*
X1212008Y547244D01*
X1212467Y547375D01*
X1212835Y547769D01*
X1213019Y548359D01*
Y551181D01*
G01X1216615Y547244D02*
Y551181D01*
X1214915Y548359D01*
X1217212D01*
G01X1220120Y547244D02*
Y551181D01*
X1219569Y550394D01*
G01Y547244D02*
X1220671D01*
G01X1200787Y687375D02*
X1203609D01*
X1204200Y687559D01*
X1204593Y687926D01*
X1204724Y688386D01*
X1204593Y688845D01*
X1204200Y689213D01*
X1203609Y689396D01*
X1200787D01*
G01X1203937Y691431D02*
X1204396Y691707D01*
X1204659Y692074D01*
X1204724Y692488D01*
X1204659Y692855D01*
X1204331Y693222D01*
X1203937Y693452D01*
X1203543Y693498D01*
X1203084Y693406D01*
X1202756Y693085D01*
X1202625Y692763D01*
Y692350D01*
G01Y692763D02*
X1202428Y693039D01*
X1202100Y693269D01*
X1201706Y693360D01*
X1201312Y693269D01*
X1200984Y693039D01*
X1200787Y692626D01*
X1200853Y692212D01*
X1201115Y691799D01*
G01X1204724Y696406D02*
X1203871Y696498D01*
X1203150Y696635D01*
X1202493Y696819D01*
X1201772Y697049D01*
X1200787Y697416D01*
Y695579D01*
G01X1238091Y574974D02*
X1242028D01*
Y573826D01*
X1241831Y573458D01*
X1241568Y573228D01*
X1241043Y573137D01*
X1240519Y573228D01*
X1240190Y573504D01*
X1239993Y573826D01*
Y574974D01*
G01Y573826D02*
X1238091Y573137D01*
G01Y569999D02*
X1242028D01*
X1241240Y570550D01*
G01X1238091D02*
Y569448D01*
G01X1241371Y566816D02*
X1241765Y566541D01*
X1241962Y566219D01*
X1242028Y565852D01*
X1241896Y565392D01*
X1241568Y565070D01*
X1241174Y564979D01*
X1240781Y565025D01*
X1240453Y565208D01*
X1239796Y566127D01*
X1239337Y566541D01*
X1238681Y566816D01*
X1238091Y566908D01*
Y564979D01*
G01X1224737Y668215D02*
X1224541Y667939D01*
X1224409Y667617D01*
Y667250D01*
X1224606Y666837D01*
X1224934Y666515D01*
X1225328Y666285D01*
X1225984Y666102D01*
X1226575Y666056D01*
X1227165Y666148D01*
X1227559Y666285D01*
X1227953Y666561D01*
X1228215Y666882D01*
X1228346Y667204D01*
Y667526D01*
X1228215Y667847D01*
X1228019Y668122D01*
X1227756Y668352D01*
G01X1226706Y670387D02*
X1226247Y670709D01*
X1225984Y670984D01*
X1225853Y671352D01*
X1225984Y671673D01*
X1226247Y671903D01*
X1226641Y672087D01*
X1227100Y672133D01*
X1227493Y672087D01*
X1227887Y671903D01*
X1228215Y671627D01*
X1228346Y671306D01*
X1228215Y670938D01*
X1227822Y670617D01*
X1227231Y670433D01*
X1226575Y670387D01*
X1225722Y670479D01*
X1225263Y670617D01*
X1224803Y670846D01*
X1224475Y671168D01*
X1224409Y671489D01*
X1224541Y671811D01*
X1224869Y672041D01*
G01X1228346Y675224D02*
X1227493Y675316D01*
X1226772Y675454D01*
X1226115Y675637D01*
X1225394Y675867D01*
X1224409Y676234D01*
Y674397D01*
G01X1231207Y832349D02*
X1230931Y832546D01*
X1230609Y832677D01*
X1230242D01*
X1229829Y832480D01*
X1229507Y832152D01*
X1229278Y831759D01*
X1229094Y831102D01*
X1229048Y830512D01*
X1229140Y829921D01*
X1229278Y829528D01*
X1229553Y829134D01*
X1229874Y828871D01*
X1230196Y828740D01*
X1230518D01*
X1230839Y828871D01*
X1231115Y829068D01*
X1231344Y829331D01*
G01X1234803Y828740D02*
Y832677D01*
X1233104Y829856D01*
X1235400D01*
G01X1237297Y829528D02*
X1237573Y829068D01*
X1237941Y828806D01*
X1238354Y828740D01*
X1238721Y828806D01*
X1239089Y829134D01*
X1239319Y829528D01*
X1239364Y829921D01*
X1239272Y830380D01*
X1238951Y830709D01*
X1238630Y830840D01*
X1238216D01*
G01X1238630D02*
X1238905Y831037D01*
X1239135Y831365D01*
X1239226Y831759D01*
X1239135Y832152D01*
X1238905Y832480D01*
X1238492Y832677D01*
X1238078Y832611D01*
X1237665Y832349D01*
G01X1237297Y854659D02*
X1237573Y854462D01*
X1237894Y854331D01*
X1238262D01*
X1238675Y854528D01*
X1238997Y854856D01*
X1239226Y855249D01*
X1239410Y855906D01*
X1239456Y856496D01*
X1239364Y857087D01*
X1239226Y857480D01*
X1238951Y857874D01*
X1238630Y858137D01*
X1238308Y858268D01*
X1237986D01*
X1237665Y858137D01*
X1237389Y857940D01*
X1237159Y857677D01*
G01X1233701Y858268D02*
Y854331D01*
X1235400Y857152D01*
X1233104D01*
G01X1231069Y854987D02*
X1230793Y854593D01*
X1230472Y854396D01*
X1230104Y854331D01*
X1229645Y854462D01*
X1229323Y854790D01*
X1229231Y855184D01*
X1229278Y855578D01*
X1229461Y855906D01*
X1230380Y856562D01*
X1230793Y857021D01*
X1231069Y857677D01*
X1231161Y858268D01*
X1229231D01*
G01X1244954Y554730D02*
X1244757Y554455D01*
X1244626Y554133D01*
Y553766D01*
X1244823Y553352D01*
X1245151Y553031D01*
X1245544Y552801D01*
X1246201Y552617D01*
X1246791Y552571D01*
X1247382Y552663D01*
X1247776Y552801D01*
X1248169Y553077D01*
X1248432Y553398D01*
X1248563Y553720D01*
Y554041D01*
X1248432Y554363D01*
X1248235Y554638D01*
X1247972Y554868D01*
G01X1248563Y557684D02*
X1247710Y557776D01*
X1246988Y557913D01*
X1246332Y558097D01*
X1245610Y558327D01*
X1244626Y558694D01*
Y556857D01*
G01X1248563Y561740D02*
X1247710Y561831D01*
X1246988Y561969D01*
X1246332Y562153D01*
X1245610Y562383D01*
X1244626Y562750D01*
Y560913D01*
G01X1244954Y584730D02*
X1244757Y584455D01*
X1244626Y584133D01*
Y583766D01*
X1244823Y583352D01*
X1245151Y583031D01*
X1245544Y582801D01*
X1246201Y582617D01*
X1246791Y582571D01*
X1247382Y582663D01*
X1247776Y582801D01*
X1248169Y583077D01*
X1248432Y583398D01*
X1248563Y583720D01*
Y584041D01*
X1248432Y584363D01*
X1248235Y584638D01*
X1247972Y584868D01*
G01X1248563Y587684D02*
X1247710Y587776D01*
X1246988Y587913D01*
X1246332Y588097D01*
X1245610Y588327D01*
X1244626Y588694D01*
Y586857D01*
G01X1247776Y590821D02*
X1248235Y591096D01*
X1248497Y591464D01*
X1248563Y591878D01*
X1248497Y592245D01*
X1248169Y592612D01*
X1247776Y592842D01*
X1247382Y592888D01*
X1246923Y592796D01*
X1246594Y592474D01*
X1246463Y592153D01*
Y591740D01*
G01Y592153D02*
X1246267Y592429D01*
X1245939Y592658D01*
X1245544Y592750D01*
X1245151Y592658D01*
X1244823Y592429D01*
X1244626Y592015D01*
X1244692Y591602D01*
X1244954Y591189D01*
G01X1250367Y858268D02*
Y855446D01*
X1250551Y854856D01*
X1250919Y854462D01*
X1251378Y854331D01*
X1251837Y854462D01*
X1252205Y854856D01*
X1252389Y855446D01*
Y858268D01*
G01X1254561Y857611D02*
X1254837Y858005D01*
X1255158Y858202D01*
X1255526Y858268D01*
X1255985Y858137D01*
X1256307Y857808D01*
X1256398Y857415D01*
X1256352Y857021D01*
X1256169Y856693D01*
X1255250Y856037D01*
X1254837Y855578D01*
X1254561Y854921D01*
X1254469Y854331D01*
X1256398D01*
G01X1259490D02*
Y858268D01*
X1258939Y857480D01*
G01Y854331D02*
X1260041D01*
G01X1262178Y570866D02*
Y568044D01*
X1262362Y567454D01*
X1262730Y567060D01*
X1263189Y566929D01*
X1263648Y567060D01*
X1264016Y567454D01*
X1264200Y568044D01*
Y570866D01*
G01X1267796Y566929D02*
Y570866D01*
X1266096Y568044D01*
X1268393D01*
G01X1270290Y567717D02*
X1270566Y567257D01*
X1270933Y566995D01*
X1271347Y566929D01*
X1271714Y566995D01*
X1272081Y567323D01*
X1272311Y567717D01*
X1272357Y568110D01*
X1272265Y568569D01*
X1271944Y568898D01*
X1271622Y569029D01*
X1271209D01*
G01X1271622D02*
X1271898Y569226D01*
X1272128Y569554D01*
X1272219Y569948D01*
X1272128Y570341D01*
X1271898Y570669D01*
X1271485Y570866D01*
X1271071Y570800D01*
X1270658Y570538D01*
G01X1262178Y600394D02*
Y597572D01*
X1262362Y596981D01*
X1262730Y596588D01*
X1263189Y596457D01*
X1263648Y596588D01*
X1264016Y596981D01*
X1264200Y597572D01*
Y600394D01*
G01X1267796Y596457D02*
Y600394D01*
X1266096Y597572D01*
X1268393D01*
G01X1270428Y599737D02*
X1270704Y600131D01*
X1271025Y600328D01*
X1271393Y600394D01*
X1271852Y600263D01*
X1272174Y599934D01*
X1272265Y599541D01*
X1272219Y599147D01*
X1272036Y598819D01*
X1271117Y598163D01*
X1270704Y597704D01*
X1270428Y597047D01*
X1270336Y596457D01*
X1272265D01*
G01X1300046Y563970D02*
X1300243Y564246D01*
X1300374Y564568D01*
Y564935D01*
X1300177Y565348D01*
X1299849Y565670D01*
X1299456Y565900D01*
X1298799Y566083D01*
X1298209Y566130D01*
X1297618Y566037D01*
X1297224Y565900D01*
X1296831Y565624D01*
X1296568Y565303D01*
X1296437Y564981D01*
Y564659D01*
X1296568Y564338D01*
X1296765Y564063D01*
X1297028Y563833D01*
G01X1296437Y561017D02*
X1297290Y560925D01*
X1298012Y560787D01*
X1298668Y560604D01*
X1299390Y560374D01*
X1300374Y560007D01*
Y561844D01*
G01X1296437Y556318D02*
X1300374D01*
X1297552Y558018D01*
Y555721D01*
G01X1300046Y593970D02*
X1300243Y594246D01*
X1300374Y594568D01*
Y594935D01*
X1300177Y595348D01*
X1299849Y595670D01*
X1299456Y595900D01*
X1298799Y596083D01*
X1298209Y596130D01*
X1297618Y596037D01*
X1297224Y595900D01*
X1296831Y595624D01*
X1296568Y595303D01*
X1296437Y594981D01*
Y594659D01*
X1296568Y594338D01*
X1296765Y594063D01*
X1297028Y593833D01*
G01X1296437Y591017D02*
X1297290Y590925D01*
X1298012Y590787D01*
X1298668Y590604D01*
X1299390Y590374D01*
X1300374Y590007D01*
Y591844D01*
G01X1299718Y587742D02*
X1300111Y587467D01*
X1300308Y587145D01*
X1300374Y586778D01*
X1300243Y586318D01*
X1299915Y585996D01*
X1299521Y585905D01*
X1299127Y585951D01*
X1298799Y586134D01*
X1298143Y587053D01*
X1297684Y587467D01*
X1297028Y587742D01*
X1296437Y587834D01*
Y585905D01*
G01X584646Y1424803D02*
Y324803D01*
G01D02*
X2284646D01*
Y1424803D01*
X584646D01*
G01X2234646Y1274803D02*
Y354803D01*
X634646D01*
G01Y1394803D02*
Y354803D01*
G01Y1394803D02*
X644646D01*
G01D02*
X2234646D01*
G01X769685Y515748D02*
Y976378D01*
X1322835D01*
Y515748D01*
X769685D01*
G01X1454646Y354803D02*
Y534803D01*
X2234646D01*
G01X1454646Y504803D02*
X1814646D01*
G01X1462842Y412303D02*
Y417303D01*
X1465249D01*
G01X1464362Y414887D02*
X1462842D01*
G01X1467879Y412303D02*
Y417303D01*
X1469462D01*
X1469969Y417053D01*
X1470286Y416720D01*
X1470412Y416053D01*
X1470286Y415387D01*
X1469906Y414970D01*
X1469462Y414720D01*
X1467879D01*
G01X1469462D02*
X1470412Y412303D01*
G01X1472662D02*
X1474246Y417303D01*
X1475829Y412303D01*
G01X1475259Y414053D02*
X1473232D01*
G01X1480739Y416887D02*
X1480359Y417137D01*
X1479916Y417303D01*
X1479409D01*
X1478839Y417053D01*
X1478396Y416637D01*
X1478079Y416137D01*
X1477826Y415303D01*
X1477762Y414553D01*
X1477889Y413803D01*
X1478079Y413303D01*
X1478459Y412803D01*
X1478902Y412470D01*
X1479346Y412303D01*
X1479789D01*
X1480232Y412470D01*
X1480612Y412720D01*
X1480929Y413053D01*
G01X1484446Y417303D02*
Y412303D01*
G01X1482989Y417303D02*
X1485902D01*
G01X1488786D02*
X1490306D01*
G01X1489546D02*
Y412303D01*
G01X1488786D02*
X1490306D01*
G01X1494646D02*
X1494139Y412387D01*
X1493696Y412720D01*
X1493316Y413220D01*
X1493062Y413803D01*
X1492935Y414470D01*
Y415137D01*
X1493062Y415803D01*
X1493316Y416387D01*
X1493696Y416887D01*
X1494139Y417220D01*
X1494646Y417303D01*
X1495152Y417220D01*
X1495596Y416887D01*
X1495976Y416387D01*
X1496229Y415803D01*
X1496356Y415137D01*
Y414470D01*
X1496229Y413803D01*
X1495976Y413220D01*
X1495596Y412720D01*
X1495152Y412387D01*
X1494646Y412303D01*
G01X1498289D02*
Y417303D01*
X1501202Y412303D01*
Y417303D01*
G01X1503516Y412970D02*
X1504022Y412553D01*
X1504593Y412303D01*
X1505099D01*
X1505606Y412553D01*
X1505986Y412970D01*
X1506176Y413553D01*
X1506049Y414136D01*
X1505732Y414637D01*
X1505162Y414970D01*
X1504402Y415137D01*
X1503959Y415470D01*
X1503769Y416053D01*
X1503896Y416637D01*
X1504212Y417053D01*
X1504656Y417303D01*
X1505099D01*
X1505543Y417137D01*
X1505922Y416720D01*
G01X1514349Y413970D02*
X1515869D01*
G01X1515046Y415053D02*
Y412886D01*
G01X1462462Y427303D02*
X1464046Y432303D01*
X1465629Y427303D01*
G01X1465059Y429053D02*
X1463032D01*
G01X1467689Y427303D02*
Y432303D01*
X1470602Y427303D01*
Y432303D01*
G01X1474626Y429803D02*
X1475893D01*
Y428303D01*
X1475512Y427803D01*
X1475069Y427470D01*
X1474436Y427303D01*
X1473802Y427470D01*
X1473359Y427803D01*
X1472979Y428303D01*
X1472726Y428887D01*
X1472599Y429553D01*
Y430137D01*
X1472726Y430636D01*
X1472979Y431220D01*
X1473359Y431720D01*
X1473739Y432053D01*
X1474246Y432303D01*
X1474689D01*
X1475196Y432137D01*
X1475576Y431803D01*
G01X1478079Y432303D02*
Y427303D01*
X1480612D01*
G01X1485712D02*
X1483179D01*
Y432303D01*
X1485712D01*
G01X1484699Y429887D02*
X1483179D01*
G01X1488216Y427970D02*
X1488722Y427553D01*
X1489293Y427303D01*
X1489799D01*
X1490306Y427553D01*
X1490686Y427970D01*
X1490876Y428553D01*
X1490749Y429136D01*
X1490432Y429637D01*
X1489862Y429970D01*
X1489102Y430137D01*
X1488659Y430470D01*
X1488469Y431053D01*
X1488596Y431637D01*
X1488912Y432053D01*
X1489356Y432303D01*
X1489799D01*
X1490243Y432137D01*
X1490622Y431720D01*
G01X1499049Y428970D02*
X1500569D01*
G01X1499746Y430053D02*
Y427886D01*
G01X1462652Y443303D02*
X1463032Y442720D01*
X1463539Y442387D01*
X1464109Y442303D01*
X1464616Y442387D01*
X1465122Y442803D01*
X1465439Y443303D01*
X1465502Y443803D01*
X1465376Y444386D01*
X1464932Y444803D01*
X1464489Y444970D01*
X1463919D01*
G01X1464489D02*
X1464869Y445220D01*
X1465186Y445636D01*
X1465312Y446137D01*
X1465186Y446637D01*
X1464869Y447053D01*
X1464299Y447303D01*
X1463729Y447220D01*
X1463159Y446887D01*
G01X1472979Y442303D02*
Y447303D01*
X1474499D01*
X1475006Y447053D01*
X1475386Y446470D01*
X1475512Y445803D01*
X1475386Y445137D01*
X1475069Y444637D01*
X1474499Y444386D01*
X1472979D01*
G01X1478079Y447303D02*
Y442303D01*
X1480612D01*
G01X1488152D02*
Y447303D01*
X1489419D01*
X1489926Y447053D01*
X1490306Y446720D01*
X1490622Y446220D01*
X1490876Y445636D01*
X1490939Y444803D01*
X1490876Y443970D01*
X1490622Y443386D01*
X1490306Y442886D01*
X1489926Y442553D01*
X1489419Y442303D01*
X1488152D01*
G01X1495912D02*
X1493379D01*
Y447303D01*
X1495912D01*
G01X1494899Y444887D02*
X1493379D01*
G01X1501139Y446887D02*
X1500759Y447137D01*
X1500316Y447303D01*
X1499809D01*
X1499239Y447053D01*
X1498796Y446637D01*
X1498479Y446137D01*
X1498226Y445303D01*
X1498162Y444553D01*
X1498289Y443803D01*
X1498479Y443303D01*
X1498859Y442803D01*
X1499302Y442470D01*
X1499746Y442303D01*
X1500189D01*
X1500632Y442470D01*
X1501012Y442720D01*
X1501329Y443053D01*
G01X1504086Y447303D02*
X1505606D01*
G01X1504846D02*
Y442303D01*
G01X1504086D02*
X1505606D01*
G01X1508299D02*
Y447303D01*
X1509946Y443137D01*
X1511593Y447303D01*
Y442303D01*
G01X1513462D02*
X1515046Y447303D01*
X1516629Y442303D01*
G01X1516059Y444053D02*
X1514032D01*
G01X1518879Y447303D02*
Y442303D01*
X1521412D01*
G01X1523916Y442970D02*
X1524422Y442553D01*
X1524993Y442303D01*
X1525499D01*
X1526006Y442553D01*
X1526386Y442970D01*
X1526576Y443553D01*
X1526449Y444136D01*
X1526132Y444637D01*
X1525562Y444970D01*
X1524802Y445137D01*
X1524359Y445470D01*
X1524169Y446053D01*
X1524296Y446637D01*
X1524612Y447053D01*
X1525056Y447303D01*
X1525499D01*
X1525943Y447137D01*
X1526322Y446720D01*
G01X1534749Y443970D02*
X1536269D01*
G01X1535446Y445053D02*
Y442886D01*
G01X1462842Y461470D02*
X1463222Y461970D01*
X1463666Y462220D01*
X1464172Y462303D01*
X1464806Y462137D01*
X1465249Y461720D01*
X1465376Y461220D01*
X1465312Y460720D01*
X1465059Y460303D01*
X1463793Y459470D01*
X1463222Y458887D01*
X1462842Y458053D01*
X1462716Y457303D01*
X1465376D01*
G01X1472979D02*
Y462303D01*
X1474499D01*
X1475006Y462053D01*
X1475386Y461470D01*
X1475512Y460803D01*
X1475386Y460137D01*
X1475069Y459637D01*
X1474499Y459386D01*
X1472979D01*
G01X1478079Y462303D02*
Y457303D01*
X1480612D01*
G01X1488152D02*
Y462303D01*
X1489419D01*
X1489926Y462053D01*
X1490306Y461720D01*
X1490622Y461220D01*
X1490876Y460636D01*
X1490939Y459803D01*
X1490876Y458970D01*
X1490622Y458386D01*
X1490306Y457886D01*
X1489926Y457553D01*
X1489419Y457303D01*
X1488152D01*
G01X1495912D02*
X1493379D01*
Y462303D01*
X1495912D01*
G01X1494899Y459887D02*
X1493379D01*
G01X1501139Y461887D02*
X1500759Y462137D01*
X1500316Y462303D01*
X1499809D01*
X1499239Y462053D01*
X1498796Y461637D01*
X1498479Y461137D01*
X1498226Y460303D01*
X1498162Y459553D01*
X1498289Y458803D01*
X1498479Y458303D01*
X1498859Y457803D01*
X1499302Y457470D01*
X1499746Y457303D01*
X1500189D01*
X1500632Y457470D01*
X1501012Y457720D01*
X1501329Y458053D01*
G01X1504086Y462303D02*
X1505606D01*
G01X1504846D02*
Y457303D01*
G01X1504086D02*
X1505606D01*
G01X1508299D02*
Y462303D01*
X1509946Y458137D01*
X1511593Y462303D01*
Y457303D01*
G01X1513462D02*
X1515046Y462303D01*
X1516629Y457303D01*
G01X1516059Y459053D02*
X1514032D01*
G01X1518879Y462303D02*
Y457303D01*
X1521412D01*
G01X1523916Y457970D02*
X1524422Y457553D01*
X1524993Y457303D01*
X1525499D01*
X1526006Y457553D01*
X1526386Y457970D01*
X1526576Y458553D01*
X1526449Y459136D01*
X1526132Y459637D01*
X1525562Y459970D01*
X1524802Y460137D01*
X1524359Y460470D01*
X1524169Y461053D01*
X1524296Y461637D01*
X1524612Y462053D01*
X1525056Y462303D01*
X1525499D01*
X1525943Y462137D01*
X1526322Y461720D01*
G01X1534749Y458970D02*
X1536269D01*
G01X1535446Y460053D02*
Y457886D01*
G01X1464046Y477303D02*
Y472303D01*
G01X1462589Y477303D02*
X1465502D01*
G01X1469146Y472303D02*
X1468639Y472387D01*
X1468196Y472720D01*
X1467816Y473220D01*
X1467562Y473803D01*
X1467435Y474470D01*
Y475137D01*
X1467562Y475803D01*
X1467816Y476387D01*
X1468196Y476887D01*
X1468639Y477220D01*
X1469146Y477303D01*
X1469652Y477220D01*
X1470096Y476887D01*
X1470476Y476387D01*
X1470729Y475803D01*
X1470856Y475137D01*
Y474470D01*
X1470729Y473803D01*
X1470476Y473220D01*
X1470096Y472720D01*
X1469652Y472387D01*
X1469146Y472303D01*
G01X1472979Y477303D02*
Y472303D01*
X1475512D01*
G01X1480612D02*
X1478079D01*
Y477303D01*
X1480612D01*
G01X1479599Y474887D02*
X1478079D01*
G01X1483179Y472303D02*
Y477303D01*
X1484762D01*
X1485269Y477053D01*
X1485586Y476720D01*
X1485712Y476053D01*
X1485586Y475387D01*
X1485206Y474970D01*
X1484762Y474720D01*
X1483179D01*
G01X1484762D02*
X1485712Y472303D01*
G01X1487962D02*
X1489546Y477303D01*
X1491129Y472303D01*
G01X1490559Y474053D02*
X1488532D01*
G01X1493189Y472303D02*
Y477303D01*
X1496102Y472303D01*
Y477303D01*
G01X1501139Y476887D02*
X1500759Y477137D01*
X1500316Y477303D01*
X1499809D01*
X1499239Y477053D01*
X1498796Y476637D01*
X1498479Y476137D01*
X1498226Y475303D01*
X1498162Y474553D01*
X1498289Y473803D01*
X1498479Y473303D01*
X1498859Y472803D01*
X1499302Y472470D01*
X1499746Y472303D01*
X1500189D01*
X1500632Y472470D01*
X1501012Y472720D01*
X1501329Y473053D01*
G01X1506112Y472303D02*
X1503579D01*
Y477303D01*
X1506112D01*
G01X1505099Y474887D02*
X1503579D01*
G01X1508616Y472970D02*
X1509122Y472553D01*
X1509693Y472303D01*
X1510199D01*
X1510706Y472553D01*
X1511086Y472970D01*
X1511276Y473553D01*
X1511149Y474136D01*
X1510832Y474637D01*
X1510262Y474970D01*
X1509502Y475137D01*
X1509059Y475470D01*
X1508869Y476053D01*
X1508996Y476637D01*
X1509312Y477053D01*
X1509756Y477303D01*
X1510199D01*
X1510643Y477137D01*
X1511022Y476720D01*
G01X1520146Y472303D02*
X1519639Y472387D01*
X1519196Y472720D01*
X1518816Y473220D01*
X1518562Y473803D01*
X1518435Y474470D01*
Y475137D01*
X1518562Y475803D01*
X1518816Y476387D01*
X1519196Y476887D01*
X1519639Y477220D01*
X1520146Y477303D01*
X1520652Y477220D01*
X1521096Y476887D01*
X1521476Y476387D01*
X1521729Y475803D01*
X1521856Y475137D01*
Y474470D01*
X1521729Y473803D01*
X1521476Y473220D01*
X1521096Y472720D01*
X1520652Y472387D01*
X1520146Y472303D01*
G01X1523789D02*
Y477303D01*
X1526702Y472303D01*
Y477303D01*
G01X1530346Y472137D02*
X1530219Y472220D01*
Y472387D01*
X1530346Y472470D01*
X1530472Y472387D01*
Y472220D01*
X1530346Y472137D01*
G01Y474386D02*
X1530219Y474470D01*
Y474637D01*
X1530346Y474720D01*
X1530472Y474637D01*
Y474470D01*
X1530346Y474386D01*
G01X1462652Y489803D02*
Y494803D01*
X1463919D01*
X1464426Y494553D01*
X1464806Y494220D01*
X1465122Y493720D01*
X1465376Y493136D01*
X1465439Y492303D01*
X1465376Y491470D01*
X1465122Y490886D01*
X1464806Y490386D01*
X1464426Y490053D01*
X1463919Y489803D01*
X1462652D01*
G01X1468386Y494803D02*
X1469906D01*
G01X1469146D02*
Y489803D01*
G01X1468386D02*
X1469906D01*
G01X1472599D02*
Y494803D01*
X1474246Y490637D01*
X1475893Y494803D01*
Y489803D01*
G01X1480612D02*
X1478079D01*
Y494803D01*
X1480612D01*
G01X1479599Y492387D02*
X1478079D01*
G01X1482989Y489803D02*
Y494803D01*
X1485902Y489803D01*
Y494803D01*
G01X1488216Y490470D02*
X1488722Y490053D01*
X1489293Y489803D01*
X1489799D01*
X1490306Y490053D01*
X1490686Y490470D01*
X1490876Y491053D01*
X1490749Y491636D01*
X1490432Y492137D01*
X1489862Y492470D01*
X1489102Y492637D01*
X1488659Y492970D01*
X1488469Y493553D01*
X1488596Y494137D01*
X1488912Y494553D01*
X1489356Y494803D01*
X1489799D01*
X1490243Y494637D01*
X1490622Y494220D01*
G01X1493886Y494803D02*
X1495406D01*
G01X1494646D02*
Y489803D01*
G01X1493886D02*
X1495406D01*
G01X1499746D02*
X1499239Y489887D01*
X1498796Y490220D01*
X1498416Y490720D01*
X1498162Y491303D01*
X1498035Y491970D01*
Y492637D01*
X1498162Y493303D01*
X1498416Y493887D01*
X1498796Y494387D01*
X1499239Y494720D01*
X1499746Y494803D01*
X1500252Y494720D01*
X1500696Y494387D01*
X1501076Y493887D01*
X1501329Y493303D01*
X1501456Y492637D01*
Y491970D01*
X1501329Y491303D01*
X1501076Y490720D01*
X1500696Y490220D01*
X1500252Y489887D01*
X1499746Y489803D01*
G01X1503389D02*
Y494803D01*
X1506302Y489803D01*
Y494803D01*
G01X1508616Y490470D02*
X1509122Y490053D01*
X1509693Y489803D01*
X1510199D01*
X1510706Y490053D01*
X1511086Y490470D01*
X1511276Y491053D01*
X1511149Y491636D01*
X1510832Y492137D01*
X1510262Y492470D01*
X1509502Y492637D01*
X1509059Y492970D01*
X1508869Y493553D01*
X1508996Y494137D01*
X1509312Y494553D01*
X1509756Y494803D01*
X1510199D01*
X1510643Y494637D01*
X1511022Y494220D01*
G01X1518562Y489803D02*
X1520146Y494803D01*
X1521729Y489803D01*
G01X1521159Y491553D02*
X1519132D01*
G01X1523979Y489803D02*
Y494803D01*
X1525562D01*
X1526069Y494553D01*
X1526386Y494220D01*
X1526512Y493553D01*
X1526386Y492887D01*
X1526006Y492470D01*
X1525562Y492220D01*
X1523979D01*
G01X1525562D02*
X1526512Y489803D01*
G01X1531612D02*
X1529079D01*
Y494803D01*
X1531612D01*
G01X1530599Y492387D02*
X1529079D01*
G01X1539786Y494803D02*
X1541306D01*
G01X1540546D02*
Y489803D01*
G01X1539786D02*
X1541306D01*
G01X1544189D02*
Y494803D01*
X1547102Y489803D01*
Y494803D01*
G01X1555086D02*
X1556606D01*
G01X1555846D02*
Y489803D01*
G01X1555086D02*
X1556606D01*
G01X1559489D02*
Y494803D01*
X1562402Y489803D01*
Y494803D01*
G01X1567439Y494387D02*
X1567059Y494637D01*
X1566616Y494803D01*
X1566109D01*
X1565539Y494553D01*
X1565096Y494137D01*
X1564779Y493637D01*
X1564526Y492803D01*
X1564462Y492053D01*
X1564589Y491303D01*
X1564779Y490803D01*
X1565159Y490303D01*
X1565602Y489970D01*
X1566046Y489803D01*
X1566489D01*
X1566932Y489970D01*
X1567312Y490220D01*
X1567629Y490553D01*
G01X1569816Y489803D02*
Y494803D01*
G01X1572476D02*
Y489803D01*
G01Y492303D02*
X1569816D01*
G01X1577512Y489803D02*
X1574979D01*
Y494803D01*
X1577512D01*
G01X1576499Y492387D02*
X1574979D01*
G01X1580016Y490470D02*
X1580522Y490053D01*
X1581093Y489803D01*
X1581599D01*
X1582106Y490053D01*
X1582486Y490470D01*
X1582676Y491053D01*
X1582549Y491636D01*
X1582232Y492137D01*
X1581662Y492470D01*
X1580902Y492637D01*
X1580459Y492970D01*
X1580269Y493553D01*
X1580396Y494137D01*
X1580712Y494553D01*
X1581156Y494803D01*
X1581599D01*
X1582043Y494637D01*
X1582422Y494220D01*
G01X1462652Y522303D02*
Y518720D01*
X1462906Y517970D01*
X1463412Y517470D01*
X1464046Y517303D01*
X1464679Y517470D01*
X1465186Y517970D01*
X1465439Y518720D01*
Y522303D01*
G01X1467689Y517303D02*
Y522303D01*
X1470602Y517303D01*
Y522303D01*
G01X1472979D02*
Y517303D01*
X1475512D01*
G01X1480612D02*
X1478079D01*
Y522303D01*
X1480612D01*
G01X1479599Y519887D02*
X1478079D01*
G01X1483116Y517970D02*
X1483622Y517553D01*
X1484193Y517303D01*
X1484699D01*
X1485206Y517553D01*
X1485586Y517970D01*
X1485776Y518553D01*
X1485649Y519136D01*
X1485332Y519637D01*
X1484762Y519970D01*
X1484002Y520137D01*
X1483559Y520470D01*
X1483369Y521053D01*
X1483496Y521637D01*
X1483812Y522053D01*
X1484256Y522303D01*
X1484699D01*
X1485143Y522137D01*
X1485522Y521720D01*
G01X1488216Y517970D02*
X1488722Y517553D01*
X1489293Y517303D01*
X1489799D01*
X1490306Y517553D01*
X1490686Y517970D01*
X1490876Y518553D01*
X1490749Y519136D01*
X1490432Y519637D01*
X1489862Y519970D01*
X1489102Y520137D01*
X1488659Y520470D01*
X1488469Y521053D01*
X1488596Y521637D01*
X1488912Y522053D01*
X1489356Y522303D01*
X1489799D01*
X1490243Y522137D01*
X1490622Y521720D01*
G01X1499746Y517303D02*
X1499239Y517387D01*
X1498796Y517720D01*
X1498416Y518220D01*
X1498162Y518803D01*
X1498035Y519470D01*
Y520137D01*
X1498162Y520803D01*
X1498416Y521387D01*
X1498796Y521887D01*
X1499239Y522220D01*
X1499746Y522303D01*
X1500252Y522220D01*
X1500696Y521887D01*
X1501076Y521387D01*
X1501329Y520803D01*
X1501456Y520137D01*
Y519470D01*
X1501329Y518803D01*
X1501076Y518220D01*
X1500696Y517720D01*
X1500252Y517387D01*
X1499746Y517303D01*
G01X1504846Y522303D02*
Y517303D01*
G01X1503389Y522303D02*
X1506302D01*
G01X1508616Y517303D02*
Y522303D01*
G01X1511276D02*
Y517303D01*
G01Y519803D02*
X1508616D01*
G01X1516312Y517303D02*
X1513779D01*
Y522303D01*
X1516312D01*
G01X1515299Y519887D02*
X1513779D01*
G01X1518879Y517303D02*
Y522303D01*
X1520462D01*
X1520969Y522053D01*
X1521286Y521720D01*
X1521412Y521053D01*
X1521286Y520387D01*
X1520906Y519970D01*
X1520462Y519720D01*
X1518879D01*
G01X1520462D02*
X1521412Y517303D01*
G01X1523346Y522303D02*
X1524232Y517303D01*
X1525246Y522303D01*
X1526259Y517303D01*
X1527146Y522303D01*
G01X1529586D02*
X1531106D01*
G01X1530346D02*
Y517303D01*
G01X1529586D02*
X1531106D01*
G01X1534116Y517970D02*
X1534622Y517553D01*
X1535193Y517303D01*
X1535699D01*
X1536206Y517553D01*
X1536586Y517970D01*
X1536776Y518553D01*
X1536649Y519136D01*
X1536332Y519637D01*
X1535762Y519970D01*
X1535002Y520137D01*
X1534559Y520470D01*
X1534369Y521053D01*
X1534496Y521637D01*
X1534812Y522053D01*
X1535256Y522303D01*
X1535699D01*
X1536143Y522137D01*
X1536522Y521720D01*
G01X1541812Y517303D02*
X1539279D01*
Y522303D01*
X1541812D01*
G01X1540799Y519887D02*
X1539279D01*
G01X1549416Y517970D02*
X1549922Y517553D01*
X1550493Y517303D01*
X1550999D01*
X1551506Y517553D01*
X1551886Y517970D01*
X1552076Y518553D01*
X1551949Y519136D01*
X1551632Y519637D01*
X1551062Y519970D01*
X1550302Y520137D01*
X1549859Y520470D01*
X1549669Y521053D01*
X1549796Y521637D01*
X1550112Y522053D01*
X1550556Y522303D01*
X1550999D01*
X1551443Y522137D01*
X1551822Y521720D01*
G01X1554579Y517303D02*
Y522303D01*
X1556099D01*
X1556606Y522053D01*
X1556986Y521470D01*
X1557112Y520803D01*
X1556986Y520137D01*
X1556669Y519637D01*
X1556099Y519386D01*
X1554579D01*
G01X1562212Y517303D02*
X1559679D01*
Y522303D01*
X1562212D01*
G01X1561199Y519887D02*
X1559679D01*
G01X1567439Y521887D02*
X1567059Y522137D01*
X1566616Y522303D01*
X1566109D01*
X1565539Y522053D01*
X1565096Y521637D01*
X1564779Y521137D01*
X1564526Y520303D01*
X1564462Y519553D01*
X1564589Y518803D01*
X1564779Y518303D01*
X1565159Y517803D01*
X1565602Y517470D01*
X1566046Y517303D01*
X1566489D01*
X1566932Y517470D01*
X1567312Y517720D01*
X1567629Y518053D01*
G01X1570386Y522303D02*
X1571906D01*
G01X1571146D02*
Y517303D01*
G01X1570386D02*
X1571906D01*
G01X1575042D02*
Y522303D01*
X1577449D01*
G01X1576562Y519887D02*
X1575042D01*
G01X1580586Y522303D02*
X1582106D01*
G01X1581346D02*
Y517303D01*
G01X1580586D02*
X1582106D01*
G01X1587712D02*
X1585179D01*
Y522303D01*
X1587712D01*
G01X1586699Y519887D02*
X1585179D01*
G01X1590152Y517303D02*
Y522303D01*
X1591419D01*
X1591926Y522053D01*
X1592306Y521720D01*
X1592622Y521220D01*
X1592876Y520636D01*
X1592939Y519803D01*
X1592876Y518970D01*
X1592622Y518386D01*
X1592306Y517886D01*
X1591926Y517553D01*
X1591419Y517303D01*
X1590152D01*
G01X1604646Y534803D02*
Y354803D01*
G01Y389803D02*
X1814646D01*
G01X1604646Y414803D02*
X1814646D01*
G01X1604646Y444803D02*
X1814646D01*
G01X1604646Y474803D02*
X1814646D01*
G01X1647851Y518143D02*
X1648477Y517618D01*
X1649182Y517303D01*
X1649809D01*
X1650436Y517618D01*
X1650906Y518143D01*
X1651141Y518878D01*
X1650984Y519613D01*
X1650592Y520243D01*
X1649887Y520663D01*
X1648947Y520873D01*
X1648399Y521293D01*
X1648164Y522028D01*
X1648321Y522763D01*
X1648712Y523288D01*
X1649261Y523603D01*
X1649809D01*
X1650357Y523393D01*
X1650828Y522868D01*
G01X1654856Y523603D02*
X1656735D01*
G01X1655796D02*
Y517303D01*
G01X1654856D02*
X1656735D01*
G01X1662566Y520453D02*
X1664132D01*
Y518563D01*
X1663662Y517933D01*
X1663114Y517513D01*
X1662331Y517303D01*
X1661547Y517513D01*
X1660999Y517933D01*
X1660529Y518563D01*
X1660216Y519298D01*
X1660059Y520138D01*
Y520873D01*
X1660216Y521503D01*
X1660529Y522238D01*
X1660999Y522868D01*
X1661469Y523288D01*
X1662096Y523603D01*
X1662644D01*
X1663270Y523393D01*
X1663741Y522973D01*
G01X1666594Y517303D02*
Y523603D01*
X1670197Y517303D01*
Y523603D01*
G01X1672737Y517303D02*
X1674696Y523603D01*
X1676654Y517303D01*
G01X1675949Y519508D02*
X1673442D01*
G01X1680996Y523603D02*
Y517303D01*
G01X1679194Y523603D02*
X1682797D01*
G01X1685572D02*
Y519088D01*
X1685885Y518143D01*
X1686512Y517513D01*
X1687296Y517303D01*
X1688079Y517513D01*
X1688706Y518143D01*
X1689019Y519088D01*
Y523603D01*
G01X1692029Y517303D02*
Y523603D01*
X1693987D01*
X1694614Y523288D01*
X1695006Y522868D01*
X1695162Y522028D01*
X1695006Y521188D01*
X1694536Y520663D01*
X1693987Y520348D01*
X1692029D01*
G01X1693987D02*
X1695162Y517303D01*
G01X1701462D02*
X1698329D01*
Y523603D01*
X1701462D01*
G01X1700209Y520558D02*
X1698329D01*
G01X1704551Y518143D02*
X1705177Y517618D01*
X1705882Y517303D01*
X1706509D01*
X1707136Y517618D01*
X1707606Y518143D01*
X1707841Y518878D01*
X1707684Y519613D01*
X1707292Y520243D01*
X1706587Y520663D01*
X1705647Y520873D01*
X1705099Y521293D01*
X1704864Y522028D01*
X1705021Y522763D01*
X1705412Y523288D01*
X1705961Y523603D01*
X1706509D01*
X1707057Y523393D01*
X1707528Y522868D01*
G01X1734646Y417303D02*
Y414803D01*
G01Y417303D02*
Y534803D01*
G01Y1304803D02*
Y1274803D01*
G01Y1394803D02*
Y1304803D01*
G01Y1334803D02*
X2234646D01*
G01X1734646Y1364803D02*
X2234646D01*
G01X1740896Y1344803D02*
Y1354803D01*
X1744020D01*
X1745020Y1354303D01*
X1745646Y1353637D01*
X1745896Y1352303D01*
X1745646Y1350970D01*
X1744896Y1350137D01*
X1744020Y1349636D01*
X1740896D01*
G01X1744020D02*
X1745896Y1344803D01*
G01X1755896D02*
X1750896D01*
Y1354803D01*
X1755896D01*
G01X1753896Y1349970D02*
X1750896D01*
G01X1760270Y1354803D02*
X1763396Y1344803D01*
X1766521Y1354803D01*
G01X1760272Y517303D02*
Y523603D01*
X1761839D01*
X1762466Y523288D01*
X1762936Y522868D01*
X1763328Y522238D01*
X1763641Y521503D01*
X1763719Y520453D01*
X1763641Y519403D01*
X1763328Y518668D01*
X1762936Y518038D01*
X1762466Y517618D01*
X1761839Y517303D01*
X1760272D01*
G01X1766337D02*
X1768296Y523603D01*
X1770254Y517303D01*
G01X1769549Y519508D02*
X1767042D01*
G01X1774596Y523603D02*
Y517303D01*
G01X1772794Y523603D02*
X1776397D01*
G01X1782462Y517303D02*
X1779329D01*
Y523603D01*
X1782462D01*
G01X1781209Y520558D02*
X1779329D01*
G01X1774646Y1304803D02*
Y1274803D01*
G01Y1304803D02*
Y1364803D01*
G01X1814646Y534803D02*
Y354803D01*
G01X2064646Y384803D02*
X1814646D01*
G01X2234646Y424803D02*
X1814646D01*
G01X2234646Y484803D02*
X1814646D01*
G01X1820770Y371136D02*
X1821771Y370303D01*
X1822896Y369803D01*
X1823896D01*
X1824896Y370303D01*
X1825646Y371136D01*
X1826021Y372303D01*
X1825771Y373470D01*
X1825146Y374470D01*
X1824020Y375137D01*
X1822521Y375470D01*
X1821646Y376136D01*
X1821270Y377303D01*
X1821521Y378470D01*
X1822146Y379303D01*
X1823020Y379803D01*
X1823896D01*
X1824771Y379470D01*
X1825521Y378637D01*
G01X1836146Y378970D02*
X1835396Y379470D01*
X1834521Y379803D01*
X1833521D01*
X1832396Y379303D01*
X1831521Y378470D01*
X1830896Y377470D01*
X1830396Y375803D01*
X1830270Y374303D01*
X1830521Y372803D01*
X1830896Y371803D01*
X1831646Y370803D01*
X1832521Y370136D01*
X1833396Y369803D01*
X1834270D01*
X1835146Y370136D01*
X1835896Y370636D01*
X1836521Y371303D01*
G01X1840270Y369803D02*
X1843396Y379803D01*
X1846521Y369803D01*
G01X1845396Y373303D02*
X1841396D01*
G01X1850896Y379803D02*
Y369803D01*
X1855896D01*
G01X1865896D02*
X1860896D01*
Y379803D01*
X1865896D01*
G01X1863896Y374970D02*
X1860896D01*
G01X1820770Y411136D02*
X1821771Y410303D01*
X1822896Y409803D01*
X1823896D01*
X1824896Y410303D01*
X1825646Y411136D01*
X1826021Y412303D01*
X1825771Y413470D01*
X1825146Y414470D01*
X1824020Y415137D01*
X1822521Y415470D01*
X1821646Y416136D01*
X1821270Y417303D01*
X1821521Y418470D01*
X1822146Y419303D01*
X1823020Y419803D01*
X1823896D01*
X1824771Y419470D01*
X1825521Y418637D01*
G01X1831896Y419803D02*
X1834895D01*
G01X1833396D02*
Y409803D01*
G01X1831896D02*
X1834895D01*
G01X1841020Y419803D02*
X1845771D01*
X1841020Y409803D01*
X1845771D01*
G01X1855896D02*
X1850896D01*
Y419803D01*
X1855896D01*
G01X1853896Y414970D02*
X1850896D01*
G01X1845646Y1344803D02*
Y1354803D01*
X1848146D01*
X1849146Y1354303D01*
X1849896Y1353637D01*
X1850521Y1352637D01*
X1851021Y1351470D01*
X1851146Y1349803D01*
X1851021Y1348136D01*
X1850521Y1346970D01*
X1849896Y1345970D01*
X1849146Y1345303D01*
X1848146Y1344803D01*
X1845646D01*
G01X1860896D02*
X1855896D01*
Y1354803D01*
X1860896D01*
G01X1858896Y1349970D02*
X1855896D01*
G01X1865770Y1346136D02*
X1866771Y1345303D01*
X1867896Y1344803D01*
X1868896D01*
X1869896Y1345303D01*
X1870646Y1346136D01*
X1871021Y1347303D01*
X1870771Y1348470D01*
X1870146Y1349470D01*
X1869020Y1350137D01*
X1867521Y1350470D01*
X1866646Y1351136D01*
X1866270Y1352303D01*
X1866521Y1353470D01*
X1867146Y1354303D01*
X1868020Y1354803D01*
X1868896D01*
X1869771Y1354470D01*
X1870521Y1353637D01*
G01X1881146Y1353970D02*
X1880396Y1354470D01*
X1879521Y1354803D01*
X1878521D01*
X1877396Y1354303D01*
X1876521Y1353470D01*
X1875896Y1352470D01*
X1875396Y1350803D01*
X1875270Y1349303D01*
X1875521Y1347803D01*
X1875896Y1346803D01*
X1876646Y1345803D01*
X1877521Y1345136D01*
X1878396Y1344803D01*
X1879270D01*
X1880146Y1345136D01*
X1880896Y1345636D01*
X1881521Y1346303D01*
G01X1885896Y1344803D02*
Y1354803D01*
X1889020D01*
X1890020Y1354303D01*
X1890646Y1353637D01*
X1890896Y1352303D01*
X1890646Y1350970D01*
X1889896Y1350137D01*
X1889020Y1349636D01*
X1885896D01*
G01X1889020D02*
X1890896Y1344803D01*
G01X1896896Y1354803D02*
X1899895D01*
G01X1898396D02*
Y1344803D01*
G01X1896896D02*
X1899895D01*
G01X1905896D02*
Y1354803D01*
X1908896D01*
X1909896Y1354303D01*
X1910646Y1353137D01*
X1910896Y1351803D01*
X1910646Y1350470D01*
X1910020Y1349470D01*
X1908896Y1348970D01*
X1905896D01*
G01X1918396Y1354803D02*
Y1344803D01*
G01X1915521Y1354803D02*
X1921270D01*
G01X1926896D02*
X1929895D01*
G01X1928396D02*
Y1344803D01*
G01X1926896D02*
X1929895D01*
G01X1938396D02*
X1937396Y1344970D01*
X1936521Y1345636D01*
X1935770Y1346636D01*
X1935270Y1347803D01*
X1935020Y1349137D01*
Y1350470D01*
X1935270Y1351803D01*
X1935770Y1352970D01*
X1936521Y1353970D01*
X1937396Y1354637D01*
X1938396Y1354803D01*
X1939396Y1354637D01*
X1940270Y1353970D01*
X1941021Y1352970D01*
X1941521Y1351803D01*
X1941771Y1350470D01*
Y1349137D01*
X1941521Y1347803D01*
X1941021Y1346636D01*
X1940270Y1345636D01*
X1939396Y1344970D01*
X1938396Y1344803D01*
G01X1945521D02*
Y1354803D01*
X1951270Y1344803D01*
Y1354803D01*
G01X1864646Y384803D02*
Y424803D01*
G01X1876020Y409803D02*
Y419803D01*
X1880771D01*
G01X1879020Y414970D02*
X1876020D01*
G01X1885770Y411136D02*
X1886771Y410303D01*
X1887896Y409803D01*
X1888896D01*
X1889896Y410303D01*
X1890646Y411136D01*
X1891021Y412303D01*
X1890771Y413470D01*
X1890146Y414470D01*
X1889020Y415137D01*
X1887521Y415470D01*
X1886646Y416136D01*
X1886270Y417303D01*
X1886521Y418470D01*
X1887146Y419303D01*
X1888020Y419803D01*
X1888896D01*
X1889771Y419470D01*
X1890521Y418637D01*
G01X1901146Y418970D02*
X1900396Y419470D01*
X1899521Y419803D01*
X1898521D01*
X1897396Y419303D01*
X1896521Y418470D01*
X1895896Y417470D01*
X1895396Y415803D01*
X1895270Y414303D01*
X1895521Y412803D01*
X1895896Y411803D01*
X1896646Y410803D01*
X1897521Y410136D01*
X1898396Y409803D01*
X1899270D01*
X1900146Y410136D01*
X1900896Y410636D01*
X1901521Y411303D01*
G01X1905146Y409803D02*
Y419803D01*
X1908396Y411470D01*
X1911646Y419803D01*
Y409803D01*
G01X1925521D02*
Y419803D01*
X1931270Y409803D01*
Y419803D01*
G01X1938396Y409803D02*
X1937396Y409970D01*
X1936521Y410636D01*
X1935770Y411636D01*
X1935270Y412803D01*
X1935020Y414137D01*
Y415470D01*
X1935270Y416803D01*
X1935770Y417970D01*
X1936521Y418970D01*
X1937396Y419637D01*
X1938396Y419803D01*
X1939396Y419637D01*
X1940270Y418970D01*
X1941021Y417970D01*
X1941521Y416803D01*
X1941771Y415470D01*
Y414137D01*
X1941521Y412803D01*
X1941021Y411636D01*
X1940270Y410636D01*
X1939396Y409970D01*
X1938396Y409803D01*
G01X1885521Y504803D02*
Y514803D01*
X1891270Y504803D01*
Y514803D01*
G01X1898396Y504803D02*
Y509303D01*
X1895896Y514803D01*
G01X1900896D02*
X1898396Y509303D01*
G01X1905646Y514803D02*
Y507637D01*
X1906146Y506136D01*
X1907146Y505136D01*
X1908396Y504803D01*
X1909646Y505136D01*
X1910646Y506136D01*
X1911146Y507637D01*
Y514803D01*
G01X1925521Y504803D02*
Y514803D01*
X1931270Y504803D01*
Y514803D01*
G01X1935270Y504803D02*
X1938396Y514803D01*
X1941521Y504803D01*
G01X1940396Y508303D02*
X1936396D01*
G01X1945521Y504803D02*
Y514803D01*
X1951270Y504803D01*
Y514803D01*
G01X1958396Y504803D02*
X1957396Y504970D01*
X1956521Y505636D01*
X1955770Y506636D01*
X1955270Y507803D01*
X1955020Y509137D01*
Y510470D01*
X1955270Y511803D01*
X1955770Y512970D01*
X1956521Y513970D01*
X1957396Y514637D01*
X1958396Y514803D01*
X1959396Y514637D01*
X1960270Y513970D01*
X1961021Y512970D01*
X1961521Y511803D01*
X1961771Y510470D01*
Y509137D01*
X1961521Y507803D01*
X1961021Y506636D01*
X1960270Y505636D01*
X1959396Y504970D01*
X1958396Y504803D01*
G01X1970896D02*
X1965896D01*
Y514803D01*
X1970896D01*
G01X1968896Y509970D02*
X1965896D01*
G01X1975896Y514803D02*
Y504803D01*
X1980896D01*
G01X1990896D02*
X1985896D01*
Y514803D01*
X1990896D01*
G01X1988896Y509970D02*
X1985896D01*
G01X2001146Y513970D02*
X2000396Y514470D01*
X1999521Y514803D01*
X1998521D01*
X1997396Y514303D01*
X1996521Y513470D01*
X1995896Y512470D01*
X1995396Y510803D01*
X1995270Y509303D01*
X1995521Y507803D01*
X1995896Y506803D01*
X1996646Y505803D01*
X1997521Y505136D01*
X1998396Y504803D01*
X1999270D01*
X2000146Y505136D01*
X2000896Y505636D01*
X2001521Y506303D01*
G01X2008396Y514803D02*
Y504803D01*
G01X2005521Y514803D02*
X2011270D01*
G01X2015896Y504803D02*
Y514803D01*
X2019020D01*
X2020020Y514303D01*
X2020646Y513637D01*
X2020896Y512303D01*
X2020646Y510970D01*
X2019896Y510137D01*
X2019020Y509636D01*
X2015896D01*
G01X2019020D02*
X2020896Y504803D01*
G01X2028396D02*
X2027396Y504970D01*
X2026521Y505636D01*
X2025770Y506636D01*
X2025270Y507803D01*
X2025020Y509137D01*
Y510470D01*
X2025270Y511803D01*
X2025770Y512970D01*
X2026521Y513970D01*
X2027396Y514637D01*
X2028396Y514803D01*
X2029396Y514637D01*
X2030270Y513970D01*
X2031021Y512970D01*
X2031521Y511803D01*
X2031771Y510470D01*
Y509137D01*
X2031521Y507803D01*
X2031021Y506636D01*
X2030270Y505636D01*
X2029396Y504970D01*
X2028396Y504803D01*
G01X2035521D02*
Y514803D01*
X2041270Y504803D01*
Y514803D01*
G01X2046896D02*
X2049895D01*
G01X2048396D02*
Y504803D01*
G01X2046896D02*
X2049895D01*
G01X2061146Y513970D02*
X2060396Y514470D01*
X2059521Y514803D01*
X2058521D01*
X2057396Y514303D01*
X2056521Y513470D01*
X2055896Y512470D01*
X2055396Y510803D01*
X2055270Y509303D01*
X2055521Y507803D01*
X2055896Y506803D01*
X2056646Y505803D01*
X2057521Y505136D01*
X2058396Y504803D01*
X2059270D01*
X2060146Y505136D01*
X2060896Y505636D01*
X2061521Y506303D01*
G01X2065770Y506136D02*
X2066771Y505303D01*
X2067896Y504803D01*
X2068896D01*
X2069896Y505303D01*
X2070646Y506136D01*
X2071021Y507303D01*
X2070771Y508470D01*
X2070146Y509470D01*
X2069020Y510137D01*
X2067521Y510470D01*
X2066646Y511136D01*
X2066270Y512303D01*
X2066521Y513470D01*
X2067146Y514303D01*
X2068020Y514803D01*
X2068896D01*
X2069771Y514470D01*
X2070521Y513637D01*
G01X2085896Y514803D02*
Y504803D01*
X2090896D01*
G01X2095270D02*
X2098396Y514803D01*
X2101521Y504803D01*
G01X2100396Y508303D02*
X2096396D01*
G01X2109396Y510137D02*
X2109896Y510637D01*
X2110270Y511470D01*
X2110521Y512637D01*
X2110270Y513637D01*
X2109771Y514303D01*
X2108896Y514803D01*
X2105521D01*
Y504803D01*
X2109646D01*
X2110521Y505470D01*
X2111021Y506470D01*
X2111270Y507637D01*
X2111021Y508803D01*
X2110270Y509803D01*
X2109396Y510137D01*
X2105521D01*
G01X2118396Y504803D02*
X2117396Y504970D01*
X2116521Y505636D01*
X2115770Y506636D01*
X2115270Y507803D01*
X2115020Y509137D01*
Y510470D01*
X2115270Y511803D01*
X2115770Y512970D01*
X2116521Y513970D01*
X2117396Y514637D01*
X2118396Y514803D01*
X2119396Y514637D01*
X2120270Y513970D01*
X2121021Y512970D01*
X2121521Y511803D01*
X2121771Y510470D01*
Y509137D01*
X2121521Y507803D01*
X2121021Y506636D01*
X2120270Y505636D01*
X2119396Y504970D01*
X2118396Y504803D01*
G01X2125896D02*
Y514803D01*
X2129020D01*
X2130020Y514303D01*
X2130646Y513637D01*
X2130896Y512303D01*
X2130646Y510970D01*
X2129896Y510137D01*
X2129020Y509636D01*
X2125896D01*
G01X2129020D02*
X2130896Y504803D01*
G01X2135270D02*
X2138396Y514803D01*
X2141521Y504803D01*
G01X2140396Y508303D02*
X2136396D01*
G01X2148396Y514803D02*
Y504803D01*
G01X2145521Y514803D02*
X2151270D01*
G01X2158396Y504803D02*
X2157396Y504970D01*
X2156521Y505636D01*
X2155770Y506636D01*
X2155270Y507803D01*
X2155020Y509137D01*
Y510470D01*
X2155270Y511803D01*
X2155770Y512970D01*
X2156521Y513970D01*
X2157396Y514637D01*
X2158396Y514803D01*
X2159396Y514637D01*
X2160270Y513970D01*
X2161021Y512970D01*
X2161521Y511803D01*
X2161771Y510470D01*
Y509137D01*
X2161521Y507803D01*
X2161021Y506636D01*
X2160270Y505636D01*
X2159396Y504970D01*
X2158396Y504803D01*
G01X2165896D02*
Y514803D01*
X2169020D01*
X2170020Y514303D01*
X2170646Y513637D01*
X2170896Y512303D01*
X2170646Y510970D01*
X2169896Y510137D01*
X2169020Y509636D01*
X2165896D01*
G01X2169020D02*
X2170896Y504803D01*
G01X2178396D02*
Y509303D01*
X2175896Y514803D01*
G01X2180896D02*
X2178396Y509303D01*
G01X1904646Y384803D02*
Y354803D01*
G01X1950896Y1374803D02*
Y1384803D01*
X1954020D01*
X1955020Y1384303D01*
X1955646Y1383637D01*
X1955896Y1382303D01*
X1955646Y1380970D01*
X1954896Y1380137D01*
X1954020Y1379636D01*
X1950896D01*
G01X1954020D02*
X1955896Y1374803D01*
G01X1965896D02*
X1960896D01*
Y1384803D01*
X1965896D01*
G01X1963896Y1379970D02*
X1960896D01*
G01X1970270Y1384803D02*
X1973396Y1374803D01*
X1976521Y1384803D01*
G01X1981896D02*
X1984895D01*
G01X1983396D02*
Y1374803D01*
G01X1981896D02*
X1984895D01*
G01X1990770Y1376136D02*
X1991771Y1375303D01*
X1992896Y1374803D01*
X1993896D01*
X1994896Y1375303D01*
X1995646Y1376136D01*
X1996021Y1377303D01*
X1995771Y1378470D01*
X1995146Y1379470D01*
X1994020Y1380137D01*
X1992521Y1380470D01*
X1991646Y1381136D01*
X1991270Y1382303D01*
X1991521Y1383470D01*
X1992146Y1384303D01*
X1993020Y1384803D01*
X1993896D01*
X1994771Y1384470D01*
X1995521Y1383637D01*
G01X2001896Y1384803D02*
X2004895D01*
G01X2003396D02*
Y1374803D01*
G01X2001896D02*
X2004895D01*
G01X2013396D02*
X2012396Y1374970D01*
X2011521Y1375636D01*
X2010770Y1376636D01*
X2010270Y1377803D01*
X2010020Y1379137D01*
Y1380470D01*
X2010270Y1381803D01*
X2010770Y1382970D01*
X2011521Y1383970D01*
X2012396Y1384637D01*
X2013396Y1384803D01*
X2014396Y1384637D01*
X2015270Y1383970D01*
X2016021Y1382970D01*
X2016521Y1381803D01*
X2016771Y1380470D01*
Y1379137D01*
X2016521Y1377803D01*
X2016021Y1376636D01*
X2015270Y1375636D01*
X2014396Y1374970D01*
X2013396Y1374803D01*
G01X2020521D02*
Y1384803D01*
X2026270Y1374803D01*
Y1384803D01*
G01X2030770Y1376136D02*
X2031771Y1375303D01*
X2032896Y1374803D01*
X2033896D01*
X2034896Y1375303D01*
X2035646Y1376136D01*
X2036021Y1377303D01*
X2035771Y1378470D01*
X2035146Y1379470D01*
X2034020Y1380137D01*
X2032521Y1380470D01*
X2031646Y1381136D01*
X2031270Y1382303D01*
X2031521Y1383470D01*
X2032146Y1384303D01*
X2033020Y1384803D01*
X2033896D01*
X2034771Y1384470D01*
X2035521Y1383637D01*
G01X1967910Y450787D02*
Y460787D01*
X1972661D01*
G01X1970910Y455954D02*
X1967910D01*
G01X1977660Y452120D02*
X1978661Y451287D01*
X1979785Y450787D01*
X1980785D01*
X1981785Y451287D01*
X1982535Y452120D01*
X1982911Y453287D01*
X1982661Y454454D01*
X1982035Y455454D01*
X1980910Y456121D01*
X1979411Y456454D01*
X1978535Y457120D01*
X1978160Y458287D01*
X1978411Y459454D01*
X1979035Y460287D01*
X1979910Y460787D01*
X1980785D01*
X1981661Y460454D01*
X1982411Y459621D01*
G01X1993035Y459954D02*
X1992285Y460454D01*
X1991411Y460787D01*
X1990411D01*
X1989285Y460287D01*
X1988411Y459454D01*
X1987785Y458454D01*
X1987285Y456787D01*
X1987160Y455287D01*
X1987411Y453787D01*
X1987785Y452787D01*
X1988535Y451787D01*
X1989411Y451120D01*
X1990285Y450787D01*
X1991160D01*
X1992035Y451120D01*
X1992785Y451620D01*
X1993411Y452287D01*
G01X1997160Y460787D02*
X2000285Y450787D01*
X2003411Y460787D01*
G01X2021285Y456121D02*
X2021785Y456621D01*
X2022160Y457454D01*
X2022411Y458621D01*
X2022160Y459621D01*
X2021661Y460287D01*
X2020785Y460787D01*
X2017411D01*
Y450787D01*
X2021535D01*
X2022411Y451454D01*
X2022911Y452454D01*
X2023160Y453621D01*
X2022911Y454787D01*
X2022160Y455787D01*
X2021285Y456121D01*
X2017411D01*
G01X2030285Y450787D02*
X2029285Y450954D01*
X2028411Y451620D01*
X2027660Y452620D01*
X2027160Y453787D01*
X2026910Y455121D01*
Y456454D01*
X2027160Y457787D01*
X2027660Y458954D01*
X2028411Y459954D01*
X2029285Y460621D01*
X2030285Y460787D01*
X2031285Y460621D01*
X2032160Y459954D01*
X2032911Y458954D01*
X2033411Y457787D01*
X2033661Y456454D01*
Y455121D01*
X2033411Y453787D01*
X2032911Y452620D01*
X2032160Y451620D01*
X2031285Y450954D01*
X2030285Y450787D01*
G01X2037160D02*
X2040285Y460787D01*
X2043411Y450787D01*
G01X2042285Y454287D02*
X2038285D01*
G01X2047785Y450787D02*
Y460787D01*
X2050910D01*
X2051910Y460287D01*
X2052535Y459621D01*
X2052785Y458287D01*
X2052535Y456954D01*
X2051785Y456121D01*
X2050910Y455620D01*
X2047785D01*
G01X2050910D02*
X2052785Y450787D01*
G01X2057535D02*
Y460787D01*
X2060035D01*
X2061035Y460287D01*
X2061785Y459621D01*
X2062411Y458621D01*
X2062911Y457454D01*
X2063035Y455787D01*
X2062911Y454120D01*
X2062411Y452954D01*
X2061785Y451954D01*
X2061035Y451287D01*
X2060035Y450787D01*
X2057535D01*
G01X1984646Y384803D02*
Y424803D01*
G01X1995646Y409803D02*
Y419803D01*
X1998146D01*
X1999146Y419303D01*
X1999896Y418637D01*
X2000521Y417637D01*
X2001021Y416470D01*
X2001146Y414803D01*
X2001021Y413136D01*
X2000521Y411970D01*
X1999896Y410970D01*
X1999146Y410303D01*
X1998146Y409803D01*
X1995646D01*
G01X2004646Y419803D02*
X2006396Y409803D01*
X2008396Y419803D01*
X2010396Y409803D01*
X2012146Y419803D01*
G01X2019146Y414803D02*
X2021646D01*
Y411803D01*
X2020896Y410803D01*
X2020020Y410136D01*
X2018771Y409803D01*
X2017521Y410136D01*
X2016646Y410803D01*
X2015896Y411803D01*
X2015396Y412970D01*
X2015146Y414303D01*
Y415470D01*
X2015396Y416470D01*
X2015896Y417637D01*
X2016646Y418637D01*
X2017396Y419303D01*
X2018396Y419803D01*
X2019270D01*
X2020270Y419470D01*
X2021021Y418803D01*
G01X2035521Y409803D02*
Y419803D01*
X2041270Y409803D01*
Y419803D01*
G01X2048396Y409803D02*
X2047396Y409970D01*
X2046521Y410636D01*
X2045770Y411636D01*
X2045270Y412803D01*
X2045020Y414137D01*
Y415470D01*
X2045270Y416803D01*
X2045770Y417970D01*
X2046521Y418970D01*
X2047396Y419637D01*
X2048396Y419803D01*
X2049396Y419637D01*
X2050270Y418970D01*
X2051021Y417970D01*
X2051521Y416803D01*
X2051771Y415470D01*
Y414137D01*
X2051521Y412803D01*
X2051021Y411636D01*
X2050270Y410636D01*
X2049396Y409970D01*
X2048396Y409803D01*
G01X2044646Y1304803D02*
Y1274803D01*
G01Y1294803D02*
Y1334803D01*
G01D02*
Y1364803D01*
G01X2064646Y354803D02*
Y384803D01*
X2234646D01*
G01X2075770Y371136D02*
X2076771Y370303D01*
X2077896Y369803D01*
X2078896D01*
X2079896Y370303D01*
X2080646Y371136D01*
X2081021Y372303D01*
X2080771Y373470D01*
X2080146Y374470D01*
X2079020Y375137D01*
X2077521Y375470D01*
X2076646Y376136D01*
X2076270Y377303D01*
X2076521Y378470D01*
X2077146Y379303D01*
X2078020Y379803D01*
X2078896D01*
X2079771Y379470D01*
X2080521Y378637D01*
G01X2085770Y369803D02*
Y379803D01*
G01X2091021D02*
Y369803D01*
G01Y374803D02*
X2085770D01*
G01X2100896Y369803D02*
X2095896D01*
Y379803D01*
X2100896D01*
G01X2098896Y374970D02*
X2095896D01*
G01X2110896Y369803D02*
X2105896D01*
Y379803D01*
X2110896D01*
G01X2108896Y374970D02*
X2105896D01*
G01X2118396Y379803D02*
Y369803D01*
G01X2115521Y379803D02*
X2121270D01*
G01X2070646Y1344803D02*
Y1354803D01*
X2073146D01*
X2074146Y1354303D01*
X2074896Y1353637D01*
X2075521Y1352637D01*
X2076021Y1351470D01*
X2076146Y1349803D01*
X2076021Y1348136D01*
X2075521Y1346970D01*
X2074896Y1345970D01*
X2074146Y1345303D01*
X2073146Y1344803D01*
X2070646D01*
G01X2080270D02*
X2083396Y1354803D01*
X2086521Y1344803D01*
G01X2085396Y1348303D02*
X2081396D01*
G01X2093396Y1354803D02*
Y1344803D01*
G01X2090521Y1354803D02*
X2096270D01*
G01X2105896Y1344803D02*
X2100896D01*
Y1354803D01*
X2105896D01*
G01X2103896Y1349970D02*
X2100896D01*
G01X2134646Y1304803D02*
Y1274803D01*
G01Y1304803D02*
Y1334803D01*
G01D02*
Y1364803D01*
G01X2145270Y1344803D02*
X2148396Y1354803D01*
X2151521Y1344803D01*
G01X2150396Y1348303D02*
X2146396D01*
G01X2155896Y1344803D02*
Y1354803D01*
X2158896D01*
X2159896Y1354303D01*
X2160646Y1353137D01*
X2160896Y1351803D01*
X2160646Y1350470D01*
X2160020Y1349470D01*
X2158896Y1348970D01*
X2155896D01*
G01X2165896Y1344803D02*
Y1354803D01*
X2168896D01*
X2169896Y1354303D01*
X2170646Y1353137D01*
X2170896Y1351803D01*
X2170646Y1350470D01*
X2170020Y1349470D01*
X2168896Y1348970D01*
X2165896D01*
G01X2175896Y1344803D02*
Y1354803D01*
X2179020D01*
X2180020Y1354303D01*
X2180646Y1353637D01*
X2180896Y1352303D01*
X2180646Y1350970D01*
X2179896Y1350137D01*
X2179020Y1349636D01*
X2175896D01*
G01X2179020D02*
X2180896Y1344803D01*
G01X2188396D02*
X2187396Y1344970D01*
X2186521Y1345636D01*
X2185770Y1346636D01*
X2185270Y1347803D01*
X2185020Y1349137D01*
Y1350470D01*
X2185270Y1351803D01*
X2185770Y1352970D01*
X2186521Y1353970D01*
X2187396Y1354637D01*
X2188396Y1354803D01*
X2189396Y1354637D01*
X2190270Y1353970D01*
X2191021Y1352970D01*
X2191521Y1351803D01*
X2191771Y1350470D01*
Y1349137D01*
X2191521Y1347803D01*
X2191021Y1346636D01*
X2190270Y1345636D01*
X2189396Y1344970D01*
X2188396Y1344803D01*
G01X2195270Y1354803D02*
X2198396Y1344803D01*
X2201521Y1354803D01*
G01X2210896Y1344803D02*
X2205896D01*
Y1354803D01*
X2210896D01*
G01X2208896Y1349970D02*
X2205896D01*
G01X2215646Y1344803D02*
Y1354803D01*
X2218146D01*
X2219146Y1354303D01*
X2219896Y1353637D01*
X2220521Y1352637D01*
X2221021Y1351470D01*
X2221146Y1349803D01*
X2221021Y1348136D01*
X2220521Y1346970D01*
X2219896Y1345970D01*
X2219146Y1345303D01*
X2218146Y1344803D01*
X2215646D01*
G01X2234646Y1394803D02*
Y1274803D01*
G54D12*
G01X877717Y594311D02*
X892283D01*
G01X873051Y618839D02*
G03I-394J0D01*
G01X874504Y614060D02*
X895174D01*
G01X899547Y830610D02*
G03I-394J0D01*
G01X882185Y903996D02*
G03I-394J0D01*
G01X902854Y662323D02*
G03I-394J0D01*
G01X904823Y697776D02*
G03I-394J0D01*
G01Y737165D02*
G03I-394J0D01*
G01X914961Y902028D02*
G03I-394J0D01*
G01X949823Y624744D02*
G03I-394J0D01*
G01X947854Y662165D02*
G03I-394J0D01*
G01Y697618D02*
G03I-394J0D01*
G01X947146Y902028D02*
G03I-394J0D01*
G01X980256Y915256D02*
G03I-394J0D01*
G01X989685Y618839D02*
G03I-394J0D01*
G01X991654Y660197D02*
G03I-394J0D01*
G01Y699587D02*
G03I-394J0D01*
G01Y735039D02*
G03I-394J0D01*
G01Y774429D02*
G03I-394J0D01*
G01Y811850D02*
G03I-394J0D01*
G01X1012626Y899783D02*
Y885217D01*
G01X1032374Y902996D02*
Y882326D01*
G01X1033406Y905413D02*
G03I-394J0D01*
G01X1047717Y691811D02*
X1062283D01*
G01X1044311Y715295D02*
G03I-394J0D01*
G01X1044504Y711560D02*
X1065174D01*
G01X1046791Y829744D02*
G03I-394J0D01*
G01X1061791Y749744D02*
G03I-394J0D01*
G01X1082618Y889665D02*
G03I-394J0D01*
G01X1114823Y630610D02*
G03I-394J0D01*
G01Y668012D02*
G03I-394J0D01*
G01X1112854Y707402D02*
G03I-394J0D01*
G01Y744823D02*
G03I-394J0D01*
G01X1114823Y780276D02*
G03I-394J0D01*
G01X1105335Y815256D02*
G03I-394J0D01*
G01X1102303Y844390D02*
G03I-394J0D01*
G01X1153484Y736122D02*
G03I-394J0D01*
G01X1156806Y737398D02*
Y758067D01*
G01X1173169Y677067D02*
G03I-394J0D01*
G01X1176555Y740610D02*
Y755177D01*
G01X1164331Y811260D02*
X1178898D01*
G01X1161358Y834547D02*
G03I-394J0D01*
G01X1161119Y831009D02*
X1181788D01*
G01X1164331Y841260D02*
X1178898D01*
G01X1161358Y864075D02*
G03I-394J0D01*
G01X1161119Y861009D02*
X1181788D01*
G01X1198760Y576673D02*
G03I-394J0D01*
G01X1182323Y622244D02*
G03I-394J0D01*
G01X1183012Y736122D02*
G03I-394J0D01*
G01X1186806Y737398D02*
Y758067D01*
G01X1204252Y548307D02*
G03I-394J0D01*
G01X1202953Y681220D02*
G03I-394J0D01*
G01X1206555Y740610D02*
Y755177D01*
G01X1259783Y566831D02*
G03I-394J0D01*
G01Y598327D02*
G03I-394J0D01*
G01X1246791Y854744D02*
G03I-394J0D01*
G01X1265217Y544311D02*
X1279783D01*
G01X1265217Y574311D02*
X1279783D01*
G01X1262004Y564060D02*
X1282674D01*
G01X1262004Y594060D02*
X1282674D01*
G54D13*
G01X866142Y840394D02*
Y838661D01*
G01X871654Y840394D02*
Y838661D01*
G01X867972Y899606D02*
Y893307D01*
G01X880059Y899606D02*
Y893307D01*
G01X906850Y646535D02*
X913150D01*
G01X906850Y658622D02*
X913150D01*
G01X906850Y683957D02*
X913150D01*
G01X906850Y696043D02*
X913150D01*
G01X906850Y721378D02*
X913150D01*
G01X906850Y733465D02*
X913150D01*
G01X900748Y899606D02*
Y893307D01*
G01X912835Y899606D02*
Y893307D01*
G01X932933Y899606D02*
Y893307D01*
G01X951850Y608957D02*
X958150D01*
G01X951850Y621043D02*
X958150D01*
G01X951850Y646378D02*
X958150D01*
G01X951850Y658465D02*
X958150D01*
G01X951850Y683799D02*
X958150D01*
G01X951850Y695886D02*
X958150D01*
G01X945020Y899606D02*
Y893307D01*
G01X995650Y608957D02*
X1001949D01*
G01X995650Y621043D02*
X1001949D01*
G01X995650Y646378D02*
X1001949D01*
G01X995650Y658465D02*
X1001949D01*
G01X995650Y683799D02*
X1001949D01*
G01X995650Y695886D02*
X1001949D01*
G01X995650Y721220D02*
X1001949D01*
G01X995650Y733307D02*
X1001949D01*
G01X995650Y758642D02*
X1001949D01*
G01X995650Y770728D02*
X1001949D01*
G01X995650Y796063D02*
X1001949D01*
G01X995650Y808150D02*
X1001949D01*
G01X982283Y901437D02*
X988583D01*
G01X982283Y913524D02*
X988583D01*
G01X1046850Y813957D02*
X1053150D01*
G01X1046850Y826043D02*
X1053150D01*
G01X1061850Y733957D02*
X1068150D01*
G01X1061850Y746043D02*
X1068150D01*
G01X1096457Y826909D02*
Y828642D01*
G01X1090945Y826909D02*
Y828642D01*
G01X1116850Y616772D02*
X1123150D01*
G01X1116850Y628858D02*
X1123150D01*
G01X1116850Y654193D02*
X1123150D01*
G01X1116850Y666280D02*
X1123150D01*
G01X1116850Y691614D02*
X1123150D01*
G01X1116850Y703701D02*
X1123150D01*
G01X1116850Y729035D02*
X1123150D01*
G01X1116850Y741122D02*
X1123150D01*
G01X1116850Y766457D02*
X1123150D01*
G01X1116850Y778543D02*
X1123150D01*
G01X1107362Y799469D02*
X1113661D01*
G01X1107362Y811555D02*
X1113661D01*
G01X1130315Y836516D02*
Y834783D01*
G01X1135827Y836516D02*
Y834783D01*
G01X1197343Y559961D02*
Y561693D01*
G01X1191831Y559961D02*
Y561693D01*
G01X1184350Y606457D02*
X1190650D01*
G01X1184350Y618543D02*
X1190650D01*
G01X1190906Y672736D02*
X1189173D01*
G01X1190906Y667224D02*
X1189173D01*
G01X1181299Y706594D02*
X1183031D01*
G01X1181299Y712106D02*
X1183031D01*
G01X1208248Y532520D02*
X1214547D01*
G01X1208248Y544606D02*
X1214547D01*
G01X1218346Y683642D02*
Y689941D01*
G01X1206260Y683642D02*
Y689941D01*
G01X1231201Y569567D02*
Y567835D01*
G01X1236713Y569567D02*
Y567835D01*
G01X1246850Y838957D02*
X1253150D01*
G01X1246850Y851043D02*
X1253150D01*
G54D14*
G01X844250Y821529D02*
Y798471D01*
G01X900750D02*
Y821529D01*
G01X910950Y821992D02*
G02I-300J0D01*
G01X1062973Y895100D02*
X1078759D01*
G01Y916200D02*
X1062973D01*
G01X1105110Y821567D02*
X1121661D01*
G01Y841858D02*
X1105110D01*
G01X1175957Y697941D02*
Y681390D01*
G01X1196248D02*
Y697941D01*
G01X1205996Y554618D02*
X1222547D01*
G01Y574909D02*
X1205996D01*
M02*
