G04 ================== begin FILE IDENTIFICATION RECORD ==================*
G04 Layout Name:  E:/Projects/PCB/FSCV Board/PCB Editor/FSCV_V5.brd*
G04 Film Name:    6_CONDUCTOR_TOP*
G04 File Format:  Gerber RS274X*
G04 File Origin:  Cadence Allegro 17.4-S037*
G04 Origin Date:  Fri Sep  8 15:29:53 2023*
G04 *
G04 Layer:  VIA CLASS/TOP*
G04 Layer:  PIN/TOP*
G04 Layer:  ETCH/TOP*
G04 Layer:  DRAWING FORMAT/TITLE_DATA*
G04 Layer:  DRAWING FORMAT/TITLE_BLOCK*
G04 Layer:  DRAWING FORMAT/REVISION_DATA*
G04 Layer:  DRAWING FORMAT/REVISION_BLOCK*
G04 Layer:  DRAWING FORMAT/OUTLINE*
G04 Layer:  BOARD GEOMETRY/DESIGN_OUTLINE*
G04 *
G04 Offset:    (0.0000 0.0000)*
G04 Mirror:    No*
G04 Mode:      Positive*
G04 Rotation:  0*
G04 FullContactRelief:  No*
G04 UndefLineWidth:     0.1000*
G04 ================== end FILE IDENTIFICATION RECORD ====================*
%FSLAX25Y25*MOIN*%
%IR0*IPPOS*OFA0.00000B0.00000*MIA0B0*SFA1.00000B1.00000*%
%ADD22O,.055118X.017717*%
%ADD32O,.017717X.055118*%
%ADD24R,.055906X.03622*%
%ADD38R,.03622X.055906*%
%ADD18C,.019685*%
%ADD35R,.05528X.013969*%
%ADD33C,.038976*%
%ADD20R,.011X.05528*%
%ADD37R,.021969X.077559*%
%ADD36R,.077559X.021969*%
%ADD34R,.038976X.038976*%
%AMMACRO41*
4,1,40,.009449,.021457,
.009449,-.021457,
.009412,-.021867,
.009305,-.022266,
.00913,-.022639,
.008893,-.022977,
.008601,-.023268,
.008263,-.023504,
.007889,-.023677,
.00749,-.023784,
.007087,-.023819,
-.007087,-.023819,
-.007497,-.023782,
-.007896,-.023675,
-.008269,-.0235,
-.008606,-.023263,
-.008898,-.022971,
-.009134,-.022633,
-.009307,-.022259,
-.009413,-.02186,
-.009449,-.021457,
-.009449,.021457,
-.009412,.021867,
-.009305,.022266,
-.00913,.022639,
-.008893,.022977,
-.008601,.023268,
-.008263,.023504,
-.007889,.023677,
-.00749,.023784,
-.007087,.023819,
.007087,.023819,
.007497,.023782,
.007896,.023675,
.008269,.0235,
.008606,.023263,
.008898,.022971,
.009134,.022633,
.009307,.022259,
.009413,.02186,
.009449,.021457,
0.0*
%
%ADD41MACRO41*%
%AMMACRO28*
4,1,40,.021457,-.009449,
-.021457,-.009449,
-.021867,-.009412,
-.022266,-.009305,
-.022639,-.00913,
-.022977,-.008893,
-.023268,-.008601,
-.023504,-.008263,
-.023677,-.007889,
-.023784,-.00749,
-.023819,-.007087,
-.023819,.007087,
-.023782,.007497,
-.023675,.007896,
-.0235,.008269,
-.023263,.008606,
-.022971,.008898,
-.022633,.009134,
-.022259,.009307,
-.02186,.009413,
-.021457,.009449,
.021457,.009449,
.021867,.009412,
.022266,.009305,
.022639,.00913,
.022977,.008893,
.023268,.008601,
.023504,.008263,
.023677,.007889,
.023784,.00749,
.023819,.007087,
.023819,-.007087,
.023782,-.007497,
.023675,-.007896,
.0235,-.008269,
.023263,-.008606,
.022971,-.008898,
.022633,-.009134,
.022259,-.009307,
.02186,-.009413,
.021457,-.009449,
0.0*
%
%ADD28MACRO28*%
%ADD26C,.03937*%
%ADD23R,.040157X.057874*%
%ADD21R,.057874X.040157*%
%ADD13C,.040157*%
%ADD29R,.063X.055591*%
%ADD11C,.094488*%
%ADD27R,.03937X.03937*%
%ADD17C,.066933*%
%ADD16C,.060236*%
%ADD19C,.07087*%
%ADD12R,.040157X.040157*%
%ADD10C,.181102*%
%ADD31C,.04685*%
%ADD39C,.051496*%
%ADD14C,.064961*%
%ADD30R,.048819X.048819*%
%ADD40R,.051496X.051496*%
%ADD15R,.064961X.064961*%
%AMMACRO25*
4,1,40,-.009449,-.021457,
-.009449,.021457,
-.009412,.021867,
-.009305,.022266,
-.00913,.022639,
-.008893,.022977,
-.008601,.023268,
-.008263,.023504,
-.007889,.023677,
-.00749,.023784,
-.007087,.023819,
.007087,.023819,
.007497,.023782,
.007896,.023675,
.008269,.0235,
.008606,.023263,
.008898,.022971,
.009134,.022633,
.009307,.022259,
.009413,.02186,
.009449,.021457,
.009449,-.021457,
.009412,-.021867,
.009305,-.022266,
.00913,-.022639,
.008893,-.022977,
.008601,-.023268,
.008263,-.023504,
.007889,-.023677,
.00749,-.023784,
.007087,-.023819,
-.007087,-.023819,
-.007497,-.023782,
-.007896,-.023675,
-.008269,-.0235,
-.008606,-.023263,
-.008898,-.022971,
-.009134,-.022633,
-.009307,-.022259,
-.009413,-.02186,
-.009449,-.021457,
0.0*
%
%ADD25MACRO25*%
%ADD42C,.003937*%
G75*
%LPD*%
G75*
G54D10*
X785433Y528898D03*
Y960630D03*
X1307087Y528898D03*
Y960630D03*
G54D11*
X797500Y595138D03*
Y615138D03*
Y646319D03*
Y666319D03*
Y697500D03*
Y717500D03*
X817500Y595138D03*
Y615138D03*
X807500Y605138D03*
X817500Y646319D03*
X807500Y656319D03*
X817500Y666319D03*
Y697500D03*
Y717500D03*
X807500Y707500D03*
X837500Y697500D03*
Y717500D03*
X857500Y697500D03*
Y717500D03*
X847500Y707500D03*
X1227500Y926909D03*
X1237500Y936909D03*
X1227500Y946909D03*
X1247874Y700630D03*
Y720630D03*
X1257874Y710630D03*
X1247500Y926909D03*
Y946909D03*
X1267874Y700630D03*
Y720630D03*
G54D20*
X859705Y795036D03*
X857736D03*
X855768D03*
X853799D03*
X851831D03*
X849862D03*
X847894D03*
X845925D03*
Y824964D03*
X847894D03*
X849862D03*
X851831D03*
X853799D03*
X855768D03*
X857736D03*
X859705D03*
X879390Y795036D03*
X877421D03*
X875453D03*
X873484D03*
X871516D03*
X869547D03*
X867579D03*
X865610D03*
X863642D03*
X861673D03*
Y824964D03*
X863642D03*
X865610D03*
X867579D03*
X869547D03*
X871516D03*
X873484D03*
X875453D03*
X877421D03*
X879390D03*
X899075Y795036D03*
X897106D03*
X895138D03*
X893169D03*
X891201D03*
X889232D03*
X887264D03*
X885295D03*
X883327D03*
X881358D03*
Y824964D03*
X883327D03*
X885295D03*
X887264D03*
X889232D03*
X891201D03*
X893169D03*
X895138D03*
X897106D03*
X899075D03*
G54D30*
X965000Y760000D03*
X1045276Y639764D03*
X1080709Y590551D03*
X1135000Y810000D03*
X1212500Y717500D03*
X1235000Y545000D03*
G54D12*
X818780Y521004D03*
G54D21*
X860335Y836378D03*
Y842677D03*
X865000Y612500D03*
Y606201D03*
X877854Y915354D03*
Y909055D03*
X867323D03*
Y915354D03*
X900098Y909055D03*
Y915354D03*
X905000Y606201D03*
Y612500D03*
X910630Y915354D03*
Y909055D03*
X942815Y915354D03*
Y909055D03*
X932283D03*
Y915354D03*
X1035000Y710000D03*
Y703701D03*
X1027421Y770217D03*
Y763917D03*
X1042500Y770217D03*
Y763917D03*
X1057579Y770217D03*
Y763917D03*
X1075000Y703701D03*
Y710000D03*
X1093110Y914606D03*
Y908307D03*
X1151614Y829449D03*
Y823150D03*
Y859449D03*
Y853150D03*
X1191614Y823150D03*
Y829449D03*
Y853150D03*
Y859449D03*
X1208465Y667894D03*
Y674193D03*
X1218996D03*
Y667894D03*
X1252500Y556201D03*
Y562500D03*
Y592500D03*
Y586201D03*
X1292500Y556201D03*
Y562500D03*
Y586201D03*
Y592500D03*
G54D40*
X1207500Y637500D03*
G54D31*
X996457Y942913D03*
X1046850D03*
X1108661D03*
X1159055D03*
X1248799Y629921D03*
Y753937D03*
X1263799Y661417D03*
Y783465D03*
X1299193Y629921D03*
Y661417D03*
X1295886Y688996D03*
Y724390D03*
X1299193Y753937D03*
Y783465D03*
X1292500Y847303D03*
Y897697D03*
G54D13*
X818780Y535965D03*
Y550926D03*
X836496Y521004D03*
X827638D03*
X836496Y535965D03*
X827638D03*
X823209Y540296D03*
X832067D03*
X840925D03*
Y531634D03*
Y525335D03*
X832067Y531634D03*
Y525335D03*
X823209Y531634D03*
Y525335D03*
Y546595D03*
X827638Y551595D03*
X832067Y546595D03*
X836496Y550926D03*
X840925Y546595D03*
X854213Y521004D03*
X845354D03*
X854213Y535965D03*
X845354D03*
X849783Y540296D03*
X858642D03*
Y531634D03*
Y525335D03*
X849783Y531634D03*
Y525335D03*
X845354Y550926D03*
X849783Y546595D03*
X854213Y550926D03*
X858642Y546595D03*
X880787Y521004D03*
X871929D03*
X863071D03*
X880787Y535965D03*
X871929D03*
X863071D03*
X867500Y540296D03*
X876358D03*
Y531634D03*
Y525335D03*
X867500Y531634D03*
Y525335D03*
X863071Y550926D03*
X867500Y546595D03*
X871929Y550926D03*
X876358Y546595D03*
X880787Y550926D03*
X898504Y521004D03*
X889646D03*
X898504Y535965D03*
X889646D03*
X885217Y540296D03*
X894075D03*
Y531634D03*
Y525335D03*
X885217Y531634D03*
Y525335D03*
Y546595D03*
X889646Y550926D03*
X894075Y546595D03*
X898504Y550926D03*
X916220Y521004D03*
X907362D03*
X916220Y535965D03*
X907362D03*
X902933Y540296D03*
X911791D03*
X920650D03*
Y531634D03*
Y525335D03*
X911791Y531634D03*
Y525335D03*
X902933Y531634D03*
Y525335D03*
Y546595D03*
X907362Y550926D03*
X911791Y546595D03*
X916220Y550926D03*
X920650Y546595D03*
X933937Y521004D03*
X925079D03*
X933937Y535965D03*
X925079D03*
X929508Y540296D03*
X938366D03*
Y531634D03*
Y525335D03*
X929508Y531634D03*
Y525335D03*
X925079Y550926D03*
X929508Y546595D03*
X933937Y550926D03*
X938366Y546595D03*
X960512Y521004D03*
X951654D03*
X942795D03*
X960512Y535965D03*
X951654D03*
X942795D03*
X947224Y540296D03*
X956083D03*
Y531634D03*
Y525335D03*
X947224Y531634D03*
Y525335D03*
X942795Y550926D03*
X947224Y546595D03*
X951654Y550926D03*
X956083Y546595D03*
X960512Y550926D03*
X978228Y521004D03*
X969370D03*
X978228Y535965D03*
X969370D03*
X964941Y540296D03*
X973799D03*
Y531634D03*
Y525335D03*
X964941Y531634D03*
Y525335D03*
Y546595D03*
X969370Y550926D03*
X973799Y546595D03*
X978228Y550926D03*
X995945Y521004D03*
X987087D03*
X995945Y535965D03*
X987087D03*
X982657Y540296D03*
X991516D03*
Y531634D03*
Y525335D03*
X982657Y531634D03*
Y525335D03*
Y546595D03*
X987087Y550926D03*
X991516Y546595D03*
X995945Y550926D03*
X1013661Y521004D03*
X1004803D03*
X1013661Y535965D03*
X1004803D03*
X1009232Y540296D03*
X1018091D03*
Y531634D03*
Y525335D03*
X1009232Y531634D03*
Y525335D03*
X1004803Y550926D03*
X1009232Y546595D03*
X1013661Y550926D03*
X1018091Y546595D03*
X1040236Y521004D03*
X1031378D03*
X1022520D03*
X1040236Y535965D03*
X1031378D03*
X1022520D03*
X1026949Y540296D03*
X1035807D03*
Y531634D03*
Y525335D03*
X1026949Y531634D03*
Y525335D03*
X1022520Y550926D03*
X1026949Y546595D03*
X1031378Y550926D03*
X1035807Y546595D03*
X1040236Y550926D03*
X1057953Y521004D03*
X1049094D03*
X1057953Y535965D03*
X1049094D03*
X1044665Y540296D03*
X1053524D03*
Y531634D03*
Y525335D03*
X1044665Y531634D03*
Y525335D03*
Y546595D03*
X1049094Y550926D03*
X1053524Y546595D03*
X1057953Y550926D03*
X1075669Y521004D03*
X1066811D03*
X1075669Y535965D03*
X1066811D03*
X1062382Y540296D03*
X1071240D03*
X1080098D03*
Y531634D03*
Y525335D03*
X1071240Y531634D03*
Y525335D03*
X1062382Y531634D03*
Y525335D03*
Y546595D03*
X1066811Y550926D03*
X1071240Y546595D03*
X1075669Y550926D03*
X1080098Y546595D03*
X1093386Y521004D03*
X1084528D03*
X1093386Y535965D03*
X1084528D03*
X1088957Y540296D03*
X1097815D03*
Y531634D03*
Y525335D03*
X1088957Y531634D03*
Y525335D03*
X1084528Y550926D03*
X1088957Y546595D03*
X1093386Y550926D03*
X1097815Y546595D03*
X1119961Y521004D03*
X1111102D03*
X1102244D03*
X1119961Y535965D03*
X1111102D03*
X1102244D03*
X1106673Y540296D03*
X1115531D03*
Y531634D03*
Y525335D03*
X1106673Y531634D03*
Y525335D03*
X1102244Y550926D03*
X1106673Y546595D03*
X1111102Y550926D03*
X1115531Y546595D03*
X1119961Y550926D03*
X1137677Y521004D03*
X1128819D03*
X1137677Y535965D03*
X1128819D03*
X1124390Y540296D03*
X1133248D03*
Y531634D03*
Y525335D03*
X1124390Y531634D03*
Y525335D03*
Y546595D03*
X1128819Y550926D03*
X1133248Y546595D03*
X1137677Y550926D03*
X1155394Y521004D03*
X1146535D03*
X1155394Y535965D03*
X1146535D03*
X1142106Y540296D03*
X1150965D03*
Y531634D03*
Y525335D03*
X1142106Y531634D03*
Y525335D03*
Y546595D03*
X1146535Y550926D03*
X1150965Y546595D03*
X1155394Y550926D03*
G54D22*
X873386Y596673D03*
Y599232D03*
Y601791D03*
Y604350D03*
Y606909D03*
Y609469D03*
Y612028D03*
X896614Y599232D03*
Y596673D03*
Y612028D03*
Y609469D03*
Y606909D03*
Y604350D03*
Y601791D03*
X1043386Y694173D03*
Y696732D03*
Y699291D03*
Y701850D03*
Y704409D03*
Y706969D03*
Y709528D03*
X1066614Y699291D03*
Y696732D03*
Y694173D03*
Y709528D03*
Y706969D03*
Y704409D03*
Y701850D03*
X1160000Y813622D03*
Y816181D03*
Y818740D03*
Y821299D03*
Y823858D03*
Y826417D03*
Y828976D03*
Y843622D03*
Y846181D03*
Y848740D03*
Y851299D03*
Y853858D03*
Y856417D03*
Y858976D03*
X1183228Y818740D03*
Y816181D03*
Y813622D03*
Y828976D03*
Y826417D03*
Y823858D03*
Y821299D03*
Y858976D03*
Y856417D03*
Y853858D03*
Y851299D03*
Y848740D03*
Y846181D03*
Y843622D03*
X1260886Y546673D03*
Y549232D03*
Y551791D03*
Y554350D03*
Y556909D03*
Y559469D03*
Y576673D03*
Y579232D03*
Y562028D03*
Y581791D03*
Y584350D03*
Y586909D03*
Y589469D03*
Y592028D03*
X1284114Y559469D03*
Y556909D03*
Y554350D03*
Y551791D03*
Y549232D03*
Y546673D03*
Y579232D03*
Y576673D03*
Y562028D03*
Y592028D03*
Y589469D03*
Y586909D03*
Y584350D03*
Y581791D03*
G54D14*
X803228Y780098D03*
X813228D03*
X803228Y790098D03*
X813228D03*
X803228Y800098D03*
X813228D03*
X803228Y810098D03*
X813228D03*
X803228Y820098D03*
X813228D03*
X803228Y830098D03*
X813228D03*
X803228Y840098D03*
G54D23*
X876850Y837500D03*
Y847500D03*
X891102Y656417D03*
X897402D03*
Y645886D03*
X891102D03*
Y693839D03*
X897402D03*
Y683307D03*
X891102D03*
X897402Y720728D03*
X891102D03*
Y731260D03*
X897402D03*
X883150Y837500D03*
Y847500D03*
X918799Y795492D03*
X912500D03*
X918799Y825492D03*
X912500D03*
X936102Y618839D03*
Y608307D03*
Y656260D03*
Y645728D03*
Y693681D03*
Y683150D03*
X942402Y618839D03*
Y608307D03*
Y656260D03*
Y645728D03*
Y693681D03*
Y683150D03*
X979902Y618839D03*
Y608307D03*
Y656260D03*
Y645728D03*
Y693681D03*
Y683150D03*
Y720571D03*
Y731102D03*
Y757992D03*
Y768524D03*
Y795413D03*
Y805945D03*
X972835Y900787D03*
X966535D03*
Y911319D03*
X972835D03*
X986201Y618839D03*
Y608307D03*
Y656260D03*
Y645728D03*
Y693681D03*
Y683150D03*
Y720571D03*
Y731102D03*
Y757992D03*
Y768524D03*
Y795413D03*
Y805945D03*
X1037402Y813307D03*
X1031102D03*
Y823839D03*
X1037402D03*
X1024515Y872500D03*
X1030815D03*
Y912500D03*
X1024515D03*
X1052402Y733307D03*
X1046102D03*
Y743839D03*
X1052402D03*
X1059252Y888858D03*
X1065551D03*
X1101102Y616122D03*
Y626654D03*
Y653543D03*
Y664075D03*
Y701496D03*
Y690965D03*
Y738917D03*
Y728386D03*
Y776339D03*
Y765807D03*
X1097913Y798819D03*
X1091614D03*
Y809350D03*
X1097913D03*
X1107402Y616122D03*
Y626654D03*
Y653543D03*
Y664075D03*
Y701496D03*
Y690965D03*
Y738917D03*
Y728386D03*
Y776339D03*
Y765807D03*
X1158366Y727894D03*
Y767894D03*
X1168602Y616339D03*
X1174902D03*
Y605807D03*
X1168602D03*
X1164665Y727894D03*
Y767894D03*
X1192500Y542402D03*
X1198799D03*
Y531870D03*
X1192500D03*
X1188366Y727894D03*
X1194665D03*
Y767894D03*
X1188366D03*
X1237402Y838307D03*
X1231102D03*
Y848839D03*
X1237402D03*
G54D41*
X1216142Y681850D03*
X1213583D03*
X1211024D03*
X1208465D03*
Y691732D03*
X1211024D03*
X1213583D03*
X1216142D03*
G54D32*
X1020106Y880886D03*
X1017547D03*
X1014988D03*
Y904114D03*
X1017547D03*
X1020106D03*
X1030342Y880886D03*
X1027783D03*
X1025224D03*
X1022665D03*
Y904114D03*
X1025224D03*
X1027783D03*
X1030342D03*
X1158839Y736280D03*
Y759508D03*
X1174193Y736280D03*
X1171634D03*
X1169075D03*
X1166516D03*
X1163957D03*
X1161398D03*
Y759508D03*
X1163957D03*
X1166516D03*
X1169075D03*
X1171634D03*
X1174193D03*
X1199075Y736280D03*
X1196516D03*
X1193957D03*
X1191398D03*
X1188839D03*
Y759508D03*
X1191398D03*
X1193957D03*
X1196516D03*
X1199075D03*
X1204193Y736280D03*
X1201634D03*
Y759508D03*
X1204193D03*
G54D42*
G01X873386Y614398D02*
X830610Y657173D01*
Y803110D01*
X847894Y820394D01*
Y824964D01*
G01X896614Y614398D02*
X831791Y679220D01*
Y802621D01*
X849862Y820692D01*
Y824964D01*
G01X847894Y795036D02*
Y785394D01*
X847421Y784921D01*
Y751928D01*
X889348Y710000D01*
X897343D01*
X913504Y693839D01*
X914941D01*
G01X845925Y795036D02*
Y739075D01*
X880000Y705000D01*
Y688116D01*
X898116Y670000D01*
X899921D01*
X913504Y656417D01*
X914941D01*
G01X959941Y618839D02*
X956698D01*
X927500Y648037D01*
Y723281D01*
X912100Y738681D01*
X870478D01*
X849783Y759376D01*
Y782283D01*
X851831Y784331D01*
Y795036D01*
G01X849862D02*
Y784862D01*
X848602Y783602D01*
Y758887D01*
X869989Y737500D01*
X907264D01*
X913504Y731260D01*
X914941D01*
G01X855768Y795036D02*
Y756732D01*
X871457Y741043D01*
X920627D01*
X959941Y701729D01*
Y693681D01*
G01X1003740Y656260D02*
X1000498D01*
X973681Y683076D01*
Y691330D01*
X921606Y743406D01*
X872435D01*
X859705Y756136D01*
Y795036D01*
G01X857736D02*
Y756434D01*
X871946Y742224D01*
X921116D01*
X972500Y690841D01*
Y646836D01*
X1000498Y618839D01*
X1003740D01*
G01X959941Y656260D02*
X958504D01*
X956863Y657901D01*
Y658559D01*
X945422Y670000D01*
X942958D01*
X930000Y682958D01*
Y722452D01*
X912589Y739862D01*
X870967D01*
X850964Y759865D01*
Y780964D01*
X853799Y783799D01*
Y795036D01*
G01X857736Y824964D02*
Y817500D01*
G01X853799Y824964D02*
Y821583D01*
X847500Y815284D01*
Y812500D01*
G01X855000Y820000D02*
Y820284D01*
X855768Y821052D01*
Y824964D01*
G01X860000Y805000D02*
X867579Y812579D01*
Y824964D01*
G01X862500Y817500D02*
X859724Y820276D01*
Y820816D01*
X859705Y820835D01*
Y824964D01*
G01X865610D02*
Y829390D01*
X862500Y832500D01*
X857919D01*
X856457Y833962D01*
Y851741D01*
X876822Y872106D01*
X1003780D01*
X1015099Y860787D01*
X1034128D01*
X1048341Y875000D01*
X1070000D01*
X1097205Y902205D01*
X1294368D01*
X1307244Y889328D01*
Y563495D01*
X1284753Y541004D01*
X1221828D01*
X1220430Y542402D01*
X1216339D01*
G01X861673Y824964D02*
Y828713D01*
X860386Y830000D01*
X857078D01*
X854094Y832983D01*
Y852720D01*
X875843Y874469D01*
X1004759D01*
X1016078Y863150D01*
X1029698D01*
X1042500Y875951D01*
Y897591D01*
X1056956Y912047D01*
X1059252D01*
G01X877854Y892953D02*
Y893537D01*
X874041Y897350D01*
X871293D01*
X845925Y871983D01*
Y824964D01*
G01X1030342Y880886D02*
Y889658D01*
X1029232Y890768D01*
X965768D01*
X955630Y880630D01*
X878664D01*
X849862Y851828D01*
Y824964D01*
G01X847894D02*
Y851530D01*
X878174Y881811D01*
X954311D01*
X967500Y895000D01*
X1025693D01*
X1030342Y899649D01*
Y904114D01*
G01X851831Y824964D02*
Y852126D01*
X875354Y875650D01*
X1005248D01*
X1016567Y864331D01*
X1029209D01*
X1040000Y875122D01*
Y897650D01*
X1056956Y914606D01*
X1059252D01*
G01X863642Y824964D02*
Y828713D01*
X861035Y831319D01*
X857430D01*
X855276Y833473D01*
Y852230D01*
X876333Y873287D01*
X1004270D01*
X1015589Y861969D01*
X1030188D01*
X1045000Y876781D01*
Y897532D01*
X1056956Y909488D01*
X1059252D01*
G01X873386Y599232D02*
X877913D01*
G01X873386Y609469D02*
X885335D01*
X887894Y606909D01*
X896614D01*
G01X865000Y606201D02*
X860335D01*
G01X865000D02*
X868937D01*
X869646Y606909D01*
X873386D01*
G01X865000Y612500D02*
Y616280D01*
G01X873386Y612028D02*
Y614398D01*
G01X868858Y601791D02*
X873386D01*
G01Y604350D02*
X877913D01*
G01X1003740Y805945D02*
Y808760D01*
X1002677Y809823D01*
X977486D01*
X965650Y797987D01*
Y792731D01*
X926068Y753150D01*
X879508D01*
X867579Y765079D01*
Y795036D01*
G01X1003740Y731102D02*
Y736260D01*
X994232Y745768D01*
X874657D01*
X862199Y758226D01*
Y779713D01*
X863642Y781156D01*
Y795036D01*
G01X1003740Y693681D02*
X1002303D01*
X990984Y705000D01*
X961681D01*
X922095Y744587D01*
X874167D01*
X861018Y757736D01*
Y781018D01*
X861673Y781673D01*
Y795036D01*
G01X1003740Y768524D02*
X1002303D01*
X996358Y774469D01*
X954469D01*
X927283Y747283D01*
X883704D01*
X866136Y764851D01*
Y779713D01*
X865610Y780239D01*
Y795036D01*
G01X871516D02*
Y773484D01*
X889488Y755512D01*
X925089D01*
X952500Y782923D01*
Y790974D01*
X989243Y827717D01*
X1049626D01*
X1053504Y823839D01*
X1054941D01*
G01X873484Y795036D02*
Y774016D01*
X890807Y756693D01*
X924600D01*
X951319Y783412D01*
Y791463D01*
X988754Y828898D01*
X1054462D01*
X1069941Y813419D01*
Y743839D01*
G01X1124941Y626654D02*
X1123504D01*
X1107657Y642500D01*
X1105852D01*
X1090000Y658352D01*
Y757500D01*
X1072362Y775138D01*
Y814339D01*
X1055441Y831260D01*
X987775D01*
X948957Y792441D01*
Y788976D01*
X926989Y767008D01*
X887992D01*
X877421Y777579D01*
Y795036D01*
G01X1043386Y711898D02*
X1027500Y727783D01*
Y752500D01*
X1020000Y760000D01*
Y794265D01*
X1003261Y811004D01*
X976996D01*
X964469Y798476D01*
Y793221D01*
X925578Y754331D01*
X888169D01*
X869547Y772953D01*
Y795036D01*
G01X1066614Y711898D02*
X1068006Y713290D01*
Y713291D01*
X1073307Y718591D01*
Y771693D01*
X1071181Y773819D01*
Y813849D01*
X1054952Y830079D01*
X988265D01*
X950138Y791952D01*
Y788487D01*
X927478Y765827D01*
X886673D01*
X875453Y777047D01*
Y795036D01*
G01X879390D02*
Y780610D01*
X891811Y768189D01*
X926499D01*
X947776Y789465D01*
Y792931D01*
X987286Y832441D01*
X1055930D01*
X1073543Y814828D01*
Y776457D01*
X1092500Y757500D01*
Y693273D01*
X1119730Y666043D01*
X1121535D01*
X1123504Y664075D01*
X1124941D01*
G01X910650Y806181D02*
X881319D01*
X875453Y812047D01*
Y824964D01*
G01X912500Y824606D02*
X905394Y817500D01*
X881137D01*
X877421Y821216D01*
Y824964D01*
G01X862500Y802500D02*
X869547Y809547D01*
Y824964D01*
G01X873484D02*
Y820716D01*
G01X871516Y824964D02*
Y829212D01*
G01X876850Y837500D02*
Y842500D01*
G01X869547Y824964D02*
Y832146D01*
X868898Y832795D01*
Y835591D01*
G01D02*
X865000D01*
X864213Y836378D01*
X860335D01*
G01Y842677D02*
Y846457D01*
G01X868898Y843465D02*
Y847047D01*
G01X876850Y842500D02*
Y847500D01*
G01X875295Y891516D02*
Y887650D01*
G01X870177Y891516D02*
Y887650D01*
G01X872736Y891516D02*
Y895382D01*
G01X910630Y891516D02*
Y894747D01*
X908027Y897350D01*
X882252D01*
X877854Y892953D01*
G01D02*
Y891516D01*
G01Y909055D02*
X883445D01*
X885000Y907500D01*
G01X875295Y901398D02*
X877854D01*
G01Y909055D02*
Y901398D01*
G01X867323Y909055D02*
X862657D01*
G01X867323D02*
Y905689D01*
X870177Y902835D01*
Y901398D01*
G01X872736D02*
Y915354D01*
G01X867323D02*
X872736D01*
G01X877854D02*
X872736D01*
G01X896614Y606909D02*
X900413D01*
X901122Y606201D01*
X905000D01*
G01X896614Y604350D02*
X900354D01*
X902982Y601722D01*
Y597982D01*
G01X896614Y609469D02*
X901083D01*
X904114Y612500D01*
X905000D01*
G01X896614Y612028D02*
Y614398D01*
G01X897402Y656417D02*
X905059D01*
G01X897402Y645886D02*
X902205D01*
X903091Y645000D01*
X905059D01*
G01X891102Y656417D02*
Y651299D01*
G01Y645886D02*
Y651299D01*
G01X905059D02*
X891102D01*
G01X897402Y693839D02*
X905059D01*
G01X897402Y683307D02*
X905059D01*
G01Y688720D02*
X891102D01*
G01Y683307D02*
Y688720D01*
G01Y693839D02*
Y688720D01*
G01X897402Y731260D02*
X905059D01*
G01X897402Y720728D02*
X905059D01*
G01X891102Y731260D02*
Y726142D01*
G01Y720728D02*
Y726142D01*
G01X905059D02*
X891102D01*
G01X881358Y795036D02*
Y781142D01*
X893130Y769370D01*
X926010D01*
X946594Y789955D01*
Y793420D01*
X986796Y833622D01*
X1056420D01*
X1074724Y815317D01*
Y777776D01*
X1095000Y757500D01*
Y728194D01*
X1119730Y703465D01*
X1121535D01*
X1123504Y701496D01*
X1124941D01*
G01Y776339D02*
Y778268D01*
X1113209Y790000D01*
X1094139D01*
X1080000Y804139D01*
Y813383D01*
X1057398Y835984D01*
X984291D01*
X922306Y774000D01*
X893500D01*
X885295Y782205D01*
Y795036D01*
G01X1124941Y738917D02*
X1123504D01*
X1114921Y747500D01*
X1113116D01*
X1075906Y784710D01*
Y815806D01*
X1056909Y834803D01*
X986307D01*
X945413Y793909D01*
Y790444D01*
X925520Y770551D01*
X894449D01*
X883327Y781673D01*
Y795036D01*
G01X1115453Y809350D02*
Y833814D01*
X1107972Y841295D01*
X1041364D01*
X1039518Y839449D01*
X986085D01*
X921817Y775181D01*
X894819D01*
X887264Y782736D01*
Y795036D01*
G01X1160000Y858976D02*
Y862500D01*
X1157303Y865197D01*
X1100197D01*
X1078681Y843681D01*
X1042079D01*
X1039028Y840630D01*
X985596D01*
X924966Y780000D01*
X897500D01*
X889232Y788268D01*
Y795036D01*
G01X1183228Y828976D02*
Y830846D01*
X1199429Y847047D01*
Y859868D01*
X1190557Y868740D01*
X1093740D01*
X1072224Y847224D01*
X1040611D01*
X1038170Y844783D01*
X983125D01*
X923479Y785138D01*
X923468D01*
X922149Y783819D01*
X901181D01*
X895138Y789863D01*
Y795036D01*
G01X897106D02*
Y790394D01*
X902500Y785000D01*
X921659D01*
X922978Y786319D01*
X922990D01*
X982635Y845965D01*
X1037681D01*
X1040122Y848406D01*
X1071735D01*
X1093251Y869921D01*
X1191046D01*
X1200610Y860357D01*
Y820610D01*
X1152618Y772618D01*
Y747382D01*
X1158839Y741161D01*
Y736280D01*
G01X1183228Y858976D02*
Y861772D01*
X1178622Y866378D01*
X1096378D01*
X1074862Y844862D01*
X1041590D01*
X1038539Y841811D01*
X985107D01*
X924752Y781457D01*
X898543D01*
X891201Y788799D01*
Y795036D01*
G01X899075D02*
Y790926D01*
X902500Y787500D01*
X922500D01*
X936693Y801693D01*
Y806200D01*
X937846Y807352D01*
X939852D01*
X979645Y847146D01*
X1037191D01*
X1039632Y849587D01*
X1071246D01*
X1092761Y871102D01*
X1191536D01*
X1201791Y860847D01*
Y789553D01*
X1180000Y767762D01*
Y760800D01*
X1172212Y753012D01*
X1159488D01*
X1158839Y753661D01*
Y759508D01*
G01X1160000Y828976D02*
Y830846D01*
X1161654Y832500D01*
X1178414D01*
X1198248Y852334D01*
Y859379D01*
X1190068Y867559D01*
X1095059D01*
X1073543Y846043D01*
X1041100D01*
X1038050Y842993D01*
X983004D01*
X923969Y783957D01*
X923957D01*
X922638Y782638D01*
X900692D01*
X893169Y790160D01*
Y795036D01*
G01X1192441Y616339D02*
X1211339D01*
X1225630Y630630D01*
Y843690D01*
X1193493Y875827D01*
X1088327D01*
X1066949Y854449D01*
X1037813D01*
X1035234Y851870D01*
X916327D01*
X893169Y828713D01*
Y824964D01*
G01X1254941Y848839D02*
Y850768D01*
X1228701Y877008D01*
X1084508D01*
X1072500Y865000D01*
X1046693D01*
X1034744Y853051D01*
X915539D01*
X891201Y828713D01*
Y824964D01*
G01X1260886Y592028D02*
Y598386D01*
X1262500Y600000D01*
X1273977D01*
X1302520Y628543D01*
Y882770D01*
X1294857Y890433D01*
X1095433D01*
X1072500Y867500D01*
X1047523D01*
X1034255Y854232D01*
X914232D01*
X889232Y829232D01*
Y824964D01*
G01X899075D02*
Y829074D01*
X918327Y848327D01*
X1036702D01*
X1039143Y850768D01*
X1070756D01*
X1092272Y872283D01*
X1192025D01*
X1202972Y861336D01*
Y789064D01*
X1182618Y768709D01*
Y759035D01*
X1188839Y752815D01*
Y736280D01*
G01X1208465Y691732D02*
Y700965D01*
X1216496Y708996D01*
Y851154D01*
X1193004Y874646D01*
X1090475D01*
X1068959Y853130D01*
X1038164D01*
X1035723Y850689D01*
X917114D01*
X895138Y828713D01*
Y824964D01*
G01X1188839Y759508D02*
Y755768D01*
X1191594Y753012D01*
X1202212D01*
X1206063Y756863D01*
Y859916D01*
X1192515Y873465D01*
X1090965D01*
X1069449Y851949D01*
X1038654D01*
X1036213Y849508D01*
X917838D01*
X897894Y829564D01*
Y829500D01*
X897106Y828713D01*
Y824964D01*
G01X1284114Y592028D02*
Y594944D01*
X1303701Y614530D01*
Y883259D01*
X1295346Y891614D01*
X1094114D01*
X1072500Y870000D01*
X1048352D01*
X1033766Y855413D01*
X912913D01*
X887264Y829764D01*
Y824964D01*
G01X883327D02*
Y830827D01*
X913917Y861417D01*
X1012799D01*
X1014610Y859606D01*
X1034618D01*
X1048693Y873681D01*
X1072011D01*
X1099353Y901024D01*
X1293878D01*
X1306063Y888839D01*
Y586063D01*
X1284114Y564114D01*
Y562028D01*
G01X885295Y824964D02*
Y830295D01*
X915236Y860236D01*
X1012309D01*
X1014120Y858425D01*
X1035107D01*
X1049182Y872500D01*
X1072500D01*
X1092795Y892795D01*
X1295835D01*
X1304882Y883749D01*
Y591133D01*
X1283749Y570000D01*
X1262500D01*
X1260886Y568386D01*
Y562028D01*
G01X883150Y837500D02*
Y842500D01*
G01Y847500D02*
Y842500D01*
G01X905000Y606201D02*
X908799D01*
X910000Y605000D01*
G01X905000Y612500D02*
Y616280D01*
G01X905059Y656417D02*
X909213D01*
G01X905059Y653858D02*
Y656417D01*
G01X914941Y648740D02*
X910787D01*
G01X914941Y653858D02*
X910787D01*
G01X905059Y648740D02*
Y645000D01*
G01X1049094Y521004D02*
X1046102Y518012D01*
X994488D01*
X983570Y528930D01*
X981340D01*
X971094Y539175D01*
Y544267D01*
X921606Y593755D01*
Y648394D01*
X918701Y651299D01*
X914941D01*
G01X905059Y693839D02*
X909213D01*
G01X905059Y691280D02*
Y693839D01*
G01X914941Y688720D02*
X918020D01*
X922500Y684240D01*
Y613452D01*
X978452Y557500D01*
X998229D01*
X1004803Y550926D01*
G01X914941Y686161D02*
X910787D01*
G01X914941Y691280D02*
X910787D01*
G01X905059Y686161D02*
Y683307D01*
G01Y731260D02*
X909213D01*
G01X905059Y728701D02*
Y731260D01*
G01X914941Y723583D02*
X910787D01*
G01X914941Y728701D02*
X910787D01*
G01X905059Y723583D02*
Y720728D01*
G01X914941Y726142D02*
X918858D01*
X925000Y720000D01*
Y612216D01*
X977216Y560000D01*
X1000059D01*
X1013464Y546595D01*
X1018091D01*
G01X910650Y806181D02*
Y801220D01*
X912500Y799370D01*
Y795492D01*
G01X918799D02*
Y810000D01*
G01X912500Y824606D02*
Y821614D01*
X910650Y819764D01*
Y814803D01*
G01X918799Y825492D02*
Y810000D01*
G01X912500Y825492D02*
Y824606D01*
G01X908071Y891516D02*
Y887650D01*
G01X905512Y891516D02*
Y895382D01*
G01X902953Y891516D02*
Y887650D01*
G01X942815Y891516D02*
Y893676D01*
X939140Y897350D01*
X924850D01*
X919016Y891516D01*
X910630D01*
G01Y909055D02*
X915295D01*
G01X908071Y901398D02*
X910630D01*
G01Y909055D02*
Y901398D01*
G01X900098Y909055D02*
Y903791D01*
X900524Y903366D01*
Y901398D01*
G01X902953D02*
X900524D01*
G01X905512D02*
Y915354D01*
G01X900098D02*
X905512D01*
G01X910630D02*
X905512D01*
G01X936102Y618839D02*
Y613720D01*
G01Y608307D02*
Y613720D01*
G01X950059D02*
X936102D01*
G01Y656260D02*
Y651142D01*
G01Y645728D02*
Y651142D01*
G01X950059D02*
X936102D01*
G01Y693681D02*
Y688563D01*
G01Y683150D02*
Y688563D01*
G01X950059D02*
X936102D01*
G01X937697Y891516D02*
Y895382D01*
G01X935138Y891516D02*
Y887650D01*
G01Y901398D02*
X932709D01*
G01X932283Y909055D02*
Y903791D01*
X932709Y903366D01*
Y901398D01*
G01X937697D02*
Y915354D01*
G01X932283D02*
X937697D01*
G01X942815D02*
X937697D01*
G01X950059Y618839D02*
Y621268D01*
G01X942402Y618839D02*
X950059D01*
G01D02*
Y616280D01*
G01X959941Y611161D02*
X955787D01*
G01X959941Y616280D02*
X955787D01*
G01X959941Y613720D02*
X963780D01*
X968213Y609287D01*
Y596503D01*
X1010798Y553918D01*
X1014901D01*
X1020795Y548024D01*
Y546449D01*
X1026949Y540296D01*
G01X942402Y608307D02*
X947224D01*
X948031Y607500D01*
X950000D01*
G01X950059Y611161D02*
Y607559D01*
X950000Y607500D01*
G01X942402Y656260D02*
X950059D01*
G01Y653701D02*
Y656260D01*
G01D02*
X952638Y658839D01*
Y660000D01*
G01X959941Y648583D02*
X955787D01*
G01X1057953Y521004D02*
X1052920D01*
X1045885Y528040D01*
X1044238D01*
X1029941Y542337D01*
Y547835D01*
X1018670Y559106D01*
X1012059D01*
X969106Y602059D01*
Y648394D01*
X966358Y651142D01*
X959941D01*
G01Y653701D02*
X965000D01*
G01X942402Y645728D02*
X947362D01*
X948091Y645000D01*
X950059D01*
G01Y648583D02*
Y645000D01*
G01X942402Y693681D02*
X950059D01*
G01Y691122D02*
Y693681D01*
G01D02*
Y697500D01*
G01X959941Y688563D02*
X963020D01*
X970000Y681583D01*
Y602430D01*
X1012430Y560000D01*
X1026227D01*
X1040000Y546227D01*
Y540027D01*
X1044665Y535361D01*
Y531634D01*
G01X959941Y686004D02*
X955787D01*
G01X959941Y691122D02*
X964094D01*
G01X942402Y683150D02*
X950059D01*
G01Y686004D02*
Y683150D01*
G01X940256Y891516D02*
Y887650D01*
G01X942815Y891516D02*
X946516D01*
X960000Y905000D01*
Y911077D01*
X964120Y915197D01*
X988425D01*
X990374Y913248D01*
Y911319D01*
G01X942815Y909055D02*
X947480D01*
G01X940256Y901398D02*
X942815D01*
G01Y909055D02*
Y901398D01*
G01X979902Y618839D02*
Y613720D01*
G01Y608307D02*
Y613720D01*
G01X993858D02*
X979902D01*
G01Y656260D02*
Y651142D01*
G01Y645728D02*
Y651142D01*
G01X993858D02*
X979902D01*
G01Y693681D02*
Y688563D01*
G01Y683150D02*
Y688563D01*
G01X993858D02*
X979902D01*
G01Y731102D02*
Y725984D01*
G01Y720571D02*
Y725984D01*
G01X993858D02*
X979902D01*
G01Y757992D02*
Y763406D01*
G01X993858D02*
X979902D01*
G01Y768524D02*
Y763406D01*
G01Y795413D02*
Y800827D01*
G01Y805945D02*
Y800827D01*
G01X993858D02*
X979902D01*
G01X972835Y911319D02*
X980492D01*
G01X972835Y900787D02*
X979567D01*
X980492Y901713D01*
Y903642D01*
G01Y906201D02*
X966535D01*
G01Y911319D02*
Y906201D01*
G01Y900787D02*
Y906201D01*
G01X993858Y618839D02*
Y622500D01*
G01Y616280D02*
Y618839D01*
G01X986201D02*
X993858D01*
G01X1003740Y611161D02*
X999587D01*
G01X1003740Y616280D02*
X999587D01*
G01X997500Y605000D02*
Y614193D01*
X999587Y616280D01*
G01X986201Y608307D02*
X991083D01*
X991890Y607500D01*
X993858D01*
G01Y611161D02*
Y607500D01*
G01Y656260D02*
Y660000D01*
G01Y653701D02*
Y656260D01*
G01X986201D02*
X993858D01*
G01X1003740Y648583D02*
X999587D01*
G01X1003740Y653701D02*
X999587D01*
G01X986201Y645728D02*
X993858D01*
G01Y648583D02*
Y645728D01*
G01X986201Y693681D02*
X993858D01*
G01D02*
Y697500D01*
G01Y691122D02*
Y693681D01*
G01X1003740Y686004D02*
X999587D01*
G01X1003740Y691122D02*
X999587D01*
G01X986201Y683150D02*
X993858D01*
G01Y686004D02*
Y683150D01*
G01Y731102D02*
Y735000D01*
G01X986201Y731102D02*
X993858D01*
G01D02*
Y728543D01*
G01D02*
X993957D01*
G01X1003740Y723425D02*
X999587D01*
G01X1003740Y728543D02*
X999587D01*
G01X986201Y720571D02*
X993858D01*
G01Y723425D02*
Y720571D01*
G01X986201Y757992D02*
X993858D01*
G01Y760846D02*
Y757992D01*
G01Y768524D02*
Y772500D01*
G01Y765965D02*
Y768524D01*
G01X986201D02*
X993858D01*
G01X1003740Y760846D02*
X999587D01*
G01X1003740Y765965D02*
X999587D01*
G01X1003740Y798268D02*
X998012D01*
G01X986201Y795413D02*
X990945D01*
X993858Y792500D01*
G01Y798268D02*
Y792500D01*
G01Y805945D02*
X998012D01*
G01X986201D02*
X993858D01*
G01Y803386D02*
Y805945D01*
G01X1003740Y803386D02*
X999587D01*
G01X980492Y908760D02*
Y911319D01*
G01D02*
X984358D01*
G01X990374Y906201D02*
X986508D01*
G01X990374Y908760D02*
X993760D01*
X995000Y910000D01*
G01X990374Y903642D02*
X994240D01*
G01X980492D02*
X984358D01*
G01X990374Y911319D02*
X991319D01*
G01X1062382Y525335D02*
X1056516Y531201D01*
Y532874D01*
X1050000Y539390D01*
Y545492D01*
X1040000Y555492D01*
Y580539D01*
X1006819Y613720D01*
X1003740D01*
G01Y651142D02*
X1006819D01*
X1012500Y645461D01*
Y630000D01*
X1050000Y592500D01*
Y567500D01*
X1060657Y556843D01*
Y549102D01*
X1059390Y547835D01*
Y539056D01*
X1066811Y531635D01*
Y521004D01*
G01X1003740Y725984D02*
X1006819D01*
X1017500Y715303D01*
Y637216D01*
X1100798Y553918D01*
X1103484D01*
X1113619Y543783D01*
Y542208D01*
X1115531Y540296D01*
G01X1106673Y546595D02*
X1102343D01*
X1015000Y633938D01*
Y682500D01*
X1008937Y688563D01*
X1003740D01*
G01X1142106Y525335D02*
X1139402Y528040D01*
X1132414D01*
X1120000Y540454D01*
Y542500D01*
X1118524Y543976D01*
Y548537D01*
X1113143Y553918D01*
X1108582D01*
X1020000Y642500D01*
Y750224D01*
X1006819Y763406D01*
X1003740D01*
G01X1119961Y550926D02*
Y560039D01*
X1047500Y632500D01*
X1045000D01*
X1025000Y652500D01*
Y750000D01*
X1012500Y762500D01*
Y795146D01*
X1006819Y800827D01*
X1003740D01*
G01X1014665Y898799D02*
X1018531D01*
X1020106Y900374D01*
Y904114D01*
G01X1017547D02*
Y908354D01*
G01X1035000Y703701D02*
Y699921D01*
G01Y703701D02*
X1038937D01*
X1039646Y704409D01*
X1043386D01*
G01X1035000Y710000D02*
Y713780D01*
G01X1027421Y770217D02*
Y772421D01*
X1030000Y775000D01*
G01X1027421Y763917D02*
Y760425D01*
G01X1037402Y813307D02*
X1045059D01*
G01X1031102Y823839D02*
Y818720D01*
G01Y813307D02*
Y818720D01*
G01X1045059D02*
X1031102D01*
G01X1037402Y823839D02*
X1045059D01*
G01X1028346Y866299D02*
Y867783D01*
X1024515Y871614D01*
Y872500D01*
G01X1025224Y880886D02*
Y877087D01*
X1024515Y876378D01*
Y872500D01*
G01X1030815D02*
X1034594D01*
G01X1027783Y904114D02*
Y899874D01*
G01X1025384Y886483D02*
X1022665Y883764D01*
Y880886D01*
G01X1023346Y888799D02*
X1020106Y885559D01*
Y880886D01*
G01X1027783D02*
Y885126D01*
G01X1022665Y904114D02*
Y898799D01*
G01X1025224Y904114D02*
Y907913D01*
X1024515Y908622D01*
Y912500D01*
G01D02*
X1020736D01*
G01X1030815D02*
X1034594D01*
G01X1069941Y738720D02*
X1065562D01*
X1063819Y736977D01*
Y713819D01*
X1049291Y699291D01*
X1043386D01*
G01Y696732D02*
X1047626D01*
G01X1043386Y706969D02*
X1047913D01*
G01X1054941Y818720D02*
X1050562D01*
X1048819Y816977D01*
Y753819D01*
X1043398Y748398D01*
Y716602D01*
X1049882Y710118D01*
Y704894D01*
X1046839Y701850D01*
X1043386D01*
G01Y709528D02*
Y711898D01*
G01X1052402Y733307D02*
X1060059D01*
G01X1046102Y743839D02*
Y738720D01*
G01Y733307D02*
Y738720D01*
G01X1060059D02*
X1046102D01*
G01X1052402Y743839D02*
X1060059D01*
G01X1042500Y770217D02*
Y775000D01*
G01X1057579Y770217D02*
Y775000D01*
G01X1042500Y763917D02*
Y760425D01*
G01X1057579Y763917D02*
Y760425D01*
G01X1054941Y816161D02*
X1050787D01*
G01X1045059D02*
Y813307D01*
G01Y823839D02*
X1049213D01*
G01X1045059D02*
Y821280D01*
G01X1054941D02*
X1050787D01*
G01X1059252Y896693D02*
Y894223D01*
G01Y888858D02*
Y894223D01*
G01Y899252D02*
X1063644D01*
G01X1059252Y904370D02*
X1063644D01*
G01X1066614Y699291D02*
X1070709D01*
X1072500Y697500D01*
G01X1066614Y704409D02*
X1070413D01*
X1071122Y703701D01*
X1075000D01*
G01D02*
X1082500D01*
G01X1060000Y701850D02*
X1066614D01*
G01Y709528D02*
Y711898D01*
G01X1075000Y710000D02*
Y712500D01*
X1072500Y715000D01*
G01X1066614Y706969D02*
X1071083D01*
X1074114Y710000D01*
X1075000D01*
G01X1069941Y736161D02*
Y732500D01*
G01X1060059Y736161D02*
Y733307D01*
G01Y743839D02*
X1064213D01*
G01X1060059Y741280D02*
Y743839D01*
G01X1069941Y741280D02*
X1065787D01*
G01X1072500Y900000D02*
X1074311Y901811D01*
X1082480D01*
G01X1065551Y888858D02*
Y884193D01*
G01X1077500Y906929D02*
X1082480D01*
G01X1105571Y801673D02*
X1100768D01*
X1097913Y798819D01*
G01D02*
Y794154D01*
G01X1091614Y798819D02*
Y804232D01*
G01X1097913Y809350D02*
X1105571D01*
G01Y804232D02*
X1091614D01*
G01Y809350D02*
Y804232D01*
G01X1103686Y834213D02*
X1100906D01*
X1098406Y831713D01*
X1093701D01*
G01Y823839D02*
Y820256D01*
G01X1082480Y896693D02*
Y894510D01*
G01Y899252D02*
X1086728D01*
G01X1082480Y912047D02*
Y909488D01*
G01X1087016D02*
X1088539Y911011D01*
X1089520D01*
X1092224Y908307D01*
X1093110D01*
G01X1082480Y909488D02*
X1087016D01*
G01X1082480Y914606D02*
X1086728D01*
G01X1093110D02*
X1086728D01*
G01X1120000Y585000D02*
X1118608Y586392D01*
Y621915D01*
X1120787Y624094D01*
G01X1107402Y616122D02*
X1115059D01*
G01Y618976D02*
Y616122D01*
G01X1101102D02*
Y621535D01*
G01X1107402Y626654D02*
X1115059D01*
G01Y624094D02*
Y626654D01*
G01D02*
X1119213D01*
G01X1101102D02*
Y621535D01*
G01X1115059D02*
X1101102D01*
G01X1107402Y653543D02*
X1112500D01*
G01X1115059Y656398D02*
Y656102D01*
X1112500Y653543D01*
G01X1101102Y664075D02*
Y658957D01*
G01Y653543D02*
Y658957D01*
G01X1115059D02*
X1101102D01*
G01X1115059Y664075D02*
X1119213D01*
G01X1115059Y661516D02*
Y664075D01*
G01X1107402D02*
X1115059D01*
G01Y698937D02*
Y701496D01*
G01X1107402Y690965D02*
X1112500D01*
G01D02*
X1115059Y693524D01*
Y693819D01*
G01Y696378D02*
X1101102D01*
G01Y690965D02*
Y696378D01*
G01Y701496D02*
Y696378D01*
G01X1115059Y701496D02*
X1119213D01*
G01X1107402D02*
X1115059D01*
G01Y738917D02*
X1119213D01*
G01X1115059Y736358D02*
Y738917D01*
G01X1107402D02*
X1115059D01*
G01X1107402Y728386D02*
X1112500D01*
G01X1115059Y731240D02*
Y730945D01*
X1112500Y728386D01*
G01X1115059Y733799D02*
X1101102D01*
G01Y728386D02*
Y733799D01*
G01Y738917D02*
Y733799D01*
G01X1115059Y776339D02*
X1119213D01*
G01X1107402D02*
X1115059D01*
G01Y773780D02*
Y776339D01*
G01Y768661D02*
Y768366D01*
X1112500Y765807D01*
G01X1107402D02*
X1112500D01*
G01X1101102Y776339D02*
Y771220D01*
G01Y765807D02*
Y771220D01*
G01X1115059D02*
X1101102D01*
G01X1115453Y801673D02*
Y797500D01*
G01X1105571Y809350D02*
Y812067D01*
G01Y806791D02*
Y809350D01*
G01X1115453Y804232D02*
X1111732D01*
X1110000Y802500D01*
G01X1115453Y804232D02*
X1114823Y804862D01*
X1112663D01*
X1112087Y805439D01*
Y823591D01*
X1106465Y829213D01*
X1103686D01*
G01X1115453Y806791D02*
X1119606D01*
G01X1123086Y834213D02*
X1117436D01*
G01X1103686Y824213D02*
Y821630D01*
G01X1128819Y550926D02*
Y621519D01*
X1128802Y621535D01*
X1124941D01*
G01X1142106Y540296D02*
X1137500Y544902D01*
Y546871D01*
X1134685Y549686D01*
Y690315D01*
X1128622Y696378D01*
X1124941D01*
G01Y658957D02*
X1130650D01*
X1131524Y658083D01*
Y549102D01*
X1130256Y547835D01*
Y543288D01*
X1133248Y540296D01*
G01X1124941Y618976D02*
X1120787D01*
G01X1124941Y624094D02*
X1120787D01*
G01X1124941Y656398D02*
X1120787D01*
G01X1124941Y661516D02*
X1120787D01*
G01X1124941Y693819D02*
X1120787D01*
G01X1124941Y698937D02*
X1120787D01*
G01X1124941Y733799D02*
X1131201D01*
X1142500Y722500D01*
Y550433D01*
X1149052Y543881D01*
Y542208D01*
X1150965Y540296D01*
G01X1124941Y731240D02*
X1121075D01*
G01X1124941Y736358D02*
X1120787D01*
G01X1124941Y771220D02*
X1136280D01*
X1147500Y760000D01*
Y558819D01*
X1155394Y550926D01*
G01X1124941Y768661D02*
X1120787D01*
G01X1124941Y773780D02*
X1120787D01*
G01X1135000Y810000D02*
Y820078D01*
X1125865Y829213D01*
G01X1133071Y831713D02*
X1134055D01*
G01X1123086Y829213D02*
X1125865D01*
G01D02*
X1130571D01*
X1133071Y831713D01*
G01X1134055D02*
X1147028Y818740D01*
X1160000D01*
G01X1134055Y831713D02*
X1151083Y848740D01*
X1160000D01*
G01X1133071Y839587D02*
Y843169D01*
G01X1146535Y521004D02*
X1149240Y518300D01*
X1159102D01*
X1167500Y526698D01*
Y562500D01*
X1235000Y630000D01*
Y762500D01*
X1258307Y785807D01*
Y843433D01*
X1258020Y843720D01*
X1254941D01*
G01X1192441Y611220D02*
X1195520D01*
X1195807Y610933D01*
Y600807D01*
X1160000Y565000D01*
Y533599D01*
X1155394Y528993D01*
Y521004D01*
G01X1158366Y727894D02*
Y723228D01*
G01Y767894D02*
X1154587D01*
G01X1158366D02*
Y767008D01*
X1161398Y763976D01*
Y759508D01*
G01X1160000Y816181D02*
X1155760D01*
G01X1151614Y823150D02*
X1146949D01*
G01X1160000Y823858D02*
X1156201D01*
X1155492Y823150D01*
X1151614D01*
G01Y829449D02*
Y833228D01*
G01X1160000Y846181D02*
X1155760D01*
G01X1151614Y853150D02*
X1155551D01*
X1156260Y853858D01*
X1160000D01*
G01X1151614Y853150D02*
X1146949D01*
G01X1151614Y859449D02*
Y863228D01*
G01X1174902Y616339D02*
X1182559D01*
G01X1174902Y605807D02*
X1182559D01*
G01X1168602Y616339D02*
Y611220D01*
G01Y605807D02*
Y611220D01*
G01X1182559D02*
X1168602D01*
G01X1169075Y736280D02*
Y727362D01*
X1186102Y710335D01*
G01X1178228Y709350D02*
X1174646D01*
G01X1161398Y736280D02*
Y740807D01*
G01X1166516Y736280D02*
Y740520D01*
G01X1171634Y736280D02*
Y732039D01*
G01X1164665Y727894D02*
Y724665D01*
X1162500Y722500D01*
G01X1163957Y736280D02*
Y732480D01*
X1164665Y731772D01*
Y727894D01*
G01X1163957Y759508D02*
Y763307D01*
X1164665Y764016D01*
Y767894D01*
G01X1166516Y754980D02*
Y759508D01*
G01X1164665Y767894D02*
Y772559D01*
G01X1160000Y826417D02*
X1164528D01*
G01X1160000Y821299D02*
X1164240D01*
G01X1183228D02*
X1178988D01*
G01X1160000Y856417D02*
X1164240D01*
G01X1160000Y851299D02*
X1164240D01*
G01X1183228D02*
X1178988D01*
G01X1198799Y531870D02*
Y527205D01*
G01X1206457Y534724D02*
X1201654D01*
X1198799Y531870D01*
G01X1206457Y537283D02*
X1192500D01*
G01Y542402D02*
Y537283D01*
G01Y531870D02*
Y537283D01*
G01X1198799Y542402D02*
X1206457D01*
G01X1194587Y556890D02*
Y553307D01*
G01X1204572Y567264D02*
X1197264D01*
X1194764Y564764D01*
X1194587D01*
G01X1182559Y616339D02*
Y613780D01*
G01Y616339D02*
Y620000D01*
G01X1192441Y608661D02*
X1188287D01*
G01X1192441Y613780D02*
X1188287D01*
G01X1182559Y608661D02*
Y605807D01*
G01X1186102Y669980D02*
X1183602Y672480D01*
Y679965D01*
G01X1188602D02*
Y682745D01*
G01X1193602Y679965D02*
Y685328D01*
G01X1193976Y669980D02*
X1197559D01*
G01X1183602Y699365D02*
Y694003D01*
G01X1188602Y699365D02*
Y702145D01*
G01Y682745D02*
Y685529D01*
X1190758Y687685D01*
X1212902D01*
X1213583Y688366D01*
Y691732D01*
G01X1188602Y682745D02*
X1190750Y684893D01*
G01X1188602Y702145D02*
Y706850D01*
X1186102Y709350D01*
G01Y710335D02*
X1199075Y723307D01*
Y736280D01*
G01X1186102Y710335D02*
Y709350D01*
G01X1212500Y717500D02*
X1203957D01*
X1188602Y702145D01*
G01X1191398Y736280D02*
Y740807D01*
G01X1196516Y736280D02*
Y740520D01*
G01X1193957Y736280D02*
Y732480D01*
X1194665Y731772D01*
Y727894D01*
G01D02*
Y723228D01*
G01X1188366Y727894D02*
Y723228D01*
G01X1193957Y759508D02*
Y763307D01*
X1194665Y764016D01*
Y767894D01*
G01X1196516Y759508D02*
Y754980D01*
G01X1188366Y767894D02*
Y767008D01*
X1191398Y763976D01*
Y759508D01*
G01X1194665Y767894D02*
Y772559D01*
G01X1188366Y767894D02*
X1184587D01*
G01X1191614Y823150D02*
X1196280D01*
G01X1183228Y823858D02*
X1187028D01*
X1187736Y823150D01*
X1191614D01*
G01Y829449D02*
Y833228D01*
G01X1183228Y826417D02*
X1187697D01*
X1190728Y829449D01*
X1191614D01*
G01Y853150D02*
X1196280D01*
G01X1183228Y853858D02*
X1187028D01*
X1187736Y853150D01*
X1191614D01*
G01Y859449D02*
Y863228D01*
G01X1183228Y856417D02*
X1187697D01*
X1190728Y859449D01*
X1191614D01*
G01X1206457Y539843D02*
Y542402D01*
G01X1216339Y539843D02*
X1220205D01*
G01X1216339Y534724D02*
X1220205D01*
G01X1207351Y562264D02*
X1207718D01*
X1212500Y557482D01*
Y537756D01*
X1212972Y537283D01*
X1216339D01*
G01X1206457Y542402D02*
Y544831D01*
G01X1204572Y557264D02*
X1209934D01*
G01X1223972Y567264D02*
X1218609D01*
G01X1204572Y562264D02*
X1207351D01*
G01D02*
X1209499Y564412D01*
G01X1208465Y681850D02*
Y674193D01*
G01X1216142Y681850D02*
Y677047D01*
X1218996Y674193D01*
G01D02*
X1223661D01*
G01X1213583Y681850D02*
Y667894D01*
G01X1208465D02*
X1213583D01*
G01X1218996D02*
X1213583D01*
G01X1208465Y681850D02*
X1206035D01*
G01X1211024D02*
X1208465D01*
G01X1216142Y691732D02*
X1218571D01*
G01X1211024D02*
Y695598D01*
G01X1201634Y736280D02*
Y732039D01*
G01X1234941Y564764D02*
X1247913Y551791D01*
X1260886D01*
G01X1235000Y545000D02*
Y554015D01*
X1226751Y562264D01*
G01X1233957Y564764D02*
X1234941D01*
G01X1233957D02*
X1231457Y562264D01*
X1226751D01*
G01D02*
X1223972D01*
G01X1234941Y564764D02*
X1251969Y581791D01*
X1260886D01*
G01X1233957Y572638D02*
Y576220D01*
G01X1237402Y838307D02*
X1245059D01*
G01X1231102D02*
Y843720D01*
G01X1237402Y848839D02*
X1245059D01*
G01X1231102D02*
Y843720D01*
G01X1245059D02*
X1231102D01*
G01X1260886Y549232D02*
X1256646D01*
G01X1252500Y556201D02*
X1247835D01*
G01X1252500D02*
X1256437D01*
X1257146Y556909D01*
X1260886D01*
G01Y579232D02*
X1256646D01*
G01X1252500Y562500D02*
Y566280D01*
G01Y586201D02*
X1247835D01*
G01X1260886Y586909D02*
X1257087D01*
X1256378Y586201D01*
X1252500D01*
G01X1242500Y602500D02*
X1247835Y597165D01*
Y586201D01*
G01X1252500Y592500D02*
Y596280D01*
G01X1245059Y841161D02*
Y838307D01*
G01Y848839D02*
X1249213D01*
G01X1245059Y846280D02*
Y848839D01*
G01X1254941Y841161D02*
X1250787D01*
G01X1254941Y846280D02*
X1250787D01*
G01X1260886Y559469D02*
X1265126D01*
G01X1284114Y554350D02*
X1279874D01*
G01X1260886D02*
X1265126D01*
G01X1260886Y589469D02*
X1265126D01*
G01X1260886Y584350D02*
X1265126D01*
G01X1284114D02*
X1279874D01*
G01X1292500Y556201D02*
X1297165D01*
G01X1284114Y556909D02*
X1287913D01*
X1288622Y556201D01*
X1292500D01*
G01X1284114Y559469D02*
X1288583D01*
X1291614Y562500D01*
X1292500D01*
G01D02*
Y566280D01*
G01Y586201D02*
X1297165D01*
G01X1284114Y586909D02*
X1287913D01*
X1288622Y586201D01*
X1292500D01*
G01Y592500D02*
Y596280D01*
G01X1284114Y589469D02*
X1288583D01*
X1291614Y592500D01*
X1292500D01*
G01X584646Y1424803D02*
Y324803D01*
G01D02*
X2284646D01*
Y1424803D01*
X584646D01*
G01X2234646Y1274803D02*
Y354803D01*
X634646D01*
G01Y1394803D02*
Y354803D01*
G01Y1394803D02*
X644646D01*
G01D02*
X2234646D01*
G01X769685Y515748D02*
Y976378D01*
X1322835D01*
Y515748D01*
X769685D01*
G01X1454646Y354803D02*
Y534803D01*
X2234646D01*
G01X1454646Y504803D02*
X1814646D01*
G01X1462842Y412303D02*
Y417303D01*
X1465249D01*
G01X1464362Y414887D02*
X1462842D01*
G01X1467879Y412303D02*
Y417303D01*
X1469462D01*
X1469969Y417053D01*
X1470286Y416720D01*
X1470412Y416053D01*
X1470286Y415387D01*
X1469906Y414970D01*
X1469462Y414720D01*
X1467879D01*
G01X1469462D02*
X1470412Y412303D01*
G01X1472662D02*
X1474246Y417303D01*
X1475829Y412303D01*
G01X1475259Y414053D02*
X1473232D01*
G01X1480739Y416887D02*
X1480359Y417137D01*
X1479916Y417303D01*
X1479409D01*
X1478839Y417053D01*
X1478396Y416637D01*
X1478079Y416137D01*
X1477826Y415303D01*
X1477762Y414553D01*
X1477889Y413803D01*
X1478079Y413303D01*
X1478459Y412803D01*
X1478902Y412470D01*
X1479346Y412303D01*
X1479789D01*
X1480232Y412470D01*
X1480612Y412720D01*
X1480929Y413053D01*
G01X1484446Y417303D02*
Y412303D01*
G01X1482989Y417303D02*
X1485902D01*
G01X1488786D02*
X1490306D01*
G01X1489546D02*
Y412303D01*
G01X1488786D02*
X1490306D01*
G01X1494646D02*
X1494139Y412387D01*
X1493696Y412720D01*
X1493316Y413220D01*
X1493062Y413803D01*
X1492935Y414470D01*
Y415137D01*
X1493062Y415803D01*
X1493316Y416387D01*
X1493696Y416887D01*
X1494139Y417220D01*
X1494646Y417303D01*
X1495152Y417220D01*
X1495596Y416887D01*
X1495976Y416387D01*
X1496229Y415803D01*
X1496356Y415137D01*
Y414470D01*
X1496229Y413803D01*
X1495976Y413220D01*
X1495596Y412720D01*
X1495152Y412387D01*
X1494646Y412303D01*
G01X1498289D02*
Y417303D01*
X1501202Y412303D01*
Y417303D01*
G01X1503516Y412970D02*
X1504022Y412553D01*
X1504593Y412303D01*
X1505099D01*
X1505606Y412553D01*
X1505986Y412970D01*
X1506176Y413553D01*
X1506049Y414136D01*
X1505732Y414637D01*
X1505162Y414970D01*
X1504402Y415137D01*
X1503959Y415470D01*
X1503769Y416053D01*
X1503896Y416637D01*
X1504212Y417053D01*
X1504656Y417303D01*
X1505099D01*
X1505543Y417137D01*
X1505922Y416720D01*
G01X1514349Y413970D02*
X1515869D01*
G01X1515046Y415053D02*
Y412886D01*
G01X1462462Y427303D02*
X1464046Y432303D01*
X1465629Y427303D01*
G01X1465059Y429053D02*
X1463032D01*
G01X1467689Y427303D02*
Y432303D01*
X1470602Y427303D01*
Y432303D01*
G01X1474626Y429803D02*
X1475893D01*
Y428303D01*
X1475512Y427803D01*
X1475069Y427470D01*
X1474436Y427303D01*
X1473802Y427470D01*
X1473359Y427803D01*
X1472979Y428303D01*
X1472726Y428887D01*
X1472599Y429553D01*
Y430137D01*
X1472726Y430636D01*
X1472979Y431220D01*
X1473359Y431720D01*
X1473739Y432053D01*
X1474246Y432303D01*
X1474689D01*
X1475196Y432137D01*
X1475576Y431803D01*
G01X1478079Y432303D02*
Y427303D01*
X1480612D01*
G01X1485712D02*
X1483179D01*
Y432303D01*
X1485712D01*
G01X1484699Y429887D02*
X1483179D01*
G01X1488216Y427970D02*
X1488722Y427553D01*
X1489293Y427303D01*
X1489799D01*
X1490306Y427553D01*
X1490686Y427970D01*
X1490876Y428553D01*
X1490749Y429136D01*
X1490432Y429637D01*
X1489862Y429970D01*
X1489102Y430137D01*
X1488659Y430470D01*
X1488469Y431053D01*
X1488596Y431637D01*
X1488912Y432053D01*
X1489356Y432303D01*
X1489799D01*
X1490243Y432137D01*
X1490622Y431720D01*
G01X1499049Y428970D02*
X1500569D01*
G01X1499746Y430053D02*
Y427886D01*
G01X1462652Y443303D02*
X1463032Y442720D01*
X1463539Y442387D01*
X1464109Y442303D01*
X1464616Y442387D01*
X1465122Y442803D01*
X1465439Y443303D01*
X1465502Y443803D01*
X1465376Y444386D01*
X1464932Y444803D01*
X1464489Y444970D01*
X1463919D01*
G01X1464489D02*
X1464869Y445220D01*
X1465186Y445636D01*
X1465312Y446137D01*
X1465186Y446637D01*
X1464869Y447053D01*
X1464299Y447303D01*
X1463729Y447220D01*
X1463159Y446887D01*
G01X1472979Y442303D02*
Y447303D01*
X1474499D01*
X1475006Y447053D01*
X1475386Y446470D01*
X1475512Y445803D01*
X1475386Y445137D01*
X1475069Y444637D01*
X1474499Y444386D01*
X1472979D01*
G01X1478079Y447303D02*
Y442303D01*
X1480612D01*
G01X1488152D02*
Y447303D01*
X1489419D01*
X1489926Y447053D01*
X1490306Y446720D01*
X1490622Y446220D01*
X1490876Y445636D01*
X1490939Y444803D01*
X1490876Y443970D01*
X1490622Y443386D01*
X1490306Y442886D01*
X1489926Y442553D01*
X1489419Y442303D01*
X1488152D01*
G01X1495912D02*
X1493379D01*
Y447303D01*
X1495912D01*
G01X1494899Y444887D02*
X1493379D01*
G01X1501139Y446887D02*
X1500759Y447137D01*
X1500316Y447303D01*
X1499809D01*
X1499239Y447053D01*
X1498796Y446637D01*
X1498479Y446137D01*
X1498226Y445303D01*
X1498162Y444553D01*
X1498289Y443803D01*
X1498479Y443303D01*
X1498859Y442803D01*
X1499302Y442470D01*
X1499746Y442303D01*
X1500189D01*
X1500632Y442470D01*
X1501012Y442720D01*
X1501329Y443053D01*
G01X1504086Y447303D02*
X1505606D01*
G01X1504846D02*
Y442303D01*
G01X1504086D02*
X1505606D01*
G01X1508299D02*
Y447303D01*
X1509946Y443137D01*
X1511593Y447303D01*
Y442303D01*
G01X1513462D02*
X1515046Y447303D01*
X1516629Y442303D01*
G01X1516059Y444053D02*
X1514032D01*
G01X1518879Y447303D02*
Y442303D01*
X1521412D01*
G01X1523916Y442970D02*
X1524422Y442553D01*
X1524993Y442303D01*
X1525499D01*
X1526006Y442553D01*
X1526386Y442970D01*
X1526576Y443553D01*
X1526449Y444136D01*
X1526132Y444637D01*
X1525562Y444970D01*
X1524802Y445137D01*
X1524359Y445470D01*
X1524169Y446053D01*
X1524296Y446637D01*
X1524612Y447053D01*
X1525056Y447303D01*
X1525499D01*
X1525943Y447137D01*
X1526322Y446720D01*
G01X1534749Y443970D02*
X1536269D01*
G01X1535446Y445053D02*
Y442886D01*
G01X1462842Y461470D02*
X1463222Y461970D01*
X1463666Y462220D01*
X1464172Y462303D01*
X1464806Y462137D01*
X1465249Y461720D01*
X1465376Y461220D01*
X1465312Y460720D01*
X1465059Y460303D01*
X1463793Y459470D01*
X1463222Y458887D01*
X1462842Y458053D01*
X1462716Y457303D01*
X1465376D01*
G01X1472979D02*
Y462303D01*
X1474499D01*
X1475006Y462053D01*
X1475386Y461470D01*
X1475512Y460803D01*
X1475386Y460137D01*
X1475069Y459637D01*
X1474499Y459386D01*
X1472979D01*
G01X1478079Y462303D02*
Y457303D01*
X1480612D01*
G01X1488152D02*
Y462303D01*
X1489419D01*
X1489926Y462053D01*
X1490306Y461720D01*
X1490622Y461220D01*
X1490876Y460636D01*
X1490939Y459803D01*
X1490876Y458970D01*
X1490622Y458386D01*
X1490306Y457886D01*
X1489926Y457553D01*
X1489419Y457303D01*
X1488152D01*
G01X1495912D02*
X1493379D01*
Y462303D01*
X1495912D01*
G01X1494899Y459887D02*
X1493379D01*
G01X1501139Y461887D02*
X1500759Y462137D01*
X1500316Y462303D01*
X1499809D01*
X1499239Y462053D01*
X1498796Y461637D01*
X1498479Y461137D01*
X1498226Y460303D01*
X1498162Y459553D01*
X1498289Y458803D01*
X1498479Y458303D01*
X1498859Y457803D01*
X1499302Y457470D01*
X1499746Y457303D01*
X1500189D01*
X1500632Y457470D01*
X1501012Y457720D01*
X1501329Y458053D01*
G01X1504086Y462303D02*
X1505606D01*
G01X1504846D02*
Y457303D01*
G01X1504086D02*
X1505606D01*
G01X1508299D02*
Y462303D01*
X1509946Y458137D01*
X1511593Y462303D01*
Y457303D01*
G01X1513462D02*
X1515046Y462303D01*
X1516629Y457303D01*
G01X1516059Y459053D02*
X1514032D01*
G01X1518879Y462303D02*
Y457303D01*
X1521412D01*
G01X1523916Y457970D02*
X1524422Y457553D01*
X1524993Y457303D01*
X1525499D01*
X1526006Y457553D01*
X1526386Y457970D01*
X1526576Y458553D01*
X1526449Y459136D01*
X1526132Y459637D01*
X1525562Y459970D01*
X1524802Y460137D01*
X1524359Y460470D01*
X1524169Y461053D01*
X1524296Y461637D01*
X1524612Y462053D01*
X1525056Y462303D01*
X1525499D01*
X1525943Y462137D01*
X1526322Y461720D01*
G01X1534749Y458970D02*
X1536269D01*
G01X1535446Y460053D02*
Y457886D01*
G01X1464046Y477303D02*
Y472303D01*
G01X1462589Y477303D02*
X1465502D01*
G01X1469146Y472303D02*
X1468639Y472387D01*
X1468196Y472720D01*
X1467816Y473220D01*
X1467562Y473803D01*
X1467435Y474470D01*
Y475137D01*
X1467562Y475803D01*
X1467816Y476387D01*
X1468196Y476887D01*
X1468639Y477220D01*
X1469146Y477303D01*
X1469652Y477220D01*
X1470096Y476887D01*
X1470476Y476387D01*
X1470729Y475803D01*
X1470856Y475137D01*
Y474470D01*
X1470729Y473803D01*
X1470476Y473220D01*
X1470096Y472720D01*
X1469652Y472387D01*
X1469146Y472303D01*
G01X1472979Y477303D02*
Y472303D01*
X1475512D01*
G01X1480612D02*
X1478079D01*
Y477303D01*
X1480612D01*
G01X1479599Y474887D02*
X1478079D01*
G01X1483179Y472303D02*
Y477303D01*
X1484762D01*
X1485269Y477053D01*
X1485586Y476720D01*
X1485712Y476053D01*
X1485586Y475387D01*
X1485206Y474970D01*
X1484762Y474720D01*
X1483179D01*
G01X1484762D02*
X1485712Y472303D01*
G01X1487962D02*
X1489546Y477303D01*
X1491129Y472303D01*
G01X1490559Y474053D02*
X1488532D01*
G01X1493189Y472303D02*
Y477303D01*
X1496102Y472303D01*
Y477303D01*
G01X1501139Y476887D02*
X1500759Y477137D01*
X1500316Y477303D01*
X1499809D01*
X1499239Y477053D01*
X1498796Y476637D01*
X1498479Y476137D01*
X1498226Y475303D01*
X1498162Y474553D01*
X1498289Y473803D01*
X1498479Y473303D01*
X1498859Y472803D01*
X1499302Y472470D01*
X1499746Y472303D01*
X1500189D01*
X1500632Y472470D01*
X1501012Y472720D01*
X1501329Y473053D01*
G01X1506112Y472303D02*
X1503579D01*
Y477303D01*
X1506112D01*
G01X1505099Y474887D02*
X1503579D01*
G01X1508616Y472970D02*
X1509122Y472553D01*
X1509693Y472303D01*
X1510199D01*
X1510706Y472553D01*
X1511086Y472970D01*
X1511276Y473553D01*
X1511149Y474136D01*
X1510832Y474637D01*
X1510262Y474970D01*
X1509502Y475137D01*
X1509059Y475470D01*
X1508869Y476053D01*
X1508996Y476637D01*
X1509312Y477053D01*
X1509756Y477303D01*
X1510199D01*
X1510643Y477137D01*
X1511022Y476720D01*
G01X1520146Y472303D02*
X1519639Y472387D01*
X1519196Y472720D01*
X1518816Y473220D01*
X1518562Y473803D01*
X1518435Y474470D01*
Y475137D01*
X1518562Y475803D01*
X1518816Y476387D01*
X1519196Y476887D01*
X1519639Y477220D01*
X1520146Y477303D01*
X1520652Y477220D01*
X1521096Y476887D01*
X1521476Y476387D01*
X1521729Y475803D01*
X1521856Y475137D01*
Y474470D01*
X1521729Y473803D01*
X1521476Y473220D01*
X1521096Y472720D01*
X1520652Y472387D01*
X1520146Y472303D01*
G01X1523789D02*
Y477303D01*
X1526702Y472303D01*
Y477303D01*
G01X1530346Y472137D02*
X1530219Y472220D01*
Y472387D01*
X1530346Y472470D01*
X1530472Y472387D01*
Y472220D01*
X1530346Y472137D01*
G01Y474386D02*
X1530219Y474470D01*
Y474637D01*
X1530346Y474720D01*
X1530472Y474637D01*
Y474470D01*
X1530346Y474386D01*
G01X1462652Y489803D02*
Y494803D01*
X1463919D01*
X1464426Y494553D01*
X1464806Y494220D01*
X1465122Y493720D01*
X1465376Y493136D01*
X1465439Y492303D01*
X1465376Y491470D01*
X1465122Y490886D01*
X1464806Y490386D01*
X1464426Y490053D01*
X1463919Y489803D01*
X1462652D01*
G01X1468386Y494803D02*
X1469906D01*
G01X1469146D02*
Y489803D01*
G01X1468386D02*
X1469906D01*
G01X1472599D02*
Y494803D01*
X1474246Y490637D01*
X1475893Y494803D01*
Y489803D01*
G01X1480612D02*
X1478079D01*
Y494803D01*
X1480612D01*
G01X1479599Y492387D02*
X1478079D01*
G01X1482989Y489803D02*
Y494803D01*
X1485902Y489803D01*
Y494803D01*
G01X1488216Y490470D02*
X1488722Y490053D01*
X1489293Y489803D01*
X1489799D01*
X1490306Y490053D01*
X1490686Y490470D01*
X1490876Y491053D01*
X1490749Y491636D01*
X1490432Y492137D01*
X1489862Y492470D01*
X1489102Y492637D01*
X1488659Y492970D01*
X1488469Y493553D01*
X1488596Y494137D01*
X1488912Y494553D01*
X1489356Y494803D01*
X1489799D01*
X1490243Y494637D01*
X1490622Y494220D01*
G01X1493886Y494803D02*
X1495406D01*
G01X1494646D02*
Y489803D01*
G01X1493886D02*
X1495406D01*
G01X1499746D02*
X1499239Y489887D01*
X1498796Y490220D01*
X1498416Y490720D01*
X1498162Y491303D01*
X1498035Y491970D01*
Y492637D01*
X1498162Y493303D01*
X1498416Y493887D01*
X1498796Y494387D01*
X1499239Y494720D01*
X1499746Y494803D01*
X1500252Y494720D01*
X1500696Y494387D01*
X1501076Y493887D01*
X1501329Y493303D01*
X1501456Y492637D01*
Y491970D01*
X1501329Y491303D01*
X1501076Y490720D01*
X1500696Y490220D01*
X1500252Y489887D01*
X1499746Y489803D01*
G01X1503389D02*
Y494803D01*
X1506302Y489803D01*
Y494803D01*
G01X1508616Y490470D02*
X1509122Y490053D01*
X1509693Y489803D01*
X1510199D01*
X1510706Y490053D01*
X1511086Y490470D01*
X1511276Y491053D01*
X1511149Y491636D01*
X1510832Y492137D01*
X1510262Y492470D01*
X1509502Y492637D01*
X1509059Y492970D01*
X1508869Y493553D01*
X1508996Y494137D01*
X1509312Y494553D01*
X1509756Y494803D01*
X1510199D01*
X1510643Y494637D01*
X1511022Y494220D01*
G01X1518562Y489803D02*
X1520146Y494803D01*
X1521729Y489803D01*
G01X1521159Y491553D02*
X1519132D01*
G01X1523979Y489803D02*
Y494803D01*
X1525562D01*
X1526069Y494553D01*
X1526386Y494220D01*
X1526512Y493553D01*
X1526386Y492887D01*
X1526006Y492470D01*
X1525562Y492220D01*
X1523979D01*
G01X1525562D02*
X1526512Y489803D01*
G01X1531612D02*
X1529079D01*
Y494803D01*
X1531612D01*
G01X1530599Y492387D02*
X1529079D01*
G01X1539786Y494803D02*
X1541306D01*
G01X1540546D02*
Y489803D01*
G01X1539786D02*
X1541306D01*
G01X1544189D02*
Y494803D01*
X1547102Y489803D01*
Y494803D01*
G01X1555086D02*
X1556606D01*
G01X1555846D02*
Y489803D01*
G01X1555086D02*
X1556606D01*
G01X1559489D02*
Y494803D01*
X1562402Y489803D01*
Y494803D01*
G01X1567439Y494387D02*
X1567059Y494637D01*
X1566616Y494803D01*
X1566109D01*
X1565539Y494553D01*
X1565096Y494137D01*
X1564779Y493637D01*
X1564526Y492803D01*
X1564462Y492053D01*
X1564589Y491303D01*
X1564779Y490803D01*
X1565159Y490303D01*
X1565602Y489970D01*
X1566046Y489803D01*
X1566489D01*
X1566932Y489970D01*
X1567312Y490220D01*
X1567629Y490553D01*
G01X1569816Y489803D02*
Y494803D01*
G01X1572476D02*
Y489803D01*
G01Y492303D02*
X1569816D01*
G01X1577512Y489803D02*
X1574979D01*
Y494803D01*
X1577512D01*
G01X1576499Y492387D02*
X1574979D01*
G01X1580016Y490470D02*
X1580522Y490053D01*
X1581093Y489803D01*
X1581599D01*
X1582106Y490053D01*
X1582486Y490470D01*
X1582676Y491053D01*
X1582549Y491636D01*
X1582232Y492137D01*
X1581662Y492470D01*
X1580902Y492637D01*
X1580459Y492970D01*
X1580269Y493553D01*
X1580396Y494137D01*
X1580712Y494553D01*
X1581156Y494803D01*
X1581599D01*
X1582043Y494637D01*
X1582422Y494220D01*
G01X1462652Y522303D02*
Y518720D01*
X1462906Y517970D01*
X1463412Y517470D01*
X1464046Y517303D01*
X1464679Y517470D01*
X1465186Y517970D01*
X1465439Y518720D01*
Y522303D01*
G01X1467689Y517303D02*
Y522303D01*
X1470602Y517303D01*
Y522303D01*
G01X1472979D02*
Y517303D01*
X1475512D01*
G01X1480612D02*
X1478079D01*
Y522303D01*
X1480612D01*
G01X1479599Y519887D02*
X1478079D01*
G01X1483116Y517970D02*
X1483622Y517553D01*
X1484193Y517303D01*
X1484699D01*
X1485206Y517553D01*
X1485586Y517970D01*
X1485776Y518553D01*
X1485649Y519136D01*
X1485332Y519637D01*
X1484762Y519970D01*
X1484002Y520137D01*
X1483559Y520470D01*
X1483369Y521053D01*
X1483496Y521637D01*
X1483812Y522053D01*
X1484256Y522303D01*
X1484699D01*
X1485143Y522137D01*
X1485522Y521720D01*
G01X1488216Y517970D02*
X1488722Y517553D01*
X1489293Y517303D01*
X1489799D01*
X1490306Y517553D01*
X1490686Y517970D01*
X1490876Y518553D01*
X1490749Y519136D01*
X1490432Y519637D01*
X1489862Y519970D01*
X1489102Y520137D01*
X1488659Y520470D01*
X1488469Y521053D01*
X1488596Y521637D01*
X1488912Y522053D01*
X1489356Y522303D01*
X1489799D01*
X1490243Y522137D01*
X1490622Y521720D01*
G01X1499746Y517303D02*
X1499239Y517387D01*
X1498796Y517720D01*
X1498416Y518220D01*
X1498162Y518803D01*
X1498035Y519470D01*
Y520137D01*
X1498162Y520803D01*
X1498416Y521387D01*
X1498796Y521887D01*
X1499239Y522220D01*
X1499746Y522303D01*
X1500252Y522220D01*
X1500696Y521887D01*
X1501076Y521387D01*
X1501329Y520803D01*
X1501456Y520137D01*
Y519470D01*
X1501329Y518803D01*
X1501076Y518220D01*
X1500696Y517720D01*
X1500252Y517387D01*
X1499746Y517303D01*
G01X1504846Y522303D02*
Y517303D01*
G01X1503389Y522303D02*
X1506302D01*
G01X1508616Y517303D02*
Y522303D01*
G01X1511276D02*
Y517303D01*
G01Y519803D02*
X1508616D01*
G01X1516312Y517303D02*
X1513779D01*
Y522303D01*
X1516312D01*
G01X1515299Y519887D02*
X1513779D01*
G01X1518879Y517303D02*
Y522303D01*
X1520462D01*
X1520969Y522053D01*
X1521286Y521720D01*
X1521412Y521053D01*
X1521286Y520387D01*
X1520906Y519970D01*
X1520462Y519720D01*
X1518879D01*
G01X1520462D02*
X1521412Y517303D01*
G01X1523346Y522303D02*
X1524232Y517303D01*
X1525246Y522303D01*
X1526259Y517303D01*
X1527146Y522303D01*
G01X1529586D02*
X1531106D01*
G01X1530346D02*
Y517303D01*
G01X1529586D02*
X1531106D01*
G01X1534116Y517970D02*
X1534622Y517553D01*
X1535193Y517303D01*
X1535699D01*
X1536206Y517553D01*
X1536586Y517970D01*
X1536776Y518553D01*
X1536649Y519136D01*
X1536332Y519637D01*
X1535762Y519970D01*
X1535002Y520137D01*
X1534559Y520470D01*
X1534369Y521053D01*
X1534496Y521637D01*
X1534812Y522053D01*
X1535256Y522303D01*
X1535699D01*
X1536143Y522137D01*
X1536522Y521720D01*
G01X1541812Y517303D02*
X1539279D01*
Y522303D01*
X1541812D01*
G01X1540799Y519887D02*
X1539279D01*
G01X1549416Y517970D02*
X1549922Y517553D01*
X1550493Y517303D01*
X1550999D01*
X1551506Y517553D01*
X1551886Y517970D01*
X1552076Y518553D01*
X1551949Y519136D01*
X1551632Y519637D01*
X1551062Y519970D01*
X1550302Y520137D01*
X1549859Y520470D01*
X1549669Y521053D01*
X1549796Y521637D01*
X1550112Y522053D01*
X1550556Y522303D01*
X1550999D01*
X1551443Y522137D01*
X1551822Y521720D01*
G01X1554579Y517303D02*
Y522303D01*
X1556099D01*
X1556606Y522053D01*
X1556986Y521470D01*
X1557112Y520803D01*
X1556986Y520137D01*
X1556669Y519637D01*
X1556099Y519386D01*
X1554579D01*
G01X1562212Y517303D02*
X1559679D01*
Y522303D01*
X1562212D01*
G01X1561199Y519887D02*
X1559679D01*
G01X1567439Y521887D02*
X1567059Y522137D01*
X1566616Y522303D01*
X1566109D01*
X1565539Y522053D01*
X1565096Y521637D01*
X1564779Y521137D01*
X1564526Y520303D01*
X1564462Y519553D01*
X1564589Y518803D01*
X1564779Y518303D01*
X1565159Y517803D01*
X1565602Y517470D01*
X1566046Y517303D01*
X1566489D01*
X1566932Y517470D01*
X1567312Y517720D01*
X1567629Y518053D01*
G01X1570386Y522303D02*
X1571906D01*
G01X1571146D02*
Y517303D01*
G01X1570386D02*
X1571906D01*
G01X1575042D02*
Y522303D01*
X1577449D01*
G01X1576562Y519887D02*
X1575042D01*
G01X1580586Y522303D02*
X1582106D01*
G01X1581346D02*
Y517303D01*
G01X1580586D02*
X1582106D01*
G01X1587712D02*
X1585179D01*
Y522303D01*
X1587712D01*
G01X1586699Y519887D02*
X1585179D01*
G01X1590152Y517303D02*
Y522303D01*
X1591419D01*
X1591926Y522053D01*
X1592306Y521720D01*
X1592622Y521220D01*
X1592876Y520636D01*
X1592939Y519803D01*
X1592876Y518970D01*
X1592622Y518386D01*
X1592306Y517886D01*
X1591926Y517553D01*
X1591419Y517303D01*
X1590152D01*
G01X1604646Y534803D02*
Y354803D01*
G01Y389803D02*
X1814646D01*
G01X1604646Y414803D02*
X1814646D01*
G01X1604646Y444803D02*
X1814646D01*
G01X1604646Y474803D02*
X1814646D01*
G01X1647851Y518143D02*
X1648477Y517618D01*
X1649182Y517303D01*
X1649809D01*
X1650436Y517618D01*
X1650906Y518143D01*
X1651141Y518878D01*
X1650984Y519613D01*
X1650592Y520243D01*
X1649887Y520663D01*
X1648947Y520873D01*
X1648399Y521293D01*
X1648164Y522028D01*
X1648321Y522763D01*
X1648712Y523288D01*
X1649261Y523603D01*
X1649809D01*
X1650357Y523393D01*
X1650828Y522868D01*
G01X1654856Y523603D02*
X1656735D01*
G01X1655796D02*
Y517303D01*
G01X1654856D02*
X1656735D01*
G01X1662566Y520453D02*
X1664132D01*
Y518563D01*
X1663662Y517933D01*
X1663114Y517513D01*
X1662331Y517303D01*
X1661547Y517513D01*
X1660999Y517933D01*
X1660529Y518563D01*
X1660216Y519298D01*
X1660059Y520138D01*
Y520873D01*
X1660216Y521503D01*
X1660529Y522238D01*
X1660999Y522868D01*
X1661469Y523288D01*
X1662096Y523603D01*
X1662644D01*
X1663270Y523393D01*
X1663741Y522973D01*
G01X1666594Y517303D02*
Y523603D01*
X1670197Y517303D01*
Y523603D01*
G01X1672737Y517303D02*
X1674696Y523603D01*
X1676654Y517303D01*
G01X1675949Y519508D02*
X1673442D01*
G01X1680996Y523603D02*
Y517303D01*
G01X1679194Y523603D02*
X1682797D01*
G01X1685572D02*
Y519088D01*
X1685885Y518143D01*
X1686512Y517513D01*
X1687296Y517303D01*
X1688079Y517513D01*
X1688706Y518143D01*
X1689019Y519088D01*
Y523603D01*
G01X1692029Y517303D02*
Y523603D01*
X1693987D01*
X1694614Y523288D01*
X1695006Y522868D01*
X1695162Y522028D01*
X1695006Y521188D01*
X1694536Y520663D01*
X1693987Y520348D01*
X1692029D01*
G01X1693987D02*
X1695162Y517303D01*
G01X1701462D02*
X1698329D01*
Y523603D01*
X1701462D01*
G01X1700209Y520558D02*
X1698329D01*
G01X1704551Y518143D02*
X1705177Y517618D01*
X1705882Y517303D01*
X1706509D01*
X1707136Y517618D01*
X1707606Y518143D01*
X1707841Y518878D01*
X1707684Y519613D01*
X1707292Y520243D01*
X1706587Y520663D01*
X1705647Y520873D01*
X1705099Y521293D01*
X1704864Y522028D01*
X1705021Y522763D01*
X1705412Y523288D01*
X1705961Y523603D01*
X1706509D01*
X1707057Y523393D01*
X1707528Y522868D01*
G01X1734646Y417303D02*
Y414803D01*
G01Y417303D02*
Y534803D01*
G01Y1304803D02*
Y1274803D01*
G01Y1394803D02*
Y1304803D01*
G01Y1334803D02*
X2234646D01*
G01X1734646Y1364803D02*
X2234646D01*
G01X1740896Y1344803D02*
Y1354803D01*
X1744020D01*
X1745020Y1354303D01*
X1745646Y1353637D01*
X1745896Y1352303D01*
X1745646Y1350970D01*
X1744896Y1350137D01*
X1744020Y1349636D01*
X1740896D01*
G01X1744020D02*
X1745896Y1344803D01*
G01X1755896D02*
X1750896D01*
Y1354803D01*
X1755896D01*
G01X1753896Y1349970D02*
X1750896D01*
G01X1760270Y1354803D02*
X1763396Y1344803D01*
X1766521Y1354803D01*
G01X1760272Y517303D02*
Y523603D01*
X1761839D01*
X1762466Y523288D01*
X1762936Y522868D01*
X1763328Y522238D01*
X1763641Y521503D01*
X1763719Y520453D01*
X1763641Y519403D01*
X1763328Y518668D01*
X1762936Y518038D01*
X1762466Y517618D01*
X1761839Y517303D01*
X1760272D01*
G01X1766337D02*
X1768296Y523603D01*
X1770254Y517303D01*
G01X1769549Y519508D02*
X1767042D01*
G01X1774596Y523603D02*
Y517303D01*
G01X1772794Y523603D02*
X1776397D01*
G01X1782462Y517303D02*
X1779329D01*
Y523603D01*
X1782462D01*
G01X1781209Y520558D02*
X1779329D01*
G01X1774646Y1304803D02*
Y1274803D01*
G01Y1304803D02*
Y1364803D01*
G01X1814646Y534803D02*
Y354803D01*
G01X2064646Y384803D02*
X1814646D01*
G01X2234646Y424803D02*
X1814646D01*
G01X2234646Y484803D02*
X1814646D01*
G01X1820770Y371136D02*
X1821771Y370303D01*
X1822896Y369803D01*
X1823896D01*
X1824896Y370303D01*
X1825646Y371136D01*
X1826021Y372303D01*
X1825771Y373470D01*
X1825146Y374470D01*
X1824020Y375137D01*
X1822521Y375470D01*
X1821646Y376136D01*
X1821270Y377303D01*
X1821521Y378470D01*
X1822146Y379303D01*
X1823020Y379803D01*
X1823896D01*
X1824771Y379470D01*
X1825521Y378637D01*
G01X1836146Y378970D02*
X1835396Y379470D01*
X1834521Y379803D01*
X1833521D01*
X1832396Y379303D01*
X1831521Y378470D01*
X1830896Y377470D01*
X1830396Y375803D01*
X1830270Y374303D01*
X1830521Y372803D01*
X1830896Y371803D01*
X1831646Y370803D01*
X1832521Y370136D01*
X1833396Y369803D01*
X1834270D01*
X1835146Y370136D01*
X1835896Y370636D01*
X1836521Y371303D01*
G01X1840270Y369803D02*
X1843396Y379803D01*
X1846521Y369803D01*
G01X1845396Y373303D02*
X1841396D01*
G01X1850896Y379803D02*
Y369803D01*
X1855896D01*
G01X1865896D02*
X1860896D01*
Y379803D01*
X1865896D01*
G01X1863896Y374970D02*
X1860896D01*
G01X1820770Y411136D02*
X1821771Y410303D01*
X1822896Y409803D01*
X1823896D01*
X1824896Y410303D01*
X1825646Y411136D01*
X1826021Y412303D01*
X1825771Y413470D01*
X1825146Y414470D01*
X1824020Y415137D01*
X1822521Y415470D01*
X1821646Y416136D01*
X1821270Y417303D01*
X1821521Y418470D01*
X1822146Y419303D01*
X1823020Y419803D01*
X1823896D01*
X1824771Y419470D01*
X1825521Y418637D01*
G01X1831896Y419803D02*
X1834895D01*
G01X1833396D02*
Y409803D01*
G01X1831896D02*
X1834895D01*
G01X1841020Y419803D02*
X1845771D01*
X1841020Y409803D01*
X1845771D01*
G01X1855896D02*
X1850896D01*
Y419803D01*
X1855896D01*
G01X1853896Y414970D02*
X1850896D01*
G01X1845646Y1344803D02*
Y1354803D01*
X1848146D01*
X1849146Y1354303D01*
X1849896Y1353637D01*
X1850521Y1352637D01*
X1851021Y1351470D01*
X1851146Y1349803D01*
X1851021Y1348136D01*
X1850521Y1346970D01*
X1849896Y1345970D01*
X1849146Y1345303D01*
X1848146Y1344803D01*
X1845646D01*
G01X1860896D02*
X1855896D01*
Y1354803D01*
X1860896D01*
G01X1858896Y1349970D02*
X1855896D01*
G01X1865770Y1346136D02*
X1866771Y1345303D01*
X1867896Y1344803D01*
X1868896D01*
X1869896Y1345303D01*
X1870646Y1346136D01*
X1871021Y1347303D01*
X1870771Y1348470D01*
X1870146Y1349470D01*
X1869020Y1350137D01*
X1867521Y1350470D01*
X1866646Y1351136D01*
X1866270Y1352303D01*
X1866521Y1353470D01*
X1867146Y1354303D01*
X1868020Y1354803D01*
X1868896D01*
X1869771Y1354470D01*
X1870521Y1353637D01*
G01X1881146Y1353970D02*
X1880396Y1354470D01*
X1879521Y1354803D01*
X1878521D01*
X1877396Y1354303D01*
X1876521Y1353470D01*
X1875896Y1352470D01*
X1875396Y1350803D01*
X1875270Y1349303D01*
X1875521Y1347803D01*
X1875896Y1346803D01*
X1876646Y1345803D01*
X1877521Y1345136D01*
X1878396Y1344803D01*
X1879270D01*
X1880146Y1345136D01*
X1880896Y1345636D01*
X1881521Y1346303D01*
G01X1885896Y1344803D02*
Y1354803D01*
X1889020D01*
X1890020Y1354303D01*
X1890646Y1353637D01*
X1890896Y1352303D01*
X1890646Y1350970D01*
X1889896Y1350137D01*
X1889020Y1349636D01*
X1885896D01*
G01X1889020D02*
X1890896Y1344803D01*
G01X1896896Y1354803D02*
X1899895D01*
G01X1898396D02*
Y1344803D01*
G01X1896896D02*
X1899895D01*
G01X1905896D02*
Y1354803D01*
X1908896D01*
X1909896Y1354303D01*
X1910646Y1353137D01*
X1910896Y1351803D01*
X1910646Y1350470D01*
X1910020Y1349470D01*
X1908896Y1348970D01*
X1905896D01*
G01X1918396Y1354803D02*
Y1344803D01*
G01X1915521Y1354803D02*
X1921270D01*
G01X1926896D02*
X1929895D01*
G01X1928396D02*
Y1344803D01*
G01X1926896D02*
X1929895D01*
G01X1938396D02*
X1937396Y1344970D01*
X1936521Y1345636D01*
X1935770Y1346636D01*
X1935270Y1347803D01*
X1935020Y1349137D01*
Y1350470D01*
X1935270Y1351803D01*
X1935770Y1352970D01*
X1936521Y1353970D01*
X1937396Y1354637D01*
X1938396Y1354803D01*
X1939396Y1354637D01*
X1940270Y1353970D01*
X1941021Y1352970D01*
X1941521Y1351803D01*
X1941771Y1350470D01*
Y1349137D01*
X1941521Y1347803D01*
X1941021Y1346636D01*
X1940270Y1345636D01*
X1939396Y1344970D01*
X1938396Y1344803D01*
G01X1945521D02*
Y1354803D01*
X1951270Y1344803D01*
Y1354803D01*
G01X1864646Y384803D02*
Y424803D01*
G01X1876020Y409803D02*
Y419803D01*
X1880771D01*
G01X1879020Y414970D02*
X1876020D01*
G01X1885770Y411136D02*
X1886771Y410303D01*
X1887896Y409803D01*
X1888896D01*
X1889896Y410303D01*
X1890646Y411136D01*
X1891021Y412303D01*
X1890771Y413470D01*
X1890146Y414470D01*
X1889020Y415137D01*
X1887521Y415470D01*
X1886646Y416136D01*
X1886270Y417303D01*
X1886521Y418470D01*
X1887146Y419303D01*
X1888020Y419803D01*
X1888896D01*
X1889771Y419470D01*
X1890521Y418637D01*
G01X1901146Y418970D02*
X1900396Y419470D01*
X1899521Y419803D01*
X1898521D01*
X1897396Y419303D01*
X1896521Y418470D01*
X1895896Y417470D01*
X1895396Y415803D01*
X1895270Y414303D01*
X1895521Y412803D01*
X1895896Y411803D01*
X1896646Y410803D01*
X1897521Y410136D01*
X1898396Y409803D01*
X1899270D01*
X1900146Y410136D01*
X1900896Y410636D01*
X1901521Y411303D01*
G01X1905146Y409803D02*
Y419803D01*
X1908396Y411470D01*
X1911646Y419803D01*
Y409803D01*
G01X1925521D02*
Y419803D01*
X1931270Y409803D01*
Y419803D01*
G01X1938396Y409803D02*
X1937396Y409970D01*
X1936521Y410636D01*
X1935770Y411636D01*
X1935270Y412803D01*
X1935020Y414137D01*
Y415470D01*
X1935270Y416803D01*
X1935770Y417970D01*
X1936521Y418970D01*
X1937396Y419637D01*
X1938396Y419803D01*
X1939396Y419637D01*
X1940270Y418970D01*
X1941021Y417970D01*
X1941521Y416803D01*
X1941771Y415470D01*
Y414137D01*
X1941521Y412803D01*
X1941021Y411636D01*
X1940270Y410636D01*
X1939396Y409970D01*
X1938396Y409803D01*
G01X1885521Y504803D02*
Y514803D01*
X1891270Y504803D01*
Y514803D01*
G01X1898396Y504803D02*
Y509303D01*
X1895896Y514803D01*
G01X1900896D02*
X1898396Y509303D01*
G01X1905646Y514803D02*
Y507637D01*
X1906146Y506136D01*
X1907146Y505136D01*
X1908396Y504803D01*
X1909646Y505136D01*
X1910646Y506136D01*
X1911146Y507637D01*
Y514803D01*
G01X1925521Y504803D02*
Y514803D01*
X1931270Y504803D01*
Y514803D01*
G01X1935270Y504803D02*
X1938396Y514803D01*
X1941521Y504803D01*
G01X1940396Y508303D02*
X1936396D01*
G01X1945521Y504803D02*
Y514803D01*
X1951270Y504803D01*
Y514803D01*
G01X1958396Y504803D02*
X1957396Y504970D01*
X1956521Y505636D01*
X1955770Y506636D01*
X1955270Y507803D01*
X1955020Y509137D01*
Y510470D01*
X1955270Y511803D01*
X1955770Y512970D01*
X1956521Y513970D01*
X1957396Y514637D01*
X1958396Y514803D01*
X1959396Y514637D01*
X1960270Y513970D01*
X1961021Y512970D01*
X1961521Y511803D01*
X1961771Y510470D01*
Y509137D01*
X1961521Y507803D01*
X1961021Y506636D01*
X1960270Y505636D01*
X1959396Y504970D01*
X1958396Y504803D01*
G01X1970896D02*
X1965896D01*
Y514803D01*
X1970896D01*
G01X1968896Y509970D02*
X1965896D01*
G01X1975896Y514803D02*
Y504803D01*
X1980896D01*
G01X1990896D02*
X1985896D01*
Y514803D01*
X1990896D01*
G01X1988896Y509970D02*
X1985896D01*
G01X2001146Y513970D02*
X2000396Y514470D01*
X1999521Y514803D01*
X1998521D01*
X1997396Y514303D01*
X1996521Y513470D01*
X1995896Y512470D01*
X1995396Y510803D01*
X1995270Y509303D01*
X1995521Y507803D01*
X1995896Y506803D01*
X1996646Y505803D01*
X1997521Y505136D01*
X1998396Y504803D01*
X1999270D01*
X2000146Y505136D01*
X2000896Y505636D01*
X2001521Y506303D01*
G01X2008396Y514803D02*
Y504803D01*
G01X2005521Y514803D02*
X2011270D01*
G01X2015896Y504803D02*
Y514803D01*
X2019020D01*
X2020020Y514303D01*
X2020646Y513637D01*
X2020896Y512303D01*
X2020646Y510970D01*
X2019896Y510137D01*
X2019020Y509636D01*
X2015896D01*
G01X2019020D02*
X2020896Y504803D01*
G01X2028396D02*
X2027396Y504970D01*
X2026521Y505636D01*
X2025770Y506636D01*
X2025270Y507803D01*
X2025020Y509137D01*
Y510470D01*
X2025270Y511803D01*
X2025770Y512970D01*
X2026521Y513970D01*
X2027396Y514637D01*
X2028396Y514803D01*
X2029396Y514637D01*
X2030270Y513970D01*
X2031021Y512970D01*
X2031521Y511803D01*
X2031771Y510470D01*
Y509137D01*
X2031521Y507803D01*
X2031021Y506636D01*
X2030270Y505636D01*
X2029396Y504970D01*
X2028396Y504803D01*
G01X2035521D02*
Y514803D01*
X2041270Y504803D01*
Y514803D01*
G01X2046896D02*
X2049895D01*
G01X2048396D02*
Y504803D01*
G01X2046896D02*
X2049895D01*
G01X2061146Y513970D02*
X2060396Y514470D01*
X2059521Y514803D01*
X2058521D01*
X2057396Y514303D01*
X2056521Y513470D01*
X2055896Y512470D01*
X2055396Y510803D01*
X2055270Y509303D01*
X2055521Y507803D01*
X2055896Y506803D01*
X2056646Y505803D01*
X2057521Y505136D01*
X2058396Y504803D01*
X2059270D01*
X2060146Y505136D01*
X2060896Y505636D01*
X2061521Y506303D01*
G01X2065770Y506136D02*
X2066771Y505303D01*
X2067896Y504803D01*
X2068896D01*
X2069896Y505303D01*
X2070646Y506136D01*
X2071021Y507303D01*
X2070771Y508470D01*
X2070146Y509470D01*
X2069020Y510137D01*
X2067521Y510470D01*
X2066646Y511136D01*
X2066270Y512303D01*
X2066521Y513470D01*
X2067146Y514303D01*
X2068020Y514803D01*
X2068896D01*
X2069771Y514470D01*
X2070521Y513637D01*
G01X2085896Y514803D02*
Y504803D01*
X2090896D01*
G01X2095270D02*
X2098396Y514803D01*
X2101521Y504803D01*
G01X2100396Y508303D02*
X2096396D01*
G01X2109396Y510137D02*
X2109896Y510637D01*
X2110270Y511470D01*
X2110521Y512637D01*
X2110270Y513637D01*
X2109771Y514303D01*
X2108896Y514803D01*
X2105521D01*
Y504803D01*
X2109646D01*
X2110521Y505470D01*
X2111021Y506470D01*
X2111270Y507637D01*
X2111021Y508803D01*
X2110270Y509803D01*
X2109396Y510137D01*
X2105521D01*
G01X2118396Y504803D02*
X2117396Y504970D01*
X2116521Y505636D01*
X2115770Y506636D01*
X2115270Y507803D01*
X2115020Y509137D01*
Y510470D01*
X2115270Y511803D01*
X2115770Y512970D01*
X2116521Y513970D01*
X2117396Y514637D01*
X2118396Y514803D01*
X2119396Y514637D01*
X2120270Y513970D01*
X2121021Y512970D01*
X2121521Y511803D01*
X2121771Y510470D01*
Y509137D01*
X2121521Y507803D01*
X2121021Y506636D01*
X2120270Y505636D01*
X2119396Y504970D01*
X2118396Y504803D01*
G01X2125896D02*
Y514803D01*
X2129020D01*
X2130020Y514303D01*
X2130646Y513637D01*
X2130896Y512303D01*
X2130646Y510970D01*
X2129896Y510137D01*
X2129020Y509636D01*
X2125896D01*
G01X2129020D02*
X2130896Y504803D01*
G01X2135270D02*
X2138396Y514803D01*
X2141521Y504803D01*
G01X2140396Y508303D02*
X2136396D01*
G01X2148396Y514803D02*
Y504803D01*
G01X2145521Y514803D02*
X2151270D01*
G01X2158396Y504803D02*
X2157396Y504970D01*
X2156521Y505636D01*
X2155770Y506636D01*
X2155270Y507803D01*
X2155020Y509137D01*
Y510470D01*
X2155270Y511803D01*
X2155770Y512970D01*
X2156521Y513970D01*
X2157396Y514637D01*
X2158396Y514803D01*
X2159396Y514637D01*
X2160270Y513970D01*
X2161021Y512970D01*
X2161521Y511803D01*
X2161771Y510470D01*
Y509137D01*
X2161521Y507803D01*
X2161021Y506636D01*
X2160270Y505636D01*
X2159396Y504970D01*
X2158396Y504803D01*
G01X2165896D02*
Y514803D01*
X2169020D01*
X2170020Y514303D01*
X2170646Y513637D01*
X2170896Y512303D01*
X2170646Y510970D01*
X2169896Y510137D01*
X2169020Y509636D01*
X2165896D01*
G01X2169020D02*
X2170896Y504803D01*
G01X2178396D02*
Y509303D01*
X2175896Y514803D01*
G01X2180896D02*
X2178396Y509303D01*
G01X1904646Y384803D02*
Y354803D01*
G01X1950896Y1374803D02*
Y1384803D01*
X1954020D01*
X1955020Y1384303D01*
X1955646Y1383637D01*
X1955896Y1382303D01*
X1955646Y1380970D01*
X1954896Y1380137D01*
X1954020Y1379636D01*
X1950896D01*
G01X1954020D02*
X1955896Y1374803D01*
G01X1965896D02*
X1960896D01*
Y1384803D01*
X1965896D01*
G01X1963896Y1379970D02*
X1960896D01*
G01X1970270Y1384803D02*
X1973396Y1374803D01*
X1976521Y1384803D01*
G01X1981896D02*
X1984895D01*
G01X1983396D02*
Y1374803D01*
G01X1981896D02*
X1984895D01*
G01X1990770Y1376136D02*
X1991771Y1375303D01*
X1992896Y1374803D01*
X1993896D01*
X1994896Y1375303D01*
X1995646Y1376136D01*
X1996021Y1377303D01*
X1995771Y1378470D01*
X1995146Y1379470D01*
X1994020Y1380137D01*
X1992521Y1380470D01*
X1991646Y1381136D01*
X1991270Y1382303D01*
X1991521Y1383470D01*
X1992146Y1384303D01*
X1993020Y1384803D01*
X1993896D01*
X1994771Y1384470D01*
X1995521Y1383637D01*
G01X2001896Y1384803D02*
X2004895D01*
G01X2003396D02*
Y1374803D01*
G01X2001896D02*
X2004895D01*
G01X2013396D02*
X2012396Y1374970D01*
X2011521Y1375636D01*
X2010770Y1376636D01*
X2010270Y1377803D01*
X2010020Y1379137D01*
Y1380470D01*
X2010270Y1381803D01*
X2010770Y1382970D01*
X2011521Y1383970D01*
X2012396Y1384637D01*
X2013396Y1384803D01*
X2014396Y1384637D01*
X2015270Y1383970D01*
X2016021Y1382970D01*
X2016521Y1381803D01*
X2016771Y1380470D01*
Y1379137D01*
X2016521Y1377803D01*
X2016021Y1376636D01*
X2015270Y1375636D01*
X2014396Y1374970D01*
X2013396Y1374803D01*
G01X2020521D02*
Y1384803D01*
X2026270Y1374803D01*
Y1384803D01*
G01X2030770Y1376136D02*
X2031771Y1375303D01*
X2032896Y1374803D01*
X2033896D01*
X2034896Y1375303D01*
X2035646Y1376136D01*
X2036021Y1377303D01*
X2035771Y1378470D01*
X2035146Y1379470D01*
X2034020Y1380137D01*
X2032521Y1380470D01*
X2031646Y1381136D01*
X2031270Y1382303D01*
X2031521Y1383470D01*
X2032146Y1384303D01*
X2033020Y1384803D01*
X2033896D01*
X2034771Y1384470D01*
X2035521Y1383637D01*
G01X1967910Y450787D02*
Y460787D01*
X1972661D01*
G01X1970910Y455954D02*
X1967910D01*
G01X1977660Y452120D02*
X1978661Y451287D01*
X1979785Y450787D01*
X1980785D01*
X1981785Y451287D01*
X1982535Y452120D01*
X1982911Y453287D01*
X1982661Y454454D01*
X1982035Y455454D01*
X1980910Y456121D01*
X1979411Y456454D01*
X1978535Y457120D01*
X1978160Y458287D01*
X1978411Y459454D01*
X1979035Y460287D01*
X1979910Y460787D01*
X1980785D01*
X1981661Y460454D01*
X1982411Y459621D01*
G01X1993035Y459954D02*
X1992285Y460454D01*
X1991411Y460787D01*
X1990411D01*
X1989285Y460287D01*
X1988411Y459454D01*
X1987785Y458454D01*
X1987285Y456787D01*
X1987160Y455287D01*
X1987411Y453787D01*
X1987785Y452787D01*
X1988535Y451787D01*
X1989411Y451120D01*
X1990285Y450787D01*
X1991160D01*
X1992035Y451120D01*
X1992785Y451620D01*
X1993411Y452287D01*
G01X1997160Y460787D02*
X2000285Y450787D01*
X2003411Y460787D01*
G01X2021285Y456121D02*
X2021785Y456621D01*
X2022160Y457454D01*
X2022411Y458621D01*
X2022160Y459621D01*
X2021661Y460287D01*
X2020785Y460787D01*
X2017411D01*
Y450787D01*
X2021535D01*
X2022411Y451454D01*
X2022911Y452454D01*
X2023160Y453621D01*
X2022911Y454787D01*
X2022160Y455787D01*
X2021285Y456121D01*
X2017411D01*
G01X2030285Y450787D02*
X2029285Y450954D01*
X2028411Y451620D01*
X2027660Y452620D01*
X2027160Y453787D01*
X2026910Y455121D01*
Y456454D01*
X2027160Y457787D01*
X2027660Y458954D01*
X2028411Y459954D01*
X2029285Y460621D01*
X2030285Y460787D01*
X2031285Y460621D01*
X2032160Y459954D01*
X2032911Y458954D01*
X2033411Y457787D01*
X2033661Y456454D01*
Y455121D01*
X2033411Y453787D01*
X2032911Y452620D01*
X2032160Y451620D01*
X2031285Y450954D01*
X2030285Y450787D01*
G01X2037160D02*
X2040285Y460787D01*
X2043411Y450787D01*
G01X2042285Y454287D02*
X2038285D01*
G01X2047785Y450787D02*
Y460787D01*
X2050910D01*
X2051910Y460287D01*
X2052535Y459621D01*
X2052785Y458287D01*
X2052535Y456954D01*
X2051785Y456121D01*
X2050910Y455620D01*
X2047785D01*
G01X2050910D02*
X2052785Y450787D01*
G01X2057535D02*
Y460787D01*
X2060035D01*
X2061035Y460287D01*
X2061785Y459621D01*
X2062411Y458621D01*
X2062911Y457454D01*
X2063035Y455787D01*
X2062911Y454120D01*
X2062411Y452954D01*
X2061785Y451954D01*
X2061035Y451287D01*
X2060035Y450787D01*
X2057535D01*
G01X1984646Y384803D02*
Y424803D01*
G01X1995646Y409803D02*
Y419803D01*
X1998146D01*
X1999146Y419303D01*
X1999896Y418637D01*
X2000521Y417637D01*
X2001021Y416470D01*
X2001146Y414803D01*
X2001021Y413136D01*
X2000521Y411970D01*
X1999896Y410970D01*
X1999146Y410303D01*
X1998146Y409803D01*
X1995646D01*
G01X2004646Y419803D02*
X2006396Y409803D01*
X2008396Y419803D01*
X2010396Y409803D01*
X2012146Y419803D01*
G01X2019146Y414803D02*
X2021646D01*
Y411803D01*
X2020896Y410803D01*
X2020020Y410136D01*
X2018771Y409803D01*
X2017521Y410136D01*
X2016646Y410803D01*
X2015896Y411803D01*
X2015396Y412970D01*
X2015146Y414303D01*
Y415470D01*
X2015396Y416470D01*
X2015896Y417637D01*
X2016646Y418637D01*
X2017396Y419303D01*
X2018396Y419803D01*
X2019270D01*
X2020270Y419470D01*
X2021021Y418803D01*
G01X2035521Y409803D02*
Y419803D01*
X2041270Y409803D01*
Y419803D01*
G01X2048396Y409803D02*
X2047396Y409970D01*
X2046521Y410636D01*
X2045770Y411636D01*
X2045270Y412803D01*
X2045020Y414137D01*
Y415470D01*
X2045270Y416803D01*
X2045770Y417970D01*
X2046521Y418970D01*
X2047396Y419637D01*
X2048396Y419803D01*
X2049396Y419637D01*
X2050270Y418970D01*
X2051021Y417970D01*
X2051521Y416803D01*
X2051771Y415470D01*
Y414137D01*
X2051521Y412803D01*
X2051021Y411636D01*
X2050270Y410636D01*
X2049396Y409970D01*
X2048396Y409803D01*
G01X2044646Y1304803D02*
Y1274803D01*
G01Y1294803D02*
Y1334803D01*
G01D02*
Y1364803D01*
G01X2064646Y354803D02*
Y384803D01*
X2234646D01*
G01X2075770Y371136D02*
X2076771Y370303D01*
X2077896Y369803D01*
X2078896D01*
X2079896Y370303D01*
X2080646Y371136D01*
X2081021Y372303D01*
X2080771Y373470D01*
X2080146Y374470D01*
X2079020Y375137D01*
X2077521Y375470D01*
X2076646Y376136D01*
X2076270Y377303D01*
X2076521Y378470D01*
X2077146Y379303D01*
X2078020Y379803D01*
X2078896D01*
X2079771Y379470D01*
X2080521Y378637D01*
G01X2085770Y369803D02*
Y379803D01*
G01X2091021D02*
Y369803D01*
G01Y374803D02*
X2085770D01*
G01X2100896Y369803D02*
X2095896D01*
Y379803D01*
X2100896D01*
G01X2098896Y374970D02*
X2095896D01*
G01X2110896Y369803D02*
X2105896D01*
Y379803D01*
X2110896D01*
G01X2108896Y374970D02*
X2105896D01*
G01X2118396Y379803D02*
Y369803D01*
G01X2115521Y379803D02*
X2121270D01*
G01X2070646Y1344803D02*
Y1354803D01*
X2073146D01*
X2074146Y1354303D01*
X2074896Y1353637D01*
X2075521Y1352637D01*
X2076021Y1351470D01*
X2076146Y1349803D01*
X2076021Y1348136D01*
X2075521Y1346970D01*
X2074896Y1345970D01*
X2074146Y1345303D01*
X2073146Y1344803D01*
X2070646D01*
G01X2080270D02*
X2083396Y1354803D01*
X2086521Y1344803D01*
G01X2085396Y1348303D02*
X2081396D01*
G01X2093396Y1354803D02*
Y1344803D01*
G01X2090521Y1354803D02*
X2096270D01*
G01X2105896Y1344803D02*
X2100896D01*
Y1354803D01*
X2105896D01*
G01X2103896Y1349970D02*
X2100896D01*
G01X2134646Y1304803D02*
Y1274803D01*
G01Y1304803D02*
Y1334803D01*
G01D02*
Y1364803D01*
G01X2145270Y1344803D02*
X2148396Y1354803D01*
X2151521Y1344803D01*
G01X2150396Y1348303D02*
X2146396D01*
G01X2155896Y1344803D02*
Y1354803D01*
X2158896D01*
X2159896Y1354303D01*
X2160646Y1353137D01*
X2160896Y1351803D01*
X2160646Y1350470D01*
X2160020Y1349470D01*
X2158896Y1348970D01*
X2155896D01*
G01X2165896Y1344803D02*
Y1354803D01*
X2168896D01*
X2169896Y1354303D01*
X2170646Y1353137D01*
X2170896Y1351803D01*
X2170646Y1350470D01*
X2170020Y1349470D01*
X2168896Y1348970D01*
X2165896D01*
G01X2175896Y1344803D02*
Y1354803D01*
X2179020D01*
X2180020Y1354303D01*
X2180646Y1353637D01*
X2180896Y1352303D01*
X2180646Y1350970D01*
X2179896Y1350137D01*
X2179020Y1349636D01*
X2175896D01*
G01X2179020D02*
X2180896Y1344803D01*
G01X2188396D02*
X2187396Y1344970D01*
X2186521Y1345636D01*
X2185770Y1346636D01*
X2185270Y1347803D01*
X2185020Y1349137D01*
Y1350470D01*
X2185270Y1351803D01*
X2185770Y1352970D01*
X2186521Y1353970D01*
X2187396Y1354637D01*
X2188396Y1354803D01*
X2189396Y1354637D01*
X2190270Y1353970D01*
X2191021Y1352970D01*
X2191521Y1351803D01*
X2191771Y1350470D01*
Y1349137D01*
X2191521Y1347803D01*
X2191021Y1346636D01*
X2190270Y1345636D01*
X2189396Y1344970D01*
X2188396Y1344803D01*
G01X2195270Y1354803D02*
X2198396Y1344803D01*
X2201521Y1354803D01*
G01X2210896Y1344803D02*
X2205896D01*
Y1354803D01*
X2210896D01*
G01X2208896Y1349970D02*
X2205896D01*
G01X2215646Y1344803D02*
Y1354803D01*
X2218146D01*
X2219146Y1354303D01*
X2219896Y1353637D01*
X2220521Y1352637D01*
X2221021Y1351470D01*
X2221146Y1349803D01*
X2221021Y1348136D01*
X2220521Y1346970D01*
X2219896Y1345970D01*
X2219146Y1345303D01*
X2218146Y1344803D01*
X2215646D01*
G01X2234646Y1394803D02*
Y1274803D01*
G54D15*
X813228Y840098D03*
G54D33*
X1006654Y942913D03*
X1011654D03*
X1016654D03*
X1021654D03*
X1026654D03*
X1031654D03*
X1118858D03*
X1123858D03*
X1128858D03*
X1133858D03*
X1138858D03*
X1143858D03*
X1258996Y629921D03*
X1263996D03*
X1268996D03*
X1273996D03*
X1278996D03*
Y661417D03*
Y753937D03*
X1273996D03*
X1268996D03*
X1263996D03*
X1278996Y783465D03*
X1283996Y629921D03*
X1288996Y661417D03*
X1283996D03*
X1295886Y699193D03*
Y704193D03*
Y709193D03*
X1288996Y753937D03*
X1283996D03*
X1288996Y783465D03*
X1283996D03*
X1292500Y857500D03*
Y862500D03*
Y867500D03*
Y872500D03*
Y877500D03*
Y882500D03*
G54D24*
X868898Y835591D03*
Y843465D03*
X1093701Y831713D03*
Y823839D03*
X1133071Y831713D03*
Y839587D03*
X1194587Y556890D03*
Y564764D03*
X1233957D03*
Y572638D03*
G54D25*
X877854Y891516D03*
X875295D03*
X872736D03*
X870177D03*
Y901398D03*
X872736D03*
X875295D03*
X877854D03*
X910630Y891516D03*
X908071D03*
X905512D03*
X902953D03*
Y901398D03*
X905512D03*
X908071D03*
X910630D03*
X940256Y891516D03*
X937697D03*
X935138D03*
Y901398D03*
X937697D03*
X940256D03*
X942815Y891516D03*
Y901398D03*
G54D16*
X820000Y880000D03*
X872500Y732500D03*
X891732Y868110D03*
X917500Y710000D03*
X956693Y836614D03*
G54D34*
X1036654Y942913D03*
X1148858D03*
X1258996Y753937D03*
X1273996Y661417D03*
Y783465D03*
X1288996Y629921D03*
X1295886Y714193D03*
X1292500Y887500D03*
G54D17*
X810295Y921319D03*
G54D26*
X899823Y942913D03*
X919823D03*
X914823D03*
X909823D03*
X904823D03*
X939823D03*
X934823D03*
X929823D03*
X924823D03*
G54D35*
X1059252Y896693D03*
Y899252D03*
Y901811D03*
Y904370D03*
Y906929D03*
Y909488D03*
Y912047D03*
Y914606D03*
X1082480Y899252D03*
Y896693D03*
Y914606D03*
Y912047D03*
Y909488D03*
Y906929D03*
Y904370D03*
Y901811D03*
G54D27*
X894823Y942913D03*
G54D36*
X1123086Y839213D03*
Y834213D03*
Y829213D03*
Y824213D03*
X1103686D03*
Y829213D03*
Y834213D03*
Y839213D03*
X1204572Y557264D03*
Y562264D03*
Y567264D03*
Y572264D03*
X1223972Y557264D03*
Y572264D03*
Y567264D03*
Y562264D03*
G54D18*
X810295Y937551D03*
X833228Y862500D03*
X834311Y937551D03*
X860335Y606201D03*
X852933Y770000D03*
X857736Y817500D03*
X847500Y812500D03*
X855000Y820000D03*
X860000Y805000D03*
X860335Y846457D03*
X877913Y599232D03*
X865000Y616280D03*
X873386Y614398D03*
X868858Y601791D03*
X877913Y604350D03*
X875020Y748189D03*
X877067Y760000D03*
X864167Y778898D03*
X862500Y817500D03*
X873484Y820716D03*
X862500Y802500D03*
X871516Y829212D03*
X879685Y855000D03*
X868898Y847047D03*
X876850Y842500D03*
X877500Y870000D03*
X875295Y887650D03*
X870177D03*
X872736Y895382D03*
X862657Y909055D03*
X872736Y915354D03*
X900000Y567500D03*
X882500Y570000D03*
X896614Y614398D03*
X891102Y651299D03*
Y688720D03*
Y726142D03*
X900000Y777149D03*
X899162Y859055D03*
X883150Y842500D03*
X885000Y907500D03*
X900524Y901398D03*
X902982Y597982D03*
X910000Y605000D03*
X905000Y616280D03*
X909213Y656417D03*
X910787Y648740D03*
Y653858D03*
X905059Y645000D03*
X909213Y693839D03*
X910787Y686161D03*
Y691280D03*
X905059Y683307D03*
Y720728D03*
X909213Y731260D03*
X910787Y723583D03*
Y728701D03*
X917520Y749252D03*
X914704Y777149D03*
X918799Y810000D03*
X903827Y869134D03*
X908071Y887650D03*
X905512Y895382D03*
X902953Y887650D03*
X915295Y909055D03*
X905512Y915354D03*
X936102Y613720D03*
Y651142D03*
Y688563D03*
X923784Y758661D03*
Y772520D03*
X938563Y786378D03*
X938661Y805384D03*
X925913Y858268D03*
X937697Y895382D03*
X940256Y887650D03*
X935138D03*
X932709Y901398D03*
X937697Y915354D03*
X957500Y582500D03*
X955787Y611161D03*
Y616280D03*
X950000Y607500D03*
X950059Y621268D03*
X952638Y660000D03*
X955787Y648583D03*
X950059Y645000D03*
Y697500D03*
X955787Y686004D03*
X950059Y683150D03*
X957028Y716417D03*
X947480Y909055D03*
X979902Y613720D03*
X965000Y653701D03*
X979902Y651142D03*
X964094Y691122D03*
X979902Y688563D03*
Y725984D03*
Y763406D03*
X962500Y798189D03*
X979902Y800827D03*
X966535Y906201D03*
X997607Y577607D03*
X1000000Y567500D03*
X999587Y611161D03*
X997500Y605000D03*
X999587Y616280D03*
X993858Y607500D03*
Y622500D03*
Y660000D03*
X999587Y648583D03*
Y653701D03*
X993858Y645728D03*
Y697500D03*
X999587Y686004D03*
Y691122D03*
X993858Y683150D03*
Y720571D03*
Y735000D03*
X999587Y723425D03*
Y728543D03*
X993858Y757992D03*
Y772500D03*
X999587Y760846D03*
Y765965D03*
X998012Y798268D03*
X993858Y792500D03*
X998012Y805945D03*
X999587Y803386D03*
X984358Y911319D03*
X986508Y906201D03*
X995000Y910000D03*
X994240Y903642D03*
X984358D03*
X1017500Y565000D03*
X1012500Y570000D03*
X1017500Y572500D03*
X1014665Y898799D03*
X1017547Y908354D03*
X1020736Y912500D03*
X1030000Y560000D03*
X1028228Y600728D03*
X1035000Y699921D03*
Y713780D03*
X1027421Y760425D03*
X1030000Y775000D03*
X1031102Y818720D03*
X1028346Y866299D03*
X1034594Y872500D03*
X1027783Y899874D03*
X1025384Y886483D03*
X1023346Y888799D03*
X1027783Y885126D03*
X1022665Y898799D03*
X1034594Y912500D03*
X1059734Y572234D03*
X1060000Y565000D03*
X1055000Y577500D03*
X1049528Y658917D03*
X1047626Y696732D03*
X1047913Y706969D03*
X1060000Y701850D03*
X1043386Y711898D03*
X1060059Y733307D03*
X1046102Y738720D03*
X1042500Y760425D03*
X1057579D03*
Y775000D03*
X1042500D03*
X1050787Y816161D03*
X1045059Y813307D03*
X1049213Y823839D03*
X1050787Y821280D03*
X1059252Y894223D03*
X1067500Y572234D03*
X1071969Y562500D03*
X1070000Y565000D03*
X1067500Y575000D03*
X1075000Y582500D03*
X1072500Y697500D03*
X1066614Y711898D03*
X1072500Y715000D03*
X1069941Y732500D03*
X1064213Y743839D03*
X1065787Y741280D03*
X1063644Y899252D03*
X1072500Y900000D03*
X1065551Y884193D03*
X1063644Y904370D03*
X1077500Y906929D03*
X1092500Y565000D03*
X1082028Y631417D03*
X1082500Y703701D03*
X1097913Y794154D03*
X1093701Y820256D03*
X1091614Y804232D03*
X1082480Y894510D03*
X1086728Y899252D03*
X1087016Y909488D03*
X1086728Y914606D03*
X1107500Y565000D03*
X1120000Y585000D03*
X1115059Y616122D03*
X1119213Y626654D03*
X1101102Y621535D03*
X1112500Y653543D03*
X1101102Y658957D03*
X1119213Y664075D03*
X1112500Y690965D03*
X1101102Y696378D03*
X1119213Y701496D03*
Y738917D03*
X1112500Y728386D03*
X1101102Y733799D03*
X1119213Y776339D03*
X1112500Y765807D03*
X1101102Y771220D03*
X1115453Y797500D03*
X1105571Y812067D03*
X1110000Y802500D03*
X1119606Y806791D03*
X1117436Y834213D03*
X1103686Y821630D03*
X1120787Y618976D03*
Y624094D03*
Y656398D03*
Y661516D03*
Y693819D03*
Y698937D03*
X1121075Y731240D03*
X1120787Y736358D03*
Y768661D03*
Y773780D03*
X1133071Y843169D03*
X1158366Y723228D03*
X1154587Y767894D03*
X1155760Y816181D03*
X1146949Y823150D03*
X1151614Y833228D03*
X1155760Y846181D03*
X1146949Y853150D03*
X1151614Y863228D03*
X1175000Y547500D03*
X1168602Y611220D03*
X1174646Y709350D03*
X1161398Y740807D03*
X1166516Y740520D03*
X1171634Y732039D03*
X1162500Y722500D03*
X1166516Y754980D03*
X1164665Y772559D03*
X1164528Y826417D03*
X1164240Y821299D03*
X1178988D03*
X1164240Y856417D03*
Y851299D03*
X1178988D03*
X1198799Y527205D03*
X1192500Y537283D03*
X1194587Y553307D03*
X1182559Y620000D03*
X1188287Y608661D03*
Y613780D03*
X1182559Y605807D03*
X1197559Y669980D03*
X1183602Y694003D03*
X1190750Y684893D03*
X1193602Y685328D03*
X1191398Y740807D03*
X1196516Y740520D03*
X1194665Y723228D03*
X1188366D03*
X1196516Y754980D03*
X1194665Y772559D03*
X1184587Y767894D03*
X1196280Y823150D03*
X1191614Y833228D03*
X1196280Y853150D03*
X1191614Y863228D03*
X1220205Y539843D03*
Y534724D03*
X1206457Y544831D03*
X1209934Y557264D03*
X1218609Y567264D03*
X1209499Y564412D03*
X1213583Y667894D03*
X1206035Y681850D03*
X1218571Y691732D03*
X1211024Y695598D03*
X1201634Y732039D03*
X1233957Y576220D03*
X1223661Y674193D03*
X1231102Y843720D03*
X1256646Y549232D03*
X1247835Y556201D03*
X1256646Y579232D03*
X1252500Y566280D03*
X1247835Y586201D03*
X1252500Y596280D03*
X1242500Y602500D03*
X1245059Y838307D03*
X1249213Y848839D03*
X1250787Y841161D03*
Y846280D03*
X1265126Y559469D03*
X1279874Y554350D03*
X1265126D03*
Y589469D03*
Y584350D03*
X1279874D03*
X1297165Y556201D03*
X1292500Y566280D03*
X1297165Y586201D03*
X1292500Y596280D03*
G54D19*
X828012Y921319D03*
G54D28*
X914941Y656417D03*
Y653858D03*
Y651299D03*
Y648740D03*
X905059D03*
Y651299D03*
Y653858D03*
Y656417D03*
X914941Y693839D03*
Y691280D03*
Y688720D03*
Y686161D03*
X905059D03*
Y688720D03*
Y691280D03*
Y693839D03*
X914941Y731260D03*
Y728701D03*
Y726142D03*
Y723583D03*
X905059D03*
Y726142D03*
Y728701D03*
Y731260D03*
X959941Y618839D03*
Y616280D03*
Y613720D03*
Y611161D03*
X950059D03*
Y613720D03*
Y616280D03*
Y618839D03*
X959941Y656260D03*
Y653701D03*
Y651142D03*
Y648583D03*
X950059D03*
Y651142D03*
Y653701D03*
Y656260D03*
X959941Y693681D03*
Y691122D03*
Y688563D03*
Y686004D03*
X950059D03*
Y688563D03*
Y691122D03*
Y693681D03*
X980492Y903642D03*
Y906201D03*
Y908760D03*
Y911319D03*
X993858Y611161D03*
Y613720D03*
Y616280D03*
Y618839D03*
Y648583D03*
Y651142D03*
Y653701D03*
Y656260D03*
Y686004D03*
Y688563D03*
Y691122D03*
Y693681D03*
Y723425D03*
Y725984D03*
Y728543D03*
Y731102D03*
Y760846D03*
Y763406D03*
Y765965D03*
Y768524D03*
Y798268D03*
Y800827D03*
Y803386D03*
Y805945D03*
X990374Y911319D03*
Y908760D03*
Y906201D03*
Y903642D03*
X1003740Y618839D03*
Y616280D03*
Y613720D03*
Y611161D03*
Y656260D03*
Y653701D03*
Y651142D03*
Y648583D03*
Y693681D03*
Y691122D03*
Y688563D03*
Y686004D03*
Y731102D03*
Y728543D03*
Y725984D03*
Y723425D03*
Y768524D03*
Y765965D03*
Y763406D03*
Y760846D03*
Y798268D03*
Y805945D03*
Y803386D03*
Y800827D03*
X1060059Y736161D03*
Y738720D03*
Y741280D03*
Y743839D03*
X1054941Y818720D03*
Y816161D03*
X1045059D03*
Y818720D03*
X1054941Y823839D03*
Y821280D03*
X1045059D03*
Y823839D03*
X1069941Y738720D03*
Y736161D03*
Y743839D03*
Y741280D03*
X1115059Y618976D03*
Y621535D03*
Y624094D03*
Y626654D03*
Y656398D03*
Y658957D03*
Y661516D03*
Y664075D03*
Y693819D03*
Y696378D03*
Y698937D03*
Y701496D03*
Y731240D03*
Y733799D03*
Y736358D03*
Y738917D03*
Y768661D03*
Y771220D03*
Y773780D03*
Y776339D03*
X1115453Y809350D03*
Y806791D03*
Y804232D03*
Y801673D03*
X1105571D03*
Y804232D03*
Y806791D03*
Y809350D03*
X1124941Y618976D03*
Y626654D03*
Y624094D03*
Y621535D03*
Y658957D03*
Y656398D03*
Y664075D03*
Y661516D03*
Y698937D03*
Y696378D03*
Y693819D03*
Y701496D03*
Y738917D03*
Y736358D03*
Y733799D03*
Y731240D03*
Y776339D03*
Y773780D03*
Y771220D03*
Y768661D03*
X1192441Y616339D03*
Y613780D03*
Y611220D03*
Y608661D03*
X1182559D03*
Y611220D03*
Y613780D03*
Y616339D03*
X1216339Y539843D03*
Y537283D03*
Y534724D03*
X1206457D03*
Y537283D03*
Y539843D03*
X1216339Y542402D03*
X1206457D03*
X1254941Y848839D03*
Y846280D03*
Y843720D03*
Y841161D03*
X1245059D03*
Y843720D03*
Y846280D03*
Y848839D03*
G54D37*
X1178602Y679965D03*
Y699365D03*
X1193602Y679965D03*
X1188602D03*
X1183602D03*
Y699365D03*
X1188602D03*
X1193602D03*
G54D29*
X910650Y806181D03*
Y814803D03*
G54D38*
X1178228Y709350D03*
X1186102Y669980D03*
X1193976D03*
X1186102Y709350D03*
G54D39*
X1197500Y637500D03*
X1217500D03*
M02*
