G04 ================== begin FILE IDENTIFICATION RECORD ==================*
G04 Layout Name:  E:/Projects/PCB/FSCV Board/PCB Editor/FSCV_V5.brd*
G04 Film Name:    7_GROUND_PLANE*
G04 File Format:  Gerber RS274X*
G04 File Origin:  Cadence Allegro 17.4-S037*
G04 Origin Date:  Fri Sep  8 15:29:54 2023*
G04 *
G04 Layer:  VIA CLASS/GND*
G04 Layer:  PIN/GND*
G04 Layer:  MANUFACTURING/XSECTION_CHART*
G04 Layer:  ETCH/GND*
G04 Layer:  DRAWING FORMAT/TITLE_DATA*
G04 Layer:  DRAWING FORMAT/TITLE_BLOCK*
G04 Layer:  DRAWING FORMAT/REVISION_DATA*
G04 Layer:  DRAWING FORMAT/REVISION_BLOCK*
G04 Layer:  DRAWING FORMAT/OUTLINE*
G04 Layer:  BOARD GEOMETRY/DESIGN_OUTLINE*
G04 *
G04 Offset:    (0.0000 0.0000)*
G04 Mirror:    No*
G04 Mode:      Positive*
G04 Rotation:  0*
G04 FullContactRelief:  No*
G04 UndefLineWidth:     0.1000*
G04 ================== end FILE IDENTIFICATION RECORD ====================*
%FSLAX25Y25*MOIN*%
%IR0*IPPOS*OFA0.00000B0.00000*MIA0B0*SFA1.00000B1.00000*%
%ADD16C,.019685*%
%ADD21C,.038976*%
%ADD18C,.03937*%
%ADD12C,.040157*%
%ADD11C,.094488*%
%ADD15C,.066933*%
%ADD14C,.060236*%
%ADD17C,.07087*%
%ADD10C,.181102*%
%ADD20C,.04685*%
%ADD22C,.051496*%
%ADD13C,.064961*%
%ADD19R,.048819X.048819*%
%ADD23R,.051496X.051496*%
%ADD24C,.003937*%
%ADD31C,.035449*%
%ADD38C,.196866*%
%ADD35C,.080724*%
%ADD26C,.055921*%
%ADD30C,.110252*%
%ADD34C,.076*%
%ADD32C,.08089*%
%ADD29C,.056866*%
%ADD39C,.074976*%
%ADD37C,.061512*%
%ADD27C,.050173*%
%ADD36C,.06726*%
%ADD28C,.104504*%
%ADD33C,.076953*%
%ADD25C,.097906*%
G75*
%LPD*%
G75*
G36*
G01X1318897Y972441D02*
Y517087D01*
X773622D01*
Y972441D01*
X1318897D01*
G37*
G36*
G01X1474144Y1323694D02*
Y1315427D01*
X1476644D01*
Y937474D01*
X1474144D01*
Y929206D01*
X1489144D01*
Y937474D01*
X1486644D01*
Y1315427D01*
X1489144D01*
Y1323694D01*
X1474144D01*
G37*
%LPC*%
G75*
G36*
G01X926825Y944358D02*
G03X927488Y944380I324J234D01*
G02X932157I2335J-1466D01*
G03X932820Y944358I339J213D01*
G02X934823Y945383I2002J-1445D01*
G02X936974Y944125I0J-2469D01*
G03X937671I348J196D01*
G02X939823Y945383I2152J-1212D01*
G02Y940444I0J-2469D01*
G02X937671Y941702I0J2469D01*
G03X936974I-348J-196D01*
G02X934823Y940444I-2152J1212D01*
G02X932820Y941469I0J2469D01*
G03X932157Y941447I-324J-234D01*
G02X927488I-2335J1466D01*
G03X926825Y941469I-339J-213D01*
G02X922820I-2002J1445D01*
G03X922157Y941447I-324J-234D01*
G02X917488I-2335J1466D01*
G03X916825Y941469I-339J-213D01*
G02X912820I-2002J1445D01*
G03X912157Y941447I-324J-234D01*
G02X907488I-2335J1466D01*
G03X906825Y941469I-339J-213D01*
G02X902820I-2002J1445D01*
G03X902157Y941447I-324J-234D01*
G02X897488I-2335J1466D01*
G03X896825Y941469I-339J-213D01*
G02X894823Y940444I-2002J1445D01*
G02Y945383I0J2469D01*
G02X896825Y944358I0J-2469D01*
G03X897488Y944380I324J234D01*
G02X902157I2335J-1466D01*
G03X902820Y944358I339J213D01*
G02X906825I2002J-1445D01*
G03X907488Y944380I324J234D01*
G02X912157I2335J-1466D01*
G03X912820Y944358I339J213D01*
G02X916825I2002J-1445D01*
G03X917488Y944380I324J234D01*
G02X922157I2335J-1466D01*
G03X922820Y944358I339J213D01*
G02X926825I2002J-1445D01*
G37*
G36*
G01X855492Y818297D02*
G02X855000Y818228I-492J1703D01*
G02X856772Y820000I0J1772D01*
G02X856740Y819663I-1772J0D01*
G03X857244Y819203I393J-76D01*
G02X857736Y819272I492J-1703D01*
G02X855964Y817500I0J-1772D01*
G02X855996Y817837I1772J0D01*
G03X855492Y818297I-393J76D01*
G37*
G36*
G01X1136190Y944347D02*
G03X1136857Y944326I341J210D01*
G02X1140859I2001J-1412D01*
G03X1141527Y944347I327J231D01*
G02X1146190I2331J-1434D01*
G03X1146857Y944326I341J210D01*
G02X1148858Y945363I2001J-1412D01*
G02Y940464I0J-2450D01*
G02X1146857Y941501I0J2449D01*
G03X1146190Y941480I-327J-231D01*
G02X1141527I-2331J1434D01*
G03X1140859Y941501I-341J-210D01*
G02X1136857I-2001J1412D01*
G03X1136190Y941480I-327J-231D01*
G02X1131527I-2331J1434D01*
G03X1130859Y941501I-341J-210D01*
G02X1126857I-2001J1412D01*
G03X1126190Y941480I-327J-231D01*
G02X1121527I-2331J1434D01*
G03X1120859Y941501I-341J-210D01*
G02X1118858Y940464I-2001J1412D01*
G02Y945363I0J2450D01*
G02X1120859Y944326I0J-2449D01*
G03X1121527Y944347I327J231D01*
G02X1126190I2331J-1434D01*
G03X1126857Y944326I341J210D01*
G02X1130859I2001J-1412D01*
G03X1131527Y944347I327J231D01*
G02X1136190I2331J-1434D01*
G37*
G36*
G01X1023985D02*
G03X1024652Y944326I341J210D01*
G02X1028655I2001J-1412D01*
G03X1029322Y944347I327J231D01*
G02X1033985I2331J-1434D01*
G03X1034652Y944326I341J210D01*
G02X1036654Y945363I2001J-1412D01*
G02Y940464I0J-2450D01*
G02X1034652Y941501I0J2449D01*
G03X1033985Y941480I-327J-231D01*
G02X1029322I-2331J1434D01*
G03X1028655Y941501I-341J-210D01*
G02X1024652I-2001J1412D01*
G03X1023985Y941480I-327J-231D01*
G02X1019322I-2331J1434D01*
G03X1018655Y941501I-341J-210D01*
G02X1014652I-2001J1412D01*
G03X1013985Y941480I-327J-231D01*
G02X1009322I-2331J1434D01*
G03X1008655Y941501I-341J-210D01*
G02X1006654Y940464I-2001J1412D01*
G02Y945363I0J2450D01*
G02X1008655Y944326I0J-2449D01*
G03X1009322Y944347I327J231D01*
G02X1013985I2331J-1434D01*
G03X1014652Y944326I341J210D01*
G02X1018655I2001J-1412D01*
G03X1019322Y944347I327J231D01*
G02X1023985I2331J-1434D01*
G37*
G36*
G01X984368Y905414D02*
G03X984764Y905885I2J400D01*
G02X984735Y906201I1744J316D01*
G02X986508Y904428I1772J0D01*
G01X986498D01*
G03X986102Y903957I-2J-400D01*
G02X986131Y903642I-1744J-316D01*
G02X984358Y905414I-1772J0D01*
G01X984368D01*
G37*
G36*
G01X1023615Y886604D02*
G03X1023241Y887030I-399J27D01*
G02X1021574Y888799I106J1769D01*
G02X1025119I1772J0D01*
G02X1025115Y888678I-1773J-3D01*
G03X1025490Y888252I399J-27D01*
G02X1027156Y886483I-106J-1769D01*
G02X1023611I-1772J0D01*
G02X1023615Y886604I1773J3D01*
G37*
G36*
G01X1291066Y884831D02*
G03X1291087Y885499I-210J341D01*
G02X1290050Y887500I1412J2001D01*
G02X1294950I2450J0D01*
G02X1293913Y885499I-2449J0D01*
G03X1293934Y884831I231J-327D01*
G02Y880169I-1434J-2331D01*
G03X1293913Y879501I210J-341D01*
G02Y875499I-1412J-2001D01*
G03X1293934Y874831I231J-327D01*
G02Y870169I-1434J-2331D01*
G03X1293913Y869501I210J-341D01*
G02Y865499I-1412J-2001D01*
G03X1293934Y864831I231J-327D01*
G02Y860169I-1434J-2331D01*
G03X1293913Y859501I210J-341D01*
G02X1294950Y857500I-1412J-2001D01*
G02X1290050I-2450J0D01*
G02X1291087Y859501I2449J0D01*
G03X1291066Y860169I-231J327D01*
G02Y864831I1434J2331D01*
G03X1291087Y865499I-210J341D01*
G02Y869501I1412J2001D01*
G03X1291066Y870169I-231J327D01*
G02Y874831I1434J2331D01*
G03X1291087Y875499I-210J341D01*
G02Y879501I1412J2001D01*
G03X1291066Y880169I-231J327D01*
G02Y884831I1434J2331D01*
G37*
G36*
G01X1249055Y846652D02*
G03X1248765Y847124I-391J84D01*
G02X1247440Y848839I448J1715D01*
G02X1250985I1772J0D01*
G02X1250945Y848466I-1772J0D01*
G03X1251235Y847994I391J-84D01*
G02X1252560Y846280I-448J-1715D01*
G02X1249015I-1772J0D01*
G02X1249055Y846652I1772J0D01*
G37*
G36*
G01X1049055Y821652D02*
G03X1048765Y822124I-391J84D01*
G02X1047440Y823839I448J1715D01*
G02X1050985I1772J0D01*
G02X1050945Y823466I-1772J0D01*
G03X1051235Y822994I391J-84D01*
G02X1052560Y821280I-448J-1715D01*
G02X1049015I-1772J0D01*
G02X1049055Y821652I1772J0D01*
G37*
G36*
G01X997854Y803759D02*
G03X997564Y804230I-391J84D01*
G02X996239Y805945I448J1715D01*
G02X999784I1772J0D01*
G02X999744Y805572I-1772J0D01*
G03X1000035Y805101I391J-84D01*
G02X1001359Y803386I-448J-1715D01*
G02X997814I-1772J0D01*
G02X997854Y803759I1772J0D01*
G37*
G36*
G01X860752Y802791D02*
G03X860291Y803252I-394J66D01*
G02X860000Y803228I-291J1748D01*
G02X861772Y805000I0J1772D01*
G02X861748Y804709I-1772J-1D01*
G03X862209Y804248I394J-66D01*
G02X862500Y804272I291J-1748D01*
G02X860728Y802500I0J-1772D01*
G02X860752Y802791I1772J1D01*
G37*
G36*
G01X1276328Y784898D02*
G03X1276995Y784877I341J210D01*
G02X1280997I2001J-1412D01*
G03X1281665Y784898I327J231D01*
G02X1286328I2331J-1434D01*
G03X1286995Y784877I341J210D01*
G02X1288996Y785914I2001J-1412D01*
G02Y781015I0J-2450D01*
G02X1286995Y782052I0J2449D01*
G03X1286328Y782031I-327J-231D01*
G02X1281665I-2331J1434D01*
G03X1280997Y782052I-341J-210D01*
G02X1276995I-2001J1412D01*
G03X1276328Y782031I-327J-231D01*
G02X1273996Y780728I-2331J1434D01*
G02Y786202I0J2737D01*
G02X1276328Y784898I0J-2737D01*
G37*
G36*
G01X1119055Y774152D02*
G03X1118765Y774624I-391J84D01*
G02X1117440Y776339I448J1715D01*
G02X1120985I1772J0D01*
G02X1120945Y775966I-1772J0D01*
G03X1121235Y775494I391J-84D01*
G02X1122560Y773780I-448J-1715D01*
G02X1119015I-1772J0D01*
G02X1119055Y774152I1772J0D01*
G37*
G36*
G01X1276328Y755371D02*
G03X1276995Y755350I341J210D01*
G02X1280997I2001J-1412D01*
G03X1281665Y755371I327J231D01*
G02X1286328I2331J-1434D01*
G03X1286995Y755350I341J210D01*
G02X1288996Y756387I2001J-1412D01*
G02Y751487I0J-2450D01*
G02X1286995Y752524I0J2449D01*
G03X1286328Y752503I-327J-231D01*
G02X1281665I-2331J1434D01*
G03X1280997Y752524I-341J-210D01*
G02X1276995I-2001J1412D01*
G03X1276328Y752503I-327J-231D01*
G02X1271665I-2331J1434D01*
G03X1270997Y752524I-341J-210D01*
G02X1266995I-2001J1412D01*
G03X1266328Y752503I-327J-231D01*
G02X1261665I-2331J1434D01*
G03X1260997Y752524I-341J-210D01*
G02X1258996Y751487I-2001J1412D01*
G02Y756387I0J2450D01*
G02X1260997Y755350I0J-2449D01*
G03X1261665Y755371I327J231D01*
G02X1266328I2331J-1434D01*
G03X1266995Y755350I341J210D01*
G02X1270997I2001J-1412D01*
G03X1271665Y755371I327J231D01*
G02X1276328I2331J-1434D01*
G37*
G36*
G01X1064055Y741652D02*
G03X1063765Y742124I-391J84D01*
G02X1062440Y743839I448J1715D01*
G02X1065985I1772J0D01*
G02X1065945Y743466I-1772J0D01*
G03X1066235Y742994I391J-84D01*
G02X1067560Y741280I-448J-1715D01*
G02X1064015I-1772J0D01*
G02X1064055Y741652I1772J0D01*
G37*
G36*
G01X1119055Y736731D02*
G03X1118765Y737202I-391J84D01*
G02X1117440Y738917I448J1715D01*
G02X1120985I1772J0D01*
G02X1120945Y738544I-1772J0D01*
G03X1121235Y738073I391J-84D01*
G02X1122560Y736358I-448J-1715D01*
G02X1119015I-1772J0D01*
G02X1119055Y736731I1772J0D01*
G37*
G36*
G01X909055Y729074D02*
G03X908765Y729545I-391J84D01*
G02X907440Y731260I448J1715D01*
G02X910985I1772J0D01*
G02X910945Y730887I-1772J0D01*
G03X911235Y730416I391J-84D01*
G02X912560Y728701I-448J-1715D01*
G02X909015I-1772J0D01*
G02X909055Y729074I1772J0D01*
G37*
G36*
G01X1294473Y711194D02*
G03X1294452Y711861I-231J327D01*
G02X1293149Y714193I1434J2331D01*
G02X1298623I2737J0D01*
G02X1297320Y711861I-2737J0D01*
G03X1297298Y711194I210J-341D01*
G02Y707192I-1412J-2001D01*
G03X1297320Y706524I231J-327D01*
G02Y701861I-1434J-2331D01*
G03X1297298Y701194I210J-341D01*
G02X1298335Y699193I-1412J-2001D01*
G02X1293436I-2450J0D01*
G02X1294473Y701194I2449J0D01*
G03X1294452Y701861I-231J327D01*
G02Y706524I1434J2331D01*
G03X1294473Y707192I-210J341D01*
G02Y711194I1412J2001D01*
G37*
G36*
G01X1119055Y699310D02*
G03X1118765Y699781I-391J84D01*
G02X1117440Y701496I448J1715D01*
G02X1120985I1772J0D01*
G02X1120945Y701123I-1772J0D01*
G03X1121235Y700652I391J-84D01*
G02X1122560Y698937I-448J-1715D01*
G02X1119015I-1772J0D01*
G02X1119055Y699310I1772J0D01*
G37*
G36*
G01X909055Y691652D02*
G03X908765Y692124I-391J84D01*
G02X907440Y693839I448J1715D01*
G02X910985I1772J0D01*
G02X910945Y693466I-1772J0D01*
G03X911235Y692994I391J-84D01*
G02X912560Y691280I-448J-1715D01*
G02X909015I-1772J0D01*
G02X909055Y691652I1772J0D01*
G37*
G36*
G01X1192639Y683840D02*
G03X1192113Y683760I-217J-336D01*
G02X1190750Y683120I-1363J1133D01*
G02Y686665I0J1772D01*
G02X1191714Y686380I0J-1772D01*
G03X1192239Y686461I217J336D01*
G02X1193602Y687100I1363J-1133D01*
G02Y683555I0J-1772D01*
G02X1192639Y683840I0J1772D01*
G37*
G36*
G01X1119055Y661889D02*
G03X1118765Y662360I-391J84D01*
G02X1117440Y664075I448J1715D01*
G02X1120985I1772J0D01*
G02X1120945Y663702I-1772J0D01*
G03X1121235Y663231I391J-84D01*
G02X1122560Y661516I-448J-1715D01*
G02X1119015I-1772J0D01*
G02X1119055Y661889I1772J0D01*
G37*
G36*
G01X1276328Y662851D02*
G03X1276995Y662830I341J210D01*
G02X1280997I2001J-1412D01*
G03X1281665Y662851I327J231D01*
G02X1286328I2331J-1434D01*
G03X1286995Y662830I341J210D01*
G02X1288996Y663867I2001J-1412D01*
G02Y658968I0J-2450D01*
G02X1286995Y660005I0J2449D01*
G03X1286328Y659983I-327J-231D01*
G02X1281665I-2331J1434D01*
G03X1280997Y660005I-341J-210D01*
G02X1276995I-2001J1412D01*
G03X1276328Y659983I-327J-231D01*
G02X1273996Y658680I-2331J1434D01*
G02Y664154I0J2737D01*
G02X1276328Y662851I0J-2737D01*
G37*
G36*
G01X909055Y654231D02*
G03X908765Y654702I-391J84D01*
G02X907440Y656417I448J1715D01*
G02X910985I1772J0D01*
G02X910945Y656044I-1772J0D01*
G03X911235Y655573I391J-84D01*
G02X912560Y653858I-448J-1715D01*
G02X909015I-1772J0D01*
G02X909055Y654231I1772J0D01*
G37*
G36*
G01X1276328Y631355D02*
G03X1276995Y631334I341J210D01*
G02X1280997I2001J-1412D01*
G03X1281665Y631355I327J231D01*
G02X1286328I2331J-1434D01*
G03X1286995Y631334I341J210D01*
G02X1288996Y632371I2001J-1412D01*
G02Y627472I0J-2450D01*
G02X1286995Y628509I0J2449D01*
G03X1286328Y628487I-327J-231D01*
G02X1281665I-2331J1434D01*
G03X1280997Y628509I-341J-210D01*
G02X1276995I-2001J1412D01*
G03X1276328Y628487I-327J-231D01*
G02X1271665I-2331J1434D01*
G03X1270997Y628509I-341J-210D01*
G02X1266995I-2001J1412D01*
G03X1266328Y628487I-327J-231D01*
G02X1261665I-2331J1434D01*
G03X1260997Y628509I-341J-210D01*
G02X1258996Y627472I-2001J1412D01*
G02Y632371I0J2450D01*
G02X1260997Y631334I0J-2449D01*
G03X1261665Y631355I327J231D01*
G02X1266328I2331J-1434D01*
G03X1266995Y631334I341J210D01*
G02X1270997I2001J-1412D01*
G03X1271665Y631355I327J231D01*
G02X1276328I2331J-1434D01*
G37*
G36*
G01X1119055Y624467D02*
G03X1118765Y624939I-391J84D01*
G02X1117440Y626654I448J1715D01*
G02X1120985I1772J0D01*
G02X1120945Y626281I-1772J0D01*
G03X1121235Y625809I391J-84D01*
G02X1122560Y624094I-448J-1715D01*
G02X1119015I-1772J0D01*
G02X1119055Y624467I1772J0D01*
G37*
G36*
G01X1066236Y573477D02*
G03Y573757I-143J140D01*
G02X1065728Y575000I1263J1243D01*
G02X1069272I1772J0D01*
G02X1068764Y573757I-1772J0D01*
G03Y573477I143J-140D01*
G02X1069272Y572234I-1263J-1243D01*
G02X1065728I-1772J0D01*
G02X1066236Y573477I1772J0D01*
G37*
G36*
G01X1070217Y562773D02*
G03X1069855Y563233I-395J62D01*
G02X1068228Y565000I145J1767D01*
G02X1071772I1772J0D01*
G02X1071751Y564727I-1772J0D01*
G03X1072114Y564267I395J-62D01*
G02X1073741Y562500I-145J-1767D01*
G02X1070196I-1772J0D01*
G02X1070217Y562773I1772J0D01*
G37*
G36*
G01X1231771Y542559D02*
Y547441D01*
G02X1232559Y548229I788J0D01*
G01X1237441D01*
G02X1238229Y547441I0J-788D01*
G01Y542559D01*
G02X1237441Y541771I-788J0D01*
G01X1232559D01*
G02X1231771Y542559I0J788D01*
G37*
G36*
G01X1077480Y588110D02*
Y592992D01*
G02X1078268Y593780I788J0D01*
G01X1083150D01*
G02X1083938Y592992I0J-788D01*
G01Y588110D01*
G02X1083150Y587322I-788J0D01*
G01X1078268D01*
G02X1077480Y588110I0J788D01*
G37*
G36*
G01X1042046Y637323D02*
Y642205D01*
G02X1042835Y642993I788J0D01*
G01X1047717D01*
G02X1048505Y642205I0J-788D01*
G01Y637323D01*
G02X1047717Y636535I-788J0D01*
G01X1042835D01*
G02X1042046Y637323I0J788D01*
G37*
G36*
G01X1204137Y634925D02*
Y640075D01*
G02X1204925Y640863I788J0D01*
G01X1210075D01*
G02X1210863Y640075I0J-788D01*
G01Y634925D01*
G02X1210075Y634137I-788J0D01*
G01X1204925D01*
G02X1204137Y634925I0J788D01*
G37*
G36*
G01X1209271Y715059D02*
Y719941D01*
G02X1210059Y720729I788J0D01*
G01X1214941D01*
G02X1215729Y719941I0J-788D01*
G01Y715059D01*
G02X1214941Y714271I-788J0D01*
G01X1210059D01*
G02X1209271Y715059I0J788D01*
G37*
G36*
G01X961771Y757559D02*
Y762441D01*
G02X962559Y763229I788J0D01*
G01X967441D01*
G02X968229Y762441I0J-788D01*
G01Y757559D01*
G02X967441Y756771I-788J0D01*
G01X962559D01*
G02X961771Y757559I0J788D01*
G37*
G36*
G01X1131771Y807559D02*
Y812441D01*
G02X1132559Y813229I788J0D01*
G01X1137441D01*
G02X1138229Y812441I0J-788D01*
G01Y807559D01*
G02X1137441Y806771I-788J0D01*
G01X1132559D01*
G02X1131771Y807559I0J788D01*
G37*
G54D31*
X1087016Y909488D03*
X1077500Y906929D03*
X1063644Y904370D03*
X1020736Y912500D03*
X1017547Y908354D03*
X994240Y903642D03*
X995000Y910000D03*
X984358Y911319D03*
X947480Y909055D03*
X932709Y901398D03*
X915295Y909055D03*
X900524Y901398D03*
X885000Y907500D03*
X862657Y909055D03*
X1086728Y899252D03*
X1082480Y894510D03*
X1072500Y900000D03*
X1063644Y899252D03*
X1059252Y894223D03*
X1022665Y898799D03*
X1027783Y899874D03*
X1014665Y898799D03*
X935138Y887650D03*
X940256D03*
X937697Y895382D03*
X902953Y887650D03*
X905512Y895382D03*
X908071Y887650D03*
X872736Y895382D03*
X870177Y887650D03*
X875295D03*
X1028346Y866299D03*
X877500Y870000D03*
X1250787Y841161D03*
X1196280Y853150D03*
X1178988Y851299D03*
X1164240D03*
Y856417D03*
X1146949Y853150D03*
X1155760Y846181D03*
X899162Y859055D03*
X876850Y842500D03*
X868898Y847047D03*
X1245059Y838307D03*
X1196280Y823150D03*
X1178988Y821299D03*
X1164240D03*
X1164528Y826417D03*
X1146949Y823150D03*
X1103686Y821630D03*
X1117436Y834213D03*
X871516Y829212D03*
X1155760Y816181D03*
X1119606Y806791D03*
X1110000Y802500D03*
X1105571Y812067D03*
X1045059Y813307D03*
X1050787Y816161D03*
X862500Y817500D03*
X847500Y812500D03*
X1115453Y797500D03*
X1097913Y794154D03*
X993858Y792500D03*
X998012Y798268D03*
X962500Y798189D03*
X1194665Y772559D03*
X1164665D03*
X1120787Y768661D03*
X1112500Y765807D03*
X1042500Y775000D03*
X1057579D03*
X1030000D03*
X999587Y765965D03*
Y760846D03*
X993858Y772500D03*
X900000Y777149D03*
X852933Y770000D03*
X1196516Y754980D03*
X1166516D03*
X1057579Y760425D03*
X1042500D03*
X1027421D03*
X993858Y757992D03*
X923784Y758661D03*
X1201634Y732039D03*
X1194665Y723228D03*
X1196516Y740520D03*
X1191398Y740807D03*
X1162500Y722500D03*
X1171634Y732039D03*
X1166516Y740520D03*
X1161398Y740807D03*
X1121075Y731240D03*
X1112500Y728386D03*
X1069941Y732500D03*
X1060059Y733307D03*
X999587Y728543D03*
Y723425D03*
X993858Y735000D03*
X910787Y723583D03*
X1082500Y703701D03*
X1066614Y711898D03*
X1043386D03*
X1060000Y701850D03*
X1047913Y706969D03*
X993858Y720571D03*
X957028Y716417D03*
X905059Y720728D03*
X1211024Y695598D03*
X1218571Y691732D03*
X1206035Y681850D03*
X1183602Y694003D03*
X1120787Y693819D03*
X1112500Y690965D03*
X1072500Y697500D03*
X1047626Y696732D03*
X1035000Y699921D03*
X993858Y683150D03*
X999587Y691122D03*
Y686004D03*
X993858Y697500D03*
X964094Y691122D03*
X950059Y683150D03*
X955787Y686004D03*
X950059Y697500D03*
X905059Y683307D03*
X910787Y686161D03*
X1223661Y674193D03*
X1120787Y656398D03*
X1112500Y653543D03*
X1049528Y658917D03*
X993858Y645728D03*
X999587Y653701D03*
Y648583D03*
X993858Y660000D03*
X965000Y653701D03*
X950059Y645000D03*
X955787Y648583D03*
X952638Y660000D03*
X905059Y645000D03*
X910787Y648740D03*
X1082028Y631417D03*
X993858Y622500D03*
X950059Y621268D03*
X1242500Y602500D03*
X1182559Y605807D03*
X1188287Y613780D03*
Y608661D03*
X1182559Y620000D03*
X1120787Y618976D03*
X1115059Y616122D03*
X993858Y607500D03*
X999587Y616280D03*
X997500Y605000D03*
X999587Y611161D03*
X950000Y607500D03*
X955787Y616280D03*
Y611161D03*
X910000Y605000D03*
X896614Y614398D03*
X877913Y604350D03*
X868858Y601791D03*
X873386Y614398D03*
X860335Y606201D03*
X1297165Y586201D03*
X1279874Y584350D03*
X1265126D03*
Y589469D03*
X1247835Y586201D03*
X1120000Y585000D03*
X1075000Y582500D03*
X1028228Y600728D03*
X957500Y582500D03*
X902982Y597982D03*
X877913Y599232D03*
X1256646Y579232D03*
X1209499Y564412D03*
X1218609Y567264D03*
X1107500Y565000D03*
X1092500D03*
X1055000Y577500D03*
X1060000Y565000D03*
X1059734Y572234D03*
X1017500Y572500D03*
X1012500Y570000D03*
X1017500Y565000D03*
X1000000Y567500D03*
X997607Y577607D03*
X882500Y570000D03*
X900000Y567500D03*
X1297165Y556201D03*
X1265126Y554350D03*
X1279874D03*
X1265126Y559469D03*
X1247835Y556201D03*
X1256646Y549232D03*
X1209934Y557264D03*
X1206457Y544831D03*
X1175000Y547500D03*
X1030000Y560000D03*
X1220205Y534724D03*
Y539843D03*
X1198799Y527205D03*
G54D38*
X1307087Y960630D03*
X785433D03*
X1307087Y528898D03*
X785433D03*
G54D35*
X813228Y840098D03*
Y830098D03*
X803228D03*
X813228Y820098D03*
Y810098D03*
X803228D03*
X813228Y790098D03*
G54D26*
X823209Y540296D03*
Y546595D03*
X840925D03*
X1009232Y540296D03*
Y546595D03*
X1018091Y540296D03*
X1013661Y550926D03*
X1022520D03*
X1026949Y546595D03*
X1044665Y540296D03*
X1040236Y550926D03*
X1044665Y546595D03*
X1053524Y540296D03*
X1049094Y550926D03*
X1053524Y546595D03*
X1062382Y540296D03*
Y546595D03*
X1071240Y540296D03*
X1066811Y550926D03*
X1071240Y546595D03*
X1080098Y540296D03*
Y546595D03*
X1088957Y540296D03*
X1084528Y550926D03*
X1088957Y546595D03*
X1097815Y540296D03*
X1093386Y550926D03*
X1106673Y540296D03*
X1102244Y550926D03*
X1111102D03*
X1115531Y546595D03*
X1124390Y540296D03*
Y546595D03*
X1133248D03*
X1137677Y550926D03*
X1142106Y546595D03*
X1146535Y550926D03*
X1150965Y546595D03*
Y531634D03*
Y525335D03*
X1142106Y531634D03*
X1106673D03*
X1071240Y525335D03*
X1062382Y531634D03*
X1053524D03*
Y525335D03*
X1035807Y531634D03*
X1040236Y521004D03*
X1035807Y525335D03*
X1026949Y531634D03*
X1031378Y521004D03*
X1026949Y525335D03*
X1018091Y531634D03*
Y525335D03*
X1009232Y531634D03*
X889646Y521004D03*
X840925Y531634D03*
X823209Y525335D03*
G54D30*
X1237500Y936909D03*
X1257874Y710630D03*
X847500Y707500D03*
X807500D03*
Y656319D03*
Y605138D03*
G54D34*
X891732Y868110D03*
X820000Y880000D03*
X956693Y836614D03*
X872500Y732500D03*
X917500Y710000D03*
G54D32*
X828012Y921319D03*
G54D29*
X1159055Y942913D03*
X1108661D03*
X1046850D03*
X996457D03*
X1292500Y897697D03*
Y847303D03*
X1299193Y783465D03*
X1263799D03*
X1299193Y753937D03*
X1248799D03*
X1295886Y724390D03*
Y688996D03*
X1299193Y661417D03*
X1263799D03*
X1299193Y629921D03*
X1248799D03*
G54D39*
X803228Y840098D03*
Y820098D03*
X813228Y800098D03*
X803228D03*
Y790098D03*
X813228Y780098D03*
X803228D03*
G54D37*
X1197500Y637500D03*
G54D27*
X818780Y550926D03*
X827638Y551595D03*
X832067Y540296D03*
Y546595D03*
X840925Y540296D03*
X836496Y550926D03*
X849783Y540296D03*
X845354Y550926D03*
X849783Y546595D03*
X858642Y540296D03*
X854213Y550926D03*
X858642Y546595D03*
X867500Y540296D03*
X863071Y550926D03*
X867500Y546595D03*
X876358Y540296D03*
X871929Y550926D03*
X876358Y546595D03*
X885217Y540296D03*
X880787Y550926D03*
X885217Y546595D03*
X894075Y540296D03*
X889646Y550926D03*
X894075Y546595D03*
X902933Y540296D03*
X898504Y550926D03*
X902933Y546595D03*
X911791Y540296D03*
X907362Y550926D03*
X911791Y546595D03*
X920650Y540296D03*
X916220Y550926D03*
X920650Y546595D03*
X929508Y540296D03*
X925079Y550926D03*
X929508Y546595D03*
X938366Y540296D03*
X933937Y550926D03*
X938366Y546595D03*
X947224Y540296D03*
X942795Y550926D03*
X947224Y546595D03*
X956083Y540296D03*
X951654Y550926D03*
X956083Y546595D03*
X964941Y540296D03*
X960512Y550926D03*
X964941Y546595D03*
X973799Y540296D03*
X969370Y550926D03*
X973799Y546595D03*
X982657Y540296D03*
X978228Y550926D03*
X982657Y546595D03*
X991516Y540296D03*
X987087Y550926D03*
X995945D03*
X991516Y546595D03*
X1004803Y550926D03*
X1018091Y546595D03*
X1026949Y540296D03*
X1035807D03*
X1031378Y550926D03*
X1035807Y546595D03*
X1057953Y550926D03*
X1075669D03*
X1097815Y546595D03*
X1106673D03*
X1115531Y540296D03*
X1119961Y550926D03*
X1133248Y540296D03*
X1128819Y550926D03*
X1142106Y540296D03*
X1150965D03*
X1155394Y550926D03*
Y535965D03*
Y521004D03*
X1146535Y535965D03*
Y521004D03*
X1142106Y525335D03*
X1133248Y531634D03*
X1137677Y535965D03*
Y521004D03*
X1133248Y525335D03*
X1124390Y531634D03*
X1128819Y535965D03*
Y521004D03*
X1124390Y525335D03*
X1115531Y531634D03*
X1119961Y535965D03*
Y521004D03*
X1115531Y525335D03*
X1111102Y535965D03*
Y521004D03*
X1106673Y525335D03*
X1102244Y535965D03*
X1097815Y531634D03*
X1102244Y521004D03*
X1097815Y525335D03*
X1088957Y531634D03*
X1093386Y535965D03*
Y521004D03*
X1088957Y525335D03*
X1084528Y535965D03*
X1080098Y531634D03*
X1084528Y521004D03*
X1080098Y525335D03*
X1071240Y531634D03*
X1075669Y535965D03*
Y521004D03*
X1066811Y535965D03*
Y521004D03*
X1062382Y525335D03*
X1057953Y535965D03*
Y521004D03*
X1044665Y531634D03*
X1049094Y535965D03*
Y521004D03*
X1044665Y525335D03*
X1040236Y535965D03*
X1031378D03*
X1022520D03*
Y521004D03*
X1004803Y535965D03*
X1013661D03*
Y521004D03*
X1009232Y525335D03*
X1004803Y521004D03*
X991516Y531634D03*
X995945Y535965D03*
Y521004D03*
X991516Y525335D03*
X982657Y531634D03*
X987087Y535965D03*
Y521004D03*
X982657Y525335D03*
X973799Y531634D03*
X978228Y535965D03*
Y521004D03*
X973799Y525335D03*
X964941Y531634D03*
X969370Y535965D03*
Y521004D03*
X964941Y525335D03*
X956083Y531634D03*
X960512Y535965D03*
Y521004D03*
X956083Y525335D03*
X947224Y531634D03*
X951654Y535965D03*
Y521004D03*
X947224Y525335D03*
X942795Y535965D03*
X938366Y531634D03*
X942795Y521004D03*
X938366Y525335D03*
X929508Y531634D03*
X933937Y535965D03*
Y521004D03*
X929508Y525335D03*
X925079Y535965D03*
X920650Y531634D03*
X925079Y521004D03*
X920650Y525335D03*
X911791Y531634D03*
X916220Y535965D03*
Y521004D03*
X911791Y525335D03*
X902933Y531634D03*
X907362Y535965D03*
Y521004D03*
X902933Y525335D03*
X894075Y531634D03*
X898504Y535965D03*
Y521004D03*
X894075Y525335D03*
X885217Y531634D03*
X889646Y535965D03*
X885217Y525335D03*
X876358Y531634D03*
X880787Y535965D03*
Y521004D03*
X876358Y525335D03*
X867500Y531634D03*
X871929Y535965D03*
Y521004D03*
X867500Y525335D03*
X863071Y535965D03*
X858642Y531634D03*
X863071Y521004D03*
X858642Y525335D03*
X849783Y531634D03*
X854213Y535965D03*
Y521004D03*
X849783Y525335D03*
X845354Y535965D03*
Y521004D03*
X840925Y525335D03*
X832067Y531634D03*
X836496Y535965D03*
Y521004D03*
X832067Y525335D03*
X823209Y531634D03*
X818780Y535965D03*
X827638D03*
Y521004D03*
X818780D03*
G54D36*
X1217500Y637500D03*
G54D28*
X1247500Y946909D03*
X1227500D03*
X1247500Y926909D03*
X1227500D03*
X1267874Y720630D03*
X1247874D03*
X857500Y717500D03*
X837500D03*
X817500D03*
X797500D03*
X1267874Y700630D03*
X1247874D03*
X857500Y697500D03*
X837500D03*
X817500D03*
X797500D03*
X817500Y666319D03*
X797500D03*
X817500Y646319D03*
X797500D03*
X817500Y615138D03*
X797500D03*
X817500Y595138D03*
X797500D03*
G54D33*
X810295Y921319D03*
G54D25*
X812087Y541949D03*
X1162087Y528485D03*
%LPD*%
G75*
G36*
G01X1454144Y929206D02*
Y937474D01*
X1514144D01*
Y929206D01*
X1454144D01*
G37*
G36*
G01Y1034324D02*
Y1042592D01*
X1514144D01*
Y1034324D01*
X1454144D01*
G37*
G36*
G01Y1210309D02*
Y1218576D01*
X1514144D01*
Y1210309D01*
X1454144D01*
G37*
G36*
G01Y1315427D02*
Y1323694D01*
X1514144D01*
Y1315427D01*
X1454144D01*
G37*
G54D10*
X785433Y528898D03*
Y960630D03*
X1307087Y528898D03*
Y960630D03*
G54D20*
X996457Y942913D03*
X1046850D03*
X1108661D03*
X1159055D03*
X1248799Y629921D03*
Y753937D03*
X1263799Y661417D03*
Y783465D03*
X1299193Y629921D03*
Y661417D03*
X1295886Y688996D03*
Y724390D03*
X1299193Y753937D03*
Y783465D03*
X1292500Y847303D03*
Y897697D03*
G54D11*
X797500Y595138D03*
Y615138D03*
Y646319D03*
Y666319D03*
Y697500D03*
Y717500D03*
X817500Y595138D03*
Y615138D03*
X807500Y605138D03*
X817500Y646319D03*
X807500Y656319D03*
X817500Y666319D03*
Y697500D03*
Y717500D03*
X807500Y707500D03*
X837500Y697500D03*
Y717500D03*
X857500Y697500D03*
Y717500D03*
X847500Y707500D03*
X1227500Y926909D03*
X1237500Y936909D03*
X1227500Y946909D03*
X1247874Y700630D03*
Y720630D03*
X1257874Y710630D03*
X1247500Y926909D03*
Y946909D03*
X1267874Y700630D03*
Y720630D03*
G54D12*
X818780Y521004D03*
Y535965D03*
Y550926D03*
X836496Y521004D03*
X827638D03*
X836496Y535965D03*
X827638D03*
X823209Y540296D03*
X832067D03*
X840925D03*
Y531634D03*
Y525335D03*
X832067Y531634D03*
Y525335D03*
X823209Y531634D03*
Y525335D03*
Y546595D03*
X827638Y551595D03*
X832067Y546595D03*
X836496Y550926D03*
X840925Y546595D03*
X854213Y521004D03*
X845354D03*
X854213Y535965D03*
X845354D03*
X849783Y540296D03*
X858642D03*
Y531634D03*
Y525335D03*
X849783Y531634D03*
Y525335D03*
X845354Y550926D03*
X849783Y546595D03*
X854213Y550926D03*
X858642Y546595D03*
X880787Y521004D03*
X871929D03*
X863071D03*
X880787Y535965D03*
X871929D03*
X863071D03*
X867500Y540296D03*
X876358D03*
Y531634D03*
Y525335D03*
X867500Y531634D03*
Y525335D03*
X863071Y550926D03*
X867500Y546595D03*
X871929Y550926D03*
X876358Y546595D03*
X880787Y550926D03*
X898504Y521004D03*
X889646D03*
X898504Y535965D03*
X889646D03*
X885217Y540296D03*
X894075D03*
Y531634D03*
Y525335D03*
X885217Y531634D03*
Y525335D03*
Y546595D03*
X889646Y550926D03*
X894075Y546595D03*
X898504Y550926D03*
X916220Y521004D03*
X907362D03*
X916220Y535965D03*
X907362D03*
X902933Y540296D03*
X911791D03*
X920650D03*
Y531634D03*
Y525335D03*
X911791Y531634D03*
Y525335D03*
X902933Y531634D03*
Y525335D03*
Y546595D03*
X907362Y550926D03*
X911791Y546595D03*
X916220Y550926D03*
X920650Y546595D03*
X933937Y521004D03*
X925079D03*
X933937Y535965D03*
X925079D03*
X929508Y540296D03*
X938366D03*
Y531634D03*
Y525335D03*
X929508Y531634D03*
Y525335D03*
X925079Y550926D03*
X929508Y546595D03*
X933937Y550926D03*
X938366Y546595D03*
X960512Y521004D03*
X951654D03*
X942795D03*
X960512Y535965D03*
X951654D03*
X942795D03*
X947224Y540296D03*
X956083D03*
Y531634D03*
Y525335D03*
X947224Y531634D03*
Y525335D03*
X942795Y550926D03*
X947224Y546595D03*
X951654Y550926D03*
X956083Y546595D03*
X960512Y550926D03*
X978228Y521004D03*
X969370D03*
X978228Y535965D03*
X969370D03*
X964941Y540296D03*
X973799D03*
Y531634D03*
Y525335D03*
X964941Y531634D03*
Y525335D03*
Y546595D03*
X969370Y550926D03*
X973799Y546595D03*
X978228Y550926D03*
X995945Y521004D03*
X987087D03*
X995945Y535965D03*
X987087D03*
X982657Y540296D03*
X991516D03*
Y531634D03*
Y525335D03*
X982657Y531634D03*
Y525335D03*
Y546595D03*
X987087Y550926D03*
X991516Y546595D03*
X995945Y550926D03*
X1013661Y521004D03*
X1004803D03*
X1013661Y535965D03*
X1004803D03*
X1009232Y540296D03*
X1018091D03*
Y531634D03*
Y525335D03*
X1009232Y531634D03*
Y525335D03*
X1004803Y550926D03*
X1009232Y546595D03*
X1013661Y550926D03*
X1018091Y546595D03*
X1040236Y521004D03*
X1031378D03*
X1022520D03*
X1040236Y535965D03*
X1031378D03*
X1022520D03*
X1026949Y540296D03*
X1035807D03*
Y531634D03*
Y525335D03*
X1026949Y531634D03*
Y525335D03*
X1022520Y550926D03*
X1026949Y546595D03*
X1031378Y550926D03*
X1035807Y546595D03*
X1040236Y550926D03*
X1057953Y521004D03*
X1049094D03*
X1057953Y535965D03*
X1049094D03*
X1044665Y540296D03*
X1053524D03*
Y531634D03*
Y525335D03*
X1044665Y531634D03*
Y525335D03*
Y546595D03*
X1049094Y550926D03*
X1053524Y546595D03*
X1057953Y550926D03*
X1075669Y521004D03*
X1066811D03*
X1075669Y535965D03*
X1066811D03*
X1062382Y540296D03*
X1071240D03*
X1080098D03*
Y531634D03*
Y525335D03*
X1071240Y531634D03*
Y525335D03*
X1062382Y531634D03*
Y525335D03*
Y546595D03*
X1066811Y550926D03*
X1071240Y546595D03*
X1075669Y550926D03*
X1080098Y546595D03*
X1093386Y521004D03*
X1084528D03*
X1093386Y535965D03*
X1084528D03*
X1088957Y540296D03*
X1097815D03*
Y531634D03*
Y525335D03*
X1088957Y531634D03*
Y525335D03*
X1084528Y550926D03*
X1088957Y546595D03*
X1093386Y550926D03*
X1097815Y546595D03*
X1119961Y521004D03*
X1111102D03*
X1102244D03*
X1119961Y535965D03*
X1111102D03*
X1102244D03*
X1106673Y540296D03*
X1115531D03*
Y531634D03*
Y525335D03*
X1106673Y531634D03*
Y525335D03*
X1102244Y550926D03*
X1106673Y546595D03*
X1111102Y550926D03*
X1115531Y546595D03*
X1119961Y550926D03*
X1137677Y521004D03*
X1128819D03*
X1137677Y535965D03*
X1128819D03*
X1124390Y540296D03*
X1133248D03*
Y531634D03*
Y525335D03*
X1124390Y531634D03*
Y525335D03*
Y546595D03*
X1128819Y550926D03*
X1133248Y546595D03*
X1137677Y550926D03*
X1155394Y521004D03*
X1146535D03*
X1155394Y535965D03*
X1146535D03*
X1142106Y540296D03*
X1150965D03*
Y531634D03*
Y525335D03*
X1142106Y531634D03*
Y525335D03*
Y546595D03*
X1146535Y550926D03*
X1150965Y546595D03*
X1155394Y550926D03*
G54D21*
X1006654Y942913D03*
X1011654D03*
X1016654D03*
X1021654D03*
X1026654D03*
X1031654D03*
X1036654D03*
X1118858D03*
X1123858D03*
X1128858D03*
X1133858D03*
X1138858D03*
X1143858D03*
X1148858D03*
X1258996Y629921D03*
Y753937D03*
X1263996Y629921D03*
X1268996D03*
X1273996D03*
X1278996D03*
Y661417D03*
X1273996D03*
X1278996Y753937D03*
X1273996D03*
X1268996D03*
X1263996D03*
X1278996Y783465D03*
X1273996D03*
X1283996Y629921D03*
X1288996D03*
Y661417D03*
X1283996D03*
X1295886Y699193D03*
Y704193D03*
Y709193D03*
Y714193D03*
X1288996Y753937D03*
X1283996D03*
X1288996Y783465D03*
X1283996D03*
X1292500Y857500D03*
Y862500D03*
Y867500D03*
Y872500D03*
Y877500D03*
Y882500D03*
Y887500D03*
G54D13*
X803228Y780098D03*
X813228D03*
X803228Y790098D03*
X813228D03*
X803228Y800098D03*
X813228D03*
X803228Y810098D03*
X813228D03*
X803228Y820098D03*
X813228D03*
X803228Y830098D03*
X813228D03*
X803228Y840098D03*
X813228D03*
G54D22*
X1197500Y637500D03*
X1217500D03*
G54D23*
X1207500D03*
G54D14*
X820000Y880000D03*
X872500Y732500D03*
X891732Y868110D03*
X917500Y710000D03*
X956693Y836614D03*
G54D24*
G01X797500Y589713D02*
Y595138D01*
G01D02*
Y600563D01*
G01X792075Y595138D02*
X797500D01*
G01D02*
X802925D01*
G01X797500Y609713D02*
Y615138D01*
G01D02*
Y620563D01*
G01X792075Y615138D02*
X797500D01*
G01D02*
X802925D01*
G01X797500Y640894D02*
Y646319D01*
G01D02*
Y651744D01*
G01X792075Y646319D02*
X797500D01*
G01D02*
X802925D01*
G01X797500Y660894D02*
Y666319D01*
G01D02*
Y671744D01*
G01X792075Y666319D02*
X797500D01*
G01D02*
X802925D01*
G01X797500Y692075D02*
Y697500D01*
G01D02*
Y702925D01*
G01X792075Y697500D02*
X797500D01*
G01D02*
X802925D01*
G01X797500Y712075D02*
Y717500D01*
G01D02*
Y722925D01*
G01X792075Y717500D02*
X797500D01*
G01D02*
X802925D01*
G01X817500Y589713D02*
Y595138D01*
G01D02*
Y600563D01*
G01X812075Y595138D02*
X817500D01*
G01D02*
X822925D01*
G01X817500Y609713D02*
Y615138D01*
G01D02*
Y620563D01*
G01X812075Y615138D02*
X817500D01*
G01D02*
X822925D01*
G01X817500Y640894D02*
Y646319D01*
G01D02*
Y651744D01*
G01X812075Y646319D02*
X817500D01*
G01D02*
X822925D01*
G01X817500Y660894D02*
Y666319D01*
G01D02*
Y671744D01*
G01X812075Y666319D02*
X817500D01*
G01D02*
X822925D01*
G01X817500Y692075D02*
Y697500D01*
G01D02*
Y702925D01*
G01X812075Y697500D02*
X817500D01*
G01D02*
X822925D01*
G01X817500Y712075D02*
Y717500D01*
G01D02*
Y722925D01*
G01X812075Y717500D02*
X817500D01*
G01D02*
X822925D01*
G01X813228Y796150D02*
Y800098D01*
G01D02*
Y804047D01*
G01X809280Y800098D02*
X813228D01*
G01D02*
X817177D01*
G01X837500Y692075D02*
Y697500D01*
G01D02*
Y702925D01*
G01X832075Y697500D02*
X837500D01*
G01D02*
X842925D01*
G01X837500Y712075D02*
Y717500D01*
G01D02*
Y722925D01*
G01X832075Y717500D02*
X837500D01*
G01D02*
X842925D01*
G01X857500Y692075D02*
Y697500D01*
G01D02*
Y702925D01*
G01X852075Y697500D02*
X857500D01*
G01D02*
X862925D01*
G01X857500Y712075D02*
Y717500D01*
G01D02*
Y722925D01*
G01X852075Y717500D02*
X857500D01*
G01D02*
X862925D01*
G01X894823Y940244D02*
Y942913D01*
G01D02*
Y945583D01*
G01X892154Y942913D02*
X894823D01*
G01X914823Y940244D02*
Y942913D01*
G01D02*
Y945583D01*
G01X904823Y940244D02*
Y942913D01*
G01D02*
Y945583D01*
G01X939823Y940244D02*
Y942913D01*
G01D02*
Y945583D01*
G01Y942913D02*
X942492D01*
G01X924823Y940244D02*
Y942913D01*
G01D02*
Y945583D01*
G01X934823Y940244D02*
Y942913D01*
G01D02*
Y945583D01*
G01X1016654Y940264D02*
Y942913D01*
G01D02*
Y945563D01*
G01X1006654Y940264D02*
Y942913D01*
G01D02*
Y945563D01*
G01X1004004Y942913D02*
X1006654D01*
G01X1036654Y940264D02*
Y942913D01*
G01D02*
Y945563D01*
G01Y942913D02*
X1039303D01*
G01X1026654Y940264D02*
Y942913D01*
G01D02*
Y945563D01*
G01X1118858Y940264D02*
Y942913D01*
G01D02*
Y945563D01*
G01X1116209Y942913D02*
X1118858D01*
G01X1128858Y940264D02*
Y942913D01*
G01D02*
Y945563D01*
G01X1138858Y940264D02*
Y942913D01*
G01D02*
Y945563D01*
G01X1148858Y940264D02*
Y942913D01*
G01D02*
Y945563D01*
G01Y942913D02*
X1151508D01*
G01X1197500Y634224D02*
Y637500D01*
G01D02*
Y640776D01*
G01X1194224Y637500D02*
X1197500D01*
G01D02*
X1200776D01*
G01X1227500Y921484D02*
Y926909D01*
G01D02*
Y932335D01*
G01X1222075Y926909D02*
X1227500D01*
G01D02*
X1232925D01*
G01X1227500Y941484D02*
Y946909D01*
G01D02*
Y952335D01*
G01X1222075Y946909D02*
X1227500D01*
G01D02*
X1232925D01*
G01X1258996Y627272D02*
Y629921D01*
G01D02*
Y632571D01*
G01X1256346Y629921D02*
X1258996D01*
G01X1247874Y695205D02*
Y700630D01*
G01D02*
Y706055D01*
G01X1242449Y700630D02*
X1247874D01*
G01D02*
X1253299D01*
G01X1247874Y715205D02*
Y720630D01*
G01D02*
Y726055D01*
G01X1242449Y720630D02*
X1247874D01*
G01D02*
X1253299D01*
G01X1258996Y751287D02*
Y753937D01*
G01D02*
Y756587D01*
G01X1256346Y753937D02*
X1258996D01*
G01X1247500Y921484D02*
Y926909D01*
G01D02*
Y932335D01*
G01X1242075Y926909D02*
X1247500D01*
G01D02*
X1252925D01*
G01X1247500Y941484D02*
Y946909D01*
G01D02*
Y952335D01*
G01X1242075Y946909D02*
X1247500D01*
G01D02*
X1252925D01*
G01X1268996Y627272D02*
Y629921D01*
G01D02*
Y632571D01*
G01X1278996Y627272D02*
Y629921D01*
G01D02*
Y632571D01*
G01Y658768D02*
Y661417D01*
G01D02*
Y664067D01*
G01X1267874Y695205D02*
Y700630D01*
G01Y715205D02*
Y720630D01*
G01Y700630D02*
Y706055D01*
G01X1262449Y700630D02*
X1267874D01*
G01D02*
X1273299D01*
G01X1267874Y720630D02*
Y726055D01*
G01X1262449Y720630D02*
X1267874D01*
G01D02*
X1273299D01*
G01X1268996Y751287D02*
Y753937D01*
G01D02*
Y756587D01*
G01X1278996Y751287D02*
Y753937D01*
G01D02*
Y756587D01*
G01Y780815D02*
Y783465D01*
G01D02*
Y786114D01*
G01X1288996Y627272D02*
Y629921D01*
G01D02*
Y632571D01*
G01Y629921D02*
X1291646D01*
G01X1288996Y658768D02*
Y661417D01*
G01D02*
Y664067D01*
G01Y661417D02*
X1291646D01*
G01X1295886Y696543D02*
Y699193D01*
G01X1293236D02*
X1295886D01*
G01D02*
X1298535D01*
G01X1293236Y709193D02*
X1295886D01*
G01D02*
X1298535D01*
G01X1288996Y751287D02*
Y753937D01*
G01D02*
Y756587D01*
G01Y753937D02*
X1291646D01*
G01X1288996Y780815D02*
Y783465D01*
G01D02*
Y786114D01*
G01Y783465D02*
X1291646D01*
G01X1292500Y854850D02*
Y857500D01*
G01X1289850D02*
X1292500D01*
G01D02*
X1295150D01*
G01X1289850Y867500D02*
X1292500D01*
G01D02*
X1295150D01*
G01X1289850Y877500D02*
X1292500D01*
G01D02*
X1295150D01*
G01X1292500Y887500D02*
Y890150D01*
G01X1289850Y887500D02*
X1292500D01*
G01D02*
X1295150D01*
G01X584646Y1424803D02*
Y324803D01*
G01D02*
X2284646D01*
Y1424803D01*
X584646D01*
G01X2234646Y1274803D02*
Y354803D01*
X634646D01*
G01Y1394803D02*
Y354803D01*
G01Y1394803D02*
X644646D01*
G01D02*
X2234646D01*
G01X769685Y515748D02*
Y976378D01*
X1322835D01*
Y515748D01*
X769685D01*
G01X1356394Y887475D02*
Y897475D01*
X1358894D01*
X1359894Y896974D01*
X1360644Y896308D01*
X1361269Y895308D01*
X1361769Y894141D01*
X1361894Y892475D01*
X1361769Y890808D01*
X1361269Y889641D01*
X1360644Y888641D01*
X1359894Y887975D01*
X1358894Y887475D01*
X1356394D01*
G01X1371644D02*
X1366644D01*
Y897475D01*
X1371644D01*
G01X1369644Y892642D02*
X1366644D01*
G01X1376519Y888808D02*
X1377519Y887975D01*
X1378644Y887475D01*
X1379644D01*
X1380644Y887975D01*
X1381394Y888808D01*
X1381769Y889975D01*
X1381519Y891141D01*
X1380894Y892141D01*
X1379769Y892808D01*
X1378269Y893141D01*
X1377394Y893808D01*
X1377019Y894975D01*
X1377269Y896141D01*
X1377894Y896974D01*
X1378769Y897475D01*
X1379644D01*
X1380519Y897142D01*
X1381269Y896308D01*
G01X1387644Y897475D02*
X1390643D01*
G01X1389144D02*
Y887475D01*
G01X1387644D02*
X1390643D01*
G01X1399894Y892475D02*
X1402394D01*
Y889475D01*
X1401644Y888474D01*
X1400769Y887808D01*
X1399519Y887475D01*
X1398269Y887808D01*
X1397394Y888474D01*
X1396644Y889475D01*
X1396144Y890641D01*
X1395894Y891975D01*
Y893141D01*
X1396144Y894141D01*
X1396644Y895308D01*
X1397394Y896308D01*
X1398144Y896974D01*
X1399144Y897475D01*
X1400019D01*
X1401019Y897142D01*
X1401769Y896475D01*
G01X1406269Y887475D02*
Y897475D01*
X1412019Y887475D01*
Y897475D01*
G01X1431894Y896641D02*
X1431144Y897142D01*
X1430269Y897475D01*
X1429269D01*
X1428144Y896974D01*
X1427269Y896141D01*
X1426644Y895141D01*
X1426144Y893475D01*
X1426019Y891975D01*
X1426269Y890475D01*
X1426644Y889475D01*
X1427394Y888474D01*
X1428269Y887808D01*
X1429144Y887475D01*
X1430019D01*
X1430894Y887808D01*
X1431644Y888308D01*
X1432269Y888974D01*
G01X1436644Y887475D02*
Y897475D01*
X1439769D01*
X1440769Y896974D01*
X1441394Y896308D01*
X1441644Y894975D01*
X1441394Y893641D01*
X1440644Y892808D01*
X1439769Y892308D01*
X1436644D01*
G01X1439769D02*
X1441644Y887475D01*
G01X1449144D02*
X1448144Y887641D01*
X1447269Y888308D01*
X1446519Y889308D01*
X1446019Y890475D01*
X1445769Y891808D01*
Y893141D01*
X1446019Y894475D01*
X1446519Y895642D01*
X1447269Y896641D01*
X1448144Y897308D01*
X1449144Y897475D01*
X1450144Y897308D01*
X1451019Y896641D01*
X1451769Y895642D01*
X1452269Y894475D01*
X1452519Y893141D01*
Y891808D01*
X1452269Y890475D01*
X1451769Y889308D01*
X1451019Y888308D01*
X1450144Y887641D01*
X1449144Y887475D01*
G01X1456519Y888808D02*
X1457519Y887975D01*
X1458644Y887475D01*
X1459644D01*
X1460644Y887975D01*
X1461394Y888808D01*
X1461769Y889975D01*
X1461519Y891141D01*
X1460894Y892141D01*
X1459769Y892808D01*
X1458269Y893141D01*
X1457394Y893808D01*
X1457019Y894975D01*
X1457269Y896141D01*
X1457894Y896974D01*
X1458769Y897475D01*
X1459644D01*
X1460519Y897142D01*
X1461269Y896308D01*
G01X1466519Y888808D02*
X1467519Y887975D01*
X1468644Y887475D01*
X1469644D01*
X1470644Y887975D01*
X1471394Y888808D01*
X1471769Y889975D01*
X1471519Y891141D01*
X1470894Y892141D01*
X1469769Y892808D01*
X1468269Y893141D01*
X1467394Y893808D01*
X1467019Y894975D01*
X1467269Y896141D01*
X1467894Y896974D01*
X1468769Y897475D01*
X1469644D01*
X1470519Y897142D01*
X1471269Y896308D01*
G01X1486519Y888808D02*
X1487519Y887975D01*
X1488644Y887475D01*
X1489644D01*
X1490644Y887975D01*
X1491394Y888808D01*
X1491769Y889975D01*
X1491519Y891141D01*
X1490894Y892141D01*
X1489769Y892808D01*
X1488269Y893141D01*
X1487394Y893808D01*
X1487019Y894975D01*
X1487269Y896141D01*
X1487894Y896974D01*
X1488769Y897475D01*
X1489644D01*
X1490519Y897142D01*
X1491269Y896308D01*
G01X1501644Y887475D02*
X1496644D01*
Y897475D01*
X1501644D01*
G01X1499644Y892642D02*
X1496644D01*
G01X1511894Y896641D02*
X1511144Y897142D01*
X1510269Y897475D01*
X1509269D01*
X1508144Y896974D01*
X1507269Y896141D01*
X1506644Y895141D01*
X1506144Y893475D01*
X1506019Y891975D01*
X1506269Y890475D01*
X1506644Y889475D01*
X1507394Y888474D01*
X1508269Y887808D01*
X1509144Y887475D01*
X1510019D01*
X1510894Y887808D01*
X1511644Y888308D01*
X1512269Y888974D01*
G01X1519144Y897475D02*
Y887475D01*
G01X1516269Y897475D02*
X1522019D01*
G01X1527644D02*
X1530643D01*
G01X1529144D02*
Y887475D01*
G01X1527644D02*
X1530643D01*
G01X1539144D02*
X1538144Y887641D01*
X1537269Y888308D01*
X1536519Y889308D01*
X1536019Y890475D01*
X1535769Y891808D01*
Y893141D01*
X1536019Y894475D01*
X1536519Y895642D01*
X1537269Y896641D01*
X1538144Y897308D01*
X1539144Y897475D01*
X1540144Y897308D01*
X1541019Y896641D01*
X1541769Y895642D01*
X1542269Y894475D01*
X1542519Y893141D01*
Y891808D01*
X1542269Y890475D01*
X1541769Y889308D01*
X1541019Y888308D01*
X1540144Y887641D01*
X1539144Y887475D01*
G01X1546269D02*
Y897475D01*
X1552019Y887475D01*
Y897475D01*
G01X1571894Y896641D02*
X1571144Y897142D01*
X1570269Y897475D01*
X1569269D01*
X1568144Y896974D01*
X1567269Y896141D01*
X1566644Y895141D01*
X1566144Y893475D01*
X1566019Y891975D01*
X1566269Y890475D01*
X1566644Y889475D01*
X1567394Y888474D01*
X1568269Y887808D01*
X1569144Y887475D01*
X1570019D01*
X1570894Y887808D01*
X1571644Y888308D01*
X1572269Y888974D01*
G01X1576519Y887475D02*
Y897475D01*
G01X1581769D02*
Y887475D01*
G01Y892475D02*
X1576519D01*
G01X1586019Y887475D02*
X1589144Y897475D01*
X1592269Y887475D01*
G01X1591144Y890975D02*
X1587144D01*
G01X1596644Y887475D02*
Y897475D01*
X1599769D01*
X1600769Y896974D01*
X1601394Y896308D01*
X1601644Y894975D01*
X1601394Y893641D01*
X1600644Y892808D01*
X1599769Y892308D01*
X1596644D01*
G01X1599769D02*
X1601644Y887475D01*
G01X1609144Y897475D02*
Y887475D01*
G01X1606269Y897475D02*
X1612019D01*
G01X1350394Y884142D02*
X1357894D01*
G01X1360394D02*
X1367894D01*
G01X1370394D02*
X1377894D01*
G01X1380394D02*
X1387894D01*
G01X1390394D02*
X1397894D01*
G01X1400394D02*
X1407894D01*
G01X1410394D02*
X1417894D01*
G01X1420394D02*
X1427894D01*
G01X1430394D02*
X1437894D01*
G01X1440394D02*
X1447894D01*
G01X1450394D02*
X1457894D01*
G01X1460394D02*
X1467894D01*
G01X1470394D02*
X1477894D01*
G01X1480394D02*
X1487894D01*
G01X1490394D02*
X1497894D01*
G01X1500394D02*
X1507894D01*
G01X1510394D02*
X1517894D01*
G01X1520394D02*
X1527894D01*
G01X1530394D02*
X1537894D01*
G01X1540394D02*
X1547894D01*
G01X1550394D02*
X1557894D01*
G01X1560394D02*
X1567894D01*
G01X1570394D02*
X1577894D01*
G01X1580394D02*
X1587894D01*
G01X1590394D02*
X1597894D01*
G01X1600394D02*
X1607894D01*
G01X1610394D02*
X1617894D01*
G01X1374144Y879475D02*
Y869475D01*
G01X1371269Y879475D02*
X1377019D01*
G01X1384144Y869475D02*
X1383144Y869641D01*
X1382269Y870308D01*
X1381519Y871308D01*
X1381019Y872475D01*
X1380769Y873808D01*
Y875141D01*
X1381019Y876475D01*
X1381519Y877642D01*
X1382269Y878641D01*
X1383144Y879308D01*
X1384144Y879475D01*
X1385144Y879308D01*
X1386019Y878641D01*
X1386769Y877642D01*
X1387269Y876475D01*
X1387519Y875141D01*
Y873808D01*
X1387269Y872475D01*
X1386769Y871308D01*
X1386019Y870308D01*
X1385144Y869641D01*
X1384144Y869475D01*
G01X1394144Y879475D02*
Y869475D01*
G01X1391269Y879475D02*
X1397019D01*
G01X1401019Y869475D02*
X1404144Y879475D01*
X1407269Y869475D01*
G01X1406144Y872975D02*
X1402144D01*
G01X1411644Y879475D02*
Y869475D01*
X1416644D01*
G01X1434144Y879475D02*
Y869475D01*
G01X1431269Y879475D02*
X1437019D01*
G01X1441519Y869475D02*
Y879475D01*
G01X1446769D02*
Y869475D01*
G01Y874475D02*
X1441519D01*
G01X1452644Y879475D02*
X1455643D01*
G01X1454144D02*
Y869475D01*
G01X1452644D02*
X1455643D01*
G01X1466894Y878641D02*
X1466144Y879142D01*
X1465269Y879475D01*
X1464269D01*
X1463144Y878974D01*
X1462269Y878141D01*
X1461644Y877141D01*
X1461144Y875475D01*
X1461019Y873975D01*
X1461269Y872475D01*
X1461644Y871475D01*
X1462394Y870474D01*
X1463269Y869808D01*
X1464144Y869475D01*
X1465019D01*
X1465894Y869808D01*
X1466644Y870308D01*
X1467269Y870974D01*
G01X1471394Y869475D02*
Y879475D01*
G01X1476144D02*
X1471394Y873308D01*
G01X1476894Y869475D02*
X1473519Y876141D01*
G01X1481269Y869475D02*
Y879475D01*
X1487019Y869475D01*
Y879475D01*
G01X1496644Y869475D02*
X1491644D01*
Y879475D01*
X1496644D01*
G01X1494644Y874642D02*
X1491644D01*
G01X1501519Y870808D02*
X1502519Y869975D01*
X1503644Y869475D01*
X1504644D01*
X1505644Y869975D01*
X1506394Y870808D01*
X1506769Y871975D01*
X1506519Y873141D01*
X1505894Y874141D01*
X1504769Y874808D01*
X1503269Y875141D01*
X1502394Y875808D01*
X1502019Y876975D01*
X1502269Y878141D01*
X1502894Y878974D01*
X1503769Y879475D01*
X1504644D01*
X1505519Y879142D01*
X1506269Y878308D01*
G01X1511519Y870808D02*
X1512519Y869975D01*
X1513644Y869475D01*
X1514644D01*
X1515644Y869975D01*
X1516394Y870808D01*
X1516769Y871975D01*
X1516519Y873141D01*
X1515894Y874141D01*
X1514769Y874808D01*
X1513269Y875141D01*
X1512394Y875808D01*
X1512019Y876975D01*
X1512269Y878141D01*
X1512894Y878974D01*
X1513769Y879475D01*
X1514644D01*
X1515519Y879142D01*
X1516269Y878308D01*
G01X1534144Y869475D02*
Y879475D01*
X1532644Y877475D01*
G01Y869475D02*
X1535643D01*
G01X1544144Y869142D02*
X1543894Y869308D01*
Y869641D01*
X1544144Y869808D01*
X1544394Y869641D01*
Y869308D01*
X1544144Y869142D01*
G01X1551769Y873641D02*
X1552644Y874808D01*
X1553394Y875475D01*
X1554394Y875808D01*
X1555269Y875475D01*
X1555894Y874808D01*
X1556394Y873808D01*
X1556519Y872641D01*
X1556394Y871641D01*
X1555894Y870641D01*
X1555144Y869808D01*
X1554269Y869475D01*
X1553269Y869808D01*
X1552394Y870808D01*
X1551894Y872308D01*
X1551769Y873975D01*
X1552019Y876141D01*
X1552394Y877308D01*
X1553019Y878475D01*
X1553894Y879308D01*
X1554769Y879475D01*
X1555644Y879142D01*
X1556269Y878308D01*
G01X1563894Y869475D02*
X1564144Y871641D01*
X1564519Y873474D01*
X1565019Y875141D01*
X1565644Y876975D01*
X1566644Y879475D01*
X1561644D01*
G01X1580894Y869475D02*
Y879475D01*
X1584144Y871141D01*
X1587394Y879475D01*
Y869475D01*
G01X1590894D02*
Y879475D01*
X1594144Y871141D01*
X1597394Y879475D01*
Y869475D01*
G01X1454646Y354803D02*
Y534803D01*
X2234646D01*
G01X1454646Y504803D02*
X1814646D01*
G01X1454144Y937474D02*
Y1034324D01*
X1514144D01*
Y937474D01*
X1454144D01*
G01Y1042592D02*
Y1210309D01*
X1514144D01*
Y1042592D01*
X1454144D01*
G01Y1218576D02*
Y1315427D01*
X1514144D01*
Y1218576D01*
X1454144D01*
G01X1462842Y412303D02*
Y417303D01*
X1465249D01*
G01X1464362Y414887D02*
X1462842D01*
G01X1467879Y412303D02*
Y417303D01*
X1469462D01*
X1469969Y417053D01*
X1470286Y416720D01*
X1470412Y416053D01*
X1470286Y415387D01*
X1469906Y414970D01*
X1469462Y414720D01*
X1467879D01*
G01X1469462D02*
X1470412Y412303D01*
G01X1472662D02*
X1474246Y417303D01*
X1475829Y412303D01*
G01X1475259Y414053D02*
X1473232D01*
G01X1480739Y416887D02*
X1480359Y417137D01*
X1479916Y417303D01*
X1479409D01*
X1478839Y417053D01*
X1478396Y416637D01*
X1478079Y416137D01*
X1477826Y415303D01*
X1477762Y414553D01*
X1477889Y413803D01*
X1478079Y413303D01*
X1478459Y412803D01*
X1478902Y412470D01*
X1479346Y412303D01*
X1479789D01*
X1480232Y412470D01*
X1480612Y412720D01*
X1480929Y413053D01*
G01X1484446Y417303D02*
Y412303D01*
G01X1482989Y417303D02*
X1485902D01*
G01X1488786D02*
X1490306D01*
G01X1489546D02*
Y412303D01*
G01X1488786D02*
X1490306D01*
G01X1494646D02*
X1494139Y412387D01*
X1493696Y412720D01*
X1493316Y413220D01*
X1493062Y413803D01*
X1492935Y414470D01*
Y415137D01*
X1493062Y415803D01*
X1493316Y416387D01*
X1493696Y416887D01*
X1494139Y417220D01*
X1494646Y417303D01*
X1495152Y417220D01*
X1495596Y416887D01*
X1495976Y416387D01*
X1496229Y415803D01*
X1496356Y415137D01*
Y414470D01*
X1496229Y413803D01*
X1495976Y413220D01*
X1495596Y412720D01*
X1495152Y412387D01*
X1494646Y412303D01*
G01X1498289D02*
Y417303D01*
X1501202Y412303D01*
Y417303D01*
G01X1503516Y412970D02*
X1504022Y412553D01*
X1504593Y412303D01*
X1505099D01*
X1505606Y412553D01*
X1505986Y412970D01*
X1506176Y413553D01*
X1506049Y414136D01*
X1505732Y414637D01*
X1505162Y414970D01*
X1504402Y415137D01*
X1503959Y415470D01*
X1503769Y416053D01*
X1503896Y416637D01*
X1504212Y417053D01*
X1504656Y417303D01*
X1505099D01*
X1505543Y417137D01*
X1505922Y416720D01*
G01X1514349Y413970D02*
X1515869D01*
G01X1515046Y415053D02*
Y412886D01*
G01X1462462Y427303D02*
X1464046Y432303D01*
X1465629Y427303D01*
G01X1465059Y429053D02*
X1463032D01*
G01X1467689Y427303D02*
Y432303D01*
X1470602Y427303D01*
Y432303D01*
G01X1474626Y429803D02*
X1475893D01*
Y428303D01*
X1475512Y427803D01*
X1475069Y427470D01*
X1474436Y427303D01*
X1473802Y427470D01*
X1473359Y427803D01*
X1472979Y428303D01*
X1472726Y428887D01*
X1472599Y429553D01*
Y430137D01*
X1472726Y430636D01*
X1472979Y431220D01*
X1473359Y431720D01*
X1473739Y432053D01*
X1474246Y432303D01*
X1474689D01*
X1475196Y432137D01*
X1475576Y431803D01*
G01X1478079Y432303D02*
Y427303D01*
X1480612D01*
G01X1485712D02*
X1483179D01*
Y432303D01*
X1485712D01*
G01X1484699Y429887D02*
X1483179D01*
G01X1488216Y427970D02*
X1488722Y427553D01*
X1489293Y427303D01*
X1489799D01*
X1490306Y427553D01*
X1490686Y427970D01*
X1490876Y428553D01*
X1490749Y429136D01*
X1490432Y429637D01*
X1489862Y429970D01*
X1489102Y430137D01*
X1488659Y430470D01*
X1488469Y431053D01*
X1488596Y431637D01*
X1488912Y432053D01*
X1489356Y432303D01*
X1489799D01*
X1490243Y432137D01*
X1490622Y431720D01*
G01X1499049Y428970D02*
X1500569D01*
G01X1499746Y430053D02*
Y427886D01*
G01X1462652Y443303D02*
X1463032Y442720D01*
X1463539Y442387D01*
X1464109Y442303D01*
X1464616Y442387D01*
X1465122Y442803D01*
X1465439Y443303D01*
X1465502Y443803D01*
X1465376Y444386D01*
X1464932Y444803D01*
X1464489Y444970D01*
X1463919D01*
G01X1464489D02*
X1464869Y445220D01*
X1465186Y445636D01*
X1465312Y446137D01*
X1465186Y446637D01*
X1464869Y447053D01*
X1464299Y447303D01*
X1463729Y447220D01*
X1463159Y446887D01*
G01X1472979Y442303D02*
Y447303D01*
X1474499D01*
X1475006Y447053D01*
X1475386Y446470D01*
X1475512Y445803D01*
X1475386Y445137D01*
X1475069Y444637D01*
X1474499Y444386D01*
X1472979D01*
G01X1478079Y447303D02*
Y442303D01*
X1480612D01*
G01X1488152D02*
Y447303D01*
X1489419D01*
X1489926Y447053D01*
X1490306Y446720D01*
X1490622Y446220D01*
X1490876Y445636D01*
X1490939Y444803D01*
X1490876Y443970D01*
X1490622Y443386D01*
X1490306Y442886D01*
X1489926Y442553D01*
X1489419Y442303D01*
X1488152D01*
G01X1495912D02*
X1493379D01*
Y447303D01*
X1495912D01*
G01X1494899Y444887D02*
X1493379D01*
G01X1501139Y446887D02*
X1500759Y447137D01*
X1500316Y447303D01*
X1499809D01*
X1499239Y447053D01*
X1498796Y446637D01*
X1498479Y446137D01*
X1498226Y445303D01*
X1498162Y444553D01*
X1498289Y443803D01*
X1498479Y443303D01*
X1498859Y442803D01*
X1499302Y442470D01*
X1499746Y442303D01*
X1500189D01*
X1500632Y442470D01*
X1501012Y442720D01*
X1501329Y443053D01*
G01X1504086Y447303D02*
X1505606D01*
G01X1504846D02*
Y442303D01*
G01X1504086D02*
X1505606D01*
G01X1508299D02*
Y447303D01*
X1509946Y443137D01*
X1511593Y447303D01*
Y442303D01*
G01X1513462D02*
X1515046Y447303D01*
X1516629Y442303D01*
G01X1516059Y444053D02*
X1514032D01*
G01X1518879Y447303D02*
Y442303D01*
X1521412D01*
G01X1523916Y442970D02*
X1524422Y442553D01*
X1524993Y442303D01*
X1525499D01*
X1526006Y442553D01*
X1526386Y442970D01*
X1526576Y443553D01*
X1526449Y444136D01*
X1526132Y444637D01*
X1525562Y444970D01*
X1524802Y445137D01*
X1524359Y445470D01*
X1524169Y446053D01*
X1524296Y446637D01*
X1524612Y447053D01*
X1525056Y447303D01*
X1525499D01*
X1525943Y447137D01*
X1526322Y446720D01*
G01X1534749Y443970D02*
X1536269D01*
G01X1535446Y445053D02*
Y442886D01*
G01X1462842Y461470D02*
X1463222Y461970D01*
X1463666Y462220D01*
X1464172Y462303D01*
X1464806Y462137D01*
X1465249Y461720D01*
X1465376Y461220D01*
X1465312Y460720D01*
X1465059Y460303D01*
X1463793Y459470D01*
X1463222Y458887D01*
X1462842Y458053D01*
X1462716Y457303D01*
X1465376D01*
G01X1472979D02*
Y462303D01*
X1474499D01*
X1475006Y462053D01*
X1475386Y461470D01*
X1475512Y460803D01*
X1475386Y460137D01*
X1475069Y459637D01*
X1474499Y459386D01*
X1472979D01*
G01X1478079Y462303D02*
Y457303D01*
X1480612D01*
G01X1488152D02*
Y462303D01*
X1489419D01*
X1489926Y462053D01*
X1490306Y461720D01*
X1490622Y461220D01*
X1490876Y460636D01*
X1490939Y459803D01*
X1490876Y458970D01*
X1490622Y458386D01*
X1490306Y457886D01*
X1489926Y457553D01*
X1489419Y457303D01*
X1488152D01*
G01X1495912D02*
X1493379D01*
Y462303D01*
X1495912D01*
G01X1494899Y459887D02*
X1493379D01*
G01X1501139Y461887D02*
X1500759Y462137D01*
X1500316Y462303D01*
X1499809D01*
X1499239Y462053D01*
X1498796Y461637D01*
X1498479Y461137D01*
X1498226Y460303D01*
X1498162Y459553D01*
X1498289Y458803D01*
X1498479Y458303D01*
X1498859Y457803D01*
X1499302Y457470D01*
X1499746Y457303D01*
X1500189D01*
X1500632Y457470D01*
X1501012Y457720D01*
X1501329Y458053D01*
G01X1504086Y462303D02*
X1505606D01*
G01X1504846D02*
Y457303D01*
G01X1504086D02*
X1505606D01*
G01X1508299D02*
Y462303D01*
X1509946Y458137D01*
X1511593Y462303D01*
Y457303D01*
G01X1513462D02*
X1515046Y462303D01*
X1516629Y457303D01*
G01X1516059Y459053D02*
X1514032D01*
G01X1518879Y462303D02*
Y457303D01*
X1521412D01*
G01X1523916Y457970D02*
X1524422Y457553D01*
X1524993Y457303D01*
X1525499D01*
X1526006Y457553D01*
X1526386Y457970D01*
X1526576Y458553D01*
X1526449Y459136D01*
X1526132Y459637D01*
X1525562Y459970D01*
X1524802Y460137D01*
X1524359Y460470D01*
X1524169Y461053D01*
X1524296Y461637D01*
X1524612Y462053D01*
X1525056Y462303D01*
X1525499D01*
X1525943Y462137D01*
X1526322Y461720D01*
G01X1534749Y458970D02*
X1536269D01*
G01X1535446Y460053D02*
Y457886D01*
G01X1464046Y477303D02*
Y472303D01*
G01X1462589Y477303D02*
X1465502D01*
G01X1469146Y472303D02*
X1468639Y472387D01*
X1468196Y472720D01*
X1467816Y473220D01*
X1467562Y473803D01*
X1467435Y474470D01*
Y475137D01*
X1467562Y475803D01*
X1467816Y476387D01*
X1468196Y476887D01*
X1468639Y477220D01*
X1469146Y477303D01*
X1469652Y477220D01*
X1470096Y476887D01*
X1470476Y476387D01*
X1470729Y475803D01*
X1470856Y475137D01*
Y474470D01*
X1470729Y473803D01*
X1470476Y473220D01*
X1470096Y472720D01*
X1469652Y472387D01*
X1469146Y472303D01*
G01X1472979Y477303D02*
Y472303D01*
X1475512D01*
G01X1480612D02*
X1478079D01*
Y477303D01*
X1480612D01*
G01X1479599Y474887D02*
X1478079D01*
G01X1483179Y472303D02*
Y477303D01*
X1484762D01*
X1485269Y477053D01*
X1485586Y476720D01*
X1485712Y476053D01*
X1485586Y475387D01*
X1485206Y474970D01*
X1484762Y474720D01*
X1483179D01*
G01X1484762D02*
X1485712Y472303D01*
G01X1487962D02*
X1489546Y477303D01*
X1491129Y472303D01*
G01X1490559Y474053D02*
X1488532D01*
G01X1493189Y472303D02*
Y477303D01*
X1496102Y472303D01*
Y477303D01*
G01X1501139Y476887D02*
X1500759Y477137D01*
X1500316Y477303D01*
X1499809D01*
X1499239Y477053D01*
X1498796Y476637D01*
X1498479Y476137D01*
X1498226Y475303D01*
X1498162Y474553D01*
X1498289Y473803D01*
X1498479Y473303D01*
X1498859Y472803D01*
X1499302Y472470D01*
X1499746Y472303D01*
X1500189D01*
X1500632Y472470D01*
X1501012Y472720D01*
X1501329Y473053D01*
G01X1506112Y472303D02*
X1503579D01*
Y477303D01*
X1506112D01*
G01X1505099Y474887D02*
X1503579D01*
G01X1508616Y472970D02*
X1509122Y472553D01*
X1509693Y472303D01*
X1510199D01*
X1510706Y472553D01*
X1511086Y472970D01*
X1511276Y473553D01*
X1511149Y474136D01*
X1510832Y474637D01*
X1510262Y474970D01*
X1509502Y475137D01*
X1509059Y475470D01*
X1508869Y476053D01*
X1508996Y476637D01*
X1509312Y477053D01*
X1509756Y477303D01*
X1510199D01*
X1510643Y477137D01*
X1511022Y476720D01*
G01X1520146Y472303D02*
X1519639Y472387D01*
X1519196Y472720D01*
X1518816Y473220D01*
X1518562Y473803D01*
X1518435Y474470D01*
Y475137D01*
X1518562Y475803D01*
X1518816Y476387D01*
X1519196Y476887D01*
X1519639Y477220D01*
X1520146Y477303D01*
X1520652Y477220D01*
X1521096Y476887D01*
X1521476Y476387D01*
X1521729Y475803D01*
X1521856Y475137D01*
Y474470D01*
X1521729Y473803D01*
X1521476Y473220D01*
X1521096Y472720D01*
X1520652Y472387D01*
X1520146Y472303D01*
G01X1523789D02*
Y477303D01*
X1526702Y472303D01*
Y477303D01*
G01X1530346Y472137D02*
X1530219Y472220D01*
Y472387D01*
X1530346Y472470D01*
X1530472Y472387D01*
Y472220D01*
X1530346Y472137D01*
G01Y474386D02*
X1530219Y474470D01*
Y474637D01*
X1530346Y474720D01*
X1530472Y474637D01*
Y474470D01*
X1530346Y474386D01*
G01X1462652Y489803D02*
Y494803D01*
X1463919D01*
X1464426Y494553D01*
X1464806Y494220D01*
X1465122Y493720D01*
X1465376Y493136D01*
X1465439Y492303D01*
X1465376Y491470D01*
X1465122Y490886D01*
X1464806Y490386D01*
X1464426Y490053D01*
X1463919Y489803D01*
X1462652D01*
G01X1468386Y494803D02*
X1469906D01*
G01X1469146D02*
Y489803D01*
G01X1468386D02*
X1469906D01*
G01X1472599D02*
Y494803D01*
X1474246Y490637D01*
X1475893Y494803D01*
Y489803D01*
G01X1480612D02*
X1478079D01*
Y494803D01*
X1480612D01*
G01X1479599Y492387D02*
X1478079D01*
G01X1482989Y489803D02*
Y494803D01*
X1485902Y489803D01*
Y494803D01*
G01X1488216Y490470D02*
X1488722Y490053D01*
X1489293Y489803D01*
X1489799D01*
X1490306Y490053D01*
X1490686Y490470D01*
X1490876Y491053D01*
X1490749Y491636D01*
X1490432Y492137D01*
X1489862Y492470D01*
X1489102Y492637D01*
X1488659Y492970D01*
X1488469Y493553D01*
X1488596Y494137D01*
X1488912Y494553D01*
X1489356Y494803D01*
X1489799D01*
X1490243Y494637D01*
X1490622Y494220D01*
G01X1493886Y494803D02*
X1495406D01*
G01X1494646D02*
Y489803D01*
G01X1493886D02*
X1495406D01*
G01X1499746D02*
X1499239Y489887D01*
X1498796Y490220D01*
X1498416Y490720D01*
X1498162Y491303D01*
X1498035Y491970D01*
Y492637D01*
X1498162Y493303D01*
X1498416Y493887D01*
X1498796Y494387D01*
X1499239Y494720D01*
X1499746Y494803D01*
X1500252Y494720D01*
X1500696Y494387D01*
X1501076Y493887D01*
X1501329Y493303D01*
X1501456Y492637D01*
Y491970D01*
X1501329Y491303D01*
X1501076Y490720D01*
X1500696Y490220D01*
X1500252Y489887D01*
X1499746Y489803D01*
G01X1503389D02*
Y494803D01*
X1506302Y489803D01*
Y494803D01*
G01X1508616Y490470D02*
X1509122Y490053D01*
X1509693Y489803D01*
X1510199D01*
X1510706Y490053D01*
X1511086Y490470D01*
X1511276Y491053D01*
X1511149Y491636D01*
X1510832Y492137D01*
X1510262Y492470D01*
X1509502Y492637D01*
X1509059Y492970D01*
X1508869Y493553D01*
X1508996Y494137D01*
X1509312Y494553D01*
X1509756Y494803D01*
X1510199D01*
X1510643Y494637D01*
X1511022Y494220D01*
G01X1518562Y489803D02*
X1520146Y494803D01*
X1521729Y489803D01*
G01X1521159Y491553D02*
X1519132D01*
G01X1523979Y489803D02*
Y494803D01*
X1525562D01*
X1526069Y494553D01*
X1526386Y494220D01*
X1526512Y493553D01*
X1526386Y492887D01*
X1526006Y492470D01*
X1525562Y492220D01*
X1523979D01*
G01X1525562D02*
X1526512Y489803D01*
G01X1531612D02*
X1529079D01*
Y494803D01*
X1531612D01*
G01X1530599Y492387D02*
X1529079D01*
G01X1539786Y494803D02*
X1541306D01*
G01X1540546D02*
Y489803D01*
G01X1539786D02*
X1541306D01*
G01X1544189D02*
Y494803D01*
X1547102Y489803D01*
Y494803D01*
G01X1555086D02*
X1556606D01*
G01X1555846D02*
Y489803D01*
G01X1555086D02*
X1556606D01*
G01X1559489D02*
Y494803D01*
X1562402Y489803D01*
Y494803D01*
G01X1567439Y494387D02*
X1567059Y494637D01*
X1566616Y494803D01*
X1566109D01*
X1565539Y494553D01*
X1565096Y494137D01*
X1564779Y493637D01*
X1564526Y492803D01*
X1564462Y492053D01*
X1564589Y491303D01*
X1564779Y490803D01*
X1565159Y490303D01*
X1565602Y489970D01*
X1566046Y489803D01*
X1566489D01*
X1566932Y489970D01*
X1567312Y490220D01*
X1567629Y490553D01*
G01X1569816Y489803D02*
Y494803D01*
G01X1572476D02*
Y489803D01*
G01Y492303D02*
X1569816D01*
G01X1577512Y489803D02*
X1574979D01*
Y494803D01*
X1577512D01*
G01X1576499Y492387D02*
X1574979D01*
G01X1580016Y490470D02*
X1580522Y490053D01*
X1581093Y489803D01*
X1581599D01*
X1582106Y490053D01*
X1582486Y490470D01*
X1582676Y491053D01*
X1582549Y491636D01*
X1582232Y492137D01*
X1581662Y492470D01*
X1580902Y492637D01*
X1580459Y492970D01*
X1580269Y493553D01*
X1580396Y494137D01*
X1580712Y494553D01*
X1581156Y494803D01*
X1581599D01*
X1582043Y494637D01*
X1582422Y494220D01*
G01X1462652Y522303D02*
Y518720D01*
X1462906Y517970D01*
X1463412Y517470D01*
X1464046Y517303D01*
X1464679Y517470D01*
X1465186Y517970D01*
X1465439Y518720D01*
Y522303D01*
G01X1467689Y517303D02*
Y522303D01*
X1470602Y517303D01*
Y522303D01*
G01X1472979D02*
Y517303D01*
X1475512D01*
G01X1480612D02*
X1478079D01*
Y522303D01*
X1480612D01*
G01X1479599Y519887D02*
X1478079D01*
G01X1483116Y517970D02*
X1483622Y517553D01*
X1484193Y517303D01*
X1484699D01*
X1485206Y517553D01*
X1485586Y517970D01*
X1485776Y518553D01*
X1485649Y519136D01*
X1485332Y519637D01*
X1484762Y519970D01*
X1484002Y520137D01*
X1483559Y520470D01*
X1483369Y521053D01*
X1483496Y521637D01*
X1483812Y522053D01*
X1484256Y522303D01*
X1484699D01*
X1485143Y522137D01*
X1485522Y521720D01*
G01X1488216Y517970D02*
X1488722Y517553D01*
X1489293Y517303D01*
X1489799D01*
X1490306Y517553D01*
X1490686Y517970D01*
X1490876Y518553D01*
X1490749Y519136D01*
X1490432Y519637D01*
X1489862Y519970D01*
X1489102Y520137D01*
X1488659Y520470D01*
X1488469Y521053D01*
X1488596Y521637D01*
X1488912Y522053D01*
X1489356Y522303D01*
X1489799D01*
X1490243Y522137D01*
X1490622Y521720D01*
G01X1499746Y517303D02*
X1499239Y517387D01*
X1498796Y517720D01*
X1498416Y518220D01*
X1498162Y518803D01*
X1498035Y519470D01*
Y520137D01*
X1498162Y520803D01*
X1498416Y521387D01*
X1498796Y521887D01*
X1499239Y522220D01*
X1499746Y522303D01*
X1500252Y522220D01*
X1500696Y521887D01*
X1501076Y521387D01*
X1501329Y520803D01*
X1501456Y520137D01*
Y519470D01*
X1501329Y518803D01*
X1501076Y518220D01*
X1500696Y517720D01*
X1500252Y517387D01*
X1499746Y517303D01*
G01X1504846Y522303D02*
Y517303D01*
G01X1503389Y522303D02*
X1506302D01*
G01X1508616Y517303D02*
Y522303D01*
G01X1511276D02*
Y517303D01*
G01Y519803D02*
X1508616D01*
G01X1516312Y517303D02*
X1513779D01*
Y522303D01*
X1516312D01*
G01X1515299Y519887D02*
X1513779D01*
G01X1518879Y517303D02*
Y522303D01*
X1520462D01*
X1520969Y522053D01*
X1521286Y521720D01*
X1521412Y521053D01*
X1521286Y520387D01*
X1520906Y519970D01*
X1520462Y519720D01*
X1518879D01*
G01X1520462D02*
X1521412Y517303D01*
G01X1523346Y522303D02*
X1524232Y517303D01*
X1525246Y522303D01*
X1526259Y517303D01*
X1527146Y522303D01*
G01X1529586D02*
X1531106D01*
G01X1530346D02*
Y517303D01*
G01X1529586D02*
X1531106D01*
G01X1534116Y517970D02*
X1534622Y517553D01*
X1535193Y517303D01*
X1535699D01*
X1536206Y517553D01*
X1536586Y517970D01*
X1536776Y518553D01*
X1536649Y519136D01*
X1536332Y519637D01*
X1535762Y519970D01*
X1535002Y520137D01*
X1534559Y520470D01*
X1534369Y521053D01*
X1534496Y521637D01*
X1534812Y522053D01*
X1535256Y522303D01*
X1535699D01*
X1536143Y522137D01*
X1536522Y521720D01*
G01X1541812Y517303D02*
X1539279D01*
Y522303D01*
X1541812D01*
G01X1540799Y519887D02*
X1539279D01*
G01X1549416Y517970D02*
X1549922Y517553D01*
X1550493Y517303D01*
X1550999D01*
X1551506Y517553D01*
X1551886Y517970D01*
X1552076Y518553D01*
X1551949Y519136D01*
X1551632Y519637D01*
X1551062Y519970D01*
X1550302Y520137D01*
X1549859Y520470D01*
X1549669Y521053D01*
X1549796Y521637D01*
X1550112Y522053D01*
X1550556Y522303D01*
X1550999D01*
X1551443Y522137D01*
X1551822Y521720D01*
G01X1554579Y517303D02*
Y522303D01*
X1556099D01*
X1556606Y522053D01*
X1556986Y521470D01*
X1557112Y520803D01*
X1556986Y520137D01*
X1556669Y519637D01*
X1556099Y519386D01*
X1554579D01*
G01X1562212Y517303D02*
X1559679D01*
Y522303D01*
X1562212D01*
G01X1561199Y519887D02*
X1559679D01*
G01X1567439Y521887D02*
X1567059Y522137D01*
X1566616Y522303D01*
X1566109D01*
X1565539Y522053D01*
X1565096Y521637D01*
X1564779Y521137D01*
X1564526Y520303D01*
X1564462Y519553D01*
X1564589Y518803D01*
X1564779Y518303D01*
X1565159Y517803D01*
X1565602Y517470D01*
X1566046Y517303D01*
X1566489D01*
X1566932Y517470D01*
X1567312Y517720D01*
X1567629Y518053D01*
G01X1570386Y522303D02*
X1571906D01*
G01X1571146D02*
Y517303D01*
G01X1570386D02*
X1571906D01*
G01X1575042D02*
Y522303D01*
X1577449D01*
G01X1576562Y519887D02*
X1575042D01*
G01X1580586Y522303D02*
X1582106D01*
G01X1581346D02*
Y517303D01*
G01X1580586D02*
X1582106D01*
G01X1587712D02*
X1585179D01*
Y522303D01*
X1587712D01*
G01X1586699Y519887D02*
X1585179D01*
G01X1590152Y517303D02*
Y522303D01*
X1591419D01*
X1591926Y522053D01*
X1592306Y521720D01*
X1592622Y521220D01*
X1592876Y520636D01*
X1592939Y519803D01*
X1592876Y518970D01*
X1592622Y518386D01*
X1592306Y517886D01*
X1591926Y517553D01*
X1591419Y517303D01*
X1590152D01*
G01X1481644Y1337444D02*
X1471644D01*
X1473644Y1335944D01*
G01X1481644D02*
Y1338944D01*
G01X1478311Y1345820D02*
Y1349069D01*
G01X1481644Y1358944D02*
X1471644D01*
X1478810Y1354319D01*
Y1360570D01*
G01X1545144Y910475D02*
X1550644Y917808D01*
G01X1547894Y919141D02*
Y909141D01*
G01X1550644Y910475D02*
X1545144Y917808D01*
G01X1544144Y914141D02*
X1551644D01*
G01X1575269Y912141D02*
X1576269Y911308D01*
X1577394Y910808D01*
X1578394D01*
X1579394Y911308D01*
X1580144Y912141D01*
X1580519Y913308D01*
X1580269Y914474D01*
X1579644Y915474D01*
X1578519Y916141D01*
X1577019Y916474D01*
X1576144Y917141D01*
X1575769Y918308D01*
X1576019Y919474D01*
X1576644Y920307D01*
X1577519Y920808D01*
X1578394D01*
X1579269Y920475D01*
X1580019Y919641D01*
G01X1585144Y920808D02*
Y913641D01*
X1585644Y912141D01*
X1586644Y911141D01*
X1587894Y910808D01*
X1589144Y911141D01*
X1590144Y912141D01*
X1590644Y913641D01*
Y920808D01*
G01X1595394Y910808D02*
Y920808D01*
X1598519D01*
X1599519Y920307D01*
X1600144Y919641D01*
X1600394Y918308D01*
X1600144Y916974D01*
X1599394Y916141D01*
X1598519Y915641D01*
X1595394D01*
G01X1598519D02*
X1600394Y910808D01*
G01X1605519D02*
Y920808D01*
X1610269D01*
G01X1608519Y915975D02*
X1605519D01*
G01X1614769Y910808D02*
X1617894Y920808D01*
X1621019Y910808D01*
G01X1619894Y914308D02*
X1615894D01*
G01X1630644Y919974D02*
X1629894Y920475D01*
X1629019Y920808D01*
X1628019D01*
X1626894Y920307D01*
X1626019Y919474D01*
X1625394Y918474D01*
X1624894Y916808D01*
X1624769Y915308D01*
X1625019Y913808D01*
X1625394Y912808D01*
X1626144Y911807D01*
X1627019Y911141D01*
X1627894Y910808D01*
X1628769D01*
X1629644Y911141D01*
X1630394Y911641D01*
X1631019Y912307D01*
G01X1640394Y910808D02*
X1635394D01*
Y920808D01*
X1640394D01*
G01X1638394Y915975D02*
X1635394D01*
G01X1525394Y934141D02*
Y924141D01*
X1530394D01*
G01X1539394D02*
Y934141D01*
X1534769Y926974D01*
X1541019D01*
G01X1558894Y929474D02*
X1559394Y929974D01*
X1559769Y930807D01*
X1560019Y931974D01*
X1559769Y932974D01*
X1559269Y933641D01*
X1558394Y934141D01*
X1555019D01*
Y924141D01*
X1559144D01*
X1560019Y924807D01*
X1560519Y925807D01*
X1560769Y926974D01*
X1560519Y928141D01*
X1559769Y929141D01*
X1558894Y929474D01*
X1555019D01*
G01X1567894Y924141D02*
X1566894Y924307D01*
X1566019Y924974D01*
X1565269Y925974D01*
X1564769Y927141D01*
X1564519Y928474D01*
Y929807D01*
X1564769Y931141D01*
X1565269Y932308D01*
X1566019Y933307D01*
X1566894Y933974D01*
X1567894Y934141D01*
X1568894Y933974D01*
X1569769Y933307D01*
X1570519Y932308D01*
X1571019Y931141D01*
X1571269Y929807D01*
Y928474D01*
X1571019Y927141D01*
X1570519Y925974D01*
X1569769Y924974D01*
X1568894Y924307D01*
X1567894Y924141D01*
G01X1577894Y934141D02*
Y924141D01*
G01X1575019Y934141D02*
X1580769D01*
G01X1587894D02*
Y924141D01*
G01X1585019Y934141D02*
X1590769D01*
G01X1597894Y924141D02*
X1596894Y924307D01*
X1596019Y924974D01*
X1595269Y925974D01*
X1594769Y927141D01*
X1594519Y928474D01*
Y929807D01*
X1594769Y931141D01*
X1595269Y932308D01*
X1596019Y933307D01*
X1596894Y933974D01*
X1597894Y934141D01*
X1598894Y933974D01*
X1599769Y933307D01*
X1600519Y932308D01*
X1601019Y931141D01*
X1601269Y929807D01*
Y928474D01*
X1601019Y927141D01*
X1600519Y925974D01*
X1599769Y924974D01*
X1598894Y924307D01*
X1597894Y924141D01*
G01X1604644D02*
Y934141D01*
X1607894Y925807D01*
X1611144Y934141D01*
Y924141D01*
G01X1630644Y933307D02*
X1629894Y933808D01*
X1629019Y934141D01*
X1628019D01*
X1626894Y933641D01*
X1626019Y932807D01*
X1625394Y931807D01*
X1624894Y930141D01*
X1624769Y928641D01*
X1625019Y927141D01*
X1625394Y926141D01*
X1626144Y925141D01*
X1627019Y924474D01*
X1627894Y924141D01*
X1628769D01*
X1629644Y924474D01*
X1630394Y924974D01*
X1631019Y925641D01*
G01X1637894Y924141D02*
X1636894Y924307D01*
X1636019Y924974D01*
X1635269Y925974D01*
X1634769Y927141D01*
X1634519Y928474D01*
Y929807D01*
X1634769Y931141D01*
X1635269Y932308D01*
X1636019Y933307D01*
X1636894Y933974D01*
X1637894Y934141D01*
X1638894Y933974D01*
X1639769Y933307D01*
X1640519Y932308D01*
X1641019Y931141D01*
X1641269Y929807D01*
Y928474D01*
X1641019Y927141D01*
X1640519Y925974D01*
X1639769Y924974D01*
X1638894Y924307D01*
X1637894Y924141D01*
G01X1645019D02*
Y934141D01*
X1650769Y924141D01*
Y934141D01*
G01X1655144Y924141D02*
Y934141D01*
X1657644D01*
X1658644Y933641D01*
X1659394Y932974D01*
X1660019Y931974D01*
X1660519Y930807D01*
X1660644Y929141D01*
X1660519Y927474D01*
X1660019Y926307D01*
X1659394Y925307D01*
X1658644Y924641D01*
X1657644Y924141D01*
X1655144D01*
G01X1665144Y934141D02*
Y926974D01*
X1665644Y925474D01*
X1666644Y924474D01*
X1667894Y924141D01*
X1669144Y924474D01*
X1670144Y925474D01*
X1670644Y926974D01*
Y934141D01*
G01X1680644Y933307D02*
X1679894Y933808D01*
X1679019Y934141D01*
X1678019D01*
X1676894Y933641D01*
X1676019Y932807D01*
X1675394Y931807D01*
X1674894Y930141D01*
X1674769Y928641D01*
X1675019Y927141D01*
X1675394Y926141D01*
X1676144Y925141D01*
X1677019Y924474D01*
X1677894Y924141D01*
X1678769D01*
X1679644Y924474D01*
X1680394Y924974D01*
X1681019Y925641D01*
G01X1687894Y934141D02*
Y924141D01*
G01X1685019Y934141D02*
X1690769D01*
G01X1697894Y924141D02*
X1696894Y924307D01*
X1696019Y924974D01*
X1695269Y925974D01*
X1694769Y927141D01*
X1694519Y928474D01*
Y929807D01*
X1694769Y931141D01*
X1695269Y932308D01*
X1696019Y933307D01*
X1696894Y933974D01*
X1697894Y934141D01*
X1698894Y933974D01*
X1699769Y933307D01*
X1700519Y932308D01*
X1701019Y931141D01*
X1701269Y929807D01*
Y928474D01*
X1701019Y927141D01*
X1700519Y925974D01*
X1699769Y924974D01*
X1698894Y924307D01*
X1697894Y924141D01*
G01X1705394D02*
Y934141D01*
X1708519D01*
X1709519Y933641D01*
X1710144Y932974D01*
X1710394Y931641D01*
X1710144Y930307D01*
X1709394Y929474D01*
X1708519Y928974D01*
X1705394D01*
G01X1708519D02*
X1710394Y924141D01*
G01X1545144Y985566D02*
X1550644Y992899D01*
G01X1547894Y994233D02*
Y984233D01*
G01X1550644Y985566D02*
X1545144Y992899D01*
G01X1544144Y989232D02*
X1551644D01*
G01X1575144Y985899D02*
Y995899D01*
X1577644D01*
X1578644Y995399D01*
X1579394Y994733D01*
X1580019Y993733D01*
X1580519Y992566D01*
X1580644Y990899D01*
X1580519Y989232D01*
X1580019Y988066D01*
X1579394Y987066D01*
X1578644Y986399D01*
X1577644Y985899D01*
X1575144D01*
G01X1586394Y995899D02*
X1589393D01*
G01X1587894D02*
Y985899D01*
G01X1586394D02*
X1589393D01*
G01X1600394D02*
X1595394D01*
Y995899D01*
X1600394D01*
G01X1598394Y991066D02*
X1595394D01*
G01X1605394Y995899D02*
Y985899D01*
X1610394D01*
G01X1620394D02*
X1615394D01*
Y995899D01*
X1620394D01*
G01X1618394Y991066D02*
X1615394D01*
G01X1630644Y995066D02*
X1629894Y995566D01*
X1629019Y995899D01*
X1628019D01*
X1626894Y995399D01*
X1626019Y994566D01*
X1625394Y993566D01*
X1624894Y991899D01*
X1624769Y990399D01*
X1625019Y988899D01*
X1625394Y987899D01*
X1626144Y986899D01*
X1627019Y986232D01*
X1627894Y985899D01*
X1628769D01*
X1629644Y986232D01*
X1630394Y986732D01*
X1631019Y987399D01*
G01X1637894Y995899D02*
Y985899D01*
G01X1635019Y995899D02*
X1640769D01*
G01X1645394Y985899D02*
Y995899D01*
X1648519D01*
X1649519Y995399D01*
X1650144Y994733D01*
X1650394Y993399D01*
X1650144Y992066D01*
X1649394Y991233D01*
X1648519Y990732D01*
X1645394D01*
G01X1648519D02*
X1650394Y985899D01*
G01X1656394Y995899D02*
X1659393D01*
G01X1657894D02*
Y985899D01*
G01X1656394D02*
X1659393D01*
G01X1670644Y995066D02*
X1669894Y995566D01*
X1669019Y995899D01*
X1668019D01*
X1666894Y995399D01*
X1666019Y994566D01*
X1665394Y993566D01*
X1664894Y991899D01*
X1664769Y990399D01*
X1665019Y988899D01*
X1665394Y987899D01*
X1666144Y986899D01*
X1667019Y986232D01*
X1667894Y985899D01*
X1668769D01*
X1669644Y986232D01*
X1670394Y986732D01*
X1671019Y987399D01*
G01X1525394Y1039259D02*
Y1029259D01*
X1530394D01*
G01X1535144Y1031259D02*
X1535894Y1030092D01*
X1536894Y1029426D01*
X1538019Y1029259D01*
X1539019Y1029426D01*
X1540019Y1030259D01*
X1540644Y1031259D01*
X1540769Y1032259D01*
X1540519Y1033426D01*
X1539644Y1034259D01*
X1538769Y1034593D01*
X1537644D01*
G01X1538769D02*
X1539519Y1035093D01*
X1540144Y1035926D01*
X1540394Y1036926D01*
X1540144Y1037926D01*
X1539519Y1038759D01*
X1538394Y1039259D01*
X1537269Y1039093D01*
X1536144Y1038426D01*
G01X1558644Y1034259D02*
X1561144D01*
Y1031259D01*
X1560394Y1030259D01*
X1559519Y1029592D01*
X1558269Y1029259D01*
X1557019Y1029592D01*
X1556144Y1030259D01*
X1555394Y1031259D01*
X1554894Y1032426D01*
X1554644Y1033759D01*
Y1034926D01*
X1554894Y1035926D01*
X1555394Y1037093D01*
X1556144Y1038093D01*
X1556894Y1038759D01*
X1557894Y1039259D01*
X1558769D01*
X1559769Y1038926D01*
X1560519Y1038259D01*
G01X1565019Y1029259D02*
Y1039259D01*
X1570769Y1029259D01*
Y1039259D01*
G01X1575144Y1029259D02*
Y1039259D01*
X1577644D01*
X1578644Y1038759D01*
X1579394Y1038093D01*
X1580019Y1037093D01*
X1580519Y1035926D01*
X1580644Y1034259D01*
X1580519Y1032592D01*
X1580019Y1031426D01*
X1579394Y1030426D01*
X1578644Y1029759D01*
X1577644Y1029259D01*
X1575144D01*
G01X1595394D02*
Y1039259D01*
X1598394D01*
X1599394Y1038759D01*
X1600144Y1037593D01*
X1600394Y1036259D01*
X1600144Y1034926D01*
X1599519Y1033926D01*
X1598394Y1033426D01*
X1595394D01*
G01X1605394Y1039259D02*
Y1029259D01*
X1610394D01*
G01X1614769D02*
X1617894Y1039259D01*
X1621019Y1029259D01*
G01X1619894Y1032759D02*
X1615894D01*
G01X1625019Y1029259D02*
Y1039259D01*
X1630769Y1029259D01*
Y1039259D01*
G01X1640394Y1029259D02*
X1635394D01*
Y1039259D01*
X1640394D01*
G01X1638394Y1034426D02*
X1635394D01*
G01X1545144Y1126117D02*
X1550644Y1133450D01*
G01X1547894Y1134784D02*
Y1124784D01*
G01X1550644Y1126117D02*
X1545144Y1133450D01*
G01X1544144Y1129783D02*
X1551644D01*
G01X1575144Y1126450D02*
Y1136450D01*
X1577644D01*
X1578644Y1135950D01*
X1579394Y1135284D01*
X1580019Y1134284D01*
X1580519Y1133117D01*
X1580644Y1131450D01*
X1580519Y1129783D01*
X1580019Y1128617D01*
X1579394Y1127617D01*
X1578644Y1126950D01*
X1577644Y1126450D01*
X1575144D01*
G01X1586394Y1136450D02*
X1589393D01*
G01X1587894D02*
Y1126450D01*
G01X1586394D02*
X1589393D01*
G01X1600394D02*
X1595394D01*
Y1136450D01*
X1600394D01*
G01X1598394Y1131617D02*
X1595394D01*
G01X1605394Y1136450D02*
Y1126450D01*
X1610394D01*
G01X1620394D02*
X1615394D01*
Y1136450D01*
X1620394D01*
G01X1618394Y1131617D02*
X1615394D01*
G01X1630644Y1135617D02*
X1629894Y1136117D01*
X1629019Y1136450D01*
X1628019D01*
X1626894Y1135950D01*
X1626019Y1135117D01*
X1625394Y1134117D01*
X1624894Y1132450D01*
X1624769Y1130950D01*
X1625019Y1129450D01*
X1625394Y1128450D01*
X1626144Y1127450D01*
X1627019Y1126783D01*
X1627894Y1126450D01*
X1628769D01*
X1629644Y1126783D01*
X1630394Y1127283D01*
X1631019Y1127950D01*
G01X1637894Y1136450D02*
Y1126450D01*
G01X1635019Y1136450D02*
X1640769D01*
G01X1645394Y1126450D02*
Y1136450D01*
X1648519D01*
X1649519Y1135950D01*
X1650144Y1135284D01*
X1650394Y1133950D01*
X1650144Y1132617D01*
X1649394Y1131784D01*
X1648519Y1131283D01*
X1645394D01*
G01X1648519D02*
X1650394Y1126450D01*
G01X1656394Y1136450D02*
X1659393D01*
G01X1657894D02*
Y1126450D01*
G01X1656394D02*
X1659393D01*
G01X1670644Y1135617D02*
X1669894Y1136117D01*
X1669019Y1136450D01*
X1668019D01*
X1666894Y1135950D01*
X1666019Y1135117D01*
X1665394Y1134117D01*
X1664894Y1132450D01*
X1664769Y1130950D01*
X1665019Y1129450D01*
X1665394Y1128450D01*
X1666144Y1127450D01*
X1667019Y1126783D01*
X1667894Y1126450D01*
X1668769D01*
X1669644Y1126783D01*
X1670394Y1127283D01*
X1671019Y1127950D01*
G01X1525394Y1215243D02*
Y1205243D01*
X1530394D01*
G01X1535519Y1213577D02*
X1536269Y1214576D01*
X1537144Y1215077D01*
X1538144Y1215243D01*
X1539394Y1214910D01*
X1540269Y1214077D01*
X1540519Y1213077D01*
X1540394Y1212076D01*
X1539894Y1211243D01*
X1537394Y1209577D01*
X1536269Y1208410D01*
X1535519Y1206743D01*
X1535269Y1205243D01*
X1540519D01*
G01X1557894Y1215243D02*
Y1205243D01*
G01X1555019Y1215243D02*
X1560769D01*
G01X1565394Y1205243D02*
Y1215243D01*
X1568519D01*
X1569519Y1214743D01*
X1570144Y1214077D01*
X1570394Y1212743D01*
X1570144Y1211410D01*
X1569394Y1210577D01*
X1568519Y1210076D01*
X1565394D01*
G01X1568519D02*
X1570394Y1205243D01*
G01X1574769D02*
X1577894Y1215243D01*
X1581019Y1205243D01*
G01X1579894Y1208743D02*
X1575894D01*
G01X1590644Y1214410D02*
X1589894Y1214910D01*
X1589019Y1215243D01*
X1588019D01*
X1586894Y1214743D01*
X1586019Y1213910D01*
X1585394Y1212910D01*
X1584894Y1211243D01*
X1584769Y1209743D01*
X1585019Y1208243D01*
X1585394Y1207243D01*
X1586144Y1206243D01*
X1587019Y1205576D01*
X1587894Y1205243D01*
X1588769D01*
X1589644Y1205576D01*
X1590394Y1206076D01*
X1591019Y1206743D01*
G01X1600394Y1205243D02*
X1595394D01*
Y1215243D01*
X1600394D01*
G01X1598394Y1210410D02*
X1595394D01*
G01X1620644Y1214410D02*
X1619894Y1214910D01*
X1619019Y1215243D01*
X1618019D01*
X1616894Y1214743D01*
X1616019Y1213910D01*
X1615394Y1212910D01*
X1614894Y1211243D01*
X1614769Y1209743D01*
X1615019Y1208243D01*
X1615394Y1207243D01*
X1616144Y1206243D01*
X1617019Y1205576D01*
X1617894Y1205243D01*
X1618769D01*
X1619644Y1205576D01*
X1620394Y1206076D01*
X1621019Y1206743D01*
G01X1627894Y1205243D02*
X1626894Y1205410D01*
X1626019Y1206076D01*
X1625269Y1207076D01*
X1624769Y1208243D01*
X1624519Y1209577D01*
Y1210910D01*
X1624769Y1212243D01*
X1625269Y1213410D01*
X1626019Y1214410D01*
X1626894Y1215077D01*
X1627894Y1215243D01*
X1628894Y1215077D01*
X1629769Y1214410D01*
X1630519Y1213410D01*
X1631019Y1212243D01*
X1631269Y1210910D01*
Y1209577D01*
X1631019Y1208243D01*
X1630519Y1207076D01*
X1629769Y1206076D01*
X1628894Y1205410D01*
X1627894Y1205243D01*
G01X1635019D02*
Y1215243D01*
X1640769Y1205243D01*
Y1215243D01*
G01X1645144Y1205243D02*
Y1215243D01*
X1647644D01*
X1648644Y1214743D01*
X1649394Y1214077D01*
X1650019Y1213077D01*
X1650519Y1211910D01*
X1650644Y1210243D01*
X1650519Y1208576D01*
X1650019Y1207410D01*
X1649394Y1206410D01*
X1648644Y1205743D01*
X1647644Y1205243D01*
X1645144D01*
G01X1655144Y1215243D02*
Y1208077D01*
X1655644Y1206576D01*
X1656644Y1205576D01*
X1657894Y1205243D01*
X1659144Y1205576D01*
X1660144Y1206576D01*
X1660644Y1208077D01*
Y1215243D01*
G01X1670644Y1214410D02*
X1669894Y1214910D01*
X1669019Y1215243D01*
X1668019D01*
X1666894Y1214743D01*
X1666019Y1213910D01*
X1665394Y1212910D01*
X1664894Y1211243D01*
X1664769Y1209743D01*
X1665019Y1208243D01*
X1665394Y1207243D01*
X1666144Y1206243D01*
X1667019Y1205576D01*
X1667894Y1205243D01*
X1668769D01*
X1669644Y1205576D01*
X1670394Y1206076D01*
X1671019Y1206743D01*
G01X1677894Y1215243D02*
Y1205243D01*
G01X1675019Y1215243D02*
X1680769D01*
G01X1687894Y1205243D02*
X1686894Y1205410D01*
X1686019Y1206076D01*
X1685269Y1207076D01*
X1684769Y1208243D01*
X1684519Y1209577D01*
Y1210910D01*
X1684769Y1212243D01*
X1685269Y1213410D01*
X1686019Y1214410D01*
X1686894Y1215077D01*
X1687894Y1215243D01*
X1688894Y1215077D01*
X1689769Y1214410D01*
X1690519Y1213410D01*
X1691019Y1212243D01*
X1691269Y1210910D01*
Y1209577D01*
X1691019Y1208243D01*
X1690519Y1207076D01*
X1689769Y1206076D01*
X1688894Y1205410D01*
X1687894Y1205243D01*
G01X1695394D02*
Y1215243D01*
X1698519D01*
X1699519Y1214743D01*
X1700144Y1214077D01*
X1700394Y1212743D01*
X1700144Y1211410D01*
X1699394Y1210577D01*
X1698519Y1210076D01*
X1695394D01*
G01X1698519D02*
X1700394Y1205243D01*
G01X1545144Y1266669D02*
X1550644Y1274002D01*
G01X1547894Y1275335D02*
Y1265335D01*
G01X1550644Y1266669D02*
X1545144Y1274002D01*
G01X1544144Y1270335D02*
X1551644D01*
G01X1575144Y1267002D02*
Y1277002D01*
X1577644D01*
X1578644Y1276501D01*
X1579394Y1275835D01*
X1580019Y1274835D01*
X1580519Y1273668D01*
X1580644Y1272002D01*
X1580519Y1270335D01*
X1580019Y1269168D01*
X1579394Y1268168D01*
X1578644Y1267502D01*
X1577644Y1267002D01*
X1575144D01*
G01X1586394Y1277002D02*
X1589393D01*
G01X1587894D02*
Y1267002D01*
G01X1586394D02*
X1589393D01*
G01X1600394D02*
X1595394D01*
Y1277002D01*
X1600394D01*
G01X1598394Y1272169D02*
X1595394D01*
G01X1605394Y1277002D02*
Y1267002D01*
X1610394D01*
G01X1620394D02*
X1615394D01*
Y1277002D01*
X1620394D01*
G01X1618394Y1272169D02*
X1615394D01*
G01X1630644Y1276168D02*
X1629894Y1276669D01*
X1629019Y1277002D01*
X1628019D01*
X1626894Y1276501D01*
X1626019Y1275668D01*
X1625394Y1274668D01*
X1624894Y1273002D01*
X1624769Y1271502D01*
X1625019Y1270002D01*
X1625394Y1269002D01*
X1626144Y1268001D01*
X1627019Y1267335D01*
X1627894Y1267002D01*
X1628769D01*
X1629644Y1267335D01*
X1630394Y1267835D01*
X1631019Y1268501D01*
G01X1637894Y1277002D02*
Y1267002D01*
G01X1635019Y1277002D02*
X1640769D01*
G01X1645394Y1267002D02*
Y1277002D01*
X1648519D01*
X1649519Y1276501D01*
X1650144Y1275835D01*
X1650394Y1274502D01*
X1650144Y1273168D01*
X1649394Y1272335D01*
X1648519Y1271835D01*
X1645394D01*
G01X1648519D02*
X1650394Y1267002D01*
G01X1656394Y1277002D02*
X1659393D01*
G01X1657894D02*
Y1267002D01*
G01X1656394D02*
X1659393D01*
G01X1670644Y1276168D02*
X1669894Y1276669D01*
X1669019Y1277002D01*
X1668019D01*
X1666894Y1276501D01*
X1666019Y1275668D01*
X1665394Y1274668D01*
X1664894Y1273002D01*
X1664769Y1271502D01*
X1665019Y1270002D01*
X1665394Y1269002D01*
X1666144Y1268001D01*
X1667019Y1267335D01*
X1667894Y1267002D01*
X1668769D01*
X1669644Y1267335D01*
X1670394Y1267835D01*
X1671019Y1268501D01*
G01X1525394Y1320361D02*
Y1310361D01*
X1530394D01*
G01X1537894D02*
Y1320361D01*
X1536394Y1318361D01*
G01Y1310361D02*
X1539393D01*
G01X1557894Y1320361D02*
Y1310361D01*
G01X1555019Y1320361D02*
X1560769D01*
G01X1567894Y1310361D02*
X1566894Y1310528D01*
X1566019Y1311194D01*
X1565269Y1312194D01*
X1564769Y1313361D01*
X1564519Y1314695D01*
Y1316028D01*
X1564769Y1317361D01*
X1565269Y1318528D01*
X1566019Y1319528D01*
X1566894Y1320195D01*
X1567894Y1320361D01*
X1568894Y1320195D01*
X1569769Y1319528D01*
X1570519Y1318528D01*
X1571019Y1317361D01*
X1571269Y1316028D01*
Y1314695D01*
X1571019Y1313361D01*
X1570519Y1312194D01*
X1569769Y1311194D01*
X1568894Y1310528D01*
X1567894Y1310361D01*
G01X1575394D02*
Y1320361D01*
X1578394D01*
X1579394Y1319861D01*
X1580144Y1318695D01*
X1580394Y1317361D01*
X1580144Y1316028D01*
X1579519Y1315028D01*
X1578394Y1314528D01*
X1575394D01*
G01X1600644Y1319528D02*
X1599894Y1320028D01*
X1599019Y1320361D01*
X1598019D01*
X1596894Y1319861D01*
X1596019Y1319028D01*
X1595394Y1318028D01*
X1594894Y1316361D01*
X1594769Y1314861D01*
X1595019Y1313361D01*
X1595394Y1312361D01*
X1596144Y1311361D01*
X1597019Y1310694D01*
X1597894Y1310361D01*
X1598769D01*
X1599644Y1310694D01*
X1600394Y1311194D01*
X1601019Y1311861D01*
G01X1607894Y1310361D02*
X1606894Y1310528D01*
X1606019Y1311194D01*
X1605269Y1312194D01*
X1604769Y1313361D01*
X1604519Y1314695D01*
Y1316028D01*
X1604769Y1317361D01*
X1605269Y1318528D01*
X1606019Y1319528D01*
X1606894Y1320195D01*
X1607894Y1320361D01*
X1608894Y1320195D01*
X1609769Y1319528D01*
X1610519Y1318528D01*
X1611019Y1317361D01*
X1611269Y1316028D01*
Y1314695D01*
X1611019Y1313361D01*
X1610519Y1312194D01*
X1609769Y1311194D01*
X1608894Y1310528D01*
X1607894Y1310361D01*
G01X1615019D02*
Y1320361D01*
X1620769Y1310361D01*
Y1320361D01*
G01X1625144Y1310361D02*
Y1320361D01*
X1627644D01*
X1628644Y1319861D01*
X1629394Y1319195D01*
X1630019Y1318195D01*
X1630519Y1317028D01*
X1630644Y1315361D01*
X1630519Y1313694D01*
X1630019Y1312528D01*
X1629394Y1311528D01*
X1628644Y1310861D01*
X1627644Y1310361D01*
X1625144D01*
G01X1635144Y1320361D02*
Y1313195D01*
X1635644Y1311694D01*
X1636644Y1310694D01*
X1637894Y1310361D01*
X1639144Y1310694D01*
X1640144Y1311694D01*
X1640644Y1313195D01*
Y1320361D01*
G01X1650644Y1319528D02*
X1649894Y1320028D01*
X1649019Y1320361D01*
X1648019D01*
X1646894Y1319861D01*
X1646019Y1319028D01*
X1645394Y1318028D01*
X1644894Y1316361D01*
X1644769Y1314861D01*
X1645019Y1313361D01*
X1645394Y1312361D01*
X1646144Y1311361D01*
X1647019Y1310694D01*
X1647894Y1310361D01*
X1648769D01*
X1649644Y1310694D01*
X1650394Y1311194D01*
X1651019Y1311861D01*
G01X1657894Y1320361D02*
Y1310361D01*
G01X1655019Y1320361D02*
X1660769D01*
G01X1667894Y1310361D02*
X1666894Y1310528D01*
X1666019Y1311194D01*
X1665269Y1312194D01*
X1664769Y1313361D01*
X1664519Y1314695D01*
Y1316028D01*
X1664769Y1317361D01*
X1665269Y1318528D01*
X1666019Y1319528D01*
X1666894Y1320195D01*
X1667894Y1320361D01*
X1668894Y1320195D01*
X1669769Y1319528D01*
X1670519Y1318528D01*
X1671019Y1317361D01*
X1671269Y1316028D01*
Y1314695D01*
X1671019Y1313361D01*
X1670519Y1312194D01*
X1669769Y1311194D01*
X1668894Y1310528D01*
X1667894Y1310361D01*
G01X1675394D02*
Y1320361D01*
X1678519D01*
X1679519Y1319861D01*
X1680144Y1319195D01*
X1680394Y1317861D01*
X1680144Y1316528D01*
X1679394Y1315695D01*
X1678519Y1315194D01*
X1675394D01*
G01X1678519D02*
X1680394Y1310361D01*
G01X1545144Y1326694D02*
X1550644Y1334028D01*
G01X1547894Y1335361D02*
Y1325361D01*
G01X1550644Y1326694D02*
X1545144Y1334028D01*
G01X1544144Y1330361D02*
X1551644D01*
G01X1575269Y1328361D02*
X1576269Y1327528D01*
X1577394Y1327028D01*
X1578394D01*
X1579394Y1327528D01*
X1580144Y1328361D01*
X1580519Y1329528D01*
X1580269Y1330694D01*
X1579644Y1331694D01*
X1578519Y1332361D01*
X1577019Y1332694D01*
X1576144Y1333361D01*
X1575769Y1334528D01*
X1576019Y1335694D01*
X1576644Y1336527D01*
X1577519Y1337028D01*
X1578394D01*
X1579269Y1336694D01*
X1580019Y1335861D01*
G01X1585144Y1337028D02*
Y1329861D01*
X1585644Y1328361D01*
X1586644Y1327361D01*
X1587894Y1327028D01*
X1589144Y1327361D01*
X1590144Y1328361D01*
X1590644Y1329861D01*
Y1337028D01*
G01X1595394Y1327028D02*
Y1337028D01*
X1598519D01*
X1599519Y1336527D01*
X1600144Y1335861D01*
X1600394Y1334528D01*
X1600144Y1333194D01*
X1599394Y1332361D01*
X1598519Y1331861D01*
X1595394D01*
G01X1598519D02*
X1600394Y1327028D01*
G01X1605519D02*
Y1337028D01*
X1610269D01*
G01X1608519Y1332194D02*
X1605519D01*
G01X1614769Y1327028D02*
X1617894Y1337028D01*
X1621019Y1327028D01*
G01X1619894Y1330528D02*
X1615894D01*
G01X1630644Y1336194D02*
X1629894Y1336694D01*
X1629019Y1337028D01*
X1628019D01*
X1626894Y1336527D01*
X1626019Y1335694D01*
X1625394Y1334694D01*
X1624894Y1333028D01*
X1624769Y1331528D01*
X1625019Y1330028D01*
X1625394Y1329028D01*
X1626144Y1328027D01*
X1627019Y1327361D01*
X1627894Y1327028D01*
X1628769D01*
X1629644Y1327361D01*
X1630394Y1327861D01*
X1631019Y1328527D01*
G01X1640394Y1327028D02*
X1635394D01*
Y1337028D01*
X1640394D01*
G01X1638394Y1332194D02*
X1635394D01*
G01X1604646Y534803D02*
Y354803D01*
G01Y389803D02*
X1814646D01*
G01X1604646Y414803D02*
X1814646D01*
G01X1604646Y444803D02*
X1814646D01*
G01X1604646Y474803D02*
X1814646D01*
G01X1647851Y518143D02*
X1648477Y517618D01*
X1649182Y517303D01*
X1649809D01*
X1650436Y517618D01*
X1650906Y518143D01*
X1651141Y518878D01*
X1650984Y519613D01*
X1650592Y520243D01*
X1649887Y520663D01*
X1648947Y520873D01*
X1648399Y521293D01*
X1648164Y522028D01*
X1648321Y522763D01*
X1648712Y523288D01*
X1649261Y523603D01*
X1649809D01*
X1650357Y523393D01*
X1650828Y522868D01*
G01X1654856Y523603D02*
X1656735D01*
G01X1655796D02*
Y517303D01*
G01X1654856D02*
X1656735D01*
G01X1662566Y520453D02*
X1664132D01*
Y518563D01*
X1663662Y517933D01*
X1663114Y517513D01*
X1662331Y517303D01*
X1661547Y517513D01*
X1660999Y517933D01*
X1660529Y518563D01*
X1660216Y519298D01*
X1660059Y520138D01*
Y520873D01*
X1660216Y521503D01*
X1660529Y522238D01*
X1660999Y522868D01*
X1661469Y523288D01*
X1662096Y523603D01*
X1662644D01*
X1663270Y523393D01*
X1663741Y522973D01*
G01X1666594Y517303D02*
Y523603D01*
X1670197Y517303D01*
Y523603D01*
G01X1672737Y517303D02*
X1674696Y523603D01*
X1676654Y517303D01*
G01X1675949Y519508D02*
X1673442D01*
G01X1680996Y523603D02*
Y517303D01*
G01X1679194Y523603D02*
X1682797D01*
G01X1685572D02*
Y519088D01*
X1685885Y518143D01*
X1686512Y517513D01*
X1687296Y517303D01*
X1688079Y517513D01*
X1688706Y518143D01*
X1689019Y519088D01*
Y523603D01*
G01X1692029Y517303D02*
Y523603D01*
X1693987D01*
X1694614Y523288D01*
X1695006Y522868D01*
X1695162Y522028D01*
X1695006Y521188D01*
X1694536Y520663D01*
X1693987Y520348D01*
X1692029D01*
G01X1693987D02*
X1695162Y517303D01*
G01X1701462D02*
X1698329D01*
Y523603D01*
X1701462D01*
G01X1700209Y520558D02*
X1698329D01*
G01X1704551Y518143D02*
X1705177Y517618D01*
X1705882Y517303D01*
X1706509D01*
X1707136Y517618D01*
X1707606Y518143D01*
X1707841Y518878D01*
X1707684Y519613D01*
X1707292Y520243D01*
X1706587Y520663D01*
X1705647Y520873D01*
X1705099Y521293D01*
X1704864Y522028D01*
X1705021Y522763D01*
X1705412Y523288D01*
X1705961Y523603D01*
X1706509D01*
X1707057Y523393D01*
X1707528Y522868D01*
G01X1734646Y417303D02*
Y414803D01*
G01Y417303D02*
Y534803D01*
G01Y1304803D02*
Y1274803D01*
G01Y1394803D02*
Y1304803D01*
G01Y1334803D02*
X2234646D01*
G01X1734646Y1364803D02*
X2234646D01*
G01X1740896Y1344803D02*
Y1354803D01*
X1744020D01*
X1745020Y1354303D01*
X1745646Y1353637D01*
X1745896Y1352303D01*
X1745646Y1350970D01*
X1744896Y1350137D01*
X1744020Y1349636D01*
X1740896D01*
G01X1744020D02*
X1745896Y1344803D01*
G01X1755896D02*
X1750896D01*
Y1354803D01*
X1755896D01*
G01X1753896Y1349970D02*
X1750896D01*
G01X1760270Y1354803D02*
X1763396Y1344803D01*
X1766521Y1354803D01*
G01X1760272Y517303D02*
Y523603D01*
X1761839D01*
X1762466Y523288D01*
X1762936Y522868D01*
X1763328Y522238D01*
X1763641Y521503D01*
X1763719Y520453D01*
X1763641Y519403D01*
X1763328Y518668D01*
X1762936Y518038D01*
X1762466Y517618D01*
X1761839Y517303D01*
X1760272D01*
G01X1766337D02*
X1768296Y523603D01*
X1770254Y517303D01*
G01X1769549Y519508D02*
X1767042D01*
G01X1774596Y523603D02*
Y517303D01*
G01X1772794Y523603D02*
X1776397D01*
G01X1782462Y517303D02*
X1779329D01*
Y523603D01*
X1782462D01*
G01X1781209Y520558D02*
X1779329D01*
G01X1774646Y1304803D02*
Y1274803D01*
G01Y1304803D02*
Y1364803D01*
G01X1814646Y534803D02*
Y354803D01*
G01X2064646Y384803D02*
X1814646D01*
G01X2234646Y424803D02*
X1814646D01*
G01X2234646Y484803D02*
X1814646D01*
G01X1820770Y371136D02*
X1821771Y370303D01*
X1822896Y369803D01*
X1823896D01*
X1824896Y370303D01*
X1825646Y371136D01*
X1826021Y372303D01*
X1825771Y373470D01*
X1825146Y374470D01*
X1824020Y375137D01*
X1822521Y375470D01*
X1821646Y376136D01*
X1821270Y377303D01*
X1821521Y378470D01*
X1822146Y379303D01*
X1823020Y379803D01*
X1823896D01*
X1824771Y379470D01*
X1825521Y378637D01*
G01X1836146Y378970D02*
X1835396Y379470D01*
X1834521Y379803D01*
X1833521D01*
X1832396Y379303D01*
X1831521Y378470D01*
X1830896Y377470D01*
X1830396Y375803D01*
X1830270Y374303D01*
X1830521Y372803D01*
X1830896Y371803D01*
X1831646Y370803D01*
X1832521Y370136D01*
X1833396Y369803D01*
X1834270D01*
X1835146Y370136D01*
X1835896Y370636D01*
X1836521Y371303D01*
G01X1840270Y369803D02*
X1843396Y379803D01*
X1846521Y369803D01*
G01X1845396Y373303D02*
X1841396D01*
G01X1850896Y379803D02*
Y369803D01*
X1855896D01*
G01X1865896D02*
X1860896D01*
Y379803D01*
X1865896D01*
G01X1863896Y374970D02*
X1860896D01*
G01X1820770Y411136D02*
X1821771Y410303D01*
X1822896Y409803D01*
X1823896D01*
X1824896Y410303D01*
X1825646Y411136D01*
X1826021Y412303D01*
X1825771Y413470D01*
X1825146Y414470D01*
X1824020Y415137D01*
X1822521Y415470D01*
X1821646Y416136D01*
X1821270Y417303D01*
X1821521Y418470D01*
X1822146Y419303D01*
X1823020Y419803D01*
X1823896D01*
X1824771Y419470D01*
X1825521Y418637D01*
G01X1831896Y419803D02*
X1834895D01*
G01X1833396D02*
Y409803D01*
G01X1831896D02*
X1834895D01*
G01X1841020Y419803D02*
X1845771D01*
X1841020Y409803D01*
X1845771D01*
G01X1855896D02*
X1850896D01*
Y419803D01*
X1855896D01*
G01X1853896Y414970D02*
X1850896D01*
G01X1845646Y1344803D02*
Y1354803D01*
X1848146D01*
X1849146Y1354303D01*
X1849896Y1353637D01*
X1850521Y1352637D01*
X1851021Y1351470D01*
X1851146Y1349803D01*
X1851021Y1348136D01*
X1850521Y1346970D01*
X1849896Y1345970D01*
X1849146Y1345303D01*
X1848146Y1344803D01*
X1845646D01*
G01X1860896D02*
X1855896D01*
Y1354803D01*
X1860896D01*
G01X1858896Y1349970D02*
X1855896D01*
G01X1865770Y1346136D02*
X1866771Y1345303D01*
X1867896Y1344803D01*
X1868896D01*
X1869896Y1345303D01*
X1870646Y1346136D01*
X1871021Y1347303D01*
X1870771Y1348470D01*
X1870146Y1349470D01*
X1869020Y1350137D01*
X1867521Y1350470D01*
X1866646Y1351136D01*
X1866270Y1352303D01*
X1866521Y1353470D01*
X1867146Y1354303D01*
X1868020Y1354803D01*
X1868896D01*
X1869771Y1354470D01*
X1870521Y1353637D01*
G01X1881146Y1353970D02*
X1880396Y1354470D01*
X1879521Y1354803D01*
X1878521D01*
X1877396Y1354303D01*
X1876521Y1353470D01*
X1875896Y1352470D01*
X1875396Y1350803D01*
X1875270Y1349303D01*
X1875521Y1347803D01*
X1875896Y1346803D01*
X1876646Y1345803D01*
X1877521Y1345136D01*
X1878396Y1344803D01*
X1879270D01*
X1880146Y1345136D01*
X1880896Y1345636D01*
X1881521Y1346303D01*
G01X1885896Y1344803D02*
Y1354803D01*
X1889020D01*
X1890020Y1354303D01*
X1890646Y1353637D01*
X1890896Y1352303D01*
X1890646Y1350970D01*
X1889896Y1350137D01*
X1889020Y1349636D01*
X1885896D01*
G01X1889020D02*
X1890896Y1344803D01*
G01X1896896Y1354803D02*
X1899895D01*
G01X1898396D02*
Y1344803D01*
G01X1896896D02*
X1899895D01*
G01X1905896D02*
Y1354803D01*
X1908896D01*
X1909896Y1354303D01*
X1910646Y1353137D01*
X1910896Y1351803D01*
X1910646Y1350470D01*
X1910020Y1349470D01*
X1908896Y1348970D01*
X1905896D01*
G01X1918396Y1354803D02*
Y1344803D01*
G01X1915521Y1354803D02*
X1921270D01*
G01X1926896D02*
X1929895D01*
G01X1928396D02*
Y1344803D01*
G01X1926896D02*
X1929895D01*
G01X1938396D02*
X1937396Y1344970D01*
X1936521Y1345636D01*
X1935770Y1346636D01*
X1935270Y1347803D01*
X1935020Y1349137D01*
Y1350470D01*
X1935270Y1351803D01*
X1935770Y1352970D01*
X1936521Y1353970D01*
X1937396Y1354637D01*
X1938396Y1354803D01*
X1939396Y1354637D01*
X1940270Y1353970D01*
X1941021Y1352970D01*
X1941521Y1351803D01*
X1941771Y1350470D01*
Y1349137D01*
X1941521Y1347803D01*
X1941021Y1346636D01*
X1940270Y1345636D01*
X1939396Y1344970D01*
X1938396Y1344803D01*
G01X1945521D02*
Y1354803D01*
X1951270Y1344803D01*
Y1354803D01*
G01X1864646Y384803D02*
Y424803D01*
G01X1876020Y409803D02*
Y419803D01*
X1880771D01*
G01X1879020Y414970D02*
X1876020D01*
G01X1885770Y411136D02*
X1886771Y410303D01*
X1887896Y409803D01*
X1888896D01*
X1889896Y410303D01*
X1890646Y411136D01*
X1891021Y412303D01*
X1890771Y413470D01*
X1890146Y414470D01*
X1889020Y415137D01*
X1887521Y415470D01*
X1886646Y416136D01*
X1886270Y417303D01*
X1886521Y418470D01*
X1887146Y419303D01*
X1888020Y419803D01*
X1888896D01*
X1889771Y419470D01*
X1890521Y418637D01*
G01X1901146Y418970D02*
X1900396Y419470D01*
X1899521Y419803D01*
X1898521D01*
X1897396Y419303D01*
X1896521Y418470D01*
X1895896Y417470D01*
X1895396Y415803D01*
X1895270Y414303D01*
X1895521Y412803D01*
X1895896Y411803D01*
X1896646Y410803D01*
X1897521Y410136D01*
X1898396Y409803D01*
X1899270D01*
X1900146Y410136D01*
X1900896Y410636D01*
X1901521Y411303D01*
G01X1905146Y409803D02*
Y419803D01*
X1908396Y411470D01*
X1911646Y419803D01*
Y409803D01*
G01X1925521D02*
Y419803D01*
X1931270Y409803D01*
Y419803D01*
G01X1938396Y409803D02*
X1937396Y409970D01*
X1936521Y410636D01*
X1935770Y411636D01*
X1935270Y412803D01*
X1935020Y414137D01*
Y415470D01*
X1935270Y416803D01*
X1935770Y417970D01*
X1936521Y418970D01*
X1937396Y419637D01*
X1938396Y419803D01*
X1939396Y419637D01*
X1940270Y418970D01*
X1941021Y417970D01*
X1941521Y416803D01*
X1941771Y415470D01*
Y414137D01*
X1941521Y412803D01*
X1941021Y411636D01*
X1940270Y410636D01*
X1939396Y409970D01*
X1938396Y409803D01*
G01X1885521Y504803D02*
Y514803D01*
X1891270Y504803D01*
Y514803D01*
G01X1898396Y504803D02*
Y509303D01*
X1895896Y514803D01*
G01X1900896D02*
X1898396Y509303D01*
G01X1905646Y514803D02*
Y507637D01*
X1906146Y506136D01*
X1907146Y505136D01*
X1908396Y504803D01*
X1909646Y505136D01*
X1910646Y506136D01*
X1911146Y507637D01*
Y514803D01*
G01X1925521Y504803D02*
Y514803D01*
X1931270Y504803D01*
Y514803D01*
G01X1935270Y504803D02*
X1938396Y514803D01*
X1941521Y504803D01*
G01X1940396Y508303D02*
X1936396D01*
G01X1945521Y504803D02*
Y514803D01*
X1951270Y504803D01*
Y514803D01*
G01X1958396Y504803D02*
X1957396Y504970D01*
X1956521Y505636D01*
X1955770Y506636D01*
X1955270Y507803D01*
X1955020Y509137D01*
Y510470D01*
X1955270Y511803D01*
X1955770Y512970D01*
X1956521Y513970D01*
X1957396Y514637D01*
X1958396Y514803D01*
X1959396Y514637D01*
X1960270Y513970D01*
X1961021Y512970D01*
X1961521Y511803D01*
X1961771Y510470D01*
Y509137D01*
X1961521Y507803D01*
X1961021Y506636D01*
X1960270Y505636D01*
X1959396Y504970D01*
X1958396Y504803D01*
G01X1970896D02*
X1965896D01*
Y514803D01*
X1970896D01*
G01X1968896Y509970D02*
X1965896D01*
G01X1975896Y514803D02*
Y504803D01*
X1980896D01*
G01X1990896D02*
X1985896D01*
Y514803D01*
X1990896D01*
G01X1988896Y509970D02*
X1985896D01*
G01X2001146Y513970D02*
X2000396Y514470D01*
X1999521Y514803D01*
X1998521D01*
X1997396Y514303D01*
X1996521Y513470D01*
X1995896Y512470D01*
X1995396Y510803D01*
X1995270Y509303D01*
X1995521Y507803D01*
X1995896Y506803D01*
X1996646Y505803D01*
X1997521Y505136D01*
X1998396Y504803D01*
X1999270D01*
X2000146Y505136D01*
X2000896Y505636D01*
X2001521Y506303D01*
G01X2008396Y514803D02*
Y504803D01*
G01X2005521Y514803D02*
X2011270D01*
G01X2015896Y504803D02*
Y514803D01*
X2019020D01*
X2020020Y514303D01*
X2020646Y513637D01*
X2020896Y512303D01*
X2020646Y510970D01*
X2019896Y510137D01*
X2019020Y509636D01*
X2015896D01*
G01X2019020D02*
X2020896Y504803D01*
G01X2028396D02*
X2027396Y504970D01*
X2026521Y505636D01*
X2025770Y506636D01*
X2025270Y507803D01*
X2025020Y509137D01*
Y510470D01*
X2025270Y511803D01*
X2025770Y512970D01*
X2026521Y513970D01*
X2027396Y514637D01*
X2028396Y514803D01*
X2029396Y514637D01*
X2030270Y513970D01*
X2031021Y512970D01*
X2031521Y511803D01*
X2031771Y510470D01*
Y509137D01*
X2031521Y507803D01*
X2031021Y506636D01*
X2030270Y505636D01*
X2029396Y504970D01*
X2028396Y504803D01*
G01X2035521D02*
Y514803D01*
X2041270Y504803D01*
Y514803D01*
G01X2046896D02*
X2049895D01*
G01X2048396D02*
Y504803D01*
G01X2046896D02*
X2049895D01*
G01X2061146Y513970D02*
X2060396Y514470D01*
X2059521Y514803D01*
X2058521D01*
X2057396Y514303D01*
X2056521Y513470D01*
X2055896Y512470D01*
X2055396Y510803D01*
X2055270Y509303D01*
X2055521Y507803D01*
X2055896Y506803D01*
X2056646Y505803D01*
X2057521Y505136D01*
X2058396Y504803D01*
X2059270D01*
X2060146Y505136D01*
X2060896Y505636D01*
X2061521Y506303D01*
G01X2065770Y506136D02*
X2066771Y505303D01*
X2067896Y504803D01*
X2068896D01*
X2069896Y505303D01*
X2070646Y506136D01*
X2071021Y507303D01*
X2070771Y508470D01*
X2070146Y509470D01*
X2069020Y510137D01*
X2067521Y510470D01*
X2066646Y511136D01*
X2066270Y512303D01*
X2066521Y513470D01*
X2067146Y514303D01*
X2068020Y514803D01*
X2068896D01*
X2069771Y514470D01*
X2070521Y513637D01*
G01X2085896Y514803D02*
Y504803D01*
X2090896D01*
G01X2095270D02*
X2098396Y514803D01*
X2101521Y504803D01*
G01X2100396Y508303D02*
X2096396D01*
G01X2109396Y510137D02*
X2109896Y510637D01*
X2110270Y511470D01*
X2110521Y512637D01*
X2110270Y513637D01*
X2109771Y514303D01*
X2108896Y514803D01*
X2105521D01*
Y504803D01*
X2109646D01*
X2110521Y505470D01*
X2111021Y506470D01*
X2111270Y507637D01*
X2111021Y508803D01*
X2110270Y509803D01*
X2109396Y510137D01*
X2105521D01*
G01X2118396Y504803D02*
X2117396Y504970D01*
X2116521Y505636D01*
X2115770Y506636D01*
X2115270Y507803D01*
X2115020Y509137D01*
Y510470D01*
X2115270Y511803D01*
X2115770Y512970D01*
X2116521Y513970D01*
X2117396Y514637D01*
X2118396Y514803D01*
X2119396Y514637D01*
X2120270Y513970D01*
X2121021Y512970D01*
X2121521Y511803D01*
X2121771Y510470D01*
Y509137D01*
X2121521Y507803D01*
X2121021Y506636D01*
X2120270Y505636D01*
X2119396Y504970D01*
X2118396Y504803D01*
G01X2125896D02*
Y514803D01*
X2129020D01*
X2130020Y514303D01*
X2130646Y513637D01*
X2130896Y512303D01*
X2130646Y510970D01*
X2129896Y510137D01*
X2129020Y509636D01*
X2125896D01*
G01X2129020D02*
X2130896Y504803D01*
G01X2135270D02*
X2138396Y514803D01*
X2141521Y504803D01*
G01X2140396Y508303D02*
X2136396D01*
G01X2148396Y514803D02*
Y504803D01*
G01X2145521Y514803D02*
X2151270D01*
G01X2158396Y504803D02*
X2157396Y504970D01*
X2156521Y505636D01*
X2155770Y506636D01*
X2155270Y507803D01*
X2155020Y509137D01*
Y510470D01*
X2155270Y511803D01*
X2155770Y512970D01*
X2156521Y513970D01*
X2157396Y514637D01*
X2158396Y514803D01*
X2159396Y514637D01*
X2160270Y513970D01*
X2161021Y512970D01*
X2161521Y511803D01*
X2161771Y510470D01*
Y509137D01*
X2161521Y507803D01*
X2161021Y506636D01*
X2160270Y505636D01*
X2159396Y504970D01*
X2158396Y504803D01*
G01X2165896D02*
Y514803D01*
X2169020D01*
X2170020Y514303D01*
X2170646Y513637D01*
X2170896Y512303D01*
X2170646Y510970D01*
X2169896Y510137D01*
X2169020Y509636D01*
X2165896D01*
G01X2169020D02*
X2170896Y504803D01*
G01X2178396D02*
Y509303D01*
X2175896Y514803D01*
G01X2180896D02*
X2178396Y509303D01*
G01X1904646Y384803D02*
Y354803D01*
G01X1950896Y1374803D02*
Y1384803D01*
X1954020D01*
X1955020Y1384303D01*
X1955646Y1383637D01*
X1955896Y1382303D01*
X1955646Y1380970D01*
X1954896Y1380137D01*
X1954020Y1379636D01*
X1950896D01*
G01X1954020D02*
X1955896Y1374803D01*
G01X1965896D02*
X1960896D01*
Y1384803D01*
X1965896D01*
G01X1963896Y1379970D02*
X1960896D01*
G01X1970270Y1384803D02*
X1973396Y1374803D01*
X1976521Y1384803D01*
G01X1981896D02*
X1984895D01*
G01X1983396D02*
Y1374803D01*
G01X1981896D02*
X1984895D01*
G01X1990770Y1376136D02*
X1991771Y1375303D01*
X1992896Y1374803D01*
X1993896D01*
X1994896Y1375303D01*
X1995646Y1376136D01*
X1996021Y1377303D01*
X1995771Y1378470D01*
X1995146Y1379470D01*
X1994020Y1380137D01*
X1992521Y1380470D01*
X1991646Y1381136D01*
X1991270Y1382303D01*
X1991521Y1383470D01*
X1992146Y1384303D01*
X1993020Y1384803D01*
X1993896D01*
X1994771Y1384470D01*
X1995521Y1383637D01*
G01X2001896Y1384803D02*
X2004895D01*
G01X2003396D02*
Y1374803D01*
G01X2001896D02*
X2004895D01*
G01X2013396D02*
X2012396Y1374970D01*
X2011521Y1375636D01*
X2010770Y1376636D01*
X2010270Y1377803D01*
X2010020Y1379137D01*
Y1380470D01*
X2010270Y1381803D01*
X2010770Y1382970D01*
X2011521Y1383970D01*
X2012396Y1384637D01*
X2013396Y1384803D01*
X2014396Y1384637D01*
X2015270Y1383970D01*
X2016021Y1382970D01*
X2016521Y1381803D01*
X2016771Y1380470D01*
Y1379137D01*
X2016521Y1377803D01*
X2016021Y1376636D01*
X2015270Y1375636D01*
X2014396Y1374970D01*
X2013396Y1374803D01*
G01X2020521D02*
Y1384803D01*
X2026270Y1374803D01*
Y1384803D01*
G01X2030770Y1376136D02*
X2031771Y1375303D01*
X2032896Y1374803D01*
X2033896D01*
X2034896Y1375303D01*
X2035646Y1376136D01*
X2036021Y1377303D01*
X2035771Y1378470D01*
X2035146Y1379470D01*
X2034020Y1380137D01*
X2032521Y1380470D01*
X2031646Y1381136D01*
X2031270Y1382303D01*
X2031521Y1383470D01*
X2032146Y1384303D01*
X2033020Y1384803D01*
X2033896D01*
X2034771Y1384470D01*
X2035521Y1383637D01*
G01X1967910Y450787D02*
Y460787D01*
X1972661D01*
G01X1970910Y455954D02*
X1967910D01*
G01X1977660Y452120D02*
X1978661Y451287D01*
X1979785Y450787D01*
X1980785D01*
X1981785Y451287D01*
X1982535Y452120D01*
X1982911Y453287D01*
X1982661Y454454D01*
X1982035Y455454D01*
X1980910Y456121D01*
X1979411Y456454D01*
X1978535Y457120D01*
X1978160Y458287D01*
X1978411Y459454D01*
X1979035Y460287D01*
X1979910Y460787D01*
X1980785D01*
X1981661Y460454D01*
X1982411Y459621D01*
G01X1993035Y459954D02*
X1992285Y460454D01*
X1991411Y460787D01*
X1990411D01*
X1989285Y460287D01*
X1988411Y459454D01*
X1987785Y458454D01*
X1987285Y456787D01*
X1987160Y455287D01*
X1987411Y453787D01*
X1987785Y452787D01*
X1988535Y451787D01*
X1989411Y451120D01*
X1990285Y450787D01*
X1991160D01*
X1992035Y451120D01*
X1992785Y451620D01*
X1993411Y452287D01*
G01X1997160Y460787D02*
X2000285Y450787D01*
X2003411Y460787D01*
G01X2021285Y456121D02*
X2021785Y456621D01*
X2022160Y457454D01*
X2022411Y458621D01*
X2022160Y459621D01*
X2021661Y460287D01*
X2020785Y460787D01*
X2017411D01*
Y450787D01*
X2021535D01*
X2022411Y451454D01*
X2022911Y452454D01*
X2023160Y453621D01*
X2022911Y454787D01*
X2022160Y455787D01*
X2021285Y456121D01*
X2017411D01*
G01X2030285Y450787D02*
X2029285Y450954D01*
X2028411Y451620D01*
X2027660Y452620D01*
X2027160Y453787D01*
X2026910Y455121D01*
Y456454D01*
X2027160Y457787D01*
X2027660Y458954D01*
X2028411Y459954D01*
X2029285Y460621D01*
X2030285Y460787D01*
X2031285Y460621D01*
X2032160Y459954D01*
X2032911Y458954D01*
X2033411Y457787D01*
X2033661Y456454D01*
Y455121D01*
X2033411Y453787D01*
X2032911Y452620D01*
X2032160Y451620D01*
X2031285Y450954D01*
X2030285Y450787D01*
G01X2037160D02*
X2040285Y460787D01*
X2043411Y450787D01*
G01X2042285Y454287D02*
X2038285D01*
G01X2047785Y450787D02*
Y460787D01*
X2050910D01*
X2051910Y460287D01*
X2052535Y459621D01*
X2052785Y458287D01*
X2052535Y456954D01*
X2051785Y456121D01*
X2050910Y455620D01*
X2047785D01*
G01X2050910D02*
X2052785Y450787D01*
G01X2057535D02*
Y460787D01*
X2060035D01*
X2061035Y460287D01*
X2061785Y459621D01*
X2062411Y458621D01*
X2062911Y457454D01*
X2063035Y455787D01*
X2062911Y454120D01*
X2062411Y452954D01*
X2061785Y451954D01*
X2061035Y451287D01*
X2060035Y450787D01*
X2057535D01*
G01X1984646Y384803D02*
Y424803D01*
G01X1995646Y409803D02*
Y419803D01*
X1998146D01*
X1999146Y419303D01*
X1999896Y418637D01*
X2000521Y417637D01*
X2001021Y416470D01*
X2001146Y414803D01*
X2001021Y413136D01*
X2000521Y411970D01*
X1999896Y410970D01*
X1999146Y410303D01*
X1998146Y409803D01*
X1995646D01*
G01X2004646Y419803D02*
X2006396Y409803D01*
X2008396Y419803D01*
X2010396Y409803D01*
X2012146Y419803D01*
G01X2019146Y414803D02*
X2021646D01*
Y411803D01*
X2020896Y410803D01*
X2020020Y410136D01*
X2018771Y409803D01*
X2017521Y410136D01*
X2016646Y410803D01*
X2015896Y411803D01*
X2015396Y412970D01*
X2015146Y414303D01*
Y415470D01*
X2015396Y416470D01*
X2015896Y417637D01*
X2016646Y418637D01*
X2017396Y419303D01*
X2018396Y419803D01*
X2019270D01*
X2020270Y419470D01*
X2021021Y418803D01*
G01X2035521Y409803D02*
Y419803D01*
X2041270Y409803D01*
Y419803D01*
G01X2048396Y409803D02*
X2047396Y409970D01*
X2046521Y410636D01*
X2045770Y411636D01*
X2045270Y412803D01*
X2045020Y414137D01*
Y415470D01*
X2045270Y416803D01*
X2045770Y417970D01*
X2046521Y418970D01*
X2047396Y419637D01*
X2048396Y419803D01*
X2049396Y419637D01*
X2050270Y418970D01*
X2051021Y417970D01*
X2051521Y416803D01*
X2051771Y415470D01*
Y414137D01*
X2051521Y412803D01*
X2051021Y411636D01*
X2050270Y410636D01*
X2049396Y409970D01*
X2048396Y409803D01*
G01X2044646Y1304803D02*
Y1274803D01*
G01Y1294803D02*
Y1334803D01*
G01D02*
Y1364803D01*
G01X2064646Y354803D02*
Y384803D01*
X2234646D01*
G01X2075770Y371136D02*
X2076771Y370303D01*
X2077896Y369803D01*
X2078896D01*
X2079896Y370303D01*
X2080646Y371136D01*
X2081021Y372303D01*
X2080771Y373470D01*
X2080146Y374470D01*
X2079020Y375137D01*
X2077521Y375470D01*
X2076646Y376136D01*
X2076270Y377303D01*
X2076521Y378470D01*
X2077146Y379303D01*
X2078020Y379803D01*
X2078896D01*
X2079771Y379470D01*
X2080521Y378637D01*
G01X2085770Y369803D02*
Y379803D01*
G01X2091021D02*
Y369803D01*
G01Y374803D02*
X2085770D01*
G01X2100896Y369803D02*
X2095896D01*
Y379803D01*
X2100896D01*
G01X2098896Y374970D02*
X2095896D01*
G01X2110896Y369803D02*
X2105896D01*
Y379803D01*
X2110896D01*
G01X2108896Y374970D02*
X2105896D01*
G01X2118396Y379803D02*
Y369803D01*
G01X2115521Y379803D02*
X2121270D01*
G01X2070646Y1344803D02*
Y1354803D01*
X2073146D01*
X2074146Y1354303D01*
X2074896Y1353637D01*
X2075521Y1352637D01*
X2076021Y1351470D01*
X2076146Y1349803D01*
X2076021Y1348136D01*
X2075521Y1346970D01*
X2074896Y1345970D01*
X2074146Y1345303D01*
X2073146Y1344803D01*
X2070646D01*
G01X2080270D02*
X2083396Y1354803D01*
X2086521Y1344803D01*
G01X2085396Y1348303D02*
X2081396D01*
G01X2093396Y1354803D02*
Y1344803D01*
G01X2090521Y1354803D02*
X2096270D01*
G01X2105896Y1344803D02*
X2100896D01*
Y1354803D01*
X2105896D01*
G01X2103896Y1349970D02*
X2100896D01*
G01X2134646Y1304803D02*
Y1274803D01*
G01Y1304803D02*
Y1334803D01*
G01D02*
Y1364803D01*
G01X2145270Y1344803D02*
X2148396Y1354803D01*
X2151521Y1344803D01*
G01X2150396Y1348303D02*
X2146396D01*
G01X2155896Y1344803D02*
Y1354803D01*
X2158896D01*
X2159896Y1354303D01*
X2160646Y1353137D01*
X2160896Y1351803D01*
X2160646Y1350470D01*
X2160020Y1349470D01*
X2158896Y1348970D01*
X2155896D01*
G01X2165896Y1344803D02*
Y1354803D01*
X2168896D01*
X2169896Y1354303D01*
X2170646Y1353137D01*
X2170896Y1351803D01*
X2170646Y1350470D01*
X2170020Y1349470D01*
X2168896Y1348970D01*
X2165896D01*
G01X2175896Y1344803D02*
Y1354803D01*
X2179020D01*
X2180020Y1354303D01*
X2180646Y1353637D01*
X2180896Y1352303D01*
X2180646Y1350970D01*
X2179896Y1350137D01*
X2179020Y1349636D01*
X2175896D01*
G01X2179020D02*
X2180896Y1344803D01*
G01X2188396D02*
X2187396Y1344970D01*
X2186521Y1345636D01*
X2185770Y1346636D01*
X2185270Y1347803D01*
X2185020Y1349137D01*
Y1350470D01*
X2185270Y1351803D01*
X2185770Y1352970D01*
X2186521Y1353970D01*
X2187396Y1354637D01*
X2188396Y1354803D01*
X2189396Y1354637D01*
X2190270Y1353970D01*
X2191021Y1352970D01*
X2191521Y1351803D01*
X2191771Y1350470D01*
Y1349137D01*
X2191521Y1347803D01*
X2191021Y1346636D01*
X2190270Y1345636D01*
X2189396Y1344970D01*
X2188396Y1344803D01*
G01X2195270Y1354803D02*
X2198396Y1344803D01*
X2201521Y1354803D01*
G01X2210896Y1344803D02*
X2205896D01*
Y1354803D01*
X2210896D01*
G01X2208896Y1349970D02*
X2205896D01*
G01X2215646Y1344803D02*
Y1354803D01*
X2218146D01*
X2219146Y1354303D01*
X2219896Y1353637D01*
X2220521Y1352637D01*
X2221021Y1351470D01*
X2221146Y1349803D01*
X2221021Y1348136D01*
X2220521Y1346970D01*
X2219896Y1345970D01*
X2219146Y1345303D01*
X2218146Y1344803D01*
X2215646D01*
G01X2234646Y1394803D02*
Y1274803D01*
G54D15*
X810295Y921319D03*
G54D16*
Y937551D03*
X833228Y862500D03*
X834311Y937551D03*
X860335Y606201D03*
X852933Y770000D03*
X857736Y817500D03*
X847500Y812500D03*
X855000Y820000D03*
X860000Y805000D03*
X860335Y846457D03*
X877913Y599232D03*
X865000Y616280D03*
X873386Y614398D03*
X868858Y601791D03*
X877913Y604350D03*
X875020Y748189D03*
X877067Y760000D03*
X864167Y778898D03*
X862500Y817500D03*
X873484Y820716D03*
X862500Y802500D03*
X871516Y829212D03*
X879685Y855000D03*
X868898Y847047D03*
X876850Y842500D03*
X877500Y870000D03*
X875295Y887650D03*
X870177D03*
X872736Y895382D03*
X862657Y909055D03*
X872736Y915354D03*
X900000Y567500D03*
X882500Y570000D03*
X896614Y614398D03*
X891102Y651299D03*
Y688720D03*
Y726142D03*
X900000Y777149D03*
X899162Y859055D03*
X883150Y842500D03*
X885000Y907500D03*
X900524Y901398D03*
X902982Y597982D03*
X910000Y605000D03*
X905000Y616280D03*
X909213Y656417D03*
X910787Y648740D03*
Y653858D03*
X905059Y645000D03*
X909213Y693839D03*
X910787Y686161D03*
Y691280D03*
X905059Y683307D03*
Y720728D03*
X909213Y731260D03*
X910787Y723583D03*
Y728701D03*
X917520Y749252D03*
X914704Y777149D03*
X918799Y810000D03*
X903827Y869134D03*
X908071Y887650D03*
X905512Y895382D03*
X902953Y887650D03*
X915295Y909055D03*
X905512Y915354D03*
X936102Y613720D03*
Y651142D03*
Y688563D03*
X923784Y758661D03*
Y772520D03*
X938563Y786378D03*
X938661Y805384D03*
X925913Y858268D03*
X937697Y895382D03*
X940256Y887650D03*
X935138D03*
X932709Y901398D03*
X937697Y915354D03*
X957500Y582500D03*
X955787Y611161D03*
Y616280D03*
X950000Y607500D03*
X950059Y621268D03*
X952638Y660000D03*
X955787Y648583D03*
X950059Y645000D03*
Y697500D03*
X955787Y686004D03*
X950059Y683150D03*
X957028Y716417D03*
X947480Y909055D03*
X979902Y613720D03*
X965000Y653701D03*
X979902Y651142D03*
X964094Y691122D03*
X979902Y688563D03*
Y725984D03*
Y763406D03*
X962500Y798189D03*
X979902Y800827D03*
X966535Y906201D03*
X997607Y577607D03*
X1000000Y567500D03*
X999587Y611161D03*
X997500Y605000D03*
X999587Y616280D03*
X993858Y607500D03*
Y622500D03*
Y660000D03*
X999587Y648583D03*
Y653701D03*
X993858Y645728D03*
Y697500D03*
X999587Y686004D03*
Y691122D03*
X993858Y683150D03*
Y720571D03*
Y735000D03*
X999587Y723425D03*
Y728543D03*
X993858Y757992D03*
Y772500D03*
X999587Y760846D03*
Y765965D03*
X998012Y798268D03*
X993858Y792500D03*
X998012Y805945D03*
X999587Y803386D03*
X984358Y911319D03*
X986508Y906201D03*
X995000Y910000D03*
X994240Y903642D03*
X984358D03*
X1017500Y565000D03*
X1012500Y570000D03*
X1017500Y572500D03*
X1014665Y898799D03*
X1017547Y908354D03*
X1020736Y912500D03*
X1030000Y560000D03*
X1028228Y600728D03*
X1035000Y699921D03*
Y713780D03*
X1027421Y760425D03*
X1030000Y775000D03*
X1031102Y818720D03*
X1028346Y866299D03*
X1034594Y872500D03*
X1027783Y899874D03*
X1025384Y886483D03*
X1023346Y888799D03*
X1027783Y885126D03*
X1022665Y898799D03*
X1034594Y912500D03*
X1059734Y572234D03*
X1060000Y565000D03*
X1055000Y577500D03*
X1049528Y658917D03*
X1047626Y696732D03*
X1047913Y706969D03*
X1060000Y701850D03*
X1043386Y711898D03*
X1060059Y733307D03*
X1046102Y738720D03*
X1042500Y760425D03*
X1057579D03*
Y775000D03*
X1042500D03*
X1050787Y816161D03*
X1045059Y813307D03*
X1049213Y823839D03*
X1050787Y821280D03*
X1059252Y894223D03*
X1067500Y572234D03*
X1071969Y562500D03*
X1070000Y565000D03*
X1067500Y575000D03*
X1075000Y582500D03*
X1072500Y697500D03*
X1066614Y711898D03*
X1072500Y715000D03*
X1069941Y732500D03*
X1064213Y743839D03*
X1065787Y741280D03*
X1063644Y899252D03*
X1072500Y900000D03*
X1065551Y884193D03*
X1063644Y904370D03*
X1077500Y906929D03*
X1092500Y565000D03*
X1082028Y631417D03*
X1082500Y703701D03*
X1097913Y794154D03*
X1093701Y820256D03*
X1091614Y804232D03*
X1082480Y894510D03*
X1086728Y899252D03*
X1087016Y909488D03*
X1086728Y914606D03*
X1107500Y565000D03*
X1120000Y585000D03*
X1115059Y616122D03*
X1119213Y626654D03*
X1101102Y621535D03*
X1112500Y653543D03*
X1101102Y658957D03*
X1119213Y664075D03*
X1112500Y690965D03*
X1101102Y696378D03*
X1119213Y701496D03*
Y738917D03*
X1112500Y728386D03*
X1101102Y733799D03*
X1119213Y776339D03*
X1112500Y765807D03*
X1101102Y771220D03*
X1115453Y797500D03*
X1105571Y812067D03*
X1110000Y802500D03*
X1119606Y806791D03*
X1117436Y834213D03*
X1103686Y821630D03*
X1120787Y618976D03*
Y624094D03*
Y656398D03*
Y661516D03*
Y693819D03*
Y698937D03*
X1121075Y731240D03*
X1120787Y736358D03*
Y768661D03*
Y773780D03*
X1133071Y843169D03*
X1158366Y723228D03*
X1154587Y767894D03*
X1155760Y816181D03*
X1146949Y823150D03*
X1151614Y833228D03*
X1155760Y846181D03*
X1146949Y853150D03*
X1151614Y863228D03*
X1175000Y547500D03*
X1168602Y611220D03*
X1174646Y709350D03*
X1161398Y740807D03*
X1166516Y740520D03*
X1171634Y732039D03*
X1162500Y722500D03*
X1166516Y754980D03*
X1164665Y772559D03*
X1164528Y826417D03*
X1164240Y821299D03*
X1178988D03*
X1164240Y856417D03*
Y851299D03*
X1178988D03*
X1198799Y527205D03*
X1192500Y537283D03*
X1194587Y553307D03*
X1182559Y620000D03*
X1188287Y608661D03*
Y613780D03*
X1182559Y605807D03*
X1197559Y669980D03*
X1183602Y694003D03*
X1190750Y684893D03*
X1193602Y685328D03*
X1191398Y740807D03*
X1196516Y740520D03*
X1194665Y723228D03*
X1188366D03*
X1196516Y754980D03*
X1194665Y772559D03*
X1184587Y767894D03*
X1196280Y823150D03*
X1191614Y833228D03*
X1196280Y853150D03*
X1191614Y863228D03*
X1220205Y539843D03*
Y534724D03*
X1206457Y544831D03*
X1209934Y557264D03*
X1218609Y567264D03*
X1209499Y564412D03*
X1213583Y667894D03*
X1206035Y681850D03*
X1218571Y691732D03*
X1211024Y695598D03*
X1201634Y732039D03*
X1233957Y576220D03*
X1223661Y674193D03*
X1231102Y843720D03*
X1256646Y549232D03*
X1247835Y556201D03*
X1256646Y579232D03*
X1252500Y566280D03*
X1247835Y586201D03*
X1252500Y596280D03*
X1242500Y602500D03*
X1245059Y838307D03*
X1249213Y848839D03*
X1250787Y841161D03*
Y846280D03*
X1265126Y559469D03*
X1279874Y554350D03*
X1265126D03*
Y589469D03*
Y584350D03*
X1279874D03*
X1297165Y556201D03*
X1292500Y566280D03*
X1297165Y586201D03*
X1292500Y596280D03*
G54D17*
X828012Y921319D03*
G54D18*
X899823Y942913D03*
X894823D03*
X919823D03*
X914823D03*
X909823D03*
X904823D03*
X939823D03*
X934823D03*
X929823D03*
X924823D03*
G54D19*
X965000Y760000D03*
X1045276Y639764D03*
X1080709Y590551D03*
X1135000Y810000D03*
X1212500Y717500D03*
X1235000Y545000D03*
M02*
