G04 ================== begin FILE IDENTIFICATION RECORD ==================*
G04 Layout Name:  E:/Projects/PCB/FSCV Board/PCB Editor/FSCV_V5.brd*
G04 Film Name:    8_CONDUCTOR_TRACE*
G04 File Format:  Gerber RS274X*
G04 File Origin:  Cadence Allegro 17.4-S037*
G04 Origin Date:  Fri Sep  8 15:29:54 2023*
G04 *
G04 Layer:  VIA CLASS/TRACE*
G04 Layer:  PIN/TRACE*
G04 Layer:  ETCH/TRACE*
G04 Layer:  DRAWING FORMAT/TITLE_DATA*
G04 Layer:  DRAWING FORMAT/TITLE_BLOCK*
G04 Layer:  DRAWING FORMAT/REVISION_DATA*
G04 Layer:  DRAWING FORMAT/REVISION_BLOCK*
G04 Layer:  DRAWING FORMAT/OUTLINE*
G04 Layer:  BOARD GEOMETRY/DESIGN_OUTLINE*
G04 *
G04 Offset:    (0.0000 0.0000)*
G04 Mirror:    No*
G04 Mode:      Positive*
G04 Rotation:  0*
G04 FullContactRelief:  No*
G04 UndefLineWidth:     0.1000*
G04 ================== end FILE IDENTIFICATION RECORD ====================*
%FSLAX25Y25*MOIN*%
%IR0*IPPOS*OFA0.00000B0.00000*MIA0B0*SFA1.00000B1.00000*%
%ADD16C,.019685*%
%ADD21C,.038976*%
%ADD18C,.03937*%
%ADD12C,.040157*%
%ADD11C,.094488*%
%ADD15C,.066933*%
%ADD14C,.060236*%
%ADD17C,.07087*%
%ADD10C,.181102*%
%ADD20C,.04685*%
%ADD22C,.051496*%
%ADD13C,.064961*%
%ADD19R,.048819X.048819*%
%ADD23R,.051496X.051496*%
%ADD24C,.003937*%
G75*
%LPD*%
G75*
G54D10*
X785433Y528898D03*
Y960630D03*
X1307087Y528898D03*
Y960630D03*
G54D20*
X996457Y942913D03*
X1046850D03*
X1108661D03*
X1159055D03*
X1248799Y629921D03*
Y753937D03*
X1263799Y661417D03*
Y783465D03*
X1299193Y629921D03*
Y661417D03*
X1295886Y688996D03*
Y724390D03*
X1299193Y753937D03*
Y783465D03*
X1292500Y847303D03*
Y897697D03*
G54D11*
X797500Y595138D03*
Y615138D03*
Y646319D03*
Y666319D03*
Y697500D03*
Y717500D03*
X817500Y595138D03*
Y615138D03*
X807500Y605138D03*
X817500Y646319D03*
X807500Y656319D03*
X817500Y666319D03*
Y697500D03*
Y717500D03*
X807500Y707500D03*
X837500Y697500D03*
Y717500D03*
X857500Y697500D03*
Y717500D03*
X847500Y707500D03*
X1227500Y926909D03*
X1237500Y936909D03*
X1227500Y946909D03*
X1247874Y700630D03*
Y720630D03*
X1257874Y710630D03*
X1247500Y926909D03*
Y946909D03*
X1267874Y700630D03*
Y720630D03*
G54D12*
X818780Y521004D03*
Y535965D03*
Y550926D03*
X836496Y521004D03*
X827638D03*
X836496Y535965D03*
X827638D03*
X823209Y540296D03*
X832067D03*
X840925D03*
Y531634D03*
Y525335D03*
X832067Y531634D03*
Y525335D03*
X823209Y531634D03*
Y525335D03*
Y546595D03*
X827638Y551595D03*
X832067Y546595D03*
X836496Y550926D03*
X840925Y546595D03*
X854213Y521004D03*
X845354D03*
X854213Y535965D03*
X845354D03*
X849783Y540296D03*
X858642D03*
Y531634D03*
Y525335D03*
X849783Y531634D03*
Y525335D03*
X845354Y550926D03*
X849783Y546595D03*
X854213Y550926D03*
X858642Y546595D03*
X880787Y521004D03*
X871929D03*
X863071D03*
X880787Y535965D03*
X871929D03*
X863071D03*
X867500Y540296D03*
X876358D03*
Y531634D03*
Y525335D03*
X867500Y531634D03*
Y525335D03*
X863071Y550926D03*
X867500Y546595D03*
X871929Y550926D03*
X876358Y546595D03*
X880787Y550926D03*
X898504Y521004D03*
X889646D03*
X898504Y535965D03*
X889646D03*
X885217Y540296D03*
X894075D03*
Y531634D03*
Y525335D03*
X885217Y531634D03*
Y525335D03*
Y546595D03*
X889646Y550926D03*
X894075Y546595D03*
X898504Y550926D03*
X916220Y521004D03*
X907362D03*
X916220Y535965D03*
X907362D03*
X902933Y540296D03*
X911791D03*
X920650D03*
Y531634D03*
Y525335D03*
X911791Y531634D03*
Y525335D03*
X902933Y531634D03*
Y525335D03*
Y546595D03*
X907362Y550926D03*
X911791Y546595D03*
X916220Y550926D03*
X920650Y546595D03*
X933937Y521004D03*
X925079D03*
X933937Y535965D03*
X925079D03*
X929508Y540296D03*
X938366D03*
Y531634D03*
Y525335D03*
X929508Y531634D03*
Y525335D03*
X925079Y550926D03*
X929508Y546595D03*
X933937Y550926D03*
X938366Y546595D03*
X960512Y521004D03*
X951654D03*
X942795D03*
X960512Y535965D03*
X951654D03*
X942795D03*
X947224Y540296D03*
X956083D03*
Y531634D03*
Y525335D03*
X947224Y531634D03*
Y525335D03*
X942795Y550926D03*
X947224Y546595D03*
X951654Y550926D03*
X956083Y546595D03*
X960512Y550926D03*
X978228Y521004D03*
X969370D03*
X978228Y535965D03*
X969370D03*
X964941Y540296D03*
X973799D03*
Y531634D03*
Y525335D03*
X964941Y531634D03*
Y525335D03*
Y546595D03*
X969370Y550926D03*
X973799Y546595D03*
X978228Y550926D03*
X995945Y521004D03*
X987087D03*
X995945Y535965D03*
X987087D03*
X982657Y540296D03*
X991516D03*
Y531634D03*
Y525335D03*
X982657Y531634D03*
Y525335D03*
Y546595D03*
X987087Y550926D03*
X991516Y546595D03*
X995945Y550926D03*
X1013661Y521004D03*
X1004803D03*
X1013661Y535965D03*
X1004803D03*
X1009232Y540296D03*
X1018091D03*
Y531634D03*
Y525335D03*
X1009232Y531634D03*
Y525335D03*
X1004803Y550926D03*
X1009232Y546595D03*
X1013661Y550926D03*
X1018091Y546595D03*
X1040236Y521004D03*
X1031378D03*
X1022520D03*
X1040236Y535965D03*
X1031378D03*
X1022520D03*
X1026949Y540296D03*
X1035807D03*
Y531634D03*
Y525335D03*
X1026949Y531634D03*
Y525335D03*
X1022520Y550926D03*
X1026949Y546595D03*
X1031378Y550926D03*
X1035807Y546595D03*
X1040236Y550926D03*
X1057953Y521004D03*
X1049094D03*
X1057953Y535965D03*
X1049094D03*
X1044665Y540296D03*
X1053524D03*
Y531634D03*
Y525335D03*
X1044665Y531634D03*
Y525335D03*
Y546595D03*
X1049094Y550926D03*
X1053524Y546595D03*
X1057953Y550926D03*
X1075669Y521004D03*
X1066811D03*
X1075669Y535965D03*
X1066811D03*
X1062382Y540296D03*
X1071240D03*
X1080098D03*
Y531634D03*
Y525335D03*
X1071240Y531634D03*
Y525335D03*
X1062382Y531634D03*
Y525335D03*
Y546595D03*
X1066811Y550926D03*
X1071240Y546595D03*
X1075669Y550926D03*
X1080098Y546595D03*
X1093386Y521004D03*
X1084528D03*
X1093386Y535965D03*
X1084528D03*
X1088957Y540296D03*
X1097815D03*
Y531634D03*
Y525335D03*
X1088957Y531634D03*
Y525335D03*
X1084528Y550926D03*
X1088957Y546595D03*
X1093386Y550926D03*
X1097815Y546595D03*
X1119961Y521004D03*
X1111102D03*
X1102244D03*
X1119961Y535965D03*
X1111102D03*
X1102244D03*
X1106673Y540296D03*
X1115531D03*
Y531634D03*
Y525335D03*
X1106673Y531634D03*
Y525335D03*
X1102244Y550926D03*
X1106673Y546595D03*
X1111102Y550926D03*
X1115531Y546595D03*
X1119961Y550926D03*
X1137677Y521004D03*
X1128819D03*
X1137677Y535965D03*
X1128819D03*
X1124390Y540296D03*
X1133248D03*
Y531634D03*
Y525335D03*
X1124390Y531634D03*
Y525335D03*
Y546595D03*
X1128819Y550926D03*
X1133248Y546595D03*
X1137677Y550926D03*
X1155394Y521004D03*
X1146535D03*
X1155394Y535965D03*
X1146535D03*
X1142106Y540296D03*
X1150965D03*
Y531634D03*
Y525335D03*
X1142106Y531634D03*
Y525335D03*
Y546595D03*
X1146535Y550926D03*
X1150965Y546595D03*
X1155394Y550926D03*
G54D21*
X1006654Y942913D03*
X1011654D03*
X1016654D03*
X1021654D03*
X1026654D03*
X1031654D03*
X1036654D03*
X1118858D03*
X1123858D03*
X1128858D03*
X1133858D03*
X1138858D03*
X1143858D03*
X1148858D03*
X1258996Y629921D03*
Y753937D03*
X1263996Y629921D03*
X1268996D03*
X1273996D03*
X1278996D03*
Y661417D03*
X1273996D03*
X1278996Y753937D03*
X1273996D03*
X1268996D03*
X1263996D03*
X1278996Y783465D03*
X1273996D03*
X1283996Y629921D03*
X1288996D03*
Y661417D03*
X1283996D03*
X1295886Y699193D03*
Y704193D03*
Y709193D03*
Y714193D03*
X1288996Y753937D03*
X1283996D03*
X1288996Y783465D03*
X1283996D03*
X1292500Y857500D03*
Y862500D03*
Y867500D03*
Y872500D03*
Y877500D03*
Y882500D03*
Y887500D03*
G54D13*
X803228Y780098D03*
X813228D03*
X803228Y790098D03*
X813228D03*
X803228Y800098D03*
X813228D03*
X803228Y810098D03*
X813228D03*
X803228Y820098D03*
X813228D03*
X803228Y830098D03*
X813228D03*
X803228Y840098D03*
X813228D03*
G54D22*
X1197500Y637500D03*
X1217500D03*
G54D23*
X1207500D03*
G54D14*
X820000Y880000D03*
X872500Y732500D03*
X891732Y868110D03*
X917500Y710000D03*
X956693Y836614D03*
G54D24*
G01X883366Y903366D02*
X858366D01*
X852523Y897523D01*
X831872D01*
X797815Y863467D01*
Y779526D01*
X809310Y768031D01*
X858031D01*
X888189Y798189D01*
X960527D01*
G01X813228Y840098D02*
X808996Y844331D01*
X801475D01*
X798996Y841852D01*
Y818345D01*
X802656Y814685D01*
X859685D01*
X862500Y817500D01*
G01X813228Y790098D02*
X825630Y802500D01*
X862500D01*
G01X813228Y830098D02*
X808996Y825866D01*
Y818345D01*
X811475Y815866D01*
X856102D01*
X857736Y817500D01*
G01X813228Y810098D02*
X845098D01*
X847500Y812500D01*
G01X813228Y820098D02*
X817461D01*
X817559Y820000D01*
X855000D01*
G01X803228Y810098D02*
X808327Y805000D01*
X860000D01*
G01X803228Y830098D02*
X807461Y834331D01*
X866397D01*
X871516Y829212D01*
G01X820000Y880000D02*
X867500D01*
X877500Y870000D01*
G01X840925Y531634D02*
Y536064D01*
X843917Y539056D01*
Y543603D01*
X840925Y546595D01*
G01Y531634D02*
X843917Y528642D01*
X877381D01*
X885019Y521004D01*
X889646D01*
G01X840925Y546595D02*
Y618425D01*
X900000Y677500D01*
Y755000D01*
G01X997697Y602697D02*
X901357D01*
X845256Y546595D01*
X840925D01*
G01X960527Y798189D02*
X902500Y740162D01*
Y672500D01*
X858366Y628366D01*
Y605385D01*
X866487Y597264D01*
X887264D01*
X895000Y605000D01*
X910000D01*
G01X1069941Y732500D02*
Y886318D01*
X1054417Y901843D01*
X1022924D01*
X975000Y853919D01*
X934883D01*
X852933Y771969D01*
Y770000D01*
G01X905059Y645000D02*
Y643031D01*
X868228Y606201D01*
X860335D01*
G01X872500Y732500D02*
X877500D01*
X900000Y755000D01*
G01X871516Y829212D02*
Y837165D01*
X876850Y842500D01*
G01X868898Y847047D02*
Y861398D01*
X877500Y870000D01*
G01X868898Y847047D02*
X872303D01*
X876850Y842500D01*
G01X862657Y909055D02*
X866890Y913287D01*
X999497D01*
X1000284Y912500D01*
G01X889646Y521004D02*
Y531635D01*
X882224Y539056D01*
Y548131D01*
X883780Y549686D01*
Y554064D01*
X899184Y569469D01*
X995119D01*
X1013661Y550926D01*
G01X900000Y567500D02*
X992559D01*
X1012224Y547835D01*
Y543288D01*
X1009232Y540296D01*
G01X882500Y570000D02*
X892075Y579575D01*
X1130976D01*
X1158386Y552165D01*
Y543189D01*
X1150965Y535768D01*
Y531634D01*
G01X1028228Y600728D02*
X910444D01*
X880531Y570816D01*
Y569184D01*
X881684Y568031D01*
X885531D01*
X888150Y570650D01*
X1000489D01*
X1019528Y551611D01*
Y549686D01*
X1022619Y546595D01*
X1026949D01*
G01X900000Y755000D02*
Y777149D01*
G01X900524Y901398D02*
Y862385D01*
X899162Y861024D01*
Y859055D01*
G01X891732Y868110D02*
X894558Y865284D01*
Y863659D01*
X899162Y859055D01*
G01X885000Y907500D02*
Y905000D01*
X883366Y903366D01*
G01X915295Y909055D02*
X909606Y903366D01*
X883366D01*
G01X1206457Y544831D02*
X1144319Y606969D01*
X996684D01*
X994716Y605000D01*
X910000D01*
G01X909213Y693839D02*
X907638Y692264D01*
Y657992D01*
X909213Y656417D01*
G01D02*
X907820Y655025D01*
Y648923D01*
X909972Y646772D01*
X911603D01*
X945000Y680169D01*
Y692441D01*
X950059Y697500D01*
G01X910787Y686161D02*
X913361Y683588D01*
Y651313D01*
X910787Y648740D01*
G01Y653858D02*
X912180Y655250D01*
Y660320D01*
X908819Y663681D01*
Y689311D01*
X910787Y691280D01*
G01X950059Y645000D02*
X905059D01*
G01Y683307D02*
Y645000D01*
G01X909213Y731260D02*
X907638Y729685D01*
Y695413D01*
X909213Y693839D01*
G01X910787Y686161D02*
X912756Y688130D01*
Y697244D01*
X910787Y699213D01*
Y716713D01*
G01Y691280D02*
X911181Y691673D01*
Y694654D01*
X908819Y697017D01*
Y726732D01*
X910787Y728701D01*
G01X905059Y720728D02*
Y683307D01*
G01X910787Y716713D02*
X917500Y710000D01*
G01X910787Y723583D02*
Y716713D01*
G01X962500Y798189D02*
Y784547D01*
X909213Y731260D01*
G01X955787Y686004D02*
Y694556D01*
X926761Y723583D01*
X910787D01*
G01X955000Y718445D02*
X944744Y728701D01*
X910787D01*
G01X923784Y758661D02*
X905059Y739937D01*
Y720728D01*
G01X1020736Y912500D02*
Y908759D01*
X1005390Y893413D01*
X911587D01*
X903602Y901398D01*
X900524D01*
G01X947480Y909055D02*
X915295D01*
G01X932709Y901398D02*
X934953Y903642D01*
X984358D01*
G01X957500Y582500D02*
X1075000D01*
G01X993858Y772500D02*
X1031358Y810000D01*
X1044536D01*
X1047028Y812491D01*
Y814123D01*
X1045875Y815276D01*
X1017804D01*
X997528Y795000D01*
X993574D01*
X990000Y791426D01*
Y642590D01*
X956603Y609193D01*
X954972D01*
X950059Y614106D01*
Y621268D01*
G01X998012Y798268D02*
X995171D01*
X987500Y790596D01*
Y642874D01*
X955787Y611161D01*
G01Y648583D02*
X953819Y646614D01*
Y613130D01*
X955787Y611161D01*
G01X965000Y653701D02*
Y625492D01*
X955787Y616280D01*
G01X993858Y607500D02*
X950000D01*
G01D02*
X948091Y609409D01*
Y643031D01*
X950059Y645000D01*
G01X952638Y660000D02*
Y623846D01*
X950059Y621268D01*
G01Y697500D02*
X952638Y694921D01*
Y660000D01*
G01X955787Y686004D02*
Y648583D01*
G01X950059Y683150D02*
Y645000D01*
G01X964094Y691122D02*
Y709350D01*
X957028Y716417D01*
G01X999587Y803386D02*
X996437Y800236D01*
X995469D01*
X957500Y762267D01*
Y720945D01*
X955000Y718445D01*
G01D02*
X957028Y716417D01*
G01X956693Y836614D02*
X962500Y830807D01*
Y798189D01*
G01X984358Y911319D02*
X949744D01*
X947480Y909055D01*
G01X964094Y691122D02*
Y656575D01*
X965000Y655669D01*
Y653701D01*
G01X998012Y805945D02*
X970256D01*
X962500Y798189D01*
G01D02*
X960527D01*
G01X997607Y577607D02*
X1000169D01*
X1034488Y543288D01*
X1041673D01*
X1044665Y540296D01*
G01X999587Y611161D02*
X997618Y613130D01*
Y646614D01*
X999587Y648583D01*
G01X1072500Y697500D02*
X1083996Y686004D01*
Y630602D01*
X1064556Y611161D01*
X999587D01*
G01X997500Y605000D02*
Y602894D01*
X997697Y602697D01*
G01X999587Y616280D02*
X1001555Y618248D01*
Y651732D01*
X999587Y653701D01*
G01X997697Y602697D02*
X1102303D01*
X1120000Y585000D01*
G01X993858Y607500D02*
X991890Y609469D01*
Y643760D01*
X993858Y645728D01*
G01X1115059Y616122D02*
X1107829Y608892D01*
X995250D01*
X993858Y607500D01*
G01Y660000D02*
X995827Y658031D01*
Y624469D01*
X993858Y622500D01*
G01Y697500D02*
X995827Y695531D01*
Y661969D01*
X993858Y660000D01*
G01X999587Y648583D02*
X997618Y650551D01*
Y684035D01*
X999587Y686004D01*
G01Y653701D02*
X1044311D01*
X1049528Y658917D01*
G01X999587Y653701D02*
X1001555Y655669D01*
Y689154D01*
X999587Y691122D01*
G01X993858Y645728D02*
X991890Y647697D01*
Y681181D01*
X993858Y683150D01*
G01Y697500D02*
X995827Y699469D01*
Y733031D01*
X993858Y735000D01*
G01X999587Y723425D02*
X997618Y721457D01*
Y687972D01*
X999587Y686004D01*
G01Y691122D02*
X1001555Y693091D01*
Y726575D01*
X999587Y728543D01*
G01X993858Y683150D02*
X991890Y685118D01*
Y718602D01*
X993858Y720571D01*
G01Y735000D02*
X995827Y736969D01*
Y770531D01*
X993858Y772500D01*
G01X999587Y760846D02*
X997618Y758878D01*
Y725394D01*
X999587Y723425D01*
G01Y728543D02*
X1001555Y730512D01*
Y763996D01*
X999587Y765965D01*
G01X993858Y757992D02*
X991890Y756024D01*
Y722539D01*
X993858Y720571D01*
G01Y792500D02*
X991890Y790531D01*
Y759961D01*
X993858Y757992D01*
G01X1050787Y816161D02*
Y814193D01*
X1045413Y808819D01*
X1039657D01*
X997618Y766780D01*
Y762815D01*
X999587Y760846D01*
G01X1008622Y775000D02*
X999587Y765965D01*
G01X1050787Y816161D02*
X1048819D01*
X1048524Y816457D01*
X1016201D01*
X998012Y798268D01*
G01X993858Y792500D02*
X997500D01*
X1018307Y813307D01*
X1045059D01*
G01X1049213Y823839D02*
X1015906D01*
X998012Y805945D01*
G01X1050787Y821280D02*
X1017480D01*
X999587Y803386D01*
G01X1000284Y912500D02*
X991426Y903642D01*
X984358D01*
G01X1175000Y547500D02*
Y534198D01*
X1164196Y523393D01*
X1159977D01*
X1159374Y523996D01*
X1153996D01*
X1148012Y518012D01*
X1012323D01*
X1001811Y528524D01*
Y539174D01*
X1009232Y546595D01*
G01X1013661Y550926D02*
Y540197D01*
X1009232Y535768D01*
Y531634D01*
G01X1000000Y567500D02*
X1001969D01*
X1016654Y552815D01*
Y549390D01*
X1015098Y547835D01*
Y538760D01*
X1016654Y537205D01*
Y534725D01*
X1015098Y533170D01*
Y528327D01*
X1018091Y525335D01*
G01X1030000Y560000D02*
X1019716D01*
X1010531Y569184D01*
Y570816D01*
X1014184Y574469D01*
X1050531D01*
X1060000Y565000D01*
G01X1017500D02*
X1030394D01*
X1044665Y550728D01*
Y546595D01*
G01X1049094Y550926D02*
X1030020Y570000D01*
X1012500D01*
G01X1053524Y546595D02*
Y550728D01*
X1031752Y572500D01*
X1017500D01*
G01X1030000Y775000D02*
X1008622D01*
G01X1050787Y821280D02*
X1052756Y819311D01*
Y814491D01*
X1045765Y807500D01*
X1041122D01*
X1008622Y775000D01*
G01X1020736Y912500D02*
X1000284D01*
G01X1026949Y531634D02*
X1031378D01*
X1038700Y538957D01*
X1041476D01*
X1043130Y537304D01*
X1045905D01*
X1052204Y543603D01*
X1054862D01*
X1060846Y549587D01*
X1063622D01*
X1065275Y547933D01*
X1068051D01*
X1070000Y549883D01*
Y560531D01*
X1071969Y562500D01*
G01X1070000Y565000D02*
X1072253D01*
X1073937Y563316D01*
Y561684D01*
X1072677Y560424D01*
Y549390D01*
X1074232Y547835D01*
Y545355D01*
X1072480Y543603D01*
X1061103D01*
X1050473Y532973D01*
X1047855D01*
X1046201Y534626D01*
X1043426D01*
X1040433Y531634D01*
X1035807D01*
G01X1107500Y565000D02*
Y560808D01*
X1094823Y548131D01*
Y541930D01*
X1081535Y528642D01*
X1078779D01*
X1072480Y522343D01*
X1069704D01*
X1068051Y523996D01*
X1065275D01*
X1063622Y522343D01*
X1060846D01*
X1059193Y523996D01*
X1056417D01*
X1054763Y522343D01*
X1051988D01*
X1050334Y523996D01*
X1047559D01*
X1045905Y522343D01*
X1043130D01*
X1041476Y523996D01*
X1038700D01*
X1037047Y522343D01*
X1034271D01*
X1031279Y525335D01*
X1026949D01*
G01X1067500Y575000D02*
X1069469D01*
X1087520Y556949D01*
Y549390D01*
X1085965Y547835D01*
Y541930D01*
X1072677Y528642D01*
X1039114D01*
X1035807Y525335D01*
G01X1047913Y706969D02*
X1037717Y696772D01*
X1033695D01*
X1031850Y698616D01*
Y713445D01*
X1062244Y743839D01*
X1064213D01*
G01X1072500Y697500D02*
X1079083D01*
X1084469Y702885D01*
Y704517D01*
X1080048Y708937D01*
X1046800D01*
X1035816Y697953D01*
X1034184D01*
X1033031Y699106D01*
Y709027D01*
X1036969Y712964D01*
Y713001D01*
X1059243Y735276D01*
X1067165D01*
X1069941Y732500D01*
G01X1060059Y733307D02*
Y724980D01*
X1035000Y699921D01*
G01X1042500Y775000D02*
X1030000D01*
G01X1028346Y866299D02*
Y844705D01*
X1049213Y823839D01*
G01X1028346Y866299D02*
X1029752Y867704D01*
Y897906D01*
X1027783Y899874D01*
G01D02*
X1053601D01*
X1059252Y894223D01*
G01X1020736Y912500D02*
X1022704Y914469D01*
X1082035D01*
X1087016Y909488D01*
G01X1059734Y572234D02*
X1066811Y565157D01*
Y550926D01*
G01X1055000Y577500D02*
X1063330D01*
X1063979Y578150D01*
X1100476D01*
X1114094Y564531D01*
Y549390D01*
X1108789Y544085D01*
Y542412D01*
X1106673Y540296D01*
G01X1049528Y658917D02*
X1054528D01*
X1082028Y631417D01*
G01X1047913Y706969D02*
X1079232D01*
X1082500Y703701D01*
G01X1057579Y775000D02*
X1042500D01*
G01X1065787Y741280D02*
X1067180Y742672D01*
Y765399D01*
X1057579Y775000D01*
G01X1049213Y823839D02*
X1051181D01*
X1068361Y806659D01*
Y741069D01*
X1066603Y739311D01*
X1064972D01*
X1062820Y741462D01*
Y742446D01*
X1064213Y743839D01*
G01X1067500Y572234D02*
X1069469D01*
X1081181Y560522D01*
Y549744D01*
X1083091Y547835D01*
Y545355D01*
X1081338Y543603D01*
X1078779D01*
X1066811Y531634D01*
X1062382D01*
G01X1106673D02*
Y535768D01*
X1103681Y538760D01*
Y548131D01*
X1109469Y553918D01*
Y565816D01*
X1108316Y566969D01*
X1104469D01*
X1100531Y563031D01*
X1084469D01*
X1070531Y576969D01*
X1066684D01*
X1065531Y575816D01*
Y571419D01*
X1066950Y570000D01*
X1068923D01*
X1078661Y560262D01*
Y549686D01*
X1077106Y548131D01*
Y546162D01*
X1071240Y540296D01*
G01X1069941Y732500D02*
X1071333Y731108D01*
X1111108D01*
X1115000Y735000D01*
G01X1112500Y728386D02*
X1064980D01*
X1060059Y733307D01*
G01X1092500Y565000D02*
X1095650Y568150D01*
X1108805D01*
X1111102Y565852D01*
Y550926D01*
G01X1097913Y794154D02*
Y780394D01*
X1112500Y765807D01*
G01X1097913Y794154D02*
Y815857D01*
X1103686Y821630D01*
G01Y825356D02*
Y892818D01*
X1087016Y909488D01*
G01X1124390Y540296D02*
Y536162D01*
X1116870Y528642D01*
X1109665D01*
X1106673Y531634D01*
G01X1115000Y735000D02*
Y624764D01*
X1120787Y618976D01*
G01X1115059Y616122D02*
X1172244D01*
X1182559Y605807D01*
G01X1115059Y616122D02*
X1112500Y618681D01*
Y653543D01*
G01X1119213Y626654D02*
Y626713D01*
G01Y626654D02*
X1117820Y625261D01*
Y624277D01*
X1119972Y622126D01*
X1172874D01*
X1183189Y611811D01*
X1189103D01*
X1190256Y612964D01*
Y614595D01*
X1184851Y620000D01*
G01X1119213Y664075D02*
X1117638Y662500D01*
Y628228D01*
X1119213Y626654D01*
G01X1120787Y624094D02*
X1122180Y625487D01*
Y635320D01*
X1118819Y638681D01*
Y659547D01*
X1120787Y661516D01*
G01X1112500Y653543D02*
Y690965D01*
G01X1119213Y701496D02*
X1117638Y699921D01*
Y665650D01*
X1119213Y664075D01*
G01X1120787Y661516D02*
X1122180Y662908D01*
Y663892D01*
X1118819Y667253D01*
Y696969D01*
X1120787Y698937D01*
G01X1112500Y728386D02*
Y690965D01*
G01X1119213Y738917D02*
X1117820Y737525D01*
Y702888D01*
X1119213Y701496D01*
G01X1161398Y740807D02*
X1121102D01*
X1119213Y738917D01*
G01D02*
X1117638Y740492D01*
Y774764D01*
X1119213Y776339D01*
G01X1250787Y841161D02*
X1252756Y843130D01*
Y848080D01*
X1242450Y858386D01*
X1160886D01*
X1150000Y847500D01*
X1127939D01*
X1112500Y832061D01*
Y827660D01*
X1103602Y818762D01*
Y788898D01*
X1115000Y777500D01*
Y735000D01*
G01X1120787Y698937D02*
X1121181Y699331D01*
Y728350D01*
X1119106Y730424D01*
Y734677D01*
X1120787Y736358D01*
G01X1105571Y812067D02*
Y789980D01*
X1119213Y776339D01*
G01X1120787Y736358D02*
X1195139D01*
X1198484Y739704D01*
Y771524D01*
X1195481Y774528D01*
X1152028D01*
X1144193Y766693D01*
X1119972D01*
X1118819Y767846D01*
Y771811D01*
X1120787Y773780D01*
G01X1105571Y812067D02*
X1117436Y823932D01*
Y834213D01*
G01D02*
X1118828Y835605D01*
X1155340D01*
X1164528Y826417D01*
G01X1103686Y825356D02*
X1131479Y853150D01*
X1146949D01*
G01X1103686Y821630D02*
Y825356D01*
G01X1120000Y585000D02*
X1127222D01*
X1159567Y552655D01*
Y535906D01*
X1152303Y528642D01*
X1149528D01*
X1134882Y543288D01*
X1127382D01*
X1124390Y540296D01*
G01X1120787Y618976D02*
X1173524D01*
X1183839Y608661D01*
X1188287D01*
G01Y613780D02*
X1183720D01*
X1173406Y624094D01*
X1120787D01*
G01Y693819D02*
X1123361Y691246D01*
Y658971D01*
X1120787Y656398D01*
G01X1121075Y731240D02*
X1122756Y729559D01*
Y695787D01*
X1120787Y693819D01*
G01X1130807Y778681D02*
X1192998D01*
X1199665Y772014D01*
Y739215D01*
X1195451Y735000D01*
X1124835D01*
X1121075Y731240D01*
G01X1120787Y768661D02*
X1130807Y778681D01*
G01D02*
X1144980Y792854D01*
Y823965D01*
X1146133Y825118D01*
X1154882D01*
X1161850Y818150D01*
X1203150D01*
X1226161Y841161D01*
X1250787D01*
G01X1120787Y773780D02*
X1125000Y777992D01*
Y810000D01*
X1141299Y826299D01*
X1156201D01*
X1163169Y819331D01*
X1199331D01*
X1226280Y846280D01*
X1250787D01*
G01X1245059Y838307D02*
X1223720Y816969D01*
X1158031D01*
X1151850Y823150D01*
X1146949D01*
G01D02*
Y821181D01*
X1160630Y807500D01*
X1165850D01*
X1200846Y772503D01*
Y735846D01*
X1194665Y729665D01*
Y723228D01*
G01X1146949Y853150D02*
X1153366Y859567D01*
X1242939D01*
X1253937Y848569D01*
Y841527D01*
X1250717Y838307D01*
X1245059D01*
G01X1194665Y723228D02*
X1192697Y725197D01*
X1165197D01*
X1162500Y722500D01*
G01X1191398Y740807D02*
X1189717Y742488D01*
X1163079D01*
X1161398Y740807D01*
G01D02*
Y769291D01*
X1164665Y772559D01*
G01X1164528Y826417D02*
X1193012D01*
X1196280Y823150D01*
G01X1164240Y856417D02*
X1193012D01*
X1196280Y853150D01*
G01X1206457Y544831D02*
X1196831Y535205D01*
Y526389D01*
X1197983Y525236D01*
X1227736D01*
X1261969Y559469D01*
X1265126D01*
G01X1209934Y557264D02*
Y538339D01*
X1198799Y527205D01*
G01X1209934Y557264D02*
X1182559Y584639D01*
Y605807D01*
G01X1206035Y681850D02*
X1182559Y658374D01*
Y620000D01*
G01X1184851D02*
X1186522D01*
X1218609Y587912D01*
Y567264D01*
G01X1184851Y620000D02*
X1182559D01*
G01X1183602Y694003D02*
Y689257D01*
X1191009Y681850D01*
X1206035D01*
G01X1193602Y685328D02*
X1212527D01*
X1223661Y674193D01*
G01X1194665Y723228D02*
Y717165D01*
X1193602Y716102D01*
Y685328D01*
G01X1191398Y740807D02*
Y769291D01*
X1194665Y772559D01*
G01X1196280Y823150D02*
Y853150D01*
G01D02*
X1244902D01*
X1249213Y848839D01*
G01X1209934Y557264D02*
X1244803D01*
X1245866Y556201D01*
X1247835D01*
G01X1265126Y559469D02*
Y573536D01*
X1250493Y588169D01*
X1239515D01*
X1218609Y567264D01*
G01X1223661Y674193D02*
X1242500Y655354D01*
Y602500D01*
G01X1247835Y586201D02*
Y556201D01*
G01X1297165D02*
X1293898Y559469D01*
X1265126D01*
G01Y589469D02*
X1293898D01*
X1297165Y586201D01*
G01D02*
Y556201D01*
G01X584646Y1424803D02*
Y324803D01*
G01D02*
X2284646D01*
Y1424803D01*
X584646D01*
G01X2234646Y1274803D02*
Y354803D01*
X634646D01*
G01Y1394803D02*
Y354803D01*
G01Y1394803D02*
X644646D01*
G01D02*
X2234646D01*
G01X769685Y515748D02*
Y976378D01*
X1322835D01*
Y515748D01*
X769685D01*
G01X1454646Y354803D02*
Y534803D01*
X2234646D01*
G01X1454646Y504803D02*
X1814646D01*
G01X1462842Y412303D02*
Y417303D01*
X1465249D01*
G01X1464362Y414887D02*
X1462842D01*
G01X1467879Y412303D02*
Y417303D01*
X1469462D01*
X1469969Y417053D01*
X1470286Y416720D01*
X1470412Y416053D01*
X1470286Y415387D01*
X1469906Y414970D01*
X1469462Y414720D01*
X1467879D01*
G01X1469462D02*
X1470412Y412303D01*
G01X1472662D02*
X1474246Y417303D01*
X1475829Y412303D01*
G01X1475259Y414053D02*
X1473232D01*
G01X1480739Y416887D02*
X1480359Y417137D01*
X1479916Y417303D01*
X1479409D01*
X1478839Y417053D01*
X1478396Y416637D01*
X1478079Y416137D01*
X1477826Y415303D01*
X1477762Y414553D01*
X1477889Y413803D01*
X1478079Y413303D01*
X1478459Y412803D01*
X1478902Y412470D01*
X1479346Y412303D01*
X1479789D01*
X1480232Y412470D01*
X1480612Y412720D01*
X1480929Y413053D01*
G01X1484446Y417303D02*
Y412303D01*
G01X1482989Y417303D02*
X1485902D01*
G01X1488786D02*
X1490306D01*
G01X1489546D02*
Y412303D01*
G01X1488786D02*
X1490306D01*
G01X1494646D02*
X1494139Y412387D01*
X1493696Y412720D01*
X1493316Y413220D01*
X1493062Y413803D01*
X1492935Y414470D01*
Y415137D01*
X1493062Y415803D01*
X1493316Y416387D01*
X1493696Y416887D01*
X1494139Y417220D01*
X1494646Y417303D01*
X1495152Y417220D01*
X1495596Y416887D01*
X1495976Y416387D01*
X1496229Y415803D01*
X1496356Y415137D01*
Y414470D01*
X1496229Y413803D01*
X1495976Y413220D01*
X1495596Y412720D01*
X1495152Y412387D01*
X1494646Y412303D01*
G01X1498289D02*
Y417303D01*
X1501202Y412303D01*
Y417303D01*
G01X1503516Y412970D02*
X1504022Y412553D01*
X1504593Y412303D01*
X1505099D01*
X1505606Y412553D01*
X1505986Y412970D01*
X1506176Y413553D01*
X1506049Y414136D01*
X1505732Y414637D01*
X1505162Y414970D01*
X1504402Y415137D01*
X1503959Y415470D01*
X1503769Y416053D01*
X1503896Y416637D01*
X1504212Y417053D01*
X1504656Y417303D01*
X1505099D01*
X1505543Y417137D01*
X1505922Y416720D01*
G01X1514349Y413970D02*
X1515869D01*
G01X1515046Y415053D02*
Y412886D01*
G01X1462462Y427303D02*
X1464046Y432303D01*
X1465629Y427303D01*
G01X1465059Y429053D02*
X1463032D01*
G01X1467689Y427303D02*
Y432303D01*
X1470602Y427303D01*
Y432303D01*
G01X1474626Y429803D02*
X1475893D01*
Y428303D01*
X1475512Y427803D01*
X1475069Y427470D01*
X1474436Y427303D01*
X1473802Y427470D01*
X1473359Y427803D01*
X1472979Y428303D01*
X1472726Y428887D01*
X1472599Y429553D01*
Y430137D01*
X1472726Y430636D01*
X1472979Y431220D01*
X1473359Y431720D01*
X1473739Y432053D01*
X1474246Y432303D01*
X1474689D01*
X1475196Y432137D01*
X1475576Y431803D01*
G01X1478079Y432303D02*
Y427303D01*
X1480612D01*
G01X1485712D02*
X1483179D01*
Y432303D01*
X1485712D01*
G01X1484699Y429887D02*
X1483179D01*
G01X1488216Y427970D02*
X1488722Y427553D01*
X1489293Y427303D01*
X1489799D01*
X1490306Y427553D01*
X1490686Y427970D01*
X1490876Y428553D01*
X1490749Y429136D01*
X1490432Y429637D01*
X1489862Y429970D01*
X1489102Y430137D01*
X1488659Y430470D01*
X1488469Y431053D01*
X1488596Y431637D01*
X1488912Y432053D01*
X1489356Y432303D01*
X1489799D01*
X1490243Y432137D01*
X1490622Y431720D01*
G01X1499049Y428970D02*
X1500569D01*
G01X1499746Y430053D02*
Y427886D01*
G01X1462652Y443303D02*
X1463032Y442720D01*
X1463539Y442387D01*
X1464109Y442303D01*
X1464616Y442387D01*
X1465122Y442803D01*
X1465439Y443303D01*
X1465502Y443803D01*
X1465376Y444386D01*
X1464932Y444803D01*
X1464489Y444970D01*
X1463919D01*
G01X1464489D02*
X1464869Y445220D01*
X1465186Y445636D01*
X1465312Y446137D01*
X1465186Y446637D01*
X1464869Y447053D01*
X1464299Y447303D01*
X1463729Y447220D01*
X1463159Y446887D01*
G01X1472979Y442303D02*
Y447303D01*
X1474499D01*
X1475006Y447053D01*
X1475386Y446470D01*
X1475512Y445803D01*
X1475386Y445137D01*
X1475069Y444637D01*
X1474499Y444386D01*
X1472979D01*
G01X1478079Y447303D02*
Y442303D01*
X1480612D01*
G01X1488152D02*
Y447303D01*
X1489419D01*
X1489926Y447053D01*
X1490306Y446720D01*
X1490622Y446220D01*
X1490876Y445636D01*
X1490939Y444803D01*
X1490876Y443970D01*
X1490622Y443386D01*
X1490306Y442886D01*
X1489926Y442553D01*
X1489419Y442303D01*
X1488152D01*
G01X1495912D02*
X1493379D01*
Y447303D01*
X1495912D01*
G01X1494899Y444887D02*
X1493379D01*
G01X1501139Y446887D02*
X1500759Y447137D01*
X1500316Y447303D01*
X1499809D01*
X1499239Y447053D01*
X1498796Y446637D01*
X1498479Y446137D01*
X1498226Y445303D01*
X1498162Y444553D01*
X1498289Y443803D01*
X1498479Y443303D01*
X1498859Y442803D01*
X1499302Y442470D01*
X1499746Y442303D01*
X1500189D01*
X1500632Y442470D01*
X1501012Y442720D01*
X1501329Y443053D01*
G01X1504086Y447303D02*
X1505606D01*
G01X1504846D02*
Y442303D01*
G01X1504086D02*
X1505606D01*
G01X1508299D02*
Y447303D01*
X1509946Y443137D01*
X1511593Y447303D01*
Y442303D01*
G01X1513462D02*
X1515046Y447303D01*
X1516629Y442303D01*
G01X1516059Y444053D02*
X1514032D01*
G01X1518879Y447303D02*
Y442303D01*
X1521412D01*
G01X1523916Y442970D02*
X1524422Y442553D01*
X1524993Y442303D01*
X1525499D01*
X1526006Y442553D01*
X1526386Y442970D01*
X1526576Y443553D01*
X1526449Y444136D01*
X1526132Y444637D01*
X1525562Y444970D01*
X1524802Y445137D01*
X1524359Y445470D01*
X1524169Y446053D01*
X1524296Y446637D01*
X1524612Y447053D01*
X1525056Y447303D01*
X1525499D01*
X1525943Y447137D01*
X1526322Y446720D01*
G01X1534749Y443970D02*
X1536269D01*
G01X1535446Y445053D02*
Y442886D01*
G01X1462842Y461470D02*
X1463222Y461970D01*
X1463666Y462220D01*
X1464172Y462303D01*
X1464806Y462137D01*
X1465249Y461720D01*
X1465376Y461220D01*
X1465312Y460720D01*
X1465059Y460303D01*
X1463793Y459470D01*
X1463222Y458887D01*
X1462842Y458053D01*
X1462716Y457303D01*
X1465376D01*
G01X1472979D02*
Y462303D01*
X1474499D01*
X1475006Y462053D01*
X1475386Y461470D01*
X1475512Y460803D01*
X1475386Y460137D01*
X1475069Y459637D01*
X1474499Y459386D01*
X1472979D01*
G01X1478079Y462303D02*
Y457303D01*
X1480612D01*
G01X1488152D02*
Y462303D01*
X1489419D01*
X1489926Y462053D01*
X1490306Y461720D01*
X1490622Y461220D01*
X1490876Y460636D01*
X1490939Y459803D01*
X1490876Y458970D01*
X1490622Y458386D01*
X1490306Y457886D01*
X1489926Y457553D01*
X1489419Y457303D01*
X1488152D01*
G01X1495912D02*
X1493379D01*
Y462303D01*
X1495912D01*
G01X1494899Y459887D02*
X1493379D01*
G01X1501139Y461887D02*
X1500759Y462137D01*
X1500316Y462303D01*
X1499809D01*
X1499239Y462053D01*
X1498796Y461637D01*
X1498479Y461137D01*
X1498226Y460303D01*
X1498162Y459553D01*
X1498289Y458803D01*
X1498479Y458303D01*
X1498859Y457803D01*
X1499302Y457470D01*
X1499746Y457303D01*
X1500189D01*
X1500632Y457470D01*
X1501012Y457720D01*
X1501329Y458053D01*
G01X1504086Y462303D02*
X1505606D01*
G01X1504846D02*
Y457303D01*
G01X1504086D02*
X1505606D01*
G01X1508299D02*
Y462303D01*
X1509946Y458137D01*
X1511593Y462303D01*
Y457303D01*
G01X1513462D02*
X1515046Y462303D01*
X1516629Y457303D01*
G01X1516059Y459053D02*
X1514032D01*
G01X1518879Y462303D02*
Y457303D01*
X1521412D01*
G01X1523916Y457970D02*
X1524422Y457553D01*
X1524993Y457303D01*
X1525499D01*
X1526006Y457553D01*
X1526386Y457970D01*
X1526576Y458553D01*
X1526449Y459136D01*
X1526132Y459637D01*
X1525562Y459970D01*
X1524802Y460137D01*
X1524359Y460470D01*
X1524169Y461053D01*
X1524296Y461637D01*
X1524612Y462053D01*
X1525056Y462303D01*
X1525499D01*
X1525943Y462137D01*
X1526322Y461720D01*
G01X1534749Y458970D02*
X1536269D01*
G01X1535446Y460053D02*
Y457886D01*
G01X1464046Y477303D02*
Y472303D01*
G01X1462589Y477303D02*
X1465502D01*
G01X1469146Y472303D02*
X1468639Y472387D01*
X1468196Y472720D01*
X1467816Y473220D01*
X1467562Y473803D01*
X1467435Y474470D01*
Y475137D01*
X1467562Y475803D01*
X1467816Y476387D01*
X1468196Y476887D01*
X1468639Y477220D01*
X1469146Y477303D01*
X1469652Y477220D01*
X1470096Y476887D01*
X1470476Y476387D01*
X1470729Y475803D01*
X1470856Y475137D01*
Y474470D01*
X1470729Y473803D01*
X1470476Y473220D01*
X1470096Y472720D01*
X1469652Y472387D01*
X1469146Y472303D01*
G01X1472979Y477303D02*
Y472303D01*
X1475512D01*
G01X1480612D02*
X1478079D01*
Y477303D01*
X1480612D01*
G01X1479599Y474887D02*
X1478079D01*
G01X1483179Y472303D02*
Y477303D01*
X1484762D01*
X1485269Y477053D01*
X1485586Y476720D01*
X1485712Y476053D01*
X1485586Y475387D01*
X1485206Y474970D01*
X1484762Y474720D01*
X1483179D01*
G01X1484762D02*
X1485712Y472303D01*
G01X1487962D02*
X1489546Y477303D01*
X1491129Y472303D01*
G01X1490559Y474053D02*
X1488532D01*
G01X1493189Y472303D02*
Y477303D01*
X1496102Y472303D01*
Y477303D01*
G01X1501139Y476887D02*
X1500759Y477137D01*
X1500316Y477303D01*
X1499809D01*
X1499239Y477053D01*
X1498796Y476637D01*
X1498479Y476137D01*
X1498226Y475303D01*
X1498162Y474553D01*
X1498289Y473803D01*
X1498479Y473303D01*
X1498859Y472803D01*
X1499302Y472470D01*
X1499746Y472303D01*
X1500189D01*
X1500632Y472470D01*
X1501012Y472720D01*
X1501329Y473053D01*
G01X1506112Y472303D02*
X1503579D01*
Y477303D01*
X1506112D01*
G01X1505099Y474887D02*
X1503579D01*
G01X1508616Y472970D02*
X1509122Y472553D01*
X1509693Y472303D01*
X1510199D01*
X1510706Y472553D01*
X1511086Y472970D01*
X1511276Y473553D01*
X1511149Y474136D01*
X1510832Y474637D01*
X1510262Y474970D01*
X1509502Y475137D01*
X1509059Y475470D01*
X1508869Y476053D01*
X1508996Y476637D01*
X1509312Y477053D01*
X1509756Y477303D01*
X1510199D01*
X1510643Y477137D01*
X1511022Y476720D01*
G01X1520146Y472303D02*
X1519639Y472387D01*
X1519196Y472720D01*
X1518816Y473220D01*
X1518562Y473803D01*
X1518435Y474470D01*
Y475137D01*
X1518562Y475803D01*
X1518816Y476387D01*
X1519196Y476887D01*
X1519639Y477220D01*
X1520146Y477303D01*
X1520652Y477220D01*
X1521096Y476887D01*
X1521476Y476387D01*
X1521729Y475803D01*
X1521856Y475137D01*
Y474470D01*
X1521729Y473803D01*
X1521476Y473220D01*
X1521096Y472720D01*
X1520652Y472387D01*
X1520146Y472303D01*
G01X1523789D02*
Y477303D01*
X1526702Y472303D01*
Y477303D01*
G01X1530346Y472137D02*
X1530219Y472220D01*
Y472387D01*
X1530346Y472470D01*
X1530472Y472387D01*
Y472220D01*
X1530346Y472137D01*
G01Y474386D02*
X1530219Y474470D01*
Y474637D01*
X1530346Y474720D01*
X1530472Y474637D01*
Y474470D01*
X1530346Y474386D01*
G01X1462652Y489803D02*
Y494803D01*
X1463919D01*
X1464426Y494553D01*
X1464806Y494220D01*
X1465122Y493720D01*
X1465376Y493136D01*
X1465439Y492303D01*
X1465376Y491470D01*
X1465122Y490886D01*
X1464806Y490386D01*
X1464426Y490053D01*
X1463919Y489803D01*
X1462652D01*
G01X1468386Y494803D02*
X1469906D01*
G01X1469146D02*
Y489803D01*
G01X1468386D02*
X1469906D01*
G01X1472599D02*
Y494803D01*
X1474246Y490637D01*
X1475893Y494803D01*
Y489803D01*
G01X1480612D02*
X1478079D01*
Y494803D01*
X1480612D01*
G01X1479599Y492387D02*
X1478079D01*
G01X1482989Y489803D02*
Y494803D01*
X1485902Y489803D01*
Y494803D01*
G01X1488216Y490470D02*
X1488722Y490053D01*
X1489293Y489803D01*
X1489799D01*
X1490306Y490053D01*
X1490686Y490470D01*
X1490876Y491053D01*
X1490749Y491636D01*
X1490432Y492137D01*
X1489862Y492470D01*
X1489102Y492637D01*
X1488659Y492970D01*
X1488469Y493553D01*
X1488596Y494137D01*
X1488912Y494553D01*
X1489356Y494803D01*
X1489799D01*
X1490243Y494637D01*
X1490622Y494220D01*
G01X1493886Y494803D02*
X1495406D01*
G01X1494646D02*
Y489803D01*
G01X1493886D02*
X1495406D01*
G01X1499746D02*
X1499239Y489887D01*
X1498796Y490220D01*
X1498416Y490720D01*
X1498162Y491303D01*
X1498035Y491970D01*
Y492637D01*
X1498162Y493303D01*
X1498416Y493887D01*
X1498796Y494387D01*
X1499239Y494720D01*
X1499746Y494803D01*
X1500252Y494720D01*
X1500696Y494387D01*
X1501076Y493887D01*
X1501329Y493303D01*
X1501456Y492637D01*
Y491970D01*
X1501329Y491303D01*
X1501076Y490720D01*
X1500696Y490220D01*
X1500252Y489887D01*
X1499746Y489803D01*
G01X1503389D02*
Y494803D01*
X1506302Y489803D01*
Y494803D01*
G01X1508616Y490470D02*
X1509122Y490053D01*
X1509693Y489803D01*
X1510199D01*
X1510706Y490053D01*
X1511086Y490470D01*
X1511276Y491053D01*
X1511149Y491636D01*
X1510832Y492137D01*
X1510262Y492470D01*
X1509502Y492637D01*
X1509059Y492970D01*
X1508869Y493553D01*
X1508996Y494137D01*
X1509312Y494553D01*
X1509756Y494803D01*
X1510199D01*
X1510643Y494637D01*
X1511022Y494220D01*
G01X1518562Y489803D02*
X1520146Y494803D01*
X1521729Y489803D01*
G01X1521159Y491553D02*
X1519132D01*
G01X1523979Y489803D02*
Y494803D01*
X1525562D01*
X1526069Y494553D01*
X1526386Y494220D01*
X1526512Y493553D01*
X1526386Y492887D01*
X1526006Y492470D01*
X1525562Y492220D01*
X1523979D01*
G01X1525562D02*
X1526512Y489803D01*
G01X1531612D02*
X1529079D01*
Y494803D01*
X1531612D01*
G01X1530599Y492387D02*
X1529079D01*
G01X1539786Y494803D02*
X1541306D01*
G01X1540546D02*
Y489803D01*
G01X1539786D02*
X1541306D01*
G01X1544189D02*
Y494803D01*
X1547102Y489803D01*
Y494803D01*
G01X1555086D02*
X1556606D01*
G01X1555846D02*
Y489803D01*
G01X1555086D02*
X1556606D01*
G01X1559489D02*
Y494803D01*
X1562402Y489803D01*
Y494803D01*
G01X1567439Y494387D02*
X1567059Y494637D01*
X1566616Y494803D01*
X1566109D01*
X1565539Y494553D01*
X1565096Y494137D01*
X1564779Y493637D01*
X1564526Y492803D01*
X1564462Y492053D01*
X1564589Y491303D01*
X1564779Y490803D01*
X1565159Y490303D01*
X1565602Y489970D01*
X1566046Y489803D01*
X1566489D01*
X1566932Y489970D01*
X1567312Y490220D01*
X1567629Y490553D01*
G01X1569816Y489803D02*
Y494803D01*
G01X1572476D02*
Y489803D01*
G01Y492303D02*
X1569816D01*
G01X1577512Y489803D02*
X1574979D01*
Y494803D01*
X1577512D01*
G01X1576499Y492387D02*
X1574979D01*
G01X1580016Y490470D02*
X1580522Y490053D01*
X1581093Y489803D01*
X1581599D01*
X1582106Y490053D01*
X1582486Y490470D01*
X1582676Y491053D01*
X1582549Y491636D01*
X1582232Y492137D01*
X1581662Y492470D01*
X1580902Y492637D01*
X1580459Y492970D01*
X1580269Y493553D01*
X1580396Y494137D01*
X1580712Y494553D01*
X1581156Y494803D01*
X1581599D01*
X1582043Y494637D01*
X1582422Y494220D01*
G01X1462652Y522303D02*
Y518720D01*
X1462906Y517970D01*
X1463412Y517470D01*
X1464046Y517303D01*
X1464679Y517470D01*
X1465186Y517970D01*
X1465439Y518720D01*
Y522303D01*
G01X1467689Y517303D02*
Y522303D01*
X1470602Y517303D01*
Y522303D01*
G01X1472979D02*
Y517303D01*
X1475512D01*
G01X1480612D02*
X1478079D01*
Y522303D01*
X1480612D01*
G01X1479599Y519887D02*
X1478079D01*
G01X1483116Y517970D02*
X1483622Y517553D01*
X1484193Y517303D01*
X1484699D01*
X1485206Y517553D01*
X1485586Y517970D01*
X1485776Y518553D01*
X1485649Y519136D01*
X1485332Y519637D01*
X1484762Y519970D01*
X1484002Y520137D01*
X1483559Y520470D01*
X1483369Y521053D01*
X1483496Y521637D01*
X1483812Y522053D01*
X1484256Y522303D01*
X1484699D01*
X1485143Y522137D01*
X1485522Y521720D01*
G01X1488216Y517970D02*
X1488722Y517553D01*
X1489293Y517303D01*
X1489799D01*
X1490306Y517553D01*
X1490686Y517970D01*
X1490876Y518553D01*
X1490749Y519136D01*
X1490432Y519637D01*
X1489862Y519970D01*
X1489102Y520137D01*
X1488659Y520470D01*
X1488469Y521053D01*
X1488596Y521637D01*
X1488912Y522053D01*
X1489356Y522303D01*
X1489799D01*
X1490243Y522137D01*
X1490622Y521720D01*
G01X1499746Y517303D02*
X1499239Y517387D01*
X1498796Y517720D01*
X1498416Y518220D01*
X1498162Y518803D01*
X1498035Y519470D01*
Y520137D01*
X1498162Y520803D01*
X1498416Y521387D01*
X1498796Y521887D01*
X1499239Y522220D01*
X1499746Y522303D01*
X1500252Y522220D01*
X1500696Y521887D01*
X1501076Y521387D01*
X1501329Y520803D01*
X1501456Y520137D01*
Y519470D01*
X1501329Y518803D01*
X1501076Y518220D01*
X1500696Y517720D01*
X1500252Y517387D01*
X1499746Y517303D01*
G01X1504846Y522303D02*
Y517303D01*
G01X1503389Y522303D02*
X1506302D01*
G01X1508616Y517303D02*
Y522303D01*
G01X1511276D02*
Y517303D01*
G01Y519803D02*
X1508616D01*
G01X1516312Y517303D02*
X1513779D01*
Y522303D01*
X1516312D01*
G01X1515299Y519887D02*
X1513779D01*
G01X1518879Y517303D02*
Y522303D01*
X1520462D01*
X1520969Y522053D01*
X1521286Y521720D01*
X1521412Y521053D01*
X1521286Y520387D01*
X1520906Y519970D01*
X1520462Y519720D01*
X1518879D01*
G01X1520462D02*
X1521412Y517303D01*
G01X1523346Y522303D02*
X1524232Y517303D01*
X1525246Y522303D01*
X1526259Y517303D01*
X1527146Y522303D01*
G01X1529586D02*
X1531106D01*
G01X1530346D02*
Y517303D01*
G01X1529586D02*
X1531106D01*
G01X1534116Y517970D02*
X1534622Y517553D01*
X1535193Y517303D01*
X1535699D01*
X1536206Y517553D01*
X1536586Y517970D01*
X1536776Y518553D01*
X1536649Y519136D01*
X1536332Y519637D01*
X1535762Y519970D01*
X1535002Y520137D01*
X1534559Y520470D01*
X1534369Y521053D01*
X1534496Y521637D01*
X1534812Y522053D01*
X1535256Y522303D01*
X1535699D01*
X1536143Y522137D01*
X1536522Y521720D01*
G01X1541812Y517303D02*
X1539279D01*
Y522303D01*
X1541812D01*
G01X1540799Y519887D02*
X1539279D01*
G01X1549416Y517970D02*
X1549922Y517553D01*
X1550493Y517303D01*
X1550999D01*
X1551506Y517553D01*
X1551886Y517970D01*
X1552076Y518553D01*
X1551949Y519136D01*
X1551632Y519637D01*
X1551062Y519970D01*
X1550302Y520137D01*
X1549859Y520470D01*
X1549669Y521053D01*
X1549796Y521637D01*
X1550112Y522053D01*
X1550556Y522303D01*
X1550999D01*
X1551443Y522137D01*
X1551822Y521720D01*
G01X1554579Y517303D02*
Y522303D01*
X1556099D01*
X1556606Y522053D01*
X1556986Y521470D01*
X1557112Y520803D01*
X1556986Y520137D01*
X1556669Y519637D01*
X1556099Y519386D01*
X1554579D01*
G01X1562212Y517303D02*
X1559679D01*
Y522303D01*
X1562212D01*
G01X1561199Y519887D02*
X1559679D01*
G01X1567439Y521887D02*
X1567059Y522137D01*
X1566616Y522303D01*
X1566109D01*
X1565539Y522053D01*
X1565096Y521637D01*
X1564779Y521137D01*
X1564526Y520303D01*
X1564462Y519553D01*
X1564589Y518803D01*
X1564779Y518303D01*
X1565159Y517803D01*
X1565602Y517470D01*
X1566046Y517303D01*
X1566489D01*
X1566932Y517470D01*
X1567312Y517720D01*
X1567629Y518053D01*
G01X1570386Y522303D02*
X1571906D01*
G01X1571146D02*
Y517303D01*
G01X1570386D02*
X1571906D01*
G01X1575042D02*
Y522303D01*
X1577449D01*
G01X1576562Y519887D02*
X1575042D01*
G01X1580586Y522303D02*
X1582106D01*
G01X1581346D02*
Y517303D01*
G01X1580586D02*
X1582106D01*
G01X1587712D02*
X1585179D01*
Y522303D01*
X1587712D01*
G01X1586699Y519887D02*
X1585179D01*
G01X1590152Y517303D02*
Y522303D01*
X1591419D01*
X1591926Y522053D01*
X1592306Y521720D01*
X1592622Y521220D01*
X1592876Y520636D01*
X1592939Y519803D01*
X1592876Y518970D01*
X1592622Y518386D01*
X1592306Y517886D01*
X1591926Y517553D01*
X1591419Y517303D01*
X1590152D01*
G01X1604646Y534803D02*
Y354803D01*
G01Y389803D02*
X1814646D01*
G01X1604646Y414803D02*
X1814646D01*
G01X1604646Y444803D02*
X1814646D01*
G01X1604646Y474803D02*
X1814646D01*
G01X1647851Y518143D02*
X1648477Y517618D01*
X1649182Y517303D01*
X1649809D01*
X1650436Y517618D01*
X1650906Y518143D01*
X1651141Y518878D01*
X1650984Y519613D01*
X1650592Y520243D01*
X1649887Y520663D01*
X1648947Y520873D01*
X1648399Y521293D01*
X1648164Y522028D01*
X1648321Y522763D01*
X1648712Y523288D01*
X1649261Y523603D01*
X1649809D01*
X1650357Y523393D01*
X1650828Y522868D01*
G01X1654856Y523603D02*
X1656735D01*
G01X1655796D02*
Y517303D01*
G01X1654856D02*
X1656735D01*
G01X1662566Y520453D02*
X1664132D01*
Y518563D01*
X1663662Y517933D01*
X1663114Y517513D01*
X1662331Y517303D01*
X1661547Y517513D01*
X1660999Y517933D01*
X1660529Y518563D01*
X1660216Y519298D01*
X1660059Y520138D01*
Y520873D01*
X1660216Y521503D01*
X1660529Y522238D01*
X1660999Y522868D01*
X1661469Y523288D01*
X1662096Y523603D01*
X1662644D01*
X1663270Y523393D01*
X1663741Y522973D01*
G01X1666594Y517303D02*
Y523603D01*
X1670197Y517303D01*
Y523603D01*
G01X1672737Y517303D02*
X1674696Y523603D01*
X1676654Y517303D01*
G01X1675949Y519508D02*
X1673442D01*
G01X1680996Y523603D02*
Y517303D01*
G01X1679194Y523603D02*
X1682797D01*
G01X1685572D02*
Y519088D01*
X1685885Y518143D01*
X1686512Y517513D01*
X1687296Y517303D01*
X1688079Y517513D01*
X1688706Y518143D01*
X1689019Y519088D01*
Y523603D01*
G01X1692029Y517303D02*
Y523603D01*
X1693987D01*
X1694614Y523288D01*
X1695006Y522868D01*
X1695162Y522028D01*
X1695006Y521188D01*
X1694536Y520663D01*
X1693987Y520348D01*
X1692029D01*
G01X1693987D02*
X1695162Y517303D01*
G01X1701462D02*
X1698329D01*
Y523603D01*
X1701462D01*
G01X1700209Y520558D02*
X1698329D01*
G01X1704551Y518143D02*
X1705177Y517618D01*
X1705882Y517303D01*
X1706509D01*
X1707136Y517618D01*
X1707606Y518143D01*
X1707841Y518878D01*
X1707684Y519613D01*
X1707292Y520243D01*
X1706587Y520663D01*
X1705647Y520873D01*
X1705099Y521293D01*
X1704864Y522028D01*
X1705021Y522763D01*
X1705412Y523288D01*
X1705961Y523603D01*
X1706509D01*
X1707057Y523393D01*
X1707528Y522868D01*
G01X1734646Y417303D02*
Y414803D01*
G01Y417303D02*
Y534803D01*
G01Y1304803D02*
Y1274803D01*
G01Y1394803D02*
Y1304803D01*
G01Y1334803D02*
X2234646D01*
G01X1734646Y1364803D02*
X2234646D01*
G01X1740896Y1344803D02*
Y1354803D01*
X1744020D01*
X1745020Y1354303D01*
X1745646Y1353637D01*
X1745896Y1352303D01*
X1745646Y1350970D01*
X1744896Y1350137D01*
X1744020Y1349636D01*
X1740896D01*
G01X1744020D02*
X1745896Y1344803D01*
G01X1755896D02*
X1750896D01*
Y1354803D01*
X1755896D01*
G01X1753896Y1349970D02*
X1750896D01*
G01X1760270Y1354803D02*
X1763396Y1344803D01*
X1766521Y1354803D01*
G01X1760272Y517303D02*
Y523603D01*
X1761839D01*
X1762466Y523288D01*
X1762936Y522868D01*
X1763328Y522238D01*
X1763641Y521503D01*
X1763719Y520453D01*
X1763641Y519403D01*
X1763328Y518668D01*
X1762936Y518038D01*
X1762466Y517618D01*
X1761839Y517303D01*
X1760272D01*
G01X1766337D02*
X1768296Y523603D01*
X1770254Y517303D01*
G01X1769549Y519508D02*
X1767042D01*
G01X1774596Y523603D02*
Y517303D01*
G01X1772794Y523603D02*
X1776397D01*
G01X1782462Y517303D02*
X1779329D01*
Y523603D01*
X1782462D01*
G01X1781209Y520558D02*
X1779329D01*
G01X1774646Y1304803D02*
Y1274803D01*
G01Y1304803D02*
Y1364803D01*
G01X1814646Y534803D02*
Y354803D01*
G01X2064646Y384803D02*
X1814646D01*
G01X2234646Y424803D02*
X1814646D01*
G01X2234646Y484803D02*
X1814646D01*
G01X1820770Y371136D02*
X1821771Y370303D01*
X1822896Y369803D01*
X1823896D01*
X1824896Y370303D01*
X1825646Y371136D01*
X1826021Y372303D01*
X1825771Y373470D01*
X1825146Y374470D01*
X1824020Y375137D01*
X1822521Y375470D01*
X1821646Y376136D01*
X1821270Y377303D01*
X1821521Y378470D01*
X1822146Y379303D01*
X1823020Y379803D01*
X1823896D01*
X1824771Y379470D01*
X1825521Y378637D01*
G01X1836146Y378970D02*
X1835396Y379470D01*
X1834521Y379803D01*
X1833521D01*
X1832396Y379303D01*
X1831521Y378470D01*
X1830896Y377470D01*
X1830396Y375803D01*
X1830270Y374303D01*
X1830521Y372803D01*
X1830896Y371803D01*
X1831646Y370803D01*
X1832521Y370136D01*
X1833396Y369803D01*
X1834270D01*
X1835146Y370136D01*
X1835896Y370636D01*
X1836521Y371303D01*
G01X1840270Y369803D02*
X1843396Y379803D01*
X1846521Y369803D01*
G01X1845396Y373303D02*
X1841396D01*
G01X1850896Y379803D02*
Y369803D01*
X1855896D01*
G01X1865896D02*
X1860896D01*
Y379803D01*
X1865896D01*
G01X1863896Y374970D02*
X1860896D01*
G01X1820770Y411136D02*
X1821771Y410303D01*
X1822896Y409803D01*
X1823896D01*
X1824896Y410303D01*
X1825646Y411136D01*
X1826021Y412303D01*
X1825771Y413470D01*
X1825146Y414470D01*
X1824020Y415137D01*
X1822521Y415470D01*
X1821646Y416136D01*
X1821270Y417303D01*
X1821521Y418470D01*
X1822146Y419303D01*
X1823020Y419803D01*
X1823896D01*
X1824771Y419470D01*
X1825521Y418637D01*
G01X1831896Y419803D02*
X1834895D01*
G01X1833396D02*
Y409803D01*
G01X1831896D02*
X1834895D01*
G01X1841020Y419803D02*
X1845771D01*
X1841020Y409803D01*
X1845771D01*
G01X1855896D02*
X1850896D01*
Y419803D01*
X1855896D01*
G01X1853896Y414970D02*
X1850896D01*
G01X1845646Y1344803D02*
Y1354803D01*
X1848146D01*
X1849146Y1354303D01*
X1849896Y1353637D01*
X1850521Y1352637D01*
X1851021Y1351470D01*
X1851146Y1349803D01*
X1851021Y1348136D01*
X1850521Y1346970D01*
X1849896Y1345970D01*
X1849146Y1345303D01*
X1848146Y1344803D01*
X1845646D01*
G01X1860896D02*
X1855896D01*
Y1354803D01*
X1860896D01*
G01X1858896Y1349970D02*
X1855896D01*
G01X1865770Y1346136D02*
X1866771Y1345303D01*
X1867896Y1344803D01*
X1868896D01*
X1869896Y1345303D01*
X1870646Y1346136D01*
X1871021Y1347303D01*
X1870771Y1348470D01*
X1870146Y1349470D01*
X1869020Y1350137D01*
X1867521Y1350470D01*
X1866646Y1351136D01*
X1866270Y1352303D01*
X1866521Y1353470D01*
X1867146Y1354303D01*
X1868020Y1354803D01*
X1868896D01*
X1869771Y1354470D01*
X1870521Y1353637D01*
G01X1881146Y1353970D02*
X1880396Y1354470D01*
X1879521Y1354803D01*
X1878521D01*
X1877396Y1354303D01*
X1876521Y1353470D01*
X1875896Y1352470D01*
X1875396Y1350803D01*
X1875270Y1349303D01*
X1875521Y1347803D01*
X1875896Y1346803D01*
X1876646Y1345803D01*
X1877521Y1345136D01*
X1878396Y1344803D01*
X1879270D01*
X1880146Y1345136D01*
X1880896Y1345636D01*
X1881521Y1346303D01*
G01X1885896Y1344803D02*
Y1354803D01*
X1889020D01*
X1890020Y1354303D01*
X1890646Y1353637D01*
X1890896Y1352303D01*
X1890646Y1350970D01*
X1889896Y1350137D01*
X1889020Y1349636D01*
X1885896D01*
G01X1889020D02*
X1890896Y1344803D01*
G01X1896896Y1354803D02*
X1899895D01*
G01X1898396D02*
Y1344803D01*
G01X1896896D02*
X1899895D01*
G01X1905896D02*
Y1354803D01*
X1908896D01*
X1909896Y1354303D01*
X1910646Y1353137D01*
X1910896Y1351803D01*
X1910646Y1350470D01*
X1910020Y1349470D01*
X1908896Y1348970D01*
X1905896D01*
G01X1918396Y1354803D02*
Y1344803D01*
G01X1915521Y1354803D02*
X1921270D01*
G01X1926896D02*
X1929895D01*
G01X1928396D02*
Y1344803D01*
G01X1926896D02*
X1929895D01*
G01X1938396D02*
X1937396Y1344970D01*
X1936521Y1345636D01*
X1935770Y1346636D01*
X1935270Y1347803D01*
X1935020Y1349137D01*
Y1350470D01*
X1935270Y1351803D01*
X1935770Y1352970D01*
X1936521Y1353970D01*
X1937396Y1354637D01*
X1938396Y1354803D01*
X1939396Y1354637D01*
X1940270Y1353970D01*
X1941021Y1352970D01*
X1941521Y1351803D01*
X1941771Y1350470D01*
Y1349137D01*
X1941521Y1347803D01*
X1941021Y1346636D01*
X1940270Y1345636D01*
X1939396Y1344970D01*
X1938396Y1344803D01*
G01X1945521D02*
Y1354803D01*
X1951270Y1344803D01*
Y1354803D01*
G01X1864646Y384803D02*
Y424803D01*
G01X1876020Y409803D02*
Y419803D01*
X1880771D01*
G01X1879020Y414970D02*
X1876020D01*
G01X1885770Y411136D02*
X1886771Y410303D01*
X1887896Y409803D01*
X1888896D01*
X1889896Y410303D01*
X1890646Y411136D01*
X1891021Y412303D01*
X1890771Y413470D01*
X1890146Y414470D01*
X1889020Y415137D01*
X1887521Y415470D01*
X1886646Y416136D01*
X1886270Y417303D01*
X1886521Y418470D01*
X1887146Y419303D01*
X1888020Y419803D01*
X1888896D01*
X1889771Y419470D01*
X1890521Y418637D01*
G01X1901146Y418970D02*
X1900396Y419470D01*
X1899521Y419803D01*
X1898521D01*
X1897396Y419303D01*
X1896521Y418470D01*
X1895896Y417470D01*
X1895396Y415803D01*
X1895270Y414303D01*
X1895521Y412803D01*
X1895896Y411803D01*
X1896646Y410803D01*
X1897521Y410136D01*
X1898396Y409803D01*
X1899270D01*
X1900146Y410136D01*
X1900896Y410636D01*
X1901521Y411303D01*
G01X1905146Y409803D02*
Y419803D01*
X1908396Y411470D01*
X1911646Y419803D01*
Y409803D01*
G01X1925521D02*
Y419803D01*
X1931270Y409803D01*
Y419803D01*
G01X1938396Y409803D02*
X1937396Y409970D01*
X1936521Y410636D01*
X1935770Y411636D01*
X1935270Y412803D01*
X1935020Y414137D01*
Y415470D01*
X1935270Y416803D01*
X1935770Y417970D01*
X1936521Y418970D01*
X1937396Y419637D01*
X1938396Y419803D01*
X1939396Y419637D01*
X1940270Y418970D01*
X1941021Y417970D01*
X1941521Y416803D01*
X1941771Y415470D01*
Y414137D01*
X1941521Y412803D01*
X1941021Y411636D01*
X1940270Y410636D01*
X1939396Y409970D01*
X1938396Y409803D01*
G01X1885521Y504803D02*
Y514803D01*
X1891270Y504803D01*
Y514803D01*
G01X1898396Y504803D02*
Y509303D01*
X1895896Y514803D01*
G01X1900896D02*
X1898396Y509303D01*
G01X1905646Y514803D02*
Y507637D01*
X1906146Y506136D01*
X1907146Y505136D01*
X1908396Y504803D01*
X1909646Y505136D01*
X1910646Y506136D01*
X1911146Y507637D01*
Y514803D01*
G01X1925521Y504803D02*
Y514803D01*
X1931270Y504803D01*
Y514803D01*
G01X1935270Y504803D02*
X1938396Y514803D01*
X1941521Y504803D01*
G01X1940396Y508303D02*
X1936396D01*
G01X1945521Y504803D02*
Y514803D01*
X1951270Y504803D01*
Y514803D01*
G01X1958396Y504803D02*
X1957396Y504970D01*
X1956521Y505636D01*
X1955770Y506636D01*
X1955270Y507803D01*
X1955020Y509137D01*
Y510470D01*
X1955270Y511803D01*
X1955770Y512970D01*
X1956521Y513970D01*
X1957396Y514637D01*
X1958396Y514803D01*
X1959396Y514637D01*
X1960270Y513970D01*
X1961021Y512970D01*
X1961521Y511803D01*
X1961771Y510470D01*
Y509137D01*
X1961521Y507803D01*
X1961021Y506636D01*
X1960270Y505636D01*
X1959396Y504970D01*
X1958396Y504803D01*
G01X1970896D02*
X1965896D01*
Y514803D01*
X1970896D01*
G01X1968896Y509970D02*
X1965896D01*
G01X1975896Y514803D02*
Y504803D01*
X1980896D01*
G01X1990896D02*
X1985896D01*
Y514803D01*
X1990896D01*
G01X1988896Y509970D02*
X1985896D01*
G01X2001146Y513970D02*
X2000396Y514470D01*
X1999521Y514803D01*
X1998521D01*
X1997396Y514303D01*
X1996521Y513470D01*
X1995896Y512470D01*
X1995396Y510803D01*
X1995270Y509303D01*
X1995521Y507803D01*
X1995896Y506803D01*
X1996646Y505803D01*
X1997521Y505136D01*
X1998396Y504803D01*
X1999270D01*
X2000146Y505136D01*
X2000896Y505636D01*
X2001521Y506303D01*
G01X2008396Y514803D02*
Y504803D01*
G01X2005521Y514803D02*
X2011270D01*
G01X2015896Y504803D02*
Y514803D01*
X2019020D01*
X2020020Y514303D01*
X2020646Y513637D01*
X2020896Y512303D01*
X2020646Y510970D01*
X2019896Y510137D01*
X2019020Y509636D01*
X2015896D01*
G01X2019020D02*
X2020896Y504803D01*
G01X2028396D02*
X2027396Y504970D01*
X2026521Y505636D01*
X2025770Y506636D01*
X2025270Y507803D01*
X2025020Y509137D01*
Y510470D01*
X2025270Y511803D01*
X2025770Y512970D01*
X2026521Y513970D01*
X2027396Y514637D01*
X2028396Y514803D01*
X2029396Y514637D01*
X2030270Y513970D01*
X2031021Y512970D01*
X2031521Y511803D01*
X2031771Y510470D01*
Y509137D01*
X2031521Y507803D01*
X2031021Y506636D01*
X2030270Y505636D01*
X2029396Y504970D01*
X2028396Y504803D01*
G01X2035521D02*
Y514803D01*
X2041270Y504803D01*
Y514803D01*
G01X2046896D02*
X2049895D01*
G01X2048396D02*
Y504803D01*
G01X2046896D02*
X2049895D01*
G01X2061146Y513970D02*
X2060396Y514470D01*
X2059521Y514803D01*
X2058521D01*
X2057396Y514303D01*
X2056521Y513470D01*
X2055896Y512470D01*
X2055396Y510803D01*
X2055270Y509303D01*
X2055521Y507803D01*
X2055896Y506803D01*
X2056646Y505803D01*
X2057521Y505136D01*
X2058396Y504803D01*
X2059270D01*
X2060146Y505136D01*
X2060896Y505636D01*
X2061521Y506303D01*
G01X2065770Y506136D02*
X2066771Y505303D01*
X2067896Y504803D01*
X2068896D01*
X2069896Y505303D01*
X2070646Y506136D01*
X2071021Y507303D01*
X2070771Y508470D01*
X2070146Y509470D01*
X2069020Y510137D01*
X2067521Y510470D01*
X2066646Y511136D01*
X2066270Y512303D01*
X2066521Y513470D01*
X2067146Y514303D01*
X2068020Y514803D01*
X2068896D01*
X2069771Y514470D01*
X2070521Y513637D01*
G01X2085896Y514803D02*
Y504803D01*
X2090896D01*
G01X2095270D02*
X2098396Y514803D01*
X2101521Y504803D01*
G01X2100396Y508303D02*
X2096396D01*
G01X2109396Y510137D02*
X2109896Y510637D01*
X2110270Y511470D01*
X2110521Y512637D01*
X2110270Y513637D01*
X2109771Y514303D01*
X2108896Y514803D01*
X2105521D01*
Y504803D01*
X2109646D01*
X2110521Y505470D01*
X2111021Y506470D01*
X2111270Y507637D01*
X2111021Y508803D01*
X2110270Y509803D01*
X2109396Y510137D01*
X2105521D01*
G01X2118396Y504803D02*
X2117396Y504970D01*
X2116521Y505636D01*
X2115770Y506636D01*
X2115270Y507803D01*
X2115020Y509137D01*
Y510470D01*
X2115270Y511803D01*
X2115770Y512970D01*
X2116521Y513970D01*
X2117396Y514637D01*
X2118396Y514803D01*
X2119396Y514637D01*
X2120270Y513970D01*
X2121021Y512970D01*
X2121521Y511803D01*
X2121771Y510470D01*
Y509137D01*
X2121521Y507803D01*
X2121021Y506636D01*
X2120270Y505636D01*
X2119396Y504970D01*
X2118396Y504803D01*
G01X2125896D02*
Y514803D01*
X2129020D01*
X2130020Y514303D01*
X2130646Y513637D01*
X2130896Y512303D01*
X2130646Y510970D01*
X2129896Y510137D01*
X2129020Y509636D01*
X2125896D01*
G01X2129020D02*
X2130896Y504803D01*
G01X2135270D02*
X2138396Y514803D01*
X2141521Y504803D01*
G01X2140396Y508303D02*
X2136396D01*
G01X2148396Y514803D02*
Y504803D01*
G01X2145521Y514803D02*
X2151270D01*
G01X2158396Y504803D02*
X2157396Y504970D01*
X2156521Y505636D01*
X2155770Y506636D01*
X2155270Y507803D01*
X2155020Y509137D01*
Y510470D01*
X2155270Y511803D01*
X2155770Y512970D01*
X2156521Y513970D01*
X2157396Y514637D01*
X2158396Y514803D01*
X2159396Y514637D01*
X2160270Y513970D01*
X2161021Y512970D01*
X2161521Y511803D01*
X2161771Y510470D01*
Y509137D01*
X2161521Y507803D01*
X2161021Y506636D01*
X2160270Y505636D01*
X2159396Y504970D01*
X2158396Y504803D01*
G01X2165896D02*
Y514803D01*
X2169020D01*
X2170020Y514303D01*
X2170646Y513637D01*
X2170896Y512303D01*
X2170646Y510970D01*
X2169896Y510137D01*
X2169020Y509636D01*
X2165896D01*
G01X2169020D02*
X2170896Y504803D01*
G01X2178396D02*
Y509303D01*
X2175896Y514803D01*
G01X2180896D02*
X2178396Y509303D01*
G01X1904646Y384803D02*
Y354803D01*
G01X1950896Y1374803D02*
Y1384803D01*
X1954020D01*
X1955020Y1384303D01*
X1955646Y1383637D01*
X1955896Y1382303D01*
X1955646Y1380970D01*
X1954896Y1380137D01*
X1954020Y1379636D01*
X1950896D01*
G01X1954020D02*
X1955896Y1374803D01*
G01X1965896D02*
X1960896D01*
Y1384803D01*
X1965896D01*
G01X1963896Y1379970D02*
X1960896D01*
G01X1970270Y1384803D02*
X1973396Y1374803D01*
X1976521Y1384803D01*
G01X1981896D02*
X1984895D01*
G01X1983396D02*
Y1374803D01*
G01X1981896D02*
X1984895D01*
G01X1990770Y1376136D02*
X1991771Y1375303D01*
X1992896Y1374803D01*
X1993896D01*
X1994896Y1375303D01*
X1995646Y1376136D01*
X1996021Y1377303D01*
X1995771Y1378470D01*
X1995146Y1379470D01*
X1994020Y1380137D01*
X1992521Y1380470D01*
X1991646Y1381136D01*
X1991270Y1382303D01*
X1991521Y1383470D01*
X1992146Y1384303D01*
X1993020Y1384803D01*
X1993896D01*
X1994771Y1384470D01*
X1995521Y1383637D01*
G01X2001896Y1384803D02*
X2004895D01*
G01X2003396D02*
Y1374803D01*
G01X2001896D02*
X2004895D01*
G01X2013396D02*
X2012396Y1374970D01*
X2011521Y1375636D01*
X2010770Y1376636D01*
X2010270Y1377803D01*
X2010020Y1379137D01*
Y1380470D01*
X2010270Y1381803D01*
X2010770Y1382970D01*
X2011521Y1383970D01*
X2012396Y1384637D01*
X2013396Y1384803D01*
X2014396Y1384637D01*
X2015270Y1383970D01*
X2016021Y1382970D01*
X2016521Y1381803D01*
X2016771Y1380470D01*
Y1379137D01*
X2016521Y1377803D01*
X2016021Y1376636D01*
X2015270Y1375636D01*
X2014396Y1374970D01*
X2013396Y1374803D01*
G01X2020521D02*
Y1384803D01*
X2026270Y1374803D01*
Y1384803D01*
G01X2030770Y1376136D02*
X2031771Y1375303D01*
X2032896Y1374803D01*
X2033896D01*
X2034896Y1375303D01*
X2035646Y1376136D01*
X2036021Y1377303D01*
X2035771Y1378470D01*
X2035146Y1379470D01*
X2034020Y1380137D01*
X2032521Y1380470D01*
X2031646Y1381136D01*
X2031270Y1382303D01*
X2031521Y1383470D01*
X2032146Y1384303D01*
X2033020Y1384803D01*
X2033896D01*
X2034771Y1384470D01*
X2035521Y1383637D01*
G01X1967910Y450787D02*
Y460787D01*
X1972661D01*
G01X1970910Y455954D02*
X1967910D01*
G01X1977660Y452120D02*
X1978661Y451287D01*
X1979785Y450787D01*
X1980785D01*
X1981785Y451287D01*
X1982535Y452120D01*
X1982911Y453287D01*
X1982661Y454454D01*
X1982035Y455454D01*
X1980910Y456121D01*
X1979411Y456454D01*
X1978535Y457120D01*
X1978160Y458287D01*
X1978411Y459454D01*
X1979035Y460287D01*
X1979910Y460787D01*
X1980785D01*
X1981661Y460454D01*
X1982411Y459621D01*
G01X1993035Y459954D02*
X1992285Y460454D01*
X1991411Y460787D01*
X1990411D01*
X1989285Y460287D01*
X1988411Y459454D01*
X1987785Y458454D01*
X1987285Y456787D01*
X1987160Y455287D01*
X1987411Y453787D01*
X1987785Y452787D01*
X1988535Y451787D01*
X1989411Y451120D01*
X1990285Y450787D01*
X1991160D01*
X1992035Y451120D01*
X1992785Y451620D01*
X1993411Y452287D01*
G01X1997160Y460787D02*
X2000285Y450787D01*
X2003411Y460787D01*
G01X2021285Y456121D02*
X2021785Y456621D01*
X2022160Y457454D01*
X2022411Y458621D01*
X2022160Y459621D01*
X2021661Y460287D01*
X2020785Y460787D01*
X2017411D01*
Y450787D01*
X2021535D01*
X2022411Y451454D01*
X2022911Y452454D01*
X2023160Y453621D01*
X2022911Y454787D01*
X2022160Y455787D01*
X2021285Y456121D01*
X2017411D01*
G01X2030285Y450787D02*
X2029285Y450954D01*
X2028411Y451620D01*
X2027660Y452620D01*
X2027160Y453787D01*
X2026910Y455121D01*
Y456454D01*
X2027160Y457787D01*
X2027660Y458954D01*
X2028411Y459954D01*
X2029285Y460621D01*
X2030285Y460787D01*
X2031285Y460621D01*
X2032160Y459954D01*
X2032911Y458954D01*
X2033411Y457787D01*
X2033661Y456454D01*
Y455121D01*
X2033411Y453787D01*
X2032911Y452620D01*
X2032160Y451620D01*
X2031285Y450954D01*
X2030285Y450787D01*
G01X2037160D02*
X2040285Y460787D01*
X2043411Y450787D01*
G01X2042285Y454287D02*
X2038285D01*
G01X2047785Y450787D02*
Y460787D01*
X2050910D01*
X2051910Y460287D01*
X2052535Y459621D01*
X2052785Y458287D01*
X2052535Y456954D01*
X2051785Y456121D01*
X2050910Y455620D01*
X2047785D01*
G01X2050910D02*
X2052785Y450787D01*
G01X2057535D02*
Y460787D01*
X2060035D01*
X2061035Y460287D01*
X2061785Y459621D01*
X2062411Y458621D01*
X2062911Y457454D01*
X2063035Y455787D01*
X2062911Y454120D01*
X2062411Y452954D01*
X2061785Y451954D01*
X2061035Y451287D01*
X2060035Y450787D01*
X2057535D01*
G01X1984646Y384803D02*
Y424803D01*
G01X1995646Y409803D02*
Y419803D01*
X1998146D01*
X1999146Y419303D01*
X1999896Y418637D01*
X2000521Y417637D01*
X2001021Y416470D01*
X2001146Y414803D01*
X2001021Y413136D01*
X2000521Y411970D01*
X1999896Y410970D01*
X1999146Y410303D01*
X1998146Y409803D01*
X1995646D01*
G01X2004646Y419803D02*
X2006396Y409803D01*
X2008396Y419803D01*
X2010396Y409803D01*
X2012146Y419803D01*
G01X2019146Y414803D02*
X2021646D01*
Y411803D01*
X2020896Y410803D01*
X2020020Y410136D01*
X2018771Y409803D01*
X2017521Y410136D01*
X2016646Y410803D01*
X2015896Y411803D01*
X2015396Y412970D01*
X2015146Y414303D01*
Y415470D01*
X2015396Y416470D01*
X2015896Y417637D01*
X2016646Y418637D01*
X2017396Y419303D01*
X2018396Y419803D01*
X2019270D01*
X2020270Y419470D01*
X2021021Y418803D01*
G01X2035521Y409803D02*
Y419803D01*
X2041270Y409803D01*
Y419803D01*
G01X2048396Y409803D02*
X2047396Y409970D01*
X2046521Y410636D01*
X2045770Y411636D01*
X2045270Y412803D01*
X2045020Y414137D01*
Y415470D01*
X2045270Y416803D01*
X2045770Y417970D01*
X2046521Y418970D01*
X2047396Y419637D01*
X2048396Y419803D01*
X2049396Y419637D01*
X2050270Y418970D01*
X2051021Y417970D01*
X2051521Y416803D01*
X2051771Y415470D01*
Y414137D01*
X2051521Y412803D01*
X2051021Y411636D01*
X2050270Y410636D01*
X2049396Y409970D01*
X2048396Y409803D01*
G01X2044646Y1304803D02*
Y1274803D01*
G01Y1294803D02*
Y1334803D01*
G01D02*
Y1364803D01*
G01X2064646Y354803D02*
Y384803D01*
X2234646D01*
G01X2075770Y371136D02*
X2076771Y370303D01*
X2077896Y369803D01*
X2078896D01*
X2079896Y370303D01*
X2080646Y371136D01*
X2081021Y372303D01*
X2080771Y373470D01*
X2080146Y374470D01*
X2079020Y375137D01*
X2077521Y375470D01*
X2076646Y376136D01*
X2076270Y377303D01*
X2076521Y378470D01*
X2077146Y379303D01*
X2078020Y379803D01*
X2078896D01*
X2079771Y379470D01*
X2080521Y378637D01*
G01X2085770Y369803D02*
Y379803D01*
G01X2091021D02*
Y369803D01*
G01Y374803D02*
X2085770D01*
G01X2100896Y369803D02*
X2095896D01*
Y379803D01*
X2100896D01*
G01X2098896Y374970D02*
X2095896D01*
G01X2110896Y369803D02*
X2105896D01*
Y379803D01*
X2110896D01*
G01X2108896Y374970D02*
X2105896D01*
G01X2118396Y379803D02*
Y369803D01*
G01X2115521Y379803D02*
X2121270D01*
G01X2070646Y1344803D02*
Y1354803D01*
X2073146D01*
X2074146Y1354303D01*
X2074896Y1353637D01*
X2075521Y1352637D01*
X2076021Y1351470D01*
X2076146Y1349803D01*
X2076021Y1348136D01*
X2075521Y1346970D01*
X2074896Y1345970D01*
X2074146Y1345303D01*
X2073146Y1344803D01*
X2070646D01*
G01X2080270D02*
X2083396Y1354803D01*
X2086521Y1344803D01*
G01X2085396Y1348303D02*
X2081396D01*
G01X2093396Y1354803D02*
Y1344803D01*
G01X2090521Y1354803D02*
X2096270D01*
G01X2105896Y1344803D02*
X2100896D01*
Y1354803D01*
X2105896D01*
G01X2103896Y1349970D02*
X2100896D01*
G01X2134646Y1304803D02*
Y1274803D01*
G01Y1304803D02*
Y1334803D01*
G01D02*
Y1364803D01*
G01X2145270Y1344803D02*
X2148396Y1354803D01*
X2151521Y1344803D01*
G01X2150396Y1348303D02*
X2146396D01*
G01X2155896Y1344803D02*
Y1354803D01*
X2158896D01*
X2159896Y1354303D01*
X2160646Y1353137D01*
X2160896Y1351803D01*
X2160646Y1350470D01*
X2160020Y1349470D01*
X2158896Y1348970D01*
X2155896D01*
G01X2165896Y1344803D02*
Y1354803D01*
X2168896D01*
X2169896Y1354303D01*
X2170646Y1353137D01*
X2170896Y1351803D01*
X2170646Y1350470D01*
X2170020Y1349470D01*
X2168896Y1348970D01*
X2165896D01*
G01X2175896Y1344803D02*
Y1354803D01*
X2179020D01*
X2180020Y1354303D01*
X2180646Y1353637D01*
X2180896Y1352303D01*
X2180646Y1350970D01*
X2179896Y1350137D01*
X2179020Y1349636D01*
X2175896D01*
G01X2179020D02*
X2180896Y1344803D01*
G01X2188396D02*
X2187396Y1344970D01*
X2186521Y1345636D01*
X2185770Y1346636D01*
X2185270Y1347803D01*
X2185020Y1349137D01*
Y1350470D01*
X2185270Y1351803D01*
X2185770Y1352970D01*
X2186521Y1353970D01*
X2187396Y1354637D01*
X2188396Y1354803D01*
X2189396Y1354637D01*
X2190270Y1353970D01*
X2191021Y1352970D01*
X2191521Y1351803D01*
X2191771Y1350470D01*
Y1349137D01*
X2191521Y1347803D01*
X2191021Y1346636D01*
X2190270Y1345636D01*
X2189396Y1344970D01*
X2188396Y1344803D01*
G01X2195270Y1354803D02*
X2198396Y1344803D01*
X2201521Y1354803D01*
G01X2210896Y1344803D02*
X2205896D01*
Y1354803D01*
X2210896D01*
G01X2208896Y1349970D02*
X2205896D01*
G01X2215646Y1344803D02*
Y1354803D01*
X2218146D01*
X2219146Y1354303D01*
X2219896Y1353637D01*
X2220521Y1352637D01*
X2221021Y1351470D01*
X2221146Y1349803D01*
X2221021Y1348136D01*
X2220521Y1346970D01*
X2219896Y1345970D01*
X2219146Y1345303D01*
X2218146Y1344803D01*
X2215646D01*
G01X2234646Y1394803D02*
Y1274803D01*
G54D15*
X810295Y921319D03*
G54D16*
Y937551D03*
X833228Y862500D03*
X834311Y937551D03*
X860335Y606201D03*
X852933Y770000D03*
X857736Y817500D03*
X847500Y812500D03*
X855000Y820000D03*
X860000Y805000D03*
X860335Y846457D03*
X877913Y599232D03*
X865000Y616280D03*
X873386Y614398D03*
X868858Y601791D03*
X877913Y604350D03*
X875020Y748189D03*
X877067Y760000D03*
X864167Y778898D03*
X862500Y817500D03*
X873484Y820716D03*
X862500Y802500D03*
X871516Y829212D03*
X879685Y855000D03*
X868898Y847047D03*
X876850Y842500D03*
X877500Y870000D03*
X875295Y887650D03*
X870177D03*
X872736Y895382D03*
X862657Y909055D03*
X872736Y915354D03*
X900000Y567500D03*
X882500Y570000D03*
X896614Y614398D03*
X891102Y651299D03*
Y688720D03*
Y726142D03*
X900000Y777149D03*
X899162Y859055D03*
X883150Y842500D03*
X885000Y907500D03*
X900524Y901398D03*
X902982Y597982D03*
X910000Y605000D03*
X905000Y616280D03*
X909213Y656417D03*
X910787Y648740D03*
Y653858D03*
X905059Y645000D03*
X909213Y693839D03*
X910787Y686161D03*
Y691280D03*
X905059Y683307D03*
Y720728D03*
X909213Y731260D03*
X910787Y723583D03*
Y728701D03*
X917520Y749252D03*
X914704Y777149D03*
X918799Y810000D03*
X903827Y869134D03*
X908071Y887650D03*
X905512Y895382D03*
X902953Y887650D03*
X915295Y909055D03*
X905512Y915354D03*
X936102Y613720D03*
Y651142D03*
Y688563D03*
X923784Y758661D03*
Y772520D03*
X938563Y786378D03*
X938661Y805384D03*
X925913Y858268D03*
X937697Y895382D03*
X940256Y887650D03*
X935138D03*
X932709Y901398D03*
X937697Y915354D03*
X957500Y582500D03*
X955787Y611161D03*
Y616280D03*
X950000Y607500D03*
X950059Y621268D03*
X952638Y660000D03*
X955787Y648583D03*
X950059Y645000D03*
Y697500D03*
X955787Y686004D03*
X950059Y683150D03*
X957028Y716417D03*
X947480Y909055D03*
X979902Y613720D03*
X965000Y653701D03*
X979902Y651142D03*
X964094Y691122D03*
X979902Y688563D03*
Y725984D03*
Y763406D03*
X962500Y798189D03*
X979902Y800827D03*
X966535Y906201D03*
X997607Y577607D03*
X1000000Y567500D03*
X999587Y611161D03*
X997500Y605000D03*
X999587Y616280D03*
X993858Y607500D03*
Y622500D03*
Y660000D03*
X999587Y648583D03*
Y653701D03*
X993858Y645728D03*
Y697500D03*
X999587Y686004D03*
Y691122D03*
X993858Y683150D03*
Y720571D03*
Y735000D03*
X999587Y723425D03*
Y728543D03*
X993858Y757992D03*
Y772500D03*
X999587Y760846D03*
Y765965D03*
X998012Y798268D03*
X993858Y792500D03*
X998012Y805945D03*
X999587Y803386D03*
X984358Y911319D03*
X986508Y906201D03*
X995000Y910000D03*
X994240Y903642D03*
X984358D03*
X1017500Y565000D03*
X1012500Y570000D03*
X1017500Y572500D03*
X1014665Y898799D03*
X1017547Y908354D03*
X1020736Y912500D03*
X1030000Y560000D03*
X1028228Y600728D03*
X1035000Y699921D03*
Y713780D03*
X1027421Y760425D03*
X1030000Y775000D03*
X1031102Y818720D03*
X1028346Y866299D03*
X1034594Y872500D03*
X1027783Y899874D03*
X1025384Y886483D03*
X1023346Y888799D03*
X1027783Y885126D03*
X1022665Y898799D03*
X1034594Y912500D03*
X1059734Y572234D03*
X1060000Y565000D03*
X1055000Y577500D03*
X1049528Y658917D03*
X1047626Y696732D03*
X1047913Y706969D03*
X1060000Y701850D03*
X1043386Y711898D03*
X1060059Y733307D03*
X1046102Y738720D03*
X1042500Y760425D03*
X1057579D03*
Y775000D03*
X1042500D03*
X1050787Y816161D03*
X1045059Y813307D03*
X1049213Y823839D03*
X1050787Y821280D03*
X1059252Y894223D03*
X1067500Y572234D03*
X1071969Y562500D03*
X1070000Y565000D03*
X1067500Y575000D03*
X1075000Y582500D03*
X1072500Y697500D03*
X1066614Y711898D03*
X1072500Y715000D03*
X1069941Y732500D03*
X1064213Y743839D03*
X1065787Y741280D03*
X1063644Y899252D03*
X1072500Y900000D03*
X1065551Y884193D03*
X1063644Y904370D03*
X1077500Y906929D03*
X1092500Y565000D03*
X1082028Y631417D03*
X1082500Y703701D03*
X1097913Y794154D03*
X1093701Y820256D03*
X1091614Y804232D03*
X1082480Y894510D03*
X1086728Y899252D03*
X1087016Y909488D03*
X1086728Y914606D03*
X1107500Y565000D03*
X1120000Y585000D03*
X1115059Y616122D03*
X1119213Y626654D03*
X1101102Y621535D03*
X1112500Y653543D03*
X1101102Y658957D03*
X1119213Y664075D03*
X1112500Y690965D03*
X1101102Y696378D03*
X1119213Y701496D03*
Y738917D03*
X1112500Y728386D03*
X1101102Y733799D03*
X1119213Y776339D03*
X1112500Y765807D03*
X1101102Y771220D03*
X1115453Y797500D03*
X1105571Y812067D03*
X1110000Y802500D03*
X1119606Y806791D03*
X1117436Y834213D03*
X1103686Y821630D03*
X1120787Y618976D03*
Y624094D03*
Y656398D03*
Y661516D03*
Y693819D03*
Y698937D03*
X1121075Y731240D03*
X1120787Y736358D03*
Y768661D03*
Y773780D03*
X1133071Y843169D03*
X1158366Y723228D03*
X1154587Y767894D03*
X1155760Y816181D03*
X1146949Y823150D03*
X1151614Y833228D03*
X1155760Y846181D03*
X1146949Y853150D03*
X1151614Y863228D03*
X1175000Y547500D03*
X1168602Y611220D03*
X1174646Y709350D03*
X1161398Y740807D03*
X1166516Y740520D03*
X1171634Y732039D03*
X1162500Y722500D03*
X1166516Y754980D03*
X1164665Y772559D03*
X1164528Y826417D03*
X1164240Y821299D03*
X1178988D03*
X1164240Y856417D03*
Y851299D03*
X1178988D03*
X1198799Y527205D03*
X1192500Y537283D03*
X1194587Y553307D03*
X1182559Y620000D03*
X1188287Y608661D03*
Y613780D03*
X1182559Y605807D03*
X1197559Y669980D03*
X1183602Y694003D03*
X1190750Y684893D03*
X1193602Y685328D03*
X1191398Y740807D03*
X1196516Y740520D03*
X1194665Y723228D03*
X1188366D03*
X1196516Y754980D03*
X1194665Y772559D03*
X1184587Y767894D03*
X1196280Y823150D03*
X1191614Y833228D03*
X1196280Y853150D03*
X1191614Y863228D03*
X1220205Y539843D03*
Y534724D03*
X1206457Y544831D03*
X1209934Y557264D03*
X1218609Y567264D03*
X1209499Y564412D03*
X1213583Y667894D03*
X1206035Y681850D03*
X1218571Y691732D03*
X1211024Y695598D03*
X1201634Y732039D03*
X1233957Y576220D03*
X1223661Y674193D03*
X1231102Y843720D03*
X1256646Y549232D03*
X1247835Y556201D03*
X1256646Y579232D03*
X1252500Y566280D03*
X1247835Y586201D03*
X1252500Y596280D03*
X1242500Y602500D03*
X1245059Y838307D03*
X1249213Y848839D03*
X1250787Y841161D03*
Y846280D03*
X1265126Y559469D03*
X1279874Y554350D03*
X1265126D03*
Y589469D03*
Y584350D03*
X1279874D03*
X1297165Y556201D03*
X1292500Y566280D03*
X1297165Y586201D03*
X1292500Y596280D03*
G54D17*
X828012Y921319D03*
G54D18*
X899823Y942913D03*
X894823D03*
X919823D03*
X914823D03*
X909823D03*
X904823D03*
X939823D03*
X934823D03*
X929823D03*
X924823D03*
G54D19*
X965000Y760000D03*
X1045276Y639764D03*
X1080709Y590551D03*
X1135000Y810000D03*
X1212500Y717500D03*
X1235000Y545000D03*
M02*
